<?xml version="1.0" encoding="UTF-8" standalone="no"?>
<svg
   xmlns:dc="http://purl.org/dc/elements/1.1/"
   xmlns:cc="http://creativecommons.org/ns#"
   xmlns:rdf="http://www.w3.org/1999/02/22-rdf-syntax-ns#"
   xmlns:svg="http://www.w3.org/2000/svg"
   xmlns="http://www.w3.org/2000/svg"
   version="1.1"
   id="Layer_1"
   x="0px"
   y="0px"
   viewBox="0 0 498.10536 84.300003"
   xml:space="preserve"
   width="498.10535"
   height="84.300003"><metadata
   id="metadata25"><rdf:RDF><cc:Work
       rdf:about=""><dc:format>image/svg+xml</dc:format><dc:type
         rdf:resource="http://purl.org/dc/dcmitype/StillImage" /><dc:title></dc:title></cc:Work></rdf:RDF></metadata><defs
   id="defs23" />
<style
   type="text/css"
   id="style2">
	.st0{fill:#727175;}
</style>
<g
   id="g18"
   transform="translate(-68.594642,-69.4)">
	<path
   class="st0"
   d="M 283.2,143.2 261.8,83.7 c -0.3,-0.8 -0.7,-1.9 -0.7,-2.9 0,-2.6 2.2,-5 5.3,-5 2.7,0 4.5,1.8 5.3,4.4 l 17.7,51.3 17.8,-51.4 c 0.8,-2.4 2.5,-4.2 5.2,-4.2 h 0.5 c 2.9,0 4.6,1.8 5.5,4.2 l 17.7,51.4 18,-51.5 c 0.7,-2.2 2.2,-4.1 5,-4.1 3,0 5.2,2.3 5.2,4.9 0,1 -0.4,2 -0.7,2.9 l -21.5,59.6 c -1.1,3.1 -3.3,4.7 -5.7,4.7 H 336 c -2.7,0 -4.8,-1.6 -5.7,-4.7 l -17.5,-50.6 -17.7,50.6 c -0.9,3.1 -3,4.7 -5.7,4.7 h -0.3 c -2.6,0 -4.8,-1.6 -5.9,-4.8"
   id="path4" />
	<path
   class="st0"
   d="m 439,81 c 0,-2.9 2.3,-5.3 5.2,-5.3 3,0 5.3,2.3 5.3,5.3 v 12.1 c 5.2,-11.7 16.7,-17.3 24.3,-17.3 3.1,0 5.2,2.3 5.2,5.3 0,2.9 -1.9,4.9 -4.6,5.3 -13.6,1.6 -24.8,11.9 -24.8,32.2 v 23.9 c 0,2.9 -2.2,5.3 -5.2,5.3 -3,0 -5.3,-2.3 -5.3,-5.3 V 81"
   id="path6" />
	<path
   class="st0"
   d="m 512.7,148.6 c -19,0 -34.5,-14.7 -34.5,-36.3 V 112 c 0,-20.1 14,-36.3 33.1,-36.3 20.4,0 32.1,16.9 32.1,35.4 0,2.8 -2.3,4.9 -4.8,4.9 h -50 c 1.5,15.1 12,23.6 24.3,23.6 8.6,0 14.8,-3.4 19.9,-8.1 0.8,-0.7 1.7,-1.2 2.9,-1.2 2.5,0 4.5,2 4.5,4.5 0,1.2 -0.5,2.4 -1.6,3.4 -6.4,6.2 -14.1,10.4 -25.9,10.4 m 20.4,-40.4 c -1.1,-12.7 -8.3,-23.8 -22,-23.8 -12,0 -21.1,10.1 -22.4,23.8 z"
   id="path8" />
	<path
   class="st0"
   d="m 364.6,126.7 v -0.3 c 0,-14.8 12.2,-22.7 30,-22.7 9,0 15.4,1.2 21.6,3 v -2.4 c 0,-12.6 -7.8,-19.2 -20.9,-19.2 -7.1,0 -11.2,0.9 -16.4,3.2 -0.7,0.3 -1.4,0.4 -1.9,0.4 -2.5,0 -4.6,-2 -4.6,-4.5 0,-2.2 1,-3.5 2.9,-4.4 6.9,-3 12.1,-4 21.1,-4 9.9,0 17.5,2.6 22.7,7.7 4.8,4.8 7.2,11.6 7.2,20.5 v 38.8 c 0,3 -2.2,5.2 -5,5.2 -3,0 -5,-2.2 -5,-4.9 v -6.7 c -4.9,6.4 -13.1,12.1 -25.4,12.1 -13.1,0.1 -26.3,-7.4 -26.3,-21.8 m 51.8,-5.4 v -6.8 c -5.2,-1.5 -12.1,-3 -20.7,-3 -13.2,0 -20.5,5.7 -20.5,14.6 v 0.3 c 0,8.8 8.2,14 17.7,14 12.9,-0.1 23.5,-8 23.5,-19.1"
   id="path10" />
	<path
   class="st0"
   d="m 92.8,80.3 c -2.3,-5 -8,-7.3 -13.3,-5 -5.3,2.4 -7.3,8.3 -4.9,13.3 l 22.3,48.5 c 3.5,7.6 7.2,11.6 14.1,11.6 7.4,0 10.6,-4.3 14.2,-11.6 0,0 19.5,-42.4 19.7,-42.8 0.2,-0.5 0.8,-1.8 2.8,-1.8 1.7,0 3.1,1.4 3.1,3.1 v 41.5 c 0,6.4 3.5,11.6 10.4,11.6 6.8,0 10.5,-5.2 10.5,-11.6 v -33.9 c 0,-6.5 4.7,-10.8 11.1,-10.8 6.4,0 10.6,4.4 10.6,10.8 v 33.9 c 0,6.4 3.6,11.6 10.4,11.6 6.8,0 10.5,-5.2 10.5,-11.6 v -33.9 c 0,-6.5 4.7,-10.8 11.1,-10.8 6.4,0 10.6,4.4 10.6,10.8 v 33.9 c 0,6.4 3.5,11.6 10.4,11.6 6.8,0 10.5,-5.2 10.5,-11.6 V 98.5 c 0,-14.2 -11.4,-24.1 -25.1,-24.1 -13.7,0 -22.3,9.5 -22.3,9.5 -4.6,-5.9 -10.9,-9.5 -21.5,-9.5 -11.2,0 -21.1,9.5 -21.1,9.5 -4.6,-5.9 -12.3,-9.5 -18.8,-9.5 -10,0 -17.9,4.4 -22.7,15.4 L 111,123.4 92.8,80.3"
   id="path12" />
	<path
   class="st0"
   d="m 544.3,84.5 v 0 c 0,-4.8 3.8,-8.8 8.7,-8.8 4.9,0 8.7,4 8.7,8.7 v 0 c 0,4.8 -3.8,8.8 -8.7,8.8 -4.9,0 -8.7,-4 -8.7,-8.7 M 560,84.4 v 0 c 0,-3.9 -3,-7.1 -7,-7.1 -4,0 -7,3.2 -7,7.1 v 0.1 c 0,3.9 3,7.1 7,7.1 4,-0.1 7,-3.3 7,-7.2"
   id="path14" />
	<path
   class="st0"
   d="m 549.7,81 c 0,-0.5 0.4,-0.9 0.9,-0.9 h 2.9 c 1.1,0 1.9,0.3 2.5,0.9 0.5,0.5 0.7,1.1 0.7,1.9 v 0 c 0,1.3 -0.7,2.1 -1.7,2.6 l 1.3,1.6 c 0.2,0.2 0.3,0.4 0.3,0.7 0,0.5 -0.4,0.9 -0.9,0.9 -0.4,0 -0.7,-0.2 -0.9,-0.5 L 553,85.9 h -1.5 v 1.8 c 0,0.5 -0.4,0.9 -0.9,0.9 -0.5,0 -0.9,-0.4 -0.9,-0.9 z m 3.7,3.1 c 0.9,0 1.4,-0.5 1.4,-1.2 v 0 c 0,-0.8 -0.5,-1.2 -1.4,-1.2 h -1.8 v 2.4 z"
   id="path16" />
</g>
</svg>
