<?xml version="1.0"?><svg width="640" height="480" xmlns="http://www.w3.org/2000/svg">
 <metadata id="metadata1906">image/svg+xml</metadata>
 <g>
  <title>Layer 1</title>
  <g id="svg_29" transform="rotate(-135 381.7463989257812,272.8946228027344) translate(95,26) translate(66,0) translate(117,124) translate(46,0) translate(-61,-34) translate(282.1893005371094,0) scale(0.8557825088500977,1) translate(-282.1893005371094,0) translate(-9.037540435791016,394.4143371582031) scale(1,0.8123800158500671) translate(9.037540435791016,-394.4143371582031) translate(-9.037540435791016,0) scale(0.594817578792572,0.7033576369285583) translate(9.037540435791016,0) translate(-9.037540435791016,0) scale(0.7519532442092896,0.6343238949775696) translate(9.037540435791016,0) translate(282.1893005371094,0) scale(0.46090131998062134,1.1597305536270142) translate(-282.1893005371094,0) ">
   <metadata id="svg_28">image/svg+xml</metadata>
   <path fill="#e73900" fill-rule="evenodd" stroke-width="1.0000004pt" id="svg_27" d="m58.95454,347.233948c-67.992081,-104.383072 14.105549,-113.705475 -6.835709,-256.609924c51.357418,67.416946 65.695728,150.111374 87.256443,174.570007c14.880341,19.208588 22.219193,42.394897 20.218491,66.217255c-0.201736,18.853668 23.625092,41.698303 17.109802,59.300507c-34.64389,-27.748779 -94.232521,-9.662262 -117.749027,-43.477844z"/>
   <path fill="#e73900" fill-rule="evenodd" stroke-width="1.0000002pt" id="svg_26" d="m161.780899,377.713684c0.393036,-19.990234 -23.796158,-28.662384 -33.526215,-44.274475c-16.114708,-11.924957 -21.219292,-30.486847 -21.574982,-48.765839c-1.309799,-29.233673 24.74826,-203.54258 62.711121,-250.35614c-14.548401,71.885963 21.569031,167.642517 43.882858,199.320786c15.099564,24.613571 20.776245,52.952744 15.337296,80.837692c-2.672226,22.247223 -21.10112,35.615326 -31.070511,55.569061c-9.972519,12.016785 -23.544098,13.155334 -35.759567,7.668915z"/>
   <path fill="#e73900" fill-rule="evenodd" stroke-width="1.0000002pt" id="svg_25" d="m175.560699,387.492584c5.786621,-17.367035 -5.664856,-44.894958 -9.27092,-61.002228c-9.783325,-14.503784 -8.837967,-32.016144 -4.125595,-48.077728c6.936722,-25.875122 8.081924,-147.980865 120.025116,-205.321892c-86.817535,85.18264 -29.17041,154.410896 -19.772308,187.745506c5.490479,25.333252 2.683807,51.737152 -9.697479,74.519806c-17.093628,31.453796 -62.733078,48.789246 -77.158813,52.136536z"/>
   <path fill="#e78c00" fill-rule="evenodd" stroke-width="1.0000000pt" id="svg_24" d="m157.115952,377.31308c0.297287,-16.319763 -17.998978,-23.399536 -25.358612,-36.14505c-12.188858,-9.735382 -16.049866,-24.889008 -16.318909,-39.811737c-0.990707,-23.865967 23.325745,-150.046127 42.82692,-204.387222c-13.307449,123.179276 20.921021,136.860992 37.798782,162.722672c11.421021,20.094177 15.714767,43.229889 11.600845,65.994751c-2.021225,18.162323 -10.733963,34.71701 -18.274628,51.006958c-7.543015,9.810333 -23.034851,5.098663 -32.274399,0.619629z"/>
   <path fill="#e78c00" fill-rule="evenodd" stroke-width="1.0000004pt" id="svg_23" d="m86.962914,353.926514c-69.840643,-71.70462 6.256737,-76.698273 -13.112495,-175.174698c23.002991,46.416595 42.077881,81.285751 50.45385,114.24382c12.395378,11.638062 55.225288,82.682953 52.658348,95.563538c-26.992249,-15.366669 -69.889694,-13.985931 -89.999702,-34.63266z"/>
   <path fill="#e7e100" fill-rule="evenodd" stroke-width="1.0000004pt" id="svg_22" d="m100.909927,349.609009c-41.778397,-39.659393 -10.578407,-62.944946 -10.951668,-112.479843c11.549271,43.352737 48.07975,54.035019 47.610725,80.077652c6.034912,7.790283 37.634308,63.344574 34.991943,70.483337c-14.050232,-11.253845 -55.821762,-23.054779 -71.651001,-38.081146z"/>
   <path fill="#e78c00" fill-rule="evenodd" stroke-width="1.0000002pt" id="svg_21" d="m168.064667,344.263855c-7.340393,-10.882141 -6.631104,-24.021606 -3.095428,-36.07254c5.204605,-19.414001 28.071335,-127.324036 60.738098,-150.794861c-23.591034,44.360275 7.429855,112.596527 14.481201,137.607361c4.119492,19.007446 5.271652,41.489868 -7.27597,55.911926c-18.955414,21.787079 -42.881821,34.475067 -56.289993,37.517059c-8.523651,5.981537 -5.852295,-32.08371 -8.557907,-44.168945z"/>
   <path fill="#e7e100" fill-rule="evenodd" stroke-width="0.99999981pt" id="svg_20" d="m156.262634,378.507538c0.589859,-9.984375 -10.435165,-14.776245 -14.622604,-22.763641c-7.219376,-6.265137 -9.204575,-15.639496 -8.996368,-24.782684c-0.010147,-14.63678 -0.509583,-105.87648 18.025986,-128.557938c-8.203934,35.656097 22.691437,88.807907 32.378586,105.063583c6.490387,12.588165 8.541061,26.860352 5.4534,40.695404c-1.691391,11.069427 -7.439529,20.987366 -12.463409,30.772491c-4.863419,5.817902 -14.230591,2.546021 -19.775589,-0.427216z"/>
   <path fill="#e7e100" fill-rule="evenodd" stroke-width="0.99999981pt" id="svg_19" d="m165.079712,379.782837c4.745773,-6.950439 -1.137543,-15.179047 -0.703583,-22.75531c-2.499344,-7.645203 0.124054,-15.269562 4.230438,-21.778046c6.32576,-10.567627 17.44223,-89.101395 40.633118,-97.450394c-21.348541,22.183029 15.723618,81.494766 15.681213,97.417831c-0.762634,11.893066 -15.230118,27.966553 -23.444641,36.615234c-6.010239,7.256897 -17.904892,14.230774 -25.76445,19.118866c-6.027206,-3.663849 -7.916779,-6.623199 -10.632095,-11.168182z"/>
   <path fill="#ffff9e" fill-rule="evenodd" stroke-width="1.0000011pt" id="svg_18" d="m157.079498,371.834778c-14.756073,-23.241425 -9.281525,-49.170258 -3.006332,-77.451172c2.858627,19.189178 14.766617,42.475677 21.49823,50.112061c4.645889,5.997253 6.937195,13.236389 6.312546,20.674133c-0.062988,5.886414 -3.051254,13.01889 -5.085434,18.514587c-10.816391,-8.663635 -12.37677,-1.29184 -19.719009,-11.849609z"/>
   <path fill="#ffff9e" fill-rule="evenodd" stroke-width="1.0000011pt" id="svg_17" d="m173.667419,360.307526c11.431229,-25.044617 0.114914,-44.761444 26.314117,-64.408966c-7.823578,18.214691 10.069717,46.975555 8.122726,56.948456c-3.274277,16.771606 -25.885086,29.254425 -31.60083,30.547058c1.36171,-13.79126 -7.680237,-11.174011 -2.836014,-23.086548z"/>
   <path transform="translate(0,0) scale(NaN,NaN) translate(0,0) translate(NaN,NaN) scale(NaN,NaN) translate(NaN,NaN) translate(NaN,NaN) scale(NaN,NaN) translate(NaN,NaN) translate(NaN,NaN) scale(NaN,NaN) translate(NaN,NaN) translate(NaN,NaN) scale(NaN,NaN) translate(NaN,NaN) translate(NaN,NaN) scale(NaN,NaN) translate(NaN,NaN) translate(NaN,NaN) scale(NaN,NaN) translate(NaN,NaN) translate(NaN,NaN) scale(NaN,NaN) translate(NaN,NaN) translate(NaN,NaN) scale(NaN,NaN) translate(NaN,NaN) translate(NaN,NaN) scale(NaN,NaN) translate(NaN,NaN) translate(NaN,NaN) scale(NaN,NaN) translate(NaN,NaN) translate(NaN,NaN) scale(NaN,NaN) translate(NaN,NaN) translate(NaN,NaN) scale(NaN,NaN) translate(NaN,NaN) translate(NaN,NaN) scale(NaN,NaN) translate(NaN,NaN) translate(NaN,NaN) scale(NaN,NaN) translate(NaN,NaN) translate(NaN,NaN) scale(NaN,NaN) translate(NaN,NaN) translate(NaN,NaN) scale(NaN,NaN) translate(NaN,NaN) translate(NaN,NaN) scale(NaN,NaN) translate(NaN,NaN) translate(NaN,NaN) scale(NaN,NaN) translate(NaN,NaN) translate(NaN,NaN) scale(NaN,NaN) translate(NaN,NaN) translate(NaN,NaN) scale(NaN,NaN) translate(NaN,NaN) translate(NaN,NaN) scale(NaN,NaN) translate(NaN,NaN) translate(NaN,NaN) scale(NaN,NaN) translate(NaN,NaN) translate(NaN,NaN) scale(NaN,NaN) translate(NaN,NaN) " fill="#ffff9e" fill-rule="evenodd" stroke-width="1.0000011pt" id="svg_16" d="0"/>
  </g>
  <g id="svg_1" transform="rotate(45.51949691772461 482.0426025390626,169.65783691406247) ">
   <path d="m481.668121,67.248428c-8.024017,6.942398 -69.699341,65.128845 -22.981689,176.556107l46.541504,0l0.171021,0c46.717438,-111.426743 -14.957458,-169.604553 -22.981659,-176.547256l-0.749176,-0.00885z" id="path3217" stroke-width="3" stroke="#000000" fill-rule="evenodd" fill="#ececec"/>
   <path id="path3219" d="m483.602325,139.389542c-9.718628,0 -17.623077,8.60173 -17.623077,19.166794c0,10.565094 7.904449,19.15799 17.623077,19.15799c9.718658,0 17.631195,-8.592896 17.631195,-19.15799c0,-10.565063 -7.912537,-19.166794 -17.631195,-19.166794zm0,2.266373c8.590607,0 15.546387,7.5616 15.546387,16.900421c0,9.338837 -6.95578,16.891602 -15.546387,16.891602c-8.590637,0 -15.5383,-7.552765 -15.5383,-16.891602c0.000031,-9.338821 6.947662,-16.900421 15.5383,-16.900421z" stroke-miterlimit="4" stroke-linecap="round" stroke-width="3" fill-rule="nonzero" fill="#cccccc"/>
   <path id="path2419" d="m450.564606,112.995544l11.31958,-22.607681l15.794739,-19.459793l4.475159,-3.720245l16.847748,19.173599l13.162231,23.180038l1.05304,4.86496l-62.915741,-0.286179" stroke-width="3" stroke="#000000" fill-rule="evenodd" fill="#ff0000"/>
   <path id="path2408" d="m444.246735,199.133698c0,0 -27.904083,-0.377777 -11.056335,76.694458c0,0 1.579468,-64.35379 16.321228,-56.419861" stroke-width="3" stroke="#000000" fill-rule="evenodd" fill="#ff0000"/>
   <path d="m519.919312,199.133698c0,0 27.903931,-0.377777 11.056274,76.694458c0,0 -1.579468,-64.35379 -16.321228,-56.419861" id="path2410" stroke-width="3" stroke="#000000" fill-rule="evenodd" fill="#ff0000"/>
   <path id="path2423" d="m451.880859,228.037231l6.844391,15.739532l46.857727,-0.286194l5.528107,-15.453339l-59.230225,0z" stroke-width="3" stroke="#000000" fill-rule="evenodd" fill="#b3b3b3"/>
   <path id="path3209" d="m526.379333,206.860413l-5.264893,14.308685l-3.158936,-2.861786l-3.685486,1.717041l5.001709,-21.462982l8.950378,4.86496c0,0 15.531433,11.733124 3.42218,70.112518c7.107605,-60.382599 -5.528198,-66.678436 -5.264954,-66.678436z" stroke-width="3" fill-rule="evenodd" fill="#d20000"/>
   <path id="path3213" d="m432.400665,274.969666c0,0 -2.621887,-62.42981 15.26825,-62.671936c1.974182,-0.026733 1.842712,6.868134 1.842712,6.868134l-7.107635,1.717041l-5.528137,18.887451l-4.475189,35.19931z" stroke-width="3" fill-rule="evenodd" fill="#d20000"/>
   <path id="path3232" d="m493.943024,228.038544c1.056213,3.459106 1.680359,8.285797 1.376312,15.165253c0.224701,0.08606 0.462708,0.206848 0.708496,0.345276l9.552643,-0.061981l4.454559,-12.447388c-0.179688,-1.063507 -0.387268,-2.012756 -0.586304,-3.00116l-15.505707,0z" stroke-width="3" fill-rule="evenodd" fill="#999999"/>
   <path id="path3227" d="m487.159729,197.825989c-1.776917,-0.143097 -2.89917,0.159363 -2.89917,0.159363l-1.319305,22.035217c0,0 6.341797,-1.361389 9.332733,8.020813l15.538269,0c-5.046753,-25.584167 -15.549164,-29.804474 -20.652527,-30.215393z" stroke-width="3" fill-rule="evenodd" fill="#cccccc"/>
   <path id="path3241" d="m452.621674,229.318604l5.211975,14.164856l7.296814,0.56662l-2.084778,-16.14798l-10.424011,1.416504z" stroke-width="3" fill-rule="evenodd" fill="#cccccc"/>
   <path id="path2394" d="m450.564606,113.567902l61.862701,0" stroke-width="3" stroke="#000000" fill-rule="evenodd" fill="none"/>
   <path d="m498.627136,156.854874a16.584471,18.028919 0 1 1-33.168945,0a16.584471,18.028919 0 1 133.168945,0z" id="path2400" stroke-miterlimit="4" stroke-linecap="round" stroke-width="3" stroke="#000000" fill-rule="nonzero" fill="#b3b3b3"/>
   <path id="path2402" d="m492.835754,156.854874a10.79307,11.73311 0 1 1-21.586182,0a10.79307,11.73311 0 1 121.586182,0z" stroke-miterlimit="4" stroke-linecap="round" stroke-width="3" stroke="#000000" fill-rule="nonzero" fill="#80e5ff"/>
   <path id="path2417" d="m452.670593,228.323425l58.440491,0" stroke-width="3" stroke="#000000" fill-rule="evenodd" fill="none"/>
   <path id="rect2414" d="m479.673462,198.561371l4.738434,0l0,77.266785l-4.738434,0l0,-77.266785z" stroke-miterlimit="4" stroke-linecap="round" stroke-width="3" stroke="#000000" fill-rule="nonzero" fill="#ff0000"/>
   <path id="path2425" d="m508.478638,224.603149c0,0 21.059692,-52.655884 4.211975,-103.308563c0.789734,89.858429 -21.849426,103.308563 -21.849426,103.308563l17.637451,0z" stroke-width="3" fill-rule="evenodd" fill="#cccccc"/>
   <rect transform="matrix(0.18343477564770408,0.20122733705146786,-0.18343477564770408,0.20122733705146786,291.74654578912646,87.84773003572441) " y="-389.6704" x="672.6047" height="83.713531" width="34.470276" id="rect2429" stroke-miterlimit="4" stroke-linecap="round" stroke-width="3" fill-rule="nonzero" fill="#ffffff"/>
   <path d="m492.835754,156.854874a10.79307,11.73311 0 1 1-21.586182,0a10.79307,11.73311 0 1 121.586182,0z" id="path2431" stroke-miterlimit="4" stroke-linecap="round" stroke-width="3" stroke="#000000" fill-rule="nonzero" fill="none"/>
   <path id="path2437" d="m506.109497,109.275299c0,0 -8.160675,-23.180054 -23.692139,-35.485504c14.21524,29.762039 6.84436,35.485504 6.84436,35.485504l16.847778,0z" stroke-width="3" fill-rule="evenodd" fill="#d20000"/>
   <path id="path3211" d="m519.919312,199.133698c0,0 27.903931,-0.377777 11.056274,76.694458c0,0 -1.579468,-64.35379 -16.321228,-56.419861" stroke-width="3" stroke="#000000" fill-rule="evenodd" fill="none"/>
   <path d="m444.246735,199.133698c0,0 -27.904083,-0.377777 -11.056335,76.694458c0,0 1.579468,-64.35379 16.321228,-56.419861" id="path3215" stroke-width="3" stroke="#000000" fill-rule="evenodd" fill="none"/>
   <path id="path3237" d="m454.250061,108.416779c0,0 13.952026,-29.475861 25.53479,-37.20253c11.582855,-7.7267 -25.271545,37.774872 -25.53479,37.20253z" stroke-width="3" fill-rule="evenodd" fill="#ffffff"/>
   <path id="path3239" d="m446.032227,186.743073c-0.824493,-0.49765 -5.921906,-41.350266 6.701141,-66.777176c7.783325,-6.810242 18.372894,-3.228683 17.86972,-0.404724c-4.359009,24.462952 -19.667358,70.141678 -24.570862,67.1819z" stroke-width="3" fill-rule="evenodd" fill="#ffffff"/>
   <path id="path2382" d="m481.668121,67.248428c-8.024017,6.942398 -69.699341,65.128845 -22.981689,176.556107l46.541504,0l0.171021,0c46.717438,-111.426743 -14.957458,-169.604553 -22.981659,-176.547256l-0.749176,-0.00885z" stroke-width="3" stroke="#000000" fill-rule="evenodd" fill="none"/>
  </g>
  <metadata id="svg_1757">image/svg+xml</metadata>
  <path id="svg_1756" stroke-width="1.0000004pt" fill-rule="evenodd" fill="#e73900"/>
  <path id="svg_1755" stroke-width="1.0000002pt" fill-rule="evenodd" fill="#e73900"/>
  <path id="svg_1754" stroke-width="1.0000002pt" fill-rule="evenodd" fill="#e73900"/>
  <path id="svg_1753" stroke-width="1.0000000pt" fill-rule="evenodd" fill="#e78c00"/>
  <path id="svg_1752" stroke-width="1.0000004pt" fill-rule="evenodd" fill="#e78c00"/>
  <path id="svg_1751" stroke-width="1.0000004pt" fill-rule="evenodd" fill="#e7e100"/>
  <path id="svg_1750" stroke-width="1.0000002pt" fill-rule="evenodd" fill="#e78c00"/>
  <path id="svg_1749" stroke-width="0.99999981pt" fill-rule="evenodd" fill="#e7e100"/>
  <path id="svg_1748" stroke-width="0.99999981pt" fill-rule="evenodd" fill="#e7e100"/>
  <path id="svg_1747" stroke-width="1.0000011pt" fill-rule="evenodd" fill="#ffff9e"/>
  <path id="svg_1746" stroke-width="1.0000011pt" fill-rule="evenodd" fill="#ffff9e"/>
  <path id="svg_1745" stroke-width="1.0000011pt" fill-rule="evenodd" fill="#ffff9e" transform="translate(0,0) scale(NaN,NaN) translate(0,0) translate(NaN,NaN) scale(NaN,NaN) translate(NaN,NaN) translate(NaN,NaN) scale(NaN,NaN) translate(NaN,NaN) translate(NaN,NaN) scale(NaN,NaN) translate(NaN,NaN) matrix(NaN,NaN,NaN,NaN,NaN,NaN) "/>
  <metadata transform="matrix(NaN,NaN,NaN,NaN,NaN,NaN) " id="svg_14">image/svg+xml</metadata>
  <path fill="#e73900" fill-rule="evenodd" stroke-width="1.0000004pt" id="svg_13" d="0"/>
  <path fill="#e73900" fill-rule="evenodd" stroke-width="1.0000002pt" id="svg_12" d="0"/>
  <path fill="#e73900" fill-rule="evenodd" stroke-width="1.0000002pt" id="svg_11" d="0"/>
  <path fill="#e78c00" fill-rule="evenodd" stroke-width="1.0000000pt" id="svg_10" d="0"/>
  <path fill="#e78c00" fill-rule="evenodd" stroke-width="1.0000004pt" id="svg_9" d="0"/>
  <path fill="#e7e100" fill-rule="evenodd" stroke-width="1.0000004pt" id="svg_8" d="0"/>
  <path fill="#e78c00" fill-rule="evenodd" stroke-width="1.0000002pt" id="svg_7" d="0"/>
  <path fill="#e7e100" fill-rule="evenodd" stroke-width="0.99999981pt" id="svg_6" d="0"/>
  <path fill="#e7e100" fill-rule="evenodd" stroke-width="0.99999981pt" id="svg_5" d="0"/>
  <path transform="matrix(NaN,NaN,NaN,NaN,NaN,NaN) " fill="#ffff9e" fill-rule="evenodd" stroke-width="1.0000011pt" id="svg_4" d="0"/>
  <g id="svg_1758"/>
  <g id="svg_15" transform="translate(0,0) scale(NaN,NaN) translate(0,0) ">
   <path fill="#ffff9e" fill-rule="evenodd" stroke-width="1.0000011pt" id="svg_3" d="0"/>
   <path transform="translate(0,0) scale(NaN,NaN) translate(0,0) translate(NaN,NaN) scale(NaN,NaN) translate(NaN,NaN) " fill="#ffff9e" fill-rule="evenodd" stroke-width="1.0000011pt" id="svg_2" d="0"/>
  </g>
 </g>
</svg>