<svg version="1.1" viewBox="0.0 0.0 765.7979002624672 240.71128608923885" fill="none" stroke="none" stroke-linecap="square" stroke-miterlimit="10" xmlns:xlink="http://www.w3.org/1999/xlink" xmlns="http://www.w3.org/2000/svg"><clipPath id="p.0"><path d="m0 0l765.7979 0l0 240.71129l-765.7979 0l0 -240.71129z" clip-rule="nonzero"/></clipPath><g clip-path="url(#p.0)"><path fill="#000000" fill-opacity="0.0" d="m0 0l765.7979 0l0 240.71129l-765.7979 0z" fill-rule="evenodd"/><path fill="#b6d7a8" d="m340.57513 16.944881l168.78741 0l0 73.79527l-168.78741 0z" fill-rule="evenodd"/><path stroke="#000000" stroke-width="1.0" stroke-linejoin="round" stroke-linecap="butt" d="m340.57513 16.944881l168.78741 0l0 73.79527l-168.78741 0z" fill-rule="evenodd"/><path fill="#000000" d="m406.46255 48.93439l-4.265625 0l0 11.828125l-1.734375 0l0 -11.828125l-4.25 0l0 -1.4375l10.25 0l0 1.4375zm5.7919617 3.484375q-0.390625 -0.0625 -0.84375 -0.0625q-1.65625 0 -2.25 1.40625l0 7.0l-1.671875 0l0 -9.859375l1.640625 0l0.015625 1.140625q0.828125 -1.3125 2.359375 -1.3125q0.484375 0 0.75 0.125l0 1.5625zm3.3753662 8.34375l-1.6875 0l0 -9.859375l1.6875 0l0 9.859375zm-1.828125 -12.46875q0 -0.40625 0.25 -0.6875q0.25 -0.296875 0.734375 -0.296875q0.5 0 0.75 0.296875q0.265625 0.28125 0.265625 0.6875q0 0.40625 -0.265625 0.6875q-0.25 0.265625 -0.75 0.265625q-0.484375 0 -0.734375 -0.265625q-0.25 -0.28125 -0.25 -0.6875zm4.1211853 7.453125q0 -2.296875 1.0625 -3.65625q1.0625 -1.359375 2.828125 -1.359375q1.796875 0 2.8125 1.265625l0.078125 -1.09375l1.546875 0l0 9.625q0 1.90625 -1.140625 3.0q-1.125 1.1093788 -3.046875 1.1093788q-1.0625 0 -2.09375 -0.453125q-1.015625 -0.4531288 -1.546875 -1.2500038l0.875 -1.0q1.078125 1.328125 2.65625 1.328125q1.21875 0 1.90625 -0.6875q0.6875 -0.6875 0.6875 -1.953125l0 -0.84375q-1.0 1.171875 -2.75 1.171875q-1.734375 0 -2.8125 -1.390625q-1.0625 -1.40625 -1.0625 -3.8125zm1.6875 0.203125q0 1.65625 0.6875 2.609375q0.6875 0.953125 1.921875 0.953125q1.59375 0 2.328125 -1.453125l0 -4.5q-0.765625 -1.40625 -2.3125 -1.40625q-1.234375 0 -1.9375 0.953125q-0.6875 0.953125 -0.6875 2.84375zm8.779297 -0.203125q0 -2.296875 1.0625 -3.65625q1.0625 -1.359375 2.828125 -1.359375q1.796875 0 2.8125 1.265625l0.078125 -1.09375l1.546875 0l0 9.625q0 1.90625 -1.140625 3.0q-1.125 1.1093788 -3.046875 1.1093788q-1.0625 0 -2.09375 -0.453125q-1.015625 -0.4531288 -1.546875 -1.2500038l0.875 -1.0q1.078125 1.328125 2.65625 1.328125q1.21875 0 1.90625 -0.6875q0.6875 -0.6875 0.6875 -1.953125l0 -0.84375q-1.0 1.171875 -2.75 1.171875q-1.734375 0 -2.8125 -1.390625q-1.0625 -1.40625 -1.0625 -3.8125zm1.6875 0.203125q0 1.65625 0.6875 2.609375q0.6875 0.953125 1.921875 0.953125q1.59375 0 2.328125 -1.453125l0 -4.5q-0.765625 -1.40625 -2.3125 -1.40625q-1.234375 0 -1.9375 0.953125q-0.6875 0.953125 -0.6875 2.84375zm13.263702 5.0q-2.0 0 -3.265625 -1.3125q-1.25 -1.328125 -1.25 -3.53125l0 -0.3125q0 -1.46875 0.5625 -2.609375q0.5625 -1.15625 1.5625 -1.796875q1.015625 -0.65625 2.1875 -0.65625q1.921875 0 2.984375 1.265625q1.0625 1.265625 1.0625 3.625l0 0.6875l-6.671875 0q0.03125 1.46875 0.84375 2.375q0.828125 0.890625 2.078125 0.890625q0.890625 0 1.515625 -0.359375q0.625 -0.375 1.078125 -0.96875l1.03125 0.796875q-1.234375 1.90625 -3.71875 1.90625zm-0.203125 -8.84375q-1.015625 0 -1.71875 0.75q-0.6875 0.734375 -0.84375 2.078125l4.9375 0l0 -0.125q-0.078125 -1.28125 -0.703125 -1.984375q-0.609375 -0.71875 -1.671875 -0.71875zm10.774414 0.3125q-0.390625 -0.0625 -0.84375 -0.0625q-1.65625 0 -2.25 1.40625l0 7.0l-1.671875 0l0 -9.859375l1.640625 0l0.015625 1.140625q0.828125 -1.3125 2.359375 -1.3125q0.484375 0 0.75 0.125l0 1.5625z" fill-rule="nonzero"/><path fill="#d9d9d9" d="m614.1338 137.13387l140.44092 0l0 55.936996l-140.44092 0z" fill-rule="evenodd"/><path stroke="#000000" stroke-width="1.0" stroke-linejoin="round" stroke-linecap="butt" stroke-dasharray="4.0,3.0" d="m614.1338 137.13387l140.44092 0l0 55.936996l-140.44092 0z" fill-rule="evenodd"/><path fill="#000000" d="m663.0222 157.88423q-1.921875 -0.546875 -2.8125 -1.359375q-0.875 -0.8125 -0.875 -2.0q0 -1.34375 1.078125 -2.21875q1.078125 -0.875 2.796875 -0.875q1.171875 0 2.078125 0.453125q0.921875 0.453125 1.421875 1.25q0.515625 0.796875 0.515625 1.734375l-1.515625 0q0 -1.03125 -0.65625 -1.609375q-0.65625 -0.59375 -1.84375 -0.59375q-1.109375 0 -1.734375 0.484375q-0.625 0.484375 -0.625 1.359375q0 0.6875 0.59375 1.171875q0.59375 0.484375 2.0 0.890625q1.421875 0.390625 2.21875 0.875q0.8125 0.46875 1.1875 1.109375q0.390625 0.640625 0.390625 1.515625q0 1.375 -1.078125 2.21875q-1.078125 0.828125 -2.875 0.828125q-1.171875 0 -2.1875 -0.453125q-1.015625 -0.453125 -1.578125 -1.234375q-0.546875 -0.78125 -0.546875 -1.765625l1.515625 0q0 1.03125 0.75 1.625q0.765625 0.59375 2.046875 0.59375q1.1875 0 1.8125 -0.484375q0.640625 -0.484375 0.640625 -1.3125q0 -0.84375 -0.59375 -1.296875q-0.578125 -0.453125 -2.125 -0.90625zm9.4296875 5.234375q-1.71875 0 -2.796875 -1.125q-1.078125 -1.140625 -1.078125 -3.03125l0 -0.265625q0 -1.25 0.46875 -2.234375q0.484375 -1.0 1.34375 -1.546875q0.875 -0.5625 1.875 -0.5625q1.65625 0 2.5625 1.09375q0.921875 1.078125 0.921875 3.09375l0 0.609375l-5.734375 0q0.03125 1.25 0.734375 2.015625q0.703125 0.765625 1.78125 0.765625q0.765625 0 1.296875 -0.3125q0.53125 -0.3125 0.921875 -0.828125l0.890625 0.6875q-1.0625 1.640625 -3.1875 1.640625zm-0.1875 -7.578125q-0.875 0 -1.46875 0.640625q-0.59375 0.625 -0.734375 1.78125l4.234375 0l0 -0.109375q-0.0625 -1.109375 -0.59375 -1.703125q-0.53125 -0.609375 -1.4375 -0.609375zm9.2421875 0.265625q-0.328125 -0.0625 -0.71875 -0.0625q-1.421875 0 -1.921875 1.21875l0 6.0l-1.453125 0l0 -8.453125l1.40625 0l0.03125 0.96875q0.703125 -1.125 2.015625 -1.125q0.421875 0 0.640625 0.109375l0 1.34375zm4.2578125 5.1875l2.09375 -6.484375l1.46875 0l-3.03125 8.453125l-1.09375 0l-3.0625 -8.453125l1.46875 0l2.15625 6.484375zm6.53125 1.96875l-1.453125 0l0 -8.453125l1.453125 0l0 8.453125zm-1.5625 -10.703125q0 -0.34375 0.203125 -0.578125q0.21875 -0.25 0.640625 -0.25q0.421875 0 0.640625 0.25q0.21875 0.234375 0.21875 0.59375q0 0.34375 -0.21875 0.578125q-0.21875 0.234375 -0.640625 0.234375q-0.421875 0 -0.640625 -0.234375q-0.203125 -0.234375 -0.203125 -0.59375zm7.2578125 9.671875q0.78125 0 1.359375 -0.46875q0.578125 -0.46875 0.640625 -1.171875l1.359375 0q-0.03125 0.734375 -0.5 1.390625q-0.453125 0.65625 -1.234375 1.046875q-0.765625 0.390625 -1.625 0.390625q-1.71875 0 -2.75 -1.15625q-1.015625 -1.15625 -1.015625 -3.15625l0 -0.234375q0 -1.234375 0.453125 -2.1875q0.453125 -0.96875 1.296875 -1.5q0.859375 -0.53125 2.015625 -0.53125q1.421875 0 2.359375 0.859375q0.9375 0.84375 1.0 2.203125l-1.359375 0q-0.0625 -0.828125 -0.625 -1.34375q-0.5625 -0.53125 -1.375 -0.53125q-1.109375 0 -1.71875 0.796875q-0.59375 0.78125 -0.59375 2.28125l0 0.28125q0 1.453125 0.59375 2.25q0.609375 0.78125 1.71875 0.78125zm8.5 1.1875q-1.71875 0 -2.796875 -1.125q-1.078125 -1.140625 -1.078125 -3.03125l0 -0.265625q0 -1.25 0.46875 -2.234375q0.484375 -1.0 1.34375 -1.546875q0.875 -0.5625 1.875 -0.5625q1.65625 0 2.5625 1.09375q0.921875 1.078125 0.921875 3.09375l0 0.609375l-5.734375 0q0.03125 1.25 0.734375 2.015625q0.703125 0.765625 1.78125 0.765625q0.765625 0 1.296875 -0.3125q0.53125 -0.3125 0.921875 -0.828125l0.890625 0.6875q-1.0625 1.640625 -3.1875 1.640625zm-0.1875 -7.578125q-0.875 0 -1.46875 0.640625q-0.59375 0.625 -0.734375 1.78125l4.234375 0l0 -0.109375q-0.0625 -1.109375 -0.59375 -1.703125q-0.53125 -0.609375 -1.4375 -0.609375z" fill-rule="nonzero"/><path fill="#000000" d="m649.9346 175.58986q0.21875 -1.515625 0.796875 -2.9375q0.59375 -1.421875 1.4375 -2.421875q0.84375 -1.015625 1.890625 -1.53125l0.171875 0.8125q-1.03125 0.765625 -1.765625 2.0q-0.71875 1.21875 -1.125 2.90625q-0.390625 1.6875 -0.375 3.328125q0 1.34375 0.34375 2.359375q0.34375 1.03125 1.0 1.625l-0.28125 0.734375q-1.09375 -0.765625 -1.671875 -2.25q-0.578125 -1.46875 -0.515625 -3.375q0.015625 -0.625 0.09375 -1.1875l0 -0.0625zm11.827698 -4.640625l-2.9375 0l-1.46875 8.453125l-1.21875 0l1.46875 -8.453125l-2.953125 0l0.1875 -1.015625l7.109375 0l-0.1875 1.015625zm3.3537598 8.453125q-0.046875 -0.1875 -0.046875 -0.375l0.015625 -0.359375q-0.96875 0.890625 -2.0625 0.859375q-0.921875 -0.015625 -1.515625 -0.578125q-0.578125 -0.578125 -0.515625 -1.453125q0.0625 -1.109375 0.96875 -1.734375q0.921875 -0.640625 2.40625 -0.640625l1.234375 0.015625l0.078125 -0.5625q0.0625 -0.625 -0.25 -1.0q-0.3125 -0.375 -0.921875 -0.375q-0.609375 -0.015625 -1.078125 0.296875q-0.453125 0.296875 -0.5625 0.8125l-1.1875 0q0.0625 -0.609375 0.484375 -1.09375q0.421875 -0.484375 1.078125 -0.734375q0.671875 -0.265625 1.375 -0.25q1.109375 0.015625 1.71875 0.65625q0.609375 0.640625 0.515625 1.703125l-0.578125 3.484375l-0.03125 0.515625q-0.015625 0.34375 0.078125 0.703125l-0.015625 0.109375l-1.1875 0zm-1.859375 -0.90625q0.578125 0.015625 1.078125 -0.265625q0.5 -0.296875 0.859375 -0.796875l0.265625 -1.453125l-0.890625 0q-1.125 0 -1.71875 0.359375q-0.578125 0.34375 -0.65625 0.984375q-0.0625 0.5 0.21875 0.828125q0.296875 0.328125 0.84375 0.34375zm9.021973 -5.0625l-0.546875 -0.0625q-1.140625 0 -1.78125 1.03125l-0.875 5.0l-1.171875 0l1.21875 -7.046875l1.140625 0l-0.171875 0.8125q0.75 -0.96875 1.765625 -0.953125q0.203125 0 0.5625 0.09375l-0.140625 1.125zm0.28338623 2.4375q0.15625 -1.15625 0.625 -2.0q0.46875 -0.859375 1.125 -1.265625q0.671875 -0.40625 1.46875 -0.375q1.21875 0.015625 1.84375 0.921875l0.234375 -0.796875l1.078125 0l-1.171875 6.890625q-0.1875 1.359375 -1.09375 2.15625q-0.90625 0.8125 -2.234375 0.78125q-0.703125 -0.015625 -1.359375 -0.34375q-0.65625 -0.328125 -1.03125 -0.890625l0.671875 -0.71875q0.625 0.9375 1.671875 0.96875q0.84375 0.03125 1.421875 -0.46875q0.59375 -0.5 0.78125 -1.40625l0.125 -0.625q-0.859375 0.859375 -2.015625 0.828125q-0.65625 -0.015625 -1.140625 -0.34375q-0.484375 -0.34375 -0.75 -0.96875q-0.265625 -0.640625 -0.296875 -1.421875q0 -0.390625 0.046875 -0.921875zm1.140625 0.671875q-0.015625 0.921875 0.3125 1.4375q0.34375 0.515625 1.046875 0.53125q1.046875 0.03125 1.8125 -1.03125l0.546875 -3.234375q-0.390625 -0.96875 -1.40625 -1.0q-0.953125 -0.03125 -1.578125 0.78125q-0.609375 0.8125 -0.71875 2.171875l-0.015625 0.34375zm8.883911 2.984375q-1.3125 -0.015625 -2.0625 -0.953125q-0.734375 -0.953125 -0.625 -2.421875l0.03125 -0.28125q0.109375 -1.046875 0.625 -1.90625q0.515625 -0.875 1.25 -1.3125q0.734375 -0.4375 1.578125 -0.421875q1.09375 0.03125 1.703125 0.734375q0.625 0.6875 0.6875 1.875q0.015625 0.421875 -0.03125 0.84375l-0.0625 0.546875l-4.609375 0q-0.109375 0.953125 0.3125 1.625q0.4375 0.671875 1.296875 0.6875q1.046875 0.03125 1.921875 -0.9375l0.6875 0.578125q-0.453125 0.640625 -1.15625 1.0q-0.6875 0.359375 -1.546875 0.34375zm0.75 -6.3125q-0.734375 -0.015625 -1.28125 0.5q-0.53125 0.5 -0.859375 1.515625l3.421875 0.015625l0.03125 -0.109375q0.109375 -0.8125 -0.265625 -1.359375q-0.375 -0.546875 -1.046875 -0.5625zm6.223816 -2.5625l-0.296875 1.703125l1.28125 0l-0.171875 0.9375l-1.265625 0l-0.734375 4.375q-0.015625 0.171875 -0.015625 0.3125q0.046875 0.515625 0.5625 0.515625q0.21875 0 0.5625 -0.0625l-0.078125 0.96875q-0.421875 0.125 -0.859375 0.125q-0.703125 -0.015625 -1.0625 -0.515625q-0.34375 -0.5 -0.265625 -1.359375l0.703125 -4.359375l-1.234375 0l0.15625 -0.9375l1.25 0l0.296875 -1.703125l1.171875 0zm5.4918213 8.75q-0.046875 -0.1875 -0.046875 -0.375l0.015625 -0.359375q-0.96875 0.890625 -2.0625 0.859375q-0.921875 -0.015625 -1.515625 -0.578125q-0.578125 -0.578125 -0.515625 -1.453125q0.0625 -1.109375 0.96875 -1.734375q0.921875 -0.640625 2.40625 -0.640625l1.234375 0.015625l0.078125 -0.5625q0.0625 -0.625 -0.25 -1.0q-0.3125 -0.375 -0.921875 -0.375q-0.609375 -0.015625 -1.078125 0.296875q-0.453125 0.296875 -0.5625 0.8125l-1.1875 0q0.0625 -0.609375 0.484375 -1.09375q0.421875 -0.484375 1.078125 -0.734375q0.671875 -0.265625 1.375 -0.25q1.109375 0.015625 1.71875 0.65625q0.609375 0.640625 0.515625 1.703125l-0.578125 3.484375l-0.03125 0.515625q-0.015625 0.34375 0.078125 0.703125l-0.015625 0.109375l-1.1875 0zm-1.859375 -0.90625q0.578125 0.015625 1.078125 -0.265625q0.5 -0.296875 0.859375 -0.796875l0.265625 -1.453125l-0.890625 0q-1.125 0 -1.71875 0.359375q-0.578125 0.34375 -0.65625 0.984375q-0.0625 0.5 0.21875 0.828125q0.296875 0.328125 0.84375 0.34375zm11.037598 -2.578125q-0.125 1.078125 -0.59375 1.953125q-0.46875 0.859375 -1.125 1.28125q-0.65625 0.40625 -1.453125 0.390625q-1.28125 -0.03125 -1.890625 -0.953125l-0.25 0.8125l-1.078125 0l1.734375 -10.0l1.1875 0l-0.71875 3.734375q0.84375 -0.9375 2.0625 -0.90625q1.015625 0.03125 1.578125 0.75q0.5625 0.71875 0.59375 1.984375q0.015625 0.421875 -0.03125 0.8125l-0.015625 0.140625zm-1.125 -0.6875q0.03125 -0.953125 -0.3125 -1.453125q-0.34375 -0.5 -1.03125 -0.53125q-1.109375 -0.03125 -1.859375 1.109375l-0.53125 3.0625q0.390625 1.078125 1.46875 1.09375q0.6875 0.03125 1.203125 -0.40625q0.515625 -0.4375 0.78125 -1.21875q0.265625 -0.78125 0.28125 -1.65625zm3.3370361 4.171875l-1.171875 0l1.71875 -10.0l1.1875 0l-1.734375 10.0zm4.9674683 0.125q-1.3125 -0.015625 -2.0625 -0.953125q-0.734375 -0.953125 -0.625 -2.421875l0.03125 -0.28125q0.109375 -1.046875 0.625 -1.90625q0.515625 -0.875 1.25 -1.3125q0.734375 -0.4375 1.578125 -0.421875q1.09375 0.03125 1.703125 0.734375q0.625 0.6875 0.6875 1.875q0.015625 0.421875 -0.03125 0.84375l-0.0625 0.546875l-4.609375 0q-0.109375 0.953125 0.3125 1.625q0.4375 0.671875 1.296875 0.6875q1.046875 0.03125 1.921875 -0.9375l0.6875 0.578125q-0.453125 0.640625 -1.15625 1.0q-0.6875 0.359375 -1.546875 0.34375zm0.75 -6.3125q-0.734375 -0.015625 -1.28125 0.5q-0.53125 0.5 -0.859375 1.515625l3.421875 0.015625l0.03125 -0.109375q0.109375 -0.8125 -0.265625 -1.359375q-0.375 -0.546875 -1.046875 -0.5625zm6.473877 2.375q-0.234375 1.59375 -0.828125 3.015625q-0.59375 1.40625 -1.4375 2.375q-0.828125 0.984375 -1.84375 1.484375l-0.1875 -0.75q2.234375 -1.671875 2.984375 -5.390625q0.296875 -1.5 0.28125 -2.890625q-0.03125 -2.78125 -1.359375 -4.0l0.3125 -0.71875q0.734375 0.5 1.234375 1.34375q0.5 0.84375 0.734375 1.96875q0.25 1.109375 0.21875 2.3125q-0.015625 0.625 -0.09375 1.1875l-0.015625 0.0625z" fill-rule="nonzero"/><path fill="#000000" fill-opacity="0.0" d="m509.36255 53.842518c87.49603 0 174.99213 41.653545 174.99213 83.3071" fill-rule="evenodd"/><path stroke="#000000" stroke-width="1.0" stroke-linejoin="round" stroke-linecap="butt" d="m509.36252 53.842518c43.748016 0 87.49606 10.413387 120.3071 26.033466c16.405518 7.8100357 30.076782 16.921753 39.646667 26.684303c4.784912 4.8812714 8.544556 9.925255 11.10791 15.050598c1.2816772 2.5626678 2.2642822 5.1456757 2.9265137 7.738846c0.08270264 0.3241577 0.16052246 0.64845276 0.23321533 0.9729004c0.036376953 0.16223145 0.07147217 0.32447815 0.105285645 0.48677063l0.07409668 0.36941528" fill-rule="evenodd"/><path fill="#000000" stroke="#000000" stroke-width="1.0" stroke-linecap="butt" d="m682.1196 131.3416l2.0909424 4.3532257l1.1964722 -4.678787z" fill-rule="evenodd"/><path fill="#000000" fill-opacity="0.0" d="m509.39133 25.82677l112.1575 0l0 30.330711l-112.1575 0z" fill-rule="evenodd"/><path fill="#000000" d="m523.907 46.859898q0 -0.546875 -0.40625 -0.84375q-0.40625 -0.296875 -1.421875 -0.5q-1.0 -0.21875 -1.59375 -0.515625q-0.578125 -0.3125 -0.875 -0.71875q-0.28125 -0.421875 -0.28125 -1.0q0 -0.9375 0.8125 -1.59375q0.8125 -0.671875 2.0625 -0.671875q1.3125 0 2.125 0.6875q0.828125 0.671875 0.828125 1.734375l-1.328125 0q0 -0.546875 -0.46875 -0.9375q-0.453125 -0.390625 -1.15625 -0.390625q-0.734375 0 -1.140625 0.3125q-0.40625 0.3125 -0.40625 0.828125q0 0.46875 0.375 0.71875q0.390625 0.25 1.375 0.46875q1.0 0.21875 1.609375 0.53125q0.609375 0.296875 0.90625 0.734375q0.296875 0.4375 0.296875 1.0625q0 1.03125 -0.828125 1.65625q-0.828125 0.625 -2.15625 0.625q-0.921875 0 -1.640625 -0.328125q-0.71875 -0.328125 -1.125 -0.921875q-0.390625 -0.59375 -0.390625 -1.28125l1.3125 0q0.046875 0.671875 0.53125 1.0625q0.5 0.390625 1.3125 0.390625q0.75 0 1.203125 -0.296875q0.46875 -0.3125 0.46875 -0.8125zm7.822754 1.28125q-0.765625 0.90625 -2.265625 0.90625q-1.234375 0 -1.890625 -0.71875q-0.640625 -0.71875 -0.65625 -2.125l0 -5.046875l1.328125 0l0 5.015625q0 1.75 1.4375 1.75q1.515625 0 2.015625 -1.125l0 -5.640625l1.328125 0l0 7.75l-1.265625 0l-0.03125 -0.765625zm9.860779 -3.015625q0 1.765625 -0.828125 2.84375q-0.8125 1.078125 -2.1875 1.078125q-1.46875 0 -2.265625 -1.03125l-0.0625 0.890625l-1.21875 0l0 -11.0l1.328125 0l0 4.109375q0.796875 -1.0 2.203125 -1.0q1.421875 0 2.21875 1.078125q0.8125 1.0625 0.8125 2.90625l0 0.125zm-1.328125 -0.15625q0 -1.34375 -0.53125 -2.078125q-0.515625 -0.75 -1.5 -0.75q-1.3125 0 -1.875 1.21875l0 3.34375q0.609375 1.21875 1.890625 1.21875q0.953125 0 1.484375 -0.734375q0.53125 -0.734375 0.53125 -2.21875zm7.5039062 1.890625q0 -0.546875 -0.40625 -0.84375q-0.40625 -0.296875 -1.421875 -0.5q-1.0 -0.21875 -1.59375 -0.515625q-0.578125 -0.3125 -0.875 -0.71875q-0.28125 -0.421875 -0.28125 -1.0q0 -0.9375 0.8125 -1.59375q0.8125 -0.671875 2.0625 -0.671875q1.3125 0 2.125 0.6875q0.828125 0.671875 0.828125 1.734375l-1.328125 0q0 -0.546875 -0.46875 -0.9375q-0.453125 -0.390625 -1.15625 -0.390625q-0.734375 0 -1.140625 0.3125q-0.40625 0.3125 -0.40625 0.828125q0 0.46875 0.375 0.71875q0.390625 0.25 1.375 0.46875q1.0 0.21875 1.609375 0.53125q0.609375 0.296875 0.90625 0.734375q0.296875 0.4375 0.296875 1.0625q0 1.03125 -0.828125 1.65625q-0.828125 0.625 -2.15625 0.625q-0.921875 0 -1.640625 -0.328125q-0.71875 -0.328125 -1.125 -0.921875q-0.390625 -0.59375 -0.390625 -1.28125l1.3125 0q0.046875 0.671875 0.53125 1.0625q0.5 0.390625 1.3125 0.390625q0.75 0 1.203125 -0.296875q0.46875 -0.3125 0.46875 -0.8125zm6.150879 1.109375q0.703125 0 1.234375 -0.421875q0.53125 -0.4375 0.59375 -1.078125l1.25 0q-0.03125 0.65625 -0.453125 1.265625q-0.421875 0.59375 -1.140625 0.953125q-0.703125 0.359375 -1.484375 0.359375q-1.578125 0 -2.515625 -1.046875q-0.9375 -1.0625 -0.9375 -2.890625l0 -0.21875q0 -1.140625 0.40625 -2.015625q0.421875 -0.875 1.203125 -1.359375q0.78125 -0.5 1.828125 -0.5q1.3125 0 2.171875 0.78125q0.859375 0.78125 0.921875 2.03125l-1.25 0q-0.0625 -0.75 -0.578125 -1.234375q-0.5 -0.484375 -1.265625 -0.484375q-1.0 0 -1.5625 0.734375q-0.546875 0.71875 -0.546875 2.09375l0 0.25q0 1.328125 0.546875 2.0625q0.546875 0.71875 1.578125 0.71875zm8.312256 -5.625q-0.3125 -0.046875 -0.65625 -0.046875q-1.296875 0 -1.765625 1.109375l0 5.5l-1.328125 0l0 -7.75l1.296875 0l0.015625 0.90625q0.65625 -1.046875 1.84375 -1.046875q0.390625 0 0.59375 0.109375l0 1.21875zm2.6468506 6.5625l-1.328125 0l0 -7.75l1.328125 0l0 7.75zm-1.421875 -9.796875q0 -0.328125 0.1875 -0.546875q0.203125 -0.21875 0.578125 -0.21875q0.390625 0 0.59375 0.21875q0.203125 0.21875 0.203125 0.546875q0 0.328125 -0.203125 0.546875q-0.203125 0.203125 -0.59375 0.203125q-0.375 0 -0.578125 -0.203125q-0.1875 -0.21875 -0.1875 -0.546875zm10.103638 6.015625q0 1.765625 -0.828125 2.84375q-0.8125 1.078125 -2.1875 1.078125q-1.46875 0 -2.265625 -1.03125l-0.0625 0.890625l-1.21875 0l0 -11.0l1.328125 0l0 4.109375q0.796875 -1.0 2.203125 -1.0q1.421875 0 2.21875 1.078125q0.8125 1.0625 0.8125 2.90625l0 0.125zm-1.328125 -0.15625q0 -1.34375 -0.53125 -2.078125q-0.515625 -0.75 -1.5 -0.75q-1.3125 0 -1.875 1.21875l0 3.34375q0.609375 1.21875 1.890625 1.21875q0.953125 0 1.484375 -0.734375q0.53125 -0.734375 0.53125 -2.21875zm6.2070312 4.078125q-1.578125 0 -2.5625 -1.03125q-0.984375 -1.03125 -0.984375 -2.765625l0 -0.25q0 -1.140625 0.4375 -2.046875q0.4375 -0.90625 1.21875 -1.421875q0.796875 -0.515625 1.71875 -0.515625q1.515625 0 2.34375 1.0q0.84375 1.0 0.84375 2.84375l0 0.546875l-5.25 0q0.03125 1.15625 0.671875 1.859375q0.640625 0.703125 1.625 0.703125q0.703125 0 1.1875 -0.28125q0.5 -0.296875 0.859375 -0.765625l0.8125 0.625q-0.984375 1.5 -2.921875 1.5zm-0.171875 -6.9375q-0.796875 0 -1.34375 0.59375q-0.546875 0.578125 -0.671875 1.625l3.875 0l0 -0.109375q-0.046875 -1.0 -0.546875 -1.546875q-0.484375 -0.5625 -1.3125 -0.5625zm8.467773 0.234375q-0.3125 -0.046875 -0.65625 -0.046875q-1.296875 0 -1.765625 1.109375l0 5.5l-1.328125 0l0 -7.75l1.296875 0l0.015625 0.90625q0.65625 -1.046875 1.84375 -1.046875q0.390625 0 0.59375 0.109375l0 1.21875z" fill-rule="nonzero"/><path fill="#000000" fill-opacity="0.0" d="m322.60666 165.10294l291.52756 0" fill-rule="evenodd"/><path stroke="#9900ff" stroke-width="3.0" stroke-linejoin="round" stroke-linecap="butt" d="m322.60666 165.10294l273.52756 0" fill-rule="evenodd"/><path fill="#9900ff" stroke="#9900ff" stroke-width="3.0" stroke-linecap="butt" d="m596.1342 170.05814l13.614319 -4.9552l-13.614319 -4.9552z" fill-rule="evenodd"/><path fill="#660099" d="m345.16797 166.19954l0 0c0 -8.375595 7.664032 -15.1653595 17.118103 -15.1653595l0 0c9.454071 0 17.118134 6.7897644 17.118134 15.1653595l0 0c0 8.375595 -7.6640625 15.1653595 -17.118134 15.1653595l0 0c-9.454071 0 -17.118103 -6.7897644 -17.118103 -15.1653595z" fill-rule="evenodd"/><path stroke="#ffffff" stroke-width="1.0" stroke-linejoin="round" stroke-linecap="butt" d="m345.16797 166.19954l0 0c0 -8.375595 7.664032 -15.1653595 17.118103 -15.1653595l0 0c9.454071 0 17.118134 6.7897644 17.118134 15.1653595l0 0c0 8.375595 -7.6640625 15.1653595 -17.118134 15.1653595l0 0c-9.454071 0 -17.118103 -6.7897644 -17.118103 -15.1653595z" fill-rule="evenodd"/><path fill="#ffffff" d="m362.30676 169.40079q0 -0.296875 -0.078125 -0.515625q0 -0.671875 0.890625 -1.1875q0.59375 -0.296875 0.890625 -0.296875q0.375 0.078125 0.515625 0.453125q0.453125 1.03125 0.59375 1.40625q0.15625 0.296875 0.296875 0.296875q0.15625 0 0.296875 -0.21875q2.53125 -4.453125 4.53125 -6.90625q1.5625 -1.859375 1.921875 -2.15625q1.1875 -0.890625 2.828125 -0.96875l0.078125 0.375q-1.265625 1.265625 -4.390625 5.640625q-3.03125 4.375 -4.375 6.90625q-0.296875 0.671875 -0.734375 0.8125q-0.234375 0.234375 -0.96875 0.15625q-0.515625 0.078125 -0.75 -0.15625q-0.21875 -0.140625 -0.4375 -0.59375q-0.75 -1.78125 -1.109375 -3.046875z" fill-rule="nonzero"/><path fill="#f6b26b" d="m162.63814 112.15805l159.96852 0l0 105.88977l-159.96852 0z" fill-rule="evenodd"/><path stroke="#000000" stroke-width="1.0" stroke-linejoin="round" stroke-linecap="butt" d="m162.63814 112.15805l159.96852 0l0 105.88977l-159.96852 0z" fill-rule="evenodd"/><path fill="#000000" d="m217.2417 172.02293l0 -13.265625l4.328125 0q2.15625 0 3.25 0.890625q1.09375 0.890625 1.09375 2.640625q0 0.9375 -0.53125 1.65625q-0.53125 0.703125 -1.4375 1.09375q1.0625 0.3125 1.6875 1.15625q0.625 0.84375 0.625 2.0q0 1.78125 -1.15625 2.8125q-1.15625 1.015625 -3.265625 1.015625l-4.59375 0zm1.734375 -6.203125l0 4.765625l2.890625 0q1.21875 0 1.921875 -0.625q0.71875 -0.640625 0.71875 -1.75q0 -2.390625 -2.609375 -2.390625l-2.921875 0zm0 -1.40625l2.65625 0q1.140625 0 1.828125 -0.5625q0.6875 -0.578125 0.6875 -1.5625q0 -1.09375 -0.640625 -1.59375q-0.640625 -0.5 -1.9375 -0.5l-2.59375 0l0 4.21875zm14.380234 -0.734375q-0.390625 -0.0625 -0.84375 -0.0625q-1.65625 0 -2.25 1.40625l0 7.0l-1.671875 0l0 -9.859375l1.640625 0l0.015625 1.140625q0.828125 -1.3125 2.359375 -1.3125q0.484375 0 0.75 0.125l0 1.5625zm0.9118347 3.328125q0 -1.453125 0.5625 -2.609375q0.578125 -1.15625 1.59375 -1.78125q1.015625 -0.625 2.3125 -0.625q2.015625 0 3.25 1.390625q1.25 1.390625 1.25 3.703125l0 0.125q0 1.4375 -0.546875 2.578125q-0.546875 1.140625 -1.578125 1.78125q-1.015625 0.640625 -2.359375 0.640625q-2.0 0 -3.25 -1.390625q-1.234375 -1.40625 -1.234375 -3.703125l0 -0.109375zm1.6875 0.203125q0 1.640625 0.765625 2.640625q0.765625 0.984375 2.03125 0.984375q1.296875 0 2.046875 -1.0q0.75 -1.015625 0.75 -2.828125q0 -1.625 -0.765625 -2.625q-0.765625 -1.015625 -2.046875 -1.015625q-1.25 0 -2.015625 1.0q-0.765625 0.984375 -0.765625 2.84375zm12.155518 0.25l-1.0625 1.09375l0 3.46875l-1.6875 0l0 -14.0l1.6875 0l0 8.46875l0.90625 -1.078125l3.0625 -3.25l2.046875 0l-3.828125 4.125l4.28125 5.734375l-1.984375 0l-3.421875 -4.5625zm10.601486 4.75q-2.0 0 -3.265625 -1.3125q-1.25 -1.328125 -1.25 -3.53125l0 -0.3125q0 -1.46875 0.5625 -2.609375q0.5625 -1.15625 1.5625 -1.796875q1.015625 -0.65625 2.1875 -0.65625q1.921875 0 2.984375 1.265625q1.0625 1.265625 1.0625 3.625l0 0.6875l-6.671875 0q0.03125 1.46875 0.84375 2.375q0.828125 0.890625 2.078125 0.890625q0.890625 0 1.515625 -0.359375q0.625 -0.375 1.078125 -0.96875l1.03125 0.796875q-1.234375 1.90625 -3.71875 1.90625zm-0.203125 -8.84375q-1.015625 0 -1.71875 0.75q-0.6875 0.734375 -0.84375 2.078125l4.9375 0l0 -0.125q-0.078125 -1.28125 -0.703125 -1.984375q-0.609375 -0.71875 -1.671875 -0.71875zm10.774445 0.3125q-0.390625 -0.0625 -0.84375 -0.0625q-1.65625 0 -2.25 1.40625l0 7.0l-1.671875 0l0 -9.859375l1.640625 0l0.015625 1.140625q0.828125 -1.3125 2.359375 -1.3125q0.484375 0 0.75 0.125l0 1.5625z" fill-rule="nonzero"/><path fill="#000000" fill-opacity="0.0" d="m282.67007 26.553806l64.81888 0l0 30.330708l-64.81888 0z" fill-rule="evenodd"/><path fill="#000000" d="m299.23257 45.852554q0 1.765625 -0.828125 2.84375q-0.8125 1.078125 -2.1875 1.078125q-1.46875 0 -2.265625 -1.03125l-0.0625 0.890625l-1.21875 0l0 -11.0l1.328125 0l0 4.109375q0.796875 -1.0 2.203125 -1.0q1.421875 0 2.21875 1.078125q0.8125 1.0625 0.8125 2.90625l0 0.125zm-1.328125 -0.15625q0 -1.34375 -0.53125 -2.078125q-0.515625 -0.75 -1.5 -0.75q-1.3125 0 -1.875 1.21875l0 3.34375q0.609375 1.21875 1.890625 1.21875q0.953125 0 1.484375 -0.734375q0.53125 -0.734375 0.53125 -2.21875zm6.7382812 -2.625q-0.3125 -0.046875 -0.65625 -0.046875q-1.296875 0 -1.765625 1.109375l0 5.5l-1.328125 0l0 -7.75l1.296875 0l0.015625 0.90625q0.65625 -1.046875 1.84375 -1.046875q0.390625 0 0.59375 0.109375l0 1.21875zm0.7223816 2.625q0 -1.140625 0.4375 -2.046875q0.453125 -0.921875 1.25 -1.40625q0.796875 -0.5 1.828125 -0.5q1.578125 0 2.546875 1.09375q0.984375 1.09375 0.984375 2.921875l0 0.09375q0 1.125 -0.4375 2.03125q-0.4375 0.890625 -1.25 1.390625q-0.796875 0.5 -1.84375 0.5q-1.5625 0 -2.546875 -1.09375q-0.96875 -1.09375 -0.96875 -2.890625l0 -0.09375zm1.328125 0.15625q0 1.28125 0.59375 2.0625q0.59375 0.78125 1.59375 0.78125q1.015625 0 1.609375 -0.78125q0.59375 -0.796875 0.59375 -2.21875q0 -1.28125 -0.609375 -2.0625q-0.59375 -0.796875 -1.59375 -0.796875q-0.984375 0 -1.59375 0.78125q-0.59375 0.78125 -0.59375 2.234375zm9.530518 0.203125l-0.828125 0.859375l0 2.71875l-1.3125 0l0 -11.0l1.3125 0l0 6.65625l0.71875 -0.859375l2.40625 -2.546875l1.609375 0l-3.015625 3.234375l3.359375 4.515625l-1.546875 0l-2.703125 -3.578125zm8.347595 3.71875q-1.578125 0 -2.5625 -1.03125q-0.984375 -1.03125 -0.984375 -2.765625l0 -0.25q0 -1.140625 0.4375 -2.046875q0.4375 -0.90625 1.21875 -1.421875q0.796875 -0.515625 1.71875 -0.515625q1.515625 0 2.34375 1.0q0.84375 1.0 0.84375 2.84375l0 0.546875l-5.25 0q0.03125 1.15625 0.671875 1.859375q0.640625 0.703125 1.625 0.703125q0.703125 0 1.1875 -0.28125q0.5 -0.296875 0.859375 -0.765625l0.8125 0.625q-0.984375 1.5 -2.921875 1.5zm-0.171875 -6.9375q-0.796875 0 -1.34375 0.59375q-0.546875 0.578125 -0.671875 1.625l3.875 0l0 -0.109375q-0.046875 -1.0 -0.546875 -1.546875q-0.484375 -0.5625 -1.3125 -0.5625zm8.467773 0.234375q-0.3125 -0.046875 -0.65625 -0.046875q-1.296875 0 -1.765625 1.109375l0 5.5l-1.328125 0l0 -7.75l1.296875 0l0.015625 0.90625q0.65625 -1.046875 1.84375 -1.046875q0.390625 0 0.59375 0.109375l0 1.21875z" fill-rule="nonzero"/><path fill="#000000" fill-opacity="0.0" d="m340.57513 53.842518c-48.97638 0 -97.95276 29.165356 -97.95276 58.330708" fill-rule="evenodd"/><path stroke="#000000" stroke-width="1.0" stroke-linejoin="round" stroke-linecap="butt" d="m340.57513 53.842518c-24.48819 0 -48.97638 7.29134 -67.34253 18.228352c-9.183075 5.468498 -16.835632 11.848419 -22.192413 18.684052c-2.6783905 3.4178162 -4.782852 6.9495544 -6.2177124 10.538261c-0.35871887 0.89717865 -0.6755829 1.7979126 -0.9490967 2.7013245c-0.13674927 0.4516983 -0.26268005 0.9040756 -0.37757874 1.3569946c-0.05744934 0.22647095 -0.1121521 0.4530716 -0.16404724 0.67980194l-0.03996277 0.17938995" fill-rule="evenodd"/><path fill="#000000" stroke="#000000" stroke-width="1.0" stroke-linecap="butt" d="m241.65036 106.026405l1.1351166 4.694046l2.1477203 -4.325485z" fill-rule="evenodd"/><path fill="#660099" d="m369.03287 110.49528l0 0c0 -8.375595 7.664032 -15.165352 17.118103 -15.165352l0 0c9.454102 0 17.118134 6.789757 17.118134 15.165352l0 0c0 8.375595 -7.664032 15.165352 -17.118134 15.165352l0 0c-9.454071 0 -17.118103 -6.789757 -17.118103 -15.165352z" fill-rule="evenodd"/><path stroke="#ffffff" stroke-width="1.0" stroke-linejoin="round" stroke-linecap="butt" d="m369.03287 110.49528l0 0c0 -8.375595 7.664032 -15.165352 17.118103 -15.165352l0 0c9.454102 0 17.118134 6.789757 17.118134 15.165352l0 0c0 8.375595 -7.664032 15.165352 -17.118134 15.165352l0 0c-9.454071 0 -17.118103 -6.789757 -17.118103 -15.165352z" fill-rule="evenodd"/><path fill="#000000" fill-opacity="0.0" d="m424.96884 90.74016c0 9.874016 -10.850403 19.748032 -21.700806 19.748032" fill-rule="evenodd"/><path stroke="#000000" stroke-width="1.0" stroke-linejoin="round" stroke-linecap="butt" d="m424.96884 90.74016c0 4.937004 -2.712616 9.874016 -6.781494 13.576775c-2.0344543 1.8513718 -4.4079895 3.394188 -6.95105 4.4741592c-0.6357422 0.26999664 -1.2821045 0.511055 -1.9364319 0.7207794l-0.10644531 0.03276062" fill-rule="evenodd"/><path fill="#000000" stroke="#000000" stroke-width="1.0" stroke-linecap="butt" d="m408.93362 107.913445l-4.221863 2.3448486l4.7413635 0.917511z" fill-rule="evenodd"/><path fill="#000000" fill-opacity="0.0" d="m421.3912 81.826775l50.362213 0l0 30.330704l-50.362213 0z" fill-rule="evenodd"/><path fill="#000000" d="m431.84433 104.90677l0 -6.71875l-1.234375 0l0 -1.03125l1.234375 0l0 -0.65625q0 -1.296875 0.734375 -2.015625q0.734375 -0.71875 2.09375 -0.71875q0.796875 0 2.03125 0.4375l-0.234375 1.109375q-0.890625 -0.359375 -1.703125 -0.359375q-0.84375 0 -1.21875 0.390625q-0.375 0.375 -0.375 1.140625l0 0.671875l1.578125 0l0 1.03125l-1.578125 0l0 6.71875l-1.328125 0zm5.515625 0l-1.34375 0l0 -7.75l1.34375 0l0 7.75zm3.584076 0l-1.328125 0l0 -11.0l1.328125 0l0 11.0zm3.9161072 -9.625l0 1.875l1.453125 0l0 1.03125l-1.453125 0l0 4.796875q0 0.46875 0.1875 0.703125q0.203125 0.234375 0.671875 0.234375q0.21875 0 0.625 -0.09375l0 1.078125q-0.53125 0.140625 -1.015625 0.140625q-0.890625 0 -1.34375 -0.53125q-0.453125 -0.546875 -0.453125 -1.53125l0 -4.796875l-1.40625 0l0 -1.03125l1.40625 0l0 -1.875l1.328125 0zm6.2094727 9.765625q-1.578125 0 -2.5625 -1.03125q-0.984375 -1.03125 -0.984375 -2.765625l0 -0.25q0 -1.140625 0.4375 -2.046875q0.4375 -0.90625 1.21875 -1.421875q0.796875 -0.515625 1.71875 -0.515625q1.515625 0 2.34375 1.0q0.84375 1.0 0.84375 2.84375l0 0.546875l-5.25 0q0.03125 1.15625 0.671875 1.859375q0.640625 0.703125 1.625 0.703125q0.703125 0 1.1875 -0.28125q0.5 -0.296875 0.859375 -0.765625l0.8125 0.625q-0.984375 1.5 -2.921875 1.5zm-0.171875 -6.9375q-0.796875 0 -1.34375 0.59375q-0.546875 0.578125 -0.671875 1.625l3.875 0l0 -0.109375q-0.046875 -1.0 -0.546875 -1.546875q-0.484375 -0.5625 -1.3125 -0.5625zm8.467804 0.234375q-0.3125 -0.046875 -0.65625 -0.046875q-1.296875 0 -1.765625 1.109375l0 5.5l-1.328125 0l0 -7.75l1.296875 0l0.015625 0.90625q0.65625 -1.046875 1.84375 -1.046875q0.390625 0 0.59375 0.109375l0 1.21875z" fill-rule="nonzero"/><path fill="#660099" d="m513.16797 166.19954l0 0c0 -8.375595 7.6640625 -15.1653595 17.118103 -15.1653595l0 0c9.454102 0 17.118103 6.7897644 17.118103 15.1653595l0 0c0 8.375595 -7.6640015 15.1653595 -17.118103 15.1653595l0 0c-9.454041 0 -17.118103 -6.7897644 -17.118103 -15.1653595z" fill-rule="evenodd"/><path stroke="#ffffff" stroke-width="1.0" stroke-linejoin="round" stroke-linecap="butt" d="m513.16797 166.19954l0 0c0 -8.375595 7.6640625 -15.1653595 17.118103 -15.1653595l0 0c9.454102 0 17.118103 6.7897644 17.118103 15.1653595l0 0c0 8.375595 -7.6640015 15.1653595 -17.118103 15.1653595l0 0c-9.454041 0 -17.118103 -6.7897644 -17.118103 -15.1653595z" fill-rule="evenodd"/><path fill="#ffffff" d="m530.30676 169.40079q0 -0.296875 -0.078125 -0.515625q0 -0.671875 0.890625 -1.1875q0.59375 -0.296875 0.890625 -0.296875q0.375 0.078125 0.515625 0.453125q0.453125 1.03125 0.59375 1.40625q0.15625 0.296875 0.296875 0.296875q0.15625 0 0.296875 -0.21875q2.53125 -4.453125 4.53125 -6.90625q1.5625 -1.859375 1.921875 -2.15625q1.1875 -0.890625 2.828125 -0.96875l0.078125 0.375q-1.265625 1.265625 -4.390625 5.640625q-3.03125 4.375 -4.375 6.90625q-0.296875 0.671875 -0.734375 0.8125q-0.234375 0.234375 -0.96875 0.15625q-0.515625 0.078125 -0.75 -0.15625q-0.21875 -0.140625 -0.4375 -0.59375q-0.75 -1.78125 -1.109375 -3.046875z" fill-rule="nonzero"/><path fill="#660099" d="m449.16797 165.88547l0 0c0 -8.375595 7.664032 -15.1653595 17.118103 -15.1653595l0 0c9.454071 0 17.118134 6.7897644 17.118134 15.1653595l0 0c0 8.375595 -7.6640625 15.1653595 -17.118134 15.1653595l0 0c-9.454071 0 -17.118103 -6.7897644 -17.118103 -15.1653595z" fill-rule="evenodd"/><path stroke="#ffffff" stroke-width="1.0" stroke-linejoin="round" stroke-linecap="butt" d="m449.16797 165.88547l0 0c0 -8.375595 7.664032 -15.1653595 17.118103 -15.1653595l0 0c9.454071 0 17.118134 6.7897644 17.118134 15.1653595l0 0c0 8.375595 -7.6640625 15.1653595 -17.118134 15.1653595l0 0c-9.454071 0 -17.118103 -6.7897644 -17.118103 -15.1653595z" fill-rule="evenodd"/><path fill="#ffffff" d="m466.30676 169.08672q0 -0.296875 -0.078125 -0.515625q0 -0.671875 0.890625 -1.1875q0.59375 -0.296875 0.890625 -0.296875q0.375 0.078125 0.515625 0.453125q0.453125 1.03125 0.59375 1.40625q0.15625 0.296875 0.296875 0.296875q0.15625 0 0.296875 -0.21875q2.53125 -4.453125 4.53125 -6.90625q1.5625 -1.859375 1.921875 -2.15625q1.1875 -0.890625 2.828125 -0.96875l0.078125 0.375q-1.265625 1.265625 -4.390625 5.640625q-3.03125 4.375 -4.375 6.90625q-0.296875 0.671875 -0.734375 0.8125q-0.234375 0.234375 -0.96875 0.15625q-0.515625 0.078125 -0.75 -0.15625q-0.21875 -0.140625 -0.4375 -0.59375q-0.75 -1.78125 -1.109375 -3.046875z" fill-rule="nonzero"/><path fill="#000000" fill-opacity="0.0" d="m3.4885385 164.88246l159.1496 0.22047424" fill-rule="evenodd"/><path stroke="#9900ff" stroke-width="3.0" stroke-linejoin="round" stroke-linecap="butt" d="m3.4885385 164.88246l141.14963 0.19554138" fill-rule="evenodd"/><path fill="#9900ff" stroke="#9900ff" stroke-width="3.0" stroke-linecap="butt" d="m144.6313 170.03319l13.62114 -4.936325l-13.607422 -4.97406z" fill-rule="evenodd"/><path fill="#660099" d="m14.695533 165.00793l0 0c0 -8.375595 7.6640387 -15.1653595 17.11811 -15.1653595l0 0c9.454073 0 17.118109 6.7897644 17.118109 15.1653595l0 0c0 8.375595 -7.664036 15.1653595 -17.118109 15.1653595l0 0c-9.454071 0 -17.11811 -6.7897644 -17.11811 -15.1653595z" fill-rule="evenodd"/><path stroke="#ffffff" stroke-width="1.0" stroke-linejoin="round" stroke-linecap="butt" d="m14.695533 165.00793l0 0c0 -8.375595 7.6640387 -15.1653595 17.11811 -15.1653595l0 0c9.454073 0 17.118109 6.7897644 17.118109 15.1653595l0 0c0 8.375595 -7.664036 15.1653595 -17.118109 15.1653595l0 0c-9.454071 0 -17.11811 -6.7897644 -17.11811 -15.1653595z" fill-rule="evenodd"/><path fill="#00ffff" d="m54.45144 165.88458l0 0c0 -8.375595 7.6640396 -15.1653595 17.11811 -15.1653595l0 0c9.454071 0 17.11811 6.7897644 17.11811 15.1653595l0 0c0 8.375595 -7.6640396 15.165344 -17.11811 15.165344l0 0c-9.454071 0 -17.11811 -6.789749 -17.11811 -15.165344z" fill-rule="evenodd"/><path stroke="#ffffff" stroke-width="1.0" stroke-linejoin="round" stroke-linecap="butt" d="m54.45144 165.88458l0 0c0 -8.375595 7.6640396 -15.1653595 17.11811 -15.1653595l0 0c9.454071 0 17.11811 6.7897644 17.11811 15.1653595l0 0c0 8.375595 -7.6640396 15.165344 -17.11811 15.165344l0 0c-9.454071 0 -17.11811 -6.789749 -17.11811 -15.165344z" fill-rule="evenodd"/><path fill="#ff00ff" d="m97.70341 165.00793l0 0c0 -8.375595 7.6640396 -15.1653595 17.11811 -15.1653595l0 0c9.454071 0 17.118103 6.7897644 17.118103 15.1653595l0 0c0 8.375595 -7.664032 15.1653595 -17.118103 15.1653595l0 0c-9.454071 0 -17.11811 -6.7897644 -17.11811 -15.1653595z" fill-rule="evenodd"/><path stroke="#ffffff" stroke-width="1.0" stroke-linejoin="round" stroke-linecap="butt" d="m97.70341 165.00793l0 0c0 -8.375595 7.6640396 -15.1653595 17.11811 -15.1653595l0 0c9.454071 0 17.118103 6.7897644 17.118103 15.1653595l0 0c0 8.375595 -7.664032 15.1653595 -17.118103 15.1653595l0 0c-9.454071 0 -17.11811 -6.7897644 -17.11811 -15.1653595z" fill-rule="evenodd"/></g></svg>