<?xml version="1.0" encoding="UTF-8" standalone="no"?>
<svg
   xmlns:dc="http://purl.org/dc/elements/1.1/"
   xmlns:cc="http://creativecommons.org/ns#"
   xmlns:rdf="http://www.w3.org/1999/02/22-rdf-syntax-ns#"
   xmlns:svg="http://www.w3.org/2000/svg"
   xmlns="http://www.w3.org/2000/svg"
   xmlns:sodipodi="http://sodipodi.sourceforge.net/DTD/sodipodi-0.dtd"
   xmlns:inkscape="http://www.inkscape.org/namespaces/inkscape"
   width="16"
   height="16"
   viewBox="0 0 4.2333332 4.2333335"
   version="1.1"
   id="svg8"
   inkscape:version="1.0.1 (3bc2e813f5, 2020-09-07)"
   sodipodi:docname="kn-revision-name.svg">
  <defs
     id="defs2" />
  <sodipodi:namedview
     id="base"
     pagecolor="#ffffff"
     bordercolor="#666666"
     borderopacity="1.0"
     inkscape:pageopacity="0.0"
     inkscape:pageshadow="2"
     inkscape:zoom="45.254834"
     inkscape:cx="6.6990644"
     inkscape:cy="7.5369972"
     inkscape:document-units="mm"
     inkscape:current-layer="layer1"
     showgrid="false"
     inkscape:window-width="1821"
     inkscape:window-height="1141"
     inkscape:window-x="2659"
     inkscape:window-y="74"
     inkscape:window-maximized="0"
     units="px"
     inkscape:pagecheckerboard="true"
     inkscape:document-rotation="0"
     inkscape:snap-grids="true"
     inkscape:snap-to-guides="true"
     inkscape:snap-others="true"
     inkscape:snap-global="false" />
  <metadata
     id="metadata5">
    <rdf:RDF>
      <cc:Work
         rdf:about="">
        <dc:format>image/svg+xml</dc:format>
        <dc:type
           rdf:resource="http://purl.org/dc/dcmitype/StillImage" />
        <dc:title></dc:title>
      </cc:Work>
    </rdf:RDF>
  </metadata>
  <g
     inkscape:label="Layer 1"
     inkscape:groupmode="layer"
     id="layer1"
     transform="translate(0,-292.76665)">
    <path
       sodipodi:type="star"
       style="opacity:1;fill:none;fill-opacity:1;stroke:none;stroke-width:0.0121632;stroke-miterlimit:4;stroke-dasharray:none;stroke-opacity:1"
       id="path821"
       sodipodi:sides="7"
       sodipodi:cx="6.2384149"
       sodipodi:cy="294.99325"
       sodipodi:r1="1.769226"
       sodipodi:r2="1.5940177"
       sodipodi:arg1="1.1246908"
       sodipodi:arg2="1.5734898"
       inkscape:flatsided="true"
       inkscape:rounded="0"
       inkscape:randomized="0"
       d="m 7.001757,296.58933 -1.5352712,-0.004 -0.9539929,-1.2029 0.3456614,-1.49586 1.3850257,-0.6624 1.3814374,0.66985 0.3375985,1.4977 z"
       inkscape:transform-center-x="0.0010604645"
       inkscape:transform-center-y="-0.086589138" />
    <path
       sodipodi:type="star"
       style="opacity:1;fill:none;fill-opacity:1;stroke:none;stroke-width:0.04429172;stroke-miterlimit:4;stroke-dasharray:none;stroke-opacity:1"
       id="path823"
       sodipodi:sides="9"
       sodipodi:cx="3.3682271"
       sodipodi:cy="293.93885"
       sodipodi:r1="0.85589981"
       sodipodi:r2="0.76630896"
       sodipodi:arg1="1.2193516"
       sodipodi:arg2="1.5684175"
       inkscape:flatsided="true"
       inkscape:rounded="0"
       inkscape:randomized="0"
       d="m 3.6628744,294.74243 -0.5854683,0.001 -0.4493899,-0.37527 -0.1030371,-0.57633 0.2915279,-0.50772 0.5496839,-0.20155 0.5506366,0.19893 0.2939403,0.50633 -0.1002939,0.57682 z"
       inkscape:transform-center-x="-0.0014770388"
       inkscape:transform-center-y="-0.040690139" />
    <path
       id="path987"
       style="opacity:1;fill:#6594cb;fill-opacity:1;stroke:none;stroke-width:0.000570088;stroke-miterlimit:4;stroke-dasharray:none;stroke-opacity:1"
       d="m 2.1113337,292.80276 c -0.00208,3e-5 -0.3127796,0.11352 -0.6906001,0.25205 l -0.68660152,0.25207 -0.36529837,0.63593 c -0.20070933,0.3496 -0.36423208,0.63774 -0.36396532,0.64128 0.00120484,0.0154 0.25438954,1.42754 0.25730999,1.43453 0.001807,0.005 0.25427345,0.21981 0.56261306,0.47728 l 0.56127926,0.46797 0.7052659,-9.9e-4 c 0.388194,-2e-4 0.7203008,-9.9e-4 0.7372635,-0.003 l 0.030662,-0.003 0.5586136,-0.47059 c 0.306998,-0.25888 0.5589222,-0.47246 0.5599461,-0.47597 0.00103,-0.003 0.058147,-0.32959 0.1266555,-0.72393 l 0.123988,-0.71726 -0.3679649,-0.63461 -0.3692978,-0.63461 -0.037332,-0.0128 c -0.020743,-0.008 -0.3301724,-0.11997 -0.6879341,-0.24921 -0.3577616,-0.12926 -0.6525567,-0.23477 -0.6546044,-0.23477 z" />
    <g
       id="g16328"
       transform="matrix(0.7277976,0,0,0.7277976,-1.4460752,79.710604)">
      <path
         id="path18310-4"
         style="display:inline;fill:#ffffff;fill-opacity:1;stroke:#2592b0;stroke-width:0;stroke-miterlimit:4;stroke-dasharray:none"
         d="m 6.123598,293.85601 a 0.61253105,0.60809261 19.978408 0 0 -0.1303664,0.014 0.61253105,0.60809261 19.978408 0 0 -0.4639559,0.72445 0.61253105,0.60809261 19.978408 0 0 0.7306768,0.46475 0.61253105,0.60809261 19.978408 0 0 0.4639558,-0.72445 0.61253105,0.60809261 19.978408 0 0 -0.6003103,-0.47875 z m 0.00107,0.38959 a 0.21901185,0.21901185 0 0 1 0.00194,0 0.21901185,0.21901185 0 0 1 0.2190084,0.21901 0.21901185,0.21901185 0 0 1 -0.2190084,0.21901 0.21901185,0.21901185 0 0 1 -0.2190085,-0.21901 0.21901185,0.21901185 0 0 1 0.2170652,-0.21901 z" />
      <rect
         style="display:inline;fill:#ffffff;fill-opacity:1;stroke:#2592b0;stroke-width:0;stroke-miterlimit:4;stroke-dasharray:none"
         id="rect18387-3"
         width="0.28475761"
         height="0.45658252"
         x="-289.20657"
         y="-56.007679"
         ry="1.0996216e-15"
         transform="matrix(-0.211836,-0.97730523,0.97724799,-0.21209989,0,0)" />
      <rect
         style="display:inline;fill:#ffffff;fill-opacity:1;stroke:#2592b0;stroke-width:0;stroke-miterlimit:4;stroke-dasharray:none"
         id="rect18387-3-4"
         width="0.28475761"
         height="0.45658252"
         x="-144.93451"
         y="256.90179"
         ry="1.0996216e-15"
         transform="matrix(0.86053995,-0.50938295,0.50961528,0.86040238,0,0)" />
      <rect
         style="display:inline;fill:#ffffff;fill-opacity:1;stroke:#2592b0;stroke-width:0;stroke-miterlimit:4;stroke-dasharray:none"
         id="rect18387-3-2"
         width="0.28475761"
         height="0.45658252"
         x="200.35324"
         y="216.07733"
         ry="1.0996216e-15"
         transform="matrix(0.74635283,0.66555049,-0.66534892,0.74653253,0,0)" />
      <rect
         style="display:inline;fill:#ffffff;fill-opacity:1;stroke:#2592b0;stroke-width:0;stroke-miterlimit:4;stroke-dasharray:none"
         id="rect18387-3-26"
         width="0.28475761"
         height="0.45658252"
         x="267.3696"
         y="-122.91298"
         ry="1.0996216e-15"
         transform="matrix(-0.39964437,0.91667027,-0.91677814,-0.39939685,0,0)" />
      <rect
         style="display:inline;fill:#ffffff;fill-opacity:1;stroke:#2592b0;stroke-width:0;stroke-miterlimit:4;stroke-dasharray:none"
         id="rect18387-3-41"
         width="0.28475761"
         height="0.45658252"
         x="-34.286961"
         y="-292.15314"
         ry="1.0996216e-15"
         transform="matrix(-0.99542819,-0.09551293,0.09524414,-0.99545394,0,0)" />
      <path
         style="display:inline;fill:none;stroke:#ffffff;stroke-width:0.222451;stroke-linecap:butt;stroke-linejoin:miter;stroke-miterlimit:4;stroke-dasharray:none;stroke-opacity:1"
         d="M 5.2043393,294.57889 H 3.2709065 v 2.74823 h 2.7481508 v -1.93881"
         id="path5297" />
      <rect
         style="display:inline;fill:none;stroke:#ffffff;stroke-width:0.148301;stroke-miterlimit:4;stroke-dasharray:none;stroke-opacity:1"
         id="rect5934"
         width="1.193947"
         height="0.58314019"
         x="3.804733"
         y="295.03555"
         ry="3.2293963e-15" />
      <circle
         style="display:inline;fill:none;stroke:#ffffff;stroke-width:0.222451;stroke-miterlimit:4;stroke-dasharray:none;stroke-opacity:1"
         id="path5936"
         cx="4.6797967"
         cy="296.40448"
         r="0.29959419" />
    </g>
    <text
       xml:space="preserve"
       style="font-style:normal;font-weight:normal;font-size:0.348544px;line-height:1.25;font-family:sans-serif;letter-spacing:0px;word-spacing:0px;fill:#ffffff;fill-opacity:1;stroke:none;stroke-width:0.00871363"
       x="1.2853007"
       y="296.67703"
       id="text17672"><tspan
         sodipodi:role="line"
         id="tspan17670"
         x="1.2853007"
         y="296.67703"
         style="fill:#ffffff;fill-opacity:1;stroke-width:0.00871363">REVISION</tspan></text>
  </g>
</svg>
