<?xml version="1.0" encoding="UTF-8" standalone="no"?>
<svg
   xmlns:dc="http://purl.org/dc/elements/1.1/"
   xmlns:cc="http://creativecommons.org/ns#"
   xmlns:rdf="http://www.w3.org/1999/02/22-rdf-syntax-ns#"
   xmlns:svg="http://www.w3.org/2000/svg"
   xmlns="http://www.w3.org/2000/svg"
   xmlns:sodipodi="http://sodipodi.sourceforge.net/DTD/sodipodi-0.dtd"
   xmlns:inkscape="http://www.inkscape.org/namespaces/inkscape"
   width="16"
   height="16"
   viewBox="0 0 4.2333332 4.2333335"
   version="1.1"
   id="svg8"
   inkscape:version="1.0.1 (3bc2e813f5, 2020-09-07)"
   sodipodi:docname="kn-source-name.svg">
  <defs
     id="defs2" />
  <sodipodi:namedview
     id="base"
     pagecolor="#ffffff"
     bordercolor="#666666"
     borderopacity="1.0"
     inkscape:pageopacity="0.0"
     inkscape:pageshadow="2"
     inkscape:zoom="45.254834"
     inkscape:cx="5.7487819"
     inkscape:cy="7.7436159"
     inkscape:document-units="mm"
     inkscape:current-layer="layer1"
     showgrid="false"
     inkscape:window-width="1821"
     inkscape:window-height="1141"
     inkscape:window-x="2055"
     inkscape:window-y="74"
     inkscape:window-maximized="0"
     units="px"
     inkscape:pagecheckerboard="true"
     inkscape:document-rotation="0"
     inkscape:snap-others="true"
     inkscape:snap-nodes="true" />
  <metadata
     id="metadata5">
    <rdf:RDF>
      <cc:Work
         rdf:about="">
        <dc:format>image/svg+xml</dc:format>
        <dc:type
           rdf:resource="http://purl.org/dc/dcmitype/StillImage" />
        <dc:title></dc:title>
      </cc:Work>
    </rdf:RDF>
  </metadata>
  <g
     inkscape:label="Layer 1"
     inkscape:groupmode="layer"
     id="layer1"
     transform="translate(0,-292.76665)">
    <path
       sodipodi:type="star"
       style="opacity:1;fill:none;fill-opacity:1;stroke:none;stroke-width:0.04429172;stroke-miterlimit:4;stroke-dasharray:none;stroke-opacity:1"
       id="path823"
       sodipodi:sides="9"
       sodipodi:cx="3.3682271"
       sodipodi:cy="293.93885"
       sodipodi:r1="0.85589981"
       sodipodi:r2="0.76630896"
       sodipodi:arg1="1.2193516"
       sodipodi:arg2="1.5684175"
       inkscape:flatsided="true"
       inkscape:rounded="0"
       inkscape:randomized="0"
       d="m 3.6628744,294.74243 -0.5854683,0.001 -0.4493899,-0.37527 -0.1030371,-0.57633 0.2915279,-0.50772 0.5496839,-0.20155 0.5506366,0.19893 0.2939403,0.50633 -0.1002939,0.57682 z"
       inkscape:transform-center-x="-0.0014770388"
       inkscape:transform-center-y="-0.040690139" />
    <path
       id="path987"
       style="opacity:1;fill:#6594cb;fill-opacity:1;stroke:none;stroke-width:0.000570088;stroke-miterlimit:4;stroke-dasharray:none;stroke-opacity:1"
       d="m 2.1113337,292.80276 c -0.00208,3e-5 -0.3127796,0.11352 -0.6906001,0.25205 l -0.68660152,0.25207 -0.36529837,0.63593 c -0.20070933,0.3496 -0.36423208,0.63774 -0.36396532,0.64128 0.00120484,0.0154 0.25438954,1.42754 0.25730999,1.43453 0.001807,0.005 0.25427345,0.21981 0.56261306,0.47728 l 0.56127926,0.46797 0.7052659,-9.9e-4 c 0.388194,-2e-4 0.7203008,-9.9e-4 0.7372635,-0.003 l 0.030662,-0.003 0.5586136,-0.47059 c 0.306998,-0.25888 0.5589222,-0.47246 0.5599461,-0.47597 0.00103,-0.003 0.058147,-0.32959 0.1266555,-0.72393 l 0.123988,-0.71726 -0.3679649,-0.63461 -0.3692978,-0.63461 -0.037332,-0.0128 c -0.020743,-0.008 -0.3301724,-0.11997 -0.6879341,-0.24921 -0.3577616,-0.12926 -0.6525567,-0.23477 -0.6546044,-0.23477 z" />
    <g
       id="g15816"
       transform="translate(0.09341403,-0.24305306)">
      <path
         id="path15800"
         style="color:#000000;font-style:normal;font-variant:normal;font-weight:normal;font-stretch:normal;font-size:medium;line-height:normal;font-family:sans-serif;font-variant-ligatures:normal;font-variant-position:normal;font-variant-caps:normal;font-variant-numeric:normal;font-variant-alternates:normal;font-variant-east-asian:normal;font-feature-settings:normal;font-variation-settings:normal;text-indent:0;text-align:start;text-decoration:none;text-decoration-line:none;text-decoration-style:solid;text-decoration-color:#000000;letter-spacing:normal;word-spacing:normal;text-transform:none;writing-mode:lr-tb;direction:ltr;text-orientation:mixed;dominant-baseline:auto;baseline-shift:baseline;text-anchor:start;white-space:normal;shape-padding:0;shape-margin:0;inline-size:0;clip-rule:nonzero;display:inline;overflow:visible;visibility:visible;opacity:1;isolation:auto;mix-blend-mode:normal;color-interpolation:sRGB;color-interpolation-filters:linearRGB;solid-color:#000000;solid-opacity:1;vector-effect:none;fill:#ffffff;fill-opacity:1;fill-rule:nonzero;stroke:none;stroke-width:0.744072;stroke-linecap:butt;stroke-linejoin:miter;stroke-miterlimit:4;stroke-dasharray:none;stroke-dashoffset:0;stroke-opacity:1;color-rendering:auto;image-rendering:auto;shape-rendering:auto;text-rendering:auto;enable-background:accumulate;stop-color:#000000;stop-opacity:1"
         d="M 3.2695312,4.2558594 V 4.6328125 11.3125 h 0.033203 C 3.2691483,11.145545 3.2641453,10.865869 3.296875,10.707031 3.3860174,10.274386 3.6415957,9.9100104 4.015625,9.6464844 V 5.3945312 l 2.4765625,1.9414063 c 0.2071268,-0.1725084 0.4507563,-0.2990076 0.7167969,-0.375 L 4.7148438,5.0019531 H 10.601562 L 8.1445312,6.9296875 C 8.4341385,6.9862205 8.7051584,7.0847627 8.9335938,7.25 L 11.308594,5.3886719 v 4.2382812 c 0.02366,0.033445 0.05874,0.067858 0.125,0.125 0.199702,0.1723465 0.386086,0.4319239 0.476562,0.6640629 0.02067,0.05291 0.05372,0.153932 0.07227,0.224609 0.03058,0.116409 0.0332,0.15125 0.0332,0.363281 0,0.181137 -0.0096,0.225016 -0.0293,0.308594 h 0.06836 V 4.2558594 Z"
         transform="matrix(0.26458333,0,0,0.26458333,0,292.76665)" />
      <path
         id="rect12903"
         style="fill:#ffffff;fill-opacity:1;stroke:#ffffff;stroke-width:0.1084;stroke-miterlimit:4;stroke-dasharray:none;stroke-opacity:1"
         d="m 2.0510812,294.44438 a 0.65413024,0.61189087 0 0 0 -0.5603779,0.29986 0.65413024,0.61189087 0 0 0 -0.4626178,0.42543 0.65413024,0.61189087 0 0 0 -0.31588923,0.52373 0.65413024,0.61189087 0 0 0 0.65413983,0.61186 0.65413024,0.61189087 0 0 0 0.00566,-3e-5 v 6.3e-4 h 1.3089873 v -5.6e-4 a 0.65413024,0.61189087 0 0 0 0.6533256,-0.6119 0.65413024,0.61189087 0 0 0 -0.2047547,-0.4446 0.65413024,0.61189087 0 0 0 -0.5228731,-0.51886 0.65413024,0.61189087 0 0 0 -0.5533369,-0.28556 0.65413024,0.61189087 0 0 0 -0.00226,0 z m 3.532e-4,0.0944 a 0.55318815,0.51746692 0 0 1 0.00191,0 0.55318815,0.51746692 0 0 1 0.419169,0.17985 0.65413024,0.61189087 0 0 0 -3.56e-5,0 0.55318815,0.51746692 0 0 1 0.070728,0.0976 0.55318815,0.51746692 0 0 1 2.484e-4,3e-5 0.55318815,0.51746692 0 0 1 0.024414,0.003 0.55318815,0.51746692 0 0 1 3.532e-4,7e-5 0.55318815,0.51746692 0 0 1 2.483e-4,3e-5 0.55318815,0.51746692 0 0 1 0.00134,2e-4 0.55318815,0.51746692 0 0 1 0.012879,0.002 0.55318815,0.51746692 0 0 1 0.00212,3.6e-4 0.55318815,0.51746692 0 0 1 2.483e-4,4e-5 0.55318815,0.51746692 0 0 1 0.008,0.001 0.55318815,0.51746692 0 0 1 2.484e-4,6e-5 0.55318815,0.51746692 0 0 1 0.008,0.002 0.55318815,0.51746692 0 0 1 2.483e-4,6e-5 0.55318815,0.51746692 0 0 1 0.00796,0.002 0.55318815,0.51746692 0 0 1 2.483e-4,6e-5 0.55318815,0.51746692 0 0 1 0.00793,0.002 0.55318815,0.51746692 0 0 1 2.483e-4,7e-5 0.55318815,0.51746692 0 0 1 0.00789,0.002 0.55318815,0.51746692 0 0 1 2.484e-4,7e-5 0.55318815,0.51746692 0 0 1 0.00785,0.002 0.55318815,0.51746692 0 0 1 2.483e-4,6e-5 0.55318815,0.51746692 0 0 1 0.00782,0.002 0.55318815,0.51746692 0 0 1 2.483e-4,7e-5 0.55318815,0.51746692 0 0 1 0.00778,0.002 0.55318815,0.51746692 0 0 1 2.484e-4,6e-5 0.55318815,0.51746692 0 0 1 0.00775,0.002 0.55318815,0.51746692 0 0 1 2.484e-4,6e-5 0.55318815,0.51746692 0 0 1 0.00771,0.003 0.55318815,0.51746692 0 0 1 4.249e-4,1.3e-4 0.55318815,0.51746692 0 0 1 0.3379675,0.31909 0.65413024,0.61189087 0 0 0 -2.483e-4,-1.3e-4 0.55318815,0.51746692 0 0 1 0.028942,0.13312 0.55318815,0.51746692 0 0 1 1.435e-4,1e-4 0.55318815,0.51746692 0 0 1 0.00644,0.005 0.55318815,0.51746692 0 0 1 0.00329,0.003 0.55318815,0.51746692 0 0 1 0.00308,0.003 0.55318815,0.51746692 0 0 1 0.00322,0.003 0.55318815,0.51746692 0 0 1 0.00304,0.003 0.55318815,0.51746692 0 0 1 0.00318,0.003 0.55318815,0.51746692 0 0 1 0.00301,0.003 0.55318815,0.51746692 0 0 1 0.00315,0.003 0.55318815,0.51746692 0 0 1 0.00294,0.003 0.55318815,0.51746692 0 0 1 0.00311,0.003 0.55318815,0.51746692 0 0 1 0.0029,0.003 0.55318815,0.51746692 0 0 1 0.00103,9.6e-4 0.55318815,0.51746692 0 0 1 0.00488,0.005 0.55318815,0.51746692 0 0 1 0.00301,0.003 0.55318815,0.51746692 0 0 1 0.00283,0.003 0.55318815,0.51746692 0 0 1 7.08e-4,7.3e-4 0.55318815,0.51746692 0 0 1 0.00502,0.005 0.55318815,0.51746692 0 0 1 5.679e-4,6e-4 0.55318815,0.51746692 0 0 1 0.010615,0.0112 0.55318815,0.51746692 0 0 1 0.00283,0.003 0.55318815,0.51746692 0 0 1 0.00262,0.003 0.55318815,0.51746692 0 0 1 0.00276,0.003 0.55318815,0.51746692 0 0 1 0.00258,0.003 0.55318815,0.51746692 0 0 1 3.55e-5,6e-5 0.55318815,0.51746692 0 0 1 0.010367,0.0123 0.55318815,0.51746692 0 0 1 0.00262,0.003 0.55318815,0.51746692 0 0 1 4.249e-4,5.7e-4 0.55318815,0.51746692 0 0 1 0.00456,0.006 0.55318815,0.51746692 0 0 1 0.00379,0.005 0.55318815,0.51746692 0 0 1 0.101546,0.29877 0.55318815,0.51746692 0 0 1 -0.5426163,0.51737 v 3e-4 H 2.5796154 1.4733662 1.3860792 v -5.3e-4 a 0.55318815,0.51746692 0 0 1 -0.014082,3e-4 0.55318815,0.51746692 0 0 1 -0.00566,3e-5 0.55318815,0.51746692 0 0 1 -0.55319534,-0.51747 0.55318815,0.51746692 0 0 1 0.19134514,-0.39141 0.65413024,0.61189087 0 0 0 0,3e-5 0.55318815,0.51746692 0 0 1 0.0064,-0.005 0.55318815,0.51746692 0 0 1 0.00651,-0.005 0.55318815,0.51746692 0 0 1 0.00655,-0.005 0.55318815,0.51746692 0 0 1 0.00665,-0.005 0.55318815,0.51746692 0 0 1 0.00672,-0.005 0.55318815,0.51746692 0 0 1 0.00683,-0.005 0.55318815,0.51746692 0 0 1 0.00686,-0.005 0.55318815,0.51746692 0 0 1 0.00697,-0.004 0.55318815,0.51746692 0 0 1 0.00442,-0.003 0.55318815,0.51746692 0 0 1 0.00142,-8.6e-4 0.55318815,0.51746692 0 0 1 0.00265,-0.002 0.55318815,0.51746692 0 0 1 0.00563,-0.003 0.55318815,0.51746692 0 0 1 0.00449,-0.003 0.55318815,0.51746692 0 0 1 0.00219,-0.001 0.55318815,0.51746692 0 0 1 0.0012,-6.7e-4 0.55318815,0.51746692 0 0 1 0.00577,-0.003 0.55318815,0.51746692 0 0 1 0.00159,-8.6e-4 0.55318815,0.51746692 0 0 1 0.013799,-0.007 0.55318815,0.51746692 0 0 1 0.00464,-0.002 0.55318815,0.51746692 0 0 1 0.00156,-7.6e-4 0.55318815,0.51746692 0 0 1 0.00276,-0.001 0.55318815,0.51746692 0 0 1 0.00534,-0.003 0.55318815,0.51746692 0 0 1 0.4421672,-0.40558 0.55318815,0.51746692 0 0 1 0.4938245,-0.28784 z" />
      <text
         xml:space="preserve"
         style="font-style:normal;font-variant:normal;font-weight:600;font-stretch:normal;font-size:1.84071px;line-height:1.25;font-family:Montserrat;-inkscape-font-specification:'Montserrat, Semi-Bold';font-variant-ligatures:normal;font-variant-caps:normal;font-variant-numeric:normal;font-variant-east-asian:normal;letter-spacing:0px;word-spacing:0px;display:inline;fill:#ffffff;fill-opacity:1;stroke:none;stroke-width:0.0460178"
         x="1.4500464"
         y="295.97025"
         id="text7472-4"><tspan
           sodipodi:role="line"
           id="tspan7470-7"
           x="1.4500464"
           y="295.97025"
           style="font-style:normal;font-variant:normal;font-weight:600;font-stretch:normal;font-size:1.84071px;font-family:Montserrat;-inkscape-font-specification:'Montserrat, Semi-Bold';font-variant-ligatures:normal;font-variant-caps:normal;font-variant-numeric:normal;font-variant-east-asian:normal;fill:#ffffff;fill-opacity:1;stroke-width:0.0460178">e</tspan></text>
    </g>
    <text
       xml:space="preserve"
       style="font-style:normal;font-weight:normal;font-size:0.348544px;line-height:1.25;font-family:sans-serif;letter-spacing:0px;word-spacing:0px;fill:#ffffff;fill-opacity:1;stroke:none;stroke-width:0.00871363"
       x="1.3967736"
       y="296.67136"
       id="text17672"><tspan
         sodipodi:role="line"
         id="tspan17670"
         x="1.3967736"
         y="296.67136"
         style="fill:#ffffff;fill-opacity:1;stroke-width:0.00871363">SOURCE</tspan></text>
  </g>
</svg>
