<?xml version="1.0" encoding="UTF-8" standalone="no"?>
<svg
   xmlns:dc="http://purl.org/dc/elements/1.1/"
   xmlns:cc="http://creativecommons.org/ns#"
   xmlns:rdf="http://www.w3.org/1999/02/22-rdf-syntax-ns#"
   xmlns:svg="http://www.w3.org/2000/svg"
   xmlns="http://www.w3.org/2000/svg"
   xmlns:sodipodi="http://sodipodi.sourceforge.net/DTD/sodipodi-0.dtd"
   xmlns:inkscape="http://www.inkscape.org/namespaces/inkscape"
   width="16"
   height="16"
   viewBox="0 0 4.2333332 4.2333335"
   version="1.1"
   id="svg8"
   inkscape:version="1.0.1 (3bc2e813f5, 2020-09-07)"
   sodipodi:docname="kn-service.svg">
  <defs
     id="defs2" />
  <sodipodi:namedview
     id="base"
     pagecolor="#ffffff"
     bordercolor="#666666"
     borderopacity="1.0"
     inkscape:pageopacity="0.0"
     inkscape:pageshadow="2"
     inkscape:zoom="45.254834"
     inkscape:cx="7.7851725"
     inkscape:cy="7.3915495"
     inkscape:document-units="mm"
     inkscape:current-layer="layer1"
     showgrid="false"
     inkscape:window-width="1821"
     inkscape:window-height="1141"
     inkscape:window-x="2584"
     inkscape:window-y="74"
     inkscape:window-maximized="0"
     units="px"
     inkscape:pagecheckerboard="true"
     inkscape:document-rotation="0"
     inkscape:snap-grids="true"
     inkscape:snap-to-guides="true"
     inkscape:snap-others="true"
     inkscape:snap-global="false" />
  <metadata
     id="metadata5">
    <rdf:RDF>
      <cc:Work
         rdf:about="">
        <dc:format>image/svg+xml</dc:format>
        <dc:type
           rdf:resource="http://purl.org/dc/dcmitype/StillImage" />
        <dc:title></dc:title>
      </cc:Work>
    </rdf:RDF>
  </metadata>
  <g
     inkscape:label="Layer 1"
     inkscape:groupmode="layer"
     id="layer1"
     transform="translate(0,-292.76665)">
    <path
       sodipodi:type="star"
       style="opacity:1;fill:none;fill-opacity:1;stroke:none;stroke-width:0.0121632;stroke-miterlimit:4;stroke-dasharray:none;stroke-opacity:1"
       id="path821"
       sodipodi:sides="7"
       sodipodi:cx="6.2384149"
       sodipodi:cy="294.99325"
       sodipodi:r1="1.769226"
       sodipodi:r2="1.5940177"
       sodipodi:arg1="1.1246908"
       sodipodi:arg2="1.5734898"
       inkscape:flatsided="true"
       inkscape:rounded="0"
       inkscape:randomized="0"
       d="m 7.001757,296.58933 -1.5352712,-0.004 -0.9539929,-1.2029 0.3456614,-1.49586 1.3850257,-0.6624 1.3814374,0.66985 0.3375985,1.4977 z"
       inkscape:transform-center-x="0.0010604645"
       inkscape:transform-center-y="-0.086589138" />
    <path
       sodipodi:type="star"
       style="opacity:1;fill:none;fill-opacity:1;stroke:none;stroke-width:0.04429172;stroke-miterlimit:4;stroke-dasharray:none;stroke-opacity:1"
       id="path823"
       sodipodi:sides="9"
       sodipodi:cx="3.3682271"
       sodipodi:cy="293.93885"
       sodipodi:r1="0.85589981"
       sodipodi:r2="0.76630896"
       sodipodi:arg1="1.2193516"
       sodipodi:arg2="1.5684175"
       inkscape:flatsided="true"
       inkscape:rounded="0"
       inkscape:randomized="0"
       d="m 3.6628744,294.74243 -0.5854683,0.001 -0.4493899,-0.37527 -0.1030371,-0.57633 0.2915279,-0.50772 0.5496839,-0.20155 0.5506366,0.19893 0.2939403,0.50633 -0.1002939,0.57682 z"
       inkscape:transform-center-x="-0.0014770388"
       inkscape:transform-center-y="-0.040690139" />
    <path
       id="path987"
       style="opacity:1;fill:#6594cb;fill-opacity:1;stroke:none;stroke-width:0.000570088;stroke-miterlimit:4;stroke-dasharray:none;stroke-opacity:1"
       d="m 2.1113337,292.80276 c -0.00208,3e-5 -0.3127796,0.11352 -0.6906001,0.25205 l -0.68660152,0.25207 -0.36529837,0.63593 c -0.20070933,0.3496 -0.36423208,0.63774 -0.36396532,0.64128 0.00120484,0.0154 0.25438954,1.42754 0.25730999,1.43453 0.001807,0.005 0.25427345,0.21981 0.56261306,0.47728 l 0.56127926,0.46797 0.7052659,-9.9e-4 c 0.388194,-2e-4 0.7203008,-9.9e-4 0.7372635,-0.003 l 0.030662,-0.003 0.5586136,-0.47059 c 0.306998,-0.25888 0.5589222,-0.47246 0.5599461,-0.47597 0.00103,-0.003 0.058147,-0.32959 0.1266555,-0.72393 l 0.123988,-0.71726 -0.3679649,-0.63461 -0.3692978,-0.63461 -0.037332,-0.0128 c -0.020743,-0.008 -0.3301724,-0.11997 -0.6879341,-0.24921 -0.3577616,-0.12926 -0.6525567,-0.23477 -0.6546044,-0.23477 z" />
    <g
       id="g16416"
       transform="matrix(0.8399028,0,0,0.8399028,-2.3833775,46.869717)">
      <path
         id="path18310-4"
         style="display:inline;fill:#ffffff;fill-opacity:1;stroke:#ffffff;stroke-width:0;stroke-miterlimit:4;stroke-dasharray:none;stroke-opacity:1"
         d="m 6.2150084,293.91883 a 0.50141033,0.49777707 19.978408 0 0 -0.106716,0.0115 0.50141033,0.49777707 19.978408 0 0 -0.3797885,0.59303 0.50141033,0.49777707 19.978408 0 0 0.5981229,0.38044 0.50141033,0.49777707 19.978408 0 0 0.3797885,-0.59303 0.50141033,0.49777707 19.978408 0 0 -0.4914069,-0.3919 z m 8.758e-4,0.31892 a 0.17928039,0.17928039 0 0 1 0.00159,0 0.17928039,0.17928039 0 0 1 0.1792777,0.17928 0.17928039,0.17928039 0 0 1 -0.1792777,0.17927 0.17928039,0.17928039 0 0 1 -0.1792778,-0.17927 0.17928039,0.17928039 0 0 1 0.1776868,-0.17928 z" />
      <rect
         style="display:inline;fill:#ffffff;fill-opacity:1;stroke:#ffffff;stroke-width:0;stroke-miterlimit:4;stroke-dasharray:none;stroke-opacity:1"
         id="rect18387-3"
         width="0.23309904"
         height="0.37375277"
         x="-289.15356"
         y="-55.978271"
         ry="9.0013651e-16"
         transform="matrix(-0.211836,-0.97730523,0.97724799,-0.21209989,0,0)" />
      <rect
         style="display:inline;fill:#ffffff;fill-opacity:1;stroke:#ffffff;stroke-width:0;stroke-miterlimit:4;stroke-dasharray:none;stroke-opacity:1"
         id="rect18259"
         width="0.47272825"
         height="0.55849165"
         x="229.58252"
         y="-185.74808"
         ry="1.1905626e-15"
         transform="matrix(-0.61075128,0.7918225,-0.78778442,-0.61595106,0,0)" />
      <rect
         style="display:inline;fill:#ffffff;fill-opacity:1;stroke:#ffffff;stroke-width:0;stroke-miterlimit:4;stroke-dasharray:none;stroke-opacity:1"
         id="rect18259-4"
         width="0.47210151"
         height="0.55922663"
         x="-0.78502131"
         y="-296.89008"
         ry="1.1921293e-15"
         transform="matrix(-0.99994331,0.01064744,-0.01512397,-0.99988563,0,0)" />
      <rect
         style="display:inline;fill:#ffffff;fill-opacity:1;stroke:#ffffff;stroke-width:0;stroke-miterlimit:4;stroke-dasharray:none;stroke-opacity:1"
         id="rect18259-9"
         width="0.4747934"
         height="0.5560562"
         x="-231.74878"
         y="-184.07957"
         ry="1.1853709e-15"
         transform="matrix(-0.63174438,-0.77517678,0.77226811,-0.63529676,0,0)" />
      <rect
         style="display:inline;fill:#ffffff;fill-opacity:1;stroke:#ffffff;stroke-width:0;stroke-miterlimit:4;stroke-dasharray:none;stroke-opacity:1"
         id="rect18259-93"
         width="0.47422206"
         height="0.55673212"
         x="-288.02817"
         y="64.84153"
         ry="1.1868117e-15"
         transform="matrix(0.20675023,-0.97839376,0.97702492,0.21312508,0,0)" />
      <rect
         style="display:inline;fill:#ffffff;fill-opacity:1;stroke:#ffffff;stroke-width:0;stroke-miterlimit:4;stroke-dasharray:none;stroke-opacity:1"
         id="rect18259-6"
         width="0.47178271"
         height="0.55959958"
         x="-127.21611"
         y="265.6188"
         ry="1.1929246e-15"
         transform="matrix(0.8949225,-0.44622161,0.44470901,0.89567511,0,0)" />
      <rect
         style="display:inline;fill:#ffffff;fill-opacity:1;stroke:#ffffff;stroke-width:0;stroke-miterlimit:4;stroke-dasharray:none;stroke-opacity:1"
         id="rect18259-0"
         width="0.47344285"
         height="0.55765128"
         x="128.18256"
         y="264.21616"
         ry="1.1887714e-15"
         transform="matrix(0.90494619,0.42552601,-0.41893402,0.90801668,0,0)" />
      <rect
         style="display:inline;fill:#ffffff;fill-opacity:1;stroke:#ffffff;stroke-width:0;stroke-miterlimit:4;stroke-dasharray:none;stroke-opacity:1"
         id="rect18259-5"
         width="0.47513935"
         height="0.55564612"
         x="288.35611"
         y="63.645226"
         ry="1.1844968e-15"
         transform="matrix(0.23582,0.97179675,-0.97216039,0.23431642,0,0)" />
      <path
         id="path18310"
         style="display:inline;fill:#ffffff;fill-opacity:1;stroke:#ffffff;stroke-width:0;stroke-miterlimit:4;stroke-dasharray:none;stroke-opacity:1"
         d="m 5.0127563,294.72438 a 0.92395857,0.91726342 70.263479 0 0 -0.718215,0.35525 0.92395857,0.91726342 70.263479 0 0 0.1649602,1.29575 0.92395857,0.91726342 70.263479 0 0 1.2877679,-0.15989 0.92395857,0.91726342 70.263479 0 0 -0.1649603,-1.29576 0.92395857,0.91726342 70.263479 0 0 -0.5695528,-0.19535 z m 0.00467,0.44105 a 0.48212432,0.48212432 0 0 1 0.2085622,0.0458 0.48212432,0.48212432 0 0 1 0.2312236,0.64144 0.48212432,0.48212432 0 0 1 -0.6414327,0.23119 0.48212432,0.48212432 0 0 1 -0.2311911,-0.6414 0.48212432,0.48212432 0 0 1 0.432838,-0.27704 z" />
      <rect
         style="display:inline;fill:#ffffff;fill-opacity:1;stroke:#ffffff;stroke-width:0;stroke-miterlimit:4;stroke-dasharray:none;stroke-opacity:1"
         id="rect18387-3-4"
         width="0.23309904"
         height="0.37375277"
         x="-144.80627"
         y="256.83777"
         ry="9.0013651e-16"
         transform="matrix(0.86053995,-0.50938295,0.50961528,0.86040238,0,0)" />
      <rect
         style="display:inline;fill:#ffffff;fill-opacity:1;stroke:#ffffff;stroke-width:0;stroke-miterlimit:4;stroke-dasharray:none;stroke-opacity:1"
         id="rect18387-3-2"
         width="0.23309904"
         height="0.37375277"
         x="200.41521"
         y="215.91234"
         ry="9.0013651e-16"
         transform="matrix(0.74635283,0.66555049,-0.66534892,0.74653253,0,0)" />
      <rect
         style="display:inline;fill:#ffffff;fill-opacity:1;stroke:#ffffff;stroke-width:0;stroke-miterlimit:4;stroke-dasharray:none;stroke-opacity:1"
         id="rect18387-3-26"
         width="0.23309904"
         height="0.37375277"
         x="267.31549"
         y="-123.04696"
         ry="9.0013651e-16"
         transform="matrix(-0.39964437,0.91667027,-0.91677814,-0.39939685,0,0)" />
      <rect
         style="display:inline;fill:#ffffff;fill-opacity:1;stroke:#ffffff;stroke-width:0;stroke-miterlimit:4;stroke-dasharray:none;stroke-opacity:1"
         id="rect18387-3-41"
         width="0.23309904"
         height="0.37375277"
         x="-34.347088"
         y="-292.16605"
         ry="9.0013651e-16"
         transform="matrix(-0.99542819,-0.09551293,0.09524414,-0.99545394,0,0)" />
    </g>
  </g>
</svg>
