<?xml version="1.0" encoding="UTF-8" standalone="no"?>
<svg
   xmlns:dc="http://purl.org/dc/elements/1.1/"
   xmlns:cc="http://creativecommons.org/ns#"
   xmlns:rdf="http://www.w3.org/1999/02/22-rdf-syntax-ns#"
   xmlns:svg="http://www.w3.org/2000/svg"
   xmlns="http://www.w3.org/2000/svg"
   xmlns:sodipodi="http://sodipodi.sourceforge.net/DTD/sodipodi-0.dtd"
   xmlns:inkscape="http://www.inkscape.org/namespaces/inkscape"
   width="50mm"
   height="50mm"
   viewBox="0 0 50 50"
   version="1.1"
   id="svg855"
   inkscape:version="1.0.1 (3bc2e813f5, 2020-09-07)"
   sodipodi:docname="revision.svg">
  <defs
     id="defs849" />
  <sodipodi:namedview
     id="base"
     pagecolor="#ffffff"
     bordercolor="#666666"
     borderopacity="1.0"
     inkscape:pageopacity="0.0"
     inkscape:pageshadow="2"
     inkscape:zoom="2.8284272"
     inkscape:cx="172.97417"
     inkscape:cy="94.694201"
     inkscape:document-units="mm"
     inkscape:current-layer="layer1"
     inkscape:document-rotation="0"
     showgrid="false"
     inkscape:window-width="1900"
     inkscape:window-height="1139"
     inkscape:window-x="4592"
     inkscape:window-y="63"
     inkscape:window-maximized="0"
     units="mm"
     inkscape:pagecheckerboard="true">
    <inkscape:grid
       type="xygrid"
       id="grid2210" />
  </sodipodi:namedview>
  <metadata
     id="metadata852">
    <rdf:RDF>
      <cc:Work
         rdf:about="">
        <dc:format>image/svg+xml</dc:format>
        <dc:type
           rdf:resource="http://purl.org/dc/dcmitype/StillImage" />
        <dc:title></dc:title>
        <cc:license
           rdf:resource="http://creativecommons.org/licenses/by/4.0/" />
      </cc:Work>
      <cc:License
         rdf:about="http://creativecommons.org/licenses/by/4.0/">
        <cc:permits
           rdf:resource="http://creativecommons.org/ns#Reproduction" />
        <cc:permits
           rdf:resource="http://creativecommons.org/ns#Distribution" />
        <cc:requires
           rdf:resource="http://creativecommons.org/ns#Notice" />
        <cc:requires
           rdf:resource="http://creativecommons.org/ns#Attribution" />
        <cc:permits
           rdf:resource="http://creativecommons.org/ns#DerivativeWorks" />
      </cc:License>
    </rdf:RDF>
  </metadata>
  <g
     inkscape:groupmode="layer"
     id="layer3"
     inkscape:label="Layer 2"
     style="display:none">
    <rect
       style="display:inline;fill:#1a1a1a;fill-opacity:1;stroke:#000000;stroke-width:0"
       id="rect9364"
       width="50.11438"
       height="50.120899"
       x="-0.023077769"
       y="0.053396609"
       ry="3.9999444e-14" />
  </g>
  <g
     inkscape:label="Layer 1"
     inkscape:groupmode="layer"
     id="layer1"
     style="display:inline">
    <path
       id="path18310-4"
       style="fill:#3e94cb;fill-opacity:1;stroke:#2592b0;stroke-width:0;stroke-miterlimit:4;stroke-dasharray:none"
       d="m 38.675536,3.3295888 a 7.9809701,7.9231394 19.978408 0 0 -1.69861,0.182418 7.9809701,7.9231394 19.978408 0 0 -6.04511,9.4392172 7.9809701,7.9231394 19.978408 0 0 9.52035,6.055444 7.9809701,7.9231394 19.978408 0 0 6.04511,-9.4392172 7.9809701,7.9231394 19.978408 0 0 -7.82174,-6.237862 z m 0.0139,5.076176 a 2.8536138,2.8536138 0 0 1 0.0253,0 2.8536138,2.8536138 0 0 1 2.85357,2.8535722 2.8536138,2.8536138 0 0 1 -2.85357,2.853573 2.8536138,2.8536138 0 0 1 -2.85357,-2.853573 2.8536138,2.8536138 0 0 1 2.82825,-2.8535722 z" />
    <rect
       style="display:inline;fill:#3e94cb;fill-opacity:1;stroke:#2592b0;stroke-width:0;stroke-miterlimit:4;stroke-dasharray:none"
       id="rect18387-3"
       width="3.7102478"
       height="5.9490395"
       x="-21.067019"
       y="40.440811"
       ry="1.4327513e-14"
       transform="matrix(-0.211836,-0.97730523,0.97724799,-0.21209989,0,0)" />
    <rect
       style="display:inline;fill:#3e94cb;fill-opacity:1;stroke:#2592b0;stroke-width:0;stroke-miterlimit:4;stroke-dasharray:none"
       id="rect18387-3-4"
       width="3.7102478"
       height="5.9490395"
       x="25.719782"
       y="34.392712"
       ry="1.4327513e-14"
       transform="matrix(0.86053996,-0.50938294,0.50961529,0.86040238,0,0)" />
    <rect
       style="display:inline;fill:#3e94cb;fill-opacity:1;stroke:#2592b0;stroke-width:0;stroke-miterlimit:4;stroke-dasharray:none"
       id="rect18387-3-2"
       width="3.7102478"
       height="5.9490395"
       x="34.540596"
       y="-12.40672"
       ry="1.4327513e-14"
       transform="matrix(0.74635284,0.66555048,-0.66534892,0.74653253,0,0)" />
    <rect
       style="display:inline;fill:#3e94cb;fill-opacity:1;stroke:#2592b0;stroke-width:0;stroke-miterlimit:4;stroke-dasharray:none"
       id="rect18387-3-26"
       width="3.7102478"
       height="5.9490395"
       x="-6.992774"
       y="-34.98209"
       ry="1.4327513e-14"
       transform="matrix(-0.39964438,0.91667026,-0.91677814,-0.39939684,0,0)" />
    <rect
       style="display:inline;fill:#3e94cb;fill-opacity:1;stroke:#2592b0;stroke-width:0;stroke-miterlimit:4;stroke-dasharray:none"
       id="rect18387-3-41"
       width="3.7102478"
       height="5.9490395"
       x="-41.463612"
       y="-2.5578344"
       ry="1.4327513e-14"
       transform="matrix(-0.99542819,-0.09551293,0.09524414,-0.99545394,0,0)" />
    <path
       style="display:inline;fill:none;stroke:#3e94cb;stroke-width:2.89843;stroke-linecap:butt;stroke-linejoin:miter;stroke-miterlimit:4;stroke-dasharray:none;stroke-opacity:1"
       d="m 26.698061,12.748412 -25.1916545,-10e-7 V 48.556473 H 37.313425 V 23.294669"
       id="path5297" />
    <rect
       style="fill:none;stroke:#3e94cb;stroke-width:1.93229;stroke-miterlimit:4;stroke-dasharray:none;stroke-opacity:1"
       id="rect5934"
       width="15.556524"
       height="7.598022"
       x="8.4618959"
       y="18.698484"
       ry="4.2077402e-14" />
    <circle
       style="fill:none;stroke:#3e94cb;stroke-width:2.89843;stroke-miterlimit:4;stroke-dasharray:none;stroke-opacity:1"
       id="path5936"
       cx="19.863533"
       cy="36.53476"
       r="3.9035609" />
  </g>
</svg>
