<?xml version="1.0" encoding="UTF-8" standalone="no"?>
<svg
   xmlns:dc="http://purl.org/dc/elements/1.1/"
   xmlns:cc="http://creativecommons.org/ns#"
   xmlns:rdf="http://www.w3.org/1999/02/22-rdf-syntax-ns#"
   xmlns:svg="http://www.w3.org/2000/svg"
   xmlns="http://www.w3.org/2000/svg"
   xmlns:sodipodi="http://sodipodi.sourceforge.net/DTD/sodipodi-0.dtd"
   xmlns:inkscape="http://www.inkscape.org/namespaces/inkscape"
   width="50mm"
   height="50mm"
   viewBox="0 0 50 50"
   version="1.1"
   id="svg855"
   inkscape:version="1.0.1 (3bc2e813f5, 2020-09-07)"
   sodipodi:docname="source-generic.svg">
  <defs
     id="defs849" />
  <sodipodi:namedview
     id="base"
     pagecolor="#ffffff"
     bordercolor="#666666"
     borderopacity="1.0"
     inkscape:pageopacity="0.0"
     inkscape:pageshadow="2"
     inkscape:zoom="2.196421"
     inkscape:cx="124.24596"
     inkscape:cy="110.95056"
     inkscape:document-units="mm"
     inkscape:current-layer="layer1"
     inkscape:document-rotation="0"
     showgrid="false"
     inkscape:window-width="1531"
     inkscape:window-height="1048"
     inkscape:window-x="2949"
     inkscape:window-y="190"
     inkscape:window-maximized="0"
     units="mm"
     inkscape:pagecheckerboard="true">
    <inkscape:grid
       type="xygrid"
       id="grid2210" />
  </sodipodi:namedview>
  <metadata
     id="metadata852">
    <rdf:RDF>
      <cc:Work
         rdf:about="">
        <dc:format>image/svg+xml</dc:format>
        <dc:type
           rdf:resource="http://purl.org/dc/dcmitype/StillImage" />
        <dc:title></dc:title>
        <cc:license
           rdf:resource="http://creativecommons.org/licenses/by/4.0/" />
      </cc:Work>
      <cc:License
         rdf:about="http://creativecommons.org/licenses/by/4.0/">
        <cc:permits
           rdf:resource="http://creativecommons.org/ns#Reproduction" />
        <cc:permits
           rdf:resource="http://creativecommons.org/ns#Distribution" />
        <cc:requires
           rdf:resource="http://creativecommons.org/ns#Notice" />
        <cc:requires
           rdf:resource="http://creativecommons.org/ns#Attribution" />
        <cc:permits
           rdf:resource="http://creativecommons.org/ns#DerivativeWorks" />
      </cc:License>
    </rdf:RDF>
  </metadata>
  <g
     inkscape:groupmode="layer"
     id="layer2"
     inkscape:label="Layer 2"
     style="display:none">
    <rect
       style="display:inline;opacity:1;fill:#3d8037;fill-opacity:0.400538;stroke-width:0.2732;stroke-miterlimit:4;stroke-dasharray:none"
       id="rect2212"
       width="75"
       height="75"
       x="0.059107598"
       y="0.091476537"
       ry="5.9678059e-14" />
    <rect
       style="display:inline;opacity:1;fill:#3d5238;fill-opacity:0.400538;stroke-width:0.273201;stroke-miterlimit:4;stroke-dasharray:none"
       id="rect2212-9"
       width="75"
       height="75"
       x="75.059105"
       y="0.091476537"
       ry="5.9678059e-14" />
    <rect
       style="display:inline;opacity:1;fill:#905238;fill-opacity:0.400538;stroke-width:0.273201;stroke-miterlimit:4;stroke-dasharray:none"
       id="rect2212-9-3"
       width="75"
       height="75"
       x="75.059105"
       y="75.091476"
       ry="5.9678059e-14" />
    <rect
       style="display:inline;opacity:1;fill:#9052ac;fill-opacity:0.400538;stroke-width:0.273201;stroke-miterlimit:4;stroke-dasharray:none"
       id="rect2212-9-3-6"
       width="75"
       height="75"
       x="0.059107598"
       y="75.091476"
       ry="5.9678059e-14" />
  </g>
  <g
     inkscape:label="Layer 1"
     inkscape:groupmode="layer"
     id="layer1"
     style="display:inline">
    <rect
       style="fill:none;stroke:#2592b0;stroke-width:3.56745"
       id="rect12930"
       width="38.542324"
       height="30.243765"
       x="5.8033004"
       y="4.7970524" />
    <path
       style="fill:none;stroke:#2592b0;stroke-width:3.53665;stroke-linecap:butt;stroke-linejoin:miter;stroke-miterlimit:4;stroke-dasharray:none;stroke-opacity:1"
       d="M 5.8033005,4.7970525 44.345628,35.040816"
       id="path12932" />
    <path
       style="fill:none;stroke:#2592b0;stroke-width:3.53665;stroke-linecap:butt;stroke-linejoin:miter;stroke-miterlimit:4;stroke-dasharray:none;stroke-opacity:1"
       d="M 44.345628,4.7970525 5.8033005,35.040816"
       id="path12934" />
    <g
       id="g12928"
       transform="matrix(1,0,0,1.1632524,0,-7.5864094)">
      <path
         id="rect12903"
         style="fill:#2592b0;fill-opacity:1;stroke:#2592b0;stroke-width:1.82127;stroke-miterlimit:4;stroke-dasharray:none;stroke-opacity:1"
         d="m 25.504269,17.472555 a 11.853471,9.5319413 0 0 0 -10.154589,4.671174 11.853471,9.5319413 0 0 0 -8.3830807,6.627293 11.853471,9.5319413 0 0 0 -5.7242173,8.158569 11.853471,9.5319413 0 0 0 11.853644,9.531563 11.853471,9.5319413 0 0 0 0.102589,-5.13e-4 v 0.0098 h 23.720112 v -0.0088 a 11.853471,9.5319413 0 0 0 11.838891,-9.53205 11.853471,9.5319413 0 0 0 -3.710353,-6.925812 11.853471,9.5319413 0 0 0 -9.474965,-8.082782 11.853471,9.5319413 0 0 0 -10.026998,-4.448442 11.853471,9.5319413 0 0 0 -0.04103,0 z m 0.0064,1.470956 a 10.024303,8.0610196 0 0 1 0.03462,0 10.024303,8.0610196 0 0 1 7.595746,2.801673 11.853471,9.5319413 0 0 0 -6.44e-4,0 10.024303,8.0610196 0 0 1 1.281665,1.520967 10.024303,8.0610196 0 0 1 0.0045,5.16e-4 10.024303,8.0610196 0 0 1 0.442399,0.04795 10.024303,8.0610196 0 0 1 0.0064,9.96e-4 10.024303,8.0610196 0 0 1 0.0045,5.16e-4 10.024303,8.0610196 0 0 1 0.02437,0.0031 10.024303,8.0610196 0 0 1 0.23338,0.033 10.024303,8.0610196 0 0 1 0.03848,0.0057 10.024303,8.0610196 0 0 1 0.0045,5.16e-4 10.024303,8.0610196 0 0 1 0.144899,0.0232 10.024303,8.0610196 0 0 1 0.0045,9.97e-4 10.024303,8.0610196 0 0 1 0.144899,0.02475 10.024303,8.0610196 0 0 1 0.0045,9.97e-4 10.024303,8.0610196 0 0 1 0.144261,0.0263 10.024303,8.0610196 0 0 1 0.0045,9.97e-4 10.024303,8.0610196 0 0 1 0.143618,0.02836 10.024303,8.0610196 0 0 1 0.0045,9.97e-4 10.024303,8.0610196 0 0 1 0.142979,0.03042 10.024303,8.0610196 0 0 1 0.0045,9.97e-4 10.024303,8.0610196 0 0 1 0.142335,0.03197 10.024303,8.0610196 0 0 1 0.0045,9.97e-4 10.024303,8.0610196 0 0 1 0.141696,0.03351 10.024303,8.0610196 0 0 1 0.0045,9.97e-4 10.024303,8.0610196 0 0 1 0.141054,0.03558 10.024303,8.0610196 0 0 1 0.0045,9.97e-4 10.024303,8.0610196 0 0 1 0.140412,0.03712 10.024303,8.0610196 0 0 1 0.0045,9.97e-4 10.024303,8.0610196 0 0 1 0.139773,0.03918 10.024303,8.0610196 0 0 1 0.0077,0.0021 10.024303,8.0610196 0 0 1 6.124297,4.970726 11.853471,9.5319413 0 0 0 -0.0045,-0.002 10.024303,8.0610196 0 0 1 0.524464,2.073672 10.024303,8.0610196 0 0 1 0.0026,0.0015 10.024303,8.0610196 0 0 1 0.11669,0.07888 10.024303,8.0610196 0 0 1 0.05963,0.04125 10.024303,8.0610196 0 0 1 0.05578,0.03919 10.024303,8.0610196 0 0 1 0.05834,0.04176 10.024303,8.0610196 0 0 1 0.05514,0.04021 10.024303,8.0610196 0 0 1 0.0577,0.04227 10.024303,8.0610196 0 0 1 0.05449,0.04073 10.024303,8.0610196 0 0 1 0.05706,0.04331 10.024303,8.0610196 0 0 1 0.05321,0.04125 10.024303,8.0610196 0 0 1 0.05642,0.04434 10.024303,8.0610196 0 0 1 0.05258,0.04176 10.024303,8.0610196 0 0 1 0.01859,0.01494 10.024303,8.0610196 0 0 1 0.08848,0.07218 10.024303,8.0610196 0 0 1 0.05449,0.04537 10.024303,8.0610196 0 0 1 0.05129,0.04331 10.024303,8.0610196 0 0 1 0.01283,0.01135 10.024303,8.0610196 0 0 1 0.09104,0.07836 10.024303,8.0610196 0 0 1 0.01029,0.0093 10.024303,8.0610196 0 0 1 0.192348,0.174268 10.024303,8.0610196 0 0 1 0.05129,0.04796 10.024303,8.0610196 0 0 1 0.04744,0.04537 10.024303,8.0610196 0 0 1 0.05002,0.04846 10.024303,8.0610196 0 0 1 0.04681,0.0464 10.024303,8.0610196 0 0 1 6.42e-4,9.58e-4 10.024303,8.0610196 0 0 1 0.187857,0.191798 10.024303,8.0610196 0 0 1 0.04744,0.05052 10.024303,8.0610196 0 0 1 0.0077,0.0088 10.024303,8.0610196 0 0 1 0.08271,0.08971 10.024303,8.0610196 0 0 1 0.0686,0.07734 10.024303,8.0610196 0 0 1 1.840111,4.654159 10.024303,8.0610196 0 0 1 -9.832731,8.059578 v 0.0046 H 35.081818 15.035516 13.45379 v -0.0082 a 10.024303,8.0610196 0 0 1 -0.255179,0.0046 10.024303,8.0610196 0 0 1 -0.102589,5.16e-4 10.024303,8.0610196 0 0 1 -10.0244338,-8.061125 10.024303,8.0610196 0 0 1 3.4673575,-6.097272 11.853471,9.5319413 0 0 0 0,5.15e-4 10.024303,8.0610196 0 0 1 0.1160488,-0.0794 10.024303,8.0610196 0 0 1 0.1179723,-0.07836 10.024303,8.0610196 0 0 1 0.1186133,-0.0763 10.024303,8.0610196 0 0 1 0.1205367,-0.07528 10.024303,8.0610196 0 0 1 0.1218191,-0.07373 10.024303,8.0610196 0 0 1 0.1237428,-0.07217 10.024303,8.0610196 0 0 1 0.1243839,-0.07064 10.024303,8.0610196 0 0 1 0.126307,-0.06907 10.024303,8.0610196 0 0 1 0.080143,-0.0433 10.024303,8.0610196 0 0 1 0.025646,-0.0134 10.024303,8.0610196 0 0 1 0.048086,-0.02526 10.024303,8.0610196 0 0 1 0.1019435,-0.05207 10.024303,8.0610196 0 0 1 0.081426,-0.04125 10.024303,8.0610196 0 0 1 0.03975,-0.01907 10.024303,8.0610196 0 0 1 0.021799,-0.01031 10.024303,8.0610196 0 0 1 0.1045073,-0.05053 10.024303,8.0610196 0 0 1 0.028853,-0.0134 10.024303,8.0610196 0 0 1 0.2500499,-0.113429 10.024303,8.0610196 0 0 1 0.083992,-0.03712 10.024303,8.0610196 0 0 1 0.028211,-0.01186 10.024303,8.0610196 0 0 1 0.05001,-0.02115 10.024303,8.0610196 0 0 1 0.096815,-0.04021 10.024303,8.0610196 0 0 1 8.0124957,-6.317927 10.024303,8.0610196 0 0 1 8.948577,-4.484018 z" />
      <path
         style="fill:#ffffff;fill-opacity:1;stroke:#2592b0;stroke-width:0.432522;stroke-miterlimit:4;stroke-dasharray:none;stroke-opacity:1"
         d="M 12.014333,43.999449 C 10.740241,43.879701 9.2867999,43.460027 8.1728887,42.890248 6.0982655,41.829051 4.7049773,40.218207 4.1901487,38.285618 4.0106445,37.611786 3.9955577,36.375712 4.1585376,35.695704 4.6778885,33.528795 6.3277817,31.744525 8.8114757,30.663803 L 9.3590709,30.42553 9.4654871,30.003916 C 10.180435,27.17133 13.081444,24.894812 16.651274,24.364989 l 0.497191,-0.07379 0.266467,-0.426207 c 1.639858,-2.622904 5.266229,-4.226887 8.927986,-3.948945 2.125027,0.161298 4.035213,0.844638 5.531342,1.978752 0.559316,0.42398 1.353947,1.256601 1.685943,1.766544 l 0.300638,0.461781 0.512475,0.06704 c 2.599348,0.340045 4.584583,1.219777 6.051758,2.681762 1.121839,1.117869 1.805335,2.465686 1.936004,3.817696 0.04524,0.468113 0.121428,0.570002 0.806411,1.07847 0.957474,0.710739 1.854618,1.785975 2.288407,2.742681 0.09921,0.218804 0.253122,0.635908 0.342022,0.926897 0.146582,0.479795 0.161636,0.618823 0.161636,1.492759 0,0.873936 -0.01505,1.012964 -0.161636,1.492759 -0.604626,1.979061 -1.947778,3.475589 -4.065868,4.53016 -1.153605,0.574363 -2.393934,0.914144 -3.843382,1.05287 -0.78725,0.07535 -25.068213,0.06899 -25.874335,-0.0068 z"
         id="path13295" />
    </g>
    <text
       xml:space="preserve"
       style="font-style:normal;font-variant:normal;font-weight:600;font-stretch:normal;font-size:33.3555px;line-height:1.25;font-family:Montserrat;-inkscape-font-specification:'Montserrat, Semi-Bold';font-variant-ligatures:normal;font-variant-caps:normal;font-variant-numeric:normal;font-variant-east-asian:normal;letter-spacing:0px;word-spacing:0px;display:inline;fill:#2592b0;fill-opacity:1;stroke:none;stroke-width:0.833887"
       x="14.62644"
       y="40.654625"
       id="text7472"><tspan
         sodipodi:role="line"
         id="tspan7470"
         x="14.62644"
         y="40.654625"
         style="font-style:normal;font-variant:normal;font-weight:600;font-stretch:normal;font-size:33.3555px;font-family:Montserrat;-inkscape-font-specification:'Montserrat, Semi-Bold';font-variant-ligatures:normal;font-variant-caps:normal;font-variant-numeric:normal;font-variant-east-asian:normal;fill:#2592b0;fill-opacity:1;stroke-width:0.833887">e</tspan></text>
  </g>
</svg>
