<svg width="329" height="90" viewBox="0 0 329 90" fill="none" xmlns="http://www.w3.org/2000/svg">
<rect x="1.5" y="1" width="326" height="88" rx="23" fill="white"/>
<rect x="1.5" y="1" width="326" height="88" rx="23" stroke="#BDBDBD" stroke-width="2"/>
<g transform="translate(26 22) scale(1.1 1.1)">
  <path d="M43,21.558811 L43,42.9803832 L33.5773214,42.9803832 L33.5773214,21.4018764 C33.6150076,15.514818 29.3493699,10.4818746 23.5357747,9.55404979 C17.7221796,8.62622501 12.1018775,12.081415 10.3052734,17.6877576 L6.75463499,19.4401939 L9.73638657,21.9119138 C10.0567941,27.7969611 12.1361735,37.6446069 29.3531733,43 L21.4410693,43 C9.56701374,42.9674535 -0.0324344387,33.3152426 0,21.4411642 C0.032599171,9.56708571 9.68476755,-0.0324049959 21.5588233,0 C33.432879,0.0325694283 43.0323754,9.68473235 43,21.558811 Z" fill="#0E63FF"></path>
  <path d="M19,21.5132272 C18.9926598,22.8939103 17.8674797,24.0072567 16.4867963,24 C15.106113,23.992672 13.992756,22.8675024 14,21.4868192 C14.007315,20.106136 15.1324745,18.9927687 16.513158,19 C17.176202,19.003525 17.8107021,19.2702697 18.2770709,19.7415866 C18.7434396,20.2129036 19.0034731,20.8501834 19,21.5132272 Z" fill="#0E63FF"></path>
  <polygon fill="#30343B" points="78 43 78 7 85 7 85 43"></polygon>
  <path d="M140.996804,31.5551378 C141.092854,35.6108797 139.018136,39.4010093 135.576206,41.4575754 C132.134277,43.5141415 127.865723,43.5141415 124.423794,41.4575754 C120.981864,39.4010093 118.907146,35.6108797 119.003196,31.5551378 L119.003196,21 L125.228883,21 L125.228883,31.4063828 C125.223572,32.813005 125.685612,34.180291 126.540224,35.2869481 C127.426918,36.2852732 128.674117,36.8756804 129.996817,36.9232532 C131.30719,36.8851915 132.542125,36.2918485 133.402484,35.2869481 C134.293981,34.1978153 134.776649,32.8228828 134.764751,31.4063828 L134.764751,21 L140.996804,21 L140.996804,31.5551378 Z" fill="#30343B"></path>
  <path d="M165.187021,39.7152292 C160.742228,44.1514349 153.641093,44.0860189 149.274754,39.5686446 C144.908415,35.0512704 144.908415,27.7699178 149.274754,23.2525435 C153.641093,18.7351692 160.742228,18.6697533 165.187021,23.105959 L165.187021,7 L171,7 L171,42.2980104 L165.187021,42.2980104 L165.187021,39.7152292 Z M154.206951,35.6158918 C155.214059,36.7100457 156.614967,37.3324869 158.08227,37.3377589 C159.573855,37.3410322 161.001918,36.7189666 162.035095,35.6158918 C163.072375,34.4742741 163.647334,32.9708628 163.643373,31.4105941 C163.634323,29.8575378 163.058235,28.3642853 162.028636,27.225164 C160.995459,26.1220891 159.567396,25.5000236 158.075811,25.5032968 C156.608508,25.5085688 155.2076,26.1310101 154.200492,27.225164 C153.163182,28.3656295 152.582171,29.8644163 152.57285,31.4238391 C152.570398,32.9786356 153.142776,34.4766018 154.174656,35.6158918 L154.206951,35.6158918 Z" fill="#30343B"></path>
  <path d="M199,31.9998849 C199,25.9161849 193.885385,21 187.477927,21 C181.070469,21 176,25.9161849 176,31.9998849 C176,38.0835848 181.114615,42.9998862 187.477927,42.9998862 C189.744806,43.0097921 191.967537,42.3727256 193.885385,41.1633002 L193.885385,42.4254786 L199,42.4254786 L199,31.9998849 L199,31.9998849 Z M191.381684,36.0514776 C190.372871,37.102647 188.978484,37.6954411 187.522073,37.6923874 C186.086701,37.7002202 184.713904,37.1049324 183.738141,36.0514776 C182.662959,34.9807832 182.070769,33.5175234 182.098437,31.9998849 C182.069776,30.4968893 182.66319,29.0488781 183.738141,27.9987793 C184.694682,26.9125893 186.075348,26.2954679 187.522073,26.3074602 C188.989708,26.2998119 190.391973,26.9142981 191.381684,27.9987793 C192.385003,29.0675067 192.936397,30.4831237 192.920483,31.9493977 C192.939383,33.461413 192.390201,34.9254044 191.381684,36.0514776 L191.381684,36.0514776 Z" fill="#30343B"></path>
  <path d="M114,31.9998648 C114,25.9161759 108.890291,21 102.474767,21 C96.059243,21 91,25.9161759 91,31.9998648 C91,38.0835536 96.1097093,42.9998665 102.474767,42.9998665 C104.744363,43.0106037 106.96996,42.3735187 108.890291,41.1632633 L108.890291,42.4254394 L114,42.4254394 L114,31.9998648 L114,31.9998648 Z M106.385902,36.0514501 C105.376387,37.1019997 103.981894,37.6946751 102.525233,37.6923904 C101.089148,37.7017524 99.7153725,37.1062044 98.7402633,36.0514501 C97.6647867,34.9807577 97.0724343,33.5175005 97.1001097,31.9998648 C97.0714409,30.4968719 97.665017,29.0488634 98.7402633,27.9987665 C99.6960501,26.9111967 101.077761,26.2937785 102.525233,26.3074505 C103.992943,26.3013845 105.39498,26.9156009 106.385902,27.9987665 C107.394095,29.0655128 107.950253,30.4813582 107.93774,31.9493777 C107.953189,33.4630787 107.399274,34.9272783 106.385902,36.0514501 L106.385902,36.0514501 Z" fill="#30343B"></path>
  <path d="M74,31.9998849 C74,25.9161849 68.8902907,21 62.4810752,21 C56.0718596,21 51,25.9161849 51,31.9998849 C51,38.0835848 56.1160176,42.9998862 62.4810752,42.9998862 C64.7485762,43.0097921 66.9719162,42.3727256 68.8902907,41.1633002 L68.8902907,42.4254786 L74,42.4254786 L74,31.9998849 Z M66.3859024,36.0514776 C65.3813633,37.0979027 63.9943976,37.690284 62.544158,37.6924208 C61.1080733,37.7017829 59.7342974,37.1062338 58.7591882,36.0514776 C57.6837116,34.9807832 57.0913592,33.5175234 57.1190346,31.9998849 C57.0903658,30.4968893 57.6839419,29.0488781 58.7591882,27.9987793 C59.714975,26.9112075 61.0966856,26.2937882 62.544158,26.3074602 C64.0121954,26.2998119 65.4148449,26.9142981 66.4048272,27.9987793 C67.4084216,29.0675067 67.9599675,30.4831237 67.9440483,31.9493977 C67.9577706,33.4639472 67.4015635,34.9282556 66.3859024,36.0514776 L66.3859024,36.0514776 Z" fill="#30343B"></path>
  <path d="M250.692129,29.7782006 C250.692129,29.7276875 250.692129,29.6771745 250.654403,29.6203472 C249.295255,24.5352009 244.705367,21 239.462274,21 C234.21918,21 229.629292,24.5352009 228.270145,29.6203472 C228.270145,29.6771745 228.238706,29.7276875 228.232418,29.7782006 C228.226131,29.8287137 228.232418,29.9044833 228.20098,29.9613105 C227.340928,34.3582089 229.291219,38.8289959 233.09282,41.1752149 L233.09282,41.1752149 C233.512094,41.4389353 233.946725,41.6771946 234.394377,41.8887122 L234.627022,41.9960525 L235.255794,42.2486179 L235.463288,42.3180734 C235.875373,42.4617662 236.295225,42.5819268 236.720831,42.6779791 L236.966052,42.7411205 L237.531946,42.8421466 L238.003524,42.9116021 L238.493966,42.9621152 C238.776913,42.9621152 239.053572,43 239.342807,43 L239.5,43 L239.657193,43 C239.946428,43 240.223087,43 240.506034,42.9621152 L240.996476,42.9116021 L241.468054,42.8421466 L242.027661,42.7411205 L242.279169,42.6779791 C242.704775,42.5819268 243.124627,42.4617662 243.536712,42.3180734 L243.744206,42.2486179 L244.372978,41.9960525 L244.605623,41.8887122 C245.053275,41.6771946 245.487906,41.4389353 245.90718,41.1752149 L245.90718,41.1752149 C249.708781,38.8289959 251.659072,34.3582089 250.79902,29.9613105 C250.710992,29.9044833 250.704705,29.8539702 250.692129,29.7782006 Z M243.329217,36.0544511 C242.326206,37.1064335 240.937749,37.699749 239.487425,37.6961428 L239.437123,37.6961428 C237.986798,37.699749 236.598341,37.1064335 235.59533,36.0544511 C234.585397,34.9300615 234.035244,33.4643371 234.054841,31.9502632 C234.036044,30.4815118 234.588744,29.0633717 235.59533,27.9976145 C236.579672,26.9128938 237.975731,26.2979738 239.437123,26.3053592 L239.487425,26.3053592 C240.948816,26.2979738 242.344876,26.9128938 243.329217,27.9976145 C244.335803,29.0633717 244.888503,30.4815118 244.869707,31.9502632 C244.889304,33.4643371 244.33915,34.9300615 243.329217,36.0544511 L243.329217,36.0544511 Z" fill="#0E63FF"></path>
  <polygon fill="#0E63FF" points="217 43 217 21 224 21 224 43"></polygon>
  <path d="M224,14.5061865 C223.996564,16.4383729 222.428056,18.0022724 220.495871,18 C218.563686,17.9977227 216.998865,16.4301342 217,14.4979451 C217.001137,12.565756 218.5678,11 220.499986,11 C221.42982,10.998354 222.321955,11.3674221 222.978867,12.0254957 C223.635779,12.6835694 224.003271,13.576356 224,14.5061865 Z" fill="#0E63FF"></path>
  <path d="M212,39.5061865 C211.996564,41.4383729 210.428056,43.0022724 208.495871,43 C206.563686,42.9977227 204.998865,41.4301342 205,39.4979451 C205.001137,37.565756 206.5678,36 208.499986,36 C209.42982,35.998354 210.321955,36.3674221 210.978867,37.0254957 C211.635779,37.6835694 212.003271,38.576356 212,39.5061865 Z" fill="#0E63FF"></path>
</g>
</svg>