<svg width="328" height="104" viewBox="0 0 328 104" fill="none" xmlns="http://www.w3.org/2000/svg">
<g filter="url(#filter0_d_7_26)">
<rect x="4" width="320" height="96" rx="25" fill="white"/>
</g>
<g clip-path="url(#clip0_7_26)">
<path d="M54.2735 45.6148H34.1469V50.1915H54.2735V45.6148Z" fill="#FF612B"/>
<path d="M64.357 29H51.0403L54.2533 33.5869L63.963 36.6448C64.82 36.9179 65.5674 37.4616 66.095 38.1957C66.6225 38.9298 66.9023 39.8154 66.8931 40.7221V55.3391C66.8991 56.245 66.6181 57.1291 66.091 57.8626C65.5639 58.5961 64.8183 59.1404 63.963 59.4163L54.2533 62.4131L51.0403 67H64.357C65.6819 67.0014 66.9939 66.7383 68.2175 66.2259C69.4412 65.7135 70.5522 64.9619 71.4867 64.0144C72.4211 63.067 73.1605 61.9424 73.6623 60.7054C74.1641 59.4683 74.4183 58.1434 74.4103 56.8069V39.1931C74.4103 36.4986 73.3527 33.9136 71.4688 32.0035C69.5849 30.0933 67.028 29.0135 64.357 29Z" fill="#FF612B"/>
<path d="M24.1037 29H37.3801L34.2075 33.5869L24.4978 36.6448C23.6397 36.9175 22.891 37.4608 22.3618 38.1947C21.8325 38.9286 21.5506 39.8145 21.5576 40.7221V55.3391C21.5538 56.2459 21.8369 57.1302 22.3657 57.8635C22.8945 58.5968 23.6414 59.1408 24.4978 59.4163L34.2075 62.4131L37.4205 67H24.1037C21.4241 67 18.8541 65.9261 16.9593 64.0145C15.0645 62.1029 14 59.5103 14 56.8069V39.1931C14 36.4897 15.0645 33.8971 16.9593 31.9855C18.8541 30.0739 21.4241 29 24.1037 29Z" fill="#FF612B"/>
<path d="M237.485 55.5022C237.421 57.0556 236.765 58.5243 235.653 59.6008C234.541 60.6774 233.06 61.2785 231.518 61.2785C229.977 61.2785 228.496 60.6774 227.384 59.6008C226.272 58.5243 225.616 57.0556 225.552 55.5022V41.0075C225.616 39.454 226.272 37.9854 227.384 36.9088C228.496 35.8323 229.977 35.2311 231.518 35.2311C233.06 35.2311 234.541 35.8323 235.653 36.9088C236.765 37.9854 237.421 39.454 237.485 41.0075V41.2318H242.052V41.0585C241.967 38.2972 240.82 35.6776 238.854 33.7546C236.888 31.8316 234.257 30.7562 231.518 30.7562C228.78 30.7562 226.149 31.8316 224.183 33.7546C222.217 35.6776 221.07 38.2972 220.985 41.0585V55.5022C220.985 58.3191 222.094 61.0206 224.069 63.0125C226.043 65.0044 228.721 66.1234 231.513 66.1234C234.306 66.1234 236.983 65.0044 238.958 63.0125C240.932 61.0206 242.041 58.3191 242.041 55.5022V55.3085H237.475L237.485 55.5022Z" fill="#FF612B"/>
<path d="M261.208 39.8965C258.884 39.8722 256.64 40.7547 254.946 42.3597C253.252 43.9647 252.237 46.1681 252.115 48.5097V57.4083C252.34 59.6713 253.39 61.7693 255.062 63.2951C256.734 64.821 258.908 65.6658 261.163 65.6658C263.417 65.6658 265.591 64.821 267.263 63.2951C268.935 61.7693 269.986 59.6713 270.211 57.4083V48.4995C270.091 46.1739 269.09 43.9836 267.414 42.3822C265.739 40.7807 263.517 39.8907 261.208 39.8965ZM265.684 56.8884C265.684 58.086 265.213 59.2346 264.373 60.0814C263.534 60.9282 262.395 61.404 261.208 61.404C260.021 61.404 258.883 60.9282 258.043 60.0814C257.204 59.2346 256.732 58.086 256.732 56.8884V49.0295C256.732 47.8319 257.204 46.6834 258.043 45.8365C258.883 44.9897 260.021 44.5139 261.208 44.5139C262.395 44.5139 263.534 44.9897 264.373 45.8365C265.213 46.6834 265.684 47.8319 265.684 49.0295V56.8884Z" fill="#FF612B"/>
<path d="M248.861 30.5086H244.315V65.4506H248.861V30.5086Z" fill="#FF612B"/>
<path d="M123.434 39.8965H118.887V65.4506H123.434V39.8965Z" fill="#FF612B"/>
<path d="M114.34 30.5086H109.794V65.4506H114.34V30.5086Z" fill="#FF612B"/>
<path d="M98.3157 30.5086H92.7081L83.5137 65.3997H88.0503L90.4954 56.1239H100.599L103.034 65.2977H107.571L98.3157 30.529V30.5086ZM99.3261 51.6287H91.6877L95.5069 37.1545L99.3261 51.6287Z" fill="#FF612B"/>
<path d="M287.074 57.3675C287.074 58.5678 286.601 59.7189 285.76 60.5677C284.919 61.4164 283.777 61.8932 282.588 61.8932C281.398 61.8932 280.257 61.4164 279.416 60.5677C278.574 59.7189 278.102 58.5678 278.102 57.3675V39.8965H273.545V58.1218C273.542 59.3628 273.828 60.5871 274.381 61.6957C274.934 62.8043 275.738 63.7662 276.727 64.5035C277.717 65.2408 278.864 65.7328 280.077 65.9398C281.29 66.1469 282.534 66.0631 283.709 65.6953C284.144 65.5681 284.564 65.3938 284.962 65.1754C285.657 64.815 286.294 64.3511 286.851 63.7994L287.054 63.6057V65.4812H291.641V39.8965H287.074V57.3675Z" fill="#FF612B"/>
<path d="M123.434 30.5086H118.887V35.1057H123.434V30.5086Z" fill="#FF612B"/>
<path d="M138.205 39.8659C136.156 39.8652 134.189 40.678 132.729 42.1287L132.537 42.3224V30.5086H127.98V65.4506H132.537V63.5751L132.729 63.7688C133.832 64.8549 135.228 65.5889 136.743 65.879C138.257 66.1692 139.822 66.0025 141.243 65.3999C142.664 64.7974 143.878 63.7856 144.732 62.4911C145.586 61.1966 146.043 59.6768 146.046 58.1218V47.7757C146.043 45.6787 145.216 43.6684 143.746 42.1856C142.277 40.7028 140.284 39.8686 138.205 39.8659ZM141.55 48.6116V57.2859C141.55 58.4889 141.076 59.6427 140.233 60.4933C139.39 61.344 138.246 61.8219 137.053 61.8219C135.861 61.8219 134.717 61.344 133.874 60.4933C133.031 59.6427 132.557 58.4889 132.557 57.2859V48.6116C132.557 47.4086 133.031 46.2548 133.874 45.4042C134.717 44.5535 135.861 44.0756 137.053 44.0756C138.246 44.0756 139.39 44.5535 140.233 45.4042C141.076 46.2548 141.55 47.4086 141.55 48.6116Z" fill="#FF612B"/>
<path d="M180.601 39.8659C178.548 39.8625 176.577 40.6756 175.114 42.1287L174.922 42.3224V30.5086H170.376V65.4506H174.922V63.5751L175.114 63.7688C176.217 64.8549 177.613 65.5889 179.128 65.879C180.642 66.1692 182.208 66.0025 183.629 65.3999C185.05 64.7974 186.263 63.7856 187.117 62.4911C187.971 61.1966 188.428 59.6768 188.431 58.1218V47.7757C188.428 45.6805 187.603 43.6717 186.135 42.1892C184.668 40.7067 182.677 39.8713 180.601 39.8659ZM183.935 48.6116V57.2757C183.935 58.4788 183.461 59.6325 182.618 60.4831C181.775 61.3338 180.631 61.8117 179.439 61.8117C178.246 61.8117 177.103 61.3338 176.259 60.4831C175.416 59.6325 174.942 58.4788 174.942 57.2757V48.6116C174.942 47.4086 175.416 46.2548 176.259 45.4042C177.103 44.5535 178.246 44.0756 179.439 44.0756C180.631 44.0756 181.775 44.5535 182.618 45.4042C183.461 46.2548 183.935 47.4086 183.935 48.6116Z" fill="#FF612B"/>
<path d="M308.443 30.5086V42.3224L308.251 42.1287C307.15 41.0377 305.754 40.2994 304.238 40.0065C302.722 39.7137 301.154 39.8793 299.731 40.4827C298.308 41.0861 297.093 42.1003 296.24 43.3979C295.387 44.6955 294.932 46.2186 294.935 47.7757V58.1524C294.943 59.7048 295.404 61.2204 296.261 62.5102C297.117 63.8001 298.331 64.8072 299.751 65.406C301.171 66.0048 302.734 66.1688 304.245 65.8777C305.757 65.5866 307.15 64.8531 308.251 63.7688L308.443 63.5751V65.4506H313V30.5086H308.443ZM308.443 48.6116V57.2757C308.443 57.8714 308.327 58.4612 308.101 59.0116C307.875 59.5619 307.544 60.0619 307.126 60.4831C306.709 60.9043 306.213 61.2385 305.668 61.4664C305.122 61.6944 304.538 61.8117 303.947 61.8117C303.357 61.8117 302.772 61.6944 302.226 61.4664C301.681 61.2385 301.185 60.9043 300.768 60.4831C300.35 60.0619 300.019 59.5619 299.793 59.0116C299.567 58.4612 299.451 57.8714 299.451 57.2757V48.6116C299.451 48.0159 299.567 47.4261 299.793 46.8757C300.019 46.3254 300.35 45.8254 300.768 45.4042C301.185 44.983 301.681 44.6489 302.226 44.4209C302.772 44.193 303.357 44.0756 303.947 44.0756C304.538 44.0756 305.122 44.193 305.668 44.4209C306.213 44.6489 306.709 44.983 307.126 45.4042C307.544 45.8254 307.875 46.3254 308.101 46.8757C308.327 47.4261 308.443 48.0159 308.443 48.6116Z" fill="#FF612B"/>
<path d="M167.102 48.5402C167.089 48.2397 167.059 47.9402 167.011 47.6433V47.5209C166.782 46.1424 166.25 44.8329 165.455 43.6883C164.686 42.5811 163.678 41.6639 162.507 41.0055C161.337 40.347 160.034 39.9644 158.696 39.8863H158.17C156.05 39.882 153.995 40.6253 152.36 41.9878C150.725 43.3502 149.614 45.2461 149.218 47.3477H153.684C153.885 46.3194 154.433 45.3929 155.234 44.7258C156.035 44.0587 157.04 43.6921 158.079 43.6883C159.233 43.703 160.337 44.1637 161.164 44.9754C161.992 45.787 162.478 46.8879 162.525 48.051V50.1915H156.069C154.16 50.1796 152.313 50.8714 150.874 52.137C149.435 53.4025 148.504 55.1546 148.256 57.0638C148.008 58.9731 148.46 60.9081 149.526 62.5051C150.593 64.1021 152.201 65.2511 154.048 65.7361H154.169L154.604 65.838L155.149 65.9195H155.26C155.653 65.9613 156.048 65.9817 156.443 65.9807C157.371 65.9983 158.295 65.8641 159.181 65.5832C160.349 65.2127 161.412 64.5662 162.282 63.6974L162.485 63.5038V65.3793H167.031V62.3214L167.102 48.5402ZM156.938 53.6368H162.525V56.868C162.526 58.0594 162.113 59.2135 161.358 60.1297C160.603 61.0458 159.554 61.6662 158.393 61.8831C158.061 61.9621 157.722 62.0031 157.382 62.0054C156.57 61.9983 155.775 61.7731 155.079 61.353C154.874 61.2416 154.679 61.1156 154.493 60.9759C154.236 60.7676 154.002 60.5318 153.795 60.2725L153.745 60.2114C153.28 59.6066 152.994 58.8822 152.918 58.1209C152.842 57.3596 152.981 56.5922 153.317 55.9064C153.653 55.2206 154.174 54.6441 154.819 54.2428C155.465 53.8414 156.21 53.6314 156.968 53.6368H156.938Z" fill="#FF612B"/>
<path d="M209.548 48.5606C209.535 48.2601 209.505 47.9606 209.457 47.6636V47.5413C209.228 46.1659 208.696 44.8598 207.901 43.7189C207.129 42.6129 206.121 41.6961 204.951 41.0363C203.781 40.3764 202.479 39.9903 201.141 39.9066H200.616C198.499 39.9014 196.446 40.6419 194.811 42.0003C193.177 43.3587 192.064 45.2499 191.664 47.3476H196.12C196.325 46.2555 196.923 45.2781 197.798 44.6027C198.673 43.9272 199.764 43.6012 200.863 43.6871C201.962 43.7729 202.99 44.2646 203.752 45.0679C204.514 45.8712 204.955 46.9297 204.991 48.0408V50.1813H198.525C196.62 50.182 194.782 50.8827 193.352 52.1523C191.923 53.4219 191.002 55.1734 190.76 57.079C190.519 58.9847 190.974 60.9138 192.04 62.5053C193.107 64.0969 194.712 65.2418 196.554 65.7259H196.676L197.11 65.8278L197.656 65.9093H197.767C198.159 65.9546 198.554 65.9785 198.949 65.9807C199.877 65.9983 200.802 65.8641 201.687 65.5831C202.851 65.2046 203.913 64.5592 204.789 63.6974L204.991 63.5037V65.3793H209.538V62.3213L209.548 48.5606ZM199.383 53.6572H204.961V56.9292C204.962 58.1206 204.549 59.2746 203.794 60.1908C203.039 61.107 201.989 61.7274 200.828 61.9442C200.497 62.0232 200.158 62.0643 199.818 62.0665C199.006 62.0595 198.211 61.8343 197.514 61.4142C197.308 61.3065 197.112 61.1803 196.928 61.037C196.668 60.8289 196.431 60.5931 196.221 60.3337V60.2725C195.677 59.5673 195.382 58.6993 195.382 57.8058C195.374 56.7262 195.791 55.6874 196.541 54.9173C197.291 54.1472 198.313 53.7087 199.383 53.698V53.6572Z" fill="#FF612B"/>
</g>
<defs>
<filter id="filter0_d_7_26" x="0" y="0" width="328" height="104" filterUnits="userSpaceOnUse" color-interpolation-filters="sRGB">
<feFlood flood-opacity="0" result="BackgroundImageFix"/>
<feColorMatrix in="SourceAlpha" type="matrix" values="0 0 0 0 0 0 0 0 0 0 0 0 0 0 0 0 0 0 127 0" result="hardAlpha"/>
<feOffset dy="4"/>
<feGaussianBlur stdDeviation="2"/>
<feComposite in2="hardAlpha" operator="out"/>
<feColorMatrix type="matrix" values="0 0 0 0 0 0 0 0 0 0 0 0 0 0 0 0 0 0 0.25 0"/>
<feBlend mode="normal" in2="BackgroundImageFix" result="effect1_dropShadow_7_26"/>
<feBlend mode="normal" in="SourceGraphic" in2="effect1_dropShadow_7_26" result="shape"/>
</filter>
<clipPath id="clip0_7_26">
<rect width="299" height="38" fill="white" transform="translate(14 29)"/>
</clipPath>
</defs>
</svg>
