<svg width="329" height="90" viewBox="0 0 329 90" fill="none" xmlns="http://www.w3.org/2000/svg">
<rect x="1.5" y="1" width="326" height="88" rx="23" fill="white"/>
<rect x="1.5" y="1" width="326" height="88" rx="23" stroke="#BDBDBD" stroke-width="2"/>
<g clip-path="url(#clip0_71_722)">
<path d="M61.849 42.7404H42.934V47.0762H61.849V42.7404Z" fill="#FF612B"/>
<path d="M71.3255 27H58.8105L61.8301 31.3455L70.9552 34.2425C71.7607 34.5012 72.4631 35.0162 72.9589 35.7117C73.4547 36.4071 73.7176 37.2462 73.7089 38.1052V51.9528C73.7146 52.811 73.4505 53.6487 72.9551 54.3435C72.4598 55.0384 71.7591 55.5541 70.9552 55.8155L61.8301 58.6545L58.8105 63H71.3255C72.5706 63.0013 73.8037 62.7521 74.9536 62.2666C76.1036 61.7812 77.1477 61.0692 78.026 60.1716C78.9042 59.274 79.5991 58.2085 80.0706 57.0366C80.5422 55.8647 80.7811 54.6096 80.7736 53.3433V36.6567C80.7736 34.1039 79.7797 31.655 78.0092 29.8454C76.2387 28.0358 73.8357 27.0128 71.3255 27Z" fill="#FF612B"/>
<path d="M33.4955 27H45.9726L42.991 31.3455L33.8658 34.2425C33.0594 34.5008 32.3558 35.0155 31.8584 35.7108C31.361 36.4061 31.0961 37.2453 31.1026 38.1052V51.9528C31.0991 52.8119 31.3651 53.6497 31.8621 54.3444C32.359 55.0391 33.061 55.5544 33.8658 55.8155L42.991 58.6545L46.0105 63H33.4955C30.9771 63 28.5619 61.9826 26.7812 60.1716C25.0004 58.3607 24 55.9045 24 53.3433V36.6567C24 34.0955 25.0004 31.6393 26.7812 29.8284C28.5619 28.0174 30.9771 27 33.4955 27Z" fill="#FF612B"/>
<path d="M234.031 52.1073C233.971 53.579 233.354 54.9703 232.309 55.9902C231.264 57.0102 229.872 57.5797 228.424 57.5797C226.975 57.5797 225.583 57.0102 224.538 55.9902C223.493 54.9703 222.876 53.579 222.817 52.1073V38.3755C222.876 36.9038 223.493 35.5125 224.538 34.4926C225.583 33.4727 226.975 32.9032 228.424 32.9032C229.872 32.9032 231.264 33.4727 232.309 34.4926C233.354 35.5125 233.971 36.9038 234.031 38.3755V38.588H238.323V38.4238C238.243 35.8078 237.165 33.3261 235.317 31.5043C233.47 29.6825 230.997 28.6638 228.424 28.6638C225.85 28.6638 223.378 29.6825 221.53 31.5043C219.682 33.3261 218.604 35.8078 218.525 38.4238V52.1073C218.525 54.776 219.567 57.3353 221.423 59.2224C223.278 61.1094 225.795 62.1695 228.419 62.1695C231.043 62.1695 233.56 61.1094 235.415 59.2224C237.271 57.3353 238.313 54.776 238.313 52.1073V51.9238H234.021L234.031 52.1073Z" fill="#FF612B"/>
<path d="M256.326 37.323C254.142 37.3 252.033 38.136 250.441 39.6566C248.848 41.1771 247.895 43.2645 247.78 45.4828V53.9131C247.992 56.057 248.979 58.0446 250.55 59.4901C252.121 60.9357 254.165 61.7361 256.283 61.7361C258.402 61.7361 260.445 60.9357 262.017 59.4901C263.588 58.0446 264.575 56.057 264.787 53.9131V45.4732C264.674 43.27 263.734 41.195 262.159 39.6779C260.584 38.1607 258.495 37.3175 256.326 37.323ZM260.533 53.4206C260.533 54.5552 260.089 55.6433 259.301 56.4455C258.512 57.2478 257.442 57.6985 256.326 57.6985C255.21 57.6985 254.141 57.2478 253.352 56.4455C252.563 55.6433 252.12 54.5552 252.12 53.4206V45.9753C252.12 44.8408 252.563 43.7527 253.352 42.9504C254.141 42.1481 255.21 41.6974 256.326 41.6974C257.442 41.6974 258.512 42.1481 259.301 42.9504C260.089 43.7527 260.533 44.8408 260.533 45.9753V53.4206Z" fill="#FF612B"/>
<path d="M244.723 28.4292H240.45V61.5322H244.723V28.4292Z" fill="#FF612B"/>
<path d="M126.846 37.3229H122.573V61.5322H126.846V37.3229Z" fill="#FF612B"/>
<path d="M118.3 28.4292H114.027V61.5322H118.3V28.4292Z" fill="#FF612B"/>
<path d="M103.24 28.4292H97.9699L89.329 61.4839H93.5925L95.8904 52.6964H105.386L107.674 61.3874H111.938L103.24 28.4485V28.4292ZM104.189 48.4378H97.0108L100.6 34.7253L104.189 48.4378Z" fill="#FF612B"/>
<path d="M280.635 53.8744C280.635 55.0116 280.19 56.1021 279.4 56.9062C278.609 57.7103 277.537 58.162 276.419 58.162C275.3 58.162 274.228 57.7103 273.437 56.9062C272.647 56.1021 272.203 55.0116 272.203 53.8744V37.3229H267.92V54.589C267.917 55.7647 268.187 56.9246 268.706 57.9749C269.226 59.0252 269.981 59.9364 270.911 60.6348C271.841 61.3333 272.919 61.7995 274.059 61.9956C275.199 62.1918 276.368 62.1124 277.473 61.7639C277.881 61.6435 278.276 61.4783 278.65 61.2714C279.303 60.93 279.901 60.4905 280.426 59.9678L280.616 59.7843V61.5611H284.926V37.3229H280.635V53.8744Z" fill="#FF612B"/>
<path d="M126.846 28.4292H122.573V32.7843H126.846V28.4292Z" fill="#FF612B"/>
<path d="M140.728 37.294C138.802 37.2934 136.954 38.0634 135.582 39.4378L135.401 39.6213V28.4292H131.119V61.5322H135.401V59.7554L135.582 59.9389C136.618 60.9678 137.93 61.6632 139.353 61.9381C140.777 62.2129 142.248 62.055 143.583 61.4842C144.919 60.9133 146.059 59.9548 146.862 58.7284C147.665 57.5021 148.094 56.0623 148.097 54.5891V44.7876C148.094 42.8009 147.317 40.8964 145.936 39.4916C144.554 38.0869 142.682 37.2966 140.728 37.294ZM143.871 45.5794V53.7972C143.871 54.9369 143.426 56.0299 142.633 56.8358C141.841 57.6417 140.766 58.0944 139.646 58.0944C138.525 58.0944 137.45 57.6417 136.658 56.8358C135.865 56.0299 135.42 54.9369 135.42 53.7972V45.5794C135.42 44.4397 135.865 43.3467 136.658 42.5408C137.45 41.7349 138.525 41.2822 139.646 41.2822C140.766 41.2822 141.841 41.7349 142.633 42.5408C143.426 43.3467 143.871 44.4397 143.871 45.5794Z" fill="#FF612B"/>
<path d="M180.571 37.294C178.642 37.2908 176.789 38.0611 175.415 39.4378L175.235 39.6213V28.4292H170.962V61.5322H175.235V59.7554L175.415 59.9389C176.452 60.9678 177.764 61.6632 179.187 61.9381C180.61 62.2129 182.081 62.055 183.417 61.4842C184.752 60.9133 185.893 59.9548 186.695 58.7284C187.498 57.5021 187.928 56.0623 187.93 54.5891V44.7876C187.928 42.8026 187.152 40.8995 185.773 39.495C184.393 38.0906 182.523 37.2991 180.571 37.294ZM183.705 45.5794V53.7876C183.705 54.9273 183.259 56.0203 182.467 56.8262C181.675 57.632 180.6 58.0848 179.479 58.0848C178.358 58.0848 177.284 57.632 176.491 56.8262C175.699 56.0203 175.254 54.9273 175.254 53.7876V45.5794C175.254 44.4397 175.699 43.3467 176.491 42.5408C177.284 41.7349 178.358 41.2822 179.479 41.2822C180.6 41.2822 181.675 41.7349 182.467 42.5408C183.259 43.3467 183.705 44.4397 183.705 45.5794Z" fill="#FF612B"/>
<path d="M300.718 28.4292V39.6213L300.537 39.4378C299.502 38.4042 298.19 37.7047 296.765 37.4273C295.34 37.1498 293.867 37.3068 292.53 37.8784C291.192 38.4501 290.051 39.4109 289.249 40.6402C288.447 41.8694 288.02 43.3123 288.022 44.7876V54.618C288.03 56.0888 288.464 57.5246 289.269 58.7466C290.073 59.9685 291.214 60.9226 292.548 61.4899C293.883 62.0572 295.352 62.2126 296.772 61.9368C298.193 61.661 299.502 60.9661 300.537 59.9389L300.718 59.7554V61.5322H305V28.4292H300.718ZM300.718 45.5794V53.7876C300.718 54.3519 300.608 54.9107 300.396 55.432C300.184 55.9534 299.872 56.4271 299.48 56.8262C299.088 57.2252 298.622 57.5417 298.109 57.7577C297.596 57.9736 297.047 58.0848 296.492 58.0848C295.937 58.0848 295.388 57.9736 294.875 57.7577C294.362 57.5417 293.897 57.2252 293.504 56.8262C293.112 56.4271 292.801 55.9534 292.588 55.432C292.376 54.9107 292.267 54.3519 292.267 53.7876V45.5794C292.267 45.0151 292.376 44.4563 292.588 43.9349C292.801 43.4136 293.112 42.9399 293.504 42.5408C293.897 42.1418 294.362 41.8253 294.875 41.6093C295.388 41.3934 295.937 41.2822 296.492 41.2822C297.047 41.2822 297.596 41.3934 298.109 41.6093C298.622 41.8253 299.088 42.1418 299.48 42.5408C299.872 42.9399 300.184 43.4136 300.396 43.9349C300.608 44.4563 300.718 45.0151 300.718 45.5794Z" fill="#FF612B"/>
<path d="M167.885 45.5118C167.873 45.2271 167.845 44.9433 167.8 44.662V44.5461C167.584 43.2401 167.085 41.9996 166.337 40.9152C165.614 39.8663 164.667 38.9974 163.567 38.3736C162.467 37.7498 161.242 37.3873 159.985 37.3133H159.491C157.498 37.3092 155.567 38.0134 154.031 39.3042C152.494 40.5949 151.45 42.3911 151.078 44.382H155.275C155.464 43.4078 155.978 42.5301 156.731 41.8981C157.484 41.2661 158.429 40.9188 159.406 40.9152C160.49 40.9292 161.528 41.3656 162.305 42.1345C163.082 42.9035 163.54 43.9464 163.584 45.0483V47.0762H157.516C155.722 47.0649 153.986 47.7203 152.634 48.9192C151.282 50.1181 150.407 51.778 150.174 53.5868C149.941 55.3956 150.365 57.2287 151.367 58.7417C152.37 60.2546 153.881 61.3431 155.617 61.8026H155.731L156.139 61.8991L156.652 61.9764H156.756C157.125 62.016 157.496 62.0353 157.867 62.0343C158.74 62.051 159.609 61.9239 160.441 61.6577C161.538 61.3068 162.538 60.6943 163.356 59.8713L163.546 59.6878V61.4646H167.819V58.5676L167.885 45.5118ZM158.333 50.3401H163.584V53.4013C163.584 54.53 163.196 55.6233 162.487 56.4912C161.777 57.3592 160.791 57.9469 159.7 58.1524C159.389 58.2272 159.07 58.2661 158.75 58.2682C157.988 58.2616 157.24 58.0482 156.586 57.6502C156.394 57.5447 156.21 57.4253 156.035 57.2929C155.793 57.0956 155.574 56.8722 155.38 56.6266L155.332 56.5687C154.896 55.9957 154.626 55.3094 154.555 54.5882C154.484 53.867 154.614 53.14 154.93 52.4903C155.246 51.8406 155.735 51.2944 156.342 50.9142C156.949 50.534 157.648 50.335 158.361 50.3401H158.333Z" fill="#FF612B"/>
<path d="M207.776 45.5311C207.764 45.2464 207.735 44.9626 207.69 44.6813V44.5654C207.475 43.2624 206.975 42.0251 206.228 40.9442C205.503 39.8965 204.556 39.0279 203.456 38.4028C202.357 37.7776 201.133 37.4119 199.875 37.3326H199.382C197.392 37.3277 195.462 38.0291 193.927 39.316C192.391 40.603 191.345 42.3946 190.969 44.382H195.156C195.349 43.3473 195.911 42.4213 196.733 41.7815C197.556 41.1416 198.581 40.8328 199.614 40.9141C200.646 40.9954 201.613 41.4612 202.329 42.2222C203.045 42.9832 203.459 43.986 203.493 45.0386V47.0665H197.416C195.627 47.0671 193.898 47.7309 192.555 48.9337C191.212 50.1365 190.346 51.7959 190.119 53.6012C189.892 55.4065 190.32 57.2341 191.322 58.7419C192.324 60.2497 193.833 61.3344 195.565 61.7929H195.678L196.087 61.8895L196.6 61.9667H196.704C197.073 62.0097 197.444 62.0322 197.815 62.0343C198.687 62.051 199.556 61.9238 200.388 61.6577C201.483 61.2991 202.48 60.6877 203.303 59.8712L203.493 59.6878V61.4646H207.766V58.5676L207.776 45.5311ZM198.223 50.3594H203.465V53.4592C203.466 54.5879 203.078 55.6812 202.368 56.5492C201.659 57.4171 200.672 58.0049 199.581 58.2103C199.27 58.2852 198.951 58.324 198.632 58.3262C197.869 58.3195 197.121 58.1062 196.467 57.7081C196.273 57.6061 196.089 57.4865 195.916 57.3508C195.671 57.1537 195.449 56.9303 195.251 56.6845V56.6266C194.74 55.9585 194.463 55.1361 194.463 54.2897C194.455 53.2669 194.847 52.2828 195.552 51.5532C196.257 50.8237 197.218 50.4083 198.223 50.3981V50.3594Z" fill="#FF612B"/>
</g>
<defs>
<clipPath id="clip0_71_722">
<rect width="281" height="36" fill="white" transform="translate(24 27)"/>
</clipPath>
</defs>
</svg>
