<svg width="328" height="104" viewBox="0 0 328 104" fill="none" xmlns="http://www.w3.org/2000/svg">
<g filter="url(#filter0_d_7_16)">
<rect x="4" width="320" height="96" rx="25" fill="white"/>
</g>
<g clip-path="url(#clip0_7_16)">
<path fill-rule="evenodd" clip-rule="evenodd" d="M31.4087 43.9167H38.4645C44.462 43.9167 47.2843 45.4333 47.2843 49.75C47.2843 55.1167 41.9924 55.8167 38.2293 55.8167H31.4087V43.9167ZM24 62.1167H38.9349C46.8139 62.1167 54.5754 59.3167 54.5754 50.3333C54.5754 45.0833 50.8123 41 45.638 40.4167V40.3C49.8715 39.0167 52.8114 35.9833 52.8114 31.3167C52.8114 23.85 46.3436 20.9333 40.1109 20.9333H24V62.1167ZM31.4087 27.2333H37.5237C43.0508 27.2333 45.5204 28.9833 45.5204 32.4833C45.5204 35.5167 43.0508 37.6167 38.1117 37.6167H31.4087V27.2333ZM59.3969 62.1167H66.4528V20H59.3969V62.1167ZM71.1567 48.1167C71.1567 56.8667 77.9773 62.7 86.4444 62.7C94.9114 62.7 101.732 56.8667 101.732 48.1167C101.732 39.3667 94.9114 33.5333 86.4444 33.5333C77.8597 33.5333 71.1567 39.3667 71.1567 48.1167ZM78.0949 48.1167C78.0949 43.8 81.1525 39.7167 86.3268 39.7167C91.5011 39.7167 94.5586 43.6833 94.5586 48.1167C94.5586 52.55 91.5011 56.5167 86.3268 56.5167C81.2701 56.5167 78.0949 52.55 78.0949 48.1167ZM104.79 48.1167C104.79 56.8667 111.61 62.7 120.077 62.7C128.544 62.7 135.365 56.8667 135.365 48.1167C135.365 39.3667 128.544 33.5333 120.077 33.5333C111.61 33.5333 104.79 39.3667 104.79 48.1167ZM111.845 48.1167C111.845 43.8 114.903 39.7167 120.077 39.7167C125.252 39.7167 128.309 43.6833 128.309 48.1167C128.309 52.55 125.252 56.5167 120.077 56.5167C114.903 56.5167 111.845 52.55 111.845 48.1167ZM139.716 34.2333H146.419V38.55H146.537C147.713 35.9833 150.417 33.5333 155.121 33.5333C159.472 33.5333 162.412 35.1667 163.941 38.6667C165.94 35.1667 168.998 33.5333 173.231 33.5333C180.758 33.5333 183.345 38.7833 183.345 45.4333V62H176.289V46.25C176.289 42.75 175.231 39.7167 171.115 39.7167C166.764 39.7167 165.117 43.3333 165.117 46.95V62H158.061V45.4333C158.061 42.05 156.65 39.7167 153.24 39.7167C148.654 39.7167 146.772 43.1 146.772 46.8333V62H139.716V34.2333ZM188.872 62.1167H195.575V57.9167H195.693C197.692 61.3 201.455 62.8167 205.336 62.8167C214.038 62.8167 219.212 56.4 219.212 48.2333C219.212 39.95 213.685 33.65 205.688 33.65C200.396 33.65 197.574 36.1 196.163 37.85H196.045V20H188.99L188.872 62.1167ZM212.156 48.1167C212.156 52.4333 209.099 56.5167 203.924 56.5167C198.75 56.5167 195.693 52.55 195.693 48.1167C195.693 43.8 198.75 39.7167 203.924 39.7167C209.099 39.8333 212.156 43.8 212.156 48.1167ZM250.846 50.5667V48.7C250.846 39.0167 245.554 33.5333 237.675 33.5333C229.208 33.5333 222.387 39.3667 222.387 48.1167C222.387 56.8667 229.208 62.7 237.675 62.7C242.144 62.7 246.26 61.1833 249.552 57.1L244.496 53.3667C242.732 55.4667 240.497 57.1 236.969 57.1C233.089 57.1 229.913 54.65 229.443 50.45C229.443 50.5667 250.846 50.5667 250.846 50.5667ZM229.443 45.3167C229.913 41.35 232.501 38.6667 236.734 38.6667C241.085 38.6667 243.79 41.2333 243.908 45.3167H229.443ZM255.432 34.2333H262.488V38.6667H262.606C264.134 35.5167 267.192 33.5333 270.955 33.5333C271.778 33.5333 272.601 33.7667 273.425 33.8833V40.65C272.249 40.4167 271.19 40.1833 270.014 40.1833C263.429 40.1833 262.488 45.6667 262.488 47.1833V62.1167H255.432V34.2333ZM297.297 34.2333V38.4333H297.179C295.18 35.05 291.417 33.5333 287.536 33.5333C278.834 33.5333 273.66 39.95 273.66 48.1167C273.66 56.05 279.187 62.35 287.654 62.35C291.182 62.35 294.827 61.0667 296.827 58.2667H296.944V60.25C296.944 65.7333 294.827 69.5833 288.007 69.5833C284.126 69.5833 281.186 68.1833 278.364 65.6167L274.13 71.3333C278.129 74.8333 282.832 75.8833 288.007 75.8833C298.943 75.8833 303.882 69.4667 303.882 59.4333V34.2333H297.297ZM289.065 39.8333C294.122 39.8333 297.415 43.2167 297.415 48C297.415 52.6667 294.239 56.1667 289.065 56.1667C284.361 56.1667 280.833 52.55 280.833 48.1167C280.716 43.1 284.126 39.8333 289.065 39.8333Z" fill="black"/>
</g>
<defs>
<filter id="filter0_d_7_16" x="0" y="0" width="328" height="104" filterUnits="userSpaceOnUse" color-interpolation-filters="sRGB">
<feFlood flood-opacity="0" result="BackgroundImageFix"/>
<feColorMatrix in="SourceAlpha" type="matrix" values="0 0 0 0 0 0 0 0 0 0 0 0 0 0 0 0 0 0 127 0" result="hardAlpha"/>
<feOffset dy="4"/>
<feGaussianBlur stdDeviation="2"/>
<feComposite in2="hardAlpha" operator="out"/>
<feColorMatrix type="matrix" values="0 0 0 0 0 0 0 0 0 0 0 0 0 0 0 0 0 0 0.25 0"/>
<feBlend mode="normal" in2="BackgroundImageFix" result="effect1_dropShadow_7_16"/>
<feBlend mode="normal" in="SourceGraphic" in2="effect1_dropShadow_7_16" result="shape"/>
</filter>
<clipPath id="clip0_7_16">
<rect width="280" height="56" fill="white" transform="translate(24 20)"/>
</clipPath>
</defs>
</svg>
