<svg width="329" height="90" viewBox="0 0 329 90" fill="none" xmlns="http://www.w3.org/2000/svg">
<rect x="1.5" y="1" width="326" height="88" rx="23" fill="white"/>
<rect x="1.5" y="1" width="326" height="88" rx="23" stroke="#BDBDBD" stroke-width="2"/>
<g clip-path="url(#clip0_71_721)">
<path fill-rule="evenodd" clip-rule="evenodd" d="M31.9087 40.9167H38.9645C44.962 40.9167 47.7843 42.4333 47.7843 46.75C47.7843 52.1167 42.4924 52.8167 38.7293 52.8167H31.9087V40.9167ZM24.5 59.1167H39.4349C47.3139 59.1167 55.0754 56.3167 55.0754 47.3333C55.0754 42.0833 51.3123 38 46.138 37.4167V37.3C50.3715 36.0167 53.3114 32.9833 53.3114 28.3167C53.3114 20.85 46.8436 17.9333 40.6109 17.9333H24.5V59.1167ZM31.9087 24.2333H38.0237C43.5508 24.2333 46.0204 25.9833 46.0204 29.4833C46.0204 32.5167 43.5508 34.6167 38.6117 34.6167H31.9087V24.2333ZM59.8969 59.1167H66.9528V17H59.8969V59.1167ZM71.6567 45.1167C71.6567 53.8667 78.4773 59.7 86.9444 59.7C95.4114 59.7 102.232 53.8667 102.232 45.1167C102.232 36.3667 95.4114 30.5333 86.9444 30.5333C78.3597 30.5333 71.6567 36.3667 71.6567 45.1167ZM78.5949 45.1167C78.5949 40.8 81.6525 36.7167 86.8268 36.7167C92.0011 36.7167 95.0586 40.6833 95.0586 45.1167C95.0586 49.55 92.0011 53.5167 86.8268 53.5167C81.7701 53.5167 78.5949 49.55 78.5949 45.1167ZM105.29 45.1167C105.29 53.8667 112.11 59.7 120.577 59.7C129.044 59.7 135.865 53.8667 135.865 45.1167C135.865 36.3667 129.044 30.5333 120.577 30.5333C112.11 30.5333 105.29 36.3667 105.29 45.1167ZM112.345 45.1167C112.345 40.8 115.403 36.7167 120.577 36.7167C125.752 36.7167 128.809 40.6833 128.809 45.1167C128.809 49.55 125.752 53.5167 120.577 53.5167C115.403 53.5167 112.345 49.55 112.345 45.1167ZM140.216 31.2333H146.919V35.55H147.037C148.213 32.9833 150.917 30.5333 155.621 30.5333C159.972 30.5333 162.912 32.1667 164.441 35.6667C166.44 32.1667 169.498 30.5333 173.731 30.5333C181.258 30.5333 183.845 35.7833 183.845 42.4333V59H176.789V43.25C176.789 39.75 175.731 36.7167 171.615 36.7167C167.264 36.7167 165.617 40.3333 165.617 43.95V59H158.561V42.4333C158.561 39.05 157.15 36.7167 153.74 36.7167C149.154 36.7167 147.272 40.1 147.272 43.8333V59H140.216V31.2333ZM189.372 59.1167H196.075V54.9167H196.193C198.192 58.3 201.955 59.8167 205.836 59.8167C214.538 59.8167 219.712 53.4 219.712 45.2333C219.712 36.95 214.185 30.65 206.188 30.65C200.896 30.65 198.074 33.1 196.663 34.85H196.545V17H189.49L189.372 59.1167ZM212.656 45.1167C212.656 49.4333 209.599 53.5167 204.424 53.5167C199.25 53.5167 196.193 49.55 196.193 45.1167C196.193 40.8 199.25 36.7167 204.424 36.7167C209.599 36.8333 212.656 40.8 212.656 45.1167ZM251.346 47.5667V45.7C251.346 36.0167 246.054 30.5333 238.175 30.5333C229.708 30.5333 222.887 36.3667 222.887 45.1167C222.887 53.8667 229.708 59.7 238.175 59.7C242.644 59.7 246.76 58.1833 250.052 54.1L244.996 50.3667C243.232 52.4667 240.997 54.1 237.469 54.1C233.589 54.1 230.413 51.65 229.943 47.45C229.943 47.5667 251.346 47.5667 251.346 47.5667ZM229.943 42.3167C230.413 38.35 233.001 35.6667 237.234 35.6667C241.585 35.6667 244.29 38.2333 244.408 42.3167H229.943ZM255.932 31.2333H262.988V35.6667H263.106C264.634 32.5167 267.692 30.5333 271.455 30.5333C272.278 30.5333 273.101 30.7667 273.925 30.8833V37.65C272.749 37.4167 271.69 37.1833 270.514 37.1833C263.929 37.1833 262.988 42.6667 262.988 44.1833V59.1167H255.932V31.2333ZM297.797 31.2333V35.4333H297.679C295.68 32.05 291.917 30.5333 288.036 30.5333C279.334 30.5333 274.16 36.95 274.16 45.1167C274.16 53.05 279.687 59.35 288.154 59.35C291.682 59.35 295.327 58.0667 297.327 55.2667H297.444V57.25C297.444 62.7333 295.327 66.5833 288.507 66.5833C284.626 66.5833 281.686 65.1833 278.864 62.6167L274.63 68.3333C278.629 71.8333 283.332 72.8833 288.507 72.8833C299.443 72.8833 304.382 66.4667 304.382 56.4333V31.2333H297.797ZM289.565 36.8333C294.622 36.8333 297.915 40.2167 297.915 45C297.915 49.6667 294.739 53.1667 289.565 53.1667C284.861 53.1667 281.333 49.55 281.333 45.1167C281.216 40.1 284.626 36.8333 289.565 36.8333Z" fill="black"/>
</g>
<defs>
<clipPath id="clip0_71_721">
<rect width="280" height="56" fill="white" transform="translate(24.5 17)"/>
</clipPath>
</defs>
</svg>
