<svg width="328" height="104" viewBox="0 0 328 104" fill="none" xmlns="http://www.w3.org/2000/svg">
<g filter="url(#filter0_d_3_2)">
<rect x="4" width="320" height="96" rx="25" fill="white"/>
</g>
<path d="M96.8222 60.2766C96.8222 63.5566 95.4493 65.1102 92.7035 65.1102C89.9577 65.1102 88.5847 63.5565 88.5847 60.2766V26.4403H80.8621V60.1038C80.8621 67.8722 85.3241 72.0154 92.7035 72.0154C100.083 72.0154 104.545 67.6994 104.545 60.1038V26.4403H96.8222V60.2766ZM44.9953 47.6743C48.7709 46.1205 50.3153 42.1499 50.3153 38.1795C50.3153 30.5835 46.7115 26.2679 38.474 26.2679H26.9758V71.1518H39.1607C47.9131 71.1518 51.1738 65.6275 51.1738 58.2043C51.1738 52.5075 48.7712 49.3999 44.9957 47.6735L44.9953 47.6743ZM34.6984 32.6551H37.6159C41.0482 32.6551 42.5928 34.7267 42.5928 39.0427C42.5928 42.8407 40.3618 44.7395 37.4441 44.7395H34.5267L34.6984 32.6551ZM37.7875 64.9378H34.6984V51.127H37.101C41.7347 51.127 43.4509 53.3713 43.4509 58.0322C43.4509 62.5206 41.9064 64.9374 37.7877 64.9374L37.7875 64.9378ZM119.133 51.4722H129.087V44.7395H119.133V33.1731H132.005V26.4403H111.411V71.3243H132.863V64.5915H119.133V51.4722ZM65.0761 26.4403H57.5249V71.3243H77.2606V64.5915H65.2475V26.4386L65.0761 26.4403ZM260.547 71.3243H268.269V26.4403H260.547V71.3243ZM242.184 25.7478C234.118 25.7478 230.342 30.927 230.342 37.3142V60.4473C230.342 66.8348 234.118 72.0136 242.184 72.0136C242.184 72.0136 246.474 71.841 249.735 69.2515L253.854 72.0136V60.2745V48.7081H241.497V54.7501H246.989V60.2745V60.4471C246.989 65.4535 242.699 65.2807 242.699 65.2807H242.184C239.095 65.2807 238.065 63.727 238.065 60.2743V37.4868C238.065 34.2068 239.095 32.4804 242.184 32.4804C245.273 32.4804 246.303 34.0341 246.303 37.4868V40.9395H254.025V37.3143C254.025 30.9267 250.249 25.7478 242.184 25.7478ZM165.643 25.7478C157.577 25.7478 153.973 30.927 153.973 37.3142V60.4473C153.973 66.8348 157.748 72.0136 165.814 72.0136C173.88 72.0136 177.656 66.8345 177.656 60.4473V37.3142C177.484 30.9266 173.709 25.7478 165.642 25.7478H165.643ZM169.762 60.2745C169.762 63.5545 168.732 65.2809 165.643 65.2809C162.554 65.2809 161.524 63.7271 161.524 60.2745V37.4869C161.524 34.2069 162.554 32.4806 165.643 32.4806C168.732 32.4806 169.762 34.0343 169.762 37.4869V60.2745ZM292.98 26.4382V53.0237L282.511 26.4382H275.647V71.3222H282.511V44.7366L292.98 71.3222H299.845V26.4382H292.98ZM215.582 71.3222H223.305V26.4382H215.582V71.3222ZM207.86 39.5575C207.86 29.8899 203.569 26.2647 194.817 26.2647H184.005V71.1487H191.727V52.8495C193.1 52.8495 194.645 52.8495 195.674 52.6769L201.166 71.3212H208.889L202.367 50.9505C205.113 49.7421 207.859 46.8073 207.859 39.5566L207.86 39.5575ZM194.645 46.4627H191.899V32.6519H194.645C198.764 32.6519 200.308 34.2056 200.308 39.5571C200.308 44.9087 198.764 46.4627 194.645 46.4627Z" fill="#0000FF"/>
<defs>
<filter id="filter0_d_3_2" x="0" y="0" width="328" height="104" filterUnits="userSpaceOnUse" color-interpolation-filters="sRGB">
<feFlood flood-opacity="0" result="BackgroundImageFix"/>
<feColorMatrix in="SourceAlpha" type="matrix" values="0 0 0 0 0 0 0 0 0 0 0 0 0 0 0 0 0 0 127 0" result="hardAlpha"/>
<feOffset dy="4"/>
<feGaussianBlur stdDeviation="2"/>
<feComposite in2="hardAlpha" operator="out"/>
<feColorMatrix type="matrix" values="0 0 0 0 0 0 0 0 0 0 0 0 0 0 0 0 0 0 0.25 0"/>
<feBlend mode="normal" in2="BackgroundImageFix" result="effect1_dropShadow_3_2"/>
<feBlend mode="normal" in="SourceGraphic" in2="effect1_dropShadow_3_2" result="shape"/>
</filter>
</defs>
</svg>
