<?xml version="1.0" encoding="UTF-8"?>
<!-- Generator: Adobe Illustrator 18.1.1, SVG Export Plug-In  -->
<svg width="800" height="150" enable-background="new 0 0 159 26.8" version="1.1" xml:space="preserve" xmlns="http://www.w3.org/2000/svg"><title>Logo of Blue Origin</title><path d="m210.17 108.33c0 9.2831-3.9087 13.68-11.726 13.68s-11.726-4.3973-11.726-13.68v-95.763h-21.986v95.274c0 21.986 12.703 33.712 33.712 33.712 21.009 0 33.712-12.215 33.712-33.712v-95.274h-21.986zm-147.55-35.667c10.749-4.3973 15.146-15.635 15.146-26.872 0-21.498-10.26-33.712-33.712-33.712h-32.735v127.03h34.69c24.918 0 34.201-15.635 34.201-36.644 0-16.123-6.8402-24.918-17.589-29.804zm-29.315-42.507h8.306c9.7717 0 14.169 5.863 14.169 18.078 0 10.749-6.3516 16.123-14.658 16.123h-8.306zm8.7945 91.366h-8.7945v-39.087h6.8402c13.192 0 18.078 6.3516 18.078 19.543 0 12.703-4.3973 19.543-16.123 19.543zm231.59-38.11h28.338v-19.055h-28.338v-32.735h36.644v-19.055h-58.63v127.03h61.073v-19.055h-39.087zm-153.9-70.845h-21.498v127.03h56.187v-19.055h-34.201v-107.98zm556.5 127.03h21.986v-127.03h-21.986zm-52.279-128.99c-22.964 0-33.712 14.658-33.712 32.735v65.471c0 18.078 10.749 32.735 33.712 32.735 0 0 12.215-0.48858 21.498-7.8174l11.726 7.8174v-33.224-32.735h-35.178v17.1h15.635v15.635 0.48859c0 14.169-12.215 13.68-12.215 13.68h-1.4658c-8.7945 0-11.726-4.3973-11.726-14.169v-64.493c0-9.2831 2.9315-14.169 11.726-14.169 8.7946 0 11.726 4.3973 11.726 14.169v9.7717h21.986v-10.26c0-18.078-10.749-32.735-33.712-32.735zm-217.91 0c-22.964 0-33.224 14.658-33.224 32.735v65.471c0 18.078 10.749 32.735 33.712 32.735s33.712-14.658 33.712-32.735v-65.471c-0.48859-18.078-11.237-32.735-34.201-32.735zm11.726 97.717c0 9.2831-2.9315 14.169-11.726 14.169-8.7946 0-11.726-4.3973-11.726-14.169v-64.493c0-9.2831 2.9315-14.169 11.726-14.169 8.7945 0 11.726 4.3973 11.726 14.169zm350.8-95.763v75.242l-29.804-75.242h-19.543v127.03h19.543v-75.242l29.804 75.242h19.543v-127.03zm-220.35 127.03h21.986v-127.03h-21.986zm-21.986-89.9c0-27.361-12.215-37.621-37.133-37.621h-30.781v127.03h21.986v-51.79c3.9087 0 8.306 0 11.237-0.48858l15.635 52.767h21.986l-18.566-57.653c7.8174-3.4201 15.635-11.726 15.635-32.247zm-37.621 19.543h-7.8174v-39.087h7.8174c11.726 0 16.123 4.3973 16.123 19.543 0 15.146-4.3973 19.543-16.123 19.543z" fill="#00f" stroke-width="4.8859"/></svg>