<svg width="329" height="90" viewBox="0 0 329 90" fill="none" xmlns="http://www.w3.org/2000/svg">
<rect x="1.5" y="1" width="326" height="88" rx="23" fill="white"/>
<rect x="1.5" y="1" width="326" height="88" rx="23" stroke="#BDBDBD" stroke-width="2"/>
<path d="M103.992 55.6656C103.992 58.6362 102.746 60.0432 100.254 60.0432C97.7622 60.0432 96.5163 58.636 96.5163 55.6656V25.0214H89.5083V55.5091C89.5083 62.5446 93.5574 66.2969 100.254 66.2969C106.951 66.2969 111 62.3881 111 55.5091V25.0214H103.992V55.6656ZM56.9601 44.2521C60.3863 42.845 61.7879 39.2489 61.7879 35.6531C61.7879 28.7737 58.5175 24.8653 51.0422 24.8653H40.6079V65.5149H51.6653C59.608 65.5149 62.5669 60.5117 62.5669 53.7888C62.5669 48.6294 60.3866 45.815 56.9604 44.2515L56.9601 44.2521ZM47.6159 30.6499H50.2635C53.3782 30.6499 54.7799 32.5261 54.7799 36.4349C54.7799 39.8745 52.7553 41.5942 50.1076 41.5942H47.4601L47.6159 30.6499ZM50.4192 59.887H47.6159V47.3792H49.7963C54.0012 47.3792 55.5586 49.4117 55.5586 53.6329C55.5586 57.6979 54.157 59.8867 50.4194 59.8867L50.4192 59.887ZM124.239 47.6918H133.271V41.5942H124.239V31.119H135.919V25.0214H117.23V65.671H136.697V59.5734H124.239V47.6918ZM75.1829 25.0214H68.3304V65.671H86.24V59.5734H75.3384V25.0198L75.1829 25.0214ZM252.567 65.671H259.575V25.0214H252.567V65.671ZM235.903 24.3942C228.584 24.3942 225.158 29.0848 225.158 34.8694V55.8201C225.158 61.6051 228.584 66.2953 235.903 66.2953C235.903 66.2953 239.797 66.139 242.756 63.7938L246.493 66.2953V55.6637V45.1885H235.281V50.6605H240.264V55.6637V55.82C240.264 60.3541 236.371 60.1976 236.371 60.1976H235.903C233.1 60.1976 232.166 58.7905 232.166 55.6635V35.0258C232.166 32.0552 233.1 30.4917 235.903 30.4917C238.707 30.4917 239.641 31.8988 239.641 35.0258V38.1527H246.649V34.8695C246.649 29.0846 243.223 24.3942 235.903 24.3942ZM166.445 24.3942C159.125 24.3942 155.854 29.0848 155.854 34.8694V55.8201C155.854 61.6051 159.281 66.2953 166.6 66.2953C173.92 66.2953 177.346 61.6048 177.346 55.8201V34.8694C177.19 29.0845 173.764 24.3942 166.444 24.3942H166.445ZM170.182 55.6637C170.182 58.6343 169.248 60.1977 166.445 60.1977C163.641 60.1977 162.707 58.7906 162.707 55.6637V35.0259C162.707 32.0553 163.641 30.4918 166.445 30.4918C169.248 30.4918 170.182 31.899 170.182 35.0259V55.6637ZM282 25.0195V49.0969L272.5 25.0195H266.27V65.6691H272.5V41.5917L282 65.6691H288.229V25.0195H282ZM211.763 65.6691H218.771V25.0195H211.763V65.6691ZM204.755 36.9011C204.755 28.1456 200.862 24.8624 192.919 24.8624H183.107V65.512H190.116V48.9392C191.361 48.9392 192.763 48.9392 193.697 48.7828L198.681 65.6683H205.689L199.771 47.2193C202.263 46.1249 204.755 43.467 204.755 36.9003L204.755 36.9011ZM192.763 43.1549H190.272V30.647H192.763C196.501 30.647 197.903 32.0542 197.903 36.9008C197.903 41.7475 196.501 43.1549 192.763 43.1549Z" fill="#0000FF"/>
</svg>
