<svg width="328" height="106" viewBox="0 0 328 106" fill="none" xmlns="http://www.w3.org/2000/svg">
<g filter="url(#filter0_d_7_28)">
<rect x="4" y="2" width="320" height="96" rx="25" fill="white"/>
</g>
<g clip-path="url(#clip0_7_28)">
<path d="M229.708 77.8758C231.352 80.2306 231 83.2919 229.003 84.9403C226.653 86.5887 223.245 86.2355 221.601 84.2339L209.851 69.0452L198.337 83.8807C196.692 86.2355 193.285 86.2355 190.935 84.5871C188.585 82.9387 188.232 79.8774 189.877 77.5226L203.389 59.979L189.995 42.3177C188.35 39.9629 188.937 36.5484 191.052 34.9C193.402 33.2516 196.809 33.8403 198.454 35.9597L209.969 51.1484L221.718 36.6661C223.363 34.3113 226.418 33.9581 229.12 35.6065C231.47 37.2548 231.47 40.6694 229.825 43.0242L216.666 60.2145L229.708 77.8758ZM168.493 75.7565C159.681 75.7565 152.632 69.0452 152.632 60.2145C152.632 51.7371 159.681 44.6726 168.493 44.6726C177.305 44.6726 184.355 51.7371 184.355 60.2145C183.885 69.0452 176.836 75.7565 168.493 75.7565ZM121.966 75.7565C113.154 75.7565 106.104 69.0452 106.104 60.2145C106.104 51.7371 113.154 44.6726 121.966 44.6726C130.778 44.6726 137.828 51.7371 137.828 60.2145C137.828 69.0452 130.661 75.7565 121.966 75.7565ZM168.493 34.6645C158.742 34.6645 149.93 40.0806 145.582 48.2048C141.118 39.9629 132.423 34.6645 122.319 34.6645C116.209 34.6645 110.804 36.6661 106.457 39.7274V18.0629C106.457 15.3548 104.107 13 101.405 13C98.3499 13 96 15.3548 96 18.0629V60.5677C96.3525 74.6968 107.749 85.8823 121.966 85.8823C132.07 85.8823 140.883 80.1129 145.23 71.9887C149.577 80.1129 158.389 85.8823 168.141 85.8823C182.593 85.8823 194.46 74.3436 194.46 59.8613C194.695 46.0855 182.945 34.6645 168.493 34.6645Z" fill="#0061D5"/>
</g>
<defs>
<filter id="filter0_d_7_28" x="0" y="2" width="328" height="104" filterUnits="userSpaceOnUse" color-interpolation-filters="sRGB">
<feFlood flood-opacity="0" result="BackgroundImageFix"/>
<feColorMatrix in="SourceAlpha" type="matrix" values="0 0 0 0 0 0 0 0 0 0 0 0 0 0 0 0 0 0 127 0" result="hardAlpha"/>
<feOffset dy="4"/>
<feGaussianBlur stdDeviation="2"/>
<feComposite in2="hardAlpha" operator="out"/>
<feColorMatrix type="matrix" values="0 0 0 0 0 0 0 0 0 0 0 0 0 0 0 0 0 0 0.25 0"/>
<feBlend mode="normal" in2="BackgroundImageFix" result="effect1_dropShadow_7_28"/>
<feBlend mode="normal" in="SourceGraphic" in2="effect1_dropShadow_7_28" result="shape"/>
</filter>
<clipPath id="clip0_7_28">
<rect width="135" height="73" fill="white" transform="translate(96 13)"/>
</clipPath>
</defs>
</svg>
