<svg width="329" height="90" viewBox="0 0 329 90" fill="none" xmlns="http://www.w3.org/2000/svg">
<rect x="1.5" y="1" width="326" height="88" rx="23" fill="white"/>
<rect x="1.5" y="1" width="326" height="88" rx="23" stroke="#BDBDBD" stroke-width="2"/>
<g clip-path="url(#clip0_71_771)">
<path d="M219.428 68.7113C220.792 70.679 220.5 73.2371 218.843 74.6145C216.893 75.9919 214.067 75.6968 212.702 74.0242L202.954 61.3323L193.402 73.729C192.037 75.6968 189.21 75.6968 187.261 74.3194C185.311 72.9419 185.019 70.3839 186.383 68.4161L197.593 53.7565L186.481 38.9984C185.116 37.0306 185.604 34.1774 187.358 32.8C189.308 31.4226 192.134 31.9145 193.499 33.6855L203.052 46.3774L212.799 34.2758C214.164 32.3081 216.698 32.0129 218.94 33.3903C220.89 34.7677 220.89 37.621 219.525 39.5887L208.608 53.9532L219.428 68.7113ZM168.643 66.9403C161.332 66.9403 155.483 61.3323 155.483 53.9532C155.483 46.8694 161.332 40.9661 168.643 40.9661C175.953 40.9661 181.802 46.8694 181.802 53.9532C181.412 61.3323 175.564 66.9403 168.643 66.9403ZM130.042 66.9403C122.732 66.9403 116.883 61.3323 116.883 53.9532C116.883 46.8694 122.732 40.9661 130.042 40.9661C137.353 40.9661 143.201 46.8694 143.201 53.9532C143.201 61.3323 137.255 66.9403 130.042 66.9403ZM168.643 32.6032C160.552 32.6032 153.242 37.129 149.635 43.9177C145.931 37.0306 138.718 32.6032 130.335 32.6032C125.266 32.6032 120.782 34.2758 117.175 36.8339V18.7306C117.175 16.4677 115.226 14.5 112.984 14.5C110.45 14.5 108.5 16.4677 108.5 18.7306V54.2484C108.792 66.0548 118.248 75.4016 130.042 75.4016C138.425 75.4016 145.736 70.5806 149.342 63.7919C152.949 70.5806 160.26 75.4016 168.35 75.4016C180.34 75.4016 190.185 65.7597 190.185 53.6581C190.38 42.1468 180.632 32.6032 168.643 32.6032Z" fill="#0061D5"/>
</g>
<defs>
<clipPath id="clip0_71_771">
<rect width="112" height="61" fill="white" transform="translate(108.5 14.5)"/>
</clipPath>
</defs>
</svg>
