<svg width="329" height="90" viewBox="0 0 329 90" fill="none" xmlns="http://www.w3.org/2000/svg">
<rect x="1.5" y="1" width="326" height="88" rx="23" fill="white"/>
<rect x="1.5" y="1" width="326" height="88" rx="23" stroke="#BDBDBD" stroke-width="2"/>
<g clip-path="url(#clip0_71_768)">
<path d="M56 61.2435V28.7519C55.9994 27.7855 56.2551 26.836 56.7415 25.9991C57.228 25.1622 57.9278 24.4676 58.7706 23.9852L87.0828 7.73636C87.9227 7.25398 88.8757 7 89.8457 7C90.8158 7 91.7688 7.25398 92.6086 7.73636L120.988 23.9852C121.818 24.4766 122.504 25.175 122.978 26.0112C123.452 26.8473 123.698 27.7922 123.691 28.7519V61.2435C123.698 62.2033 123.452 63.1481 122.978 63.9842C122.504 64.8204 121.818 65.5188 120.988 66.0103L92.6086 82.2651C91.7685 82.7468 90.8157 83.0004 89.8457 83.0004C88.8758 83.0004 87.9229 82.7468 87.0828 82.2651L58.7706 66.083C57.917 65.5945 57.2102 64.8884 56.7231 64.0376C56.236 63.1868 55.9864 62.2222 56 61.2435Z" fill="#1563FF"/>
<path d="M116.136 27.4216L92.9746 14.1214C91.985 13.5517 90.7179 13.8865 90.1446 14.8699C89.9594 15.1869 89.863 15.5473 89.8655 15.9138V28.6671L101.948 35.5824C102.613 35.9629 103.165 36.5109 103.55 37.1711C103.934 37.8313 104.136 38.5805 104.136 39.3431V53.16L115.258 59.539C116.249 60.1026 117.511 59.7617 118.08 58.7768C118.259 58.4662 118.353 58.1162 118.353 57.7586V31.1687C118.349 30.4052 118.142 29.6563 117.753 28.9981C117.364 28.34 116.806 27.796 116.136 27.4216Z" fill="#DCE8FF"/>
<path d="M75.6362 50.6539V36.8354L64.5145 30.4565C63.5249 29.8868 62.2578 30.2217 61.6844 31.205C61.5002 31.5202 61.4039 31.8785 61.4054 32.2429V58.8192C61.4054 60.3723 62.241 61.8056 63.595 62.5799L86.758 75.8741C87.7446 76.4453 89.0101 76.1135 89.585 75.1317C89.7614 74.8308 89.8579 74.4903 89.8656 74.1423V61.3844L77.8197 54.4691C77.1462 54.0848 76.5884 53.5283 76.2045 52.8574C75.8205 52.1865 75.6243 51.4256 75.6362 50.6539Z" fill="#508AFF"/>
<path d="M89.8656 42.4886V28.6671L78.7438 22.2882C77.7588 21.717 76.4932 22.0473 75.9183 23.0261C75.7323 23.3443 75.6347 23.7064 75.6362 24.0746V36.8309L87.6821 43.7462C88.3481 44.1257 88.9013 44.6734 89.2855 45.3339C89.6698 45.9943 89.8715 46.744 89.8701 47.5069V61.3253L100.981 67.7088C101.968 68.28 103.233 67.9497 103.808 66.9694C103.994 66.6512 104.092 66.2906 104.09 65.9224V53.1646L92.0414 46.2432C91.3777 45.8637 90.8268 45.3165 90.4447 44.6571C90.0626 43.9977 89.8628 43.2495 89.8656 42.4886Z" fill="#96B9FF"/>
<path d="M101.948 35.5869L89.9021 28.6716V42.4886C89.8992 43.2501 90.0995 43.9987 90.4825 44.6583C90.8655 45.3178 91.4176 45.8647 92.0826 46.2432L104.136 53.1585V39.3476C104.136 38.585 103.934 37.8358 103.55 37.1756C103.165 36.5154 102.613 35.9674 101.948 35.5869Z" fill="#EFF5FF"/>
<path d="M87.6774 43.7507L75.6316 36.8354V50.6539C75.6288 51.4154 75.8286 52.1642 76.2107 52.8244C76.5928 53.4845 77.1436 54.0326 77.8075 54.4131L89.8533 61.3299V47.5114C89.8594 45.9614 89.0284 44.5265 87.6774 43.7507Z" fill="#B0CAFF"/>
<path d="M156.304 27.758C158.498 27.758 160.216 28.9929 160.594 31.1384H163.889C163.334 27.1549 160.251 24.8428 156.25 24.8428C151.537 24.8428 147.986 28.258 147.986 34.0536C147.986 39.8491 151.493 43.2644 156.25 43.2644C160.541 43.2644 163.388 40.5067 163.889 37.0824L160.6 37.0718C160.187 39.1734 158.466 40.3552 156.3 40.3552C153.376 40.3552 151.278 38.1749 151.278 34.0596C151.272 30.0141 153.352 27.758 156.304 27.758ZM174.238 43.2704C178.965 43.2704 182.53 39.8567 182.53 34.0596C182.53 28.2625 178.97 24.8488 174.238 24.8488C169.507 24.8488 165.946 28.2641 165.946 34.0596C165.946 39.8552 169.498 43.2704 174.238 43.2704ZM174.238 27.764C177.181 27.764 179.242 29.9792 179.242 34.0596C179.242 38.14 177.181 40.3552 174.238 40.3552C171.295 40.3552 169.234 38.14 169.234 34.0596C169.234 29.9792 171.304 27.758 174.238 27.758V27.764ZM188.411 30.8111H188.56L197.063 43.025H199.97V25.0943H196.72V37.3173H196.561L188.066 25.0943H185.142V43.025H188.411V30.8111ZM216.636 25.0943H202.239V27.8171H207.817V43.025H211.059V27.8171H216.636V25.0943ZM232.043 30.8293C232.043 27.4049 229.823 25.0943 225.681 25.0943H218.914V43.025H222.183V36.4582H225.514L229.063 43.025H232.711L228.807 35.9157C230.924 35.0672 232.043 33.2626 232.043 30.8293ZM225.196 33.7626H222.183V27.808H225.178C227.618 27.808 228.711 28.9201 228.711 30.8293C228.711 32.7384 227.619 33.7626 225.196 33.7626ZM242.399 24.8488C237.659 24.8488 234.109 28.2641 234.109 34.0596C234.109 39.8552 237.659 43.2704 242.399 43.2704C247.14 43.2704 250.691 39.8567 250.691 34.0596C250.691 28.2625 247.131 24.8488 242.399 24.8488ZM242.399 40.3552C239.465 40.3552 237.395 38.14 237.395 34.0596C237.395 29.9792 239.465 27.758 242.399 27.758C245.333 27.758 247.403 29.9732 247.403 34.0536C247.403 38.1339 245.342 40.3552 242.399 40.3552ZM256.409 40.3022V25.0943H253.14V43.025H264.356V40.3022H256.409ZM155.21 46.975H148.443V64.9072H151.712V58.8465H155.168C159.335 58.8465 161.572 56.3601 161.572 52.91C161.573 49.4887 159.361 46.975 155.21 46.975ZM154.727 56.1767H151.712V49.6902H154.709C157.159 49.6902 158.242 51.0024 158.242 52.9115C158.242 54.8206 157.159 56.1767 154.727 56.1767ZM167.189 46.975H163.92V64.9072H175.136V62.1829H167.189V46.975ZM183.335 46.975L176.983 64.9072H180.471L181.96 60.4859H188.745L190.242 64.9087H193.732L187.371 46.975H183.335ZM182.841 57.8752L185.281 50.6524H185.421L187.861 57.8752H182.841ZM207.199 59.198H207.041L198.548 46.975H195.622V64.9072H198.891V52.6933H199.04L207.542 64.9072H210.45V46.975H207.199V59.198ZM216.781 57.2889H224.641V54.5661H216.781V49.6978H225.248V46.975H213.512V64.9072H225.318V62.1829H216.781V57.2889Z" fill="#242442"/>
</g>
<defs>
<clipPath id="clip0_71_768">
<rect width="217" height="76" fill="white" transform="translate(56 7)"/>
</clipPath>
</defs>
</svg>
