<svg width="328" height="104" viewBox="0 0 328 104" fill="none" xmlns="http://www.w3.org/2000/svg">
<g filter="url(#filter0_d_7_27)">
<rect x="4" width="320" height="96" rx="25" fill="white"/>
</g>
<g clip-path="url(#clip0_7_27)">
<path d="M55 64.2435V31.7519C54.9994 30.7855 55.2551 29.836 55.7415 28.9991C56.228 28.1622 56.9278 27.4676 57.7706 26.9852L86.0828 10.7364C86.9227 10.254 87.8757 10 88.8457 10C89.8158 10 90.7688 10.254 91.6086 10.7364L119.988 26.9852C120.818 27.4766 121.504 28.175 121.978 29.0112C122.452 29.8474 122.698 30.7922 122.691 31.7519V64.2435C122.698 65.2033 122.452 66.1481 121.978 66.9843C121.504 67.8204 120.818 68.5188 119.988 69.0103L91.6086 85.2651C90.7685 85.7468 89.8157 86.0004 88.8457 86.0004C87.8758 86.0004 86.9229 85.7468 86.0828 85.2651L57.7706 69.083C56.917 68.5945 56.2102 67.8884 55.7231 67.0376C55.236 66.1868 54.9864 65.2222 55 64.2435Z" fill="#1563FF"/>
<path d="M115.136 30.4216L91.9746 17.1214C90.985 16.5516 89.7179 16.8865 89.1446 17.8699C88.9594 18.1868 88.863 18.5473 88.8655 18.9138V31.6671L100.948 38.5824C101.613 38.9629 102.165 39.5109 102.55 40.1711C102.934 40.8313 103.136 41.5804 103.136 42.3431V56.16L114.258 62.5389C115.249 63.1026 116.511 62.7617 117.08 61.7768C117.259 61.4662 117.353 61.1162 117.353 60.7586V34.1687C117.349 33.4052 117.142 32.6563 116.753 31.9981C116.364 31.3399 115.806 30.796 115.136 30.4216Z" fill="#DCE8FF"/>
<path d="M74.6362 53.6539V39.8354L63.5145 33.4565C62.5249 32.8868 61.2578 33.2217 60.6844 34.205C60.5002 34.5202 60.4039 34.8785 60.4054 35.2429V61.8192C60.4054 63.3723 61.241 64.8056 62.595 65.5799L85.758 78.8741C86.7446 79.4453 88.0101 79.1135 88.585 78.1317C88.7614 77.8308 88.8579 77.4903 88.8656 77.1422V64.3844L76.8197 57.4691C76.1462 57.0848 75.5884 56.5283 75.2045 55.8574C74.8205 55.1865 74.6243 54.4256 74.6362 53.6539Z" fill="#508AFF"/>
<path d="M88.8656 45.4886V31.6671L77.7438 25.2882C76.7588 24.717 75.4932 25.0473 74.9183 26.0261C74.7323 26.3443 74.6347 26.7064 74.6362 27.0746V39.8309L86.6821 46.7462C87.3481 47.1257 87.9013 47.6734 88.2855 48.3339C88.6698 48.9943 88.8715 49.744 88.8701 50.5069V64.3253L99.9812 70.7088C100.968 71.28 102.233 70.9497 102.808 69.9694C102.994 69.6512 103.092 69.2906 103.09 68.9224V56.1646L91.0414 49.2432C90.3777 48.8637 89.8268 48.3165 89.4447 47.657C89.0626 46.9976 88.8628 46.2495 88.8656 45.4886Z" fill="#96B9FF"/>
<path d="M100.948 38.5869L88.9021 31.6716V45.4886C88.8992 46.2501 89.0995 46.9987 89.4825 47.6583C89.8655 48.3178 90.4176 48.8647 91.0826 49.2432L103.136 56.1585V42.3476C103.136 41.585 102.934 40.8358 102.55 40.1756C102.165 39.5154 101.613 38.9674 100.948 38.5869Z" fill="#EFF5FF"/>
<path d="M86.6774 46.7507L74.6316 39.8354V53.6539C74.6288 54.4154 74.8286 55.1642 75.2107 55.8243C75.5928 56.4845 76.1436 57.0326 76.8075 57.4131L88.8533 64.3299V50.5114C88.8594 48.9614 88.0284 47.5265 86.6774 46.7507Z" fill="#B0CAFF"/>
<path d="M155.304 30.758C157.498 30.758 159.216 31.9929 159.594 34.1384H162.889C162.334 30.1549 159.251 27.8428 155.25 27.8428C150.537 27.8428 146.986 31.258 146.986 37.0536C146.986 42.8491 150.493 46.2644 155.25 46.2644C159.541 46.2644 162.388 43.5067 162.889 40.0824L159.6 40.0718C159.187 42.1734 157.466 43.3552 155.3 43.3552C152.376 43.3552 150.278 41.1749 150.278 37.0596C150.272 33.0141 152.352 30.758 155.304 30.758ZM173.238 46.2704C177.965 46.2704 181.53 42.8567 181.53 37.0596C181.53 31.2625 177.97 27.8488 173.238 27.8488C168.507 27.8488 164.946 31.2641 164.946 37.0596C164.946 42.8552 168.498 46.2704 173.238 46.2704ZM173.238 30.764C176.181 30.764 178.242 32.9792 178.242 37.0596C178.242 41.14 176.181 43.3552 173.238 43.3552C170.295 43.3552 168.234 41.14 168.234 37.0596C168.234 32.9792 170.304 30.758 173.238 30.758V30.764ZM187.411 33.8111H187.56L196.063 46.025H198.97V28.0943H195.72V40.3173H195.561L187.066 28.0943H184.142V46.025H187.411V33.8111ZM215.636 28.0943H201.239V30.8171H206.817V46.025H210.059V30.8171H215.636V28.0943ZM231.043 33.8293C231.043 30.4049 228.823 28.0943 224.681 28.0943H217.914V46.025H221.183V39.4582H224.514L228.063 46.025H231.711L227.807 38.9157C229.924 38.0672 231.043 36.2626 231.043 33.8293ZM224.196 36.7626H221.183V30.808H224.178C226.618 30.808 227.711 31.9201 227.711 33.8293C227.711 35.7384 226.619 36.7626 224.196 36.7626ZM241.399 27.8488C236.659 27.8488 233.109 31.2641 233.109 37.0596C233.109 42.8552 236.659 46.2704 241.399 46.2704C246.14 46.2704 249.691 42.8567 249.691 37.0596C249.691 31.2625 246.131 27.8488 241.399 27.8488ZM241.399 43.3552C238.465 43.3552 236.395 41.14 236.395 37.0596C236.395 32.9792 238.465 30.758 241.399 30.758C244.333 30.758 246.403 32.9732 246.403 37.0536C246.403 41.1339 244.342 43.3552 241.399 43.3552ZM255.409 43.3022V28.0943H252.14V46.025H263.356V43.3022H255.409ZM154.21 49.975H147.443V67.9072H150.712V61.8465H154.168C158.335 61.8465 160.572 59.3601 160.572 55.91C160.573 52.4887 158.361 49.975 154.21 49.975ZM153.727 59.1767H150.712V52.6902H153.709C156.159 52.6902 157.242 54.0024 157.242 55.9115C157.242 57.8206 156.159 59.1767 153.727 59.1767ZM166.189 49.975H162.92V67.9072H174.136V65.1829H166.189V49.975ZM182.335 49.975L175.983 67.9072H179.471L180.96 63.4859H187.745L189.242 67.9087H192.732L186.371 49.975H182.335ZM181.841 60.8752L184.281 53.6524H184.421L186.861 60.8752H181.841ZM206.199 62.198H206.041L197.548 49.975H194.622V67.9072H197.891V55.6933H198.04L206.542 67.9072H209.45V49.975H206.199V62.198ZM215.781 60.2889H223.641V57.5661H215.781V52.6978H224.248V49.975H212.512V67.9072H224.318V65.1829H215.781V60.2889Z" fill="#242442"/>
</g>
<defs>
<filter id="filter0_d_7_27" x="0" y="0" width="328" height="104" filterUnits="userSpaceOnUse" color-interpolation-filters="sRGB">
<feFlood flood-opacity="0" result="BackgroundImageFix"/>
<feColorMatrix in="SourceAlpha" type="matrix" values="0 0 0 0 0 0 0 0 0 0 0 0 0 0 0 0 0 0 127 0" result="hardAlpha"/>
<feOffset dy="4"/>
<feGaussianBlur stdDeviation="2"/>
<feComposite in2="hardAlpha" operator="out"/>
<feColorMatrix type="matrix" values="0 0 0 0 0 0 0 0 0 0 0 0 0 0 0 0 0 0 0.25 0"/>
<feBlend mode="normal" in2="BackgroundImageFix" result="effect1_dropShadow_7_27"/>
<feBlend mode="normal" in="SourceGraphic" in2="effect1_dropShadow_7_27" result="shape"/>
</filter>
<clipPath id="clip0_7_27">
<rect width="217" height="76" fill="white" transform="translate(55 10)"/>
</clipPath>
</defs>
</svg>
