<svg width="329" height="90" viewBox="0 0 329 90" fill="none" xmlns="http://www.w3.org/2000/svg">
<rect x="1.5" y="1" width="326" height="88" rx="23" fill="white"/>
<rect x="1.5" y="1" width="326" height="88" rx="23" stroke="#BDBDBD" stroke-width="2"/>
<g clip-path="url(#clip0_71_824)">
<path d="M286.224 55.5469C285.15 56.7461 283.948 57.7979 282.546 58.6212C279.985 60.1252 277.188 60.4556 274.3 60.293C270.729 60.0897 267.53 58.9158 264.907 56.4361C262.406 54.0681 261.021 51.1158 260.613 47.7214C260.154 43.9357 260.786 40.3635 262.91 37.1316C265.177 33.6915 268.447 31.791 272.461 31.0847C275.879 30.485 279.144 30.9424 282.241 32.5278C283.764 33.3104 285.297 34.6264 285.97 35.7647C284.926 36.5117 283.876 37.2586 282.786 38.0412C281.935 36.8013 280.855 35.8968 279.562 35.2515C275.268 33.1122 269.562 34.7027 266.807 38.7983C263.99 42.9855 264.158 49.7845 267.877 53.6667C269.562 55.4249 271.631 56.431 274.04 56.6953C276.892 57.0052 279.567 56.5631 281.793 54.5662C282.261 54.1444 282.74 53.7379 283.301 53.2399C284.182 53.9005 285.201 54.6627 286.219 55.4198C286.224 55.4655 286.224 55.5062 286.224 55.5469Z" fill="black"/>
<path d="M253.549 42.462C252.999 39.4487 251.679 36.7962 249.428 34.6925C246.046 31.5318 241.96 30.3935 237.427 30.9932C234.223 31.42 231.452 32.8174 229.394 35.4039C229.15 35.7138 228.921 36.039 228.681 36.3541C228.635 36.3439 228.594 36.3338 228.548 36.3236C228.548 34.7433 228.548 33.1629 228.548 31.6029C227.122 31.6029 225.788 31.6029 224.397 31.6029C224.397 45.7446 224.397 59.8355 224.397 73.9315C225.783 73.9315 227.168 73.9315 228.554 73.9315C228.554 67.6205 228.554 61.3041 228.554 54.9065C229.318 55.7247 229.919 56.5021 230.652 57.1271C233.352 59.4443 236.52 60.4758 240.066 60.3081C244.935 60.0795 248.863 58.0723 251.512 53.9207C253.753 50.3993 254.288 46.5221 253.549 42.462ZM247.635 52.1981C245.648 55.3944 242.618 56.7257 240.396 56.7612C233.21 56.7612 228.737 52.7113 228.177 47.0455C227.81 43.3614 228.686 40.0585 231.35 37.3958C234.32 34.4231 237.972 33.6965 241.94 34.7483C245.847 35.7849 248.114 38.5289 249.046 42.3553C249.881 45.8006 249.535 49.1441 247.635 52.1981Z" fill="black"/>
<path d="M215.733 45.9375C215.636 44.5655 215.682 43.1732 215.468 41.8216C214.969 38.6151 213.583 35.8407 211.031 33.742C208.892 31.9787 206.396 31.0996 203.645 30.8964C199.051 30.5559 195.073 31.9025 191.915 35.2918C189.016 38.4017 187.89 42.1722 188.074 46.3593C188.252 50.4346 189.734 53.9764 192.806 56.6899C197.074 60.4654 202.077 61.1057 207.43 59.5914C210.456 58.7377 212.773 56.8474 214.724 54.3626C213.68 53.5445 212.662 52.7568 211.647 51.9591C207.69 57.4674 201.837 57.4471 198.399 55.8871C193.865 53.8341 192.307 49.3421 192.469 46.6743C192.704 46.6743 192.943 46.6743 193.183 46.6743C200.452 46.6743 207.715 46.6693 214.984 46.6896C215.58 46.6947 215.774 46.5117 215.733 45.9375ZM192.363 43.3256C192.612 42.3805 192.755 41.476 193.086 40.6477C195.225 35.3223 200.9 32.9341 206.335 35.0937C209.274 36.2624 210.685 38.732 211.311 41.7098C211.367 41.9689 211.403 42.2281 211.429 42.4923C211.459 42.7514 211.464 43.0157 211.485 43.3307C205.153 43.3256 198.847 43.3256 192.363 43.3256Z" fill="black"/>
<path d="M140.787 14.4062C140.787 21.7185 140.787 28.9901 140.787 36.2616C139.81 35.0675 138.806 33.9801 137.558 33.1518C134.741 31.2716 131.639 30.5602 128.267 30.9362C123.739 31.4393 120.163 33.5024 117.743 37.3745C115.64 40.7384 115.105 44.4428 115.716 48.3149C116.307 52.0243 118.013 55.1342 121.034 57.4463C124.034 59.7431 127.488 60.5968 131.201 60.2716C134.925 59.9413 138.083 58.4219 140.375 55.3578C140.461 55.2409 140.574 55.1393 140.803 54.8852C140.803 56.5672 140.803 58.0662 140.803 59.5602C142.208 59.5602 143.523 59.5602 144.837 59.5602C144.837 44.4784 144.837 29.4474 144.837 14.4113C143.467 14.4063 142.157 14.4062 140.787 14.4062ZM134.542 56.0031C129.082 58.1526 121.339 56.181 120.05 47.6391C119.669 45.1187 119.934 42.6643 120.957 40.3166C122.689 36.348 126.51 34.102 131.089 34.3459C136.157 34.6152 140.294 38.3552 141.047 43.3757C141.154 44.0973 141.195 44.8239 141.266 45.5506C141.21 50.3983 138.73 54.3567 134.542 56.0031Z" fill="black"/>
<path d="M181.395 45.8401C181.38 44.7679 181.385 43.6856 181.263 42.6236C180.886 39.3867 179.704 36.4903 177.269 34.2392C172.898 30.1943 165.553 29.6404 160.357 32.9891C156.023 35.7788 153.975 39.8745 153.736 44.9407C153.379 52.4969 158.392 59.4127 166.511 60.2258C171.472 60.7237 175.812 59.3721 179.281 55.6677C179.663 55.2612 180.015 54.8292 180.407 54.377C179.332 53.5386 178.328 52.7509 177.299 51.948C175.787 54.0721 173.907 55.6575 171.422 56.3588C168.94 57.0651 166.47 56.9736 164.086 55.8964C159.716 53.9299 158.04 49.7122 158.116 46.6786C158.407 46.6786 158.646 46.6786 158.89 46.6786C166.119 46.6786 173.347 46.6786 180.57 46.6786C181.385 46.6786 181.41 46.6735 181.395 45.8401ZM158.127 43.3451C158.208 42.8167 158.249 42.3238 158.366 41.8461C159.532 37.1559 163.76 34.0765 168.645 34.351C173.392 34.6152 176.709 37.8267 177.106 42.5575C177.127 42.7963 177.147 43.0352 177.172 43.3451C170.81 43.3451 164.53 43.3451 158.127 43.3451Z" fill="black"/>
<path d="M102.081 40.5703C100.495 40.5654 99.2248 39.3029 99.2347 37.7309C99.2396 36.1638 100.53 34.8865 102.096 34.8964C103.677 34.9013 104.947 36.1785 104.932 37.7505C104.922 39.3372 103.677 40.5703 102.081 40.5703Z" fill="black"/>
<path d="M91.1883 65.1525C91.1784 66.6996 89.9178 67.9376 88.3567 67.9425C86.7612 67.9475 85.4809 66.6505 85.5006 65.0443C85.5203 63.5116 86.8056 62.2538 88.3469 62.2538C89.9572 62.2538 91.203 63.5265 91.1883 65.1525Z" fill="black"/>
<path d="M102.081 47.4127C100.495 47.4029 99.2347 46.1453 99.2347 44.5684C99.2347 43.0062 100.53 41.729 102.101 41.7339C103.671 41.7388 104.952 43.0209 104.937 44.5929C104.927 46.1748 103.671 47.4176 102.081 47.4127Z" fill="black"/>
<path d="M81.4915 14.3915C83.087 14.3964 84.3378 15.6392 84.3329 17.226C84.328 18.793 83.0328 20.0801 81.4767 20.0752C79.9157 20.0703 78.6304 18.7783 78.6354 17.2112C78.6403 15.6245 79.8911 14.3866 81.4915 14.3915Z" fill="black"/>
<path d="M98.0622 58.3094C98.0375 59.8568 96.762 61.1144 95.2258 61.1095C93.64 61.1046 92.3107 59.7586 92.3547 58.2062C92.3992 56.6441 93.7286 55.3668 95.2698 55.411C96.8655 55.4552 98.0919 56.7276 98.0622 58.3094Z" fill="black"/>
<path d="M91.1874 24.054C91.1874 25.6408 89.9317 26.9033 88.3509 26.9033C86.7801 26.9033 85.4997 25.626 85.4997 24.054C85.4948 22.487 86.7702 21.2195 88.3509 21.2195C89.9563 21.2195 91.1874 22.4526 91.1874 24.054Z" fill="black"/>
<path d="M102.061 54.2412C100.47 54.2314 99.2094 52.9591 99.2342 51.3871C99.2589 49.82 100.559 48.5428 102.115 48.5575C103.681 48.5722 104.956 49.8789 104.937 51.4411C104.912 53.0377 103.666 54.2511 102.061 54.2412Z" fill="black"/>
<path d="M98.0617 30.888C98.0666 32.4748 96.811 33.7373 95.2302 33.7373C93.6548 33.7373 92.3646 32.4699 92.3547 30.9077C92.3448 29.3603 93.64 28.0683 95.2109 28.0634C96.8061 28.0585 98.0572 29.3013 98.0617 30.888Z" fill="black"/>
<path d="M81.4869 69.111C83.0775 69.111 84.3381 70.3639 84.3332 71.9408C84.3332 73.5028 83.0381 74.7948 81.482 74.7948C79.921 74.7948 78.6308 73.4978 78.6308 71.9408C78.6406 70.354 79.8963 69.1061 81.4869 69.111Z" fill="black"/>
<path d="M71.7907 71.9164C71.7956 70.3302 73.0415 69.1066 74.6469 69.1165C76.2325 69.1264 77.4784 70.3837 77.4685 71.9611C77.4538 73.5231 76.1537 74.8052 74.6025 74.7854C73.0267 74.771 71.7858 73.4983 71.7907 71.9164Z" fill="black"/>
<path d="M71.7908 17.1771C71.8006 15.5953 73.0514 14.3868 74.6617 14.4015C76.2473 14.4114 77.4833 15.6739 77.4636 17.2606C77.4439 18.8129 76.1193 20.1049 74.578 20.0705C73.012 20.0361 71.7809 18.7589 71.7908 17.1771Z" fill="black"/>
<path d="M64.9254 17.2309C64.9156 15.6393 66.1565 14.4062 67.757 14.4062C69.3377 14.4062 70.6131 15.6737 70.6032 17.2358C70.5934 18.7735 69.2687 20.0752 67.7225 20.0605C66.186 20.0458 64.9304 18.7784 64.9254 17.2309Z" fill="black"/>
<path d="M67.7472 69.122C69.3181 69.117 70.6083 70.3942 70.6033 71.9467C70.5984 73.4839 69.2787 74.7859 67.7324 74.7809C66.2059 74.771 64.9403 73.5038 64.9255 71.9611C64.9107 70.3699 66.1468 69.1269 67.7472 69.122Z" fill="black"/>
<path d="M63.6952 24.0742C63.6854 25.6461 62.4444 26.8841 60.8834 26.8792C59.2879 26.8694 58.0716 25.6265 58.0814 24.0103C58.0913 22.4432 59.3322 21.2348 60.9179 21.2495C62.4887 21.2642 63.705 22.4972 63.6952 24.0742Z" fill="black"/>
<path d="M51.2215 30.8137C51.2609 29.2564 52.5314 28.0529 54.1023 28.0922C55.6584 28.1315 56.86 29.4087 56.8206 30.9758C56.7812 32.533 55.4959 33.7514 53.9398 33.6973C52.364 33.6433 51.1821 32.3906 51.2215 30.8137Z" fill="black"/>
<path d="M60.908 62.293C62.4887 62.3029 63.7001 63.531 63.6952 65.1078C63.6853 66.7194 62.4493 67.9227 60.8341 67.8984C59.2484 67.8735 58.0764 66.6653 58.0814 65.0587C58.0912 63.4918 59.3272 62.2786 60.908 62.293Z" fill="black"/>
<path d="M53.9936 55.4745C55.5792 55.4597 56.8054 56.6535 56.8202 58.2304C56.8399 59.7926 55.6236 61.0305 54.0478 61.0501C52.4769 61.0698 51.2409 59.8564 51.2212 58.2844C51.2015 56.7075 52.408 55.4843 53.9936 55.4745Z" fill="black"/>
<path d="M49.9313 37.7552C49.9263 39.2879 48.7051 40.516 47.1638 40.5259C45.6027 40.5357 44.3864 39.3075 44.3864 37.7159C44.3864 36.1636 45.5929 34.9502 47.1391 34.9355C48.6657 34.9207 49.9313 36.2029 49.9313 37.7552Z" fill="black"/>
<path d="M49.9312 44.6136C49.9213 46.1463 48.6951 47.3597 47.1489 47.3597C45.5682 47.3547 44.3863 46.1463 44.3962 44.5448C44.406 42.9925 45.6224 41.7791 47.1637 41.7889C48.7148 41.7938 49.9361 43.0416 49.9312 44.6136Z" fill="black"/>
<path d="M49.9313 51.4411C49.9263 52.9934 48.7199 54.1871 47.1589 54.1871C45.5584 54.1871 44.3815 52.9983 44.3864 51.3919C44.3914 49.8396 45.6126 48.6164 47.1441 48.6262C48.715 48.636 49.9362 49.8691 49.9313 51.4411Z" fill="black"/>
<path d="M78.8472 65.0785C78.862 63.6292 80.039 62.4552 81.4769 62.4453C82.9394 62.4403 84.1311 63.6441 84.1212 65.1177C84.1114 66.5964 82.9148 67.7609 81.4325 67.7361C79.9848 67.7118 78.8374 66.5324 78.8472 65.0785Z" fill="black"/>
<path d="M92.5764 51.4366C92.5665 49.9924 93.7286 48.7986 95.1713 48.7741C96.6388 48.7495 97.8553 49.9236 97.8746 51.3924C97.8944 52.8367 96.6734 54.055 95.2109 54.055C93.7677 54.055 92.5858 52.8809 92.5764 51.4366Z" fill="black"/>
<path d="M95.2312 41.9505C96.6888 41.9554 97.8657 43.1147 97.8756 44.559C97.885 46.0082 96.664 47.2314 95.2114 47.2216C93.7439 47.2166 92.5571 46.0082 92.5769 44.5393C92.5918 43.0951 93.7687 41.9455 95.2312 41.9505Z" fill="black"/>
<path d="M90.9759 58.2939C90.9611 59.7579 89.7989 60.9123 88.3463 60.9074C86.8788 60.9025 85.7166 59.7137 85.7264 58.2203C85.7314 56.776 86.9132 55.6068 88.3659 55.6166C89.8433 55.6216 90.9907 56.7956 90.9759 58.2939Z" fill="black"/>
<path d="M95.2258 40.3591C93.7286 40.3591 92.5665 39.1948 92.5764 37.7112C92.5858 36.262 93.7583 35.1076 95.2159 35.1076C96.6883 35.1076 97.8895 36.3062 97.8746 37.7653C97.8603 39.2095 96.6883 40.3591 95.2258 40.3591Z" fill="black"/>
<path d="M84.1266 24.035C84.1364 25.4989 82.994 26.6681 81.5413 26.6828C80.0393 26.7024 78.8624 25.5627 78.8526 24.0792C78.8378 22.6054 80.0344 21.4068 81.497 21.4117C82.9447 21.4215 84.1167 22.5907 84.1266 24.035Z" fill="black"/>
<path d="M90.9756 30.9222C90.9658 32.3959 89.8381 33.5209 88.3559 33.5209C86.8539 33.5209 85.7164 32.3763 85.7213 30.8731C85.7263 29.3846 86.8933 28.2596 88.4051 28.2793C89.8775 28.294 90.9855 29.4337 90.9756 30.9222Z" fill="black"/>
<path d="M77.2418 65.0736C77.2467 66.5572 76.0845 67.7311 74.6121 67.7311C73.1545 67.7311 72.0071 66.5869 72.0022 65.1227C71.9923 63.6247 73.1496 62.4503 74.6269 62.4552C76.0697 62.4602 77.2368 63.6292 77.2418 65.0736Z" fill="black"/>
<path d="M70.387 65.0736C70.3968 66.513 69.2347 67.7014 67.7918 67.7212C66.3195 67.7411 65.113 66.5572 65.1179 65.093C65.1228 63.6535 66.2998 62.4746 67.7426 62.4602C69.1706 62.4503 70.3722 63.6391 70.387 65.0736Z" fill="black"/>
<path d="M77.242 24.0545C77.242 25.5479 76.0897 26.6925 74.5927 26.6827C73.1253 26.6729 72.0025 25.5381 71.9976 24.0644C71.9976 22.5759 73.1695 21.4018 74.642 21.4263C76.1045 21.446 77.247 22.5955 77.242 24.0545Z" fill="black"/>
<path d="M67.7426 26.6725C66.2899 26.6725 65.113 25.5033 65.1179 24.0639C65.1179 22.6246 66.285 21.4505 67.7327 21.4358C69.1953 21.4211 70.3968 22.6197 70.387 24.0836C70.3722 25.523 69.2002 26.6725 67.7426 26.6725Z" fill="black"/>
<path d="M58.2879 58.2553C58.283 56.7963 59.4353 55.6418 60.8929 55.6369C62.3308 55.6369 63.5078 56.811 63.5127 58.2553C63.5127 59.6946 62.3308 60.8737 60.8929 60.8786C59.4304 60.8835 58.2879 59.729 58.2879 58.2553Z" fill="black"/>
<path d="M60.8929 28.3035C62.3653 28.3084 63.5127 29.453 63.5078 30.9169C63.4979 32.3661 62.321 33.5107 60.8535 33.5009C59.4058 33.4911 58.2929 32.3612 58.2879 30.9071C58.283 29.4187 59.4058 28.2986 60.8929 28.3035Z" fill="black"/>
<path d="M54.0134 53.9957C52.5312 53.9908 51.374 52.8315 51.4035 51.3823C51.4331 49.9674 52.61 48.8081 54.0233 48.8081C55.4513 48.8081 56.6677 50.0411 56.6381 51.451C56.6086 52.8953 55.4661 53.9957 54.0134 53.9957Z" fill="black"/>
<path d="M54.0132 40.3197C52.5458 40.3197 51.3787 39.1457 51.4033 37.7014C51.4279 36.2817 52.595 35.142 54.0231 35.142C55.4709 35.142 56.6626 36.3406 56.638 37.7702C56.6133 39.1948 55.4561 40.3197 54.0132 40.3197Z" fill="black"/>
<path d="M54.0433 47.1623C52.5807 47.1721 51.394 46.0029 51.4038 44.5685C51.4137 43.1438 52.5709 41.9894 53.999 41.9796C55.4418 41.9698 56.6434 43.1487 56.6384 44.5832C56.6335 46.0029 55.4763 47.1524 54.0433 47.1623Z" fill="black"/>
<path d="M88.3707 35.2943C89.7101 35.309 90.8082 36.4193 90.8033 37.7505C90.7984 39.0818 89.6805 40.1773 88.3411 40.1724C86.9672 40.1675 85.9085 39.0622 85.9331 37.6621C85.9577 36.3407 87.0509 35.2796 88.3707 35.2943Z" fill="black"/>
<path d="M85.9333 51.4073C85.9382 50.0367 86.992 48.9854 88.361 48.9903C89.7103 48.9952 90.8084 50.0907 90.8035 51.4269C90.7986 52.7533 89.6807 53.8537 88.3413 53.8488C86.992 53.8488 85.9333 52.7729 85.9333 51.4073Z" fill="black"/>
<path d="M81.4819 33.3292C80.1475 33.3292 79.0247 32.2092 79.0395 30.8878C79.0542 29.5466 80.1573 28.4561 81.4967 28.461C82.8362 28.4659 83.949 29.5761 83.9392 30.9025C83.9244 32.2387 82.8214 33.3292 81.4819 33.3292Z" fill="black"/>
<path d="M81.4867 55.838C82.8459 55.838 83.944 56.9237 83.9342 58.2599C83.9292 59.5961 82.8213 60.6916 81.4867 60.6916C80.1473 60.6916 79.0344 59.5814 79.0393 58.2599C79.0443 56.9139 80.1325 55.838 81.4867 55.838Z" fill="black"/>
<path d="M85.9334 44.5978C85.9235 43.2175 86.9577 42.1711 88.3365 42.1612C89.6956 42.1563 90.7888 43.2224 90.8036 44.5585C90.8135 45.8751 89.6858 47.0197 88.3759 47.0197C87.0217 47.0246 85.9432 45.9537 85.9334 44.5978Z" fill="black"/>
<path d="M77.0304 58.255C77.0304 59.6256 75.9864 60.6817 74.6223 60.6817C73.278 60.6817 72.1897 59.601 72.1897 58.2599C72.1897 56.909 73.2583 55.843 74.6174 55.838C75.9864 55.838 77.0304 56.8795 77.0304 58.255Z" fill="black"/>
<path d="M77.0305 30.9217C77.0256 32.2775 75.9423 33.3435 74.5929 33.319C73.2338 33.2944 72.1751 32.2087 72.1898 30.8676C72.2095 29.5167 73.2978 28.4556 74.6422 28.4703C75.9914 28.485 77.0355 29.556 77.0305 30.9217Z" fill="black"/>
<path d="M70.1707 58.2403C70.1805 59.5863 69.1021 60.6768 67.7577 60.6768C66.4281 60.6817 65.3152 59.5666 65.3201 58.2452C65.3251 56.9384 66.4035 55.8626 67.7233 55.8479C69.0824 55.8331 70.1609 56.8844 70.1707 58.2403Z" fill="black"/>
<path d="M70.1707 30.9223C70.1609 32.2732 69.0726 33.3294 67.7135 33.3098C66.3937 33.2901 65.33 32.2192 65.3202 30.9027C65.3103 29.5763 66.4233 28.4759 67.7676 28.4857C69.1169 28.4906 70.1806 29.5665 70.1707 30.9223Z" fill="black"/>
<path d="M63.2912 51.3973C63.2961 52.7531 62.2226 53.8339 60.8783 53.8289C59.5536 53.824 58.485 52.7629 58.4752 51.4415C58.4653 50.0906 59.5389 49.0147 60.893 49.0196C62.2325 49.0196 63.2863 50.066 63.2912 51.3973Z" fill="black"/>
<path d="M60.8536 42.1862C62.2078 42.1764 63.2715 43.1933 63.2912 44.5197C63.3109 45.8804 62.2718 46.9612 60.9176 46.9907C59.5929 47.0201 58.4751 45.9197 58.4751 44.5786C58.4751 43.2425 59.5191 42.1961 60.8536 42.1862Z" fill="black"/>
<path d="M63.2912 37.7553C63.2863 39.0964 62.2472 40.1231 60.8979 40.128C59.529 40.1329 58.4702 39.0767 58.4751 37.716C58.485 36.3896 59.5388 35.3383 60.8733 35.3334C62.2374 35.3285 63.2961 36.3896 63.2912 37.7553Z" fill="black"/>
<path d="M81.4814 53.6322C80.2306 53.6322 79.226 52.6301 79.2408 51.402C79.2556 50.2082 80.2552 49.2011 81.4617 49.1815C82.6731 49.1618 83.722 50.1885 83.7319 51.4069C83.7368 52.635 82.7322 53.6322 81.4814 53.6322Z" fill="black"/>
<path d="M79.2408 37.7109C79.2605 36.4975 80.3242 35.4659 81.5257 35.4954C82.7519 35.5248 83.7614 36.5761 83.7269 37.7895C83.6925 38.9931 82.678 39.9706 81.4716 39.9657C80.2454 39.9608 79.226 38.9292 79.2408 37.7109Z" fill="black"/>
<path d="M76.8432 37.7257C76.853 38.944 75.878 39.9413 74.6617 39.9609C73.4207 39.9806 72.4014 38.9833 72.3964 37.7503C72.3964 36.532 73.3616 35.5347 74.5779 35.5053C75.809 35.4709 76.8333 36.4829 76.8432 37.7257Z" fill="black"/>
<path d="M74.5976 53.6278C73.3665 53.618 72.3964 52.6452 72.3964 51.4221C72.3964 50.1743 73.4059 49.1771 74.642 49.1918C75.8927 49.2115 76.8678 50.2185 76.8432 51.4663C76.8136 52.6993 75.8386 53.6376 74.5976 53.6278Z" fill="black"/>
<path d="M65.5366 37.7258C65.5465 36.5173 66.551 35.5103 67.7526 35.5103C68.9591 35.5103 69.9735 36.5173 69.9784 37.7159C69.9883 38.949 68.964 39.9659 67.728 39.9511C66.5116 39.9364 65.5268 38.9392 65.5366 37.7258Z" fill="black"/>
<path d="M65.5366 44.5734C65.5366 43.3502 66.5165 42.3776 67.7427 42.3677C68.9837 42.3579 69.9931 43.3699 69.9784 44.6078C69.9636 45.8114 68.9492 46.7988 67.7378 46.7889C66.5264 46.784 65.5317 45.7819 65.5366 44.5734Z" fill="black"/>
<path d="M67.7378 53.6178C66.5116 53.6129 65.5366 52.6402 65.5366 51.417C65.5366 50.2036 66.5214 49.2113 67.7378 49.2015C68.9639 49.1867 69.998 50.2282 69.9734 51.4465C69.9488 52.6746 68.9737 53.6227 67.7378 53.6178Z" fill="black"/>
<path d="M83.5104 44.5789C83.5055 45.7087 82.6191 46.593 81.4865 46.5881C80.3539 46.5881 79.4675 45.6989 79.4626 44.574C79.4626 43.4589 80.3686 42.55 81.4865 42.555C82.6092 42.555 83.5104 43.4638 83.5104 44.5789Z" fill="black"/>
<path d="M72.618 44.5783C72.618 43.4436 73.4946 42.5593 74.6173 42.5593C75.7352 42.5593 76.6363 43.4534 76.6413 44.5734C76.6462 45.6935 75.7549 46.5826 74.6272 46.5826C73.4847 46.5875 72.618 45.718 72.618 44.5783Z" fill="black"/>
</g>
<defs>
<clipPath id="clip0_71_824">
<rect width="244" height="65" fill="white" transform="translate(42.5 12.5)"/>
</clipPath>
</defs>
</svg>
