<svg width="328" height="104" viewBox="0 0 328 104" fill="none" xmlns="http://www.w3.org/2000/svg">
<g filter="url(#filter0_d_7_227)">
<rect x="4" width="320" height="96" rx="25" fill="white"/>
</g>
<path d="M304.681 59.6695C303.44 61.0532 302.05 62.2669 300.431 63.2167C297.47 64.9522 294.238 65.3333 290.9 65.1457C286.773 64.9112 283.076 63.5568 280.044 60.6955C277.153 57.9632 275.552 54.5567 275.081 50.6401C274.551 46.2719 275.281 42.1502 277.736 38.4211C280.356 34.4517 284.135 32.2589 288.774 31.4439C292.725 30.752 296.498 31.2797 300.078 33.109C301.838 34.012 303.61 35.5305 304.387 36.8439C303.18 37.7058 301.968 38.5677 300.708 39.4707C299.724 38.04 298.476 36.9963 296.981 36.2517C292.018 33.7833 285.425 35.6185 282.24 40.3443C278.984 45.1756 279.179 53.0206 283.476 57.5001C285.425 59.5287 287.815 60.6896 290.6 60.9946C293.896 61.3522 296.987 60.8421 299.56 58.5379C300.101 58.0512 300.655 57.5822 301.303 57.0075C302.321 57.7698 303.498 58.6492 304.676 59.5229C304.681 59.5756 304.681 59.6226 304.681 59.6695Z" fill="black"/>
<path d="M266.917 44.5716C266.281 41.0947 264.756 38.034 262.154 35.6067C258.245 31.9597 253.524 30.6464 248.284 31.3382C244.582 31.8307 241.379 33.4431 239.001 36.4275C238.718 36.7852 238.453 37.1604 238.176 37.5239C238.123 37.5122 238.076 37.5005 238.023 37.4888C238.023 35.6653 238.023 33.8418 238.023 32.0418C236.375 32.0418 234.832 32.0418 233.225 32.0418C233.225 48.3592 233.225 64.6179 233.225 80.8824C234.827 80.8824 236.428 80.8824 238.029 80.8824C238.029 73.6006 238.029 66.3124 238.029 58.9306C238.912 59.8746 239.607 60.7716 240.455 61.4928C243.575 64.1665 247.236 65.3567 251.334 65.1632C256.962 64.8994 261.501 62.5834 264.562 57.7931C267.152 53.7299 267.771 49.2563 266.917 44.5716ZM260.082 55.8055C257.786 59.4935 254.283 61.0297 251.716 61.0706C243.41 61.0706 238.241 56.3977 237.593 49.8601C237.17 45.6093 238.182 41.7982 241.261 38.7259C244.693 35.2959 248.915 34.4574 253.5 35.6711C258.016 36.8672 260.636 40.0334 261.713 44.4484C262.678 48.4237 262.278 52.2817 260.082 55.8055Z" fill="black"/>
<path d="M223.212 48.5818C223.1 46.9987 223.153 45.3922 222.905 43.8326C222.329 40.1328 220.727 36.9315 217.778 34.51C215.306 32.4754 212.421 31.4611 209.242 31.2266C203.932 30.8337 199.334 32.3875 195.684 36.2983C192.334 39.8866 191.033 44.2371 191.245 49.0684C191.451 53.7707 193.164 57.8574 196.714 60.9884C201.647 65.3447 207.429 66.0835 213.616 64.3362C217.113 63.3512 219.791 61.1701 222.046 58.303C220.839 57.359 219.662 56.4502 218.49 55.5297C213.916 61.8854 207.152 61.862 203.178 60.062C197.938 57.6932 196.137 52.5101 196.325 49.4319C196.596 49.4319 196.873 49.4319 197.15 49.4319C205.551 49.4319 213.945 49.4261 222.347 49.4495C223.035 49.4554 223.259 49.2443 223.212 48.5818ZM196.202 45.568C196.491 44.4775 196.655 43.4339 197.038 42.4781C199.51 36.3335 206.069 33.5778 212.35 36.0696C215.747 37.4182 217.378 40.2677 218.102 43.7036C218.166 44.0026 218.207 44.3016 218.237 44.6065C218.273 44.9055 218.278 45.2104 218.302 45.5739C210.984 45.568 203.696 45.568 196.202 45.568Z" fill="black"/>
<path d="M136.595 12.1995C136.595 20.6367 136.595 29.027 136.595 37.4173C135.464 36.0394 134.304 34.7847 132.862 33.829C129.606 31.6595 126.022 30.8387 122.124 31.2726C116.891 31.8531 112.758 34.2335 109.961 38.7013C107.53 42.5827 106.912 46.8571 107.618 51.3248C108.301 55.605 110.274 59.1933 113.765 61.8611C117.232 64.5113 121.224 65.4963 125.515 65.1211C129.819 64.7399 133.469 62.9868 136.117 59.4513C136.218 59.3165 136.347 59.1991 136.612 58.906C136.612 60.8467 136.612 62.5764 136.612 64.3002C138.237 64.3002 139.756 64.3002 141.275 64.3002C141.275 46.8981 141.275 29.5547 141.275 12.2054C139.691 12.1995 138.178 12.1995 136.595 12.1995ZM129.377 60.1959C123.066 62.6761 114.117 60.4012 112.628 50.5451C112.187 47.6369 112.493 44.8049 113.676 42.0961C115.678 37.5169 120.093 34.9254 125.385 35.2068C131.243 35.5176 136.024 39.8329 136.895 45.6258C137.018 46.4584 137.065 47.2968 137.148 48.1353C137.083 53.7288 134.216 58.2962 129.377 60.1959Z" fill="black"/>
<path d="M183.526 48.4694C183.508 47.2322 183.515 45.9834 183.373 44.758C182.937 41.0231 181.572 37.6811 178.758 35.0837C173.706 30.4165 165.217 29.7774 159.212 33.6413C154.203 36.8602 151.836 41.586 151.559 47.4316C151.147 56.1502 156.94 64.1301 166.324 65.0682C172.058 65.6428 177.074 64.0832 181.083 59.8089C181.525 59.3398 181.931 58.8414 182.384 58.3196C181.142 57.3522 179.982 56.4434 178.793 55.517C177.045 57.9678 174.872 59.7971 172 60.6063C169.132 61.4213 166.277 61.3157 163.522 60.0727C158.471 57.8037 156.534 52.9372 156.622 49.4368C156.958 49.4368 157.234 49.4368 157.517 49.4368C165.871 49.4368 174.225 49.4368 182.573 49.4368C183.515 49.4368 183.544 49.431 183.526 48.4694ZM156.634 45.5905C156.728 44.9808 156.776 44.4121 156.911 43.8609C158.259 38.4492 163.145 34.896 168.791 35.2127C174.277 35.5175 178.11 39.2231 178.569 44.6818C178.593 44.9573 178.617 45.2329 178.646 45.5905C171.293 45.5905 164.034 45.5905 156.634 45.5905Z" fill="black"/>
<path d="M91.8601 42.3888C90.0273 42.3831 88.559 40.9264 88.5704 39.1125C88.5762 37.3044 90.0674 35.8306 91.8772 35.842C93.7042 35.8476 95.1726 37.3214 95.1554 39.1352C95.144 40.9661 93.7042 42.3888 91.8601 42.3888Z" fill="black"/>
<path d="M79.2708 70.7529C79.2594 72.538 77.8025 73.9664 75.9983 73.9721C74.1543 73.9779 72.6746 72.4813 72.6974 70.6281C72.7201 68.8595 74.2056 67.4082 75.9869 67.4082C77.848 67.4082 79.2879 68.8767 79.2708 70.7529Z" fill="black"/>
<path d="M91.8601 50.2839C90.0273 50.2725 88.5704 48.8215 88.5704 47.002C88.5704 45.1994 90.0674 43.7257 91.8829 43.7314C93.6979 43.7371 95.1777 45.2165 95.1611 47.0303C95.1497 48.8555 93.6979 50.2895 91.8601 50.2839Z" fill="black"/>
<path d="M68.064 12.1825C69.9079 12.1881 71.3536 13.6222 71.3478 15.453C71.3422 17.2612 69.8453 18.7463 68.0469 18.7406C66.2428 18.735 64.7573 17.2442 64.763 15.436C64.7687 13.6052 66.2143 12.1768 68.064 12.1825Z" fill="black"/>
<path d="M87.2154 62.857C87.1868 64.6425 85.7127 66.0935 83.9372 66.0879C82.1045 66.0822 80.5681 64.5291 80.619 62.7379C80.6704 60.9355 82.2069 59.4617 83.9881 59.5127C85.8322 59.5637 87.2497 61.0318 87.2154 62.857Z" fill="black"/>
<path d="M79.2699 23.3316C79.2699 25.1624 77.8186 26.6192 75.9917 26.6192C74.1762 26.6192 72.6964 25.1454 72.6964 23.3316C72.6907 21.5234 74.1648 20.061 75.9917 20.061C77.847 20.061 79.2699 21.4838 79.2699 23.3316Z" fill="black"/>
<path d="M91.8366 58.1629C89.9982 58.1516 88.5413 56.6835 88.5699 54.8697C88.5985 53.0615 90.1006 51.5878 91.899 51.6048C93.7088 51.6218 95.1829 53.1295 95.1606 54.932C95.132 56.7742 93.6922 58.1743 91.8366 58.1629Z" fill="black"/>
<path d="M87.2148 31.217C87.2205 33.0478 85.7693 34.5046 83.9423 34.5046C82.1216 34.5046 80.6304 33.0422 80.619 31.2397C80.6075 29.4542 82.1045 27.9634 83.92 27.9577C85.7636 27.9521 87.2096 29.3862 87.2148 31.217Z" fill="black"/>
<path d="M68.0587 75.3204C69.897 75.3204 71.3539 76.766 71.3483 78.5855C71.3483 80.3878 69.8514 81.8786 68.053 81.8786C66.2489 81.8786 64.7578 80.3821 64.7578 78.5855C64.7691 76.7546 66.2204 75.3147 68.0587 75.3204Z" fill="black"/>
<path d="M56.8524 78.5574C56.8581 76.7271 58.298 75.3153 60.1533 75.3267C61.9859 75.3382 63.4258 76.7889 63.4144 78.609C63.3974 80.4113 61.8949 81.8906 60.1021 81.8677C58.2809 81.8511 56.8467 80.3826 56.8524 78.5574Z" fill="black"/>
<path d="M56.8525 15.3966C56.8639 13.5714 58.3094 12.1771 60.1705 12.1941C62.0031 12.2054 63.4316 13.6621 63.4088 15.493C63.3861 17.2842 61.8551 18.7749 60.0737 18.7352C58.2639 18.6955 56.8411 17.2218 56.8525 15.3966Z" fill="black"/>
<path d="M48.9179 15.4587C48.9065 13.6222 50.3407 12.1995 52.1904 12.1995C54.0173 12.1995 55.4914 13.6619 55.48 15.4644C55.4686 17.2386 53.9376 18.7406 52.1506 18.7236C50.3749 18.7066 48.9236 17.2443 48.9179 15.4587Z" fill="black"/>
<path d="M52.1791 75.333C53.9947 75.3273 55.4858 76.801 55.48 78.5924C55.4744 80.366 53.9491 81.8683 52.1621 81.8626C50.3978 81.8511 48.9351 80.3889 48.918 78.609C48.9009 76.7729 50.3295 75.3387 52.1791 75.333Z" fill="black"/>
<path d="M47.4961 23.3548C47.4847 25.1686 46.0505 26.597 44.2463 26.5914C42.4023 26.58 40.9966 25.1459 41.008 23.2811C41.0194 21.4729 42.4536 20.0786 44.2862 20.0956C46.1017 20.1126 47.5074 21.5353 47.4961 23.3548Z" fill="black"/>
<path d="M33.0798 31.1312C33.1253 29.3344 34.5937 27.9456 36.4092 27.991C38.2077 28.0364 39.5964 29.5101 39.5508 31.3183C39.5053 33.1151 38.0198 34.5208 36.2214 34.4584C34.4002 34.3961 33.0343 32.9507 33.0798 31.1312Z" fill="black"/>
<path d="M44.2747 67.4534C46.1016 67.4649 47.5017 68.8819 47.496 70.7013C47.4846 72.5609 46.0561 73.9492 44.1893 73.9212C42.3567 73.8926 41.0022 72.4985 41.008 70.6447C41.0193 68.8366 42.4478 67.4368 44.2747 67.4534Z" fill="black"/>
<path d="M36.2836 59.5859C38.1162 59.5689 39.5333 60.9464 39.5504 62.7658C39.5732 64.5683 38.1674 65.9967 36.3462 66.0194C34.5307 66.0421 33.1022 64.642 33.0794 62.8282C33.0566 61.0087 34.451 59.5973 36.2836 59.5859Z" fill="black"/>
<path d="M31.5886 39.1406C31.5829 40.9091 30.1715 42.3262 28.3901 42.3375C26.586 42.3489 25.1802 40.9318 25.1802 39.0953C25.1802 37.3041 26.5746 35.9041 28.3616 35.8871C30.1259 35.8701 31.5886 37.3495 31.5886 39.1406Z" fill="black"/>
<path d="M31.5885 47.0541C31.5771 48.8226 30.16 50.2227 28.3729 50.2227C26.546 50.217 25.1801 48.8226 25.1915 46.9748C25.2029 45.1836 26.6086 43.7836 28.39 43.7949C30.1827 43.8006 31.5942 45.2403 31.5885 47.0541Z" fill="black"/>
<path d="M31.5886 54.932C31.5829 56.7232 30.1886 58.1005 28.3844 58.1005C26.5348 58.1005 25.1745 56.7288 25.1802 54.8753C25.1859 53.0842 26.5974 51.6727 28.3674 51.6841C30.1829 51.6954 31.5943 53.1182 31.5886 54.932Z" fill="black"/>
<path d="M65.0079 70.6676C65.025 68.9952 66.3852 67.6406 68.0471 67.6292C69.7374 67.6235 71.1146 69.0124 71.1033 70.7128C71.0919 72.4189 69.7089 73.7626 67.9958 73.734C66.3226 73.7059 64.9965 72.345 65.0079 70.6676Z" fill="black"/>
<path d="M80.8752 54.9269C80.8638 53.2605 82.2068 51.883 83.8742 51.8547C85.5702 51.8264 86.9762 53.1811 86.9985 54.8759C87.0214 56.5424 85.6103 57.9481 83.92 57.9481C82.252 57.9481 80.8861 56.5934 80.8752 54.9269Z" fill="black"/>
<path d="M83.9434 43.9813C85.628 43.987 86.9882 45.3247 86.9997 46.9911C87.0106 48.6633 85.5994 50.0747 83.9206 50.0633C82.2246 50.0577 80.8529 48.6633 80.8758 46.9685C80.8929 45.302 82.2532 43.9756 83.9434 43.9813Z" fill="black"/>
<path d="M79.0254 62.8392C79.0083 64.5283 77.6652 65.8603 75.9863 65.8547C74.2903 65.849 72.9471 64.4773 72.9584 62.7541C72.9642 61.0877 74.3301 59.7386 76.009 59.75C77.7164 59.7556 79.0425 61.1103 79.0254 62.8392Z" fill="black"/>
<path d="M83.9372 42.1451C82.2068 42.1451 80.8638 40.8016 80.8752 39.0899C80.8861 37.4177 82.2412 36.0857 83.9257 36.0857C85.6274 36.0857 87.0157 37.4687 86.9985 39.1522C86.982 40.8186 85.6274 42.1451 83.9372 42.1451Z" fill="black"/>
<path d="M71.1094 23.3096C71.1208 24.9987 69.8004 26.3478 68.1214 26.3648C66.3856 26.3874 65.0254 25.0724 65.014 23.3606C64.9969 21.6601 66.3799 20.2771 68.0703 20.2827C69.7435 20.2941 71.098 21.6431 71.1094 23.3096Z" fill="black"/>
<path d="M79.0252 31.2564C79.0138 32.9568 77.7105 34.2549 75.9974 34.2549C74.2615 34.2549 72.9469 32.9341 72.9526 31.1997C72.9583 29.4822 74.3071 28.1842 76.0543 28.2069C77.756 28.2239 79.0366 29.5389 79.0252 31.2564Z" fill="black"/>
<path d="M63.1524 70.6618C63.1581 72.3737 61.8149 73.7282 60.1132 73.7282C58.4286 73.7282 57.1026 72.408 57.0968 70.7185C57.0855 68.9901 58.4229 67.6349 60.1303 67.6407C61.7978 67.6464 63.1467 68.9952 63.1524 70.6618Z" fill="black"/>
<path d="M55.23 70.6618C55.2414 72.3227 53.8983 73.6939 52.2307 73.7168C50.529 73.7397 49.1346 72.3737 49.1403 70.6842C49.146 69.0233 50.5063 67.663 52.1738 67.6464C53.8243 67.6349 55.213 69.0067 55.23 70.6618Z" fill="black"/>
<path d="M63.1527 23.3321C63.1527 25.0553 61.8209 26.376 60.0908 26.3647C58.3948 26.3533 57.0972 25.044 57.0915 23.3435C57.0915 21.626 58.446 20.2713 60.1477 20.2996C61.838 20.3223 63.1584 21.6486 63.1527 23.3321Z" fill="black"/>
<path d="M52.1738 26.3529C50.4949 26.3529 49.1346 25.0038 49.1403 23.343C49.1403 21.6823 50.4892 20.3276 52.1624 20.3106C53.8527 20.2935 55.2414 21.6766 55.23 23.3657C55.213 25.0265 53.8584 26.3529 52.1738 26.3529Z" fill="black"/>
<path d="M41.2467 62.7946C41.2411 61.1111 42.5728 59.779 44.2574 59.7734C45.9193 59.7734 47.2795 61.1281 47.2852 62.7946C47.2852 64.4553 45.9193 65.8157 44.2574 65.8214C42.5671 65.8271 41.2467 64.495 41.2467 62.7946Z" fill="black"/>
<path d="M44.2574 28.2348C45.9592 28.2405 47.2852 29.5612 47.2795 31.2503C47.2681 32.9225 45.9079 34.2432 44.2119 34.2318C42.5387 34.2205 41.2524 32.9168 41.2467 31.239C41.2411 29.5215 42.5387 28.2291 44.2574 28.2348Z" fill="black"/>
<path d="M36.3064 57.8797C34.5934 57.874 33.2559 56.5363 33.2901 54.8641C33.3242 53.2317 34.6845 51.894 36.3178 51.894C37.9683 51.894 39.3741 53.3167 39.3399 54.9435C39.3058 56.61 37.9854 57.8797 36.3064 57.8797Z" fill="black"/>
<path d="M36.3063 42.0997C34.6103 42.0997 33.2614 40.745 33.2899 39.0785C33.3183 37.4404 34.6672 36.1254 36.3177 36.1254C37.9909 36.1254 39.3682 37.5085 39.3397 39.1579C39.3113 40.8017 37.9738 42.0997 36.3063 42.0997Z" fill="black"/>
<path d="M36.341 49.9949C34.6507 50.0063 33.2791 48.6572 33.2905 47.0021C33.3019 45.3583 34.6393 44.0262 36.2898 44.0149C37.9573 44.0036 39.346 45.3639 39.3403 47.0191C39.3347 48.6572 37.9972 49.9836 36.341 49.9949Z" fill="black"/>
<path d="M76.0145 36.3011C77.5625 36.3181 78.8317 37.5991 78.8259 39.1352C78.8203 40.6713 77.5283 41.9353 75.9803 41.9297C74.3925 41.924 73.1688 40.6487 73.1973 39.0332C73.2257 37.5085 74.4892 36.2841 76.0145 36.3011Z" fill="black"/>
<path d="M73.1975 54.893C73.2031 53.3115 74.4211 52.0985 76.0033 52.1042C77.5627 52.1099 78.8319 53.3739 78.8262 54.9157C78.8205 56.4461 77.5286 57.7158 75.9805 57.7101C74.4211 57.7101 73.1975 56.4687 73.1975 54.893Z" fill="black"/>
<path d="M68.0529 34.0337C66.5106 34.0337 65.2129 32.7414 65.23 31.2166C65.2471 29.6692 66.522 28.4108 68.07 28.4165C69.618 28.4222 70.9042 29.7032 70.8928 31.2336C70.8757 32.7754 69.6009 34.0337 68.0529 34.0337Z" fill="black"/>
<path d="M68.0585 60.0054C69.6292 60.0054 70.8984 61.2581 70.887 62.7998C70.8813 64.3416 69.6008 65.6056 68.0585 65.6056C66.5104 65.6056 65.2242 64.3246 65.2299 62.7998C65.2356 61.2468 66.4933 60.0054 68.0585 60.0054Z" fill="black"/>
<path d="M73.1975 47.036C73.1861 45.4432 74.3814 44.2358 75.9749 44.2245C77.5457 44.2188 78.8092 45.4489 78.8263 46.9906C78.8376 48.5097 77.5343 49.8304 76.0204 49.8304C74.4553 49.8361 73.2089 48.6004 73.1975 47.036Z" fill="black"/>
<path d="M62.908 62.7942C62.908 64.3756 61.7015 65.5943 60.125 65.5943C58.5713 65.5943 57.3135 64.3473 57.3135 62.7998C57.3135 61.2411 58.5485 60.0111 60.1193 60.0054C61.7015 60.0054 62.908 61.2071 62.908 62.7942Z" fill="black"/>
<path d="M62.9082 31.2557C62.9025 32.8202 61.6505 34.0502 60.091 34.0219C58.5202 33.9935 57.2966 32.7408 57.3137 31.1934C57.3364 29.6347 58.5942 28.4103 60.1479 28.4273C61.7073 28.4443 62.9139 29.68 62.9082 31.2557Z" fill="black"/>
<path d="M54.9801 62.7772C54.9915 64.3303 53.745 65.5886 52.1913 65.5886C50.6547 65.5943 49.3684 64.3076 49.3741 62.7829C49.3798 61.2751 50.6262 60.0338 52.1515 60.0168C53.7223 59.9998 54.9687 61.2127 54.9801 62.7772Z" fill="black"/>
<path d="M54.9801 31.2565C54.9687 32.8153 53.711 34.034 52.1402 34.0113C50.6149 33.9886 49.3855 32.7529 49.3742 31.2339C49.3628 29.7034 50.6491 28.4337 52.2027 28.4451C53.7621 28.4507 54.9915 29.6921 54.9801 31.2565Z" fill="black"/>
<path d="M47.0292 54.8815C47.0349 56.4459 45.7942 57.6929 44.2405 57.6872C42.7095 57.6816 41.4745 56.4572 41.4631 54.9325C41.4517 53.3737 42.6925 52.1324 44.2575 52.138C45.8055 52.138 47.0235 53.3454 47.0292 54.8815Z" fill="black"/>
<path d="M44.2119 44.2534C45.777 44.242 47.0064 45.4154 47.0291 46.9458C47.0519 48.5159 45.851 49.7629 44.2859 49.7969C42.755 49.831 41.463 48.5612 41.463 47.0138C41.463 45.4721 42.6696 44.2647 44.2119 44.2534Z" fill="black"/>
<path d="M47.0291 39.1407C47.0235 40.6881 45.8226 41.8728 44.2632 41.8784C42.681 41.8841 41.4574 40.6654 41.463 39.0954C41.4744 37.5649 42.6924 36.3519 44.2347 36.3462C45.8112 36.3406 47.0348 37.5649 47.0291 39.1407Z" fill="black"/>
<path d="M68.0523 57.4602C66.6066 57.4602 65.4456 56.3039 65.4627 54.8869C65.4798 53.5094 66.6351 52.3475 68.0295 52.3248C69.4296 52.3021 70.6418 53.4868 70.6532 54.8925C70.6589 56.3096 69.4979 57.4602 68.0523 57.4602Z" fill="black"/>
<path d="M65.4627 39.0895C65.4855 37.6894 66.7148 36.4991 68.1035 36.5331C69.5206 36.5671 70.6873 37.7801 70.6475 39.1802C70.6077 40.5689 69.4352 41.6969 68.0409 41.6912C66.6237 41.6856 65.4456 40.4952 65.4627 39.0895Z" fill="black"/>
<path d="M62.6917 39.1066C62.7031 40.5123 61.5762 41.663 60.1705 41.6857C58.7362 41.7083 57.5581 40.5577 57.5524 39.1349C57.5524 37.7292 58.668 36.5786 60.0737 36.5446C61.4965 36.5049 62.6803 37.6725 62.6917 39.1066Z" fill="black"/>
<path d="M60.0964 57.4551C58.6736 57.4438 57.5524 56.3214 57.5524 54.9101C57.5524 53.4703 58.7192 52.3197 60.1477 52.3367C61.5933 52.3594 62.7201 53.5213 62.6917 54.9611C62.6575 56.3838 61.5306 57.4665 60.0964 57.4551Z" fill="black"/>
<path d="M49.6243 39.1066C49.6357 37.7123 50.7967 36.5503 52.1854 36.5503C53.5797 36.5503 54.7522 37.7123 54.7578 39.0953C54.7692 40.5181 53.5854 41.6914 52.1569 41.6744C50.7511 41.6574 49.6129 40.5067 49.6243 39.1066Z" fill="black"/>
<path d="M49.6242 47.0078C49.6242 45.5964 50.7568 44.4741 52.174 44.4628C53.6081 44.4515 54.7748 45.6191 54.7578 47.0475C54.7407 48.4362 53.5683 49.5755 52.1682 49.5642C50.7682 49.5585 49.6186 48.4022 49.6242 47.0078Z" fill="black"/>
<path d="M52.1682 57.4436C50.7511 57.438 49.6242 56.3157 49.6242 54.9042C49.6242 53.5042 50.7625 52.3592 52.1682 52.3479C53.5853 52.3309 54.7805 53.5325 54.7521 54.9382C54.7236 56.3553 53.5967 57.4493 52.1682 57.4436Z" fill="black"/>
<path d="M70.3973 47.0141C70.3916 48.3178 69.3671 49.3381 68.0582 49.3324C66.7492 49.3324 65.7248 48.3065 65.7191 47.0084C65.7191 45.7218 66.7662 44.6731 68.0582 44.6788C69.3558 44.6788 70.3973 45.7274 70.3973 47.0141Z" fill="black"/>
<path d="M57.8086 47.0135C57.8086 45.7041 58.8216 44.6838 60.1192 44.6838C61.4112 44.6838 62.4527 45.7155 62.4584 47.0078C62.4641 48.3001 61.4339 49.3261 60.1306 49.3261C58.8102 49.3318 57.8086 48.3285 57.8086 47.0135Z" fill="black"/>
<defs>
<filter id="filter0_d_7_227" x="0" y="0" width="328" height="104" filterUnits="userSpaceOnUse" color-interpolation-filters="sRGB">
<feFlood flood-opacity="0" result="BackgroundImageFix"/>
<feColorMatrix in="SourceAlpha" type="matrix" values="0 0 0 0 0 0 0 0 0 0 0 0 0 0 0 0 0 0 127 0" result="hardAlpha"/>
<feOffset dy="4"/>
<feGaussianBlur stdDeviation="2"/>
<feComposite in2="hardAlpha" operator="out"/>
<feColorMatrix type="matrix" values="0 0 0 0 0 0 0 0 0 0 0 0 0 0 0 0 0 0 0.25 0"/>
<feBlend mode="normal" in2="BackgroundImageFix" result="effect1_dropShadow_7_227"/>
<feBlend mode="normal" in="SourceGraphic" in2="effect1_dropShadow_7_227" result="shape"/>
</filter>
</defs>
</svg>
