<svg width="328" height="104" viewBox="0 0 328 104" fill="none" xmlns="http://www.w3.org/2000/svg">
<g filter="url(#filter0_d_7_246)">
<rect x="4" width="320" height="96" rx="25" fill="white"/>
</g>
<g clip-path="url(#clip0_7_246)">
<path d="M166.906 66.939H160.588V62.6746H160.462C159.83 64.0542 158.819 65.183 157.429 66.1864C155.913 67.1898 154.27 67.6915 152.248 67.6915C150.479 67.6915 148.963 67.4407 147.825 66.8136C146.562 66.1864 145.551 65.4339 144.793 64.4305C144.035 63.4271 143.403 62.2983 143.024 61.0441C142.645 59.7898 142.518 58.4102 142.518 57.0305V40.4746H149.215V55.1492C149.215 55.9017 149.215 56.7797 149.342 57.5322C149.468 58.4102 149.721 59.1627 150.1 59.7898C150.479 60.4169 150.985 61.0441 151.616 61.4203C152.248 61.922 153.133 62.0475 154.144 62.0475C155.155 62.0475 156.039 61.7966 156.924 61.4203C157.682 61.0441 158.314 60.4169 158.819 59.7898C159.325 59.1627 159.704 58.4102 159.956 57.5322C160.209 56.6542 160.335 55.7763 160.335 54.8983V40.4746H167.033L166.906 66.939ZM173.098 23.7932H179.795V66.939H173.098V23.7932ZM203.931 47.8746C203.425 47.122 202.667 46.4949 201.656 45.9932C200.645 45.4915 199.508 45.2407 198.497 45.2407C197.234 45.2407 196.223 45.4915 195.338 45.9932C194.454 46.4949 193.695 47.122 193.064 48C192.432 48.7525 192.053 49.7559 191.674 50.7593C191.421 51.7627 191.168 52.7661 191.168 53.7695C191.168 54.7729 191.295 55.7763 191.674 56.7797C191.926 57.783 192.432 58.661 193.064 59.539C193.695 60.2915 194.454 61.0441 195.465 61.5458C196.349 62.0475 197.486 62.2983 198.75 62.2983C199.761 62.2983 200.772 62.0475 201.909 61.6712C202.92 61.2949 203.805 60.6678 204.436 59.9153L208.606 64.0542C207.469 65.183 206.079 66.1864 204.31 66.8136C202.541 67.4407 200.772 67.8169 198.75 67.8169C196.728 67.8169 194.959 67.5661 193.19 66.939C191.421 66.3119 189.905 65.4339 188.641 64.1797C187.377 62.9254 186.24 61.5458 185.482 59.7898C184.724 58.0339 184.345 56.1525 184.345 53.8949C184.345 51.7627 184.724 49.8814 185.482 48.1254C186.24 46.3695 187.251 44.9898 188.515 43.7356C189.778 42.4814 191.295 41.6034 193.064 40.9763C194.833 40.3492 196.602 39.9729 198.624 39.9729C200.645 39.9729 202.541 40.3492 204.31 41.1017C206.079 41.8542 207.595 42.8576 208.606 44.1119L203.931 47.8746ZM212.65 40.4746H218.968V44.8644H219.095C219.853 43.3593 220.864 42.1051 222.254 41.1017C223.644 40.0983 225.16 39.722 226.929 39.722H227.814C228.066 39.722 228.319 39.8475 228.572 39.8475V45.8678C228.066 45.7424 227.687 45.7424 227.435 45.617H226.55C225.034 45.617 223.77 45.8678 222.885 46.4949C222.001 46.9966 221.243 47.7492 220.737 48.5017C220.232 49.2542 219.853 50.0068 219.726 50.8847C219.6 51.6373 219.474 52.3898 219.474 52.7661V66.939H212.776V40.4746H212.65ZM256.877 66.939H250.559V62.6746H250.433C249.801 64.0542 248.79 65.183 247.4 66.1864C245.884 67.1898 244.241 67.6915 242.219 67.6915C240.45 67.6915 238.934 67.4407 237.796 66.8136C236.533 66.1864 235.522 65.4339 234.764 64.4305C234.005 63.4271 233.374 62.2983 232.995 61.0441C232.615 59.7898 232.489 58.4102 232.489 57.0305V40.4746H239.186V55.1492C239.186 55.9017 239.186 56.7797 239.313 57.5322C239.439 58.4102 239.692 59.1627 240.071 59.7898C240.45 60.4169 240.955 61.0441 241.587 61.4203C242.219 61.922 243.104 62.0475 244.115 62.0475C245.125 62.0475 246.01 61.7966 246.895 61.4203C247.653 61.0441 248.285 60.4169 248.79 59.7898C249.295 59.1627 249.675 58.4102 249.927 57.5322C250.18 56.6542 250.306 55.7763 250.306 54.8983V40.4746H257.004V66.939H256.877ZM293.523 39.722C295.292 39.722 296.808 39.9729 297.945 40.6C299.209 41.2271 300.22 41.9797 300.978 42.9831C301.736 43.9864 302.368 45.1153 302.747 46.3695C303.126 47.6237 303.253 49.0034 303.253 50.3831V66.939H296.682V52.2644C296.682 51.5119 296.682 50.6339 296.555 49.8814C296.429 49.0034 296.176 48.2508 295.797 47.6237C295.418 46.9966 294.913 46.3695 294.281 45.9932C293.649 45.4915 292.765 45.3661 291.754 45.3661C290.743 45.3661 289.858 45.6169 289.1 45.9932C288.342 46.4949 287.71 46.9966 287.331 47.7492C286.825 48.5017 286.446 49.2542 286.32 50.1322C286.067 51.0102 285.941 51.8881 285.941 52.6407V67.0644H279.244V51.0102C279.244 49.3797 278.865 48 278.106 46.8712C277.348 45.7424 276.085 45.2407 274.315 45.2407C273.305 45.2407 272.42 45.4915 271.662 45.8678C270.904 46.2441 270.272 46.8712 269.893 47.4983C269.387 48.1254 269.135 48.878 268.882 49.7559C268.629 50.6339 268.503 51.5119 268.503 52.3898V66.939H261.805V40.4746H268.124V44.739H268.25C268.503 44.1119 268.882 43.4847 269.387 42.8576C269.893 42.2305 270.525 41.7288 271.156 41.2271C271.788 40.7254 272.673 40.3492 273.557 40.0983C274.442 39.8475 275.453 39.722 276.464 39.722C278.485 39.722 280.255 40.2237 281.645 41.1017C283.035 41.9797 284.045 43.2339 284.804 44.739C285.688 43.1085 286.825 41.8542 288.342 40.9763C289.732 40.2237 291.501 39.722 293.523 39.722Z" fill="#414042"/>
<path d="M115.224 23.7932H142.392V29.8136H122.3V40.4746H137.716V46.3695H122.3V66.939H115.35L115.224 23.7932Z" fill="#414042"/>
<path d="M46.8608 55.9017L62.2772 33.7017L77.6936 55.9017H46.8608Z" fill="#EB1300"/>
<path d="M62.2772 16.5186C79.7154 16.5186 93.8681 30.5661 93.8681 47.8746C93.8681 65.183 79.7154 79.2305 62.2772 79.2305C44.839 79.2305 30.6863 65.183 30.6863 47.8746C30.6863 30.5661 44.839 16.5186 62.2772 16.5186ZM62.2772 11.2508C41.9327 11.2508 25.2527 27.6814 25.2527 48C25.2527 68.3186 41.8063 84.7492 62.2772 84.7492C82.7481 84.7492 99.3018 68.3186 99.3018 48C99.3018 27.6814 82.6218 11.2508 62.2772 11.2508Z" fill="#EB1300"/>
</g>
<defs>
<filter id="filter0_d_7_246" x="0" y="0" width="328" height="104" filterUnits="userSpaceOnUse" color-interpolation-filters="sRGB">
<feFlood flood-opacity="0" result="BackgroundImageFix"/>
<feColorMatrix in="SourceAlpha" type="matrix" values="0 0 0 0 0 0 0 0 0 0 0 0 0 0 0 0 0 0 127 0" result="hardAlpha"/>
<feOffset dy="4"/>
<feGaussianBlur stdDeviation="2"/>
<feComposite in2="hardAlpha" operator="out"/>
<feColorMatrix type="matrix" values="0 0 0 0 0 0 0 0 0 0 0 0 0 0 0 0 0 0 0.25 0"/>
<feBlend mode="normal" in2="BackgroundImageFix" result="effect1_dropShadow_7_246"/>
<feBlend mode="normal" in="SourceGraphic" in2="effect1_dropShadow_7_246" result="shape"/>
</filter>
<clipPath id="clip0_7_246">
<rect width="278" height="74" fill="white" transform="translate(25 11)"/>
</clipPath>
</defs>
</svg>
