<svg width="329" height="90" viewBox="0 0 329 90" fill="none" xmlns="http://www.w3.org/2000/svg">
<rect x="1.5" y="1" width="326" height="88" rx="23" fill="white"/>
<rect x="1.5" y="1" width="326" height="88" rx="23" stroke="#BDBDBD" stroke-width="2"/>
<g clip-path="url(#clip0_71_815)">
<path d="M167.009 61.3796H161.554V57.6915H161.445C160.9 58.8847 160.027 59.861 158.827 60.7288C157.518 61.5966 156.1 62.0305 154.354 62.0305C152.827 62.0305 151.518 61.8135 150.536 61.2712C149.445 60.7288 148.573 60.0779 147.918 59.2102C147.264 58.3424 146.718 57.3661 146.391 56.2813C146.064 55.1966 145.954 54.0034 145.954 52.8102V38.4915H151.736V51.183C151.736 51.8339 151.736 52.5932 151.845 53.2441C151.954 54.0034 152.173 54.6542 152.5 55.1966C152.827 55.739 153.264 56.2813 153.809 56.6068C154.354 57.0407 155.118 57.1491 155.991 57.1491C156.864 57.1491 157.627 56.9322 158.391 56.6068C159.045 56.2813 159.591 55.739 160.027 55.1966C160.464 54.6542 160.791 54.0034 161.009 53.2441C161.227 52.4847 161.336 51.7254 161.336 50.9661V38.4915H167.118L167.009 61.3796ZM172.354 24.0644H178.136V61.3796H172.354V24.0644ZM198.973 44.8915C198.536 44.2407 197.882 43.6983 197.009 43.2644C196.136 42.8305 195.154 42.6135 194.282 42.6135C193.191 42.6135 192.318 42.8305 191.554 43.2644C190.791 43.6983 190.136 44.2407 189.591 45C189.045 45.6508 188.718 46.5186 188.391 47.3864C188.173 48.2542 187.954 49.122 187.954 49.9898C187.954 50.8576 188.064 51.7254 188.391 52.5932C188.609 53.461 189.045 54.2203 189.591 54.9796C190.136 55.6305 190.791 56.2813 191.664 56.7152C192.427 57.1491 193.409 57.3661 194.5 57.3661C195.373 57.3661 196.245 57.1491 197.227 56.8237C198.1 56.4983 198.864 55.9559 199.409 55.3051L203.009 58.8847C202.027 59.861 200.827 60.7288 199.3 61.2712C197.773 61.8135 196.245 62.139 194.5 62.139C192.754 62.139 191.227 61.922 189.7 61.3796C188.173 60.8373 186.864 60.078 185.773 58.9932C184.682 57.9085 183.7 56.7152 183.045 55.1966C182.391 53.678 182.064 52.0508 182.064 50.0983C182.064 48.2542 182.391 46.6271 183.045 45.1085C183.7 43.5898 184.573 42.3966 185.664 41.3118C186.754 40.2271 188.064 39.4678 189.591 38.9254C191.118 38.383 192.645 38.0576 194.391 38.0576C196.136 38.0576 197.773 38.383 199.3 39.0339C200.827 39.6847 202.136 40.5525 203.009 41.6373L198.973 44.8915ZM206.5 38.4915H211.954V42.2881H212.064C212.718 40.9864 213.591 39.9017 214.791 39.0339C215.991 38.1661 217.3 37.8407 218.827 37.8407H219.591C219.809 37.8407 220.027 37.9491 220.245 37.9491V43.1559C219.809 43.0474 219.482 43.0474 219.264 42.939H218.5C217.191 42.939 216.1 43.1559 215.336 43.6983C214.573 44.1322 213.918 44.783 213.482 45.4339C213.045 46.0847 212.718 46.7356 212.609 47.4949C212.5 48.1457 212.391 48.7966 212.391 49.122V61.3796H206.609V38.4915H206.5ZM244.682 61.3796H239.227V57.6915H239.118C238.573 58.8847 237.7 59.861 236.5 60.7288C235.191 61.5966 233.773 62.0305 232.027 62.0305C230.5 62.0305 229.191 61.8135 228.209 61.2712C227.118 60.7288 226.245 60.0779 225.591 59.2102C224.936 58.3424 224.391 57.3661 224.064 56.2813C223.736 55.1966 223.627 54.0034 223.627 52.8102V38.4915H229.409V51.183C229.409 51.8339 229.409 52.5932 229.518 53.2441C229.627 54.0034 229.845 54.6542 230.173 55.1966C230.5 55.739 230.936 56.2813 231.482 56.6068C232.027 57.0407 232.791 57.1491 233.664 57.1491C234.536 57.1491 235.3 56.9322 236.064 56.6068C236.718 56.2813 237.264 55.739 237.7 55.1966C238.136 54.6542 238.464 54.0034 238.682 53.2441C238.9 52.4847 239.009 51.7254 239.009 50.9661V38.4915H244.791V61.3796H244.682ZM276.318 37.8407C277.845 37.8407 279.154 38.0576 280.136 38.6C281.227 39.1424 282.1 39.7932 282.754 40.661C283.409 41.5288 283.954 42.5051 284.282 43.5898C284.609 44.6746 284.718 45.8678 284.718 47.061V61.3796H279.045V48.6881C279.045 48.0373 279.045 47.278 278.936 46.6271C278.827 45.8678 278.609 45.2169 278.282 44.6746C277.954 44.1322 277.518 43.5898 276.973 43.2644C276.427 42.8305 275.664 42.722 274.791 42.722C273.918 42.722 273.154 42.939 272.5 43.2644C271.845 43.6983 271.3 44.1322 270.973 44.783C270.536 45.4339 270.209 46.0847 270.1 46.8441C269.882 47.6034 269.773 48.3627 269.773 49.0135V61.4881H263.991V47.6034C263.991 46.1932 263.664 45 263.009 44.0237C262.354 43.0474 261.264 42.6135 259.736 42.6135C258.864 42.6135 258.1 42.8305 257.445 43.1559C256.791 43.4813 256.245 44.0237 255.918 44.5661C255.482 45.1085 255.264 45.7593 255.045 46.5186C254.827 47.278 254.718 48.0373 254.718 48.7966V61.3796H248.936V38.4915H254.391V42.1796H254.5C254.718 41.6373 255.045 41.0949 255.482 40.5525C255.918 40.0102 256.464 39.5763 257.009 39.1424C257.554 38.7085 258.318 38.383 259.082 38.1661C259.845 37.9491 260.718 37.8407 261.591 37.8407C263.336 37.8407 264.864 38.2746 266.064 39.0339C267.264 39.7932 268.136 40.878 268.791 42.1796C269.554 40.7695 270.536 39.6847 271.845 38.9254C273.045 38.2746 274.573 37.8407 276.318 37.8407Z" fill="#414042"/>
<path d="M122.391 24.0644H145.845V29.2712H128.5V38.4915H141.809V43.5898H128.5V61.3796H122.5L122.391 24.0644Z" fill="#414042"/>
<path d="M63.3727 51.8339L76.6818 32.6339L89.9909 51.8339H63.3727Z" fill="#EB1300"/>
<path d="M76.6818 17.7729C91.7363 17.7729 103.954 29.922 103.954 44.8915C103.954 59.861 91.7363 72.0102 76.6818 72.0102C61.6272 72.0102 49.409 59.861 49.409 44.8915C49.409 29.922 61.6272 17.7729 76.6818 17.7729ZM76.6818 13.2169C59.1181 13.2169 44.7181 27.4271 44.7181 45C44.7181 62.5729 59.009 76.7831 76.6818 76.7831C94.3545 76.7831 108.645 62.5729 108.645 45C108.645 27.4271 94.2454 13.2169 76.6818 13.2169Z" fill="#EB1300"/>
</g>
<defs>
<clipPath id="clip0_71_815">
<rect width="240" height="64" fill="white" transform="translate(44.5 13)"/>
</clipPath>
</defs>
</svg>
