<svg width="328" height="104" viewBox="0 0 328 104" fill="none" xmlns="http://www.w3.org/2000/svg">
<g filter="url(#filter0_d_4_4)">
<rect x="4" width="320" height="96" rx="25" fill="white"/>
</g>
<g clip-path="url(#clip0_4_4)">
<path fill-rule="evenodd" clip-rule="evenodd" d="M74.692 20C90.0268 20 102.384 32.4278 102.384 47.8503C102.384 59.3797 95.3866 69.262 85.4115 73.6043C84.816 73.9037 84.0716 74.0535 83.476 74.0535C80.6473 74.0535 78.2652 71.8075 78.2652 68.8128C78.2652 66.7166 79.6051 64.7701 81.3917 64.0214L81.8383 63.8717C87.9425 61.1765 92.1112 55.0374 92.1112 48C91.9623 38.2674 84.2204 30.4813 74.692 30.4813C65.1636 30.4813 57.4217 38.2674 57.4217 48C57.4217 55.1872 61.8882 61.4759 67.9923 64.0214L68.2901 64.1711C70.0767 65.0695 71.2677 66.8663 71.2677 68.8128C71.2677 71.6578 69.0345 74.0535 66.0569 74.0535C65.3125 74.0535 64.5681 73.9037 64.1214 73.6043C53.9974 69.262 47 59.3797 47 47.8503C47 32.4278 59.5061 20 74.692 20ZM74.692 37.369C80.4984 37.369 85.1137 42.0107 85.1137 47.8503C85.1137 53.6898 80.4984 58.3316 74.692 58.3316C68.8856 58.3316 64.2703 53.6898 64.2703 47.8503C64.2703 42.0107 69.0345 37.369 74.692 37.369Z" fill="#00AA13"/>
<path fill-rule="evenodd" clip-rule="evenodd" d="M203.921 29.2834V65.2192C203.921 72.7059 200.944 76 192.755 76H187.396V68.2139H192.011C194.393 68.2139 195.286 67.3155 195.286 65.0695V29.2834H203.921ZM151.068 29.2834V60.7273C151.068 69.4118 144.518 76 134.691 76C128.289 76 122.781 73.754 119.059 69.861L124.567 64.4706C126.95 66.8663 129.778 68.2139 134.542 68.2139C139.307 68.2139 142.88 65.2192 142.88 61.0267V57.8824H142.731C140.647 60.2781 137.073 61.6257 132.905 61.6257C123.525 61.6257 116.379 54.738 116.379 45.4545C116.379 36.4706 123.227 29.4332 132.607 29.4332C136.925 29.4332 140.498 30.7807 142.731 33.0267H142.88V29.2834H151.068ZM173.252 29.2834C183.227 29.2834 190.373 36.3209 190.373 45.4545C190.373 54.5882 183.227 61.6257 173.252 61.6257C163.277 61.6257 156.13 54.5882 156.13 45.4545C156.13 36.3209 163.277 29.2834 173.252 29.2834ZM225.36 29.2834C235.484 29.2834 241.886 36.6203 241.886 45.754V48.1497H217.172C217.321 51.2941 221.341 54.5882 226.403 54.5882C229.827 54.5882 232.06 53.6898 234.74 51.2941L240.397 55.3369C238.015 58.3316 233.251 61.4759 226.7 61.4759C215.981 61.4759 208.834 55.0374 208.834 45.3048C208.983 36.0214 215.832 29.2834 225.36 29.2834ZM255.137 20V42.0107H255.286L268.983 28.984H280L265.856 42.6096L280 61.4759H270.174L260.496 47.8503H260.348L255.137 52.7914V61.4759H246.948V20H255.137ZM173.252 36.7701C167.892 36.7701 164.617 40.5134 164.617 45.4545C164.617 50.3957 168.041 54.139 173.252 54.139C178.612 54.139 181.887 50.3957 181.887 45.4545C182.036 40.3636 178.612 36.7701 173.252 36.7701ZM134.245 36.7701C128.587 36.7701 125.014 40.2139 125.014 45.1551C125.014 50.5455 128.438 53.8396 133.947 53.8396C138.86 53.8396 142.582 50.8449 142.582 47.1016V43.508C142.582 39.9144 138.711 36.7701 134.245 36.7701ZM225.658 36.1711C221.043 36.1711 217.916 38.5668 217.47 42.1604H233.847C233.251 38.4171 230.125 36.1711 225.658 36.1711Z" fill="black"/>
</g>
<defs>
<filter id="filter0_d_4_4" x="0" y="0" width="328" height="104" filterUnits="userSpaceOnUse" color-interpolation-filters="sRGB">
<feFlood flood-opacity="0" result="BackgroundImageFix"/>
<feColorMatrix in="SourceAlpha" type="matrix" values="0 0 0 0 0 0 0 0 0 0 0 0 0 0 0 0 0 0 127 0" result="hardAlpha"/>
<feOffset dy="4"/>
<feGaussianBlur stdDeviation="2"/>
<feComposite in2="hardAlpha" operator="out"/>
<feColorMatrix type="matrix" values="0 0 0 0 0 0 0 0 0 0 0 0 0 0 0 0 0 0 0.25 0"/>
<feBlend mode="normal" in2="BackgroundImageFix" result="effect1_dropShadow_4_4"/>
<feBlend mode="normal" in="SourceGraphic" in2="effect1_dropShadow_4_4" result="shape"/>
</filter>
<clipPath id="clip0_4_4">
<rect width="233" height="56" fill="white" transform="translate(47 20)"/>
</clipPath>
</defs>
</svg>
