<svg width="329" height="90" viewBox="0 0 329 90" fill="none" xmlns="http://www.w3.org/2000/svg">
<rect x="1.5" y="1" width="326" height="88" rx="23" fill="white"/>
<rect x="1.5" y="1" width="326" height="88" rx="23" stroke="#BDBDBD" stroke-width="2"/>
<g clip-path="url(#clip0_71_936)">
<path fill-rule="evenodd" clip-rule="evenodd" d="M75.692 17C91.0268 17 103.384 29.4278 103.384 44.8503C103.384 56.3797 96.3866 66.262 86.4115 70.6043C85.816 70.9037 85.0716 71.0535 84.476 71.0535C81.6473 71.0535 79.2652 68.8075 79.2652 65.8128C79.2652 63.7166 80.6051 61.7701 82.3917 61.0214L82.8383 60.8717C88.9425 58.1765 93.1112 52.0374 93.1112 45C92.9623 35.2674 85.2204 27.4813 75.692 27.4813C66.1636 27.4813 58.4217 35.2674 58.4217 45C58.4217 52.1872 62.8882 58.4759 68.9923 61.0214L69.2901 61.1711C71.0767 62.0695 72.2677 63.8663 72.2677 65.8128C72.2677 68.6578 70.0345 71.0535 67.0569 71.0535C66.3125 71.0535 65.5681 70.9037 65.1214 70.6043C54.9974 66.262 48 56.3797 48 44.8503C48 29.4278 60.5061 17 75.692 17ZM75.692 34.369C81.4984 34.369 86.1137 39.0107 86.1137 44.8503C86.1137 50.6898 81.4984 55.3316 75.692 55.3316C69.8856 55.3316 65.2703 50.6898 65.2703 44.8503C65.2703 39.0107 70.0345 34.369 75.692 34.369Z" fill="#00AA13"/>
<path fill-rule="evenodd" clip-rule="evenodd" d="M204.921 26.2834V62.2192C204.921 69.7059 201.944 73 193.755 73H188.396V65.2139H193.011C195.393 65.2139 196.286 64.3155 196.286 62.0695V26.2834H204.921ZM152.068 26.2834V57.7273C152.068 66.4118 145.518 73 135.691 73C129.289 73 123.781 70.754 120.059 66.861L125.567 61.4706C127.95 63.8663 130.778 65.2139 135.542 65.2139C140.307 65.2139 143.88 62.2192 143.88 58.0267V54.8824H143.731C141.647 57.2781 138.073 58.6257 133.905 58.6257C124.525 58.6257 117.379 51.738 117.379 42.4545C117.379 33.4706 124.227 26.4332 133.607 26.4332C137.925 26.4332 141.498 27.7807 143.731 30.0267H143.88V26.2834H152.068ZM174.252 26.2834C184.227 26.2834 191.373 33.3209 191.373 42.4545C191.373 51.5882 184.227 58.6257 174.252 58.6257C164.277 58.6257 157.13 51.5882 157.13 42.4545C157.13 33.3209 164.277 26.2834 174.252 26.2834ZM226.36 26.2834C236.484 26.2834 242.886 33.6203 242.886 42.754V45.1497H218.172C218.321 48.2941 222.341 51.5882 227.403 51.5882C230.827 51.5882 233.06 50.6898 235.74 48.2941L241.397 52.3369C239.015 55.3316 234.251 58.4759 227.7 58.4759C216.981 58.4759 209.834 52.0374 209.834 42.3048C209.983 33.0214 216.832 26.2834 226.36 26.2834ZM256.137 17V39.0107H256.286L269.983 25.984H281L266.856 39.6096L281 58.4759H271.174L261.496 44.8503H261.348L256.137 49.7914V58.4759H247.948V17H256.137ZM174.252 33.7701C168.892 33.7701 165.617 37.5134 165.617 42.4545C165.617 47.3957 169.041 51.139 174.252 51.139C179.612 51.139 182.887 47.3957 182.887 42.4545C183.036 37.3636 179.612 33.7701 174.252 33.7701ZM135.245 33.7701C129.587 33.7701 126.014 37.2139 126.014 42.1551C126.014 47.5455 129.438 50.8396 134.947 50.8396C139.86 50.8396 143.582 47.8449 143.582 44.1016V40.508C143.582 36.9144 139.711 33.7701 135.245 33.7701ZM226.658 33.1711C222.043 33.1711 218.916 35.5668 218.47 39.1604H234.847C234.251 35.4171 231.125 33.1711 226.658 33.1711Z" fill="black"/>
</g>
<defs>
<clipPath id="clip0_71_936">
<rect width="233" height="56" fill="white" transform="translate(48 17)"/>
</clipPath>
</defs>
</svg>
