<svg width="329" height="90" viewBox="0 0 329 90" fill="none" xmlns="http://www.w3.org/2000/svg">
<rect x="1.5" y="1" width="326" height="88" rx="23" fill="white"/>
<rect x="1.5" y="1" width="326" height="88" rx="23" stroke="#BDBDBD" stroke-width="2"/>
<g clip-path="url(#clip0_71_920)">
<path d="M91.0175 36.2659V42.7818H106.849C106.429 46.3864 105.168 49.1591 103.206 50.9614C100.965 53.1795 97.322 55.675 91.0175 55.675C81.3506 55.675 73.7852 47.9114 73.7852 38.3455C73.7852 28.7795 81.2105 21.0159 91.0175 21.0159C96.2012 21.0159 100.124 23.0955 102.926 25.7295L107.549 21.1545C103.627 17.4114 98.3027 14.5 91.0175 14.5C77.708 14.5 66.5 25.175 66.5 38.3455C66.5 51.5159 77.708 62.1909 91.0175 62.1909C98.1626 62.1909 103.627 59.8341 107.83 55.5364C112.173 51.2386 113.574 45.1386 113.574 40.2864C113.574 38.7614 113.434 37.375 113.293 36.2659H91.0175Z" fill="#4285F4"/>
<path d="M133.188 30.8591C124.642 30.8591 117.496 37.375 117.496 46.2477C117.496 55.1205 124.501 61.6364 133.188 61.6364C141.874 61.6364 148.879 55.2591 148.879 46.3864C148.879 37.375 141.874 30.8591 133.188 30.8591ZM133.188 55.675C128.424 55.675 124.361 51.7932 124.361 46.3864C124.361 40.8409 128.424 37.0977 133.188 37.0977C137.951 37.0977 142.014 40.8409 142.014 46.3864C142.014 51.7932 137.951 55.675 133.188 55.675Z" fill="#EA4335"/>
<path d="M209.822 34.325H209.542C208.001 32.5227 205.059 30.8591 201.276 30.8591C193.431 30.8591 186.706 37.5136 186.706 46.2477C186.706 54.8432 193.431 61.6364 201.276 61.6364C205.059 61.6364 208.001 59.9727 209.542 58.1705H209.822V60.3886C209.822 66.2114 206.6 69.4 201.556 69.4C197.353 69.4 194.832 66.4886 193.711 63.8546L187.827 66.35C189.508 70.3705 194.131 75.5 201.697 75.5C209.682 75.5 216.547 70.7864 216.547 59.4182V31.6909H210.103V34.325H209.822ZM201.977 55.675C197.213 55.675 193.711 51.6546 193.711 46.3864C193.711 40.9796 197.353 37.0977 201.977 37.0977C206.6 37.0977 210.243 41.1182 210.243 46.525C210.383 51.7932 206.74 55.675 201.977 55.675Z" fill="#4285F4"/>
<path d="M168.073 30.8591C159.526 30.8591 152.381 37.375 152.381 46.2477C152.381 55.1205 159.386 61.6364 168.073 61.6364C176.759 61.6364 183.764 55.2591 183.764 46.3864C183.764 37.375 176.759 30.8591 168.073 30.8591ZM168.073 55.675C163.309 55.675 159.246 51.7932 159.246 46.3864C159.246 40.8409 163.309 37.0977 168.073 37.0977C172.836 37.0977 176.899 40.8409 176.899 46.3864C176.899 51.7932 172.836 55.675 168.073 55.675Z" fill="#FBBC05"/>
<path d="M221.731 15.1932H228.456V61.775H221.731V15.1932Z" fill="#34A853"/>
<path d="M249.191 55.675C245.688 55.675 243.306 54.15 241.625 50.9614L262.5 42.5046L261.8 40.7023C260.539 37.2364 256.476 30.8591 248.49 30.8591C240.504 30.8591 233.78 37.0977 233.78 46.2477C233.78 54.8432 240.364 61.6364 249.191 61.6364C256.336 61.6364 260.399 57.3386 262.22 54.8432L256.896 51.3773C255.075 54.0114 252.693 55.675 249.191 55.675ZM248.77 36.6818C251.572 36.6818 253.954 38.0682 254.654 40.0091L240.644 45.8318C240.504 39.4546 245.268 36.6818 248.77 36.6818Z" fill="#EA4335"/>
</g>
<defs>
<clipPath id="clip0_71_920">
<rect width="196" height="61" fill="white" transform="translate(66.5 14.5)"/>
</clipPath>
</defs>
</svg>
