<svg width="328" height="104" viewBox="0 0 328 104" fill="none" xmlns="http://www.w3.org/2000/svg">
<g filter="url(#filter0_d_4_2)">
<rect x="4" width="320" height="96" rx="25" fill="white"/>
</g>
<g clip-path="url(#clip0_4_2)">
<path d="M77.7706 37.6909V45.3818H96.3481C95.8549 49.6364 94.3753 52.9091 92.0736 55.0364C89.4432 57.6545 85.1687 60.6 77.7706 60.6C66.4267 60.6 57.549 51.4364 57.549 40.1455C57.549 28.8545 66.2623 19.6909 77.7706 19.6909C83.8535 19.6909 88.4568 22.1455 91.7448 25.2545L97.1701 19.8545C92.5668 15.4364 86.3195 12 77.7706 12C62.1523 12 49 24.6 49 40.1455C49 55.6909 62.1523 68.2909 77.7706 68.2909C86.1551 68.2909 92.5668 65.5091 97.4989 60.4364C102.595 55.3636 104.239 48.1636 104.239 42.4364C104.239 40.6364 104.075 39 103.911 37.6909H77.7706Z" fill="#4285F4"/>
<path d="M127.256 31.3091C117.227 31.3091 108.843 39 108.843 49.4727C108.843 59.9455 117.063 67.6364 127.256 67.6364C137.449 67.6364 145.669 60.1091 145.669 49.6364C145.669 39 137.449 31.3091 127.256 31.3091ZM127.256 60.6C121.666 60.6 116.899 56.0182 116.899 49.6364C116.899 43.0909 121.666 38.6727 127.256 38.6727C132.846 38.6727 137.613 43.0909 137.613 49.6364C137.613 56.0182 132.846 60.6 127.256 60.6Z" fill="#EA4335"/>
<path d="M217.184 35.4H216.856C215.047 33.2727 211.595 31.3091 207.156 31.3091C197.949 31.3091 190.058 39.1636 190.058 49.4727C190.058 59.6182 197.949 67.6364 207.156 67.6364C211.595 67.6364 215.047 65.6727 216.856 63.5455H217.184V66.1636C217.184 73.0364 213.403 76.8 207.485 76.8C202.553 76.8 199.593 73.3636 198.278 70.2546L191.373 73.2C193.346 77.9455 198.771 84 207.649 84C217.02 84 225.076 78.4364 225.076 65.0182V32.2909H217.513V35.4H217.184ZM207.978 60.6C202.388 60.6 198.278 55.8546 198.278 49.6364C198.278 43.2546 202.553 38.6727 207.978 38.6727C213.403 38.6727 217.678 43.4182 217.678 49.8C217.842 56.0182 213.568 60.6 207.978 60.6Z" fill="#4285F4"/>
<path d="M168.192 31.3091C158.164 31.3091 149.779 39 149.779 49.4727C149.779 59.9455 157.999 67.6364 168.192 67.6364C178.385 67.6364 186.605 60.1091 186.605 49.6364C186.605 39 178.385 31.3091 168.192 31.3091ZM168.192 60.6C162.603 60.6 157.835 56.0182 157.835 49.6364C157.835 43.0909 162.603 38.6727 168.192 38.6727C173.782 38.6727 178.55 43.0909 178.55 49.6364C178.55 56.0182 173.782 60.6 168.192 60.6Z" fill="#FBBC05"/>
<path d="M231.159 12.8182H239.05V67.8H231.159V12.8182Z" fill="#34A853"/>
<path d="M263.382 60.6C259.272 60.6 256.477 58.8 254.504 55.0364L279 45.0546L278.178 42.9273C276.698 38.8364 271.931 31.3091 262.56 31.3091C253.189 31.3091 245.297 38.6727 245.297 49.4727C245.297 59.6182 253.024 67.6364 263.382 67.6364C271.766 67.6364 276.534 62.5636 278.671 59.6182L272.424 55.5273C270.287 58.6364 267.492 60.6 263.382 60.6ZM262.889 38.1818C266.177 38.1818 268.971 39.8182 269.793 42.1091L253.353 48.9818C253.189 41.4546 258.778 38.1818 262.889 38.1818Z" fill="#EA4335"/>
</g>
<defs>
<filter id="filter0_d_4_2" x="0" y="0" width="328" height="104" filterUnits="userSpaceOnUse" color-interpolation-filters="sRGB">
<feFlood flood-opacity="0" result="BackgroundImageFix"/>
<feColorMatrix in="SourceAlpha" type="matrix" values="0 0 0 0 0 0 0 0 0 0 0 0 0 0 0 0 0 0 127 0" result="hardAlpha"/>
<feOffset dy="4"/>
<feGaussianBlur stdDeviation="2"/>
<feComposite in2="hardAlpha" operator="out"/>
<feColorMatrix type="matrix" values="0 0 0 0 0 0 0 0 0 0 0 0 0 0 0 0 0 0 0.25 0"/>
<feBlend mode="normal" in2="BackgroundImageFix" result="effect1_dropShadow_4_2"/>
<feBlend mode="normal" in="SourceGraphic" in2="effect1_dropShadow_4_2" result="shape"/>
</filter>
<clipPath id="clip0_4_2">
<rect width="230" height="72" fill="white" transform="translate(49 12)"/>
</clipPath>
</defs>
</svg>
