<svg width="329" height="90" viewBox="0 0 329 90" fill="none" xmlns="http://www.w3.org/2000/svg">
<rect x="1.5" y="1" width="326" height="88" rx="23" fill="white"/>
<rect x="1.5" y="1" width="326" height="88" rx="23" stroke="#BDBDBD" stroke-width="2"/>
<g clip-path="url(#clip0_71_926)">
<path d="M121.712 69.0971H94.5V73H121.712V69.0971Z" fill="black"/>
<path d="M121.712 61.6421H94.5V65.545H121.712V61.6421Z" fill="black"/>
<path d="M113.969 54.1872H102.287V58.0901H113.969V54.1872Z" fill="black"/>
<path d="M113.969 46.776H102.287V50.6789H113.969V46.776Z" fill="black"/>
<path d="M113.969 39.3211H102.287V43.224H113.969V39.3211Z" fill="black"/>
<path d="M113.969 31.8661H102.287V35.769H113.969V31.8661Z" fill="black"/>
<path d="M121.712 24.455H94.5V28.3579H121.712V24.455Z" fill="black"/>
<path d="M121.712 17H94.5V20.9029H121.712V17Z" fill="black"/>
<path d="M125.606 65.545H167.125C167.825 64.3171 168.35 63.0016 168.7 61.6421H125.606V65.545Z" fill="black"/>
<path d="M163.844 46.776H133.394V50.6789H167.125C166.25 49.1879 165.156 47.8724 163.844 46.776Z" fill="black"/>
<path d="M133.394 39.3211V43.224H163.844C165.156 42.1277 166.25 40.8121 167.081 39.3211H133.394Z" fill="black"/>
<path d="M167.125 24.455H125.606V28.3579H168.656C168.35 26.9546 167.825 25.639 167.125 24.455Z" fill="black"/>
<path d="M154.262 17H125.606V20.9029H164.281C161.525 18.4033 157.937 17 154.262 17Z" fill="black"/>
<path d="M145.075 31.8661H133.394V35.769H145.075V31.8661Z" fill="black"/>
<path d="M156.012 35.769H168.569C168.919 34.4973 169.094 33.1817 169.094 31.8661H156.012V35.769Z" fill="black"/>
<path d="M145.075 54.1872H133.394V58.0901H145.075V54.1872Z" fill="black"/>
<path d="M156.012 54.1872V58.0901H169.094C169.094 56.7745 168.919 55.4589 168.569 54.1872H156.012Z" fill="black"/>
<path d="M125.606 72.9561L154.262 73C157.981 73 161.569 71.5967 164.281 69.0971H125.606V72.9561Z" fill="black"/>
<path d="M203.394 73L204.75 69.0971H202.037L203.394 73Z" fill="black"/>
<path d="M200.812 65.545H205.975L207.331 61.6421H199.412L200.812 65.545Z" fill="black"/>
<path d="M198.188 58.0901H208.6L209.956 54.1872H196.831L198.188 58.0901Z" fill="black"/>
<path d="M195.563 50.6789H211.181L212.581 46.776H194.206L195.563 50.6789Z" fill="black"/>
<path d="M180.075 35.769H201.075L199.719 31.8661H180.075V35.769Z" fill="black"/>
<path d="M208.294 28.3579H234.5V24.455H209.65L208.294 28.3579Z" fill="black"/>
<path d="M212.231 17L210.875 20.9029H234.5V17H212.231Z" fill="black"/>
<path d="M191.712 69.0971H172.287V73H191.712V69.0971Z" fill="black"/>
<path d="M191.712 61.6421H172.287V65.545H191.712V61.6421Z" fill="black"/>
<path d="M191.756 54.1872H180.075V58.0901H191.756V54.1872Z" fill="black"/>
<path d="M191.756 46.776H180.075V50.6789H191.756V46.776Z" fill="black"/>
<path d="M226.713 31.8661H207.069L205.713 35.769H226.713V31.8661Z" fill="black"/>
<path d="M215.075 43.224H226.712V39.3211H215.075H204.487L203.394 42.4785L202.3 39.3211H191.712H180.075V43.224H191.712V39.628L192.981 43.224H213.806L215.075 39.628V43.224Z" fill="black"/>
<path d="M226.756 46.776H215.075V50.6789H226.756V46.776Z" fill="black"/>
<path d="M226.756 54.1872H215.075V58.0901H226.756V54.1872Z" fill="black"/>
<path d="M234.5 61.6421H215.075V65.545H234.5V61.6421Z" fill="black"/>
<path d="M234.5 69.0971H215.075V73H234.5V69.0971Z" fill="black"/>
<path d="M198.494 28.3579L197.137 24.455H172.287V28.3579H198.494Z" fill="black"/>
<path d="M195.912 20.9029L194.556 17H172.287V20.9029H195.912Z" fill="black"/>
</g>
<defs>
<clipPath id="clip0_71_926">
<rect width="140" height="56" fill="white" transform="translate(94.5 17)"/>
</clipPath>
</defs>
</svg>
