<svg width="328" height="104" viewBox="0 0 328 104" fill="none" xmlns="http://www.w3.org/2000/svg">
<g filter="url(#filter0_d_7_254)">
<rect x="4" width="320" height="96" rx="25" fill="white"/>
</g>
<path fill-rule="evenodd" clip-rule="evenodd" d="M66.7124 66.6442L52.8831 58.5825V74.7059L66.7124 66.6442ZM66.7124 27.3859L52.8831 19.3242V35.4476L66.7124 27.3859ZM46.0583 15.4276L19 31.2021V62.8297L46.0583 78.6025V54.6055L33.0396 47.0142L46.0583 39.4246V15.4276ZM46.1523 47.0159L73.1713 62.7647V31.2654L46.1523 47.0159Z" fill="black"/>
<path fill-rule="evenodd" clip-rule="evenodd" d="M239.625 31.2397H237.009C236.436 31.2397 235.96 31.7221 235.96 32.2986V44.5989H227.533V32.2986C227.533 31.7221 227.106 31.2414 226.487 31.2414H223.87C223.297 31.2414 222.82 31.7221 222.82 32.2986V61.8068C222.82 62.385 223.297 62.8657 223.868 62.8657H226.487C227.106 62.8657 227.533 62.385 227.533 61.8068V49.3576H235.959V61.8068C235.959 62.385 236.434 62.8657 237.007 62.8657H239.623C240.242 62.8657 240.67 62.385 240.67 61.8068V32.3003C240.67 31.7238 240.242 31.2432 239.623 31.2432M176.505 59.1641C176.505 58.5876 176.028 58.107 175.457 58.107H163.637V49.4312H175.457C176.028 49.4312 176.503 49.0001 176.503 48.3741V45.7313C176.503 45.1549 176.028 44.6742 175.457 44.6742H163.637V35.9984H175.457C176.028 35.9984 176.503 35.5657 176.503 34.9413V32.3003C176.503 31.7238 176.028 31.2432 175.457 31.2432H159.972C159.399 31.2432 158.924 31.7221 158.924 32.3003V61.8068C158.924 62.385 159.399 62.8657 159.972 62.8657H175.457C176.028 62.8657 176.505 62.4329 176.505 61.8068V59.1641ZM263.101 59.1641C263.101 58.5876 262.624 58.107 262.052 58.107H250.232V49.4312H262.052C262.624 49.4312 263.099 49.0001 263.099 48.3741V45.7313C263.099 45.1549 262.624 44.6742 262.052 44.6742H250.232V35.9984H262.052C262.624 35.9984 263.099 35.5657 263.099 34.9413V32.3003C263.099 31.7238 262.624 31.2432 262.052 31.2432H249.188H246.568C245.995 31.2432 245.52 31.7221 245.52 32.3003V61.8068C245.52 62.385 245.995 62.8657 246.568 62.8657H262.052C262.624 62.8657 263.101 62.4329 263.101 61.8068V59.1641ZM307.711 59.1641C307.711 58.5876 307.236 58.107 306.664 58.107H294.843V49.4312H306.664C307.236 49.4312 307.711 49.0001 307.711 48.3741V45.7313C307.711 45.1549 307.234 44.6742 306.664 44.6742H294.843V35.9984H306.664C307.234 35.9984 307.711 35.5657 307.711 34.9413V32.3003C307.711 31.7238 307.234 31.2432 306.664 31.2432H293.798H291.18C290.607 31.2432 290.132 31.7221 290.132 32.3003V61.8068C290.132 62.385 290.607 62.8657 291.178 62.8657H306.664C307.236 62.8657 307.711 62.4329 307.711 61.8068V59.1641ZM185.057 39.1971V41.0017C185.057 42.3804 186.374 43.1878 187.88 43.8053L194.137 46.4651C196.489 47.5103 198.136 49.3628 198.136 52.2125V55.5839C198.136 58.3875 192.301 63.0897 189.197 63.0897C187.08 63.0897 183.882 61.5691 181.389 60.1921C180.825 59.9082 180.448 59.241 180.777 58.4816L181.577 56.8668C181.905 56.2014 182.612 56.0595 183.224 56.3913C185.245 57.4364 187.926 58.7193 189.197 58.7193C190.608 58.7193 193.573 56.2972 193.573 54.9203V52.83C193.573 51.2153 192.349 50.3121 190.656 49.6484L184.823 47.1767C182.565 46.2274 180.495 44.2808 180.495 41.6209V38.5334C180.495 35.4442 186.656 30.9797 189.621 30.9797C191.596 30.9797 194.796 32.4525 196.913 33.5934C197.571 33.9253 197.759 34.6864 197.477 35.2543L196.725 36.8708C196.489 37.4404 195.736 37.6303 195.078 37.3446C193.479 36.5851 190.798 35.3501 189.621 35.3501C188.257 35.3501 185.057 37.6286 185.057 39.1971ZM276.93 35.3741H272.313V45.9503H276.976C278.929 45.9503 281.214 42.442 281.214 40.5672C281.214 38.7404 278.833 35.3741 276.93 35.3741ZM276.738 50.0829H272.311V61.8103C272.311 62.4346 271.884 62.8674 271.217 62.8674H268.694C268.123 62.8674 267.6 62.4346 267.6 61.8103V33.4514C267.6 32.3464 268.886 31.2414 269.932 31.2414H277.549C281.022 31.2414 285.632 36.7117 285.632 40.3158C285.632 42.7191 283.546 46.3317 281.309 47.7258C283.117 48.6871 285.591 51.2341 285.591 53.5895V61.8085C285.591 62.385 285.118 62.8657 284.545 62.8657H281.928C281.356 62.8657 280.88 62.385 280.88 61.8085V54.3096C280.88 52.6282 278.548 50.0829 276.738 50.0829ZM211.142 35.3741H206.525V45.9503H211.19C213.141 45.9503 215.154 42.442 215.154 40.5672C215.154 38.7404 213.046 35.3741 211.142 35.3741ZM210.952 50.0829H206.525V61.8103C206.525 62.4346 206.098 62.8674 205.431 62.8674H202.907C202.335 62.8674 201.812 62.4346 201.812 61.8103V33.4514C201.812 32.3464 203.098 31.2414 204.145 31.2414H211.761C215.236 31.2414 219.634 36.8828 219.634 40.4868C219.634 42.8901 217.871 46.123 215.835 47.9926C214.833 48.9112 213.242 50.0795 210.952 50.0795M123.25 63.1445C120.117 63.1445 114.254 59.1418 114.254 55.6866V32.5021C114.254 31.9257 114.774 31.4501 115.346 31.4501H117.859C118.472 31.4501 118.946 31.9257 118.946 32.5021V55.0657C118.946 56.7454 121.78 58.7809 123.25 58.7809C124.723 58.7809 127.575 56.4888 127.575 54.8091V32.2455C127.575 31.6691 128.003 31.1936 128.575 31.1936H131.18C131.753 31.1936 132.273 31.6691 132.273 32.2455V55.43C132.273 58.7826 126.381 63.1445 123.25 63.1445ZM145.934 58.7313H141.478V48.1586H145.982C147.933 48.1586 150.22 51.4821 150.22 53.3568C150.22 55.1837 147.839 58.7313 145.934 58.7313ZM141.478 35.3741H145.934C147.839 35.3741 150.22 38.128 150.22 39.9532C150.22 41.8279 147.933 44.888 145.982 44.888H141.478V35.3741ZM150.529 46.525C152.698 45.0813 154.883 42.2795 154.883 39.9532C154.883 36.3491 150.028 31.2414 146.555 31.2414H139.099C138.051 31.2414 136.767 32.3464 136.767 33.4514V61.8085C136.767 62.4329 137.29 62.8657 137.861 62.8657H146.714C150.189 62.8657 154.883 56.9609 154.883 53.3551C154.883 51.0305 152.698 47.9841 150.529 46.525ZM99.6994 47.228L110.062 35.1107C110.435 34.6728 110.421 34.0279 109.955 33.6191L107.973 31.8897C107.54 31.5151 106.868 31.5647 106.495 32.0009L97.4319 42.5959V32.3003C97.4319 31.7238 97.0043 31.2432 96.387 31.2432H93.7672C93.196 31.2397 92.7206 31.7187 92.7206 32.2986V61.8085C92.7206 62.385 93.196 62.8657 93.7672 62.8657H96.3887C97.0061 62.8657 97.4353 62.385 97.4353 61.8085V51.8584L106.495 62.4568C106.868 62.893 107.54 62.9426 107.973 62.5646L109.955 60.837C110.423 60.4282 110.435 59.7833 110.062 59.3471L99.6994 47.228Z" fill="black"/>
<defs>
<filter id="filter0_d_7_254" x="0" y="0" width="328" height="104" filterUnits="userSpaceOnUse" color-interpolation-filters="sRGB">
<feFlood flood-opacity="0" result="BackgroundImageFix"/>
<feColorMatrix in="SourceAlpha" type="matrix" values="0 0 0 0 0 0 0 0 0 0 0 0 0 0 0 0 0 0 127 0" result="hardAlpha"/>
<feOffset dy="4"/>
<feGaussianBlur stdDeviation="2"/>
<feComposite in2="hardAlpha" operator="out"/>
<feColorMatrix type="matrix" values="0 0 0 0 0 0 0 0 0 0 0 0 0 0 0 0 0 0 0.25 0"/>
<feBlend mode="normal" in2="BackgroundImageFix" result="effect1_dropShadow_7_254"/>
<feBlend mode="normal" in="SourceGraphic" in2="effect1_dropShadow_7_254" result="shape"/>
</filter>
</defs>
</svg>
