<svg width="329" height="90" viewBox="0 0 329 90" fill="none" xmlns="http://www.w3.org/2000/svg">
<rect x="1.5" y="1" width="326" height="88" rx="23" fill="white"/>
<rect x="1.5" y="1" width="326" height="88" rx="23" stroke="#BDBDBD" stroke-width="2"/>
<g clip-path="url(#clip0_71_1120)">
<path fill-rule="evenodd" clip-rule="evenodd" d="M67.7124 64.1442L53.8831 56.0825V72.2059L67.7124 64.1442ZM67.7124 24.8859L53.8831 16.8242V32.9476L67.7124 24.8859ZM47.0583 12.9276L20 28.7021V60.3297L47.0583 76.1025V52.1055L34.0396 44.5142L47.0583 36.9246V12.9276ZM47.1523 44.5159L74.1713 60.2647V28.7654L47.1523 44.5159Z" fill="black"/>
<path fill-rule="evenodd" clip-rule="evenodd" d="M240.625 28.7397H238.009C237.436 28.7397 236.96 29.2221 236.96 29.7986V42.0989H228.533V29.7986C228.533 29.2221 228.106 28.7414 227.487 28.7414H224.87C224.297 28.7414 223.82 29.2221 223.82 29.7986V59.3068C223.82 59.885 224.297 60.3657 224.868 60.3657H227.487C228.106 60.3657 228.533 59.885 228.533 59.3068V46.8576H236.959V59.3068C236.959 59.885 237.434 60.3657 238.007 60.3657H240.623C241.242 60.3657 241.67 59.885 241.67 59.3068V29.8003C241.67 29.2238 241.242 28.7432 240.623 28.7432M177.505 56.6641C177.505 56.0876 177.028 55.607 176.457 55.607H164.637V46.9312H176.457C177.028 46.9312 177.503 46.5001 177.503 45.8741V43.2313C177.503 42.6549 177.028 42.1742 176.457 42.1742H164.637V33.4984H176.457C177.028 33.4984 177.503 33.0657 177.503 32.4413V29.8003C177.503 29.2238 177.028 28.7432 176.457 28.7432H160.972C160.399 28.7432 159.924 29.2221 159.924 29.8003V59.3068C159.924 59.885 160.399 60.3657 160.972 60.3657H176.457C177.028 60.3657 177.505 59.9329 177.505 59.3068V56.6641ZM264.101 56.6641C264.101 56.0876 263.624 55.607 263.052 55.607H251.232V46.9312H263.052C263.624 46.9312 264.099 46.5001 264.099 45.8741V43.2313C264.099 42.6549 263.624 42.1742 263.052 42.1742H251.232V33.4984H263.052C263.624 33.4984 264.099 33.0657 264.099 32.4413V29.8003C264.099 29.2238 263.624 28.7432 263.052 28.7432H250.188H247.568C246.995 28.7432 246.52 29.2221 246.52 29.8003V59.3068C246.52 59.885 246.995 60.3657 247.568 60.3657H263.052C263.624 60.3657 264.101 59.9329 264.101 59.3068V56.6641ZM308.711 56.6641C308.711 56.0876 308.236 55.607 307.664 55.607H295.843V46.9312H307.664C308.236 46.9312 308.711 46.5001 308.711 45.8741V43.2313C308.711 42.6549 308.234 42.1742 307.664 42.1742H295.843V33.4984H307.664C308.234 33.4984 308.711 33.0657 308.711 32.4413V29.8003C308.711 29.2238 308.234 28.7432 307.664 28.7432H294.798H292.18C291.607 28.7432 291.132 29.2221 291.132 29.8003V59.3068C291.132 59.885 291.607 60.3657 292.178 60.3657H307.664C308.236 60.3657 308.711 59.9329 308.711 59.3068V56.6641ZM186.057 36.6971V38.5017C186.057 39.8804 187.374 40.6878 188.88 41.3053L195.137 43.9651C197.489 45.0103 199.136 46.8628 199.136 49.7125V53.0839C199.136 55.8875 193.301 60.5897 190.197 60.5897C188.08 60.5897 184.882 59.0691 182.389 57.6921C181.825 57.4082 181.448 56.741 181.777 55.9816L182.577 54.3668C182.905 53.7014 183.612 53.5595 184.224 53.8913C186.245 54.9364 188.926 56.2193 190.197 56.2193C191.608 56.2193 194.573 53.7972 194.573 52.4203V50.33C194.573 48.7153 193.349 47.8121 191.656 47.1484L185.823 44.6767C183.565 43.7274 181.495 41.7808 181.495 39.1209V36.0334C181.495 32.9442 187.656 28.4797 190.621 28.4797C192.596 28.4797 195.796 29.9525 197.913 31.0934C198.571 31.4253 198.759 32.1864 198.477 32.7543L197.725 34.3708C197.489 34.9404 196.736 35.1303 196.078 34.8446C194.479 34.0851 191.798 32.8501 190.621 32.8501C189.257 32.8501 186.057 35.1286 186.057 36.6971ZM277.93 32.8741H273.313V43.4503H277.976C279.929 43.4503 282.214 39.942 282.214 38.0672C282.214 36.2404 279.833 32.8741 277.93 32.8741ZM277.738 47.5829H273.311V59.3103C273.311 59.9346 272.884 60.3674 272.217 60.3674H269.694C269.123 60.3674 268.6 59.9346 268.6 59.3103V30.9514C268.6 29.8464 269.886 28.7414 270.932 28.7414H278.549C282.022 28.7414 286.632 34.2117 286.632 37.8158C286.632 40.2191 284.546 43.8317 282.309 45.2258C284.117 46.1871 286.591 48.7341 286.591 51.0895V59.3085C286.591 59.885 286.118 60.3657 285.545 60.3657H282.928C282.356 60.3657 281.88 59.885 281.88 59.3085V51.8096C281.88 50.1282 279.548 47.5829 277.738 47.5829ZM212.142 32.8741H207.525V43.4503H212.19C214.141 43.4503 216.154 39.942 216.154 38.0672C216.154 36.2404 214.046 32.8741 212.142 32.8741ZM211.952 47.5829H207.525V59.3103C207.525 59.9346 207.098 60.3674 206.431 60.3674H203.907C203.335 60.3674 202.812 59.9346 202.812 59.3103V30.9514C202.812 29.8464 204.098 28.7414 205.145 28.7414H212.761C216.236 28.7414 220.634 34.3828 220.634 37.9868C220.634 40.3901 218.871 43.623 216.835 45.4926C215.833 46.4112 214.242 47.5795 211.952 47.5795M124.25 60.6445C121.117 60.6445 115.254 56.6418 115.254 53.1866V30.0021C115.254 29.4257 115.774 28.9501 116.346 28.9501H118.859C119.472 28.9501 119.946 29.4257 119.946 30.0021V52.5657C119.946 54.2454 122.78 56.2809 124.25 56.2809C125.723 56.2809 128.575 53.9888 128.575 52.3091V29.7455C128.575 29.1691 129.003 28.6936 129.575 28.6936H132.18C132.753 28.6936 133.273 29.1691 133.273 29.7455V52.93C133.273 56.2826 127.381 60.6445 124.25 60.6445ZM146.934 56.2313H142.478V45.6586H146.982C148.933 45.6586 151.22 48.9821 151.22 50.8568C151.22 52.6837 148.839 56.2313 146.934 56.2313ZM142.478 32.8741H146.934C148.839 32.8741 151.22 35.628 151.22 37.4532C151.22 39.3279 148.933 42.388 146.982 42.388H142.478V32.8741ZM151.529 44.025C153.698 42.5813 155.883 39.7795 155.883 37.4532C155.883 33.8491 151.028 28.7414 147.555 28.7414H140.099C139.051 28.7414 137.767 29.8464 137.767 30.9514V59.3085C137.767 59.9329 138.29 60.3657 138.861 60.3657H147.714C151.189 60.3657 155.883 54.4609 155.883 50.8551C155.883 48.5305 153.698 45.4841 151.529 44.025ZM100.699 44.728L111.062 32.6107C111.435 32.1728 111.421 31.5279 110.955 31.1191L108.973 29.3897C108.54 29.0151 107.868 29.0647 107.495 29.5009L98.4319 40.0959V29.8003C98.4319 29.2238 98.0043 28.7432 97.387 28.7432H94.7672C94.196 28.7397 93.7206 29.2187 93.7206 29.7986V59.3085C93.7206 59.885 94.196 60.3657 94.7672 60.3657H97.3887C98.0061 60.3657 98.4353 59.885 98.4353 59.3085V49.3584L107.495 59.9568C107.868 60.393 108.54 60.4426 108.973 60.0646L110.955 58.337C111.423 57.9282 111.435 57.2833 111.062 56.8471L100.699 44.728Z" fill="black"/>
</g>
<defs>
<clipPath id="clip0_71_1120">
<rect width="289" height="65" fill="white" transform="translate(20 12.5)"/>
</clipPath>
</defs>
</svg>
