<svg width="329" height="90" viewBox="0 0 329 90" fill="none" xmlns="http://www.w3.org/2000/svg">
<rect x="1.5" y="1" width="326" height="88" rx="23" fill="white"/>
<rect x="1.5" y="1" width="326" height="88" rx="23" stroke="#BDBDBD" stroke-width="2"/>
<g clip-path="url(#clip0_71_1055)">
<path d="M119.181 34.5239L113.076 45.5304L107.105 32.5348L99.5404 34.5239L90.251 58.7913H98.6114L104.185 44.4696L109.759 58.1283H114.005L122.233 43.5413V61.9739L129.93 59.3217V36.3804L119.181 34.5239ZM186.595 38.5022C183.543 38.5022 181.022 39.4304 179.031 41.4196C177.041 43.4087 175.979 45.9283 175.979 48.9783C175.979 52.0283 177.041 54.5478 179.031 56.4043C181.022 58.2609 183.543 59.3217 186.595 59.3217C189.648 59.3217 192.169 58.3935 194.16 56.4043C196.15 54.4152 197.212 52.0283 197.212 48.9783C197.212 45.9283 196.15 43.4087 194.16 41.4196C192.169 39.4304 189.648 38.5022 186.595 38.5022ZM190.709 48.8456C190.709 51.6304 188.851 53.3543 186.728 53.3543C184.472 53.3543 182.747 51.6304 182.747 48.8456C182.747 46.0609 184.605 44.2043 186.728 44.2043C188.851 44.3369 190.709 46.1935 190.709 48.8456ZM166.69 38.5022C166.822 38.5022 167.088 38.5022 167.22 38.5022C171.732 38.5022 173.723 41.0217 173.723 45.3978V58.9239H166.291V46.9891C166.291 45.7956 165.893 45 164.964 45C164.168 45 162.443 45.2652 161.381 46.0609V58.9239H154.083V39.0326H160.054L160.452 40.4913C161.647 39.563 164.566 38.5022 166.69 38.5022ZM133.911 45V39.4304L134.84 39.2978C140.547 38.2369 151.296 36.3804 151.296 46.7239V58.7913H145.722L145.324 57.863C145.324 57.863 143.333 59.3217 139.087 59.3217C134.442 59.3217 132.053 56.1391 132.053 53.0891C132.053 48.05 136.565 46.8565 141.475 46.8565H144.926C144.926 44.8674 143.731 44.0717 141.077 44.0717C137.494 44.0717 134.575 44.8674 133.911 45ZM140.812 54.5478C143.599 54.5478 145.059 53.4869 145.059 51.2326V50.9674H141.741C139.219 50.9674 137.892 51.3652 137.892 52.6913C137.892 54.0174 138.954 54.5478 140.812 54.5478ZM287.186 41.4196C289.177 39.4304 291.698 38.5022 294.751 38.5022C297.803 38.5022 300.324 39.4304 302.315 41.4196C304.306 43.4087 305.367 45.9283 305.367 48.9783C305.367 52.0283 304.306 54.5478 302.315 56.4043C300.324 58.2609 297.803 59.3217 294.751 59.3217C291.698 59.3217 289.177 58.3935 287.186 56.4043C285.196 54.4152 284.134 52.0283 284.134 48.9783C284.134 45.7956 285.196 43.2761 287.186 41.4196ZM294.751 53.4869C297.007 53.4869 298.732 51.763 298.732 48.9783C298.732 46.1935 296.874 44.3369 294.751 44.3369C292.495 44.3369 290.77 46.1935 290.77 48.9783C290.77 51.6304 292.495 53.4869 294.751 53.4869ZM274.845 38.5022C274.978 38.5022 275.11 38.5022 275.376 38.5022C279.888 38.5022 281.878 41.0217 281.878 45.3978V58.9239H274.447V46.9891C274.447 45.7956 274.049 45 273.12 45C272.323 45 270.598 45.2652 269.537 46.0609V58.9239H262.238V39.0326H268.342L268.74 40.4913C269.802 39.563 272.589 38.5022 274.845 38.5022ZM227.336 34.5239L221.232 45.5304L215.26 32.5348L207.696 34.5239L198.406 58.7913H206.767L212.34 44.4696L217.914 58.1283H222.161L230.388 43.5413V61.9739L238.085 59.3217V36.3804L227.336 34.5239ZM242.066 45V39.4304L242.995 39.2978C248.702 38.2369 259.451 36.3804 259.451 46.7239V58.7913H253.877L253.479 57.863C253.479 57.863 251.489 59.3217 247.242 59.3217C242.597 59.3217 240.209 56.1391 240.209 53.0891C240.209 48.05 244.721 46.8565 249.631 46.8565H253.081C253.081 44.8674 251.887 44.0717 249.233 44.0717C245.65 44.0717 242.597 44.8674 242.066 45ZM248.967 54.5478C251.754 54.5478 253.214 53.4869 253.214 51.2326V50.9674H249.896C247.375 50.9674 246.048 51.3652 246.048 52.6913C246.048 54.0174 247.109 54.5478 248.967 54.5478Z" fill="#1E3C87"/>
<path d="M86.2698 37.3087L69.4162 16.4891C68.2218 15.0304 66.2312 14.2348 64.3734 14.5L37.8322 18.7435C35.8416 19.1413 34.2491 20.3348 33.4529 22.1913L23.8981 47.2543C23.2345 49.1109 23.4999 51.1 24.6943 52.5587L41.6807 73.3783C42.875 74.837 44.8656 75.6326 46.7235 75.3674L73.2646 71.1239C75.1225 70.8587 76.715 69.5326 77.5112 67.6761L87.1988 42.7456C87.8623 40.8891 87.5969 38.9 86.2698 37.3087Z" fill="url(#paint0_linear_71_1055)"/>
<path d="M50.4393 30.8109L43.1405 32.6674L33.9838 55.8739H42.0788L47.5198 42.2152L52.9607 55.2109H57.0746L65.0369 41.287V59.0565L72.6012 56.537V34.6565L62.2501 32.8L56.2784 43.2761L50.4393 30.8109Z" fill="white"/>
</g>
<defs>
<linearGradient id="paint0_linear_71_1055" x1="34.602" y1="62.3321" x2="69.787" y2="33.1062" gradientUnits="userSpaceOnUse">
<stop offset="0.00044188" stop-color="#0397A7"/>
<stop offset="0.9971" stop-color="#00ECCD"/>
</linearGradient>
<clipPath id="clip0_71_1055">
<rect width="282" height="61" fill="white" transform="translate(23.5 14.5)"/>
</clipPath>
</defs>
</svg>
