<svg width="328" height="104" viewBox="0 0 328 104" fill="none" xmlns="http://www.w3.org/2000/svg">
<g filter="url(#filter0_d_7_18)">
<rect x="4" width="320" height="96" rx="25" fill="white"/>
</g>
<g clip-path="url(#clip0_7_18)">
<path d="M118.681 37.0239L112.576 48.0304L106.605 35.0348L99.0404 37.0239L89.751 61.2913H98.1114L103.685 46.9696L109.259 60.6283H113.505L121.733 46.0413V64.4739L129.43 61.8217V38.8804L118.681 37.0239ZM186.095 41.0022C183.043 41.0022 180.522 41.9304 178.531 43.9196C176.541 45.9087 175.479 48.4283 175.479 51.4783C175.479 54.5283 176.541 57.0478 178.531 58.9044C180.522 60.7609 183.043 61.8217 186.095 61.8217C189.148 61.8217 191.669 60.8935 193.66 58.9044C195.65 56.9152 196.712 54.5283 196.712 51.4783C196.712 48.4283 195.65 45.9087 193.66 43.9196C191.669 41.9304 189.148 41.0022 186.095 41.0022ZM190.209 51.3457C190.209 54.1304 188.351 55.8544 186.228 55.8544C183.972 55.8544 182.247 54.1304 182.247 51.3457C182.247 48.5609 184.105 46.7044 186.228 46.7044C188.351 46.837 190.209 48.6935 190.209 51.3457ZM166.19 41.0022C166.322 41.0022 166.588 41.0022 166.72 41.0022C171.232 41.0022 173.223 43.5217 173.223 47.8978V61.4239H165.791V49.4891C165.791 48.2957 165.393 47.5 164.464 47.5C163.668 47.5 161.943 47.7652 160.881 48.5609V61.4239H153.583V41.5326H159.554L159.952 42.9913C161.147 42.0631 164.066 41.0022 166.19 41.0022ZM133.411 47.5V41.9304L134.34 41.7978C140.047 40.737 150.796 38.8804 150.796 49.2239V61.2913H145.222L144.824 60.3631C144.824 60.3631 142.833 61.8217 138.587 61.8217C133.942 61.8217 131.553 58.6391 131.553 55.5891C131.553 50.55 136.065 49.3565 140.975 49.3565H144.426C144.426 47.3674 143.231 46.5717 140.577 46.5717C136.994 46.5717 134.075 47.3674 133.411 47.5ZM140.312 57.0478C143.099 57.0478 144.559 55.987 144.559 53.7326V53.4674H141.241C138.719 53.4674 137.392 53.8652 137.392 55.1913C137.392 56.5174 138.454 57.0478 140.312 57.0478ZM286.686 43.9196C288.677 41.9304 291.198 41.0022 294.251 41.0022C297.303 41.0022 299.824 41.9304 301.815 43.9196C303.806 45.9087 304.867 48.4283 304.867 51.4783C304.867 54.5283 303.806 57.0478 301.815 58.9044C299.824 60.7609 297.303 61.8217 294.251 61.8217C291.198 61.8217 288.677 60.8935 286.686 58.9044C284.696 56.9152 283.634 54.5283 283.634 51.4783C283.634 48.2957 284.696 45.7761 286.686 43.9196ZM294.251 55.987C296.507 55.987 298.232 54.2631 298.232 51.4783C298.232 48.6935 296.374 46.837 294.251 46.837C291.995 46.837 290.27 48.6935 290.27 51.4783C290.27 54.1304 291.995 55.987 294.251 55.987ZM274.345 41.0022C274.478 41.0022 274.61 41.0022 274.876 41.0022C279.388 41.0022 281.378 43.5217 281.378 47.8978V61.4239H273.947V49.4891C273.947 48.2957 273.549 47.5 272.62 47.5C271.823 47.5 270.098 47.7652 269.037 48.5609V61.4239H261.738V41.5326H267.842L268.24 42.9913C269.302 42.0631 272.089 41.0022 274.345 41.0022ZM226.836 37.0239L220.732 48.0304L214.76 35.0348L207.196 37.0239L197.906 61.2913H206.267L211.84 46.9696L217.414 60.6283H221.661L229.888 46.0413V64.4739L237.585 61.8217V38.8804L226.836 37.0239ZM241.566 47.5V41.9304L242.495 41.7978C248.202 40.737 258.951 38.8804 258.951 49.2239V61.2913H253.377L252.979 60.3631C252.979 60.3631 250.989 61.8217 246.742 61.8217C242.097 61.8217 239.709 58.6391 239.709 55.5891C239.709 50.55 244.221 49.3565 249.131 49.3565H252.581C252.581 47.3674 251.387 46.5717 248.733 46.5717C245.15 46.5717 242.097 47.3674 241.566 47.5ZM248.467 57.0478C251.254 57.0478 252.714 55.987 252.714 53.7326V53.4674H249.396C246.875 53.4674 245.548 53.8652 245.548 55.1913C245.548 56.5174 246.609 57.0478 248.467 57.0478Z" fill="#1E3C87"/>
<path d="M85.7698 39.8087L68.9162 18.9891C67.7218 17.5304 65.7312 16.7348 63.8734 17L37.3322 21.2435C35.3416 21.6413 33.7491 22.8348 32.9529 24.6913L23.3981 49.7543C22.7345 51.6109 22.9999 53.6 24.1943 55.0587L41.1807 75.8783C42.375 77.337 44.3656 78.1326 46.2235 77.8674L72.7646 73.6239C74.6225 73.3587 76.215 72.0326 77.0112 70.1761L86.6988 45.2456C87.3623 43.3891 87.0969 41.4 85.7698 39.8087Z" fill="url(#paint0_linear_7_18)"/>
<path d="M49.9393 33.3109L42.6405 35.1674L33.4838 58.3739H41.5788L47.0198 44.7152L52.4607 57.7109H56.5746L64.5369 43.7869V61.5565L72.1012 59.0369V37.1565L61.7501 35.3L55.7784 45.7761L49.9393 33.3109Z" fill="white"/>
</g>
<defs>
<filter id="filter0_d_7_18" x="0" y="0" width="328" height="104" filterUnits="userSpaceOnUse" color-interpolation-filters="sRGB">
<feFlood flood-opacity="0" result="BackgroundImageFix"/>
<feColorMatrix in="SourceAlpha" type="matrix" values="0 0 0 0 0 0 0 0 0 0 0 0 0 0 0 0 0 0 127 0" result="hardAlpha"/>
<feOffset dy="4"/>
<feGaussianBlur stdDeviation="2"/>
<feComposite in2="hardAlpha" operator="out"/>
<feColorMatrix type="matrix" values="0 0 0 0 0 0 0 0 0 0 0 0 0 0 0 0 0 0 0.25 0"/>
<feBlend mode="normal" in2="BackgroundImageFix" result="effect1_dropShadow_7_18"/>
<feBlend mode="normal" in="SourceGraphic" in2="effect1_dropShadow_7_18" result="shape"/>
</filter>
<linearGradient id="paint0_linear_7_18" x1="34.102" y1="64.8321" x2="69.287" y2="35.6062" gradientUnits="userSpaceOnUse">
<stop offset="0.00044188" stop-color="#0397A7"/>
<stop offset="0.9971" stop-color="#00ECCD"/>
</linearGradient>
<clipPath id="clip0_7_18">
<rect width="282" height="61" fill="white" transform="translate(23 17)"/>
</clipPath>
</defs>
</svg>
