<svg width="329" height="90" viewBox="0 0 329 90" fill="none" xmlns="http://www.w3.org/2000/svg">
<rect x="1.5" y="1" width="326" height="88" rx="23" fill="white"/>
<rect x="1.5" y="1" width="326" height="88" rx="23" stroke="#BDBDBD" stroke-width="2"/>
<g clip-path="url(#clip0_71_1061)">
<path d="M217.796 62.4659V25.0078H229.581L229.643 29.4678C231.994 26.037 235.458 24.4464 239.48 24.4464C244.553 24.4464 248.141 26.8168 250.089 30.5283C252.44 26.4737 256.895 24.4464 261.442 24.4464C269.546 24.4464 274 30.5906 274 38.3567V62.4659H261.998V40.1969C261.998 36.5478 259.709 34.3957 256.925 34.3957C254.142 34.3957 251.853 36.5478 251.853 40.1969V62.4971H239.851V40.1969C239.851 36.5478 237.562 34.3957 234.778 34.3957C231.994 34.3957 229.705 36.5478 229.705 40.1969V62.4971H217.796V62.4659ZM213.775 48.2125C213.775 57.8499 206.166 63.308 196.453 63.308C186.74 63.308 179.131 57.8499 179.131 48.2125V25.0078H191.194V47.8694C191.194 51.1442 193.329 53.2651 196.453 53.2651C199.577 53.2651 201.711 51.1754 201.711 47.8694V25.0078H213.775V48.2125ZM175.852 34.6764V25.0078H165.954V15.4327H153.952V49.0546C153.952 58.3489 159.427 63.0273 168.243 63.0273C170.81 63.0273 173.501 62.7466 175.852 61.7797V52.2047C174.12 52.7661 172.604 52.9844 171.274 52.9844C168.088 52.9844 165.923 51.5185 165.923 48.0877V34.6764H175.852ZM138.795 43.7524C138.795 49.1481 134.929 53.1092 130.134 53.1092C125.278 53.1092 121.411 49.117 121.411 43.7524C121.411 38.4503 125.278 34.4581 130.134 34.4581C134.898 34.4581 138.795 38.4503 138.795 43.7524ZM121.381 77V58.5673C124.443 61.4366 128.464 63.1209 132.887 63.1209C142.94 63.1209 150.828 54.5127 150.828 43.7524C150.828 33.0546 142.94 24.4776 132.887 24.4776C128.247 24.4776 124.164 26.2865 121.04 29.3743L120.978 25.039H109.348V77.0312H121.381V77ZM92.9847 38.0136C92.9847 45.6862 87.386 51.4249 80.3644 51.4249C73.3428 51.4249 67.7441 45.6862 67.7441 38.0136C67.7441 30.3411 73.3428 24.6023 80.3644 24.6023C87.386 24.6023 92.9847 30.3411 92.9847 38.0136ZM80.3644 13C66.1665 13 55 24.1033 55 38.0136C55 51.924 66.1665 63.0273 80.3644 63.0273C94.5623 63.0273 105.729 51.924 105.729 38.0136C105.729 24.1033 94.5623 13 80.3644 13Z" fill="#FF612B"/>
</g>
<defs>
<clipPath id="clip0_71_1061">
<rect width="219" height="64" fill="white" transform="translate(55 13)"/>
</clipPath>
</defs>
</svg>
