<svg width="328" height="104" viewBox="0 0 328 104" fill="none" xmlns="http://www.w3.org/2000/svg">
<g filter="url(#filter0_d_7_259)">
<rect x="4" width="320" height="96" rx="25" fill="white"/>
</g>
<g clip-path="url(#clip0_7_259)">
<path d="M225.557 68.1949V24.884H239.28L239.352 30.0409C242.089 26.0741 246.123 24.2349 250.805 24.2349C256.712 24.2349 260.89 26.9756 263.159 31.2671C265.896 26.5789 271.083 24.2349 276.377 24.2349C285.814 24.2349 291 31.3392 291 40.3187V68.1949H277.025V42.4464C277.025 38.2271 274.36 35.7388 271.119 35.7388C267.877 35.7388 265.212 38.2271 265.212 42.4464V68.231H251.237V42.4464C251.237 38.2271 248.572 35.7388 245.331 35.7388C242.089 35.7388 239.424 38.2271 239.424 42.4464V68.231H225.557V68.1949ZM220.875 51.7144C220.875 62.8577 212.015 69.1686 200.706 69.1686C189.396 69.1686 180.536 62.8577 180.536 51.7144V24.884H194.583V51.3177C194.583 55.1043 197.068 57.5565 200.706 57.5565C204.343 57.5565 206.828 55.1404 206.828 51.3177V24.884H220.875V51.7144ZM176.718 36.0634V24.884H165.193V13.8129H151.218V52.6881C151.218 63.4347 157.593 68.8441 167.858 68.8441C170.847 68.8441 173.981 68.5195 176.718 67.4016V56.3304C174.701 56.9795 172.936 57.232 171.388 57.232C167.678 57.232 165.157 55.537 165.157 51.5702V36.0634H176.718ZM133.57 46.5575C133.57 52.7963 129.068 57.3762 123.485 57.3762C117.831 57.3762 113.328 52.7602 113.328 46.5575C113.328 40.4269 117.831 35.8109 123.485 35.8109C129.032 35.8109 133.57 40.4269 133.57 46.5575ZM113.292 85V63.6871C116.858 67.0049 121.54 68.9522 126.691 68.9522C138.396 68.9522 147.581 58.999 147.581 46.5575C147.581 34.1881 138.396 24.271 126.691 24.271C121.288 24.271 116.534 26.3626 112.896 29.9327L112.824 24.9201H99.2818V85.0361H113.292V85ZM80.2288 39.922C80.2288 48.7934 73.7097 55.4288 65.5339 55.4288C57.3581 55.4288 50.839 48.7934 50.839 39.922C50.839 31.0507 57.3581 24.4152 65.5339 24.4152C73.7097 24.4152 80.2288 31.0507 80.2288 39.922ZM65.5339 11C49.0021 11 36 23.8382 36 39.922C36 56.0058 49.0021 68.8441 65.5339 68.8441C82.0657 68.8441 95.0678 56.0058 95.0678 39.922C95.0678 23.8382 82.0657 11 65.5339 11Z" fill="#FF612B"/>
</g>
<defs>
<filter id="filter0_d_7_259" x="0" y="0" width="328" height="104" filterUnits="userSpaceOnUse" color-interpolation-filters="sRGB">
<feFlood flood-opacity="0" result="BackgroundImageFix"/>
<feColorMatrix in="SourceAlpha" type="matrix" values="0 0 0 0 0 0 0 0 0 0 0 0 0 0 0 0 0 0 127 0" result="hardAlpha"/>
<feOffset dy="4"/>
<feGaussianBlur stdDeviation="2"/>
<feComposite in2="hardAlpha" operator="out"/>
<feColorMatrix type="matrix" values="0 0 0 0 0 0 0 0 0 0 0 0 0 0 0 0 0 0 0.25 0"/>
<feBlend mode="normal" in2="BackgroundImageFix" result="effect1_dropShadow_7_259"/>
<feBlend mode="normal" in="SourceGraphic" in2="effect1_dropShadow_7_259" result="shape"/>
</filter>
<clipPath id="clip0_7_259">
<rect width="255" height="74" fill="white" transform="translate(36 11)"/>
</clipPath>
</defs>
</svg>
