<svg width="329" height="90" viewBox="0 0 329 90" fill="none" xmlns="http://www.w3.org/2000/svg">
<rect x="1.5" y="1" width="326" height="88" rx="23" fill="white"/>
<rect x="1.5" y="1" width="326" height="88" rx="23" stroke="#BDBDBD" stroke-width="2"/>
<g clip-path="url(#clip0_71_1184)">
<path d="M74.6891 52.7702V63.7244C74.6891 64.3632 74.1359 64.9112 73.4902 64.9112H68.9688V32.2298C68.9688 31.5904 69.522 31.0424 70.2142 31.0424H73.0747C73.628 31.0424 74.0894 31.3621 74.2277 31.8647L74.4125 32.3666C75.9811 31.3173 77.5491 30.6779 80.087 30.6779C87.4683 30.6779 91.3895 36.1093 91.3895 42.4997C91.3895 48.8902 87.4683 54.3221 80.087 54.3221C77.6879 54.3221 76.2112 53.7736 74.6891 52.7702ZM74.4125 42.4997C74.4125 46.7443 76.027 49.6659 79.718 49.6659C83.4084 49.6659 85.5308 46.7443 85.5308 42.4997C85.5308 38.2551 83.4084 35.3336 79.718 35.3336C76.027 35.3336 74.4125 38.2551 74.4125 42.4997Z" fill="black"/>
<path d="M105.693 36.3834H103.571C101.68 36.3834 100.019 37.3874 99.3733 38.6656V53.1352C99.3733 53.7286 98.8654 54.23 98.2656 54.23H93.6529V32.5039C93.6529 31.91 94.1597 31.4086 94.7595 31.4086H97.9431C98.5423 31.4086 99.0496 31.8651 99.0496 32.4585L99.142 33.8276C100.342 32.5948 102.649 31.0429 105.278 31.0429H105.601C106.201 31.0429 106.662 31.5903 106.57 32.2291L105.693 36.3834Z" fill="black"/>
<path d="M105.611 42.8648C105.611 36.4744 109.901 31.0424 117.283 31.0424C124.665 31.0424 128.955 36.4744 128.955 42.8648C128.955 49.2553 124.665 54.6873 117.283 54.6873C109.901 54.6873 105.611 49.2553 105.611 42.8648ZM111.47 42.8648C111.47 47.1106 113.592 50.0315 117.283 50.0315C120.973 50.0315 123.097 47.1106 123.097 42.8648C123.097 38.6191 120.973 35.6982 117.283 35.6982C113.592 35.6982 111.47 38.6191 111.47 42.8648Z" fill="black"/>
<path d="M137.099 52.7702V63.7244C137.099 64.3633 136.546 64.9112 135.9 64.9112H131.379V32.2298C131.379 31.5904 131.932 31.0424 132.624 31.0424H135.485C136.038 31.0424 136.5 31.3621 136.638 31.8647L136.823 32.3666C138.391 31.3173 139.959 30.6779 142.497 30.6779C149.879 30.6779 153.8 36.1093 153.8 42.4997C153.8 48.8902 149.879 54.3221 142.497 54.3221C140.098 54.3221 138.622 53.7736 137.099 52.7702ZM136.823 42.4997C136.823 46.7443 138.437 49.6659 142.128 49.6659C145.819 49.6659 147.94 46.7443 147.94 42.4997C147.94 38.2551 145.819 35.3336 142.128 35.3336C138.437 35.3336 136.823 38.2551 136.823 42.4997Z" fill="black"/>
<path d="M161.539 44.4172C162.185 48.6618 165.368 50.396 168.413 50.396C170.12 50.396 172.38 49.848 174.18 49.1178C174.872 48.8901 175.564 49.3466 175.61 50.0314L175.795 53.3175C174.041 54.23 171.366 55.0517 168.09 55.0517C159.739 55.0517 155.588 49.6203 155.588 43.2304C155.588 36.8854 159.555 31.4086 166.66 31.4086C172.473 31.4086 176.809 35.2875 176.809 41.3128C176.809 41.9976 176.763 42.7273 176.625 43.4587C176.533 44.0055 176.025 44.4172 175.471 44.4172H161.539ZM161.678 40.5826H170.996C170.996 38.5287 169.935 36.0643 166.844 36.0643C163.891 36.0643 162.231 37.9807 161.678 40.5826Z" fill="black"/>
<path d="M191.436 36.3834H189.314C187.423 36.3834 185.762 37.3874 185.116 38.6656V53.1352C185.116 53.7286 184.608 54.23 184.008 54.23H179.396V32.5039C179.396 31.91 179.902 31.4086 180.502 31.4086H183.686C184.285 31.4086 184.792 31.8651 184.792 32.4585L184.885 33.8276C186.085 32.5948 188.391 31.0429 191.021 31.0429H191.344C191.944 31.0429 192.405 31.5903 192.312 32.2291L191.436 36.3834Z" fill="black"/>
<path d="M207.691 53.5456C207.644 54.0481 207.183 54.4586 206.676 54.4586H203.492C199.156 54.4586 197.31 51.4463 197.31 48.4787V35.8352H195.05C194.496 35.8352 194.035 35.3792 194.035 34.8313V32.1846C194.035 31.6366 194.496 31.1795 195.05 31.1795H197.31V26.5698C197.31 26.0224 197.772 25.5658 198.326 25.5658H203.032V31.1795H207.091C207.644 31.1795 208.106 31.6366 208.106 32.1846V35.8352H203.032V46.1517C203.032 49.6206 203.308 49.8035 206.537 49.8035H206.953C207.552 49.8035 208.06 50.3049 207.967 50.9437L207.691 53.5456Z" fill="black"/>
<path d="M220.255 64.3182C220.024 64.911 219.471 65.2762 218.825 65.2762H215.549C214.903 65.2762 214.442 64.5919 214.672 63.9985L219.286 52.7246L210.243 32.6407C209.967 32.0468 210.382 31.408 211.073 31.408H216.056L221.961 46.1053L227.544 32.3665C227.775 31.7736 228.375 31.408 229.02 31.408H232.941C233.588 31.408 234.048 32.0468 233.772 32.6407L220.255 64.3182Z" fill="black"/>
<path d="M229.572 51.4005V51.1268C229.572 49.5289 230.863 48.2967 232.432 48.2967C234.001 48.2967 235.292 49.5289 235.292 51.1268V51.4005C235.292 52.953 234.001 54.2306 232.432 54.2306C230.863 54.2306 229.572 52.953 229.572 51.4005Z" fill="black"/>
<path d="M251.941 54.2305C251.618 54.2305 251.387 54.0931 251.203 53.8654L247.281 47.7941L243.405 54.2305H237.454C237.085 54.2305 236.855 53.8194 237.039 53.5003L244.005 42.8192L236.577 31.408H242.944C243.221 31.408 243.498 31.5454 243.636 31.7736L247.604 37.8438L251.203 31.8185C251.387 31.5454 251.664 31.408 251.941 31.408H257.384C257.8 31.408 258.031 31.8185 257.8 32.1382L250.833 42.8192L257.8 53.5003C258.031 53.8194 257.8 54.2305 257.384 54.2305H251.941Z" fill="black"/>
<path d="M269.764 64.3182C269.534 64.911 268.98 65.2762 268.334 65.2762H265.059C264.413 65.2762 263.952 64.5919 264.182 63.9985L268.796 52.7246L259.753 32.6407C259.476 32.0468 259.892 31.408 260.583 31.408H265.566L271.471 46.1053L277.053 32.3665C277.284 31.7736 277.884 31.408 278.53 31.408H282.451C283.097 31.408 283.558 32.0468 283.282 32.6407L269.764 64.3182Z" fill="black"/>
<path d="M304.328 35.3338L292.425 49.1181V49.2549H302.759C303.359 49.2549 303.867 49.7569 303.867 50.3508V54.2303H285.644C284.997 54.2303 284.536 53.7289 284.536 53.135V50.9897C284.536 50.7614 284.628 50.4882 284.766 50.3049L296.715 36.612L286.013 36.4746C285.412 36.4746 284.952 35.9726 284.952 35.3792V31.4077H303.266C303.912 31.4077 304.374 31.9103 304.374 32.5491L304.328 35.3338Z" fill="black"/>
<path d="M43.2108 24.6666L25.1256 31.6149C24.7644 31.754 24.5253 32.0986 24.5253 32.4848V53.2984C24.5253 53.8148 24.9458 54.2303 25.4672 54.2303H30.2345V48.6072V40.4299V35.4069L43.5524 30.5711L56.8692 35.4069V48.6072H47.441H35.4464C35.0381 48.6072 34.6495 48.7823 34.3801 49.0865L30.2345 54.2303H39.8519H61.6376C62.1573 54.2303 62.5795 53.8148 62.5795 53.2984V32.4848C62.5795 32.0986 62.341 31.754 61.9792 31.6149L43.894 24.6666C43.6733 24.5818 43.4309 24.5818 43.2108 24.6666Z" fill="black"/>
</g>
<defs>
<clipPath id="clip0_71_1184">
<rect width="280" height="41" fill="white" transform="translate(24.5 24.5)"/>
</clipPath>
</defs>
</svg>
