<svg xmlns="http://www.w3.org/2000/svg" viewBox="0 0 500 74" version="1.1">
    <title>Property XYZ logo</title>
    <g stroke="none" strokeWidth="1" fill="none" fillRule="evenodd">
        <g fill="#fff">
            <g>
                <path d="M89.6235,51.0243 L89.6235,70.7953 C89.6235,71.9483 88.6355,72.9373 87.4825,72.9373 L79.4085,72.9373 L79.4085,13.9513 C79.4085,12.7973 80.3965,11.8083 81.6325,11.8083 L86.7405,11.8083 C87.7285,11.8083 88.5525,12.3853 88.7995,13.2923 L89.1295,14.1983 C91.9305,12.3043 94.7305,11.1503 99.2625,11.1503 C112.4435,11.1503 119.4455,20.9533 119.4455,32.4873 C119.4455,44.0213 112.4435,53.8253 99.2625,53.8253 C94.9785,53.8253 92.3415,52.8353 89.6235,51.0243 M89.1295,32.4873 C89.1295,40.1483 92.0125,45.4213 98.6035,45.4213 C105.1935,45.4213 108.9835,40.1483 108.9835,32.4873 C108.9835,24.8263 105.1935,19.5533 98.6035,19.5533 C92.0125,19.5533 89.1295,24.8263 89.1295,32.4873" fill="#000000"/>
                <path d="M144.9883,21.4481 L141.1983,21.4481 C137.8213,21.4481 134.8553,23.2601 133.7023,25.5671 L133.7023,51.6831 C133.7023,52.7541 132.7953,53.6591 131.7243,53.6591 L123.4873,53.6591 L123.4873,14.4461 C123.4873,13.3741 124.3923,12.4691 125.4633,12.4691 L131.1483,12.4691 C132.2183,12.4691 133.1243,13.2931 133.1243,14.3641 L133.2893,16.8351 C135.4323,14.6101 139.5513,11.8091 144.2463,11.8091 L144.8233,11.8091 C145.8953,11.8091 146.7183,12.7971 146.5533,13.9501 L144.9883,21.4481 Z" fill="#000000"/>
                <path d="M144.8403,33.1463 C144.8403,21.6123 152.5023,11.8083 165.6843,11.8083 C178.8653,11.8083 186.5273,21.6123 186.5273,33.1463 C186.5273,44.6803 178.8653,54.4843 165.6843,54.4843 C152.5023,54.4843 144.8403,44.6803 144.8403,33.1463 M155.3033,33.1463 C155.3033,40.8093 159.0923,46.0813 165.6843,46.0813 C172.2733,46.0813 176.0653,40.8093 176.0653,33.1463 C176.0653,25.4833 172.2733,20.2113 165.6843,20.2113 C159.0923,20.2113 155.3033,25.4833 155.3033,33.1463" fill="#000000"/>
                <path d="M201.0703,51.0243 L201.0703,70.7953 C201.0703,71.9483 200.0823,72.9373 198.9283,72.9373 L190.8553,72.9373 L190.8553,13.9513 C190.8553,12.7973 191.8423,11.8083 193.0783,11.8083 L198.1873,11.8083 C199.1753,11.8083 199.9993,12.3853 200.2463,13.2923 L200.5763,14.1983 C203.3773,12.3043 206.1773,11.1503 210.7093,11.1503 C223.8903,11.1503 230.8923,20.9533 230.8923,32.4873 C230.8923,44.0213 223.8903,53.8253 210.7093,53.8253 C206.4243,53.8253 203.7883,52.8353 201.0703,51.0243 M200.5763,32.4873 C200.5763,40.1483 203.4593,45.4213 210.0493,45.4213 C216.6403,45.4213 220.4293,40.1483 220.4293,32.4873 C220.4293,24.8263 216.6403,19.5533 210.0493,19.5533 C203.4593,19.5533 200.5763,24.8263 200.5763,32.4873" fill="#000000"/>
                <path d="M244.7119,35.9481 C245.8659,43.6091 251.5499,46.7391 256.9869,46.7391 C260.0359,46.7391 264.0719,45.7501 267.2849,44.4321 C268.5209,44.0211 269.7569,44.8451 269.8389,46.0811 L270.1689,52.0121 C267.0379,53.6591 262.2599,55.1421 256.4109,55.1421 C241.4989,55.1421 234.0849,45.3391 234.0849,33.8061 C234.0849,22.3541 241.1699,12.4691 253.8569,12.4691 C264.2369,12.4691 271.9809,19.4701 271.9809,30.3451 C271.9809,31.5811 271.8989,32.8981 271.6519,34.2181 C271.4869,35.2051 270.5799,35.9481 269.5919,35.9481 L244.7119,35.9481 Z M244.9599,29.0271 L261.6009,29.0271 C261.6009,25.3201 259.7059,20.8721 254.1859,20.8721 C248.9129,20.8721 245.9479,24.3311 244.9599,29.0271 Z" fill="#000000"/>
                <path d="M298.1001,21.4481 L294.3101,21.4481 C290.9331,21.4481 287.9671,23.2601 286.8141,25.5671 L286.8141,51.6831 C286.8141,52.7541 285.9071,53.6591 284.8361,53.6591 L276.5991,53.6591 L276.5991,14.4461 C276.5991,13.3741 277.5041,12.4691 278.5751,12.4691 L284.2601,12.4691 C285.3301,12.4691 286.2361,13.2931 286.2361,14.3641 L286.4021,16.8351 C288.5441,14.6101 292.6631,11.8091 297.3581,11.8091 L297.9351,11.8091 C299.0071,11.8091 299.8301,12.7971 299.6651,13.9501 L298.1001,21.4481 Z" fill="#000000"/>
                <path d="M327.1265,52.4237 C327.0435,53.3307 326.2195,54.0717 325.3145,54.0717 L319.6295,54.0717 C311.8855,54.0717 308.5895,48.6347 308.5895,43.2787 L308.5895,20.4587 L304.5535,20.4587 C303.5645,20.4587 302.7405,19.6357 302.7405,18.6467 L302.7405,13.8697 C302.7405,12.8807 303.5645,12.0557 304.5535,12.0557 L308.5895,12.0557 L308.5895,3.7357 C308.5895,2.7477 309.4135,1.9237 310.4035,1.9237 L318.8065,1.9237 L318.8065,12.0557 L326.0555,12.0557 C327.0435,12.0557 327.8685,12.8807 327.8685,13.8697 L327.8685,20.4587 L318.8065,20.4587 L318.8065,39.0787 C318.8065,45.3397 319.3005,45.6697 325.0665,45.6697 L325.8085,45.6697 C326.8785,45.6697 327.7855,46.5747 327.6205,47.7277 L327.1265,52.4237 Z" fill="#000000"/>
                <path d="M349.5615,71.867 C349.1495,72.937 348.1615,73.596 347.0085,73.596 L341.1585,73.596 C340.0045,73.596 339.1825,72.361 339.5935,71.29 L347.8315,50.942 L331.6845,14.693 C331.1905,13.621 331.9315,12.468 333.1665,12.468 L342.0645,12.468 L352.6095,38.995 L362.5785,14.198 C362.9905,13.128 364.0615,12.468 365.2135,12.468 L372.2165,12.468 C373.3705,12.468 374.1935,13.621 373.6995,14.693 L349.5615,71.867 Z" fill="#000000"/>
                <path d="M366.1997,48.5521 L366.1997,48.0581 C366.1997,45.1741 368.5057,42.9501 371.3077,42.9501 C374.1087,42.9501 376.4147,45.1741 376.4147,48.0581 L376.4147,48.5521 C376.4147,51.3541 374.1087,53.6601 371.3077,53.6601 C368.5057,53.6601 366.1997,51.3541 366.1997,48.5521" fill="#000000"/>
                <path d="M406.144,53.66 C405.567,53.66 405.156,53.412 404.826,53.001 L397.823,42.043 L390.902,53.66 L380.275,53.66 C379.616,53.66 379.205,52.918 379.534,52.342 L391.973,33.064 L378.709,12.468 L390.078,12.468 C390.574,12.468 391.068,12.716 391.315,13.128 L398.4,24.084 L404.826,13.209 C405.156,12.716 405.65,12.468 406.144,12.468 L415.865,12.468 C416.607,12.468 417.019,13.209 416.607,13.786 L404.166,33.064 L416.607,52.342 C417.019,52.918 416.607,53.66 415.865,53.66 L406.144,53.66 Z" fill="#000000"/>
                <path d="M437.9722,71.867 C437.5602,72.937 436.5712,73.596 435.4182,73.596 L429.5692,73.596 C428.4162,73.596 427.5922,72.361 428.0032,71.29 L436.2422,50.942 L420.0942,14.693 C419.6002,13.621 420.3422,12.468 421.5772,12.468 L430.4742,12.468 L441.0202,38.995 L450.9882,14.198 C451.4002,13.128 452.4712,12.468 453.6252,12.468 L460.6272,12.468 C461.7802,12.468 462.6042,13.621 462.1102,14.693 L437.9722,71.867 Z" fill="#000000"/>
                <path d="M499.6919,19.5536 L478.4369,44.4326 L478.4369,44.6796 L496.8909,44.6796 C497.9619,44.6796 498.8689,45.5856 498.8689,46.6576 L498.8689,53.6596 L466.3279,53.6596 C465.1729,53.6596 464.3499,52.7546 464.3499,51.6826 L464.3499,47.8106 C464.3499,47.3986 464.5149,46.9056 464.7609,46.5746 L486.0989,21.8606 L466.9869,21.6126 C465.9149,21.6126 465.0919,20.7066 465.0919,19.6356 L465.0919,12.4676 L497.7969,12.4676 C498.9499,12.4676 499.7749,13.3746 499.7749,14.5276 L499.6919,19.5536 Z" fill="#000000"/>
                <path d="M33.4121,0.3006 L1.1171,12.8416 C0.4721,13.0926 0.0451,13.7146 0.0451,14.4116 L0.0451,51.9776 C0.0451,52.9096 0.7961,53.6596 1.7271,53.6596 L10.2401,53.6596 L10.2401,43.5106 L10.2401,28.7516 L10.2401,19.6856 L34.0221,10.9576 L57.8021,19.6856 L57.8021,43.5106 L40.9661,43.5106 L19.5471,43.5106 C18.8181,43.5106 18.1241,43.8266 17.6431,44.3756 L10.2401,53.6596 L27.4141,53.6596 L66.3171,53.6596 C67.2451,53.6596 67.9991,52.9096 67.9991,51.9776 L67.9991,14.4116 C67.9991,13.7146 67.5731,13.0926 66.9271,12.8416 L34.6321,0.3006 C34.2381,0.1476 33.8051,0.1476 33.4121,0.3006" fill="#000000"/>
            </g>
        </g>
    </g>
</svg>