<svg width="328" height="104" viewBox="0 0 328 104" fill="none" xmlns="http://www.w3.org/2000/svg">
<g filter="url(#filter0_d_7_30)">
<rect x="4" width="320" height="96" rx="25" fill="white"/>
</g>
<g clip-path="url(#clip0_7_30)">
<path d="M74.1891 55.2702V66.2244C74.1891 66.8632 73.6359 67.4112 72.9902 67.4112H68.4688V34.7298C68.4688 34.0904 69.022 33.5424 69.7142 33.5424H72.5747C73.128 33.5424 73.5894 33.8621 73.7277 34.3646L73.9125 34.8666C75.4811 33.8172 77.0491 33.1779 79.587 33.1779C86.9683 33.1779 90.8895 38.6092 90.8895 44.9997C90.8895 51.3902 86.9683 56.8221 79.587 56.8221C77.1879 56.8221 75.7112 56.2736 74.1891 55.2702ZM73.9125 44.9997C73.9125 49.2443 75.527 52.1658 79.218 52.1658C82.9084 52.1658 85.0308 49.2443 85.0308 44.9997C85.0308 40.7551 82.9084 37.8336 79.218 37.8336C75.527 37.8336 73.9125 40.7551 73.9125 44.9997Z" fill="black"/>
<path d="M105.193 38.8834H103.071C101.18 38.8834 99.519 39.8873 98.8733 41.1655V55.6352C98.8733 56.2286 98.3654 56.73 97.7656 56.73H93.1529V35.0039C93.1529 34.4099 93.6597 33.9085 94.2595 33.9085H97.4431C98.0423 33.9085 98.5496 34.3651 98.5496 34.9585L98.642 36.3275C99.8421 35.0948 102.149 33.5428 104.778 33.5428H105.101C105.701 33.5428 106.162 34.0903 106.07 34.7291L105.193 38.8834Z" fill="black"/>
<path d="M105.111 45.3648C105.111 38.9744 109.401 33.5424 116.783 33.5424C124.165 33.5424 128.455 38.9744 128.455 45.3648C128.455 51.7553 124.165 57.1872 116.783 57.1872C109.401 57.1872 105.111 51.7553 105.111 45.3648ZM110.97 45.3648C110.97 49.6105 113.092 52.5315 116.783 52.5315C120.473 52.5315 122.597 49.6105 122.597 45.3648C122.597 41.1191 120.473 38.1981 116.783 38.1981C113.092 38.1981 110.97 41.1191 110.97 45.3648Z" fill="black"/>
<path d="M136.599 55.2702V66.2244C136.599 66.8632 136.046 67.4112 135.4 67.4112H130.879V34.7298C130.879 34.0904 131.432 33.5424 132.124 33.5424H134.985C135.538 33.5424 136 33.8621 136.138 34.3646L136.323 34.8666C137.891 33.8172 139.459 33.1779 141.997 33.1779C149.379 33.1779 153.3 38.6092 153.3 44.9997C153.3 51.3902 149.379 56.8221 141.997 56.8221C139.598 56.8221 138.121 56.2736 136.599 55.2702ZM136.323 44.9997C136.323 49.2443 137.937 52.1658 141.628 52.1658C145.319 52.1658 147.44 49.2443 147.44 44.9997C147.44 40.7551 145.319 37.8336 141.628 37.8336C137.937 37.8336 136.323 40.7551 136.323 44.9997Z" fill="black"/>
<path d="M161.039 46.9172C161.685 51.1618 164.868 52.896 167.913 52.896C169.62 52.896 171.88 52.348 173.68 51.6178C174.372 51.3901 175.064 51.8466 175.11 52.5314L175.295 55.8175C173.541 56.7301 170.866 57.5517 167.59 57.5517C159.239 57.5517 155.088 52.1203 155.088 45.7304C155.088 39.3854 159.055 33.9086 166.16 33.9086C171.973 33.9086 176.309 37.7875 176.309 43.8128C176.309 44.4976 176.263 45.2273 176.125 45.9587C176.033 46.5055 175.525 46.9172 174.971 46.9172H161.039ZM161.178 43.0826H170.496C170.496 41.0287 169.435 38.5643 166.344 38.5643C163.391 38.5643 161.731 40.4808 161.178 43.0826Z" fill="black"/>
<path d="M190.936 38.8834H188.814C186.923 38.8834 185.262 39.8873 184.616 41.1655V55.6352C184.616 56.2286 184.108 56.73 183.508 56.73H178.896V35.0039C178.896 34.4099 179.402 33.9085 180.002 33.9085H183.186C183.785 33.9085 184.292 34.3651 184.292 34.9585L184.385 36.3275C185.585 35.0948 187.891 33.5428 190.521 33.5428H190.844C191.444 33.5428 191.905 34.0903 191.812 34.7291L190.936 38.8834Z" fill="black"/>
<path d="M207.191 56.0456C207.144 56.5481 206.683 56.9587 206.176 56.9587H202.992C198.656 56.9587 196.81 53.9463 196.81 50.9788V38.3352H194.55C193.996 38.3352 193.535 37.8793 193.535 37.3313V34.6846C193.535 34.1366 193.996 33.6795 194.55 33.6795H196.81V29.0698C196.81 28.5224 197.272 28.0659 197.826 28.0659H202.532V33.6795H206.591C207.144 33.6795 207.606 34.1366 207.606 34.6846V38.3352H202.532V48.6517C202.532 52.1207 202.808 52.3035 206.037 52.3035H206.453C207.052 52.3035 207.56 52.8049 207.467 53.4438L207.191 56.0456Z" fill="black"/>
<path d="M219.754 66.8182C219.524 67.411 218.97 67.7762 218.325 67.7762H215.049C214.403 67.7762 213.942 67.0919 214.172 66.4985L218.786 55.2246L209.743 35.1407C209.467 34.5468 209.882 33.908 210.573 33.908H215.556L221.461 48.6053L227.044 34.8665C227.275 34.2736 227.874 33.908 228.52 33.908H232.441C233.087 33.908 233.548 34.5468 233.272 35.1407L219.754 66.8182Z" fill="black"/>
<path d="M229.072 53.9005V53.6268C229.072 52.0289 230.363 50.7967 231.932 50.7967C233.501 50.7967 234.792 52.0289 234.792 53.6268V53.9005C234.792 55.453 233.501 56.7306 231.932 56.7306C230.363 56.7306 229.072 55.453 229.072 53.9005Z" fill="black"/>
<path d="M251.441 56.7306C251.118 56.7306 250.887 56.5931 250.703 56.3654L246.781 50.2941L242.905 56.7306H236.954C236.585 56.7306 236.355 56.3194 236.539 56.0003L243.505 45.3193L236.077 33.908H242.444C242.721 33.908 242.998 34.0454 243.136 34.2736L247.104 40.3439L250.703 34.3185C250.887 34.0454 251.164 33.908 251.441 33.908H256.884C257.3 33.908 257.531 34.3185 257.3 34.6382L250.333 45.3193L257.3 56.0003C257.531 56.3194 257.3 56.7306 256.884 56.7306H251.441Z" fill="black"/>
<path d="M269.264 66.8182C269.034 67.411 268.48 67.7762 267.834 67.7762H264.559C263.913 67.7762 263.452 67.0919 263.682 66.4985L268.296 55.2246L259.253 35.1407C258.976 34.5468 259.392 33.908 260.083 33.908H265.066L270.971 48.6053L276.553 34.8665C276.784 34.2736 277.384 33.908 278.03 33.908H281.951C282.597 33.908 283.058 34.5468 282.782 35.1407L269.264 66.8182Z" fill="black"/>
<path d="M303.828 37.8337L291.925 51.6181V51.7549H302.259C302.859 51.7549 303.367 52.2569 303.367 52.8508V56.7303H285.144C284.497 56.7303 284.036 56.2289 284.036 55.6349V53.4896C284.036 53.2614 284.128 52.9882 284.266 52.8048L296.215 39.1119L285.513 38.9745C284.912 38.9745 284.452 38.4726 284.452 37.8792V33.9077H302.766C303.412 33.9077 303.874 34.4102 303.874 35.0491L303.828 37.8337Z" fill="black"/>
<path d="M42.7108 27.1665L24.6256 34.1149C24.2644 34.254 24.0253 34.5986 24.0253 34.9848V55.7984C24.0253 56.3148 24.4458 56.7303 24.9672 56.7303H29.7345V51.1072V42.9299V37.9069L43.0524 33.0711L56.3692 37.9069V51.1072H46.941H34.9464C34.5381 51.1072 34.1495 51.2823 33.8801 51.5865L29.7345 56.7303H39.3519H61.1376C61.6573 56.7303 62.0795 56.3148 62.0795 55.7984V34.9848C62.0795 34.5986 61.841 34.254 61.4792 34.1149L43.394 27.1665C43.1733 27.0818 42.9309 27.0818 42.7108 27.1665Z" fill="black"/>
</g>
<defs>
<filter id="filter0_d_7_30" x="0" y="0" width="328" height="104" filterUnits="userSpaceOnUse" color-interpolation-filters="sRGB">
<feFlood flood-opacity="0" result="BackgroundImageFix"/>
<feColorMatrix in="SourceAlpha" type="matrix" values="0 0 0 0 0 0 0 0 0 0 0 0 0 0 0 0 0 0 127 0" result="hardAlpha"/>
<feOffset dy="4"/>
<feGaussianBlur stdDeviation="2"/>
<feComposite in2="hardAlpha" operator="out"/>
<feColorMatrix type="matrix" values="0 0 0 0 0 0 0 0 0 0 0 0 0 0 0 0 0 0 0.25 0"/>
<feBlend mode="normal" in2="BackgroundImageFix" result="effect1_dropShadow_7_30"/>
<feBlend mode="normal" in="SourceGraphic" in2="effect1_dropShadow_7_30" result="shape"/>
</filter>
<clipPath id="clip0_7_30">
<rect width="280" height="41" fill="white" transform="translate(24 27)"/>
</clipPath>
</defs>
</svg>
