<svg width="329" height="90" viewBox="0 0 329 90" fill="none" xmlns="http://www.w3.org/2000/svg">
<rect x="1.5" y="1" width="326" height="88" rx="23" fill="white"/>
<rect x="1.5" y="1" width="326" height="88" rx="23" stroke="#BDBDBD" stroke-width="2"/>
<g clip-path="url(#clip0_71_813)">
<path d="M86.425 49.8125C91.9238 49.8125 99.7794 48.675 99.7794 42.2C99.7794 41.675 99.7793 41.2375 99.6048 40.7125L96.3753 26.5375C95.5897 23.3875 94.9788 21.9875 89.4799 19.275C85.2903 17.0875 76.0382 13.5 73.3325 13.5C70.8012 13.5 70.0157 16.825 67.0481 16.825C64.1677 16.825 61.9856 14.375 59.2798 14.375C56.6613 14.375 54.9157 16.125 53.6064 19.8C53.6064 19.8 49.9405 30.2125 49.5041 31.7C49.4168 31.9625 49.4168 32.225 49.4168 32.575C49.3295 36.6 65.2151 49.8125 86.425 49.8125ZM100.652 44.825C101.438 48.4125 101.438 48.7625 101.438 49.2875C101.438 55.4125 94.5423 58.825 85.5521 58.825C65.0405 58.825 47.1474 46.75 47.1474 38.875C47.1474 37.7375 47.4093 36.6875 47.8457 35.6375C40.5139 36.075 31 37.3 31 45.7875C31 59.525 63.5567 76.5 89.3053 76.5C109.031 76.5 114.007 67.575 114.007 60.4875C114.094 54.8875 109.293 48.5875 100.652 44.825Z" fill="#EE0000"/>
<path d="M100.652 44.825C101.438 48.4125 101.438 48.7625 101.438 49.2875C101.438 55.4125 94.5424 58.825 85.5522 58.825C65.0406 58.825 47.1475 46.75 47.1475 38.875C47.1475 37.7375 47.4093 36.6875 47.8457 35.6375L49.4168 31.7C49.3295 31.9625 49.3295 32.225 49.3295 32.575C49.3295 36.6 65.1278 49.8125 86.425 49.8125C91.9239 49.8125 99.7794 48.675 99.7794 42.2C99.7794 41.675 99.7794 41.2375 99.6048 40.7125L100.652 44.825Z" fill="black"/>
<path d="M283.773 53.925C283.773 59.0875 286.915 61.625 292.588 61.625C294.334 61.625 296.08 61.3625 297.738 60.925V54.8875C296.691 55.2375 295.556 55.4125 294.421 55.4125C292.065 55.4125 291.192 54.7125 291.192 52.4375V43.1625H298V36.95H291.192V29.075L283.773 30.65V36.95H278.885V43.1625H283.773V53.925ZM260.643 54.0125C260.643 52.4375 262.214 51.65 264.658 51.65C266.142 51.65 267.625 51.825 269.022 52.175V55.325C267.625 56.1125 265.967 56.4625 264.396 56.4625C262.126 56.4625 260.643 55.5 260.643 54.0125ZM262.912 61.7125C265.531 61.7125 267.625 61.1875 269.633 59.7875V61.275H276.965V45.7C276.965 39.75 272.95 36.5125 266.316 36.5125C262.563 36.5125 258.897 37.3875 254.969 39.1375L257.588 44.65C260.468 43.425 262.825 42.725 264.92 42.725C267.974 42.725 269.546 43.95 269.546 46.4V47.625C267.713 47.1875 265.88 46.925 264.047 46.925C257.762 46.925 254.009 49.55 254.009 54.275C254.096 58.475 257.5 61.7125 262.912 61.7125ZM222.587 61.275H230.443V48.675H243.622V61.275H251.565V29.075H243.71V41.5H230.53V29.075H222.674L222.587 61.275ZM192.562 49.1125C192.562 45.6125 195.355 42.9875 198.933 42.9875C200.854 42.9875 202.686 43.6 204.083 44.9125V53.4C202.686 54.7125 200.854 55.4125 198.933 55.325C195.355 55.325 192.562 52.6125 192.562 49.1125ZM204.17 61.275H211.502V27.5L204.083 29.075V38.2625C202.163 37.2125 200.068 36.6 197.886 36.6875C190.816 36.6875 185.23 42.2 185.23 49.1125C185.143 55.9375 190.554 61.5375 197.362 61.625C197.449 61.625 197.537 61.625 197.624 61.625C199.981 61.625 202.25 60.925 204.17 59.525V61.275ZM170.479 42.55C172.836 42.55 174.756 44.0375 175.541 46.4H165.416C166.115 44.0375 167.948 42.55 170.479 42.55ZM157.91 49.2C157.91 56.2875 163.671 61.8 171.09 61.8C175.192 61.8 178.16 60.6625 181.215 58.125L176.327 53.75C175.192 54.975 173.447 55.5875 171.439 55.5875C168.821 55.675 166.464 54.1 165.504 51.7375H182.873V49.9C182.873 42.2 177.723 36.6 170.653 36.6C163.758 36.5125 158.085 42.025 157.997 48.9375C157.91 48.9375 157.91 49.025 157.91 49.2ZM145.167 35.8125C147.785 35.8125 149.269 37.475 149.269 39.4875C149.269 41.5 147.785 43.1625 145.167 43.1625H137.398V35.9H145.167V35.8125ZM129.456 61.275H137.311V49.55H143.334L149.356 61.275H158.172L151.102 48.4125C154.768 46.925 157.212 43.3375 157.125 39.3125C157.125 33.5375 152.586 29.075 145.778 29.075H129.368V61.275H129.456Z" fill="black"/>
</g>
<defs>
<clipPath id="clip0_71_813">
<rect width="267" height="63" fill="white" transform="translate(31 13.5)"/>
</clipPath>
</defs>
</svg>
