<svg width="328" height="104" viewBox="0 0 328 104" fill="none" xmlns="http://www.w3.org/2000/svg">
<g filter="url(#filter0_d_7_265)">
<rect x="4" width="320" height="96" rx="25" fill="white"/>
</g>
<g clip-path="url(#clip0_7_265)">
<path d="M78.6146 52.7708C84.6283 52.7708 93.2194 51.525 93.2194 44.4333C93.2194 43.8583 93.2194 43.3792 93.0284 42.8042L89.4966 27.2792C88.6375 23.8292 87.9693 22.2958 81.9555 19.325C77.3737 16.9292 67.2553 13 64.2962 13C61.528 13 60.6688 16.6417 57.4233 16.6417C54.2733 16.6417 51.8869 13.9583 48.9278 13.9583C46.0641 13.9583 44.155 15.875 42.7231 19.9C42.7231 19.9 38.714 31.3042 38.2367 32.9333C38.1412 33.2208 38.1412 33.5083 38.1412 33.8917C38.0458 38.3 55.4188 52.7708 78.6146 52.7708ZM94.1739 47.3083C95.033 51.2375 95.033 51.6208 95.033 52.1958C95.033 58.9042 87.492 62.6417 77.66 62.6417C55.2279 62.6417 35.6594 49.4167 35.6594 40.7917C35.6594 39.5458 35.9457 38.3958 36.423 37.2458C28.4047 37.725 18 39.0667 18 48.3625C18 63.4083 53.6051 82 81.7646 82C103.338 82 108.779 72.225 108.779 64.4625C108.874 58.3292 103.624 51.4292 94.1739 47.3083Z" fill="#EE0000"/>
<path d="M94.1739 47.3083C95.033 51.2375 95.033 51.6208 95.033 52.1958C95.033 58.9042 87.492 62.6417 77.66 62.6417C55.2278 62.6417 35.6594 49.4167 35.6594 40.7917C35.6594 39.5458 35.9457 38.3958 36.423 37.2458L38.1412 32.9333C38.0458 33.2208 38.0458 33.5083 38.0458 33.8917C38.0458 38.3 55.3233 52.7708 78.6146 52.7708C84.6283 52.7708 93.2194 51.525 93.2194 44.4333C93.2194 43.8583 93.2193 43.3792 93.0284 42.8042L94.1739 47.3083Z" fill="black"/>
<path d="M294.441 57.275C294.441 62.9292 297.877 65.7083 304.082 65.7083C305.991 65.7083 307.9 65.4208 309.714 64.9417V58.3292C308.568 58.7125 307.327 58.9042 306.086 58.9042C303.509 58.9042 302.554 58.1375 302.554 55.6458V45.4875H310V38.6833H302.554V30.0583L294.441 31.7833V38.6833H289.095V45.4875H294.441V57.275ZM269.145 57.3708C269.145 55.6458 270.863 54.7833 273.536 54.7833C275.159 54.7833 276.781 54.975 278.309 55.3583V58.8083C276.781 59.6708 274.968 60.0542 273.249 60.0542C270.768 60.0542 269.145 59 269.145 57.3708ZM271.627 65.8042C274.49 65.8042 276.781 65.2292 278.977 63.6958V65.325H286.995V48.2667C286.995 41.75 282.604 38.2042 275.35 38.2042C271.245 38.2042 267.236 39.1625 262.94 41.0792L265.804 47.1167C268.954 45.775 271.531 45.0083 273.822 45.0083C277.163 45.0083 278.881 46.35 278.881 49.0333V50.375C276.877 49.8958 274.872 49.6083 272.868 49.6083C265.995 49.6083 261.89 52.4833 261.89 57.6583C261.986 62.2583 265.708 65.8042 271.627 65.8042ZM227.526 65.325H236.117V51.525H250.531V65.325H259.217V30.0583H250.626V43.6667H236.213V30.0583H227.621L227.526 65.325ZM194.689 52.0042C194.689 48.1708 197.744 45.2958 201.657 45.2958C203.757 45.2958 205.762 45.9667 207.289 47.4042V56.7C205.762 58.1375 203.757 58.9042 201.657 58.8083C197.744 58.8083 194.689 55.8375 194.689 52.0042ZM207.385 65.325H215.403V28.3333L207.289 30.0583V40.1208C205.189 38.9708 202.898 38.3 200.512 38.3958C192.78 38.3958 186.671 44.4333 186.671 52.0042C186.575 59.4792 192.494 65.6125 199.939 65.7083C200.035 65.7083 200.13 65.7083 200.226 65.7083C202.803 65.7083 205.285 64.9417 207.385 63.4083V65.325ZM170.539 44.8167C173.116 44.8167 175.216 46.4458 176.075 49.0333H165.002C165.766 46.4458 167.771 44.8167 170.539 44.8167ZM156.793 52.1C156.793 59.8625 163.093 65.9 171.207 65.9C175.693 65.9 178.939 64.6542 182.28 61.875L176.934 57.0833C175.693 58.425 173.784 59.0958 171.589 59.0958C168.725 59.1917 166.148 57.4667 165.098 54.8792H184.094V52.8667C184.094 44.4333 178.462 38.3 170.73 38.3C163.189 38.2042 156.984 44.2417 156.889 51.8125C156.793 51.8125 156.793 51.9083 156.793 52.1ZM142.857 37.4375C145.72 37.4375 147.343 39.2583 147.343 41.4625C147.343 43.6667 145.72 45.4875 142.857 45.4875H134.361V37.5333H142.857V37.4375ZM125.674 65.325H134.265V52.4833H140.852L147.438 65.325H157.079L149.348 51.2375C153.357 49.6083 156.029 45.6792 155.934 41.2708C155.934 34.9458 150.97 30.0583 143.525 30.0583H125.579V65.325H125.674Z" fill="black"/>
</g>
<defs>
<filter id="filter0_d_7_265" x="0" y="0" width="328" height="104" filterUnits="userSpaceOnUse" color-interpolation-filters="sRGB">
<feFlood flood-opacity="0" result="BackgroundImageFix"/>
<feColorMatrix in="SourceAlpha" type="matrix" values="0 0 0 0 0 0 0 0 0 0 0 0 0 0 0 0 0 0 127 0" result="hardAlpha"/>
<feOffset dy="4"/>
<feGaussianBlur stdDeviation="2"/>
<feComposite in2="hardAlpha" operator="out"/>
<feColorMatrix type="matrix" values="0 0 0 0 0 0 0 0 0 0 0 0 0 0 0 0 0 0 0.25 0"/>
<feBlend mode="normal" in2="BackgroundImageFix" result="effect1_dropShadow_7_265"/>
<feBlend mode="normal" in="SourceGraphic" in2="effect1_dropShadow_7_265" result="shape"/>
</filter>
<clipPath id="clip0_7_265">
<rect width="292" height="69" fill="white" transform="translate(18 13)"/>
</clipPath>
</defs>
</svg>
