<svg width="329" height="90" viewBox="0 0 329 90" fill="none" xmlns="http://www.w3.org/2000/svg">
<rect x="1.5" y="1" width="326" height="88" rx="23" fill="white"/>
<rect x="1.5" y="1" width="326" height="88" rx="23" stroke="#BDBDBD" stroke-width="2"/>
<g clip-path="url(#clip0_71_1080)">
<path d="M99.2857 63.408C96.5085 63.408 93.8341 62.68 91.4682 61.328C88.9996 59.976 86.8395 58.104 85.0908 55.816C84.6794 55.296 84.6794 54.464 85.2965 53.944L88.2795 51.24C88.4853 51.032 88.8967 50.928 89.2053 50.928H89.411C89.8225 51.032 90.131 51.24 90.3368 51.552C91.3654 53.216 92.8054 54.568 94.4512 55.608C95.9941 56.544 97.8457 57.064 99.6972 57.064C101.754 57.064 103.194 56.648 104.223 55.816C105.149 54.984 105.663 53.84 105.56 52.592C105.663 51.24 105.149 49.992 104.12 49.16C102.989 48.224 101.034 47.392 98.36 46.664C90.5425 44.792 86.6337 41.048 86.6337 35.536C86.6337 32.208 87.7652 29.504 90.0282 27.632C92.2911 25.76 95.1713 24.928 98.8743 24.928C103.914 24.824 108.749 27.112 111.835 31.168C112.246 31.792 112.246 32.624 111.629 33.04L108.852 35.64C108.646 35.848 108.338 35.952 107.926 35.952H107.72C107.309 35.952 107 35.744 106.795 35.432C105.869 34.08 104.737 33.04 103.297 32.208C101.96 31.48 100.417 31.168 98.8743 31.168C97.3313 31.064 95.8913 31.48 94.5541 32.312C93.6283 32.936 93.114 34.08 93.114 35.224C93.0112 36.368 93.5255 37.512 94.4512 38.24C95.4798 39.176 97.4342 39.904 100.109 40.528C103.709 41.568 106.589 42.92 108.646 44.688C110.806 46.56 111.938 49.264 111.938 52.592C111.938 54.568 111.321 56.544 110.292 58.208C109.16 59.872 107.618 61.224 105.766 61.952C103.812 62.992 101.549 63.512 99.2857 63.408ZM128.293 63.512C125.927 63.616 123.561 62.992 121.607 61.744C119.652 60.6 118.007 58.832 116.978 56.752C115.846 54.568 115.332 52.072 115.332 49.68C115.229 47.184 115.846 44.792 116.978 42.608C118.007 40.528 119.652 38.864 121.607 37.616C123.664 36.472 125.927 35.848 128.293 35.848C130.247 35.848 132.201 36.264 133.847 37.304C135.493 38.24 136.933 39.592 138.065 41.048C138.476 41.672 138.373 42.504 137.859 42.92L135.39 44.896C135.184 45.104 134.876 45.208 134.567 45.208H134.362C133.95 45.104 133.641 45 133.436 44.688C132.304 42.92 130.35 41.776 128.293 41.776C127.058 41.776 125.824 42.088 124.795 42.712C123.767 43.336 122.944 44.376 122.43 45.52C121.298 48.224 121.298 51.24 122.43 53.944C122.944 55.088 123.767 56.128 124.795 56.752C125.824 57.48 127.058 57.792 128.293 57.688C129.424 57.792 130.556 57.48 131.584 57.064C132.51 56.544 133.333 55.92 133.95 55.088C134.362 54.568 135.184 54.36 135.802 54.776L138.476 56.648C139.093 57.064 139.196 57.896 138.785 58.52V58.624C137.55 60.184 136.007 61.328 134.259 62.264C132.304 63.096 130.35 63.512 128.293 63.512ZM153.391 63.512C148.659 63.616 144.339 61.016 142.179 56.752C140.019 52.28 140.019 47.08 142.179 42.608C144.339 38.344 148.659 35.744 153.288 35.848C155.14 35.848 156.991 36.264 158.637 37.096C159.151 37.408 159.768 37.72 160.18 38.136V38.032C160.18 37.304 160.797 36.68 161.517 36.68H164.911C165.631 36.68 166.249 37.304 166.249 38.032V61.328C166.249 62.056 165.631 62.68 164.911 62.68H161.517C160.797 62.68 160.18 62.056 160.18 61.328V61.224C159.665 61.536 159.151 61.848 158.637 62.16C157.094 63.096 155.242 63.512 153.391 63.512ZM153.288 41.776C152.054 41.776 150.922 42.088 149.894 42.712C148.865 43.44 148.042 44.376 147.528 45.52C146.911 46.872 146.602 48.328 146.602 49.784C146.602 51.24 146.911 52.696 147.528 54.048C148.042 55.192 148.865 56.232 149.894 56.856C150.922 57.584 152.054 57.896 153.288 57.792C154.522 57.792 155.757 57.48 156.785 56.856C157.814 56.128 158.637 55.192 159.151 54.048C160.283 51.344 160.283 48.328 159.151 45.624C158.637 44.48 157.814 43.544 156.785 42.816C155.86 41.984 154.625 41.672 153.288 41.776ZM172.009 25.24H175.403C176.123 25.24 176.74 25.864 176.74 26.592V61.328C176.74 62.056 176.123 62.68 175.403 62.68H172.009C171.289 62.68 170.672 62.056 170.672 61.328V26.592C170.672 26.28 170.774 25.864 171.083 25.656C171.289 25.344 171.7 25.24 172.009 25.24ZM230.949 62.784C230.331 62.784 229.817 62.368 229.611 61.848L225.188 47.912L220.457 61.848C220.251 62.368 219.737 62.784 219.119 62.784H215.725C215.108 62.784 214.594 62.368 214.388 61.848L206.673 38.552C206.467 37.928 206.776 37.2 207.29 36.888C207.496 36.784 207.805 36.68 208.01 36.68H211.611C212.228 36.68 212.742 37.096 212.948 37.616L217.577 52.176L222.308 37.616C222.514 37.096 223.028 36.68 223.645 36.68H226.937C227.554 36.68 228.068 37.096 228.274 37.616L232.8 51.968L237.429 37.616C237.635 37.096 238.149 36.68 238.766 36.68H241.955C242.16 36.68 242.366 36.784 242.469 36.784C243.086 37.096 243.498 37.824 243.292 38.448L235.68 61.744C235.474 62.264 234.96 62.68 234.343 62.68L230.949 62.784ZM256.972 63.512C252.241 63.616 247.921 61.016 245.761 56.752C243.6 52.28 243.6 47.08 245.761 42.608C247.921 38.344 252.241 35.744 256.972 35.848C258.824 35.848 260.573 36.264 262.218 37.2C262.733 37.512 263.35 37.824 263.761 38.24V38.136C263.761 37.408 264.379 36.784 265.099 36.68H268.493C269.213 36.68 269.83 37.304 269.83 38.032V61.328C269.83 62.056 269.213 62.68 268.493 62.68H265.099C264.379 62.68 263.761 62.056 263.761 61.328V61.224C263.247 61.536 262.733 61.848 262.218 62.16C260.676 63.096 258.824 63.512 256.972 63.512ZM256.972 41.776C255.738 41.776 254.607 42.088 253.578 42.712C252.549 43.44 251.727 44.376 251.212 45.52C250.595 46.872 250.286 48.328 250.286 49.784C250.286 51.24 250.595 52.696 251.212 54.048C251.727 55.192 252.549 56.232 253.578 56.856C254.607 57.584 255.738 57.896 256.972 57.792C258.207 57.792 259.441 57.48 260.47 56.856C261.498 56.128 262.321 55.192 262.836 54.048C263.967 51.344 263.967 48.328 262.836 45.624C262.321 44.48 261.498 43.544 260.47 42.816C259.338 41.984 258.207 41.672 256.972 41.776ZM201.736 54.568C201.119 54.152 200.193 54.256 199.679 54.88C199.061 55.712 198.341 56.336 197.518 56.856C196.181 57.584 194.741 57.896 193.301 57.792C191.45 57.896 189.701 57.168 188.57 55.816C187.644 54.672 187.027 53.32 186.718 51.968H204.307C205.027 51.968 205.645 51.448 205.645 50.72C205.645 50.2 205.747 49.68 205.747 49.16C205.747 46.872 205.233 44.584 204.102 42.608C201.942 38.552 197.724 36.056 193.198 36.16C190.833 36.16 188.57 36.784 186.615 37.928C184.661 39.072 183.118 40.84 182.089 42.92C180.958 45.104 180.443 47.496 180.443 49.992C180.341 52.488 180.958 54.88 182.089 57.064C183.118 59.144 184.764 60.808 186.718 62.056C188.775 63.2 191.038 63.824 193.404 63.824C195.873 63.928 198.239 63.304 200.399 62.16C201.942 61.224 203.382 60.08 204.513 58.624C205.027 58 204.925 56.96 204.204 56.544C204.204 56.544 204.102 56.544 204.102 56.44L201.736 54.568ZM188.878 43.336C190.01 42.192 191.553 41.568 193.198 41.672C195.05 41.672 196.49 42.088 197.518 43.128C198.341 43.96 198.959 45.104 199.164 46.248H187.027C187.438 45.104 188.055 44.168 188.878 43.336ZM297.294 37.304C296.986 36.992 296.574 36.784 296.163 36.784H292.974C292.357 36.784 291.843 37.096 291.637 37.72L285.054 54.672L278.882 37.616C278.676 37.096 278.162 36.784 277.545 36.784H274.048C273.636 36.784 273.122 36.992 272.916 37.408C272.607 37.824 272.607 38.24 272.813 38.76L281.968 62.992C281.865 63.928 281.351 64.656 280.631 65.28C279.808 65.8 278.162 65.904 277.236 65.904C276.413 65.904 275.796 66.632 275.796 67.36V69.648C275.796 70.48 276.413 71.104 277.236 71.104C278.676 71.104 280.939 71.208 282.688 70.272C286.391 68.296 286.905 65.904 287.934 63.096L297.294 38.552C297.5 38.136 297.5 37.616 297.294 37.304ZM50.7351 57.584C49.0893 57.584 47.7521 56.232 47.7521 54.568C47.7521 52.904 49.0893 51.552 50.7351 51.552H54.4381C55.4667 51.552 56.3924 50.72 56.3924 49.576V42.088C56.3924 40.424 57.7296 39.072 59.3754 39.072C61.0212 39.072 62.3584 40.424 62.3584 42.088V53.944C62.2556 55.816 60.8155 57.376 58.964 57.584H50.7351Z" fill="#4F0599"/>
<path d="M50.7352 57.48H58.8612C60.6099 57.272 62.0499 55.816 62.1528 53.944V42.088C62.1528 40.528 60.9185 39.28 59.2727 39.28C57.7297 39.28 56.4954 40.528 56.4954 42.088V49.576C56.4954 50.72 55.5697 51.656 54.3353 51.656H50.6323C49.0894 51.656 47.855 52.904 47.7522 54.464C47.855 56.232 49.0894 57.48 50.7352 57.48ZM45.7978 48.744C44.152 48.744 42.8148 47.392 42.8148 45.728V33.976C42.9177 32.104 44.3577 30.544 46.2093 30.336H54.4382C56.084 30.336 57.4212 31.688 57.4212 33.352C57.4212 34.184 57.1126 34.912 56.5983 35.536C56.084 36.16 55.2611 36.472 54.4382 36.472H50.7352C49.7065 36.472 48.7808 37.304 48.7808 38.448V45.936C48.7808 47.392 47.4436 48.744 45.7978 48.744Z" fill="#4F0599"/>
<path d="M54.4381 30.44H46.3121C44.5634 30.648 43.1234 32.104 43.0205 33.976V45.832C43.0205 46.872 43.5348 47.912 44.3577 48.432C45.2835 48.952 46.4149 48.952 47.2378 48.432C48.1636 47.912 48.6779 46.872 48.575 45.832V38.344C48.575 37.824 48.7808 37.2 49.1922 36.888C49.6036 36.472 50.118 36.264 50.7351 36.264H54.4381C55.9811 36.264 57.2154 35.016 57.3183 33.456C57.2154 31.688 55.9811 30.44 54.4381 30.44Z" fill="#4F0599"/>
<path d="M55.6725 25.032C58.7583 25.032 61.8442 26.28 64.0043 28.464C66.1643 30.648 67.5015 33.664 67.3987 36.888V59.664C67.0901 61.224 65.8558 62.472 64.3128 62.68H49.295C46.2092 62.68 43.2262 61.432 40.9633 59.248C38.8032 57.064 37.466 54.048 37.466 50.824V28.776C37.466 26.696 39.1118 25.136 41.0661 25.032H55.6725ZM55.7753 19H40.8604C35.7173 19 31.5 23.264 31.5 28.464V51.032C31.5 55.712 33.3515 60.288 36.6431 63.616C39.9346 66.944 44.4606 68.816 49.1922 68.816H64.93C69.3531 68.504 72.9532 64.968 73.4675 60.496V36.784C73.4675 32.104 71.616 27.528 68.2216 24.2C64.93 20.872 60.4041 19 55.7753 19Z" fill="#4F0599"/>
</g>
<defs>
<clipPath id="clip0_71_1080">
<rect width="266" height="52" fill="white" transform="translate(31.5 19)"/>
</clipPath>
</defs>
</svg>
