<svg width="328" height="104" viewBox="0 0 328 104" fill="none" xmlns="http://www.w3.org/2000/svg">
<g filter="url(#filter0_d_7_272)">
<rect x="4" width="320" height="96" rx="25" fill="white"/>
</g>
<g clip-path="url(#clip0_7_272)">
<path d="M90.4501 68.532C87.3179 68.532 84.3016 67.72 81.6334 66.212C78.8492 64.704 76.413 62.616 74.4408 60.064C73.9768 59.484 73.9768 58.556 74.6729 57.976L78.0371 54.96C78.2691 54.728 78.7332 54.612 79.0812 54.612H79.3132C79.7773 54.728 80.1253 54.96 80.3573 55.308C81.5174 57.164 83.1415 58.672 84.9977 59.832C86.7378 60.876 88.826 61.456 90.9142 61.456C93.2343 61.456 94.8585 60.992 96.0186 60.064C97.0626 59.136 97.6427 57.86 97.5267 56.468C97.6427 54.96 97.0626 53.568 95.9025 52.64C94.6264 51.596 92.4223 50.668 89.406 49.856C80.5893 47.768 76.181 43.592 76.181 37.444C76.181 33.732 77.4571 30.716 80.0093 28.628C82.5615 26.54 85.8097 25.612 89.9861 25.612C95.6705 25.496 101.123 28.048 104.603 32.572C105.067 33.268 105.067 34.196 104.371 34.66L101.239 37.56C101.007 37.792 100.659 37.908 100.195 37.908H99.9629C99.4988 37.908 99.1508 37.676 98.9188 37.328C97.8747 35.82 96.5986 34.66 94.9745 33.732C93.4664 32.92 91.7262 32.572 89.9861 32.572C88.2459 32.456 86.6218 32.92 85.1137 33.848C84.0696 34.544 83.4896 35.82 83.4896 37.096C83.3735 38.372 83.9536 39.648 84.9977 40.46C86.1578 41.504 88.3619 42.316 91.3782 43.012C95.4385 44.172 98.6868 45.68 101.007 47.652C103.443 49.74 104.719 52.756 104.719 56.468C104.719 58.672 104.023 60.876 102.863 62.732C101.587 64.588 99.8469 66.096 97.7587 66.908C95.5545 68.068 93.0023 68.648 90.4501 68.532ZM123.165 68.648C120.497 68.764 117.828 68.068 115.624 66.676C113.42 65.4 111.564 63.428 110.404 61.108C109.128 58.672 108.548 55.888 108.548 53.22C108.432 50.436 109.128 47.768 110.404 45.332C111.564 43.012 113.42 41.156 115.624 39.764C117.944 38.488 120.497 37.792 123.165 37.792C125.369 37.792 127.573 38.256 129.429 39.416C131.285 40.46 132.91 41.968 134.186 43.592C134.65 44.288 134.534 45.216 133.954 45.68L131.169 47.884C130.937 48.116 130.589 48.232 130.241 48.232H130.009C129.545 48.116 129.197 48 128.965 47.652C127.689 45.68 125.485 44.404 123.165 44.404C121.773 44.404 120.38 44.752 119.22 45.448C118.06 46.144 117.132 47.304 116.552 48.58C115.276 51.596 115.276 54.96 116.552 57.976C117.132 59.252 118.06 60.412 119.22 61.108C120.38 61.92 121.773 62.268 123.165 62.152C124.441 62.268 125.717 61.92 126.877 61.456C127.921 60.876 128.849 60.18 129.545 59.252C130.009 58.672 130.937 58.44 131.633 58.904L134.65 60.992C135.346 61.456 135.462 62.384 134.998 63.08V63.196C133.606 64.936 131.865 66.212 129.893 67.256C127.689 68.184 125.485 68.648 123.165 68.648ZM151.471 68.648C146.135 68.764 141.262 65.864 138.826 61.108C136.39 56.12 136.39 50.32 138.826 45.332C141.262 40.576 146.135 37.676 151.355 37.792C153.443 37.792 155.531 38.256 157.387 39.184C157.968 39.532 158.664 39.88 159.128 40.344V40.228C159.128 39.416 159.824 38.72 160.636 38.72H164.464C165.276 38.72 165.972 39.416 165.972 40.228V66.212C165.972 67.024 165.276 67.72 164.464 67.72H160.636C159.824 67.72 159.128 67.024 159.128 66.212V66.096C158.548 66.444 157.968 66.792 157.387 67.14C155.647 68.184 153.559 68.648 151.471 68.648ZM151.355 44.404C149.963 44.404 148.687 44.752 147.527 45.448C146.367 46.26 145.439 47.304 144.858 48.58C144.162 50.088 143.814 51.712 143.814 53.336C143.814 54.96 144.162 56.584 144.858 58.092C145.439 59.368 146.367 60.528 147.527 61.224C148.687 62.036 149.963 62.384 151.355 62.268C152.747 62.268 154.139 61.92 155.299 61.224C156.459 60.412 157.387 59.368 157.968 58.092C159.244 55.076 159.244 51.712 157.968 48.696C157.387 47.42 156.459 46.376 155.299 45.564C154.255 44.636 152.863 44.288 151.355 44.404ZM172.469 25.96H176.297C177.109 25.96 177.805 26.656 177.805 27.468V66.212C177.805 67.024 177.109 67.72 176.297 67.72H172.469C171.657 67.72 170.961 67.024 170.961 66.212V27.468C170.961 27.12 171.077 26.656 171.425 26.424C171.657 26.076 172.121 25.96 172.469 25.96ZM238.942 67.836C238.246 67.836 237.666 67.372 237.434 66.792L232.445 51.248L227.109 66.792C226.877 67.372 226.297 67.836 225.601 67.836H221.773C221.077 67.836 220.497 67.372 220.264 66.792L211.564 40.808C211.332 40.112 211.68 39.3 212.26 38.952C212.492 38.836 212.84 38.72 213.072 38.72H217.132C217.828 38.72 218.408 39.184 218.64 39.764L223.861 56.004L229.197 39.764C229.429 39.184 230.009 38.72 230.705 38.72H234.418C235.114 38.72 235.694 39.184 235.926 39.764L241.03 55.772L246.251 39.764C246.483 39.184 247.063 38.72 247.759 38.72H251.355C251.587 38.72 251.819 38.836 251.935 38.836C252.631 39.184 253.095 39.996 252.863 40.692L244.278 66.676C244.046 67.256 243.466 67.72 242.77 67.72L238.942 67.836ZM268.292 68.648C262.956 68.764 258.084 65.864 255.647 61.108C253.211 56.12 253.211 50.32 255.647 45.332C258.084 40.576 262.956 37.676 268.292 37.792C270.38 37.792 272.353 38.256 274.209 39.3C274.789 39.648 275.485 39.996 275.949 40.46V40.344C275.949 39.532 276.645 38.836 277.457 38.72H281.285C282.097 38.72 282.793 39.416 282.793 40.228V66.212C282.793 67.024 282.097 67.72 281.285 67.72H277.457C276.645 67.72 275.949 67.024 275.949 66.212V66.096C275.369 66.444 274.789 66.792 274.209 67.14C272.469 68.184 270.38 68.648 268.292 68.648ZM268.292 44.404C266.9 44.404 265.624 44.752 264.464 45.448C263.304 46.26 262.376 47.304 261.796 48.58C261.1 50.088 260.752 51.712 260.752 53.336C260.752 54.96 261.1 56.584 261.796 58.092C262.376 59.368 263.304 60.528 264.464 61.224C265.624 62.036 266.9 62.384 268.292 62.268C269.684 62.268 271.077 61.92 272.237 61.224C273.397 60.412 274.325 59.368 274.905 58.092C276.181 55.076 276.181 51.712 274.905 48.696C274.325 47.42 273.397 46.376 272.237 45.564C270.961 44.636 269.684 44.288 268.292 44.404ZM205.995 58.672C205.299 58.208 204.255 58.324 203.675 59.02C202.979 59.948 202.167 60.644 201.239 61.224C199.731 62.036 198.107 62.384 196.483 62.268C194.394 62.384 192.422 61.572 191.146 60.064C190.102 58.788 189.406 57.28 189.058 55.772H208.896C209.708 55.772 210.404 55.192 210.404 54.38C210.404 53.8 210.52 53.22 210.52 52.64C210.52 50.088 209.94 47.536 208.664 45.332C206.227 40.808 201.471 38.024 196.367 38.14C193.698 38.14 191.146 38.836 188.942 40.112C186.738 41.388 184.998 43.36 183.838 45.68C182.561 48.116 181.981 50.784 181.981 53.568C181.865 56.352 182.561 59.02 183.838 61.456C184.998 63.776 186.854 65.632 189.058 67.024C191.378 68.3 193.93 68.996 196.599 68.996C199.383 69.112 202.051 68.416 204.487 67.14C206.227 66.096 207.851 64.82 209.128 63.196C209.708 62.5 209.592 61.34 208.78 60.876C208.78 60.876 208.664 60.876 208.664 60.76L205.995 58.672ZM191.494 46.144C192.77 44.868 194.51 44.172 196.367 44.288C198.455 44.288 200.079 44.752 201.239 45.912C202.167 46.84 202.863 48.116 203.095 49.392H189.406C189.87 48.116 190.566 47.072 191.494 46.144ZM313.768 39.416C313.42 39.068 312.956 38.836 312.492 38.836H308.896C308.2 38.836 307.619 39.184 307.387 39.88L299.963 58.788L293.002 39.764C292.77 39.184 292.19 38.836 291.494 38.836H287.55C287.086 38.836 286.506 39.068 286.274 39.532C285.926 39.996 285.926 40.46 286.158 41.04L296.483 68.068C296.367 69.112 295.787 69.924 294.974 70.62C294.046 71.2 292.19 71.316 291.146 71.316C290.218 71.316 289.522 72.128 289.522 72.94V75.492C289.522 76.42 290.218 77.116 291.146 77.116C292.77 77.116 295.322 77.232 297.295 76.188C301.471 73.984 302.051 71.316 303.211 68.184L313.768 40.808C314 40.344 314 39.764 313.768 39.416ZM35.6937 62.036C33.8376 62.036 32.3295 60.528 32.3295 58.672C32.3295 56.816 33.8376 55.308 35.6937 55.308H39.8701C41.0302 55.308 42.0742 54.38 42.0742 53.104V44.752C42.0742 42.896 43.5824 41.388 45.4385 41.388C47.2947 41.388 48.8028 42.896 48.8028 44.752V57.976C48.6868 60.064 47.0626 61.804 44.9745 62.036H35.6937Z" fill="#4F0599"/>
<path d="M35.6937 61.92H44.8585C46.8306 61.688 48.4548 60.064 48.5708 57.976V44.752C48.5708 43.012 47.1787 41.62 45.3225 41.62C43.5824 41.62 42.1903 43.012 42.1903 44.752V53.104C42.1903 54.38 41.1462 55.424 39.7541 55.424H35.5777C33.8376 55.424 32.4455 56.816 32.3295 58.556C32.4455 60.528 33.8376 61.92 35.6937 61.92ZM30.1253 52.176C28.2691 52.176 26.761 50.668 26.761 48.812V35.704C26.877 33.616 28.5012 31.876 30.5893 31.644H39.8701C41.7262 31.644 43.2343 33.152 43.2343 35.008C43.2343 35.936 42.8863 36.748 42.3063 37.444C41.7262 38.14 40.7981 38.488 39.8701 38.488H35.6937C34.5336 38.488 33.4896 39.416 33.4896 40.692V49.044C33.4896 50.668 31.9814 52.176 30.1253 52.176Z" fill="#4F0599"/>
<path d="M39.8701 31.76H30.7053C28.7332 31.992 27.1091 33.616 26.993 35.704V48.928C26.993 50.088 27.5731 51.248 28.5012 51.828C29.5452 52.408 30.8213 52.408 31.7494 51.828C32.7935 51.248 33.3736 50.088 33.2575 48.928V40.576C33.2575 39.996 33.4896 39.3 33.9536 38.952C34.4176 38.488 34.9977 38.256 35.6937 38.256H39.8701C41.6102 38.256 43.0023 36.864 43.1183 35.124C43.0023 33.152 41.6102 31.76 39.8701 31.76Z" fill="#4F0599"/>
<path d="M41.2622 25.728C44.7425 25.728 48.2227 27.12 50.6589 29.556C53.0951 31.992 54.6032 35.356 54.4872 38.952V64.356C54.1392 66.096 52.7471 67.488 51.007 67.72H34.0696C30.5893 67.72 27.2251 66.328 24.6729 63.892C22.2367 61.456 20.7285 58.092 20.7285 54.496V29.904C20.7285 27.584 22.5847 25.844 24.7889 25.728H41.2622ZM41.3782 19H24.5568C18.7564 19 14 23.756 14 29.556V54.728C14 59.948 16.0882 65.052 19.8005 68.764C23.5128 72.476 28.6172 74.564 33.9536 74.564H51.703C56.6914 74.216 60.7517 70.272 61.3318 65.284V38.836C61.3318 33.616 59.2436 28.512 55.4153 24.8C51.703 21.088 46.5986 19 41.3782 19Z" fill="#4F0599"/>
</g>
<defs>
<filter id="filter0_d_7_272" x="0" y="0" width="328" height="104" filterUnits="userSpaceOnUse" color-interpolation-filters="sRGB">
<feFlood flood-opacity="0" result="BackgroundImageFix"/>
<feColorMatrix in="SourceAlpha" type="matrix" values="0 0 0 0 0 0 0 0 0 0 0 0 0 0 0 0 0 0 127 0" result="hardAlpha"/>
<feOffset dy="4"/>
<feGaussianBlur stdDeviation="2"/>
<feComposite in2="hardAlpha" operator="out"/>
<feColorMatrix type="matrix" values="0 0 0 0 0 0 0 0 0 0 0 0 0 0 0 0 0 0 0.25 0"/>
<feBlend mode="normal" in2="BackgroundImageFix" result="effect1_dropShadow_7_272"/>
<feBlend mode="normal" in="SourceGraphic" in2="effect1_dropShadow_7_272" result="shape"/>
</filter>
<clipPath id="clip0_7_272">
<rect width="300" height="58" fill="white" transform="translate(14 19)"/>
</clipPath>
</defs>
</svg>
