<svg width="329" height="90" viewBox="0 0 329 90" fill="none" xmlns="http://www.w3.org/2000/svg">
<rect x="1.5" y="1" width="326" height="88" rx="23" fill="white"/>
<rect x="1.5" y="1" width="326" height="88" rx="23" stroke="#BDBDBD" stroke-width="2"/>
<path fill-rule="evenodd" clip-rule="evenodd" d="M97.908 45.75H99.908V13.75H97.908V45.75Z" fill="#2F7EF2"/>
<path fill-rule="evenodd" clip-rule="evenodd" d="M108.051 50.0353C108.051 55.7346 104.093 60.3538 99.2095 60.3538C94.3263 60.3538 90.3669 55.7346 90.3669 50.0353C90.3669 44.3359 94.3263 39.7156 99.2095 39.7156C104.093 39.7156 108.051 44.3359 108.051 50.0353Z" fill="#2F7EF2"/>
<path fill-rule="evenodd" clip-rule="evenodd" d="M106.722 58.1184L106.071 55.8552L113.285 53.7647C115.631 53.0853 117.133 50.8254 116.856 48.3908L116.199 42.6084L118.53 42.3417L119.187 48.1241C119.594 51.7041 117.385 55.0286 113.935 56.0279L106.722 58.1184Z" fill="#2F7EF2"/>
<path fill-rule="evenodd" clip-rule="evenodd" d="M117.027 67.1709L114.712 66.7913L114.9 65.6293C115.194 63.8199 114.093 62.0703 112.34 61.5601L106.83 59.9577L107.484 57.6956L112.993 59.2992C115.885 60.1403 117.701 63.0253 117.215 66.0089L117.027 67.1709Z" fill="#2F7EF2"/>
<path fill-rule="evenodd" clip-rule="evenodd" d="M106.335 56.3853L104.685 54.7121L109.231 50.1946C110.571 48.8622 110.741 46.7053 109.625 45.177L104.594 38.2924L106.486 36.8992L111.517 43.7848C113.315 46.2461 113.041 49.721 110.881 51.8679L106.335 56.3853Z" fill="#2F7EF2"/>
<path fill-rule="evenodd" clip-rule="evenodd" d="M111.641 73.2764L109.436 72.4729L109.474 72.3667C110.032 70.834 109.301 69.1275 107.812 68.479L103.72 66.6995L104.653 64.5381L108.746 66.3188C111.373 67.462 112.661 70.4732 111.678 73.1724L111.641 73.2764Z" fill="#2F7EF2"/>
<path fill-rule="evenodd" clip-rule="evenodd" d="M91.5732 58.1184L84.3591 56.0279C80.9092 55.0286 78.7007 51.7041 79.1076 48.1241L79.7647 42.3417L82.0955 42.6084L81.4395 48.3908C81.1628 50.8254 82.6645 53.0853 85.0096 53.7647L92.2237 55.8552L91.5732 58.1184Z" fill="#2F7EF2"/>
<path fill-rule="evenodd" clip-rule="evenodd" d="M81.2686 67.1709L81.0789 66.0089C80.5938 63.0242 82.4097 60.1403 85.3029 59.2992L90.8113 57.6956L91.464 59.9577L85.9556 61.5601C84.2014 62.0703 83.0999 63.8199 83.3943 65.6293L83.584 66.7913L81.2686 67.1709Z" fill="#2F7EF2"/>
<path fill-rule="evenodd" clip-rule="evenodd" d="M91.959 56.3853L87.4142 51.8679C85.2532 49.721 84.9797 46.2461 86.778 43.7848L91.809 36.8992L93.6999 38.2924L88.67 45.177C87.5542 46.7053 87.7229 48.8622 89.0647 50.1946L93.6106 54.7121L91.959 56.3853Z" fill="#2F7EF2"/>
<path fill-rule="evenodd" clip-rule="evenodd" d="M86.6546 73.2786L86.616 73.1724C85.6337 70.4721 86.9225 67.462 89.55 66.3188L93.6416 64.5381L94.5743 66.6995L90.4827 68.479C88.9932 69.1275 88.2633 70.834 88.8201 72.3645L88.8587 72.4696L86.6546 73.2786Z" fill="#2F7EF2"/>
<path fill-rule="evenodd" clip-rule="evenodd" d="M94.2523 53.7913C94.2523 52.4157 96.4762 51.3024 99.2194 51.3024C101.963 51.3024 104.186 52.4168 104.186 53.7913" fill="#020202"/>
<path fill-rule="evenodd" clip-rule="evenodd" d="M111.57 59.7385C111.57 66.0421 106.174 71.1527 99.5171 71.1527C92.8609 71.1527 87.4639 66.0421 87.4639 59.7385C87.4639 53.4339 92.8609 48.3244 99.5171 48.3244C106.174 48.3244 111.57 53.4339 111.57 59.7385Z" fill="#429DF8"/>
<path fill-rule="evenodd" clip-rule="evenodd" d="M96.6096 60.241H101.03V58.7691H96.6096V60.241Z" fill="#13497F"/>
<path fill-rule="evenodd" clip-rule="evenodd" d="M98.0242 57.8118C98.0242 60.1292 95.8863 62.0094 93.249 62.0094C90.6105 62.0094 88.4727 60.1292 88.4727 57.8118C88.4727 55.4934 90.6105 53.6142 93.249 53.6142C95.8863 53.6142 98.0242 55.4934 98.0242 57.8118Z" fill="white"/>
<path fill-rule="evenodd" clip-rule="evenodd" d="M93.249 53.8776C90.7606 53.8776 88.7362 55.6428 88.7362 57.8118C88.7362 59.9809 90.7606 61.7449 93.249 61.7449C95.7364 61.7449 97.7607 59.9809 97.7607 57.8118C97.7607 55.6428 95.7364 53.8776 93.249 53.8776ZM93.249 62.2728C90.4706 62.2728 88.2103 60.2719 88.2103 57.8118C88.2103 55.3517 90.4706 53.3509 93.249 53.3509C96.0264 53.3509 98.2867 55.3517 98.2867 57.8118C98.2867 60.2719 96.0264 62.2728 93.249 62.2728Z" fill="#13497F"/>
<path fill-rule="evenodd" clip-rule="evenodd" d="M96.6085 57.72C96.6085 59.3833 95.0749 60.7323 93.1818 60.7323C91.2898 60.7323 89.755 59.3833 89.755 57.72C89.755 56.0567 91.2898 54.7076 93.1818 54.7076C95.0749 54.7076 96.6085 56.0567 96.6085 57.72Z" fill="white"/>
<path fill-rule="evenodd" clip-rule="evenodd" d="M111.731 57.7476C111.731 60.6626 109.042 63.0264 105.725 63.0264C102.408 63.0264 99.7178 60.6626 99.7178 57.7476C99.7178 54.8316 102.408 52.4677 105.725 52.4677C109.042 52.4677 111.731 54.8316 111.731 57.7476Z" fill="white"/>
<path fill-rule="evenodd" clip-rule="evenodd" d="M105.725 52.7311C102.558 52.7311 99.9812 54.981 99.9812 57.7476C99.9812 60.5132 102.558 62.7631 105.725 62.7631C108.892 62.7631 111.469 60.5132 111.469 57.7476C111.469 54.981 108.892 52.7311 105.725 52.7311ZM105.725 63.2909C102.268 63.2909 99.4553 60.8043 99.4553 57.7476C99.4553 54.691 102.268 52.2043 105.725 52.2043C109.182 52.2043 111.995 54.691 111.995 57.7476C111.995 60.8043 109.182 63.2909 105.725 63.2909Z" fill="#13497F"/>
<path fill-rule="evenodd" clip-rule="evenodd" d="M110.227 58.1516C110.227 60.3206 108.227 62.078 105.76 62.078C103.293 62.078 101.292 60.3206 101.292 58.1516C101.292 55.9825 103.293 54.2251 105.76 54.2251C108.227 54.2251 110.227 55.9825 110.227 58.1516Z" fill="white"/>
<path fill-rule="evenodd" clip-rule="evenodd" d="M107.396 58.3032C107.396 59.0978 106.664 59.7408 105.76 59.7408C104.857 59.7408 104.125 59.0978 104.125 58.3032C104.125 57.5097 104.857 56.8656 105.76 56.8656C106.664 56.8656 107.396 57.5097 107.396 58.3032Z" fill="#2F7EF2"/>
<path fill-rule="evenodd" clip-rule="evenodd" d="M94.42 58.3032C94.42 59.0978 93.6879 59.7408 92.7849 59.7408C91.8819 59.7408 91.1498 59.0978 91.1498 58.3032C91.1498 57.5097 91.8819 56.8656 92.7849 56.8656C93.6879 56.8656 94.42 57.5097 94.42 58.3032Z" fill="#2F7EF2"/>
<path fill-rule="evenodd" clip-rule="evenodd" d="M95.3781 65.9846C95.3781 65.9846 95.4575 66.1074 95.6151 66.2657C95.6923 66.3453 95.796 66.4283 95.9128 66.5102C96.0286 66.5943 96.1675 66.6685 96.3142 66.7382C96.3902 66.7692 96.4685 66.8002 96.5501 66.8334C96.6383 66.8555 96.721 66.8854 96.8092 66.9108C96.9029 66.9274 96.9933 66.9529 97.0871 66.9739C97.1874 66.9839 97.2855 67.0038 97.3847 67.0204C97.5931 67.0392 97.8026 67.0669 98.0275 67.0735C98.1389 67.0835 98.2503 67.0857 98.3671 67.0857L98.6847 67.0923L99.0706 67.0846L99.258 67.0813L99.4146 67.0702C99.6196 67.0647 99.8346 67.0392 100.042 67.0182C100.141 67.0027 100.239 66.9817 100.34 66.9717C100.432 66.9507 100.524 66.9263 100.617 66.9086C100.706 66.8821 100.792 66.8566 100.875 66.8312C100.957 66.7991 101.035 66.767 101.111 66.7371C101.258 66.6674 101.398 66.5932 101.513 66.5102C101.63 66.4283 101.734 66.3442 101.812 66.2646C101.969 66.1074 102.049 65.9846 102.049 65.9846C102.049 65.9846 102.062 66.0178 102.072 66.0853C102.078 66.1506 102.095 66.2546 102.078 66.3808C102.067 66.5102 102.041 66.6696 101.973 66.8422C101.909 67.0182 101.802 67.2019 101.659 67.3889C101.587 67.4797 101.501 67.5638 101.412 67.6567C101.319 67.7375 101.217 67.8183 101.11 67.9002C101.001 67.971 100.884 68.0385 100.764 68.1094C100.643 68.1702 100.514 68.2211 100.383 68.2787C100.12 68.3683 99.8479 68.4546 99.5469 68.4923L99.3231 68.5266C99.2514 68.5377 99.1929 68.5377 99.1268 68.5421L98.742 68.5631L98.2888 68.541C98.1488 68.5399 98.0066 68.5133 97.8655 68.489C97.5854 68.4524 97.3065 68.3672 97.0452 68.2765C96.914 68.22 96.7861 68.168 96.6648 68.1083C96.5435 68.0363 96.4266 67.9699 96.3175 67.898C96.2105 67.8161 96.1091 67.7353 96.0154 67.6556C95.9283 67.5616 95.8412 67.4775 95.7684 67.3867C95.6262 67.2008 95.5203 67.0171 95.4553 66.8411C95.3869 66.6685 95.3604 66.5091 95.3494 66.3808C95.3329 66.2546 95.3494 66.1506 95.356 66.0853C95.366 66.0167 95.3781 65.9846 95.3781 65.9846Z" fill="white"/>
<path fill-rule="evenodd" clip-rule="evenodd" d="M112.114 72.857C112.114 73.9315 111.245 74.8036 110.173 74.8036C109.103 74.8036 108.234 73.9315 108.234 72.857C108.234 71.7813 109.103 70.9092 110.173 70.9092C111.245 70.9092 112.114 71.7813 112.114 72.857Z" fill="#2F7EF2"/>
<path fill-rule="evenodd" clip-rule="evenodd" d="M117.685 66.9695C117.685 68.0441 116.817 68.9161 115.746 68.9161C114.675 68.9161 113.806 68.0441 113.806 66.9695C113.806 65.8938 114.675 65.0229 115.746 65.0229C116.817 65.0229 117.685 65.8938 117.685 66.9695Z" fill="#2F7EF2"/>
<path fill-rule="evenodd" clip-rule="evenodd" d="M119.152 42.5376C119.152 43.6133 118.284 44.4842 117.212 44.4842C116.142 44.4842 115.273 43.6133 115.273 42.5376C115.273 41.463 116.142 40.591 117.212 40.591C118.284 40.591 119.152 41.463 119.152 42.5376Z" fill="#2F7EF2"/>
<path fill-rule="evenodd" clip-rule="evenodd" d="M107.421 37.5344C107.421 38.6089 106.553 39.481 105.482 39.481C104.41 39.481 103.543 38.6089 103.543 37.5344C103.543 36.4587 104.41 35.5866 105.482 35.5866C106.553 35.5866 107.421 36.4587 107.421 37.5344Z" fill="#2F7EF2"/>
<path fill-rule="evenodd" clip-rule="evenodd" d="M94.8102 37.5344C94.8102 38.6089 93.9425 39.481 92.8708 39.481C91.8002 39.481 90.9314 38.6089 90.9314 37.5344C90.9314 36.4587 91.8002 35.5866 92.8708 35.5866C93.9425 35.5866 94.8102 36.4587 94.8102 37.5344Z" fill="#2F7EF2"/>
<path fill-rule="evenodd" clip-rule="evenodd" d="M82.7868 42.5376C82.7868 43.6133 81.9191 44.4842 80.8474 44.4842C79.7768 44.4842 78.908 43.6133 78.908 42.5376C78.908 41.463 79.7768 40.591 80.8474 40.591C81.9191 40.591 82.7868 41.463 82.7868 42.5376Z" fill="#2F7EF2"/>
<path fill-rule="evenodd" clip-rule="evenodd" d="M84.2532 66.9695C84.2532 68.0441 83.3855 68.9161 82.3138 68.9161C81.2421 68.9161 80.3744 68.0441 80.3744 66.9695C80.3744 65.8938 81.2421 65.0229 82.3138 65.0229C83.3855 65.0229 84.2532 65.8938 84.2532 66.9695Z" fill="#2F7EF2"/>
<path fill-rule="evenodd" clip-rule="evenodd" d="M89.8256 72.857C89.8256 73.9315 88.9568 74.8036 87.8862 74.8036C86.8145 74.8036 85.9468 73.9315 85.9468 72.857C85.9468 71.7813 86.8145 70.9092 87.8862 70.9092C88.9568 70.9092 89.8256 71.7813 89.8256 72.857Z" fill="#2F7EF2"/>
<path fill-rule="evenodd" clip-rule="evenodd" d="M138.837 46.3955C138.245 46.8846 137.949 47.532 137.949 48.3377C137.949 49.1433 138.311 49.783 139.034 50.2588C139.757 50.7347 141.429 51.2958 144.047 51.9432C146.666 52.5906 148.699 53.5611 150.147 54.8548C151.593 56.1496 152.318 58.0376 152.318 60.5209C152.318 63.0032 151.389 65.0173 149.535 66.5622C147.679 68.1083 145.238 68.8807 142.212 68.8807C137.843 68.8807 133.909 67.2561 130.41 64.0069L134.08 59.4906C137.054 62.1057 139.804 63.4127 142.331 63.4127C143.462 63.4127 144.35 63.1692 144.995 62.6801C145.64 62.192 145.963 61.5313 145.963 60.6991C145.963 59.8669 145.62 59.2073 144.936 58.7182C144.251 58.229 142.896 57.7344 140.87 57.2319C137.659 56.4661 135.311 55.469 133.824 54.2406C132.337 53.0122 131.594 51.0844 131.594 48.4561C131.594 45.8277 132.534 43.8003 134.417 42.3749C136.297 40.9484 138.646 40.2346 141.462 40.2346C143.304 40.2346 145.147 40.5523 146.988 41.1853C148.83 41.8194 150.436 42.718 151.804 43.88L148.686 48.3963C146.291 46.5736 143.817 45.6628 141.265 45.6628C140.238 45.6628 139.429 45.9074 138.837 46.3955Z" fill="#13497F"/>
<path fill-rule="evenodd" clip-rule="evenodd" d="M161.277 57.9258C161.277 59.6555 161.757 61.0687 162.718 62.1643C163.679 63.2611 164.843 63.8089 166.211 63.8089C167.579 63.8089 168.777 63.2611 169.803 62.1643C170.83 61.0687 171.344 59.6622 171.344 57.9457C171.344 56.2282 170.843 54.7895 169.843 53.6264C168.843 52.4644 167.646 51.8834 166.251 51.8834C164.856 51.8834 163.679 52.4578 162.718 53.6065C161.757 54.7552 161.277 56.1961 161.277 57.9258ZM167.79 46.8912C170.264 46.8912 172.468 47.9282 174.402 50.001C176.337 52.0749 177.304 54.6833 177.304 57.8262C177.304 60.9703 176.337 63.5975 174.402 65.7112C172.468 67.8238 170.205 68.8807 167.613 68.8807C165.02 68.8807 162.935 67.8371 161.357 65.75V76.25H155.436V47.2476H161.357V49.6247C163.172 47.802 165.317 46.8912 167.79 46.8912Z" fill="#13497F"/>
<path fill-rule="evenodd" clip-rule="evenodd" d="M180.185 68.5631H186.106V47.2476H180.185V68.5631ZM180.678 44.534C180.008 43.8601 179.671 43.0345 179.671 42.0573C179.671 41.0801 180.008 40.2546 180.678 39.5806C181.349 38.9077 182.171 38.5702 183.145 38.5702C184.118 38.5702 184.942 38.9077 185.612 39.5806C186.283 40.2546 186.619 41.0801 186.619 42.0573C186.619 43.0345 186.283 43.8601 185.612 44.534C184.942 45.2069 184.118 45.5444 183.145 45.5444C182.171 45.5444 181.349 45.2069 180.678 44.534Z" fill="#13497F"/>
<path fill-rule="evenodd" clip-rule="evenodd" d="M194.947 57.9457C194.947 59.6622 195.461 61.0687 196.488 62.1643C197.513 63.2611 198.71 63.8089 200.079 63.8089C201.447 63.8089 202.611 63.2611 203.573 62.1643C204.533 61.0687 205.014 59.6555 205.014 57.9258C205.014 56.1961 204.533 54.7552 203.573 53.6065C202.611 52.4578 201.434 51.8834 200.04 51.8834C198.644 51.8834 197.448 52.4644 196.448 53.6264C195.447 54.7895 194.947 56.2282 194.947 57.9457ZM198.677 68.8807C196.165 68.8807 193.921 67.8106 191.947 65.6714C189.974 63.5322 188.987 60.8773 188.987 57.7078C188.987 54.5383 189.947 51.9432 191.869 49.9224C193.79 47.9016 196.039 46.8912 198.619 46.8912C201.198 46.8912 203.303 47.802 204.934 49.6247V39.1656H210.855V68.5631H204.934V65.75C203.276 67.8371 201.19 68.8807 198.677 68.8807Z" fill="#13497F"/>
<path fill-rule="evenodd" clip-rule="evenodd" d="M227.632 52.834C226.815 52.1479 225.821 51.8037 224.651 51.8037C223.479 51.8037 222.407 52.1601 221.434 52.8739C220.46 53.5866 219.894 54.5516 219.736 55.7656H229.052C228.921 54.4985 228.446 53.5213 227.632 52.834ZM233.315 65.4733C230.921 67.7453 228.111 68.8807 224.887 68.8807C221.664 68.8807 219 67.8836 216.894 65.8894C214.789 63.8952 213.736 61.2204 213.736 57.8661C213.736 54.5117 214.809 51.8436 216.953 49.8626C219.098 47.8817 221.632 46.8912 224.552 46.8912C227.473 46.8912 229.954 47.7766 231.993 49.5461C234.032 51.3157 235.052 53.7448 235.052 56.8357V60.0052H219.579C219.763 61.1683 220.368 62.119 221.394 62.8582C222.421 63.5975 223.579 63.9671 224.868 63.9671C226.947 63.9671 228.657 63.2677 230 61.8678L233.315 65.4733Z" fill="#13497F"/>
<path fill-rule="evenodd" clip-rule="evenodd" d="M248.946 52.4777C247.183 52.4777 245.868 53.1052 244.999 54.3601C244.132 55.614 243.697 57.2718 243.697 59.3324V68.5631H237.776V47.2476H243.697V50.0607C244.46 49.1887 245.414 48.4494 246.558 47.8419C247.704 47.2343 248.868 46.9178 250.052 46.8912L250.092 52.4777H248.946Z" fill="#13497F"/>
</svg>
