<svg width="328" height="104" viewBox="0 0 328 104" fill="none" xmlns="http://www.w3.org/2000/svg">
<g filter="url(#filter0_d_7_357)">
<rect x="4" width="320" height="96" rx="25" fill="white"/>
</g>
<g clip-path="url(#clip0_7_357)">
<path fill-rule="evenodd" clip-rule="evenodd" d="M97.0413 58.9086H99.2662V5.95575H97.0413V58.9086Z" fill="#2F7EF2"/>
<path fill-rule="evenodd" clip-rule="evenodd" d="M107.143 62.7853C107.143 68.4846 103.185 73.1039 98.3015 73.1039C93.4183 73.1039 89.459 68.4846 89.459 62.7853C89.459 57.086 93.4183 52.4656 98.3015 52.4656C103.185 52.4656 107.143 57.086 107.143 62.7853Z" fill="#2F7EF2"/>
<path fill-rule="evenodd" clip-rule="evenodd" d="M105.814 70.8684L105.163 68.6052L112.377 66.5147C114.723 65.8353 116.225 63.5754 115.948 61.1408L115.291 55.3584L117.622 55.0917L118.279 60.8741C118.686 64.4541 116.477 67.7786 113.027 68.7779L105.814 70.8684Z" fill="#2F7EF2"/>
<path fill-rule="evenodd" clip-rule="evenodd" d="M116.119 79.921L113.804 79.5414L113.992 78.3794C114.287 76.57 113.185 74.8203 111.432 74.3102L105.922 72.7077L106.576 70.4457L112.085 72.0492C114.977 72.8903 116.793 75.7754 116.308 78.759L116.119 79.921Z" fill="#2F7EF2"/>
<path fill-rule="evenodd" clip-rule="evenodd" d="M105.427 69.1354L103.777 67.4621L108.323 62.9447C109.663 61.6122 109.833 59.4553 108.717 57.927L103.686 51.0425L105.578 49.6492L110.609 56.5348C112.407 58.9961 112.133 62.471 109.973 64.6179L105.427 69.1354Z" fill="#2F7EF2"/>
<path fill-rule="evenodd" clip-rule="evenodd" d="M110.733 86.0264L108.528 85.2229L108.566 85.1167C109.124 83.584 108.393 81.8775 106.904 81.229L102.812 79.4495L103.745 77.2881L107.838 79.0688C110.465 80.212 111.753 83.2232 110.77 85.9224L110.733 86.0264Z" fill="#2F7EF2"/>
<path fill-rule="evenodd" clip-rule="evenodd" d="M90.6652 70.8684L83.4511 68.7779C80.0012 67.7786 77.7928 64.4541 78.1996 60.8741L78.8568 55.0917L81.1876 55.3584L80.5315 61.1408C80.2548 63.5754 81.7565 65.8353 84.1017 66.5147L91.3157 68.6052L90.6652 70.8684Z" fill="#2F7EF2"/>
<path fill-rule="evenodd" clip-rule="evenodd" d="M80.3606 79.921L80.171 78.759C79.6859 75.7743 81.5018 72.8903 84.3949 72.0492L89.9033 70.4457L90.556 72.7077L85.0476 74.3102C83.2934 74.8203 82.192 76.57 82.4864 78.3794L82.676 79.5414L80.3606 79.921Z" fill="#2F7EF2"/>
<path fill-rule="evenodd" clip-rule="evenodd" d="M91.051 69.1354L86.5062 64.6179C84.3452 62.471 84.0718 58.9961 85.87 56.5348L90.901 49.6492L92.7919 51.0425L87.762 57.927C86.6463 59.4553 86.8149 61.6122 88.1568 62.9447L92.7026 67.4621L91.051 69.1354Z" fill="#2F7EF2"/>
<path fill-rule="evenodd" clip-rule="evenodd" d="M85.7467 86.0286L85.7081 85.9224C84.7257 83.2221 86.0146 80.212 88.642 79.0688L92.7336 77.2881L93.6664 79.4495L89.5748 81.229C88.0852 81.8775 87.3553 83.584 87.9121 85.1145L87.9507 85.2196L85.7467 86.0286Z" fill="#2F7EF2"/>
<path fill-rule="evenodd" clip-rule="evenodd" d="M93.3444 66.5413C93.3444 65.1657 95.5682 64.0524 98.3114 64.0524C101.055 64.0524 103.278 65.1668 103.278 66.5413" fill="#020202"/>
<path fill-rule="evenodd" clip-rule="evenodd" d="M110.662 72.4886C110.662 78.7921 105.266 83.9027 98.6091 83.9027C91.953 83.9027 86.5559 78.7921 86.5559 72.4886C86.5559 66.1839 91.953 61.0744 98.6091 61.0744C105.266 61.0744 110.662 66.1839 110.662 72.4886Z" fill="#429DF8"/>
<path fill-rule="evenodd" clip-rule="evenodd" d="M95.7017 72.991H100.122V71.5191H95.7017V72.991Z" fill="#13497F"/>
<path fill-rule="evenodd" clip-rule="evenodd" d="M97.1162 70.5618C97.1162 72.8792 94.9783 74.7594 92.341 74.7594C89.7026 74.7594 87.5647 72.8792 87.5647 70.5618C87.5647 68.2434 89.7026 66.3643 92.341 66.3643C94.9783 66.3643 97.1162 68.2434 97.1162 70.5618Z" fill="white"/>
<path fill-rule="evenodd" clip-rule="evenodd" d="M92.3411 66.6277C89.8526 66.6277 87.8283 68.3928 87.8283 70.5619C87.8283 72.7309 89.8526 74.495 92.3411 74.495C94.8285 74.495 96.8528 72.7309 96.8528 70.5619C96.8528 68.3928 94.8285 66.6277 92.3411 66.6277ZM92.3411 75.0228C89.5626 75.0228 87.3024 73.022 87.3024 70.5619C87.3024 68.1017 89.5626 66.1009 92.3411 66.1009C95.1184 66.1009 97.3787 68.1017 97.3787 70.5619C97.3787 73.022 95.1184 75.0228 92.3411 75.0228Z" fill="#13497F"/>
<path fill-rule="evenodd" clip-rule="evenodd" d="M95.7006 70.47C95.7006 72.1333 94.1669 73.4823 92.2738 73.4823C90.3818 73.4823 88.847 72.1333 88.847 70.47C88.847 68.8067 90.3818 67.4576 92.2738 67.4576C94.1669 67.4576 95.7006 68.8067 95.7006 70.47Z" fill="white"/>
<path fill-rule="evenodd" clip-rule="evenodd" d="M110.823 70.4977C110.823 73.4126 108.134 75.7765 104.817 75.7765C101.5 75.7765 98.8098 73.4126 98.8098 70.4977C98.8098 67.5816 101.5 65.2178 104.817 65.2178C108.134 65.2178 110.823 67.5816 110.823 70.4977Z" fill="white"/>
<path fill-rule="evenodd" clip-rule="evenodd" d="M104.817 65.4811C101.65 65.4811 99.0733 67.731 99.0733 70.4976C99.0733 73.2632 101.65 75.5131 104.817 75.5131C107.984 75.5131 110.561 73.2632 110.561 70.4976C110.561 67.731 107.984 65.4811 104.817 65.4811ZM104.817 76.0409C101.36 76.0409 98.5474 73.5543 98.5474 70.4976C98.5474 67.441 101.36 64.9543 104.817 64.9543C108.274 64.9543 111.087 67.441 111.087 70.4976C111.087 73.5543 108.274 76.0409 104.817 76.0409Z" fill="#13497F"/>
<path fill-rule="evenodd" clip-rule="evenodd" d="M109.319 70.9016C109.319 73.0707 107.319 74.8281 104.852 74.8281C102.385 74.8281 100.384 73.0707 100.384 70.9016C100.384 68.7325 102.385 66.9752 104.852 66.9752C107.319 66.9752 109.319 68.7325 109.319 70.9016Z" fill="white"/>
<path fill-rule="evenodd" clip-rule="evenodd" d="M106.488 71.0532C106.488 71.8478 105.756 72.4908 104.852 72.4908C103.949 72.4908 103.217 71.8478 103.217 71.0532C103.217 70.2597 103.949 69.6157 104.852 69.6157C105.756 69.6157 106.488 70.2597 106.488 71.0532Z" fill="#2F7EF2"/>
<path fill-rule="evenodd" clip-rule="evenodd" d="M93.512 71.0532C93.512 71.8478 92.7799 72.4908 91.8769 72.4908C90.9739 72.4908 90.2418 71.8478 90.2418 71.0532C90.2418 70.2597 90.9739 69.6157 91.8769 69.6157C92.7799 69.6157 93.512 70.2597 93.512 71.0532Z" fill="#2F7EF2"/>
<path fill-rule="evenodd" clip-rule="evenodd" d="M94.4701 78.7346C94.4701 78.7346 94.5495 78.8574 94.7072 79.0156C94.7844 79.0953 94.888 79.1783 95.0049 79.2602C95.1206 79.3443 95.2596 79.4185 95.4062 79.4882C95.4823 79.5192 95.5606 79.5502 95.6421 79.5834C95.7303 79.6055 95.813 79.6354 95.9012 79.6608C95.995 79.6774 96.0854 79.7029 96.1791 79.7239C96.2794 79.7339 96.3776 79.7538 96.4768 79.7704C96.6852 79.7892 96.8947 79.8169 97.1196 79.8235C97.2309 79.8335 97.3423 79.8357 97.4592 79.8357L97.7767 79.8423L98.1626 79.8346L98.35 79.8313L98.5066 79.8202C98.7117 79.8147 98.9267 79.7892 99.134 79.7682C99.2332 79.7527 99.3313 79.7317 99.4317 79.7217C99.5243 79.7007 99.6158 79.6763 99.7095 79.6586C99.7977 79.6321 99.8837 79.6066 99.9675 79.5812C100.049 79.5491 100.127 79.517 100.203 79.4871C100.35 79.4174 100.49 79.3432 100.605 79.2602C100.722 79.1783 100.826 79.0942 100.904 79.0145C101.061 78.8574 101.141 78.7346 101.141 78.7346C101.141 78.7346 101.154 78.7678 101.164 78.8353C101.17 78.9006 101.187 79.0046 101.17 79.1307C101.159 79.2602 101.133 79.4196 101.065 79.5922C101.001 79.7682 100.894 79.9519 100.751 80.1389C100.679 80.2297 100.593 80.3138 100.504 80.4067C100.411 80.4875 100.309 80.5683 100.202 80.6502C100.093 80.721 99.9763 80.7885 99.8561 80.8594C99.7349 80.9202 99.6059 80.9711 99.4747 81.0287C99.2122 81.1183 98.9399 81.2046 98.6389 81.2423L98.4151 81.2766C98.3434 81.2876 98.285 81.2876 98.2188 81.2921L97.834 81.3131L97.3809 81.291C97.2409 81.2898 97.0986 81.2633 96.9575 81.2389C96.6775 81.2024 96.3985 81.1172 96.1372 81.0265C96.006 80.97 95.8781 80.918 95.7568 80.8583C95.6355 80.7863 95.5187 80.7199 95.4095 80.648C95.3026 80.5661 95.2011 80.4853 95.1074 80.4056C95.0203 80.3116 94.9332 80.2274 94.8604 80.1367C94.7182 79.9508 94.6124 79.7671 94.5473 79.5911C94.4789 79.4185 94.4525 79.2591 94.4415 79.1307C94.4249 79.0046 94.4415 78.9006 94.4481 78.8353C94.458 78.7667 94.4701 78.7346 94.4701 78.7346Z" fill="white"/>
<path fill-rule="evenodd" clip-rule="evenodd" d="M111.206 85.607C111.206 86.6815 110.337 87.5536 109.265 87.5536C108.195 87.5536 107.326 86.6815 107.326 85.607C107.326 84.5313 108.195 83.6592 109.265 83.6592C110.337 83.6592 111.206 84.5313 111.206 85.607Z" fill="#2F7EF2"/>
<path fill-rule="evenodd" clip-rule="evenodd" d="M116.777 79.7195C116.777 80.7941 115.909 81.6661 114.838 81.6661C113.767 81.6661 112.898 80.7941 112.898 79.7195C112.898 78.6438 113.767 77.7729 114.838 77.7729C115.909 77.7729 116.777 78.6438 116.777 79.7195Z" fill="#2F7EF2"/>
<path fill-rule="evenodd" clip-rule="evenodd" d="M118.244 55.2876C118.244 56.3633 117.376 57.2343 116.304 57.2343C115.234 57.2343 114.365 56.3633 114.365 55.2876C114.365 54.2131 115.234 53.341 116.304 53.341C117.376 53.341 118.244 54.2131 118.244 55.2876Z" fill="#2F7EF2"/>
<path fill-rule="evenodd" clip-rule="evenodd" d="M106.513 50.2844C106.513 51.359 105.645 52.231 104.574 52.231C103.502 52.231 102.635 51.359 102.635 50.2844C102.635 49.2087 103.502 48.3367 104.574 48.3367C105.645 48.3367 106.513 49.2087 106.513 50.2844Z" fill="#2F7EF2"/>
<path fill-rule="evenodd" clip-rule="evenodd" d="M93.9023 50.2844C93.9023 51.359 93.0345 52.231 91.9628 52.231C90.8923 52.231 90.0234 51.359 90.0234 50.2844C90.0234 49.2087 90.8923 48.3367 91.9628 48.3367C93.0345 48.3367 93.9023 49.2087 93.9023 50.2844Z" fill="#2F7EF2"/>
<path fill-rule="evenodd" clip-rule="evenodd" d="M81.8788 55.2876C81.8788 56.3633 81.0111 57.2343 79.9394 57.2343C78.8688 57.2343 78 56.3633 78 55.2876C78 54.2131 78.8688 53.341 79.9394 53.341C81.0111 53.341 81.8788 54.2131 81.8788 55.2876Z" fill="#2F7EF2"/>
<path fill-rule="evenodd" clip-rule="evenodd" d="M83.3453 79.7195C83.3453 80.7941 82.4775 81.6661 81.4058 81.6661C80.3341 81.6661 79.4664 80.7941 79.4664 79.7195C79.4664 78.6438 80.3341 77.7729 81.4058 77.7729C82.4775 77.7729 83.3453 78.6438 83.3453 79.7195Z" fill="#2F7EF2"/>
<path fill-rule="evenodd" clip-rule="evenodd" d="M88.9176 85.607C88.9176 86.6815 88.0488 87.5536 86.9782 87.5536C85.9065 87.5536 85.0388 86.6815 85.0388 85.607C85.0388 84.5313 85.9065 83.6592 86.9782 83.6592C88.0488 83.6592 88.9176 84.5313 88.9176 85.607Z" fill="#2F7EF2"/>
<path fill-rule="evenodd" clip-rule="evenodd" d="M137.929 59.1455C137.337 59.6346 137.041 60.282 137.041 61.0877C137.041 61.8933 137.403 62.533 138.126 63.0089C138.849 63.4847 140.521 64.0458 143.139 64.6932C145.758 65.3406 147.791 66.3112 149.239 67.6049C150.685 68.8997 151.41 70.7876 151.41 73.271C151.41 75.7532 150.481 77.7674 148.627 79.3123C146.771 80.8583 144.33 81.6307 141.304 81.6307C136.935 81.6307 133.001 80.0062 129.502 76.757L133.172 72.2407C136.146 74.8557 138.896 76.1627 141.423 76.1627C142.554 76.1627 143.442 75.9192 144.087 75.4301C144.732 74.9421 145.055 74.2814 145.055 73.4492C145.055 72.6169 144.712 71.9574 144.028 71.4682C143.343 70.9791 141.988 70.4844 139.962 69.982C136.751 69.2162 134.403 68.2191 132.916 66.9907C131.429 65.7623 130.686 63.8344 130.686 61.2061C130.686 58.5778 131.626 56.5504 133.509 55.125C135.39 53.6985 137.738 52.9847 140.554 52.9847C142.396 52.9847 144.239 53.3023 146.08 53.9353C147.922 54.5694 149.528 55.468 150.896 56.63L147.778 61.1463C145.383 59.3237 142.909 58.4129 140.357 58.4129C139.33 58.4129 138.521 58.6575 137.929 59.1455Z" fill="#13497F"/>
<path fill-rule="evenodd" clip-rule="evenodd" d="M160.369 70.6758C160.369 72.4055 160.849 73.8187 161.81 74.9143C162.771 76.011 163.935 76.5589 165.303 76.5589C166.671 76.5589 167.869 76.011 168.895 74.9143C169.922 73.8187 170.436 72.4122 170.436 70.6957C170.436 68.9782 169.935 67.5395 168.935 66.3764C167.935 65.2144 166.738 64.6334 165.343 64.6334C163.948 64.6334 162.771 65.2078 161.81 66.3565C160.849 67.5052 160.369 68.9461 160.369 70.6758ZM166.882 59.6412C169.356 59.6412 171.56 60.6782 173.494 62.751C175.429 64.8249 176.396 67.4333 176.396 70.5762C176.396 73.7202 175.429 76.3475 173.494 78.4612C171.56 80.5738 169.297 81.6307 166.705 81.6307C164.112 81.6307 162.027 80.5871 160.449 78.4999V89H154.528V59.9976H160.449V62.3747C162.265 60.552 164.409 59.6412 166.882 59.6412Z" fill="#13497F"/>
<path fill-rule="evenodd" clip-rule="evenodd" d="M179.277 81.3131H185.198V59.9976H179.277V81.3131ZM179.77 57.2841C179.1 56.6101 178.763 55.7845 178.763 54.8074C178.763 53.8302 179.1 53.0046 179.77 52.3306C180.441 51.6578 181.263 51.3203 182.237 51.3203C183.21 51.3203 184.034 51.6578 184.704 52.3306C185.375 53.0046 185.711 53.8302 185.711 54.8074C185.711 55.7845 185.375 56.6101 184.704 57.2841C184.034 57.9569 183.21 58.2945 182.237 58.2945C181.263 58.2945 180.441 57.9569 179.77 57.2841Z" fill="#13497F"/>
<path fill-rule="evenodd" clip-rule="evenodd" d="M194.039 70.6958C194.039 72.4122 194.553 73.8188 195.58 74.9144C196.605 76.0111 197.802 76.5589 199.171 76.5589C200.539 76.5589 201.703 76.0111 202.665 74.9144C203.625 73.8188 204.106 72.4056 204.106 70.6759C204.106 68.9461 203.625 67.5053 202.665 66.3565C201.703 65.2078 200.526 64.6335 199.132 64.6335C197.736 64.6335 196.54 65.2145 195.54 66.3765C194.539 67.5396 194.039 68.9782 194.039 70.6958ZM197.769 81.6308C195.257 81.6308 193.013 80.5606 191.039 78.4214C189.066 76.2822 188.079 73.6273 188.079 70.4578C188.079 67.2884 189.039 64.6932 190.961 62.6724C192.882 60.6517 195.131 59.6413 197.711 59.6413C200.29 59.6413 202.395 60.5521 204.026 62.3748V51.9156H209.947V81.3131H204.026V78.5C202.368 80.5872 200.282 81.6308 197.769 81.6308Z" fill="#13497F"/>
<path fill-rule="evenodd" clip-rule="evenodd" d="M226.724 65.584C225.907 64.8979 224.913 64.5537 223.744 64.5537C222.571 64.5537 221.499 64.9101 220.526 65.6239C219.552 66.3366 218.986 67.3016 218.828 68.5156H228.144C228.013 67.2485 227.539 66.2713 226.724 65.584ZM232.407 78.2233C230.013 80.4953 227.203 81.6307 223.979 81.6307C220.756 81.6307 218.092 80.6336 215.986 78.6394C213.881 76.6452 212.828 73.9704 212.828 70.616C212.828 67.2617 213.901 64.5936 216.045 62.6126C218.19 60.6317 220.724 59.6412 223.644 59.6412C226.565 59.6412 229.046 60.5266 231.085 62.2961C233.124 64.0657 234.144 66.4948 234.144 69.5857V72.7552H218.671C218.855 73.9183 219.46 74.869 220.487 75.6082C221.513 76.3475 222.671 76.7171 223.96 76.7171C226.039 76.7171 227.749 76.0177 229.092 74.6178L232.407 78.2233Z" fill="#13497F"/>
<path fill-rule="evenodd" clip-rule="evenodd" d="M248.038 65.2277C246.275 65.2277 244.96 65.8552 244.091 67.1101C243.224 68.364 242.789 70.0218 242.789 72.0824V81.3131H236.868V59.9976H242.789V62.8107C243.552 61.9387 244.506 61.1994 245.65 60.5919C246.796 59.9843 247.96 59.6678 249.144 59.6412L249.184 65.2277H248.038Z" fill="#13497F"/>
</g>
<defs>
<filter id="filter0_d_7_357" x="0" y="0" width="328" height="104" filterUnits="userSpaceOnUse" color-interpolation-filters="sRGB">
<feFlood flood-opacity="0" result="BackgroundImageFix"/>
<feColorMatrix in="SourceAlpha" type="matrix" values="0 0 0 0 0 0 0 0 0 0 0 0 0 0 0 0 0 0 127 0" result="hardAlpha"/>
<feOffset dy="4"/>
<feGaussianBlur stdDeviation="2"/>
<feComposite in2="hardAlpha" operator="out"/>
<feColorMatrix type="matrix" values="0 0 0 0 0 0 0 0 0 0 0 0 0 0 0 0 0 0 0.25 0"/>
<feBlend mode="normal" in2="BackgroundImageFix" result="effect1_dropShadow_7_357"/>
<feBlend mode="normal" in="SourceGraphic" in2="effect1_dropShadow_7_357" result="shape"/>
</filter>
<clipPath id="clip0_7_357">
<rect width="172" height="83" fill="white" transform="translate(78 6)"/>
</clipPath>
</defs>
</svg>
