<?xml version="1.0" encoding="UTF-8"?>
<svg width="156px" height="75px" viewBox="0 0 156 75" version="1.1" xmlns="http://www.w3.org/2000/svg" xmlns:xlink="http://www.w3.org/1999/xlink">
    <!-- Generator: Sketch 48.2 (47327) - http://www.bohemiancoding.com/sketch -->
    <title>logo_spider</title>
    <desc>Created with Sketch.</desc>
    <defs></defs>
    <g id="Home_Spider_WebDesign" stroke="none" stroke-width="1" fill="none" fill-rule="evenodd" transform="translate(-52.000000, 0.000000)">
        <g id="Menu" transform="translate(0.000000, -14.000000)">
            <g id="logo_spider" transform="translate(52.000000, 13.000000)">
                <polygon id="Fill-1" fill="#2F7EF2" points="17.27 48.809 19.288 48.809 19.288 0.96 17.27 0.96"></polygon>
                <path d="M26.432,52.312 C26.432,57.462 22.842,61.636 18.413,61.636 C13.984,61.636 10.393,57.462 10.393,52.312 C10.393,47.162 13.984,42.987 18.413,42.987 C22.842,42.987 26.432,47.162 26.432,52.312" id="Fill-2" fill="#2F7EF2"></path>
                <path d="M25.227,59.616 L24.636,57.571 L31.179,55.682 C33.307,55.068 34.669,53.026 34.418,50.826 L33.822,45.601 L35.936,45.36 L36.532,50.585 C36.901,53.82 34.898,56.824 31.769,57.727 L25.227,59.616" id="Fill-3" fill="#2F7EF2"></path>
                <path d="M34.573,67.796 L32.473,67.453 L32.644,66.403 C32.911,64.768 31.912,63.187 30.322,62.726 L25.325,61.278 L25.918,59.234 L30.914,60.683 C33.537,61.443 35.184,64.05 34.744,66.746 L34.573,67.796" id="Fill-4" fill="#2F7EF2"></path>
                <path d="M24.876,58.05 L23.379,56.538 L27.502,52.456 C28.718,51.252 28.872,49.303 27.86,47.922 L23.297,41.701 L25.013,40.442 L29.576,46.664 C31.206,48.888 30.958,52.028 28.999,53.968 L24.876,58.05" id="Fill-5" fill="#2F7EF2"></path>
                <g id="Group-9" transform="translate(0.000000, 45.000000)" fill="#2F7EF2">
                    <path d="M29.688,28.313 L27.688,27.587 L27.723,27.491 C28.229,26.106 27.566,24.564 26.215,23.978 L22.504,22.37 L23.35,20.417 L27.062,22.026 C29.445,23.059 30.613,25.78 29.722,28.219 L29.688,28.313" id="Fill-6"></path>
                    <path d="M11.487,14.616 L4.944,12.727 C1.815,11.824 -0.188,8.82 0.181,5.585 L0.777,0.36 L2.891,0.601 L2.296,5.826 C2.045,8.026 3.407,10.068 5.534,10.682 L12.077,12.571 L11.487,14.616" id="Fill-8"></path>
                </g>
                <path d="M2.141,67.796 L1.969,66.746 C1.529,64.049 3.176,61.443 5.8,60.683 L10.796,59.234 L11.388,61.278 L6.392,62.726 C4.801,63.187 3.802,64.768 4.069,66.403 L4.241,67.453 L2.141,67.796" id="Fill-10" fill="#2F7EF2"></path>
                <path d="M11.837,58.05 L7.715,53.968 C5.755,52.028 5.507,48.888 7.138,46.664 L11.701,40.442 L13.416,41.701 L8.854,47.922 C7.842,49.303 7.995,51.252 9.212,52.456 L13.335,56.538 L11.837,58.05" id="Fill-11" fill="#2F7EF2"></path>
                <path d="M7.026,73.315 L6.991,73.219 C6.1,70.779 7.269,68.059 9.652,67.026 L13.363,65.417 L14.209,67.37 L10.498,68.978 C9.147,69.564 8.485,71.106 8.99,72.489 L9.025,72.584 L7.026,73.315" id="Fill-12" fill="#2F7EF2"></path>
                <path d="M13.917,55.706 C13.917,54.463 15.934,53.457 18.422,53.457 C20.91,53.457 22.927,54.464 22.927,55.706" id="Fill-13" fill="#020202"></path>
                <path d="M29.624,61.08 C29.624,66.776 24.73,71.394 18.692,71.394 C12.655,71.394 7.76,66.776 7.76,61.08 C7.76,55.383 12.655,50.766 18.692,50.766 C24.73,50.766 29.624,55.383 29.624,61.08" id="Fill-14" fill="#429DF8"></path>
                <polygon id="Fill-15" fill="#13497F" points="16.055 61.534 20.064 61.534 20.064 60.204 16.055 60.204"></polygon>
                <path d="M17.338,59.339 C17.338,61.433 15.399,63.132 13.007,63.132 C10.614,63.132 8.675,61.433 8.675,59.339 C8.675,57.244 10.614,55.546 13.007,55.546 C15.399,55.546 17.338,57.244 17.338,59.339" id="Fill-16" fill="#FFFFFF"></path>
                <path d="M13.007,55.784 C10.75,55.784 8.914,57.379 8.914,59.339 C8.914,61.299 10.75,62.893 13.007,62.893 C15.263,62.893 17.099,61.299 17.099,59.339 C17.099,57.379 15.263,55.784 13.007,55.784 Z M13.007,63.37 C10.487,63.37 8.437,61.562 8.437,59.339 C8.437,57.116 10.487,55.308 13.007,55.308 C15.526,55.308 17.576,57.116 17.576,59.339 C17.576,61.562 15.526,63.37 13.007,63.37 Z" id="Fill-17" fill="#13497F"></path>
                <path d="M16.054,59.256 C16.054,60.759 14.663,61.978 12.946,61.978 C11.23,61.978 9.838,60.759 9.838,59.256 C9.838,57.753 11.23,56.534 12.946,56.534 C14.663,56.534 16.054,57.753 16.054,59.256" id="Fill-18" fill="#FFFFFF"></path>
                <path d="M29.77,59.281 C29.77,61.915 27.331,64.051 24.322,64.051 C21.314,64.051 18.874,61.915 18.874,59.281 C18.874,56.646 21.314,54.51 24.322,54.51 C27.331,54.51 29.77,56.646 29.77,59.281" id="Fill-19" fill="#FFFFFF"></path>
                <path d="M24.322,54.748 C21.45,54.748 19.113,56.781 19.113,59.281 C19.113,61.78 21.45,63.813 24.322,63.813 C27.195,63.813 29.532,61.78 29.532,59.281 C29.532,56.781 27.195,54.748 24.322,54.748 Z M24.322,64.29 C21.187,64.29 18.636,62.043 18.636,59.281 C18.636,56.519 21.187,54.272 24.322,54.272 C27.458,54.272 30.009,56.519 30.009,59.281 C30.009,62.043 27.458,64.29 24.322,64.29 Z" id="Fill-20" fill="#13497F"></path>
                <path d="M28.406,59.646 C28.406,61.606 26.592,63.194 24.354,63.194 C22.117,63.194 20.302,61.606 20.302,59.646 C20.302,57.686 22.117,56.098 24.354,56.098 C26.592,56.098 28.406,57.686 28.406,59.646" id="Fill-21" fill="#FFFFFF"></path>
                <path d="M25.838,59.783 C25.838,60.501 25.174,61.082 24.354,61.082 C23.535,61.082 22.871,60.501 22.871,59.783 C22.871,59.066 23.535,58.484 24.354,58.484 C25.174,58.484 25.838,59.066 25.838,59.783" id="Fill-22" fill="#2F7EF2"></path>
                <path d="M14.069,59.783 C14.069,60.501 13.405,61.082 12.586,61.082 C11.767,61.082 11.103,60.501 11.103,59.783 C11.103,59.066 11.767,58.484 12.586,58.484 C13.405,58.484 14.069,59.066 14.069,59.783" id="Fill-23" fill="#2F7EF2"></path>
                <path d="M14.938,66.724 C14.938,66.724 15.01,66.835 15.153,66.978 C15.223,67.05 15.317,67.125 15.423,67.199 C15.528,67.275 15.654,67.342 15.787,67.405 C15.856,67.433 15.927,67.461 16.001,67.491 C16.081,67.511 16.156,67.538 16.236,67.561 C16.321,67.576 16.403,67.599 16.488,67.618 C16.579,67.627 16.668,67.645 16.758,67.66 C16.947,67.677 17.137,67.702 17.341,67.708 C17.442,67.717 17.543,67.719 17.649,67.719 L17.937,67.725 L18.287,67.718 L18.457,67.715 L18.599,67.705 C18.785,67.7 18.98,67.677 19.168,67.658 C19.258,67.644 19.347,67.625 19.438,67.616 C19.522,67.597 19.605,67.575 19.69,67.559 C19.77,67.535 19.848,67.512 19.924,67.489 C19.998,67.46 20.069,67.431 20.138,67.404 C20.271,67.341 20.398,67.274 20.502,67.199 C20.608,67.125 20.703,67.049 20.773,66.977 C20.916,66.835 20.988,66.724 20.988,66.724 C20.988,66.724 21,66.754 21.009,66.815 C21.015,66.874 21.03,66.968 21.015,67.082 C21.005,67.199 20.981,67.343 20.919,67.499 C20.861,67.658 20.764,67.824 20.635,67.993 C20.569,68.075 20.491,68.151 20.411,68.235 C20.326,68.308 20.234,68.381 20.137,68.455 C20.038,68.519 19.932,68.58 19.823,68.644 C19.713,68.699 19.596,68.745 19.477,68.797 C19.239,68.878 18.992,68.956 18.719,68.99 L18.516,69.021 C18.451,69.031 18.398,69.031 18.338,69.035 L17.989,69.054 L17.578,69.034 C17.451,69.033 17.322,69.009 17.194,68.987 C16.94,68.954 16.687,68.877 16.45,68.795 C16.331,68.744 16.215,68.697 16.105,68.643 C15.995,68.578 15.889,68.518 15.79,68.453 C15.693,68.379 15.601,68.306 15.516,68.234 C15.437,68.149 15.358,68.073 15.292,67.991 C15.163,67.823 15.067,67.657 15.008,67.498 C14.946,67.342 14.922,67.198 14.912,67.082 C14.897,66.968 14.912,66.874 14.918,66.815 C14.927,66.753 14.938,66.724 14.938,66.724" id="Fill-24" fill="#FFFFFF"></path>
                <path d="M30.117,72.934 C30.117,73.905 29.329,74.693 28.357,74.693 C27.386,74.693 26.598,73.905 26.598,72.934 C26.598,71.962 27.386,71.174 28.357,71.174 C29.329,71.174 30.117,71.962 30.117,72.934" id="Fill-25" fill="#2F7EF2"></path>
                <path d="M35.17,67.614 C35.17,68.585 34.383,69.373 33.411,69.373 C32.44,69.373 31.652,68.585 31.652,67.614 C31.652,66.642 32.44,65.855 33.411,65.855 C34.383,65.855 35.17,66.642 35.17,67.614" id="Fill-26" fill="#2F7EF2"></path>
                <path d="M36.5,45.537 C36.5,46.509 35.713,47.296 34.741,47.296 C33.77,47.296 32.982,46.509 32.982,45.537 C32.982,44.566 33.77,43.778 34.741,43.778 C35.713,43.778 36.5,44.566 36.5,45.537" id="Fill-27" fill="#2F7EF2"></path>
                <path d="M25.861,41.016 C25.861,41.987 25.073,42.775 24.102,42.775 C23.13,42.775 22.343,41.987 22.343,41.016 C22.343,40.044 23.13,39.256 24.102,39.256 C25.073,39.256 25.861,40.044 25.861,41.016" id="Fill-28" fill="#2F7EF2"></path>
                <path d="M14.423,41.016 C14.423,41.987 13.636,42.775 12.664,42.775 C11.693,42.775 10.905,41.987 10.905,41.016 C10.905,40.044 11.693,39.256 12.664,39.256 C13.636,39.256 14.423,40.044 14.423,41.016" id="Fill-29" fill="#2F7EF2"></path>
                <path d="M3.518,45.537 C3.518,46.509 2.731,47.296 1.759,47.296 C0.788,47.296 0,46.509 0,45.537 C0,44.566 0.788,43.778 1.759,43.778 C2.731,43.778 3.518,44.566 3.518,45.537" id="Fill-30" fill="#2F7EF2"></path>
                <path d="M4.848,67.614 C4.848,68.585 4.061,69.373 3.089,69.373 C2.117,69.373 1.33,68.585 1.33,67.614 C1.33,66.642 2.117,65.855 3.089,65.855 C4.061,65.855 4.848,66.642 4.848,67.614" id="Fill-31" fill="#2F7EF2"></path>
                <path d="M9.902,72.934 C9.902,73.905 9.114,74.693 8.143,74.693 C7.171,74.693 6.384,73.905 6.384,72.934 C6.384,71.962 7.171,71.174 8.143,71.174 C9.114,71.174 9.902,71.962 9.902,72.934" id="Fill-32" fill="#2F7EF2"></path>
                <path d="M54.354,49.023 C53.817,49.465 53.549,50.05 53.549,50.778 C53.549,51.506 53.877,52.084 54.533,52.514 C55.189,52.944 56.705,53.451 59.08,54.036 C61.455,54.621 63.299,55.498 64.612,56.667 C65.924,57.837 66.581,59.543 66.581,61.787 C66.581,64.03 65.739,65.85 64.057,67.246 C62.374,68.643 60.16,69.341 57.415,69.341 C53.453,69.341 49.885,67.873 46.711,64.937 L50.04,60.856 C52.737,63.219 55.231,64.4 57.523,64.4 C58.549,64.4 59.354,64.18 59.939,63.738 C60.524,63.297 60.817,62.7 60.817,61.948 C60.817,61.196 60.506,60.6 59.886,60.158 C59.265,59.716 58.036,59.269 56.198,58.815 C53.286,58.123 51.156,57.222 49.808,56.112 C48.459,55.002 47.785,53.26 47.785,50.885 C47.785,48.51 48.638,46.678 50.345,45.39 C52.051,44.101 54.181,43.456 56.735,43.456 C58.406,43.456 60.077,43.743 61.747,44.315 C63.418,44.888 64.874,45.7 66.115,46.75 L63.287,50.831 C61.115,49.184 58.871,48.361 56.556,48.361 C55.625,48.361 54.891,48.582 54.354,49.023" id="Fill-33" fill="#13497F"></path>
                <path d="M74.707,59.442 C74.707,61.005 75.142,62.282 76.014,63.272 C76.885,64.263 77.941,64.758 79.182,64.758 C80.423,64.758 81.509,64.263 82.44,63.272 C83.371,62.282 83.837,61.011 83.837,59.46 C83.837,57.908 83.383,56.608 82.476,55.557 C81.569,54.507 80.483,53.982 79.218,53.982 C77.953,53.982 76.885,54.501 76.014,55.539 C75.142,56.577 74.707,57.879 74.707,59.442 Z M80.614,49.471 C82.858,49.471 84.857,50.408 86.611,52.281 C88.366,54.155 89.243,56.512 89.243,59.352 C89.243,62.193 88.366,64.567 86.611,66.477 C84.857,68.386 82.804,69.341 80.453,69.341 C78.102,69.341 76.211,68.398 74.779,66.512 L74.779,76 L69.409,76 L69.409,49.793 L74.779,49.793 L74.779,51.941 C76.426,50.294 78.371,49.471 80.614,49.471 Z" id="Fill-34" fill="#13497F"></path>
                <path d="M91.856,69.054 L97.226,69.054 L97.226,49.793 L91.856,49.793 L91.856,69.054 Z M92.303,47.341 C91.695,46.732 91.39,45.986 91.39,45.103 C91.39,44.22 91.695,43.474 92.303,42.865 C92.912,42.257 93.657,41.952 94.541,41.952 C95.423,41.952 96.17,42.257 96.778,42.865 C97.387,43.474 97.691,44.22 97.691,45.103 C97.691,45.986 97.387,46.732 96.778,47.341 C96.17,47.949 95.423,48.254 94.541,48.254 C93.657,48.254 92.912,47.949 92.303,47.341 Z" id="Fill-35" fill="#13497F"></path>
                <path d="M105.245,59.46 C105.245,61.011 105.711,62.282 106.642,63.272 C107.572,64.263 108.658,64.758 109.899,64.758 C111.14,64.758 112.196,64.263 113.068,63.272 C113.939,62.282 114.375,61.005 114.375,59.442 C114.375,57.879 113.939,56.577 113.068,55.539 C112.196,54.501 111.128,53.982 109.864,53.982 C108.598,53.982 107.513,54.507 106.606,55.557 C105.698,56.608 105.245,57.908 105.245,59.46 Z M108.628,69.341 C106.349,69.341 104.314,68.374 102.524,66.441 C100.734,64.508 99.839,62.109 99.839,59.245 C99.839,56.381 100.71,54.036 102.453,52.21 C104.195,50.384 106.235,49.471 108.575,49.471 C110.914,49.471 112.823,50.294 114.303,51.941 L114.303,42.49 L119.673,42.49 L119.673,69.054 L114.303,69.054 L114.303,66.512 C112.799,68.398 110.907,69.341 108.628,69.341 Z" id="Fill-36" fill="#13497F"></path>
                <path d="M134.889,54.841 C134.148,54.221 133.247,53.91 132.186,53.91 C131.123,53.91 130.15,54.232 129.268,54.877 C128.384,55.521 127.871,56.393 127.728,57.49 L136.177,57.49 C136.058,56.345 135.628,55.462 134.889,54.841 Z M140.044,66.262 C137.872,68.315 135.324,69.341 132.4,69.341 C129.476,69.341 127.06,68.44 125.15,66.638 C123.241,64.836 122.286,62.419 122.286,59.388 C122.286,56.357 123.259,53.946 125.204,52.156 C127.149,50.366 129.447,49.471 132.096,49.471 C134.745,49.471 136.995,50.271 138.845,51.87 C140.694,53.469 141.619,55.664 141.619,58.457 L141.619,61.321 L127.585,61.321 C127.752,62.372 128.301,63.231 129.232,63.899 C130.163,64.567 131.213,64.901 132.382,64.901 C134.268,64.901 135.819,64.269 137.037,63.004 L140.044,66.262 Z" id="Fill-37" fill="#13497F"></path>
                <path d="M154.221,54.519 C152.622,54.519 151.429,55.086 150.641,56.22 C149.854,57.353 149.46,58.851 149.46,60.713 L149.46,69.054 L144.09,69.054 L144.09,49.793 L149.46,49.793 L149.46,52.335 C150.152,51.547 151.017,50.879 152.055,50.33 C153.094,49.781 154.15,49.495 155.224,49.471 L155.26,54.519 L154.221,54.519" id="Fill-38" fill="#13497F"></path>
            </g>
        </g>
    </g>
</svg>