<svg width="328" height="104" viewBox="0 0 328 104" fill="none" xmlns="http://www.w3.org/2000/svg">
<g filter="url(#filter0_d_7_3)">
<rect x="4" width="320" height="96" rx="25" fill="white"/>
</g>
<path d="M111.616 56.1538C110.857 56.5623 109.18 57 107.059 57C101.459 57 98.0555 53.3138 98.0555 47.7176C98.0555 41.6583 102.086 38 107.479 38C109.6 38 111.118 38.4644 111.772 38.8182L111.067 41.4941C110.227 41.1124 109.076 40.7854 107.611 40.7854C104.025 40.7854 101.432 43.1317 101.432 47.5547C101.432 51.5947 103.709 54.1879 107.585 54.1879C108.892 54.1879 110.254 53.9143 111.092 53.5046" fill="#4E84C4"/>
<path d="M116.171 47.5827C116.171 51.3224 117.976 54.3253 121.065 54.3253C124.18 54.3253 125.933 51.2931 125.933 47.4453C125.933 43.9804 124.286 40.6759 121.065 40.6759C117.873 40.6759 116.171 43.7883 116.171 47.5827ZM129.337 47.3091C129.337 53.4792 125.75 57 120.882 57C115.907 57 112.766 53.0402 112.766 47.6362C112.766 41.9865 116.171 38 121.144 38C126.302 38 129.337 42.0692 129.337 47.3091Z" fill="#4E84C4"/>
<path d="M147.004 49.1923C146.9 46.8167 146.77 43.9512 146.795 41.4394H146.716C146.142 43.7056 145.409 46.1894 144.622 48.509L142.057 56.4808H139.572L137.214 48.6185C136.535 46.2721 135.905 43.7603 135.434 41.4394H135.382C135.305 43.8697 135.2 46.7912 135.069 49.3018L134.675 56.6984H131.666L132.842 38.3003H137.084L139.387 45.6982C140.015 47.855 140.566 50.0385 141.012 52.0858H141.088C141.561 50.0932 142.165 47.8283 142.844 45.6715L145.276 38.3003H149.466L150.486 56.6984H147.347" fill="#4E84C4"/>
<path d="M168.653 49.1923C168.549 46.8167 168.416 43.9512 168.443 41.4394H168.365C167.789 43.7056 167.057 46.1894 166.27 48.509L163.705 56.4808H161.218L158.862 48.6185C158.181 46.2721 157.554 43.7603 157.082 41.4394H157.029C156.951 43.8697 156.846 46.7912 156.715 49.3018L156.323 56.6984H153.312L154.49 38.3003H158.731L161.035 45.6982C161.663 47.855 162.212 50.0385 162.658 52.0858H162.737C163.208 50.0932 163.81 47.8283 164.491 45.6715L166.925 38.3003H171.111L172.135 56.6984H168.993" fill="#4E84C4"/>
<path d="M178.599 38.3003V49.0282C178.599 52.6317 180.038 54.2961 182.21 54.2961C184.541 54.2961 185.927 52.6317 185.927 49.0282V38.3003H189.148V48.8093C189.148 54.4882 186.346 56.9987 182.105 56.9987C178.023 56.9987 175.38 54.6244 175.38 48.836V38.3003" fill="#4E84C4"/>
<path d="M192.84 56.6984V38.3003H196.504L201.059 46.1894C202.236 48.2367 203.255 50.3668 204.067 52.3594H204.12C203.912 49.9011 203.835 47.5267 203.835 44.7146V38.3003H206.817V56.6984H203.492L198.886 48.5917C197.761 46.5991 196.583 44.3329 195.718 42.2588L195.64 42.2856C195.769 44.6612 195.796 47.0903 195.796 50.1199V56.6984" fill="#4E84C4"/>
<path d="M210.532 56.6984H213.753V38.3003H210.532V56.6984Z" fill="#4E84C4"/>
<path d="M230.087 56.1538C229.328 56.5623 227.651 57 225.532 57C219.929 57 216.527 53.3138 216.527 47.7176C216.527 41.6583 220.558 38 225.952 38C228.07 38 229.592 38.4644 230.242 38.8182L229.536 41.4941C228.698 41.1124 227.546 40.7854 226.082 40.7854C222.493 40.7854 219.901 43.1317 219.901 47.5547C219.901 51.5947 222.182 54.1879 226.057 54.1879C227.363 54.1879 228.727 53.9143 229.562 53.5046" fill="#4E84C4"/>
<path d="M241.604 48.9468L240.216 44.4143C239.875 43.2959 239.587 42.04 239.326 40.9762H239.272C239.01 42.04 238.752 43.3213 238.436 44.4143L237.076 48.9468H241.604ZM236.553 51.484L235.033 56.6984H231.709L237.362 38.3003H241.473L247.206 56.6984H243.751L242.153 51.484" fill="#4E84C4"/>
<path d="M250.921 41.1124H245.894V38.3016H259.22V41.1124H254.142V56.6984H250.921" fill="#4E84C4"/>
<path d="M261.288 56.6984H264.507V38.3003H261.288V56.6984Z" fill="#4E84C4"/>
<path d="M270.682 47.5827C270.682 51.3224 272.487 54.3253 275.578 54.3253C278.692 54.3253 280.446 51.2931 280.446 47.4453C280.446 43.9804 278.798 40.6759 275.578 40.6759C272.383 40.6759 270.682 43.7883 270.682 47.5827ZM283.851 47.3091C283.851 53.4792 280.263 57 275.393 57C270.42 57 267.281 53.0402 267.281 47.6362C267.281 41.9865 270.682 38 275.657 38C280.812 38 283.851 42.0692 283.851 47.3091Z" fill="#4E84C4"/>
<path d="M286.622 56.6984V38.3003H290.289L294.844 46.1894C296.021 48.2367 297.042 50.3668 297.854 52.3594H297.907C297.698 49.9011 297.618 47.5267 297.618 44.7146V38.3003H300.604V56.6984H297.277L292.672 48.5917C291.547 46.5991 290.365 44.3329 289.503 42.2588L289.423 42.2856C289.556 44.6612 289.583 47.0903 289.583 50.1199V56.6984" fill="#4E84C4"/>
<path d="M304.238 53.0402C305.285 53.6713 306.856 54.2146 308.506 54.2146C310.575 54.2146 311.729 53.2056 311.729 51.7029C311.729 50.3108 310.835 49.4926 308.584 48.6452C305.678 47.5547 303.82 45.9451 303.82 43.2959C303.82 40.2942 306.229 38 310.051 38C311.962 38 313.373 38.4364 314.29 38.9276L313.506 41.6303C312.88 41.2765 311.647 40.7574 309.997 40.7574C307.957 40.7574 307.066 41.9038 307.066 42.9689C307.066 44.3889 308.087 45.0429 310.445 45.9985C313.506 47.1997 315 48.8106 315 51.4598C315 54.4055 312.85 57 308.297 57C306.439 57 304.503 56.4274 303.532 55.8268" fill="#4E84C4"/>
<path fill-rule="evenodd" clip-rule="evenodd" d="M22.0358 56.6221V43.5949H17V38.1769H34.1304V43.5949H29.2459V56.6221" fill="#4E84C4"/>
<path fill-rule="evenodd" clip-rule="evenodd" d="M56.216 56.6221V43.5949H51.1827V38.1769H68.3131V43.5949H63.4262V56.6221" fill="#4E84C4"/>
<path fill-rule="evenodd" clip-rule="evenodd" d="M32.4941 56.645L38.9734 38.1997L46.3471 38.1972L53.2266 56.645H46.28L42.6999 45.4933L39.1345 56.645" fill="#4E84C4"/>
<path fill-rule="evenodd" clip-rule="evenodd" d="M66.6609 56.6412L73.1366 38.1972H80.4321L87.3922 56.6412H80.4443L76.946 45.4934L73.2976 56.6412" fill="#4E84C4"/>
<defs>
<filter id="filter0_d_7_3" x="0" y="0" width="328" height="104" filterUnits="userSpaceOnUse" color-interpolation-filters="sRGB">
<feFlood flood-opacity="0" result="BackgroundImageFix"/>
<feColorMatrix in="SourceAlpha" type="matrix" values="0 0 0 0 0 0 0 0 0 0 0 0 0 0 0 0 0 0 127 0" result="hardAlpha"/>
<feOffset dy="4"/>
<feGaussianBlur stdDeviation="2"/>
<feComposite in2="hardAlpha" operator="out"/>
<feColorMatrix type="matrix" values="0 0 0 0 0 0 0 0 0 0 0 0 0 0 0 0 0 0 0.25 0"/>
<feBlend mode="normal" in2="BackgroundImageFix" result="effect1_dropShadow_7_3"/>
<feBlend mode="normal" in="SourceGraphic" in2="effect1_dropShadow_7_3" result="shape"/>
</filter>
</defs>
</svg>
