<svg width="329" height="90" viewBox="0 0 329 90" fill="none" xmlns="http://www.w3.org/2000/svg">
<rect x="1.5" y="1" width="326" height="88" rx="23" fill="white"/>
<rect x="1.5" y="1" width="326" height="88" rx="23" stroke="#BDBDBD" stroke-width="2"/>
<g clip-path="url(#clip0_71_1346)">
<path d="M116.616 53.6538C115.857 54.0623 114.18 54.5 112.059 54.5C106.459 54.5 103.056 50.8138 103.056 45.2176C103.056 39.1582 107.086 35.5 112.479 35.5C114.6 35.5 116.118 35.9644 116.772 36.3182L116.067 38.9941C115.227 38.6124 114.076 38.2854 112.611 38.2854C109.025 38.2854 106.432 40.6317 106.432 45.0547C106.432 49.0947 108.709 51.6879 112.585 51.6879C113.892 51.6879 115.254 51.4143 116.092 51.0046" fill="#4E84C4"/>
<path d="M121.171 45.0827C121.171 48.8224 122.976 51.8253 126.065 51.8253C129.18 51.8253 130.933 48.7931 130.933 44.9453C130.933 41.4804 129.286 38.1759 126.065 38.1759C122.873 38.1759 121.171 41.2883 121.171 45.0827ZM134.337 44.8091C134.337 50.9792 130.75 54.5 125.882 54.5C120.907 54.5 117.766 50.5402 117.766 45.1362C117.766 39.4865 121.171 35.5 126.144 35.5C131.302 35.5 134.337 39.5692 134.337 44.8091Z" fill="#4E84C4"/>
<path d="M152.004 46.6923C151.9 44.3167 151.77 41.4512 151.795 38.9394H151.716C151.142 41.2056 150.409 43.6894 149.622 46.009L147.057 53.9808H144.572L142.214 46.1185C141.535 43.7721 140.905 41.2603 140.434 38.9394H140.382C140.305 41.3697 140.2 44.2912 140.069 46.8018L139.675 54.1984H136.666L137.842 35.8003H142.084L144.387 43.1982C145.015 45.355 145.566 47.5385 146.012 49.5858H146.088C146.561 47.5932 147.165 45.3283 147.844 43.1715L150.276 35.8003H154.466L155.486 54.1984H152.347" fill="#4E84C4"/>
<path d="M173.653 46.6923C173.549 44.3167 173.416 41.4512 173.443 38.9394H173.365C172.789 41.2056 172.057 43.6894 171.27 46.009L168.705 53.9808H166.218L163.862 46.1185C163.181 43.7721 162.554 41.2603 162.082 38.9394H162.029C161.951 41.3697 161.846 44.2912 161.716 46.8018L161.323 54.1984H158.312L159.49 35.8003H163.731L166.035 43.1982C166.663 45.355 167.213 47.5385 167.658 49.5858H167.737C168.208 47.5932 168.81 45.3283 169.491 43.1715L171.925 35.8003H176.111L177.135 54.1984H173.993" fill="#4E84C4"/>
<path d="M183.599 35.8003V46.5282C183.599 50.1317 185.038 51.7961 187.21 51.7961C189.541 51.7961 190.927 50.1317 190.927 46.5282V35.8003H194.148V46.3093C194.148 51.9882 191.346 54.4987 187.105 54.4987C183.023 54.4987 180.38 52.1244 180.38 46.336V35.8003" fill="#4E84C4"/>
<path d="M197.839 54.1984V35.8003H201.504L206.059 43.6894C207.236 45.7367 208.255 47.8668 209.067 49.8594H209.12C208.912 47.4011 208.835 45.0267 208.835 42.2146V35.8003H211.817V54.1984H208.492L203.886 46.0917C202.761 44.0991 201.583 41.8329 200.718 39.7588L200.64 39.7856C200.769 42.1612 200.796 44.5903 200.796 47.6199V54.1984" fill="#4E84C4"/>
<path d="M215.532 54.1984H218.753V35.8003H215.532V54.1984Z" fill="#4E84C4"/>
<path d="M235.087 53.6538C234.328 54.0623 232.651 54.5 230.532 54.5C224.929 54.5 221.527 50.8138 221.527 45.2176C221.527 39.1582 225.558 35.5 230.952 35.5C233.07 35.5 234.592 35.9644 235.242 36.3182L234.536 38.9941C233.698 38.6124 232.546 38.2854 231.082 38.2854C227.493 38.2854 224.901 40.6317 224.901 45.0547C224.901 49.0947 227.182 51.6879 231.057 51.6879C232.363 51.6879 233.727 51.4143 234.562 51.0046" fill="#4E84C4"/>
<path d="M246.604 46.4468L245.216 41.9143C244.875 40.7959 244.587 39.54 244.326 38.4762H244.272C244.01 39.54 243.752 40.8213 243.436 41.9143L242.076 46.4468H246.604ZM241.553 48.984L240.033 54.1984H236.709L242.362 35.8003H246.473L252.206 54.1984H248.751L247.153 48.984" fill="#4E84C4"/>
<path d="M255.921 38.6124H250.894V35.8016H264.22V38.6124H259.142V54.1984H255.921" fill="#4E84C4"/>
<path d="M266.288 54.1984H269.507V35.8003H266.288V54.1984Z" fill="#4E84C4"/>
<path d="M275.682 45.0827C275.682 48.8224 277.487 51.8253 280.578 51.8253C283.692 51.8253 285.446 48.7931 285.446 44.9453C285.446 41.4804 283.798 38.1759 280.578 38.1759C277.383 38.1759 275.682 41.2883 275.682 45.0827ZM288.851 44.8091C288.851 50.9792 285.263 54.5 280.393 54.5C275.42 54.5 272.281 50.5402 272.281 45.1362C272.281 39.4865 275.682 35.5 280.657 35.5C285.812 35.5 288.851 39.5692 288.851 44.8091Z" fill="#4E84C4"/>
<path d="M291.622 54.1984V35.8003H295.289L299.844 43.6894C301.021 45.7367 302.042 47.8668 302.854 49.8594H302.907C302.698 47.4011 302.618 45.0267 302.618 42.2146V35.8003H305.604V54.1984H302.277L297.672 46.0917C296.547 44.0991 295.365 41.8329 294.503 39.7588L294.423 39.7856C294.556 42.1612 294.583 44.5903 294.583 47.6199V54.1984" fill="#4E84C4"/>
<path d="M309.238 50.5402C310.285 51.1713 311.856 51.7146 313.506 51.7146C315.575 51.7146 316.729 50.7056 316.729 49.2029C316.729 47.8108 315.835 46.9926 313.584 46.1452C310.678 45.0547 308.82 43.4451 308.82 40.7959C308.82 37.7942 311.229 35.5 315.051 35.5C316.962 35.5 318.373 35.9364 319.29 36.4276L318.506 39.1303C317.88 38.7765 316.647 38.2574 314.997 38.2574C312.957 38.2574 312.066 39.4038 312.066 40.4689C312.066 41.8889 313.087 42.5429 315.445 43.4985C318.506 44.6997 320 46.3106 320 48.9598C320 51.9055 317.85 54.5 313.297 54.5C311.439 54.5 309.503 53.9274 308.532 53.3268" fill="#4E84C4"/>
<path fill-rule="evenodd" clip-rule="evenodd" d="M27.0358 54.1221V41.0949H22V35.6769H39.1304V41.0949H34.2459V54.1221" fill="#4E84C4"/>
<path fill-rule="evenodd" clip-rule="evenodd" d="M61.216 54.1221V41.0949H56.1827V35.6769H73.3131V41.0949H68.4262V54.1221" fill="#4E84C4"/>
<path fill-rule="evenodd" clip-rule="evenodd" d="M37.4941 54.145L43.9734 35.6998L51.3471 35.6972L58.2266 54.145H51.28L47.6999 42.9934L44.1345 54.145" fill="#4E84C4"/>
<path fill-rule="evenodd" clip-rule="evenodd" d="M71.6609 54.1412L78.1366 35.6972H85.4321L92.3922 54.1412H85.4443L81.946 42.9934L78.2976 54.1412" fill="#4E84C4"/>
</g>
<defs>
<clipPath id="clip0_71_1346">
<rect width="311" height="19" fill="white" transform="translate(9 35.5)"/>
</clipPath>
</defs>
</svg>
