<svg width="329" height="90" viewBox="0 0 329 90" fill="none" xmlns="http://www.w3.org/2000/svg">
<rect x="1.5" y="1" width="326" height="88" rx="23" fill="white"/>
<rect x="1.5" y="1" width="326" height="88" rx="23" stroke="#BDBDBD" stroke-width="2"/>
<g clip-path="url(#clip0_102_12)">
<path d="M180.955 77.095H148.045C147.967 77.095 147.897 77.137 147.861 77.2L144.957 82.163C144.893 82.268 144.936 82.401 145.042 82.457C145.68 82.786 146.331 83.094 146.99 83.388C147.089 83.43 147.21 83.395 147.259 83.304L149.335 79.748C149.37 79.685 149.441 79.643 149.519 79.643H179.446C179.524 79.643 179.595 79.685 179.63 79.748L181.712 83.304C181.769 83.395 181.882 83.437 181.982 83.388C182.64 83.094 183.292 82.779 183.93 82.457C184.036 82.401 184.078 82.268 184.015 82.163L181.11 77.193C181.096 77.13 181.025 77.095 180.955 77.095Z" fill="#FFD041"/>
<path d="M144.603 75.128L128.148 46.967C128.113 46.904 128.042 46.862 127.964 46.862H122.163C122.043 46.862 121.943 46.96 121.95 47.079C121.986 47.793 122.035 48.5 122.106 49.214C122.113 49.319 122.213 49.403 122.319 49.403H126.477C126.555 49.403 126.625 49.445 126.661 49.508L141.628 75.121C141.663 75.184 141.663 75.268 141.628 75.331L139.545 78.894C139.489 78.985 139.517 79.111 139.609 79.167C140.197 79.587 140.792 79.986 141.401 80.371C141.5 80.434 141.642 80.399 141.699 80.301L144.603 75.331C144.638 75.268 144.638 75.191 144.603 75.128Z" fill="#FFD041"/>
<path d="M128.148 43.033L144.603 14.872C144.638 14.809 144.638 14.725 144.603 14.662L141.706 9.69901C141.642 9.59401 141.508 9.55901 141.408 9.62901C140.799 10.014 140.204 10.413 139.616 10.833C139.531 10.896 139.503 11.015 139.553 11.106L141.628 14.662C141.663 14.725 141.663 14.809 141.628 14.872L126.661 40.485C126.625 40.548 126.555 40.59 126.477 40.59H122.319C122.213 40.59 122.12 40.674 122.106 40.779C122.035 41.493 121.979 42.207 121.95 42.914C121.943 43.033 122.043 43.131 122.163 43.131H127.964C128.042 43.138 128.113 43.096 128.148 43.033Z" fill="#FFD041"/>
<path d="M148.045 12.905H180.947C181.025 12.905 181.096 12.863 181.132 12.8L184.036 7.837C184.1 7.732 184.057 7.599 183.951 7.543C183.313 7.214 182.662 6.906 182.003 6.612C181.904 6.57 181.783 6.605 181.734 6.696L179.658 10.252C179.623 10.315 179.552 10.357 179.474 10.357H149.533C149.455 10.357 149.384 10.315 149.349 10.252L147.273 6.696C147.217 6.605 147.103 6.563 147.004 6.612C146.345 6.906 145.694 7.214 145.056 7.543C144.95 7.599 144.907 7.732 144.971 7.837L147.875 12.807C147.904 12.87 147.975 12.905 148.045 12.905Z" fill="#FFD041"/>
<path d="M184.397 14.872L200.852 43.033C200.887 43.096 200.958 43.138 201.036 43.138H206.837C206.957 43.138 207.057 43.04 207.05 42.921C207.014 42.207 206.965 41.493 206.894 40.786C206.88 40.681 206.795 40.597 206.681 40.597H202.523C202.445 40.597 202.375 40.555 202.339 40.492L187.372 14.872C187.337 14.809 187.337 14.725 187.372 14.662L189.447 11.106C189.504 11.015 189.476 10.896 189.391 10.833C188.803 10.413 188.208 10.014 187.599 9.62899C187.5 9.56599 187.358 9.59399 187.301 9.69899L184.397 14.669C184.362 14.732 184.362 14.809 184.397 14.872Z" fill="#FFD041"/>
<path d="M200.852 46.967L184.397 75.128C184.362 75.191 184.362 75.275 184.397 75.338L187.294 80.301C187.358 80.406 187.492 80.441 187.592 80.371C188.201 79.986 188.796 79.587 189.384 79.167C189.469 79.104 189.497 78.985 189.44 78.894L187.365 75.338C187.33 75.275 187.33 75.191 187.365 75.128L202.332 49.515C202.367 49.452 202.438 49.41 202.516 49.41H206.674C206.78 49.41 206.872 49.326 206.887 49.221C206.957 48.507 207.014 47.8 207.042 47.086C207.05 46.967 206.95 46.869 206.83 46.869H201.029C200.958 46.862 200.887 46.904 200.852 46.967Z" fill="#FFD041"/>
<path d="M180.955 16.629H148.045C147.968 16.629 147.897 16.671 147.861 16.734L131.414 44.895C131.378 44.958 131.378 45.042 131.414 45.105L147.868 73.266C147.904 73.329 147.975 73.371 148.053 73.371H180.955C181.033 73.371 181.103 73.329 181.139 73.266L197.593 45.105C197.629 45.042 197.629 44.958 197.593 44.895L181.139 16.734C181.096 16.671 181.025 16.629 180.955 16.629Z" fill="#1D1D1B"/>
<path d="M164.181 43.74H165.881C165.938 43.74 165.987 43.789 165.987 43.845V47.835C165.987 47.891 165.938 47.94 165.881 47.94H164.181C164.125 47.94 164.075 47.891 164.075 47.835V43.845C164.075 43.789 164.117 43.74 164.181 43.74Z" fill="#FFD041"/>
<path d="M161.206 43.74H162.906C162.963 43.74 163.012 43.789 163.012 43.845V47.835C163.012 47.891 162.963 47.94 162.906 47.94H161.206C161.15 47.94 161.1 47.891 161.1 47.835V43.845C161.1 43.789 161.142 43.74 161.206 43.74Z" fill="#FFD041"/>
<path d="M167.156 43.74H168.856C168.913 43.74 168.962 43.789 168.962 43.845V47.835C168.962 47.891 168.913 47.94 168.856 47.94H167.156C167.1 47.94 167.05 47.891 167.05 47.835V43.845C167.05 43.789 167.092 43.74 167.156 43.74Z" fill="#FFD041"/>
<path d="M156.744 38.931C156.071 35.585 156.333 31.49 159.032 29.04C159.138 28.935 159.336 28.802 159.457 28.704C159.598 28.599 159.761 28.501 159.917 28.41L160.158 28.284C161.043 27.822 162.07 27.64 163.062 27.668C163.785 27.689 164.493 27.808 165.187 27.997C165.286 28.025 165.364 28.116 165.35 28.221C165.336 28.361 165.201 28.445 165.074 28.403C164.408 28.214 163.728 28.088 163.048 28.06C159.974 27.927 157.969 29.964 157.14 32.743C156.552 34.731 156.567 36.859 156.949 38.889C156.963 38.945 156.921 39.001 156.864 39.015C156.807 39.022 156.751 38.987 156.744 38.931Z" fill="#FFD041"/>
<path d="M159.294 39.54C159.074 35.06 160.887 31.049 165.024 28.935C167.843 27.472 172.192 26.912 175.005 28.627C176.003 29.25 176.62 30.314 176.35 31.504C175.713 34.157 171.534 36.418 169.21 37.622C167.695 38.392 166.136 39.078 164.571 39.743C164.316 39.848 164.146 39.477 164.401 39.358C165.817 38.91 167.206 38.357 168.552 37.727C170.967 36.551 173.475 35.165 174.976 32.89C175.656 31.84 176.003 30.587 174.955 29.656C173.184 28.109 169.812 28.193 167.624 28.746C164.465 29.509 161.66 31.693 160.455 34.717C159.818 36.243 159.549 37.895 159.506 39.547C159.506 39.61 159.457 39.659 159.4 39.652C159.336 39.645 159.294 39.596 159.294 39.54Z" fill="#FFD041"/>
<path d="M152.961 48.668C152.876 49.41 152.65 49.949 152.274 50.285C151.906 50.621 151.346 50.789 150.61 50.789C150.227 50.789 149.937 50.74 149.724 50.642C149.512 50.544 149.405 50.411 149.405 50.243C149.405 50.117 149.441 50.019 149.519 49.928C149.597 49.844 149.689 49.802 149.795 49.802C149.894 49.802 150.057 49.83 150.291 49.879C150.525 49.935 150.716 49.956 150.865 49.956C151.233 49.956 151.502 49.837 151.679 49.606C151.856 49.375 151.984 48.934 152.062 48.29L152.501 44.552H151.474C151.36 44.552 151.275 44.524 151.212 44.468C151.148 44.412 151.12 44.335 151.12 44.237C151.12 44.104 151.169 43.999 151.261 43.936C151.353 43.873 151.495 43.838 151.686 43.838H152.565L152.699 42.879C152.791 42.151 153.025 41.626 153.393 41.297C153.762 40.968 154.3 40.807 155.015 40.807C155.419 40.807 155.724 40.856 155.936 40.954C156.149 41.052 156.262 41.185 156.262 41.36C156.262 41.458 156.227 41.549 156.149 41.619C156.071 41.689 155.986 41.731 155.887 41.731C155.851 41.731 155.731 41.703 155.525 41.647C155.32 41.591 155.143 41.563 154.973 41.563C154.527 41.563 154.201 41.668 154.002 41.871C153.804 42.074 153.677 42.459 153.606 43.019L153.514 43.845H154.427C154.654 43.845 154.803 43.873 154.881 43.922C154.952 43.978 154.994 44.062 154.994 44.188C154.994 44.314 154.952 44.412 154.86 44.468C154.767 44.524 154.612 44.552 154.392 44.552H153.429L152.961 48.668Z" fill="#FFD041"/>
<path d="M160.038 42.795V48.885C160.038 48.941 160.087 48.99 160.144 48.99H174.594C174.65 48.99 174.7 49.039 174.7 49.095V50.775C174.7 50.831 174.65 50.88 174.594 50.88H158.231C158.175 50.88 158.125 50.831 158.125 50.775V40.905C158.125 40.849 158.175 40.8 158.231 40.8H174.594C174.65 40.8 174.7 40.849 174.7 40.905V42.585C174.7 42.641 174.65 42.69 174.594 42.69H160.144C160.08 42.69 160.038 42.739 160.038 42.795Z" fill="#FFD041"/>
<path d="M177.888 30.86C177.859 30.86 177.831 30.853 177.803 30.832C177.746 30.797 177.732 30.72 177.753 30.657C177.958 30.118 177.902 29.488 177.59 28.921C177.25 28.298 176.655 27.857 175.947 27.703C175.876 27.689 175.819 27.626 175.826 27.549C175.833 27.465 175.918 27.409 175.996 27.43C176.783 27.598 177.455 28.095 177.838 28.795C178.185 29.432 178.249 30.153 178.015 30.769C177.994 30.825 177.944 30.86 177.888 30.86Z" fill="#FFD041"/>
<path d="M179.8 28.34C179.793 28.34 179.793 28.34 179.786 28.34C179.708 28.333 179.651 28.263 179.658 28.186C179.708 27.731 179.488 27.29 179.099 27.066C179.049 27.038 179.014 26.982 179.021 26.926C179.035 26.821 179.148 26.772 179.233 26.821C179.722 27.101 180.005 27.647 179.942 28.221C179.927 28.284 179.871 28.34 179.8 28.34Z" fill="#FFD041"/>
<path d="M179.162 29.6C179.148 29.6 179.134 29.6 179.12 29.593C179.056 29.565 179.021 29.502 179.021 29.432C179.085 28.396 178.334 27.409 177.215 27.08C177.144 27.059 177.094 26.989 177.108 26.919C177.122 26.835 177.207 26.786 177.285 26.814C178.539 27.185 179.382 28.305 179.297 29.481C179.297 29.544 179.233 29.6 179.162 29.6Z" fill="#FFD041"/>
<path d="M179.906 45.84C179.906 45.896 179.857 45.945 179.8 45.945H176.747C176.69 45.945 176.641 45.994 176.641 46.05V46.89C176.641 46.967 176.584 47.009 176.506 46.995L172.532 45.945C172.32 45.889 172.32 45.798 172.532 45.742L176.506 44.692C176.577 44.671 176.641 44.72 176.641 44.797V45.637C176.641 45.693 176.69 45.742 176.747 45.742H179.8C179.857 45.735 179.906 45.784 179.906 45.84Z" fill="#FFD041"/>
<path d="M146.076 56.641C145.793 56.641 145.602 56.606 145.495 56.543C145.389 56.473 145.34 56.361 145.34 56.193C145.34 56.046 145.382 55.934 145.467 55.864C145.552 55.794 145.68 55.752 145.85 55.752H147.642C147.883 55.752 148.045 55.787 148.13 55.85C148.208 55.913 148.251 56.032 148.251 56.193C148.251 56.354 148.194 56.48 148.088 56.543C147.982 56.613 147.783 56.641 147.5 56.641H147.266L148.931 60.736L150.78 56.641H150.397C150.071 56.641 149.845 56.606 149.731 56.543C149.618 56.48 149.561 56.361 149.561 56.186C149.561 56.011 149.604 55.906 149.682 55.843C149.76 55.78 149.923 55.745 150.17 55.745H152.147C152.317 55.745 152.444 55.78 152.529 55.857C152.614 55.927 152.657 56.039 152.657 56.186C152.657 56.354 152.607 56.473 152.501 56.536C152.395 56.606 152.203 56.634 151.92 56.634H151.807L149.696 61.247C149.59 61.478 149.483 61.632 149.377 61.702C149.271 61.772 149.122 61.807 148.917 61.807C148.733 61.807 148.591 61.772 148.492 61.702C148.393 61.632 148.286 61.485 148.18 61.247L146.076 56.641Z" fill="white"/>
<path d="M155.341 60.701H155.766C156.014 60.701 156.191 60.736 156.298 60.806C156.404 60.876 156.453 60.988 156.453 61.142C156.453 61.317 156.411 61.436 156.319 61.499C156.227 61.562 156.035 61.597 155.731 61.597H154.038C153.882 61.597 153.762 61.562 153.684 61.485C153.606 61.408 153.563 61.296 153.563 61.142C153.563 60.981 153.606 60.862 153.698 60.799C153.79 60.736 153.967 60.708 154.222 60.708H154.335V55.01H154.229C153.974 55.01 153.797 54.975 153.698 54.905C153.599 54.835 153.556 54.716 153.556 54.548C153.556 54.394 153.599 54.275 153.677 54.205C153.755 54.135 153.882 54.093 154.045 54.093H155.66C156 54.093 156.22 54.128 156.312 54.191C156.404 54.254 156.446 54.373 156.446 54.548C156.446 54.723 156.39 54.835 156.276 54.905C156.163 54.975 155.943 55.01 155.625 55.01H155.334V57.208H158.401V55.01H157.969C157.728 55.01 157.551 54.975 157.445 54.905C157.339 54.835 157.289 54.716 157.289 54.555C157.289 54.38 157.339 54.261 157.431 54.198C157.53 54.135 157.764 54.1 158.139 54.1H159.698C159.853 54.1 159.967 54.135 160.045 54.212C160.123 54.289 160.165 54.401 160.165 54.555C160.165 54.716 160.123 54.835 160.03 54.905C159.938 54.975 159.783 55.01 159.549 55.01H159.4V60.708H159.506C159.761 60.708 159.938 60.743 160.03 60.806C160.123 60.869 160.172 60.981 160.172 61.142C160.172 61.317 160.13 61.436 160.038 61.499C159.945 61.562 159.74 61.597 159.414 61.597H158.09C157.743 61.597 157.523 61.562 157.431 61.499C157.339 61.436 157.289 61.317 157.289 61.142C157.289 60.967 157.346 60.862 157.459 60.799C157.573 60.736 157.778 60.708 158.09 60.708H158.401V58.076H155.334L155.341 60.701Z" fill="white"/>
<path d="M165.329 60.701H167.383C167.546 60.701 167.673 60.736 167.751 60.806C167.829 60.876 167.872 60.988 167.872 61.135C167.872 61.31 167.836 61.429 167.758 61.492C167.68 61.555 167.546 61.59 167.347 61.59H162.389C162.219 61.59 162.092 61.555 162.007 61.478C161.922 61.401 161.879 61.289 161.879 61.135C161.879 60.981 161.922 60.876 162.014 60.806C162.106 60.736 162.24 60.701 162.417 60.701H164.358V56.641H163.105C162.927 56.641 162.793 56.606 162.701 56.522C162.609 56.438 162.559 56.333 162.559 56.186C162.559 56.039 162.602 55.927 162.687 55.857C162.772 55.787 162.899 55.745 163.069 55.745H164.946C165.06 55.745 165.152 55.766 165.215 55.815C165.279 55.864 165.315 55.927 165.315 56.004L165.329 60.701ZM164.146 53.925C164.146 53.47 164.188 53.183 164.273 53.064C164.358 52.945 164.535 52.889 164.805 52.889C165.074 52.889 165.244 52.938 165.329 53.036C165.414 53.134 165.456 53.372 165.456 53.743C165.456 54.114 165.414 54.331 165.336 54.415C165.258 54.499 165.081 54.541 164.805 54.541C164.528 54.541 164.351 54.499 164.273 54.422C164.188 54.345 164.146 54.177 164.146 53.925Z" fill="white"/>
<path d="M169.664 56.641C169.38 56.641 169.189 56.606 169.083 56.543C168.977 56.473 168.927 56.361 168.927 56.193C168.927 56.046 168.97 55.934 169.055 55.864C169.14 55.794 169.267 55.752 169.437 55.752H171.229C171.47 55.752 171.633 55.787 171.718 55.85C171.796 55.913 171.838 56.032 171.838 56.193C171.838 56.354 171.782 56.48 171.675 56.543C171.569 56.613 171.371 56.641 171.088 56.641H170.854L172.518 60.736L174.367 56.641H173.985C173.659 56.641 173.432 56.606 173.319 56.543C173.205 56.48 173.149 56.361 173.149 56.186C173.149 56.011 173.191 55.906 173.269 55.843C173.347 55.78 173.51 55.745 173.758 55.745H175.734C175.904 55.745 176.032 55.78 176.117 55.857C176.202 55.927 176.244 56.039 176.244 56.186C176.244 56.354 176.195 56.473 176.088 56.536C175.982 56.606 175.791 56.634 175.508 56.634H175.394L173.283 61.254C173.177 61.485 173.071 61.639 172.965 61.709C172.858 61.779 172.71 61.814 172.504 61.814C172.32 61.814 172.178 61.779 172.079 61.709C171.98 61.639 171.874 61.492 171.768 61.254L169.664 56.641Z" fill="white"/>
<path d="M178.298 58.944C178.334 59.553 178.539 60.022 178.922 60.358C179.304 60.687 179.828 60.855 180.487 60.855C180.983 60.855 181.528 60.722 182.116 60.456C182.704 60.19 183.058 60.057 183.186 60.057C183.313 60.057 183.42 60.099 183.505 60.176C183.59 60.253 183.632 60.358 183.632 60.47C183.632 60.582 183.59 60.701 183.498 60.806C183.405 60.904 183.264 61.002 183.073 61.1C182.648 61.303 182.208 61.464 181.748 61.569C181.295 61.674 180.841 61.73 180.395 61.73C179.425 61.73 178.645 61.45 178.058 60.897C177.477 60.344 177.179 59.609 177.179 58.692C177.179 57.775 177.491 57.005 178.107 56.431C178.723 55.857 179.531 55.563 180.523 55.563C181.422 55.563 182.166 55.829 182.761 56.375C183.356 56.921 183.653 57.565 183.653 58.335C183.653 58.573 183.604 58.727 183.505 58.811C183.405 58.888 183.136 58.93 182.69 58.93L178.298 58.944ZM178.327 58.118H182.492C182.428 57.614 182.215 57.215 181.854 56.907C181.493 56.599 181.054 56.452 180.53 56.452C179.963 56.452 179.481 56.599 179.099 56.893C178.709 57.187 178.454 57.593 178.327 58.118Z" fill="white"/>
</g>
<defs>
<clipPath id="clip0_102_12">
<rect width="85" height="77" fill="white" transform="translate(122 6.5)"/>
</clipPath>
</defs>
</svg>
