<svg width="329" height="90" viewBox="0 0 329 90" fill="none" xmlns="http://www.w3.org/2000/svg">
<rect x="1.5" y="1" width="326" height="88" rx="23" fill="white"/>
<rect x="1.5" y="1" width="326" height="88" rx="23" stroke="#BDBDBD" stroke-width="2"/>
<g clip-path="url(#clip0_88_120)">
<path d="M134.244 54.02C135.386 53.3704 136.29 52.4422 136.956 51.2366C137.622 50.031 137.955 48.6356 137.955 47.049C137.955 45.463 137.622 44.0674 136.956 42.8616C136.29 41.6564 135.386 40.7284 134.244 40.078C133.102 39.428 131.817 39.1022 130.389 39.1022C128.962 39.1022 127.677 39.428 126.535 40.078C125.393 40.7284 124.489 41.6564 123.823 42.8616C123.157 44.0674 122.824 45.463 122.824 47.049C122.824 48.6356 123.157 50.031 123.823 51.2366C124.489 52.4422 125.393 53.3704 126.535 54.02C127.677 54.6708 128.962 54.9956 130.389 54.9956C131.817 54.9956 133.102 54.6708 134.244 54.02ZM143.808 24.4465V59.754H138.098V56.471C137.115 57.6768 135.901 58.5808 134.458 59.183C133.014 59.7854 131.42 60.087 129.676 60.087C127.233 60.087 125.037 59.548 123.086 58.4692C121.135 57.3914 119.604 55.8602 118.493 53.8772C117.383 51.8952 116.828 49.6184 116.828 47.049C116.828 44.4796 117.383 42.2116 118.493 40.2446C119.604 38.2778 121.135 36.7552 123.086 35.6764C125.037 34.5982 127.233 34.0584 129.676 34.0584C131.357 34.0584 132.895 34.3441 134.292 34.9152C135.687 35.486 136.877 36.3426 137.861 37.4844V24.4465H143.808Z" fill="#111433"/>
<path d="M149.475 34.3405H155.422V59.7504H149.475V34.3405Z" fill="#111433"/>
<path d="M175.762 34.0548V39.7172C175.254 39.6224 174.793 39.5746 174.381 39.5746C172.066 39.5746 170.257 40.249 168.957 41.597C167.656 42.9458 167.006 44.8886 167.006 47.426V59.7504H161.058V34.3405H166.72V38.052C168.433 35.3876 171.447 34.0548 175.762 34.0548Z" fill="#111433"/>
<path d="M185.21 40.506C183.893 41.6324 183.092 43.1314 182.807 45.003H197.225C196.97 43.1634 196.193 41.6718 194.893 40.5302C193.592 39.388 191.974 38.8172 190.039 38.8172C188.136 38.8172 186.526 39.3806 185.21 40.506ZM202.792 48.9522H182.854C183.203 50.8246 184.115 52.3072 185.591 53.4014C187.065 54.496 188.898 55.043 191.086 55.043C193.878 55.043 196.178 54.1236 197.986 52.2832L201.174 55.947C200.032 57.3116 198.588 58.3428 196.844 59.0402C195.099 59.7386 193.133 60.087 190.944 60.087C188.152 60.087 185.693 59.5322 183.568 58.422C181.442 57.3116 179.801 55.765 178.643 53.7822C177.485 51.8 176.906 49.5556 176.906 47.049C176.906 44.5746 177.469 42.3462 178.596 40.3634C179.722 38.381 181.284 36.8346 183.283 35.724C185.281 34.6137 187.533 34.0584 190.039 34.0584C192.514 34.0584 194.727 34.6056 196.678 35.7C198.629 36.7946 200.151 38.3336 201.246 40.3158C202.34 42.2988 202.887 44.591 202.887 47.192C202.887 47.6046 202.855 48.1908 202.792 48.9522Z" fill="#111433"/>
<path d="M217.401 48.8536L212.975 53.0414V59.7504H207.027V24.4429H212.975V45.7604L225.3 34.3405H232.437L221.826 44.9994L233.437 59.7504H226.204L217.401 48.8536Z" fill="#111433"/>
<path d="M248.28 54.139C247.392 54.8374 246.282 55.1858 244.95 55.1858C243.808 55.1858 242.934 54.861 242.332 54.2104C241.73 53.5608 241.428 52.6164 241.428 51.3794V39.1026H248.232V34.3441H241.428V27.5661H235.48V51.522C235.48 54.3136 236.242 56.4394 237.764 57.898C239.286 59.3576 241.444 60.087 244.236 60.087C245.346 60.087 246.402 59.9442 247.4 59.6588C248.4 59.3734 249.248 58.945 249.946 58.3742L248.28 54.139Z" fill="#111433"/>
<path d="M253.274 34.3405H259.222V59.7504H253.274V34.3405Z" fill="#111433"/>
<path d="M289.248 34.3405L278.352 59.7504H272.214L261.318 34.3405H267.504L275.402 53.184L283.54 34.3405H289.248Z" fill="#111433"/>
<path d="M259.842 26.5825C259.842 28.5533 258.244 30.1512 256.274 30.1512C254.302 30.1512 252.704 28.5533 252.704 26.5825C252.704 24.6113 254.302 23.0134 256.274 23.0134C258.244 23.0134 259.842 24.6113 259.842 26.5825Z" fill="#111433"/>
<path d="M156.015 26.5825C156.015 28.5533 154.417 30.1512 152.446 30.1512C150.475 30.1512 148.877 28.5533 148.877 26.5825C148.877 24.6113 150.475 23.0134 152.446 23.0134C154.417 23.0134 156.015 24.6113 156.015 26.5825Z" fill="#111433"/>
<path d="M92.2378 45.1784C90.5564 45.1784 89.1886 43.8106 89.1886 42.1292C89.1886 40.4478 90.5564 39.08 92.2378 39.08C93.9192 39.08 95.287 40.4478 95.287 42.1292C95.287 43.8106 93.9192 45.1784 92.2378 45.1784ZM51.5731 69.6152H45.4744V63.5166H51.5731V69.6152ZM100.672 42.1292C100.672 37.9512 97.6156 34.4829 93.623 33.819C90.105 22.9131 79.8622 15 67.801 15H45.8312V43.0962L42.3077 39.5726L38.5 43.3804L48.5239 53.4042L58.5474 43.3804L54.7398 39.5726L51.2163 43.0962V20.3848H67.801C77.1852 20.3848 85.1788 26.3699 88.219 34.7158C85.591 36.146 83.8038 38.9326 83.8038 42.1292C83.8038 45.3272 85.593 48.1152 88.223 49.5448C85.1824 57.8904 77.185 63.8736 67.801 63.8736H56.9579V58.1316H40.0896V75H56.9579V69.2582H67.801C79.8576 69.2582 90.0788 61.3424 93.6 50.4428C97.6038 49.7886 100.672 46.3148 100.672 42.1292Z" fill="#5364FF"/>
</g>
<defs>
<clipPath id="clip0_88_120">
<rect width="252" height="60" fill="white" transform="translate(38.5 15)"/>
</clipPath>
</defs>
</svg>
