<?xml version="1.0" encoding="utf-8"?>
<!-- Generator: Adobe Illustrator 25.4.1, SVG Export Plug-In . SVG Version: 6.00 Build 0)  -->
<svg version="1.1" xmlns="http://www.w3.org/2000/svg" xmlns:xlink="http://www.w3.org/1999/xlink" x="0px" y="0px"
	 viewBox="0 0 1250 1250" style="enable-background:new 0 0 1250 1250;" xml:space="preserve">
<style type="text/css">
	.st0{display:none;}
	.st1{display:inline;fill:#364851;}
	.st2{fill:#364851;}
	.st3{fill:#79A18B;}
	.st4{fill:#9BCCB0;}
	.st5{fill:#D1F2D0;}
	.st6{fill:#587769;}
	.st7{fill:#3C5148;}
	.st8{fill:#FFFFFF;}
	.st9{display:inline;}
</style>
<g id="BG" class="st0">
	<rect id="BG_1_" class="st1" width="1250" height="1250"/>
</g>
<g id="Color_-_Dark_Text">
	<g id="Logo">
		<g id="Icon_1_">
			<path id="Trunk" class="st2" d="M774.5,662.7l-92.3,102.6l-93.4-101.1c-12.3,14.6-26.6,27.5-42.2,38.2l106.7,117.2v143.3H711
				V819.6l105.5-118.3C800.1,691.4,785.8,678.3,774.5,662.7z"/>
			<path id="Right_1_" class="st3" d="M803.5,668.7l5.8,5.3c22.2,18.9,50.7,30.1,81.4,30.1c69.2,0,125.5-56.2,125.7-125.4
				c0-2.6-0.1-5.2-0.3-7.8c0-0.5,0-1.1-0.1-1.6c-3.6-47.3-33.6-88.6-77.7-106.6c-0.2,0.6-0.5,1.1-0.7,1.7c-0.5,1.1-1,2.3-1.5,3.4
				c-1,2.3-2,4.6-3.1,6.8c-0.6,1.2-1.1,2.4-1.7,3.6c-1.1,2.3-2.3,4.6-3.5,6.8c-0.5,1-1.1,2.1-1.6,3.1c-1.7,3.2-3.5,6.4-5.4,9.6
				c-33.7,56.9-86.5,100.1-148.9,121.6c0,0-0.1,0-0.1,0C778.4,638.3,789.4,655.1,803.5,668.7z"/>
			<path id="Overlap_Right" class="st4" d="M911,454.8c-1.1-0.2-2.1-0.3-3.2-0.5c-1.9-0.3-3.9-0.5-5.8-0.6c-0.9-0.1-1.8-0.2-2.7-0.3
				c-2.9-0.2-5.7-0.3-8.6-0.3c-69.3,0-125.6,56.3-125.7,125.6c0,3.7,0.2,7.5,0.6,11.6c0.4,3.8,1,7.7,1.7,11.5c1.5-0.5,3-1.1,4.5-1.7
				c1.9-0.7,3.8-1.4,5.7-2.1c1.7-0.7,3.3-1.4,5-2.1c1.9-0.8,3.7-1.5,5.6-2.4c1.7-0.8,3.3-1.6,5-2.4c1.8-0.9,3.6-1.7,5.4-2.6
				c1.6-0.8,3.2-1.7,4.9-2.6c1.7-0.9,3.5-1.8,5.2-2.8c1.6-0.9,3.2-1.9,4.7-2.8c1.7-1,3.4-2,5.1-3c1.6-1,3.1-2,4.7-3
				c1.6-1.1,3.3-2.1,4.8-3.2c1.6-1.1,3.1-2.2,4.6-3.3c1.5-1.1,3.1-2.2,4.6-3.3c1.6-1.2,3.1-2.4,4.6-3.6c1.5-1.1,2.9-2.3,4.4-3.4
				c1.5-1.3,3-2.6,4.5-3.8c1.4-1.2,2.8-2.3,4.1-3.6c1.5-1.3,3-2.7,4.4-4.1c1.3-1.2,2.6-2.4,3.9-3.7c1.5-1.5,2.9-3,4.4-4.5
				c1.2-1.2,2.4-2.4,3.6-3.7c1.5-1.6,2.9-3.2,4.3-4.8c1.1-1.2,2.3-2.5,3.3-3.7c1.5-1.7,2.8-3.4,4.3-5.2c1-1.2,2-2.4,3-3.7
				c1.5-1.9,2.9-3.8,4.3-5.8c0.8-1.1,1.7-2.3,2.6-3.4c1.5-2.1,2.9-4.2,4.4-6.4c0.7-1,1.4-2.1,2.1-3.1c2.1-3.2,4.1-6.5,6.1-9.8
				c1.7-2.9,3.4-5.9,5-8.8c0.5-0.9,1-1.9,1.5-2.8c1.1-2.1,2.2-4.3,3.3-6.4c0.5-1,1-2.1,1.5-3.1c1.1-2.3,2.1-4.6,3.2-7
				c0.4-0.8,0.7-1.6,1.1-2.5c0.1-0.3,0.2-0.6,0.3-0.8c-0.5-0.1-1.1-0.3-1.6-0.4c-1-0.2-2.1-0.5-3.1-0.7
				C914.6,455.4,912.8,455.1,911,454.8z"/>
			<path id="Center_1_" class="st5" d="M681.2,95.7c-129.9,0-238.8,94.7-257.5,222c1.2,0,2.4,0,3.6,0c116.3,0,211,94.6,211,211
				c0,28.1-5.5,55.3-16.2,81c41.7,9.7,86.1,9,127.9-2.5c-0.1-0.4-0.1-0.8-0.2-1.3c-0.3-1.6-0.6-3.1-0.8-4.7
				c-0.1-0.7-0.2-1.4-0.3-2.2c-0.3-2.2-0.6-4.5-0.8-6.7c-0.4-4.6-0.7-9.2-0.7-13.5c0-0.1,0-0.1,0-0.2c0-0.1,0-0.2,0-0.3
				c0-79.2,64.4-143.6,143.6-143.6c12.6,0,25,1.7,37.1,5c9.1-26.9,13.8-55,13.8-83.6C941.5,212.5,824.7,95.7,681.2,95.7z"/>
			<path id="Overlap_Left" class="st6" d="M421.7,335.9c-0.1,1.4-0.3,2.8-0.3,4.2c-0.1,1.2-0.2,2.4-0.2,3.6
				c-0.2,4.1-0.3,8.3-0.3,12.3c0,3.6,0.1,7.2,0.2,10.8c0,1.2,0.2,2.4,0.2,3.6c0.1,2.4,0.3,4.8,0.4,7.1c0.1,1.4,0.3,2.8,0.4,4.2
				c0.2,2.1,0.4,4.2,0.7,6.3c0.2,1.5,0.4,3,0.6,4.5c0.3,2,0.6,4,0.9,6c0.3,1.5,0.6,3,0.8,4.5c0.4,1.9,0.7,3.9,1.1,5.8
				c0.3,1.5,0.7,3.1,1,4.6c0.4,1.9,0.8,3.8,1.3,5.6c0.4,1.5,0.8,3.1,1.2,4.6c0.5,1.8,1,3.7,1.5,5.5c0.5,1.5,1,3,1.4,4.6
				c0.6,1.8,1.1,3.6,1.7,5.4c0.5,1.5,1.1,3,1.6,4.5c0.6,1.8,1.3,3.5,1.9,5.3c0.6,1.5,1.2,3,1.8,4.5c0.7,1.7,1.4,3.5,2.1,5.2
				c0.6,1.5,1.3,2.9,2,4.4c0.8,1.7,1.5,3.4,2.3,5.1c0.7,1.4,1.4,2.9,2.1,4.3c0.8,1.7,1.7,3.3,2.5,4.9c0.7,1.4,1.5,2.8,2.3,4.2
				c0.9,1.6,1.8,3.2,2.7,4.8c0.8,1.4,1.6,2.7,2.5,4.1c1,1.6,1.9,3.2,2.9,4.7c0.9,1.3,1.7,2.7,2.6,4c1,1.5,2,3.1,3.1,4.6
				c0.9,1.3,1.8,2.6,2.8,3.9c1.1,1.5,2.1,3,3.3,4.5c1,1.3,1.9,2.5,2.9,3.8c1.1,1.5,2.3,2.9,3.4,4.3c1,1.2,2,2.5,3.1,3.7
				c1.2,1.4,2.4,2.8,3.6,4.2c1.1,1.2,2.1,2.4,3.2,3.6c1.2,1.4,2.5,2.7,3.8,4c1.1,1.2,2.2,2.3,3.3,3.4c1.3,1.3,2.6,2.6,3.9,3.9
				c1.1,1.1,2.3,2.2,3.5,3.3c1.4,1.3,2.7,2.5,4.1,3.8c1.2,1.1,2.4,2.1,3.6,3.2c1.4,1.2,2.8,2.4,4.2,3.6c1.2,1,2.5,2,3.7,3
				c1.5,1.2,2.9,2.3,4.4,3.4c1.3,1,2.6,1.9,3.9,2.9c1.5,1.1,3,2.2,4.5,3.3c1.3,0.9,2.6,1.8,4,2.7c1.6,1,3.1,2.1,4.7,3.1
				c1.4,0.9,2.7,1.7,4.1,2.6c1.6,1,3.2,1.9,4.8,2.9c1.4,0.8,2.8,1.6,4.2,2.4c1.6,0.9,3.3,1.8,5,2.7c1.4,0.8,2.8,1.5,4.3,2.2
				c1.7,0.9,3.4,1.7,5.1,2.5c1.5,0.7,2.9,1.4,4.4,2.1c1.7,0.8,3.5,1.6,5.2,2.3c1.5,0.6,3,1.3,4.5,1.9c1.8,0.7,3.6,1.4,5.4,2.1
				c1.5,0.6,3,1.2,4.6,1.7c1.8,0.7,3.7,1.3,5.5,1.9c1.5,0.5,3.1,1,4.6,1.5c0.5,0.2,1.1,0.3,1.6,0.5c0.3-0.8,0.7-1.6,1-2.4
				c0.6-1.4,1.1-2.8,1.7-4.2c0.7-1.7,1.3-3.5,1.9-5.3c0.5-1.4,1-2.8,1.5-4.3c0.6-1.8,1.1-3.6,1.7-5.4c0.4-1.4,0.8-2.9,1.2-4.3
				c0.5-1.8,0.9-3.7,1.4-5.5c0.3-1.4,0.7-2.8,1-4.3c0.4-1.9,0.7-3.8,1.1-5.7c0.3-1.4,0.5-2.8,0.7-4.2c0.3-2,0.6-4,0.8-6
				c0.2-1.3,0.4-2.6,0.5-4c0.2-2.2,0.4-4.5,0.5-6.8c0.1-1.1,0.2-2.2,0.3-3.3c0.2-3.4,0.3-6.8,0.3-10.2c0-106.4-86.6-193-193-193
				c-1.5,0-3,0-4.6,0.1C421.9,335.9,421.8,335.9,421.7,335.9z"/>
			<path id="Left_1_" class="st7" d="M403.4,340c0.1-0.9,0.1-1.8,0.1-2.7c-14.1,1.7-27.7,5-40.7,9.5c-1,0.4-2.1,0.7-3.1,1.1
				c-0.8,0.3-1.6,0.6-2.4,0.9c-72.2,28.3-123.1,98.8-123.1,179.8c0,106.4,86.6,193,193,193c22.7,0,44.8-4.1,65.5-11.6
				c0.9-0.3,1.8-0.7,2.7-1c3.2-1.2,6.3-2.5,9.4-3.9c1.9-0.8,3.7-1.7,5.6-2.6c1-0.5,2-1,3-1.5c11.3-5.7,22.1-12.6,32.1-20.4
				l20.3-18.3c11.8-12.2,22-26.1,30.3-41.3c-0.1,0-0.2-0.1-0.3-0.1c-1.5-0.5-2.9-1-4.3-1.5c-2.2-0.7-4.3-1.4-6.4-2.2
				c-1.6-0.6-3.1-1.2-4.6-1.8c-2-0.8-4-1.5-5.9-2.3c-1.6-0.7-3.1-1.4-4.7-2c-1.9-0.8-3.8-1.6-5.6-2.5c-1.6-0.7-3.1-1.5-4.7-2.3
				c-1.8-0.9-3.6-1.7-5.4-2.7c-1.6-0.8-3.1-1.6-4.6-2.5c-1.7-0.9-3.5-1.9-5.2-2.8c-1.5-0.9-3-1.8-4.6-2.7c-1.7-1-3.4-2-5-3
				c-1.5-0.9-3-1.9-4.5-2.9c-1.6-1-3.2-2.1-4.8-3.2c-1.5-1-2.9-2-4.4-3.1c-1.6-1.1-3.1-2.2-4.6-3.3c-1.4-1.1-2.9-2.2-4.3-3.2
				c-1.5-1.2-3-2.3-4.5-3.5c-1.4-1.1-2.8-2.3-4.1-3.4c-1.5-1.2-2.9-2.4-4.3-3.7c-1.4-1.2-2.7-2.4-4-3.6c-1.4-1.3-2.8-2.5-4.2-3.8
				c-1.3-1.2-2.6-2.5-3.9-3.7c-1.3-1.3-2.7-2.6-4-4c-1.3-1.3-2.5-2.6-3.7-3.9c-1.3-1.4-2.6-2.7-3.8-4.1c-1.2-1.3-2.4-2.7-3.6-4
				c-1.2-1.4-2.5-2.8-3.7-4.3c-1.1-1.4-2.3-2.7-3.4-4.1c-1.2-1.5-2.3-2.9-3.5-4.4c-1.1-1.4-2.2-2.8-3.2-4.3c-1.1-1.5-2.2-3-3.3-4.6
				c-1-1.4-2.1-2.9-3.1-4.4c-1.1-1.6-2.1-3.1-3.1-4.7c-1-1.5-1.9-3-2.9-4.5c-1-1.6-2-3.2-3-4.8c-0.9-1.5-1.8-3-2.7-4.6
				c-0.9-1.6-1.9-3.3-2.8-4.9c-0.9-1.6-1.7-3.1-2.5-4.7c-0.9-1.7-1.7-3.4-2.6-5.1c-0.8-1.6-1.6-3.2-2.3-4.8
				c-0.8-1.7-1.6-3.5-2.4-5.2c-0.7-1.6-1.5-3.2-2.2-4.8c-0.8-1.8-1.5-3.5-2.2-5.3c-0.7-1.6-1.3-3.3-2-4.9c-0.7-1.8-1.3-3.6-2-5.5
				c-0.6-1.6-1.2-3.3-1.7-4.9c-0.6-1.9-1.2-3.7-1.8-5.6c-0.5-1.7-1.1-3.3-1.5-5c-0.6-1.9-1.1-3.8-1.6-5.8c-0.4-1.7-0.9-3.3-1.3-5
				c-0.5-2-0.9-3.9-1.4-5.9c-0.4-1.7-0.8-3.3-1.1-5c-0.4-2-0.8-4.1-1.2-6.1c-0.3-1.6-0.6-3.3-0.9-4.9c-0.3-2.1-0.6-4.2-0.9-6.3
				c-0.2-1.6-0.5-3.2-0.7-4.8c-0.3-2.2-0.5-4.5-0.7-6.7c-0.2-1.5-0.3-3-0.5-4.5c-0.2-2.5-0.3-5.1-0.5-7.6c-0.1-1.3-0.2-2.5-0.2-3.8
				c-0.2-3.8-0.2-7.6-0.2-11.5c0-4.3,0.1-8.7,0.4-13.1C403.3,342,403.3,341,403.4,340z"/>
			<path id="Outline_7_" class="st8" d="M1034.3,578.3c0-2.7-0.2-5.4-0.3-8c0-0.9,0-1.7-0.1-2.6c-4-54.4-38.5-101.8-89.2-122.3
				c9.8-28.8,14.8-58.8,14.8-89.4c0-153.5-124.8-278.3-278.3-278.3c-140,0-257.2,103-275.7,241.1c-19.9,2.1-39,6.9-56.8,14.1
				c-0.4,0.2-0.8,0.3-1.2,0.5c-2.2,0.9-4.4,1.9-6.6,2.9c-1.2,0.6-2.5,1.1-3.7,1.7c-1.3,0.6-2.6,1.3-4,1.9c-2.1,1-4.2,2.1-6.2,3.2
				c-0.4,0.2-0.9,0.5-1.3,0.7c-65.6,36.1-110,105.9-110,184.9c0,116.3,94.6,211,211,211c15.3,0,30.4-1.8,45.1-5
				c1.1-0.2,2.2-0.5,3.4-0.8c3-0.7,5.9-1.4,8.8-2.3c3.2-0.9,6.5-1.9,9.7-2.9c0.5-0.2,1-0.4,1.5-0.5c12.5-4.3,24.6-9.8,36.1-16.3
				l104,114.6v154.4H729V826.5l103.8-116.3c17.8,7.9,37.5,12.2,57.9,12.2c79.2,0,143.6-64.4,143.6-143.6c0-0.1,0-0.1,0-0.2
				C1034.3,578.5,1034.3,578.4,1034.3,578.3z M510.5,702.5c-1.9,0.9-3.7,1.8-5.6,2.6c-3.1,1.4-6.2,2.7-9.4,3.9
				c-0.9,0.3-1.8,0.7-2.7,1c-20.7,7.5-42.9,11.6-65.5,11.6c-106.4,0-193-86.6-193-193c0-81,50.9-151.5,123.1-179.8
				c0.8-0.3,1.6-0.6,2.4-0.9c1-0.4,2.1-0.7,3.1-1.1c13-4.6,26.6-7.8,40.7-9.5c-0.1,0.9-0.1,1.8-0.1,2.7c-0.1,1-0.1,2-0.2,3
				c-0.2,4.4-0.4,8.8-0.4,13.1c0,3.8,0.1,7.7,0.2,11.5c0.1,1.3,0.2,2.5,0.2,3.8c0.1,2.5,0.3,5.1,0.5,7.6c0.1,1.5,0.3,3,0.5,4.5
				c0.2,2.2,0.4,4.5,0.7,6.7c0.2,1.6,0.5,3.2,0.7,4.8c0.3,2.1,0.6,4.2,0.9,6.3c0.3,1.7,0.6,3.3,0.9,4.9c0.4,2,0.7,4.1,1.2,6.1
				c0.3,1.7,0.7,3.3,1.1,5c0.4,2,0.9,3.9,1.4,5.9c0.4,1.7,0.9,3.3,1.3,5c0.5,1.9,1,3.8,1.6,5.8c0.5,1.7,1,3.3,1.5,5
				c0.6,1.9,1.2,3.8,1.8,5.6c0.6,1.7,1.2,3.3,1.7,4.9c0.7,1.8,1.3,3.7,2,5.5c0.6,1.6,1.3,3.3,2,4.9c0.7,1.8,1.4,3.6,2.2,5.3
				c0.7,1.6,1.4,3.2,2.2,4.8c0.8,1.7,1.6,3.5,2.4,5.2c0.8,1.6,1.6,3.2,2.3,4.8c0.8,1.7,1.7,3.4,2.6,5.1c0.8,1.6,1.7,3.1,2.5,4.7
				c0.9,1.7,1.8,3.3,2.8,4.9c0.9,1.5,1.8,3.1,2.7,4.6c1,1.6,2,3.2,3,4.8c0.9,1.5,1.9,3,2.9,4.5c1,1.6,2.1,3.1,3.1,4.7
				c1,1.5,2,2.9,3.1,4.4c1.1,1.5,2.2,3,3.3,4.6c1.1,1.4,2.1,2.8,3.2,4.3c1.2,1.5,2.3,3,3.5,4.4c1.1,1.4,2.3,2.8,3.4,4.1
				c1.2,1.4,2.4,2.9,3.7,4.3c1.2,1.3,2.4,2.7,3.6,4c1.3,1.4,2.5,2.8,3.8,4.1c1.2,1.3,2.5,2.6,3.7,3.9c1.3,1.3,2.7,2.7,4,4
				c1.3,1.2,2.6,2.5,3.9,3.7c1.4,1.3,2.8,2.6,4.2,3.8c1.3,1.2,2.7,2.4,4,3.6c1.4,1.2,2.9,2.5,4.3,3.7c1.4,1.1,2.7,2.3,4.1,3.4
				c1.5,1.2,3,2.3,4.5,3.5c1.4,1.1,2.8,2.2,4.3,3.2c1.5,1.1,3.1,2.2,4.6,3.3c1.5,1,2.9,2.1,4.4,3.1c1.6,1.1,3.2,2.1,4.8,3.2
				c1.5,1,3,1.9,4.5,2.9c1.7,1,3.3,2,5,3c1.5,0.9,3,1.8,4.6,2.7c1.7,1,3.5,1.9,5.2,2.8c1.5,0.8,3.1,1.7,4.6,2.5
				c1.8,0.9,3.6,1.8,5.4,2.7c1.6,0.8,3.1,1.5,4.7,2.3c1.9,0.9,3.8,1.7,5.6,2.5c1.6,0.7,3.1,1.4,4.7,2c2,0.8,4,1.6,5.9,2.3
				c1.5,0.6,3.1,1.2,4.6,1.8c2.1,0.8,4.3,1.5,6.4,2.2c1.4,0.5,2.9,1,4.3,1.5c0.1,0,0.2,0.1,0.3,0.1c-8.3,15.2-18.5,29-30.3,41.3
				l-20.3,18.3c-10,7.8-20.8,14.7-32.1,20.4C512.5,701.5,511.5,702,510.5,702.5z M421.2,343.7c0.1-1.2,0.1-2.4,0.2-3.6
				c0.1-1.4,0.2-2.8,0.3-4.2c0.1,0,0.2,0,0.3,0c1.6-0.1,3.2-0.1,4.6-0.1c106.4,0,193,86.6,193,193c0,3.4-0.1,6.8-0.3,10.2
				c-0.1,1.1-0.2,2.2-0.3,3.3c-0.2,2.3-0.3,4.5-0.5,6.8c-0.1,1.3-0.3,2.6-0.5,4c-0.3,2-0.5,4-0.8,6c-0.2,1.4-0.5,2.8-0.7,4.2
				c-0.3,1.9-0.7,3.8-1.1,5.7c-0.3,1.4-0.7,2.8-1,4.3c-0.4,1.8-0.9,3.7-1.4,5.5c-0.4,1.4-0.8,2.9-1.2,4.3c-0.5,1.8-1.1,3.6-1.7,5.4
				c-0.5,1.4-1,2.9-1.5,4.3c-0.6,1.8-1.3,3.5-1.9,5.3c-0.5,1.4-1.1,2.8-1.7,4.2c-0.3,0.8-0.7,1.6-1,2.4c-0.5-0.2-1.1-0.3-1.6-0.5
				c-1.6-0.5-3.1-1-4.6-1.5c-1.8-0.6-3.7-1.2-5.5-1.9c-1.5-0.6-3-1.1-4.6-1.7c-1.8-0.7-3.6-1.4-5.4-2.1c-1.5-0.6-3-1.3-4.5-1.9
				c-1.8-0.8-3.5-1.5-5.2-2.3c-1.5-0.7-2.9-1.4-4.4-2.1c-1.7-0.8-3.4-1.7-5.1-2.5c-1.4-0.7-2.9-1.5-4.3-2.2c-1.7-0.9-3.3-1.8-5-2.7
				c-1.4-0.8-2.8-1.6-4.2-2.4c-1.6-1-3.2-1.9-4.8-2.9c-1.4-0.8-2.7-1.7-4.1-2.6c-1.6-1-3.1-2-4.7-3.1c-1.3-0.9-2.6-1.8-4-2.7
				c-1.5-1.1-3-2.2-4.5-3.3c-1.3-0.9-2.6-1.9-3.9-2.9c-1.5-1.1-2.9-2.3-4.4-3.4c-1.3-1-2.5-2-3.7-3c-1.4-1.2-2.8-2.4-4.2-3.6
				c-1.2-1-2.4-2.1-3.6-3.2c-1.4-1.2-2.7-2.5-4.1-3.8c-1.2-1.1-2.3-2.2-3.5-3.3c-1.3-1.3-2.6-2.6-3.9-3.9c-1.1-1.1-2.2-2.3-3.3-3.4
				c-1.3-1.3-2.5-2.7-3.8-4c-1.1-1.2-2.2-2.4-3.2-3.6c-1.2-1.4-2.4-2.8-3.6-4.2c-1-1.2-2.1-2.4-3.1-3.7c-1.2-1.4-2.3-2.9-3.4-4.3
				c-1-1.3-2-2.5-2.9-3.8c-1.1-1.5-2.2-3-3.3-4.5c-0.9-1.3-1.9-2.6-2.8-3.9c-1-1.5-2.1-3.1-3.1-4.6c-0.9-1.3-1.8-2.7-2.6-4
				c-1-1.6-1.9-3.1-2.9-4.7c-0.8-1.4-1.7-2.7-2.5-4.1c-0.9-1.6-1.8-3.2-2.7-4.8c-0.8-1.4-1.6-2.8-2.3-4.2c-0.9-1.6-1.7-3.3-2.5-4.9
				c-0.7-1.4-1.4-2.8-2.1-4.3c-0.8-1.7-1.6-3.4-2.3-5.1c-0.7-1.5-1.3-2.9-2-4.4c-0.7-1.7-1.4-3.4-2.1-5.2c-0.6-1.5-1.2-3-1.8-4.5
				c-0.7-1.7-1.3-3.5-1.9-5.3c-0.5-1.5-1.1-3-1.6-4.5c-0.6-1.8-1.2-3.6-1.7-5.4c-0.5-1.5-1-3-1.4-4.6c-0.5-1.8-1-3.7-1.5-5.5
				c-0.4-1.5-0.9-3.1-1.2-4.6c-0.5-1.9-0.9-3.7-1.3-5.6c-0.4-1.5-0.7-3.1-1-4.6c-0.4-1.9-0.7-3.9-1.1-5.8c-0.3-1.5-0.6-3-0.8-4.5
				c-0.3-2-0.6-4-0.9-6c-0.2-1.5-0.5-3-0.6-4.5c-0.3-2.1-0.5-4.2-0.7-6.3c-0.1-1.4-0.3-2.8-0.4-4.2c-0.2-2.4-0.3-4.7-0.4-7.1
				c-0.1-1.2-0.2-2.4-0.2-3.6c-0.1-3.6-0.2-7.2-0.2-10.8C420.9,352,421,347.9,421.2,343.7z M614.3,626.2c21.8,5.4,44.3,8.1,66.9,8.1
				c24.7,0,49.2-3.3,73-9.8l0,0.2l0.3-0.1c2.6,7.6,5.7,14.9,9.4,21.8l-82,92l-81.5-89.7C605.5,641.6,610.2,634.1,614.3,626.2z
				 M767.2,601.7c-0.7-3.9-1.3-7.7-1.7-11.5c-0.4-4-0.6-7.8-0.6-11.6c0.1-69.2,56.4-125.6,125.7-125.6c2.9,0,5.7,0.1,8.6,0.3
				c0.9,0.1,1.8,0.2,2.7,0.3c1.9,0.2,3.9,0.4,5.8,0.6c1.1,0.1,2.1,0.3,3.2,0.5c1.8,0.3,3.6,0.6,5.4,1c1,0.2,2.1,0.4,3.1,0.7
				c0.5,0.1,1.1,0.3,1.6,0.4c-0.1,0.3-0.2,0.6-0.3,0.8c-0.3,0.8-0.7,1.6-1.1,2.5c-1,2.3-2.1,4.7-3.2,7c-0.5,1-1,2.1-1.5,3.1
				c-1.1,2.2-2.1,4.3-3.3,6.4c-0.5,0.9-1,1.9-1.5,2.8c-1.6,3-3.3,5.9-5,8.8c-2,3.3-4,6.6-6.1,9.8c-0.7,1.1-1.4,2.1-2.1,3.1
				c-1.4,2.1-2.9,4.3-4.4,6.4c-0.8,1.2-1.7,2.3-2.6,3.4c-1.4,1.9-2.8,3.9-4.3,5.8c-1,1.2-2,2.4-3,3.7c-1.4,1.7-2.8,3.5-4.3,5.2
				c-1.1,1.3-2.2,2.5-3.3,3.7c-1.4,1.6-2.8,3.2-4.3,4.8c-1.2,1.3-2.4,2.4-3.6,3.7c-1.5,1.5-2.9,3-4.4,4.5c-1.3,1.2-2.6,2.4-3.9,3.7
				c-1.5,1.4-2.9,2.8-4.4,4.1c-1.4,1.2-2.8,2.4-4.1,3.6c-1.5,1.3-3,2.6-4.5,3.8c-1.4,1.2-2.9,2.3-4.4,3.4c-1.5,1.2-3,2.4-4.6,3.6
				c-1.5,1.1-3.1,2.2-4.6,3.3c-1.5,1.1-3.1,2.2-4.6,3.3c-1.6,1.1-3.2,2.1-4.8,3.2c-1.6,1-3.1,2.1-4.7,3c-1.7,1-3.4,2-5.1,3
				c-1.6,0.9-3.1,1.9-4.7,2.8c-1.7,1-3.5,1.9-5.2,2.8c-1.6,0.9-3.2,1.7-4.9,2.6c-1.8,0.9-3.6,1.7-5.4,2.6c-1.7,0.8-3.3,1.6-5,2.4
				c-1.8,0.8-3.7,1.6-5.6,2.4c-1.7,0.7-3.3,1.4-5,2.1c-1.9,0.8-3.8,1.4-5.7,2.1C770.2,600.6,768.7,601.2,767.2,601.7z M890.7,704
				c-30.6,0-59.2-11.2-81.4-30.1l-5.8-5.3c-14-13.5-25-30.4-31.6-49.5c0,0,0.1,0,0.1,0c62.3-21.5,115.2-64.7,148.9-121.6
				c1.9-3.1,3.6-6.3,5.4-9.6c0.6-1,1.1-2.1,1.6-3.1c1.2-2.3,2.3-4.5,3.5-6.8c0.6-1.2,1.1-2.4,1.7-3.6c1.1-2.3,2.1-4.5,3.1-6.8
				c0.5-1.1,1-2.3,1.5-3.4c0.2-0.6,0.5-1.1,0.7-1.7c44.1,18,74.1,59.3,77.7,106.6c0,0.5,0,1.1,0.1,1.6c0.2,2.6,0.3,5.2,0.3,7.8
				C1016.2,647.8,959.9,704,890.7,704z M681.2,95.7c143.6,0,260.3,116.8,260.3,260.3c0,28.6-4.6,56.7-13.8,83.6
				c-12.1-3.2-24.5-5-37.1-5c-79.2,0-143.6,64.4-143.6,143.6c0,0.1,0,0.2,0,0.3c0,0.1,0,0.1,0,0.2c0,4.4,0.2,8.9,0.7,13.5
				c0.2,2.2,0.5,4.5,0.8,6.7c0.1,0.7,0.2,1.4,0.3,2.2c0.2,1.6,0.5,3.1,0.8,4.7c0.1,0.4,0.1,0.8,0.2,1.3
				c-41.7,11.4-86.1,12.2-127.9,2.5c10.7-25.7,16.2-52.9,16.2-81c0-116.3-94.6-211-211-211c-1.2,0-2.4,0-3.6,0
				C442.4,190.4,551.3,95.7,681.2,95.7z M711,819.6v143.3h-57.9V819.6L546.5,702.4c15.7-10.7,29.9-23.6,42.2-38.2l93.4,101.1
				l92.3-102.6c11.3,15.6,25.7,28.7,42.1,38.6L711,819.6z"/>
			<path id="Registered" class="st2" d="M794.3,944.1c0,11-8.7,19.6-20,19.6c-11.2,0-20.1-8.6-20.1-19.6c0-10.8,8.9-19.4,20.1-19.4
				C785.6,924.7,794.3,933.4,794.3,944.1z M759.2,944.1c0,8.6,6.4,15.5,15.2,15.5c8.6,0,14.9-6.9,14.9-15.4c0-8.6-6.3-15.6-15-15.6
				C765.6,928.6,759.2,935.6,759.2,944.1z M771.2,954.3h-4.5v-19.4c1.8-0.4,4.3-0.6,7.5-0.6c3.7,0,5.4,0.6,6.8,1.4
				c1.1,0.8,1.9,2.4,1.9,4.3c0,2.1-1.7,3.8-4,4.5v0.2c1.9,0.7,3,2.1,3.6,4.7c0.6,3,1,4.1,1.4,4.8h-4.9c-0.6-0.7-1-2.5-1.5-4.7
				c-0.4-2.1-1.5-3.1-4-3.1h-2.1V954.3z M771.3,943.3h2.1c2.5,0,4.5-0.8,4.5-2.8c0-1.8-1.3-3-4.2-3c-1.2,0-2,0.1-2.5,0.2V943.3z"/>
		</g>
		<g id="Text">
			<path id="Registered_00000078756115350703753320000009481725298961606018_" class="st2" d="M1207,1062.4c0,11-8.7,19.6-20,19.6
				c-11.2,0-20.1-8.6-20.1-19.6c0-10.8,8.9-19.4,20.1-19.4C1198.3,1043,1207,1051.7,1207,1062.4z M1171.9,1062.4
				c0,8.6,6.4,15.5,15.2,15.5c8.6,0,14.9-6.9,14.9-15.4c0-8.6-6.3-15.6-15-15.6C1178.3,1046.9,1171.9,1053.9,1171.9,1062.4z
				 M1183.9,1072.6h-4.5v-19.4c1.8-0.4,4.3-0.6,7.5-0.6c3.7,0,5.4,0.6,6.8,1.4c1.1,0.8,1.9,2.4,1.9,4.3c0,2.1-1.7,3.8-4,4.5v0.2
				c1.9,0.7,3,2.1,3.6,4.7c0.6,3,1,4.1,1.4,4.8h-4.9c-0.6-0.7-1-2.5-1.5-4.7c-0.4-2.1-1.5-3.1-4-3.1h-2.1V1072.6z M1184,1061.6h2.1
				c2.5,0,4.5-0.8,4.5-2.8c0-1.8-1.3-3-4.2-3c-1.2,0-2,0.1-2.5,0.2V1061.6z"/>
			<path id="S" class="st2" d="M1133.6,1084.5c-1.1-1.2-2.6-2.4-4.6-3.8c-2-1.3-4.4-2.6-7.1-3.8c-2.7-1.2-5.7-2.1-8.9-2.9
				c-3.2-0.7-6.6-1.1-10-1.1c-7.6,0-13.1,1.4-16.7,4.1c-3.6,2.8-5.3,6.6-5.3,11.5c0,2.8,0.6,5,1.7,6.8c1.1,1.8,2.8,3.3,5.2,4.6
				c2.3,1.3,5.3,2.5,8.8,3.5c3.5,1,7.6,2.1,12.3,3.3c5.7,1.4,10.9,2.9,15.6,4.6c4.6,1.7,8.5,3.8,11.7,6.2c3.2,2.4,5.7,5.5,7.4,9
				c1.8,3.6,2.6,7.9,2.6,13c0,5.7-1.1,10.7-3.3,14.8c-2.2,4.1-5.2,7.5-8.9,10.1c-3.8,2.6-8.2,4.5-13.2,5.7c-5,1.2-10.4,1.8-16.1,1.8
				c-8.6,0-16.9-1.3-25-3.9c-8-2.6-15.3-6.4-21.8-11.4l8.1-15.3c1.4,1.4,3.4,2.9,6,4.6c2.6,1.7,5.6,3.3,9.1,4.7
				c3.5,1.4,7.2,2.7,11.3,3.7c4,1,8.2,1.5,12.6,1.5c7,0,12.4-1.2,16.3-3.7c3.8-2.4,5.7-6.1,5.7-10.9c0-2.9-0.7-5.3-2.2-7.2
				c-1.4-1.9-3.5-3.6-6.1-5c-2.7-1.4-5.9-2.7-9.7-3.9c-3.8-1.2-8.2-2.4-13.1-3.7c-5.6-1.5-10.6-3.1-14.8-4.7
				c-4.2-1.6-7.7-3.6-10.5-6c-2.8-2.3-4.9-5.1-6.3-8.2c-1.4-3.1-2.2-6.9-2.2-11.4c0-5.5,1.1-10.5,3.2-14.8c2.1-4.3,5-7.9,8.7-10.9
				c3.7-2.9,8-5.1,13-6.6c5-1.5,10.4-2.2,16.3-2.2c7.7,0,14.7,1.2,21.2,3.7c6.5,2.4,12.2,5.5,17.1,9.1L1133.6,1084.5z"/>
			<path id="W" class="st2" d="M925.9,1058.3h16.9l13.9,38.5l14-38.5h16.8l-19.3,50.4l16.9,41.7l35.3-92.6h19.6l-46.8,113.3h-15.3
				l-21.1-50.8l-21.2,50.8h-15.3l-46.8-113.3H893l35.4,92.6l16.9-41.7L925.9,1058.3z"/>
			<path id="O" class="st2" d="M800.9,1171.9c-8.1,0-15.5-1.6-22.1-4.9c-6.7-3.2-12.4-7.6-17.2-12.9c-4.8-5.4-8.5-11.5-11.1-18.4
				c-2.6-6.9-3.9-14-3.9-21.2c0-7.6,1.4-14.8,4.1-21.7c2.8-6.9,6.6-13,11.4-18.4c4.8-5.3,10.6-9.5,17.2-12.7
				c6.6-3.1,13.9-4.7,21.8-4.7c8.1,0,15.5,1.7,22.1,5c6.6,3.4,12.3,7.7,17.1,13.2c4.7,5.4,8.4,11.6,11,18.4c2.6,6.9,3.9,13.9,3.9,21
				c0,7.6-1.4,14.8-4.1,21.7c-2.7,6.9-6.5,13-11.4,18.3c-4.9,5.3-10.7,9.5-17.3,12.6C815.9,1170.4,808.7,1171.9,800.9,1171.9z
				 M764.8,1114.5c0,5.3,0.9,10.5,2.6,15.5c1.7,5,4.1,9.4,7.3,13.2c3.1,3.8,6.9,6.9,11.4,9.2c4.5,2.3,9.5,3.4,15,3.4
				c5.7,0,10.8-1.2,15.2-3.6c4.4-2.4,8.2-5.6,11.3-9.5c3.1-3.9,5.4-8.4,7-13.2c1.6-4.9,2.4-9.9,2.4-15c0-5.4-0.9-10.6-2.6-15.6
				c-1.7-4.9-4.1-9.3-7.3-13.1c-3.1-3.8-6.9-6.8-11.3-9.1c-4.4-2.3-9.3-3.4-14.8-3.4c-5.7,0-10.9,1.2-15.3,3.6
				c-4.5,2.4-8.2,5.5-11.3,9.3c-3.1,3.8-5.5,8.2-7.1,13.2C765.6,1104.4,764.8,1109.4,764.8,1114.5z"/>
			<path id="D" class="st2" d="M623.6,1171.1v-113.3h40.2c9.1,0,17.2,1.5,24,4.5c6.9,3,12.6,7,17.2,12.1c4.6,5.1,8.1,11.1,10.5,18
				c2.3,6.9,3.5,14.2,3.5,21.9c0,8.6-1.3,16.4-3.9,23.4c-2.6,7-6.3,12.9-11.1,17.9c-4.8,4.9-10.6,8.8-17.4,11.5
				c-6.8,2.7-14.4,4.1-22.8,4.1H623.6z M700.8,1114.3c0-6-0.8-11.4-2.5-16.4c-1.7-5-4.1-9.3-7.3-12.8c-3.2-3.6-7.1-6.4-11.7-8.4
				c-4.6-2-9.8-3-15.6-3h-22.3v81.7h22.3c6,0,11.3-1,15.9-3.1c4.6-2.1,8.5-4.9,11.7-8.6c3.1-3.7,5.5-8,7.1-13
				C700,1125.6,700.8,1120.2,700.8,1114.3z"/>
			<path id="A" class="st2" d="M533.3,1057.8h15.6l44.7,113.3h-18.8l-12-30.8H519l-11.8,30.8h-19L533.3,1057.8z M559.3,1127.1
				l-18.2-48.7l-18.8,48.7H559.3z"/>
			<path id="E" class="st2" d="M465.4,1155.3v15.8h-77.7v-113.3H464v15.8h-58.4v32.2h50.6v14.8h-50.6v34.6H465.4z"/>
			<path id="M" class="st2" d="M328.2,1171.1v-81.6l-33.7,61.8h-9.9l-33.8-61.8v81.6h-17.9v-113.3H252l37.5,69.3l37.5-69.3h19.2
				v113.3H328.2z"/>
			<path id="Y" class="st2" d="M70.4,1057.8l31.3,56.8l31.6-56.8h19.6l-42.3,72.8v40.5H92.8v-40.9l-42-72.5H70.4z"/>
		</g>
	</g>
</g>
<g id="Color_-_Light_Text_00000073686165844167714150000007113387607877714311_" class="st0">
	<g id="Logo_00000012452741938982670870000015346346058858327940_" class="st9">
		<g id="Icon_00000138532401597295824320000008693000750450438589_">
			<path id="Trunk_00000079463891170561154170000015894636896604011963_" class="st2" d="M774.5,662.7l-92.3,102.6l-93.4-101.1
				c-12.3,14.6-26.6,27.5-42.2,38.2l106.7,117.2v143.3H711V819.6l105.5-118.3C800.1,691.4,785.8,678.3,774.5,662.7z"/>
			<path id="Right_00000171692326723623037270000010035022720104073662_" class="st3" d="M803.5,668.7l5.8,5.3
				c22.2,18.9,50.7,30.1,81.4,30.1c69.2,0,125.5-56.2,125.7-125.4c0-2.6-0.1-5.2-0.3-7.8c0-0.5,0-1.1-0.1-1.6
				c-3.6-47.3-33.6-88.6-77.7-106.6c-0.2,0.6-0.5,1.1-0.7,1.7c-0.5,1.1-1,2.3-1.5,3.4c-1,2.3-2,4.6-3.1,6.8
				c-0.6,1.2-1.1,2.4-1.7,3.6c-1.1,2.3-2.3,4.6-3.5,6.8c-0.5,1-1.1,2.1-1.6,3.1c-1.7,3.2-3.5,6.4-5.4,9.6
				c-33.7,56.9-86.5,100.1-148.9,121.6c0,0-0.1,0-0.1,0C778.4,638.3,789.4,655.1,803.5,668.7z"/>
			<path id="Overlap_Right_00000159453844320546045780000002472708777221833394_" class="st4" d="M911,454.8
				c-1.1-0.2-2.1-0.3-3.2-0.5c-1.9-0.3-3.9-0.5-5.8-0.6c-0.9-0.1-1.8-0.2-2.7-0.3c-2.9-0.2-5.7-0.3-8.6-0.3
				c-69.3,0-125.6,56.3-125.7,125.6c0,3.7,0.2,7.5,0.6,11.6c0.4,3.8,1,7.7,1.7,11.5c1.5-0.5,3-1.1,4.5-1.7c1.9-0.7,3.8-1.4,5.7-2.1
				c1.7-0.7,3.3-1.4,5-2.1c1.9-0.8,3.7-1.5,5.6-2.4c1.7-0.8,3.3-1.6,5-2.4c1.8-0.9,3.6-1.7,5.4-2.6c1.6-0.8,3.2-1.7,4.9-2.6
				c1.7-0.9,3.5-1.8,5.2-2.8c1.6-0.9,3.2-1.9,4.7-2.8c1.7-1,3.4-2,5.1-3c1.6-1,3.1-2,4.7-3c1.6-1.1,3.3-2.1,4.8-3.2
				c1.6-1.1,3.1-2.2,4.6-3.3c1.5-1.1,3.1-2.2,4.6-3.3c1.6-1.2,3.1-2.4,4.6-3.6c1.5-1.1,2.9-2.3,4.4-3.4c1.5-1.3,3-2.6,4.5-3.8
				c1.4-1.2,2.8-2.3,4.1-3.6c1.5-1.3,3-2.7,4.4-4.1c1.3-1.2,2.6-2.4,3.9-3.7c1.5-1.5,2.9-3,4.4-4.5c1.2-1.2,2.4-2.4,3.6-3.7
				c1.5-1.6,2.9-3.2,4.3-4.8c1.1-1.2,2.3-2.5,3.3-3.7c1.5-1.7,2.8-3.4,4.3-5.2c1-1.2,2-2.4,3-3.7c1.5-1.9,2.9-3.8,4.3-5.8
				c0.8-1.1,1.7-2.3,2.6-3.4c1.5-2.1,2.9-4.2,4.4-6.4c0.7-1,1.4-2.1,2.1-3.1c2.1-3.2,4.1-6.5,6.1-9.8c1.7-2.9,3.4-5.9,5-8.8
				c0.5-0.9,1-1.9,1.5-2.8c1.1-2.1,2.2-4.3,3.3-6.4c0.5-1,1-2.1,1.5-3.1c1.1-2.3,2.1-4.6,3.2-7c0.4-0.8,0.7-1.6,1.1-2.5
				c0.1-0.3,0.2-0.6,0.3-0.8c-0.5-0.1-1.1-0.3-1.6-0.4c-1-0.2-2.1-0.5-3.1-0.7C914.6,455.4,912.8,455.1,911,454.8z"/>
			<path id="Center_00000107570177824672882920000018380800080690204805_" class="st5" d="M681.2,95.7
				c-129.9,0-238.8,94.7-257.5,222c1.2,0,2.4,0,3.6,0c116.3,0,211,94.6,211,211c0,28.1-5.5,55.3-16.2,81c41.7,9.7,86.1,9,127.9-2.5
				c-0.1-0.4-0.1-0.8-0.2-1.3c-0.3-1.6-0.6-3.1-0.8-4.7c-0.1-0.7-0.2-1.4-0.3-2.2c-0.3-2.2-0.6-4.5-0.8-6.7
				c-0.4-4.6-0.7-9.2-0.7-13.5c0-0.1,0-0.1,0-0.2c0-0.1,0-0.2,0-0.3c0-79.2,64.4-143.6,143.6-143.6c12.6,0,25,1.7,37.1,5
				c9.1-26.9,13.8-55,13.8-83.6C941.5,212.5,824.7,95.7,681.2,95.7z"/>
			<path id="Overlap_Left_00000178924041528093215940000000687191050372587955_" class="st6" d="M421.7,335.9
				c-0.1,1.4-0.3,2.8-0.3,4.2c-0.1,1.2-0.2,2.4-0.2,3.6c-0.2,4.1-0.3,8.3-0.3,12.3c0,3.6,0.1,7.2,0.2,10.8c0,1.2,0.2,2.4,0.2,3.6
				c0.1,2.4,0.3,4.8,0.4,7.1c0.1,1.4,0.3,2.8,0.4,4.2c0.2,2.1,0.4,4.2,0.7,6.3c0.2,1.5,0.4,3,0.6,4.5c0.3,2,0.6,4,0.9,6
				c0.3,1.5,0.6,3,0.8,4.5c0.4,1.9,0.7,3.9,1.1,5.8c0.3,1.5,0.7,3.1,1,4.6c0.4,1.9,0.8,3.8,1.3,5.6c0.4,1.5,0.8,3.1,1.2,4.6
				c0.5,1.8,1,3.7,1.5,5.5c0.5,1.5,1,3,1.4,4.6c0.6,1.8,1.1,3.6,1.7,5.4c0.5,1.5,1.1,3,1.6,4.5c0.6,1.8,1.3,3.5,1.9,5.3
				c0.6,1.5,1.2,3,1.8,4.5c0.7,1.7,1.4,3.5,2.1,5.2c0.6,1.5,1.3,2.9,2,4.4c0.8,1.7,1.5,3.4,2.3,5.1c0.7,1.4,1.4,2.9,2.1,4.3
				c0.8,1.7,1.7,3.3,2.5,4.9c0.7,1.4,1.5,2.8,2.3,4.2c0.9,1.6,1.8,3.2,2.7,4.8c0.8,1.4,1.6,2.7,2.5,4.1c1,1.6,1.9,3.2,2.9,4.7
				c0.9,1.3,1.7,2.7,2.6,4c1,1.5,2,3.1,3.1,4.6c0.9,1.3,1.8,2.6,2.8,3.9c1.1,1.5,2.1,3,3.3,4.5c1,1.3,1.9,2.5,2.9,3.8
				c1.1,1.5,2.3,2.9,3.4,4.3c1,1.2,2,2.5,3.1,3.7c1.2,1.4,2.4,2.8,3.6,4.2c1.1,1.2,2.1,2.4,3.2,3.6c1.2,1.4,2.5,2.7,3.8,4
				c1.1,1.2,2.2,2.3,3.3,3.4c1.3,1.3,2.6,2.6,3.9,3.9c1.1,1.1,2.3,2.2,3.5,3.3c1.4,1.3,2.7,2.5,4.1,3.8c1.2,1.1,2.4,2.1,3.6,3.2
				c1.4,1.2,2.8,2.4,4.2,3.6c1.2,1,2.5,2,3.7,3c1.5,1.2,2.9,2.3,4.4,3.4c1.3,1,2.6,1.9,3.9,2.9c1.5,1.1,3,2.2,4.5,3.3
				c1.3,0.9,2.6,1.8,4,2.7c1.6,1,3.1,2.1,4.7,3.1c1.4,0.9,2.7,1.7,4.1,2.6c1.6,1,3.2,1.9,4.8,2.9c1.4,0.8,2.8,1.6,4.2,2.4
				c1.6,0.9,3.3,1.8,5,2.7c1.4,0.8,2.8,1.5,4.3,2.2c1.7,0.9,3.4,1.7,5.1,2.5c1.5,0.7,2.9,1.4,4.4,2.1c1.7,0.8,3.5,1.6,5.2,2.3
				c1.5,0.6,3,1.3,4.5,1.9c1.8,0.7,3.6,1.4,5.4,2.1c1.5,0.6,3,1.2,4.6,1.7c1.8,0.7,3.7,1.3,5.5,1.9c1.5,0.5,3.1,1,4.6,1.5
				c0.5,0.2,1.1,0.3,1.6,0.5c0.3-0.8,0.7-1.6,1-2.4c0.6-1.4,1.1-2.8,1.7-4.2c0.7-1.7,1.3-3.5,1.9-5.3c0.5-1.4,1-2.8,1.5-4.3
				c0.6-1.8,1.1-3.6,1.7-5.4c0.4-1.4,0.8-2.9,1.2-4.3c0.5-1.8,0.9-3.7,1.4-5.5c0.3-1.4,0.7-2.8,1-4.3c0.4-1.9,0.7-3.8,1.1-5.7
				c0.3-1.4,0.5-2.8,0.7-4.2c0.3-2,0.6-4,0.8-6c0.2-1.3,0.4-2.6,0.5-4c0.2-2.2,0.4-4.5,0.5-6.8c0.1-1.1,0.2-2.2,0.3-3.3
				c0.2-3.4,0.3-6.8,0.3-10.2c0-106.4-86.6-193-193-193c-1.5,0-3,0-4.6,0.1C421.9,335.9,421.8,335.9,421.7,335.9z"/>
			<path id="Left_00000119838579999921085850000012813590322378149275_" class="st7" d="M403.4,340c0.1-0.9,0.1-1.8,0.1-2.7
				c-14.1,1.7-27.7,5-40.7,9.5c-1,0.4-2.1,0.7-3.1,1.1c-0.8,0.3-1.6,0.6-2.4,0.9c-72.2,28.3-123.1,98.8-123.1,179.8
				c0,106.4,86.6,193,193,193c22.7,0,44.8-4.1,65.5-11.6c0.9-0.3,1.8-0.7,2.7-1c3.2-1.2,6.3-2.5,9.4-3.9c1.9-0.8,3.7-1.7,5.6-2.6
				c1-0.5,2-1,3-1.5c11.3-5.7,22.1-12.6,32.1-20.4l20.3-18.3c11.8-12.2,22-26.1,30.3-41.3c-0.1,0-0.2-0.1-0.3-0.1
				c-1.5-0.5-2.9-1-4.3-1.5c-2.2-0.7-4.3-1.4-6.4-2.2c-1.6-0.6-3.1-1.2-4.6-1.8c-2-0.8-4-1.5-5.9-2.3c-1.6-0.7-3.1-1.4-4.7-2
				c-1.9-0.8-3.8-1.6-5.6-2.5c-1.6-0.7-3.1-1.5-4.7-2.3c-1.8-0.9-3.6-1.7-5.4-2.7c-1.6-0.8-3.1-1.6-4.6-2.5
				c-1.7-0.9-3.5-1.9-5.2-2.8c-1.5-0.9-3-1.8-4.6-2.7c-1.7-1-3.4-2-5-3c-1.5-0.9-3-1.9-4.5-2.9c-1.6-1-3.2-2.1-4.8-3.2
				c-1.5-1-2.9-2-4.4-3.1c-1.6-1.1-3.1-2.2-4.6-3.3c-1.4-1.1-2.9-2.2-4.3-3.2c-1.5-1.2-3-2.3-4.5-3.5c-1.4-1.1-2.8-2.3-4.1-3.4
				c-1.5-1.2-2.9-2.4-4.3-3.7c-1.4-1.2-2.7-2.4-4-3.6c-1.4-1.3-2.8-2.5-4.2-3.8c-1.3-1.2-2.6-2.5-3.9-3.7c-1.3-1.3-2.7-2.6-4-4
				c-1.3-1.3-2.5-2.6-3.7-3.9c-1.3-1.4-2.6-2.7-3.8-4.1c-1.2-1.3-2.4-2.7-3.6-4c-1.2-1.4-2.5-2.8-3.7-4.3c-1.1-1.4-2.3-2.7-3.4-4.1
				c-1.2-1.5-2.3-2.9-3.5-4.4c-1.1-1.4-2.2-2.8-3.2-4.3c-1.1-1.5-2.2-3-3.3-4.6c-1-1.4-2.1-2.9-3.1-4.4c-1.1-1.6-2.1-3.1-3.1-4.7
				c-1-1.5-1.9-3-2.9-4.5c-1-1.6-2-3.2-3-4.8c-0.9-1.5-1.8-3-2.7-4.6c-0.9-1.6-1.9-3.3-2.8-4.9c-0.9-1.6-1.7-3.1-2.5-4.7
				c-0.9-1.7-1.7-3.4-2.6-5.1c-0.8-1.6-1.6-3.2-2.3-4.8c-0.8-1.7-1.6-3.5-2.4-5.2c-0.7-1.6-1.5-3.2-2.2-4.8
				c-0.8-1.8-1.5-3.5-2.2-5.3c-0.7-1.6-1.3-3.3-2-4.9c-0.7-1.8-1.3-3.6-2-5.5c-0.6-1.6-1.2-3.3-1.7-4.9c-0.6-1.9-1.2-3.7-1.8-5.6
				c-0.5-1.7-1.1-3.3-1.5-5c-0.6-1.9-1.1-3.8-1.6-5.8c-0.4-1.7-0.9-3.3-1.3-5c-0.5-2-0.9-3.9-1.4-5.9c-0.4-1.7-0.8-3.3-1.1-5
				c-0.4-2-0.8-4.1-1.2-6.1c-0.3-1.6-0.6-3.3-0.9-4.9c-0.3-2.1-0.6-4.2-0.9-6.3c-0.2-1.6-0.5-3.2-0.7-4.8c-0.3-2.2-0.5-4.5-0.7-6.7
				c-0.2-1.5-0.3-3-0.5-4.5c-0.2-2.5-0.3-5.1-0.5-7.6c-0.1-1.3-0.2-2.5-0.2-3.8c-0.2-3.8-0.2-7.6-0.2-11.5c0-4.3,0.1-8.7,0.4-13.1
				C403.3,342,403.3,341,403.4,340z"/>
			<path id="Outline_00000080202754889485026810000010061595046393036675_" class="st8" d="M1034.3,578.3c0-2.7-0.2-5.4-0.3-8
				c0-0.9,0-1.7-0.1-2.6c-4-54.4-38.5-101.8-89.2-122.3c9.8-28.8,14.8-58.8,14.8-89.4c0-153.5-124.8-278.3-278.3-278.3
				c-140,0-257.2,103-275.7,241.1c-19.9,2.1-39,6.9-56.8,14.1c-0.4,0.2-0.8,0.3-1.2,0.5c-2.2,0.9-4.4,1.9-6.6,2.9
				c-1.2,0.6-2.5,1.1-3.7,1.7c-1.3,0.6-2.6,1.3-4,1.9c-2.1,1-4.2,2.1-6.2,3.2c-0.4,0.2-0.9,0.5-1.3,0.7
				c-65.6,36.1-110,105.9-110,184.9c0,116.3,94.6,211,211,211c15.3,0,30.4-1.8,45.1-5c1.1-0.2,2.2-0.5,3.4-0.8
				c3-0.7,5.9-1.4,8.8-2.3c3.2-0.9,6.5-1.9,9.7-2.9c0.5-0.2,1-0.4,1.5-0.5c12.5-4.3,24.6-9.8,36.1-16.3l104,114.6v154.4H729V826.5
				l103.8-116.3c17.8,7.9,37.5,12.2,57.9,12.2c79.2,0,143.6-64.4,143.6-143.6c0-0.1,0-0.1,0-0.2
				C1034.3,578.5,1034.3,578.4,1034.3,578.3z M510.5,702.5c-1.9,0.9-3.7,1.8-5.6,2.6c-3.1,1.4-6.2,2.7-9.4,3.9
				c-0.9,0.3-1.8,0.7-2.7,1c-20.7,7.5-42.9,11.6-65.5,11.6c-106.4,0-193-86.6-193-193c0-81,50.9-151.5,123.1-179.8
				c0.8-0.3,1.6-0.6,2.4-0.9c1-0.4,2.1-0.7,3.1-1.1c13-4.6,26.6-7.8,40.7-9.5c-0.1,0.9-0.1,1.8-0.1,2.7c-0.1,1-0.1,2-0.2,3
				c-0.2,4.4-0.4,8.8-0.4,13.1c0,3.8,0.1,7.7,0.2,11.5c0.1,1.3,0.2,2.5,0.2,3.8c0.1,2.5,0.3,5.1,0.5,7.6c0.1,1.5,0.3,3,0.5,4.5
				c0.2,2.2,0.4,4.5,0.7,6.7c0.2,1.6,0.5,3.2,0.7,4.8c0.3,2.1,0.6,4.2,0.9,6.3c0.3,1.7,0.6,3.3,0.9,4.9c0.4,2,0.7,4.1,1.2,6.1
				c0.3,1.7,0.7,3.3,1.1,5c0.4,2,0.9,3.9,1.4,5.9c0.4,1.7,0.9,3.3,1.3,5c0.5,1.9,1,3.8,1.6,5.8c0.5,1.7,1,3.3,1.5,5
				c0.6,1.9,1.2,3.8,1.8,5.6c0.6,1.7,1.2,3.3,1.7,4.9c0.7,1.8,1.3,3.7,2,5.5c0.6,1.6,1.3,3.3,2,4.9c0.7,1.8,1.4,3.6,2.2,5.3
				c0.7,1.6,1.4,3.2,2.2,4.8c0.8,1.7,1.6,3.5,2.4,5.2c0.8,1.6,1.6,3.2,2.3,4.8c0.8,1.7,1.7,3.4,2.6,5.1c0.8,1.6,1.7,3.1,2.5,4.7
				c0.9,1.7,1.8,3.3,2.8,4.9c0.9,1.5,1.8,3.1,2.7,4.6c1,1.6,2,3.2,3,4.8c0.9,1.5,1.9,3,2.9,4.5c1,1.6,2.1,3.1,3.1,4.7
				c1,1.5,2,2.9,3.1,4.4c1.1,1.5,2.2,3,3.3,4.6c1.1,1.4,2.1,2.8,3.2,4.3c1.2,1.5,2.3,3,3.5,4.4c1.1,1.4,2.3,2.8,3.4,4.1
				c1.2,1.4,2.4,2.9,3.7,4.3c1.2,1.3,2.4,2.7,3.6,4c1.3,1.4,2.5,2.8,3.8,4.1c1.2,1.3,2.5,2.6,3.7,3.9c1.3,1.3,2.7,2.7,4,4
				c1.3,1.2,2.6,2.5,3.9,3.7c1.4,1.3,2.8,2.6,4.2,3.8c1.3,1.2,2.7,2.4,4,3.6c1.4,1.2,2.9,2.5,4.3,3.7c1.4,1.1,2.7,2.3,4.1,3.4
				c1.5,1.2,3,2.3,4.5,3.5c1.4,1.1,2.8,2.2,4.3,3.2c1.5,1.1,3.1,2.2,4.6,3.3c1.5,1,2.9,2.1,4.4,3.1c1.6,1.1,3.2,2.1,4.8,3.2
				c1.5,1,3,1.9,4.5,2.9c1.7,1,3.3,2,5,3c1.5,0.9,3,1.8,4.6,2.7c1.7,1,3.5,1.9,5.2,2.8c1.5,0.8,3.1,1.7,4.6,2.5
				c1.8,0.9,3.6,1.8,5.4,2.7c1.6,0.8,3.1,1.5,4.7,2.3c1.9,0.9,3.8,1.7,5.6,2.5c1.6,0.7,3.1,1.4,4.7,2c2,0.8,4,1.6,5.9,2.3
				c1.5,0.6,3.1,1.2,4.6,1.8c2.1,0.8,4.3,1.5,6.4,2.2c1.4,0.5,2.9,1,4.3,1.5c0.1,0,0.2,0.1,0.3,0.1c-8.3,15.2-18.5,29-30.3,41.3
				l-20.3,18.3c-10,7.8-20.8,14.7-32.1,20.4C512.5,701.5,511.5,702,510.5,702.5z M421.2,343.7c0.1-1.2,0.1-2.4,0.2-3.6
				c0.1-1.4,0.2-2.8,0.3-4.2c0.1,0,0.2,0,0.3,0c1.6-0.1,3.2-0.1,4.6-0.1c106.4,0,193,86.6,193,193c0,3.4-0.1,6.8-0.3,10.2
				c-0.1,1.1-0.2,2.2-0.3,3.3c-0.2,2.3-0.3,4.5-0.5,6.8c-0.1,1.3-0.3,2.6-0.5,4c-0.3,2-0.5,4-0.8,6c-0.2,1.4-0.5,2.8-0.7,4.2
				c-0.3,1.9-0.7,3.8-1.1,5.7c-0.3,1.4-0.7,2.8-1,4.3c-0.4,1.8-0.9,3.7-1.4,5.5c-0.4,1.4-0.8,2.9-1.2,4.3c-0.5,1.8-1.1,3.6-1.7,5.4
				c-0.5,1.4-1,2.9-1.5,4.3c-0.6,1.8-1.3,3.5-1.9,5.3c-0.5,1.4-1.1,2.8-1.7,4.2c-0.3,0.8-0.7,1.6-1,2.4c-0.5-0.2-1.1-0.3-1.6-0.5
				c-1.6-0.5-3.1-1-4.6-1.5c-1.8-0.6-3.7-1.2-5.5-1.9c-1.5-0.6-3-1.1-4.6-1.7c-1.8-0.7-3.6-1.4-5.4-2.1c-1.5-0.6-3-1.3-4.5-1.9
				c-1.8-0.8-3.5-1.5-5.2-2.3c-1.5-0.7-2.9-1.4-4.4-2.1c-1.7-0.8-3.4-1.7-5.1-2.5c-1.4-0.7-2.9-1.5-4.3-2.2c-1.7-0.9-3.3-1.8-5-2.7
				c-1.4-0.8-2.8-1.6-4.2-2.4c-1.6-1-3.2-1.9-4.8-2.9c-1.4-0.8-2.7-1.7-4.1-2.6c-1.6-1-3.1-2-4.7-3.1c-1.3-0.9-2.6-1.8-4-2.7
				c-1.5-1.1-3-2.2-4.5-3.3c-1.3-0.9-2.6-1.9-3.9-2.9c-1.5-1.1-2.9-2.3-4.4-3.4c-1.3-1-2.5-2-3.7-3c-1.4-1.2-2.8-2.4-4.2-3.6
				c-1.2-1-2.4-2.1-3.6-3.2c-1.4-1.2-2.7-2.5-4.1-3.8c-1.2-1.1-2.3-2.2-3.5-3.3c-1.3-1.3-2.6-2.6-3.9-3.9c-1.1-1.1-2.2-2.3-3.3-3.4
				c-1.3-1.3-2.5-2.7-3.8-4c-1.1-1.2-2.2-2.4-3.2-3.6c-1.2-1.4-2.4-2.8-3.6-4.2c-1-1.2-2.1-2.4-3.1-3.7c-1.2-1.4-2.3-2.9-3.4-4.3
				c-1-1.3-2-2.5-2.9-3.8c-1.1-1.5-2.2-3-3.3-4.5c-0.9-1.3-1.9-2.6-2.8-3.9c-1-1.5-2.1-3.1-3.1-4.6c-0.9-1.3-1.8-2.7-2.6-4
				c-1-1.6-1.9-3.1-2.9-4.7c-0.8-1.4-1.7-2.7-2.5-4.1c-0.9-1.6-1.8-3.2-2.7-4.8c-0.8-1.4-1.6-2.8-2.3-4.2c-0.9-1.6-1.7-3.3-2.5-4.9
				c-0.7-1.4-1.4-2.8-2.1-4.3c-0.8-1.7-1.6-3.4-2.3-5.1c-0.7-1.5-1.3-2.9-2-4.4c-0.7-1.7-1.4-3.4-2.1-5.2c-0.6-1.5-1.2-3-1.8-4.5
				c-0.7-1.7-1.3-3.5-1.9-5.3c-0.5-1.5-1.1-3-1.6-4.5c-0.6-1.8-1.2-3.6-1.7-5.4c-0.5-1.5-1-3-1.4-4.6c-0.5-1.8-1-3.7-1.5-5.5
				c-0.4-1.5-0.9-3.1-1.2-4.6c-0.5-1.9-0.9-3.7-1.3-5.6c-0.4-1.5-0.7-3.1-1-4.6c-0.4-1.9-0.7-3.9-1.1-5.8c-0.3-1.5-0.6-3-0.8-4.5
				c-0.3-2-0.6-4-0.9-6c-0.2-1.5-0.5-3-0.6-4.5c-0.3-2.1-0.5-4.2-0.7-6.3c-0.1-1.4-0.3-2.8-0.4-4.2c-0.2-2.4-0.3-4.7-0.4-7.1
				c-0.1-1.2-0.2-2.4-0.2-3.6c-0.1-3.6-0.2-7.2-0.2-10.8C420.9,352,421,347.9,421.2,343.7z M614.3,626.2c21.8,5.4,44.3,8.1,66.9,8.1
				c24.7,0,49.2-3.3,73-9.8l0,0.2l0.3-0.1c2.6,7.6,5.7,14.9,9.4,21.8l-82,92l-81.5-89.7C605.5,641.6,610.2,634.1,614.3,626.2z
				 M767.2,601.7c-0.7-3.9-1.3-7.7-1.7-11.5c-0.4-4-0.6-7.8-0.6-11.6c0.1-69.2,56.4-125.6,125.7-125.6c2.9,0,5.7,0.1,8.6,0.3
				c0.9,0.1,1.8,0.2,2.7,0.3c1.9,0.2,3.9,0.4,5.8,0.6c1.1,0.1,2.1,0.3,3.2,0.5c1.8,0.3,3.6,0.6,5.4,1c1,0.2,2.1,0.4,3.1,0.7
				c0.5,0.1,1.1,0.3,1.6,0.4c-0.1,0.3-0.2,0.6-0.3,0.8c-0.3,0.8-0.7,1.6-1.1,2.5c-1,2.3-2.1,4.7-3.2,7c-0.5,1-1,2.1-1.5,3.1
				c-1.1,2.2-2.1,4.3-3.3,6.4c-0.5,0.9-1,1.9-1.5,2.8c-1.6,3-3.3,5.9-5,8.8c-2,3.3-4,6.6-6.1,9.8c-0.7,1.1-1.4,2.1-2.1,3.1
				c-1.4,2.1-2.9,4.3-4.4,6.4c-0.8,1.2-1.7,2.3-2.6,3.4c-1.4,1.9-2.8,3.9-4.3,5.8c-1,1.2-2,2.4-3,3.7c-1.4,1.7-2.8,3.5-4.3,5.2
				c-1.1,1.3-2.2,2.5-3.3,3.7c-1.4,1.6-2.8,3.2-4.3,4.8c-1.2,1.3-2.4,2.4-3.6,3.7c-1.5,1.5-2.9,3-4.4,4.5c-1.3,1.2-2.6,2.4-3.9,3.7
				c-1.5,1.4-2.9,2.8-4.4,4.1c-1.4,1.2-2.8,2.4-4.1,3.6c-1.5,1.3-3,2.6-4.5,3.8c-1.4,1.2-2.9,2.3-4.4,3.4c-1.5,1.2-3,2.4-4.6,3.6
				c-1.5,1.1-3.1,2.2-4.6,3.3c-1.5,1.1-3.1,2.2-4.6,3.3c-1.6,1.1-3.2,2.1-4.8,3.2c-1.6,1-3.1,2.1-4.7,3c-1.7,1-3.4,2-5.1,3
				c-1.6,0.9-3.1,1.9-4.7,2.8c-1.7,1-3.5,1.9-5.2,2.8c-1.6,0.9-3.2,1.7-4.9,2.6c-1.8,0.9-3.6,1.7-5.4,2.6c-1.7,0.8-3.3,1.6-5,2.4
				c-1.8,0.8-3.7,1.6-5.6,2.4c-1.7,0.7-3.3,1.4-5,2.1c-1.9,0.8-3.8,1.4-5.7,2.1C770.2,600.6,768.7,601.2,767.2,601.7z M890.7,704
				c-30.6,0-59.2-11.2-81.4-30.1l-5.8-5.3c-14-13.5-25-30.4-31.6-49.5c0,0,0.1,0,0.1,0c62.3-21.5,115.2-64.7,148.9-121.6
				c1.9-3.1,3.6-6.3,5.4-9.6c0.6-1,1.1-2.1,1.6-3.1c1.2-2.3,2.3-4.5,3.5-6.8c0.6-1.2,1.1-2.4,1.7-3.6c1.1-2.3,2.1-4.5,3.1-6.8
				c0.5-1.1,1-2.3,1.5-3.4c0.2-0.6,0.5-1.1,0.7-1.7c44.1,18,74.1,59.3,77.7,106.6c0,0.5,0,1.1,0.1,1.6c0.2,2.6,0.3,5.2,0.3,7.8
				C1016.2,647.8,959.9,704,890.7,704z M681.2,95.7c143.6,0,260.3,116.8,260.3,260.3c0,28.6-4.6,56.7-13.8,83.6
				c-12.1-3.2-24.5-5-37.1-5c-79.2,0-143.6,64.4-143.6,143.6c0,0.1,0,0.2,0,0.3c0,0.1,0,0.1,0,0.2c0,4.4,0.2,8.9,0.7,13.5
				c0.2,2.2,0.5,4.5,0.8,6.7c0.1,0.7,0.2,1.4,0.3,2.2c0.2,1.6,0.5,3.1,0.8,4.7c0.1,0.4,0.1,0.8,0.2,1.3
				c-41.7,11.4-86.1,12.2-127.9,2.5c10.7-25.7,16.2-52.9,16.2-81c0-116.3-94.6-211-211-211c-1.2,0-2.4,0-3.6,0
				C442.4,190.4,551.3,95.7,681.2,95.7z M711,819.6v143.3h-57.9V819.6L546.5,702.4c15.7-10.7,29.9-23.6,42.2-38.2l93.4,101.1
				l92.3-102.6c11.3,15.6,25.7,28.7,42.1,38.6L711,819.6z"/>
			<path id="Registered_00000027566998464725671890000008487233952430110906_" class="st8" d="M794.3,944.1c0,11-8.7,19.6-20,19.6
				c-11.2,0-20.1-8.6-20.1-19.6c0-10.8,8.9-19.4,20.1-19.4C785.6,924.7,794.3,933.4,794.3,944.1z M759.2,944.1
				c0,8.6,6.4,15.5,15.2,15.5c8.6,0,14.9-6.9,14.9-15.4c0-8.6-6.3-15.6-15-15.6C765.6,928.6,759.2,935.6,759.2,944.1z M771.2,954.3
				h-4.5v-19.4c1.8-0.4,4.3-0.6,7.5-0.6c3.7,0,5.4,0.6,6.8,1.4c1.1,0.8,1.9,2.4,1.9,4.3c0,2.1-1.7,3.8-4,4.5v0.2
				c1.9,0.7,3,2.1,3.6,4.7c0.6,3,1,4.1,1.4,4.8h-4.9c-0.6-0.7-1-2.5-1.5-4.7c-0.4-2.1-1.5-3.1-4-3.1h-2.1V954.3z M771.3,943.3h2.1
				c2.5,0,4.5-0.8,4.5-2.8c0-1.8-1.3-3-4.2-3c-1.2,0-2,0.1-2.5,0.2V943.3z"/>
		</g>
		<g id="Text_00000163762264357004782730000013138292219298464141_">
			<path id="Registered_00000019650928650253469850000004561203394880363426_" class="st8" d="M1207,1062.4c0,11-8.7,19.6-20,19.6
				c-11.2,0-20.1-8.6-20.1-19.6c0-10.8,8.9-19.4,20.1-19.4C1198.3,1043,1207,1051.7,1207,1062.4z M1171.9,1062.4
				c0,8.6,6.4,15.5,15.2,15.5c8.6,0,14.9-6.9,14.9-15.4c0-8.6-6.3-15.6-15-15.6C1178.3,1046.9,1171.9,1053.9,1171.9,1062.4z
				 M1183.9,1072.6h-4.5v-19.4c1.8-0.4,4.3-0.6,7.5-0.6c3.7,0,5.4,0.6,6.8,1.4c1.1,0.8,1.9,2.4,1.9,4.3c0,2.1-1.7,3.8-4,4.5v0.2
				c1.9,0.7,3,2.1,3.6,4.7c0.6,3,1,4.1,1.4,4.8h-4.9c-0.6-0.7-1-2.5-1.5-4.7c-0.4-2.1-1.5-3.1-4-3.1h-2.1V1072.6z M1184,1061.6h2.1
				c2.5,0,4.5-0.8,4.5-2.8c0-1.8-1.3-3-4.2-3c-1.2,0-2,0.1-2.5,0.2V1061.6z"/>
			<path id="S_00000044868444708858095620000006433003965809201073_" class="st8" d="M1133.6,1084.5c-1.1-1.2-2.6-2.4-4.6-3.8
				c-2-1.3-4.4-2.6-7.1-3.8c-2.7-1.2-5.7-2.1-8.9-2.9c-3.2-0.7-6.6-1.1-10-1.1c-7.6,0-13.1,1.4-16.7,4.1c-3.6,2.8-5.3,6.6-5.3,11.5
				c0,2.8,0.6,5,1.7,6.8c1.1,1.8,2.8,3.3,5.2,4.6c2.3,1.3,5.3,2.5,8.8,3.5c3.5,1,7.6,2.1,12.3,3.3c5.7,1.4,10.9,2.9,15.6,4.6
				c4.6,1.7,8.5,3.8,11.7,6.2c3.2,2.4,5.7,5.5,7.4,9c1.8,3.6,2.6,7.9,2.6,13c0,5.7-1.1,10.7-3.3,14.8c-2.2,4.1-5.2,7.5-8.9,10.1
				c-3.8,2.6-8.2,4.5-13.2,5.7c-5,1.2-10.4,1.8-16.1,1.8c-8.6,0-16.9-1.3-25-3.9c-8-2.6-15.3-6.4-21.8-11.4l8.1-15.3
				c1.4,1.4,3.4,2.9,6,4.6c2.6,1.7,5.6,3.3,9.1,4.7c3.5,1.4,7.2,2.7,11.3,3.7c4,1,8.2,1.5,12.6,1.5c7,0,12.4-1.2,16.3-3.7
				c3.8-2.4,5.7-6.1,5.7-10.9c0-2.9-0.7-5.3-2.2-7.2c-1.4-1.9-3.5-3.6-6.1-5c-2.7-1.4-5.9-2.7-9.7-3.9c-3.8-1.2-8.2-2.4-13.1-3.7
				c-5.6-1.5-10.6-3.1-14.8-4.7c-4.2-1.6-7.7-3.6-10.5-6c-2.8-2.3-4.9-5.1-6.3-8.2c-1.4-3.1-2.2-6.9-2.2-11.4
				c0-5.5,1.1-10.5,3.2-14.8c2.1-4.3,5-7.9,8.7-10.9c3.7-2.9,8-5.1,13-6.6c5-1.5,10.4-2.2,16.3-2.2c7.7,0,14.7,1.2,21.2,3.7
				c6.5,2.4,12.2,5.5,17.1,9.1L1133.6,1084.5z"/>
			<path id="W_00000033347451851541174760000009499053396209785473_" class="st8" d="M925.9,1058.3h16.9l13.9,38.5l14-38.5h16.8
				l-19.3,50.4l16.9,41.7l35.3-92.6h19.6l-46.8,113.3h-15.3l-21.1-50.8l-21.2,50.8h-15.3l-46.8-113.3H893l35.4,92.6l16.9-41.7
				L925.9,1058.3z"/>
			<path id="O_00000093878137799787494920000011898183743691834027_" class="st8" d="M800.9,1171.9c-8.1,0-15.5-1.6-22.1-4.9
				c-6.7-3.2-12.4-7.6-17.2-12.9c-4.8-5.4-8.5-11.5-11.1-18.4c-2.6-6.9-3.9-14-3.9-21.2c0-7.6,1.4-14.8,4.1-21.7
				c2.8-6.9,6.6-13,11.4-18.4c4.8-5.3,10.6-9.5,17.2-12.7c6.6-3.1,13.9-4.7,21.8-4.7c8.1,0,15.5,1.7,22.1,5
				c6.6,3.4,12.3,7.7,17.1,13.2c4.7,5.4,8.4,11.6,11,18.4c2.6,6.9,3.9,13.9,3.9,21c0,7.6-1.4,14.8-4.1,21.7
				c-2.7,6.9-6.5,13-11.4,18.3c-4.9,5.3-10.7,9.5-17.3,12.6C815.9,1170.4,808.7,1171.9,800.9,1171.9z M764.8,1114.5
				c0,5.3,0.9,10.5,2.6,15.5c1.7,5,4.1,9.4,7.3,13.2c3.1,3.8,6.9,6.9,11.4,9.2c4.5,2.3,9.5,3.4,15,3.4c5.7,0,10.8-1.2,15.2-3.6
				c4.4-2.4,8.2-5.6,11.3-9.5c3.1-3.9,5.4-8.4,7-13.2c1.6-4.9,2.4-9.9,2.4-15c0-5.4-0.9-10.6-2.6-15.6c-1.7-4.9-4.1-9.3-7.3-13.1
				c-3.1-3.8-6.9-6.8-11.3-9.1c-4.4-2.3-9.3-3.4-14.8-3.4c-5.7,0-10.9,1.2-15.3,3.6c-4.5,2.4-8.2,5.5-11.3,9.3
				c-3.1,3.8-5.5,8.2-7.1,13.2C765.6,1104.4,764.8,1109.4,764.8,1114.5z"/>
			<path id="D_00000112606515746416211420000005366271368114468249_" class="st8" d="M623.6,1171.1v-113.3h40.2
				c9.1,0,17.2,1.5,24,4.5c6.9,3,12.6,7,17.2,12.1c4.6,5.1,8.1,11.1,10.5,18c2.3,6.9,3.5,14.2,3.5,21.9c0,8.6-1.3,16.4-3.9,23.4
				c-2.6,7-6.3,12.9-11.1,17.9c-4.8,4.9-10.6,8.8-17.4,11.5c-6.8,2.7-14.4,4.1-22.8,4.1H623.6z M700.8,1114.3c0-6-0.8-11.4-2.5-16.4
				c-1.7-5-4.1-9.3-7.3-12.8c-3.2-3.6-7.1-6.4-11.7-8.4c-4.6-2-9.8-3-15.6-3h-22.3v81.7h22.3c6,0,11.3-1,15.9-3.1
				c4.6-2.1,8.5-4.9,11.7-8.6c3.1-3.7,5.5-8,7.1-13C700,1125.6,700.8,1120.2,700.8,1114.3z"/>
			<path id="A_00000018201960678635268460000007820149722391064485_" class="st8" d="M533.3,1057.8h15.6l44.7,113.3h-18.8l-12-30.8
				H519l-11.8,30.8h-19L533.3,1057.8z M559.3,1127.1l-18.2-48.7l-18.8,48.7H559.3z"/>
			<path id="E_00000047047530545024337010000000504286450328295583_" class="st8" d="M465.4,1155.3v15.8h-77.7v-113.3H464v15.8
				h-58.4v32.2h50.6v14.8h-50.6v34.6H465.4z"/>
			<path id="M_00000125564625078433758510000004327693952949654928_" class="st8" d="M328.2,1171.1v-81.6l-33.7,61.8h-9.9
				l-33.8-61.8v81.6h-17.9v-113.3H252l37.5,69.3l37.5-69.3h19.2v113.3H328.2z"/>
			<path id="Y_00000134963050786420831460000007303870580671184291_" class="st8" d="M70.4,1057.8l31.3,56.8l31.6-56.8h19.6
				l-42.3,72.8v40.5H92.8v-40.9l-42-72.5H70.4z"/>
		</g>
	</g>
</g>
<g id="Mono_-_Dark_00000122695688234242719960000008435650909312499890_" class="st0">
	<g id="Logo_00000106139388243247985510000009261791882779465388_" class="st9">
		<g id="Icon_00000149344452173845660330000001382192058469441690_">
			<path id="Trunk_00000099662501133468186170000015002672919158357667_" class="st2" d="M774.5,662.7l-92.3,102.6l-93.4-101.1
				c-12.3,14.6-26.6,27.5-42.2,38.2l106.7,117.2v143.3H711V819.6l105.5-118.3C800.1,691.4,785.8,678.3,774.5,662.7z"/>
			<path id="Right_00000106116348594918608980000006560988584859800486_" class="st2" d="M803.5,668.7l5.8,5.3
				c22.2,18.9,50.7,30.1,81.4,30.1c69.2,0,125.5-56.2,125.7-125.4c0-2.6-0.1-5.2-0.3-7.8c0-0.5,0-1.1-0.1-1.6
				c-3.6-47.3-33.6-88.6-77.7-106.6c-0.2,0.6-0.5,1.1-0.7,1.7c-0.5,1.1-1,2.3-1.5,3.4c-1,2.3-2,4.6-3.1,6.8
				c-0.6,1.2-1.1,2.4-1.7,3.6c-1.1,2.3-2.3,4.6-3.5,6.8c-0.5,1-1.1,2.1-1.6,3.1c-1.7,3.2-3.5,6.4-5.4,9.6
				c-33.7,56.9-86.5,100.1-148.9,121.6c0,0-0.1,0-0.1,0C778.4,638.3,789.4,655.1,803.5,668.7z"/>
			<path id="Overlap_Right_00000140725630328535920500000008311608594274744456_" class="st2" d="M911,454.8
				c-1.1-0.2-2.1-0.3-3.2-0.5c-1.9-0.3-3.9-0.5-5.8-0.6c-0.9-0.1-1.8-0.2-2.7-0.3c-2.9-0.2-5.7-0.3-8.6-0.3
				c-69.3,0-125.6,56.3-125.7,125.6c0,3.7,0.2,7.5,0.6,11.6c0.4,3.8,1,7.7,1.7,11.5c1.5-0.5,3-1.1,4.5-1.7c1.9-0.7,3.8-1.4,5.7-2.1
				c1.7-0.7,3.3-1.4,5-2.1c1.9-0.8,3.7-1.5,5.6-2.4c1.7-0.8,3.3-1.6,5-2.4c1.8-0.9,3.6-1.7,5.4-2.6c1.6-0.8,3.2-1.7,4.9-2.6
				c1.7-0.9,3.5-1.8,5.2-2.8c1.6-0.9,3.2-1.9,4.7-2.8c1.7-1,3.4-2,5.1-3c1.6-1,3.1-2,4.7-3c1.6-1.1,3.3-2.1,4.8-3.2
				c1.6-1.1,3.1-2.2,4.6-3.3c1.5-1.1,3.1-2.2,4.6-3.3c1.6-1.2,3.1-2.4,4.6-3.6c1.5-1.1,2.9-2.3,4.4-3.4c1.5-1.3,3-2.6,4.5-3.8
				c1.4-1.2,2.8-2.3,4.1-3.6c1.5-1.3,3-2.7,4.4-4.1c1.3-1.2,2.6-2.4,3.9-3.7c1.5-1.5,2.9-3,4.4-4.5c1.2-1.2,2.4-2.4,3.6-3.7
				c1.5-1.6,2.9-3.2,4.3-4.8c1.1-1.2,2.3-2.5,3.3-3.7c1.5-1.7,2.8-3.4,4.3-5.2c1-1.2,2-2.4,3-3.7c1.5-1.9,2.9-3.8,4.3-5.8
				c0.8-1.1,1.7-2.3,2.6-3.4c1.5-2.1,2.9-4.2,4.4-6.4c0.7-1,1.4-2.1,2.1-3.1c2.1-3.2,4.1-6.5,6.1-9.8c1.7-2.9,3.4-5.9,5-8.8
				c0.5-0.9,1-1.9,1.5-2.8c1.1-2.1,2.2-4.3,3.3-6.4c0.5-1,1-2.1,1.5-3.1c1.1-2.3,2.1-4.6,3.2-7c0.4-0.8,0.7-1.6,1.1-2.5
				c0.1-0.3,0.2-0.6,0.3-0.8c-0.5-0.1-1.1-0.3-1.6-0.4c-1-0.2-2.1-0.5-3.1-0.7C914.6,455.4,912.8,455.1,911,454.8z"/>
			<path id="Center_00000034812510277874205350000008834855759415029941_" class="st2" d="M681.2,95.7
				c-129.9,0-238.8,94.7-257.5,222c1.2,0,2.4,0,3.6,0c116.3,0,211,94.6,211,211c0,28.1-5.5,55.3-16.2,81c41.7,9.7,86.1,9,127.9-2.5
				c-0.1-0.4-0.1-0.8-0.2-1.3c-0.3-1.6-0.6-3.1-0.8-4.7c-0.1-0.7-0.2-1.4-0.3-2.2c-0.3-2.2-0.6-4.5-0.8-6.7
				c-0.4-4.6-0.7-9.2-0.7-13.5c0-0.1,0-0.1,0-0.2c0-0.1,0-0.2,0-0.3c0-79.2,64.4-143.6,143.6-143.6c12.6,0,25,1.7,37.1,5
				c9.1-26.9,13.8-55,13.8-83.6C941.5,212.5,824.7,95.7,681.2,95.7z"/>
			<path id="Overlap_Left_00000000903978902451559760000013455340581821511581_" class="st2" d="M421.7,335.9
				c-0.1,1.4-0.3,2.8-0.3,4.2c-0.1,1.2-0.2,2.4-0.2,3.6c-0.2,4.1-0.3,8.3-0.3,12.3c0,3.6,0.1,7.2,0.2,10.8c0,1.2,0.2,2.4,0.2,3.6
				c0.1,2.4,0.3,4.8,0.4,7.1c0.1,1.4,0.3,2.8,0.4,4.2c0.2,2.1,0.4,4.2,0.7,6.3c0.2,1.5,0.4,3,0.6,4.5c0.3,2,0.6,4,0.9,6
				c0.3,1.5,0.6,3,0.8,4.5c0.4,1.9,0.7,3.9,1.1,5.8c0.3,1.5,0.7,3.1,1,4.6c0.4,1.9,0.8,3.8,1.3,5.6c0.4,1.5,0.8,3.1,1.2,4.6
				c0.5,1.8,1,3.7,1.5,5.5c0.5,1.5,1,3,1.4,4.6c0.6,1.8,1.1,3.6,1.7,5.4c0.5,1.5,1.1,3,1.6,4.5c0.6,1.8,1.3,3.5,1.9,5.3
				c0.6,1.5,1.2,3,1.8,4.5c0.7,1.7,1.4,3.5,2.1,5.2c0.6,1.5,1.3,2.9,2,4.4c0.8,1.7,1.5,3.4,2.3,5.1c0.7,1.4,1.4,2.9,2.1,4.3
				c0.8,1.7,1.7,3.3,2.5,4.9c0.7,1.4,1.5,2.8,2.3,4.2c0.9,1.6,1.8,3.2,2.7,4.8c0.8,1.4,1.6,2.7,2.5,4.1c1,1.6,1.9,3.2,2.9,4.7
				c0.9,1.3,1.7,2.7,2.6,4c1,1.5,2,3.1,3.1,4.6c0.9,1.3,1.8,2.6,2.8,3.9c1.1,1.5,2.1,3,3.3,4.5c1,1.3,1.9,2.5,2.9,3.8
				c1.1,1.5,2.3,2.9,3.4,4.3c1,1.2,2,2.5,3.1,3.7c1.2,1.4,2.4,2.8,3.6,4.2c1.1,1.2,2.1,2.4,3.2,3.6c1.2,1.4,2.5,2.7,3.8,4
				c1.1,1.2,2.2,2.3,3.3,3.4c1.3,1.3,2.6,2.6,3.9,3.9c1.1,1.1,2.3,2.2,3.5,3.3c1.4,1.3,2.7,2.5,4.1,3.8c1.2,1.1,2.4,2.1,3.6,3.2
				c1.4,1.2,2.8,2.4,4.2,3.6c1.2,1,2.5,2,3.7,3c1.5,1.2,2.9,2.3,4.4,3.4c1.3,1,2.6,1.9,3.9,2.9c1.5,1.1,3,2.2,4.5,3.3
				c1.3,0.9,2.6,1.8,4,2.7c1.6,1,3.1,2.1,4.7,3.1c1.4,0.9,2.7,1.7,4.1,2.6c1.6,1,3.2,1.9,4.8,2.9c1.4,0.8,2.8,1.6,4.2,2.4
				c1.6,0.9,3.3,1.8,5,2.7c1.4,0.8,2.8,1.5,4.3,2.2c1.7,0.9,3.4,1.7,5.1,2.5c1.5,0.7,2.9,1.4,4.4,2.1c1.7,0.8,3.5,1.6,5.2,2.3
				c1.5,0.6,3,1.3,4.5,1.9c1.8,0.7,3.6,1.4,5.4,2.1c1.5,0.6,3,1.2,4.6,1.7c1.8,0.7,3.7,1.3,5.5,1.9c1.5,0.5,3.1,1,4.6,1.5
				c0.5,0.2,1.1,0.3,1.6,0.5c0.3-0.8,0.7-1.6,1-2.4c0.6-1.4,1.1-2.8,1.7-4.2c0.7-1.7,1.3-3.5,1.9-5.3c0.5-1.4,1-2.8,1.5-4.3
				c0.6-1.8,1.1-3.6,1.7-5.4c0.4-1.4,0.8-2.9,1.2-4.3c0.5-1.8,0.9-3.7,1.4-5.5c0.3-1.4,0.7-2.8,1-4.3c0.4-1.9,0.7-3.8,1.1-5.7
				c0.3-1.4,0.5-2.8,0.7-4.2c0.3-2,0.6-4,0.8-6c0.2-1.3,0.4-2.6,0.5-4c0.2-2.2,0.4-4.5,0.5-6.8c0.1-1.1,0.2-2.2,0.3-3.3
				c0.2-3.4,0.3-6.8,0.3-10.2c0-106.4-86.6-193-193-193c-1.5,0-3,0-4.6,0.1C421.9,335.9,421.8,335.9,421.7,335.9z"/>
			<path id="Left_00000068669098921352371420000012727817377998681772_" class="st2" d="M403.4,340c0.1-0.9,0.1-1.8,0.1-2.7
				c-14.1,1.7-27.7,5-40.7,9.5c-1,0.4-2.1,0.7-3.1,1.1c-0.8,0.3-1.6,0.6-2.4,0.9c-72.2,28.3-123.1,98.8-123.1,179.8
				c0,106.4,86.6,193,193,193c22.7,0,44.8-4.1,65.5-11.6c0.9-0.3,1.8-0.7,2.7-1c3.2-1.2,6.3-2.5,9.4-3.9c1.9-0.8,3.7-1.7,5.6-2.6
				c1-0.5,2-1,3-1.5c11.3-5.7,22.1-12.6,32.1-20.4l20.3-18.3c11.8-12.2,22-26.1,30.3-41.3c-0.1,0-0.2-0.1-0.3-0.1
				c-1.5-0.5-2.9-1-4.3-1.5c-2.2-0.7-4.3-1.4-6.4-2.2c-1.6-0.6-3.1-1.2-4.6-1.8c-2-0.8-4-1.5-5.9-2.3c-1.6-0.7-3.1-1.4-4.7-2
				c-1.9-0.8-3.8-1.6-5.6-2.5c-1.6-0.7-3.1-1.5-4.7-2.3c-1.8-0.9-3.6-1.7-5.4-2.7c-1.6-0.8-3.1-1.6-4.6-2.5
				c-1.7-0.9-3.5-1.9-5.2-2.8c-1.5-0.9-3-1.8-4.6-2.7c-1.7-1-3.4-2-5-3c-1.5-0.9-3-1.9-4.5-2.9c-1.6-1-3.2-2.1-4.8-3.2
				c-1.5-1-2.9-2-4.4-3.1c-1.6-1.1-3.1-2.2-4.6-3.3c-1.4-1.1-2.9-2.2-4.3-3.2c-1.5-1.2-3-2.3-4.5-3.5c-1.4-1.1-2.8-2.3-4.1-3.4
				c-1.5-1.2-2.9-2.4-4.3-3.7c-1.4-1.2-2.7-2.4-4-3.6c-1.4-1.3-2.8-2.5-4.2-3.8c-1.3-1.2-2.6-2.5-3.9-3.7c-1.3-1.3-2.7-2.6-4-4
				c-1.3-1.3-2.5-2.6-3.7-3.9c-1.3-1.4-2.6-2.7-3.8-4.1c-1.2-1.3-2.4-2.7-3.6-4c-1.2-1.4-2.5-2.8-3.7-4.3c-1.1-1.4-2.3-2.7-3.4-4.1
				c-1.2-1.5-2.3-2.9-3.5-4.4c-1.1-1.4-2.2-2.8-3.2-4.3c-1.1-1.5-2.2-3-3.3-4.6c-1-1.4-2.1-2.9-3.1-4.4c-1.1-1.6-2.1-3.1-3.1-4.7
				c-1-1.5-1.9-3-2.9-4.5c-1-1.6-2-3.2-3-4.8c-0.9-1.5-1.8-3-2.7-4.6c-0.9-1.6-1.9-3.3-2.8-4.9c-0.9-1.6-1.7-3.1-2.5-4.7
				c-0.9-1.7-1.7-3.4-2.6-5.1c-0.8-1.6-1.6-3.2-2.3-4.8c-0.8-1.7-1.6-3.5-2.4-5.2c-0.7-1.6-1.5-3.2-2.2-4.8
				c-0.8-1.8-1.5-3.5-2.2-5.3c-0.7-1.6-1.3-3.3-2-4.9c-0.7-1.8-1.3-3.6-2-5.5c-0.6-1.6-1.2-3.3-1.7-4.9c-0.6-1.9-1.2-3.7-1.8-5.6
				c-0.5-1.7-1.1-3.3-1.5-5c-0.6-1.9-1.1-3.8-1.6-5.8c-0.4-1.7-0.9-3.3-1.3-5c-0.5-2-0.9-3.9-1.4-5.9c-0.4-1.7-0.8-3.3-1.1-5
				c-0.4-2-0.8-4.1-1.2-6.1c-0.3-1.6-0.6-3.3-0.9-4.9c-0.3-2.1-0.6-4.2-0.9-6.3c-0.2-1.6-0.5-3.2-0.7-4.8c-0.3-2.2-0.5-4.5-0.7-6.7
				c-0.2-1.5-0.3-3-0.5-4.5c-0.2-2.5-0.3-5.1-0.5-7.6c-0.1-1.3-0.2-2.5-0.2-3.8c-0.2-3.8-0.2-7.6-0.2-11.5c0-4.3,0.1-8.7,0.4-13.1
				C403.3,342,403.3,341,403.4,340z"/>
			<path id="Outline_00000131357808563666218260000000360717385377388986_" class="st8" d="M1034.3,578.3c0-2.7-0.2-5.4-0.3-8
				c0-0.9,0-1.7-0.1-2.6c-4-54.4-38.5-101.8-89.2-122.3c9.8-28.8,14.8-58.8,14.8-89.4c0-153.5-124.8-278.3-278.3-278.3
				c-140,0-257.2,103-275.7,241.1c-19.9,2.1-39,6.9-56.8,14.1c-0.4,0.2-0.8,0.3-1.2,0.5c-2.2,0.9-4.4,1.9-6.6,2.9
				c-1.2,0.6-2.5,1.1-3.7,1.7c-1.3,0.6-2.6,1.3-4,1.9c-2.1,1-4.2,2.1-6.2,3.2c-0.4,0.2-0.9,0.5-1.3,0.7
				c-65.6,36.1-110,105.9-110,184.9c0,116.3,94.6,211,211,211c15.3,0,30.4-1.8,45.1-5c1.1-0.2,2.2-0.5,3.4-0.8
				c3-0.7,5.9-1.4,8.8-2.3c3.2-0.9,6.5-1.9,9.7-2.9c0.5-0.2,1-0.4,1.5-0.5c12.5-4.3,24.6-9.8,36.1-16.3l104,114.6v154.4H729V826.5
				l103.8-116.3c17.8,7.9,37.5,12.2,57.9,12.2c79.2,0,143.6-64.4,143.6-143.6c0-0.1,0-0.1,0-0.2
				C1034.3,578.5,1034.3,578.4,1034.3,578.3z M510.5,702.5c-1.9,0.9-3.7,1.8-5.6,2.6c-3.1,1.4-6.2,2.7-9.4,3.9
				c-0.9,0.3-1.8,0.7-2.7,1c-20.7,7.5-42.9,11.6-65.5,11.6c-106.4,0-193-86.6-193-193c0-81,50.9-151.5,123.1-179.8
				c0.8-0.3,1.6-0.6,2.4-0.9c1-0.4,2.1-0.7,3.1-1.1c13-4.6,26.6-7.8,40.7-9.5c-0.1,0.9-0.1,1.8-0.1,2.7c-0.1,1-0.1,2-0.2,3
				c-0.2,4.4-0.4,8.8-0.4,13.1c0,3.8,0.1,7.7,0.2,11.5c0.1,1.3,0.2,2.5,0.2,3.8c0.1,2.5,0.3,5.1,0.5,7.6c0.1,1.5,0.3,3,0.5,4.5
				c0.2,2.2,0.4,4.5,0.7,6.7c0.2,1.6,0.5,3.2,0.7,4.8c0.3,2.1,0.6,4.2,0.9,6.3c0.3,1.7,0.6,3.3,0.9,4.9c0.4,2,0.7,4.1,1.2,6.1
				c0.3,1.7,0.7,3.3,1.1,5c0.4,2,0.9,3.9,1.4,5.9c0.4,1.7,0.9,3.3,1.3,5c0.5,1.9,1,3.8,1.6,5.8c0.5,1.7,1,3.3,1.5,5
				c0.6,1.9,1.2,3.8,1.8,5.6c0.6,1.7,1.2,3.3,1.7,4.9c0.7,1.8,1.3,3.7,2,5.5c0.6,1.6,1.3,3.3,2,4.9c0.7,1.8,1.4,3.6,2.2,5.3
				c0.7,1.6,1.4,3.2,2.2,4.8c0.8,1.7,1.6,3.5,2.4,5.2c0.8,1.6,1.6,3.2,2.3,4.8c0.8,1.7,1.7,3.4,2.6,5.1c0.8,1.6,1.7,3.1,2.5,4.7
				c0.9,1.7,1.8,3.3,2.8,4.9c0.9,1.5,1.8,3.1,2.7,4.6c1,1.6,2,3.2,3,4.8c0.9,1.5,1.9,3,2.9,4.5c1,1.6,2.1,3.1,3.1,4.7
				c1,1.5,2,2.9,3.1,4.4c1.1,1.5,2.2,3,3.3,4.6c1.1,1.4,2.1,2.8,3.2,4.3c1.2,1.5,2.3,3,3.5,4.4c1.1,1.4,2.3,2.8,3.4,4.1
				c1.2,1.4,2.4,2.9,3.7,4.3c1.2,1.3,2.4,2.7,3.6,4c1.3,1.4,2.5,2.8,3.8,4.1c1.2,1.3,2.5,2.6,3.7,3.9c1.3,1.3,2.7,2.7,4,4
				c1.3,1.2,2.6,2.5,3.9,3.7c1.4,1.3,2.8,2.6,4.2,3.8c1.3,1.2,2.7,2.4,4,3.6c1.4,1.2,2.9,2.5,4.3,3.7c1.4,1.1,2.7,2.3,4.1,3.4
				c1.5,1.2,3,2.3,4.5,3.5c1.4,1.1,2.8,2.2,4.3,3.2c1.5,1.1,3.1,2.2,4.6,3.3c1.5,1,2.9,2.1,4.4,3.1c1.6,1.1,3.2,2.1,4.8,3.2
				c1.5,1,3,1.9,4.5,2.9c1.7,1,3.3,2,5,3c1.5,0.9,3,1.8,4.6,2.7c1.7,1,3.5,1.9,5.2,2.8c1.5,0.8,3.1,1.7,4.6,2.5
				c1.8,0.9,3.6,1.8,5.4,2.7c1.6,0.8,3.1,1.5,4.7,2.3c1.9,0.9,3.8,1.7,5.6,2.5c1.6,0.7,3.1,1.4,4.7,2c2,0.8,4,1.6,5.9,2.3
				c1.5,0.6,3.1,1.2,4.6,1.8c2.1,0.8,4.3,1.5,6.4,2.2c1.4,0.5,2.9,1,4.3,1.5c0.1,0,0.2,0.1,0.3,0.1c-8.3,15.2-18.5,29-30.3,41.3
				l-20.3,18.3c-10,7.8-20.8,14.7-32.1,20.4C512.5,701.5,511.5,702,510.5,702.5z M421.2,343.7c0.1-1.2,0.1-2.4,0.2-3.6
				c0.1-1.4,0.2-2.8,0.3-4.2c0.1,0,0.2,0,0.3,0c1.6-0.1,3.2-0.1,4.6-0.1c106.4,0,193,86.6,193,193c0,3.4-0.1,6.8-0.3,10.2
				c-0.1,1.1-0.2,2.2-0.3,3.3c-0.2,2.3-0.3,4.5-0.5,6.8c-0.1,1.3-0.3,2.6-0.5,4c-0.3,2-0.5,4-0.8,6c-0.2,1.4-0.5,2.8-0.7,4.2
				c-0.3,1.9-0.7,3.8-1.1,5.7c-0.3,1.4-0.7,2.8-1,4.3c-0.4,1.8-0.9,3.7-1.4,5.5c-0.4,1.4-0.8,2.9-1.2,4.3c-0.5,1.8-1.1,3.6-1.7,5.4
				c-0.5,1.4-1,2.9-1.5,4.3c-0.6,1.8-1.3,3.5-1.9,5.3c-0.5,1.4-1.1,2.8-1.7,4.2c-0.3,0.8-0.7,1.6-1,2.4c-0.5-0.2-1.1-0.3-1.6-0.5
				c-1.6-0.5-3.1-1-4.6-1.5c-1.8-0.6-3.7-1.2-5.5-1.9c-1.5-0.6-3-1.1-4.6-1.7c-1.8-0.7-3.6-1.4-5.4-2.1c-1.5-0.6-3-1.3-4.5-1.9
				c-1.8-0.8-3.5-1.5-5.2-2.3c-1.5-0.7-2.9-1.4-4.4-2.1c-1.7-0.8-3.4-1.7-5.1-2.5c-1.4-0.7-2.9-1.5-4.3-2.2c-1.7-0.9-3.3-1.8-5-2.7
				c-1.4-0.8-2.8-1.6-4.2-2.4c-1.6-1-3.2-1.9-4.8-2.9c-1.4-0.8-2.7-1.7-4.1-2.6c-1.6-1-3.1-2-4.7-3.1c-1.3-0.9-2.6-1.8-4-2.7
				c-1.5-1.1-3-2.2-4.5-3.3c-1.3-0.9-2.6-1.9-3.9-2.9c-1.5-1.1-2.9-2.3-4.4-3.4c-1.3-1-2.5-2-3.7-3c-1.4-1.2-2.8-2.4-4.2-3.6
				c-1.2-1-2.4-2.1-3.6-3.2c-1.4-1.2-2.7-2.5-4.1-3.8c-1.2-1.1-2.3-2.2-3.5-3.3c-1.3-1.3-2.6-2.6-3.9-3.9c-1.1-1.1-2.2-2.3-3.3-3.4
				c-1.3-1.3-2.5-2.7-3.8-4c-1.1-1.2-2.2-2.4-3.2-3.6c-1.2-1.4-2.4-2.8-3.6-4.2c-1-1.2-2.1-2.4-3.1-3.7c-1.2-1.4-2.3-2.9-3.4-4.3
				c-1-1.3-2-2.5-2.9-3.8c-1.1-1.5-2.2-3-3.3-4.5c-0.9-1.3-1.9-2.6-2.8-3.9c-1-1.5-2.1-3.1-3.1-4.6c-0.9-1.3-1.8-2.7-2.6-4
				c-1-1.6-1.9-3.1-2.9-4.7c-0.8-1.4-1.7-2.7-2.5-4.1c-0.9-1.6-1.8-3.2-2.7-4.8c-0.8-1.4-1.6-2.8-2.3-4.2c-0.9-1.6-1.7-3.3-2.5-4.9
				c-0.7-1.4-1.4-2.8-2.1-4.3c-0.8-1.7-1.6-3.4-2.3-5.1c-0.7-1.5-1.3-2.9-2-4.4c-0.7-1.7-1.4-3.4-2.1-5.2c-0.6-1.5-1.2-3-1.8-4.5
				c-0.7-1.7-1.3-3.5-1.9-5.3c-0.5-1.5-1.1-3-1.6-4.5c-0.6-1.8-1.2-3.6-1.7-5.4c-0.5-1.5-1-3-1.4-4.6c-0.5-1.8-1-3.7-1.5-5.5
				c-0.4-1.5-0.9-3.1-1.2-4.6c-0.5-1.9-0.9-3.7-1.3-5.6c-0.4-1.5-0.7-3.1-1-4.6c-0.4-1.9-0.7-3.9-1.1-5.8c-0.3-1.5-0.6-3-0.8-4.5
				c-0.3-2-0.6-4-0.9-6c-0.2-1.5-0.5-3-0.6-4.5c-0.3-2.1-0.5-4.2-0.7-6.3c-0.1-1.4-0.3-2.8-0.4-4.2c-0.2-2.4-0.3-4.7-0.4-7.1
				c-0.1-1.2-0.2-2.4-0.2-3.6c-0.1-3.6-0.2-7.2-0.2-10.8C420.9,352,421,347.9,421.2,343.7z M614.3,626.2c21.8,5.4,44.3,8.1,66.9,8.1
				c24.7,0,49.2-3.3,73-9.8l0,0.2l0.3-0.1c2.6,7.6,5.7,14.9,9.4,21.8l-82,92l-81.5-89.7C605.5,641.6,610.2,634.1,614.3,626.2z
				 M767.2,601.7c-0.7-3.9-1.3-7.7-1.7-11.5c-0.4-4-0.6-7.8-0.6-11.6c0.1-69.2,56.4-125.6,125.7-125.6c2.9,0,5.7,0.1,8.6,0.3
				c0.9,0.1,1.8,0.2,2.7,0.3c1.9,0.2,3.9,0.4,5.8,0.6c1.1,0.1,2.1,0.3,3.2,0.5c1.8,0.3,3.6,0.6,5.4,1c1,0.2,2.1,0.4,3.1,0.7
				c0.5,0.1,1.1,0.3,1.6,0.4c-0.1,0.3-0.2,0.6-0.3,0.8c-0.3,0.8-0.7,1.6-1.1,2.5c-1,2.3-2.1,4.7-3.2,7c-0.5,1-1,2.1-1.5,3.1
				c-1.1,2.2-2.1,4.3-3.3,6.4c-0.5,0.9-1,1.9-1.5,2.8c-1.6,3-3.3,5.9-5,8.8c-2,3.3-4,6.6-6.1,9.8c-0.7,1.1-1.4,2.1-2.1,3.1
				c-1.4,2.1-2.9,4.3-4.4,6.4c-0.8,1.2-1.7,2.3-2.6,3.4c-1.4,1.9-2.8,3.9-4.3,5.8c-1,1.2-2,2.4-3,3.7c-1.4,1.7-2.8,3.5-4.3,5.2
				c-1.1,1.3-2.2,2.5-3.3,3.7c-1.4,1.6-2.8,3.2-4.3,4.8c-1.2,1.3-2.4,2.4-3.6,3.7c-1.5,1.5-2.9,3-4.4,4.5c-1.3,1.2-2.6,2.4-3.9,3.7
				c-1.5,1.4-2.9,2.8-4.4,4.1c-1.4,1.2-2.8,2.4-4.1,3.6c-1.5,1.3-3,2.6-4.5,3.8c-1.4,1.2-2.9,2.3-4.4,3.4c-1.5,1.2-3,2.4-4.6,3.6
				c-1.5,1.1-3.1,2.2-4.6,3.3c-1.5,1.1-3.1,2.2-4.6,3.3c-1.6,1.1-3.2,2.1-4.8,3.2c-1.6,1-3.1,2.1-4.7,3c-1.7,1-3.4,2-5.1,3
				c-1.6,0.9-3.1,1.9-4.7,2.8c-1.7,1-3.5,1.9-5.2,2.8c-1.6,0.9-3.2,1.7-4.9,2.6c-1.8,0.9-3.6,1.7-5.4,2.6c-1.7,0.8-3.3,1.6-5,2.4
				c-1.8,0.8-3.7,1.6-5.6,2.4c-1.7,0.7-3.3,1.4-5,2.1c-1.9,0.8-3.8,1.4-5.7,2.1C770.2,600.6,768.7,601.2,767.2,601.7z M890.7,704
				c-30.6,0-59.2-11.2-81.4-30.1l-5.8-5.3c-14-13.5-25-30.4-31.6-49.5c0,0,0.1,0,0.1,0c62.3-21.5,115.2-64.7,148.9-121.6
				c1.9-3.1,3.6-6.3,5.4-9.6c0.6-1,1.1-2.1,1.6-3.1c1.2-2.3,2.3-4.5,3.5-6.8c0.6-1.2,1.1-2.4,1.7-3.6c1.1-2.3,2.1-4.5,3.1-6.8
				c0.5-1.1,1-2.3,1.5-3.4c0.2-0.6,0.5-1.1,0.7-1.7c44.1,18,74.1,59.3,77.7,106.6c0,0.5,0,1.1,0.1,1.6c0.2,2.6,0.3,5.2,0.3,7.8
				C1016.2,647.8,959.9,704,890.7,704z M681.2,95.7c143.6,0,260.3,116.8,260.3,260.3c0,28.6-4.6,56.7-13.8,83.6
				c-12.1-3.2-24.5-5-37.1-5c-79.2,0-143.6,64.4-143.6,143.6c0,0.1,0,0.2,0,0.3c0,0.1,0,0.1,0,0.2c0,4.4,0.2,8.9,0.7,13.5
				c0.2,2.2,0.5,4.5,0.8,6.7c0.1,0.7,0.2,1.4,0.3,2.2c0.2,1.6,0.5,3.1,0.8,4.7c0.1,0.4,0.1,0.8,0.2,1.3
				c-41.7,11.4-86.1,12.2-127.9,2.5c10.7-25.7,16.2-52.9,16.2-81c0-116.3-94.6-211-211-211c-1.2,0-2.4,0-3.6,0
				C442.4,190.4,551.3,95.7,681.2,95.7z M711,819.6v143.3h-57.9V819.6L546.5,702.4c15.7-10.7,29.9-23.6,42.2-38.2l93.4,101.1
				l92.3-102.6c11.3,15.6,25.7,28.7,42.1,38.6L711,819.6z"/>
			<path id="Registered_00000060740963391755050850000010373707361314626202_" class="st2" d="M794.3,944.1c0,11-8.7,19.6-20,19.6
				c-11.2,0-20.1-8.6-20.1-19.6c0-10.8,8.9-19.4,20.1-19.4C785.6,924.7,794.3,933.4,794.3,944.1z M759.2,944.1
				c0,8.6,6.4,15.5,15.2,15.5c8.6,0,14.9-6.9,14.9-15.4c0-8.6-6.3-15.6-15-15.6C765.6,928.6,759.2,935.6,759.2,944.1z M771.2,954.3
				h-4.5v-19.4c1.8-0.4,4.3-0.6,7.5-0.6c3.7,0,5.4,0.6,6.8,1.4c1.1,0.8,1.9,2.4,1.9,4.3c0,2.1-1.7,3.8-4,4.5v0.2
				c1.9,0.7,3,2.1,3.6,4.7c0.6,3,1,4.1,1.4,4.8h-4.9c-0.6-0.7-1-2.5-1.5-4.7c-0.4-2.1-1.5-3.1-4-3.1h-2.1V954.3z M771.3,943.3h2.1
				c2.5,0,4.5-0.8,4.5-2.8c0-1.8-1.3-3-4.2-3c-1.2,0-2,0.1-2.5,0.2V943.3z"/>
		</g>
		<g id="Text_00000140735499331442017640000000188523406116102296_">
			<path id="Registered_00000096043298355808432220000002250053675212484997_" class="st2" d="M1207,1062.4c0,11-8.7,19.6-20,19.6
				c-11.2,0-20.1-8.6-20.1-19.6c0-10.8,8.9-19.4,20.1-19.4C1198.3,1043,1207,1051.7,1207,1062.4z M1171.9,1062.4
				c0,8.6,6.4,15.5,15.2,15.5c8.6,0,14.9-6.9,14.9-15.4c0-8.6-6.3-15.6-15-15.6C1178.3,1046.9,1171.9,1053.9,1171.9,1062.4z
				 M1183.9,1072.6h-4.5v-19.4c1.8-0.4,4.3-0.6,7.5-0.6c3.7,0,5.4,0.6,6.8,1.4c1.1,0.8,1.9,2.4,1.9,4.3c0,2.1-1.7,3.8-4,4.5v0.2
				c1.9,0.7,3,2.1,3.6,4.7c0.6,3,1,4.1,1.4,4.8h-4.9c-0.6-0.7-1-2.5-1.5-4.7c-0.4-2.1-1.5-3.1-4-3.1h-2.1V1072.6z M1184,1061.6h2.1
				c2.5,0,4.5-0.8,4.5-2.8c0-1.8-1.3-3-4.2-3c-1.2,0-2,0.1-2.5,0.2V1061.6z"/>
			<path id="S_00000136399567005871931090000000688885770997534386_" class="st2" d="M1133.6,1084.5c-1.1-1.2-2.6-2.4-4.6-3.8
				c-2-1.3-4.4-2.6-7.1-3.8c-2.7-1.2-5.7-2.1-8.9-2.9c-3.2-0.7-6.6-1.1-10-1.1c-7.6,0-13.1,1.4-16.7,4.1c-3.6,2.8-5.3,6.6-5.3,11.5
				c0,2.8,0.6,5,1.7,6.8c1.1,1.8,2.8,3.3,5.2,4.6c2.3,1.3,5.3,2.5,8.8,3.5c3.5,1,7.6,2.1,12.3,3.3c5.7,1.4,10.9,2.9,15.6,4.6
				c4.6,1.7,8.5,3.8,11.7,6.2c3.2,2.4,5.7,5.5,7.4,9c1.8,3.6,2.6,7.9,2.6,13c0,5.7-1.1,10.7-3.3,14.8c-2.2,4.1-5.2,7.5-8.9,10.1
				c-3.8,2.6-8.2,4.5-13.2,5.7c-5,1.2-10.4,1.8-16.1,1.8c-8.6,0-16.9-1.3-25-3.9c-8-2.6-15.3-6.4-21.8-11.4l8.1-15.3
				c1.4,1.4,3.4,2.9,6,4.6c2.6,1.7,5.6,3.3,9.1,4.7c3.5,1.4,7.2,2.7,11.3,3.7c4,1,8.2,1.5,12.6,1.5c7,0,12.4-1.2,16.3-3.7
				c3.8-2.4,5.7-6.1,5.7-10.9c0-2.9-0.7-5.3-2.2-7.2c-1.4-1.9-3.5-3.6-6.1-5c-2.7-1.4-5.9-2.7-9.7-3.9c-3.8-1.2-8.2-2.4-13.1-3.7
				c-5.6-1.5-10.6-3.1-14.8-4.7c-4.2-1.6-7.7-3.6-10.5-6c-2.8-2.3-4.9-5.1-6.3-8.2c-1.4-3.1-2.2-6.9-2.2-11.4
				c0-5.5,1.1-10.5,3.2-14.8c2.1-4.3,5-7.9,8.7-10.9c3.7-2.9,8-5.1,13-6.6c5-1.5,10.4-2.2,16.3-2.2c7.7,0,14.7,1.2,21.2,3.7
				c6.5,2.4,12.2,5.5,17.1,9.1L1133.6,1084.5z"/>
			<path id="W_00000052800198691986057170000018030076998878484624_" class="st2" d="M925.9,1058.3h16.9l13.9,38.5l14-38.5h16.8
				l-19.3,50.4l16.9,41.7l35.3-92.6h19.6l-46.8,113.3h-15.3l-21.1-50.8l-21.2,50.8h-15.3l-46.8-113.3H893l35.4,92.6l16.9-41.7
				L925.9,1058.3z"/>
			<path id="O_00000032641733187247942330000007943809811119771794_" class="st2" d="M800.9,1171.9c-8.1,0-15.5-1.6-22.1-4.9
				c-6.7-3.2-12.4-7.6-17.2-12.9c-4.8-5.4-8.5-11.5-11.1-18.4c-2.6-6.9-3.9-14-3.9-21.2c0-7.6,1.4-14.8,4.1-21.7
				c2.8-6.9,6.6-13,11.4-18.4c4.8-5.3,10.6-9.5,17.2-12.7c6.6-3.1,13.9-4.7,21.8-4.7c8.1,0,15.5,1.7,22.1,5
				c6.6,3.4,12.3,7.7,17.1,13.2c4.7,5.4,8.4,11.6,11,18.4c2.6,6.9,3.9,13.9,3.9,21c0,7.6-1.4,14.8-4.1,21.7
				c-2.7,6.9-6.5,13-11.4,18.3c-4.9,5.3-10.7,9.5-17.3,12.6C815.9,1170.4,808.7,1171.9,800.9,1171.9z M764.8,1114.5
				c0,5.3,0.9,10.5,2.6,15.5c1.7,5,4.1,9.4,7.3,13.2c3.1,3.8,6.9,6.9,11.4,9.2c4.5,2.3,9.5,3.4,15,3.4c5.7,0,10.8-1.2,15.2-3.6
				c4.4-2.4,8.2-5.6,11.3-9.5c3.1-3.9,5.4-8.4,7-13.2c1.6-4.9,2.4-9.9,2.4-15c0-5.4-0.9-10.6-2.6-15.6c-1.7-4.9-4.1-9.3-7.3-13.1
				c-3.1-3.8-6.9-6.8-11.3-9.1c-4.4-2.3-9.3-3.4-14.8-3.4c-5.7,0-10.9,1.2-15.3,3.6c-4.5,2.4-8.2,5.5-11.3,9.3
				c-3.1,3.8-5.5,8.2-7.1,13.2C765.6,1104.4,764.8,1109.4,764.8,1114.5z"/>
			<path id="D_00000129922651578138492430000009508611559207538835_" class="st2" d="M623.6,1171.1v-113.3h40.2
				c9.1,0,17.2,1.5,24,4.5c6.9,3,12.6,7,17.2,12.1c4.6,5.1,8.1,11.1,10.5,18c2.3,6.9,3.5,14.2,3.5,21.9c0,8.6-1.3,16.4-3.9,23.4
				c-2.6,7-6.3,12.9-11.1,17.9c-4.8,4.9-10.6,8.8-17.4,11.5c-6.8,2.7-14.4,4.1-22.8,4.1H623.6z M700.8,1114.3c0-6-0.8-11.4-2.5-16.4
				c-1.7-5-4.1-9.3-7.3-12.8c-3.2-3.6-7.1-6.4-11.7-8.4c-4.6-2-9.8-3-15.6-3h-22.3v81.7h22.3c6,0,11.3-1,15.9-3.1
				c4.6-2.1,8.5-4.9,11.7-8.6c3.1-3.7,5.5-8,7.1-13C700,1125.6,700.8,1120.2,700.8,1114.3z"/>
			<path id="A_00000131351667595642718880000004114242215560521891_" class="st2" d="M533.3,1057.8h15.6l44.7,113.3h-18.8l-12-30.8
				H519l-11.8,30.8h-19L533.3,1057.8z M559.3,1127.1l-18.2-48.7l-18.8,48.7H559.3z"/>
			<path id="E_00000042737233746410268680000018414270567408290734_" class="st2" d="M465.4,1155.3v15.8h-77.7v-113.3H464v15.8
				h-58.4v32.2h50.6v14.8h-50.6v34.6H465.4z"/>
			<path id="M_00000127756862085766179050000009948137464160216452_" class="st2" d="M328.2,1171.1v-81.6l-33.7,61.8h-9.9
				l-33.8-61.8v81.6h-17.9v-113.3H252l37.5,69.3l37.5-69.3h19.2v113.3H328.2z"/>
			<path id="Y_00000021089464368343062160000005754144482448846223_" class="st2" d="M70.4,1057.8l31.3,56.8l31.6-56.8h19.6
				l-42.3,72.8v40.5H92.8v-40.9l-42-72.5H70.4z"/>
		</g>
	</g>
</g>
<g id="Mono_-_Light_00000003088821290673594560000003263382295301582999_" class="st0">
	<g id="Logo_00000137095430389412242690000002645254009222650523_" class="st9">
		<g id="Icon_00000071530878963518378030000012648675074388373889_">
			<path id="Trunk_00000098902660202019965030000000530638479983973801_" class="st8" d="M774.5,662.7l-92.3,102.6l-93.4-101.1
				c-12.3,14.6-26.6,27.5-42.2,38.2l106.7,117.2v143.3H711V819.6l105.5-118.3C800.1,691.4,785.8,678.3,774.5,662.7z"/>
			<path id="Right_00000154427068731308486010000014103200615533615508_" class="st8" d="M803.5,668.7l5.8,5.3
				c22.2,18.9,50.7,30.1,81.4,30.1c69.2,0,125.5-56.2,125.7-125.4c0-2.6-0.1-5.2-0.3-7.8c0-0.5,0-1.1-0.1-1.6
				c-3.6-47.3-33.6-88.6-77.7-106.6c-0.2,0.6-0.5,1.1-0.7,1.7c-0.5,1.1-1,2.3-1.5,3.4c-1,2.3-2,4.6-3.1,6.8
				c-0.6,1.2-1.1,2.4-1.7,3.6c-1.1,2.3-2.3,4.6-3.5,6.8c-0.5,1-1.1,2.1-1.6,3.1c-1.7,3.2-3.5,6.4-5.4,9.6
				c-33.7,56.9-86.5,100.1-148.9,121.6c0,0-0.1,0-0.1,0C778.4,638.3,789.4,655.1,803.5,668.7z"/>
			<path id="Overlap_Right_00000055704806800060620070000000145792989237191296_" class="st8" d="M911,454.8
				c-1.1-0.2-2.1-0.3-3.2-0.5c-1.9-0.3-3.9-0.5-5.8-0.6c-0.9-0.1-1.8-0.2-2.7-0.3c-2.9-0.2-5.7-0.3-8.6-0.3
				c-69.3,0-125.6,56.3-125.7,125.6c0,3.7,0.2,7.5,0.6,11.6c0.4,3.8,1,7.7,1.7,11.5c1.5-0.5,3-1.1,4.5-1.7c1.9-0.7,3.8-1.4,5.7-2.1
				c1.7-0.7,3.3-1.4,5-2.1c1.9-0.8,3.7-1.5,5.6-2.4c1.7-0.8,3.3-1.6,5-2.4c1.8-0.9,3.6-1.7,5.4-2.6c1.6-0.8,3.2-1.7,4.9-2.6
				c1.7-0.9,3.5-1.8,5.2-2.8c1.6-0.9,3.2-1.9,4.7-2.8c1.7-1,3.4-2,5.1-3c1.6-1,3.1-2,4.7-3c1.6-1.1,3.3-2.1,4.8-3.2
				c1.6-1.1,3.1-2.2,4.6-3.3c1.5-1.1,3.1-2.2,4.6-3.3c1.6-1.2,3.1-2.4,4.6-3.6c1.5-1.1,2.9-2.3,4.4-3.4c1.5-1.3,3-2.6,4.5-3.8
				c1.4-1.2,2.8-2.3,4.1-3.6c1.5-1.3,3-2.7,4.4-4.1c1.3-1.2,2.6-2.4,3.9-3.7c1.5-1.5,2.9-3,4.4-4.5c1.2-1.2,2.4-2.4,3.6-3.7
				c1.5-1.6,2.9-3.2,4.3-4.8c1.1-1.2,2.3-2.5,3.3-3.7c1.5-1.7,2.8-3.4,4.3-5.2c1-1.2,2-2.4,3-3.7c1.5-1.9,2.9-3.8,4.3-5.8
				c0.8-1.1,1.7-2.3,2.6-3.4c1.5-2.1,2.9-4.2,4.4-6.4c0.7-1,1.4-2.1,2.1-3.1c2.1-3.2,4.1-6.5,6.1-9.8c1.7-2.9,3.4-5.9,5-8.8
				c0.5-0.9,1-1.9,1.5-2.8c1.1-2.1,2.2-4.3,3.3-6.4c0.5-1,1-2.1,1.5-3.1c1.1-2.3,2.1-4.6,3.2-7c0.4-0.8,0.7-1.6,1.1-2.5
				c0.1-0.3,0.2-0.6,0.3-0.8c-0.5-0.1-1.1-0.3-1.6-0.4c-1-0.2-2.1-0.5-3.1-0.7C914.6,455.4,912.8,455.1,911,454.8z"/>
			<path id="Center_00000154422544657267546380000000646993421299424167_" class="st8" d="M681.2,95.7
				c-129.9,0-238.8,94.7-257.5,222c1.2,0,2.4,0,3.6,0c116.3,0,211,94.6,211,211c0,28.1-5.5,55.3-16.2,81c41.7,9.7,86.1,9,127.9-2.5
				c-0.1-0.4-0.1-0.8-0.2-1.3c-0.3-1.6-0.6-3.1-0.8-4.7c-0.1-0.7-0.2-1.4-0.3-2.2c-0.3-2.2-0.6-4.5-0.8-6.7
				c-0.4-4.6-0.7-9.2-0.7-13.5c0-0.1,0-0.1,0-0.2c0-0.1,0-0.2,0-0.3c0-79.2,64.4-143.6,143.6-143.6c12.6,0,25,1.7,37.1,5
				c9.1-26.9,13.8-55,13.8-83.6C941.5,212.5,824.7,95.7,681.2,95.7z"/>
			<path id="Overlap_Left_00000131326458809751589470000014778055494533798078_" class="st8" d="M421.7,335.9
				c-0.1,1.4-0.3,2.8-0.3,4.2c-0.1,1.2-0.2,2.4-0.2,3.6c-0.2,4.1-0.3,8.3-0.3,12.3c0,3.6,0.1,7.2,0.2,10.8c0,1.2,0.2,2.4,0.2,3.6
				c0.1,2.4,0.3,4.8,0.4,7.1c0.1,1.4,0.3,2.8,0.4,4.2c0.2,2.1,0.4,4.2,0.7,6.3c0.2,1.5,0.4,3,0.6,4.5c0.3,2,0.6,4,0.9,6
				c0.3,1.5,0.6,3,0.8,4.5c0.4,1.9,0.7,3.9,1.1,5.8c0.3,1.5,0.7,3.1,1,4.6c0.4,1.9,0.8,3.8,1.3,5.6c0.4,1.5,0.8,3.1,1.2,4.6
				c0.5,1.8,1,3.7,1.5,5.5c0.5,1.5,1,3,1.4,4.6c0.6,1.8,1.1,3.6,1.7,5.4c0.5,1.5,1.1,3,1.6,4.5c0.6,1.8,1.3,3.5,1.9,5.3
				c0.6,1.5,1.2,3,1.8,4.5c0.7,1.7,1.4,3.5,2.1,5.2c0.6,1.5,1.3,2.9,2,4.4c0.8,1.7,1.5,3.4,2.3,5.1c0.7,1.4,1.4,2.9,2.1,4.3
				c0.8,1.7,1.7,3.3,2.5,4.9c0.7,1.4,1.5,2.8,2.3,4.2c0.9,1.6,1.8,3.2,2.7,4.8c0.8,1.4,1.6,2.7,2.5,4.1c1,1.6,1.9,3.2,2.9,4.7
				c0.9,1.3,1.7,2.7,2.6,4c1,1.5,2,3.1,3.1,4.6c0.9,1.3,1.8,2.6,2.8,3.9c1.1,1.5,2.1,3,3.3,4.5c1,1.3,1.9,2.5,2.9,3.8
				c1.1,1.5,2.3,2.9,3.4,4.3c1,1.2,2,2.5,3.1,3.7c1.2,1.4,2.4,2.8,3.6,4.2c1.1,1.2,2.1,2.4,3.2,3.6c1.2,1.4,2.5,2.7,3.8,4
				c1.1,1.2,2.2,2.3,3.3,3.4c1.3,1.3,2.6,2.6,3.9,3.9c1.1,1.1,2.3,2.2,3.5,3.3c1.4,1.3,2.7,2.5,4.1,3.8c1.2,1.1,2.4,2.1,3.6,3.2
				c1.4,1.2,2.8,2.4,4.2,3.6c1.2,1,2.5,2,3.7,3c1.5,1.2,2.9,2.3,4.4,3.4c1.3,1,2.6,1.9,3.9,2.9c1.5,1.1,3,2.2,4.5,3.3
				c1.3,0.9,2.6,1.8,4,2.7c1.6,1,3.1,2.1,4.7,3.1c1.4,0.9,2.7,1.7,4.1,2.6c1.6,1,3.2,1.9,4.8,2.9c1.4,0.8,2.8,1.6,4.2,2.4
				c1.6,0.9,3.3,1.8,5,2.7c1.4,0.8,2.8,1.5,4.3,2.2c1.7,0.9,3.4,1.7,5.1,2.5c1.5,0.7,2.9,1.4,4.4,2.1c1.7,0.8,3.5,1.6,5.2,2.3
				c1.5,0.6,3,1.3,4.5,1.9c1.8,0.7,3.6,1.4,5.4,2.1c1.5,0.6,3,1.2,4.6,1.7c1.8,0.7,3.7,1.3,5.5,1.9c1.5,0.5,3.1,1,4.6,1.5
				c0.5,0.2,1.1,0.3,1.6,0.5c0.3-0.8,0.7-1.6,1-2.4c0.6-1.4,1.1-2.8,1.7-4.2c0.7-1.7,1.3-3.5,1.9-5.3c0.5-1.4,1-2.8,1.5-4.3
				c0.6-1.8,1.1-3.6,1.7-5.4c0.4-1.4,0.8-2.9,1.2-4.3c0.5-1.8,0.9-3.7,1.4-5.5c0.3-1.4,0.7-2.8,1-4.3c0.4-1.9,0.7-3.8,1.1-5.7
				c0.3-1.4,0.5-2.8,0.7-4.2c0.3-2,0.6-4,0.8-6c0.2-1.3,0.4-2.6,0.5-4c0.2-2.2,0.4-4.5,0.5-6.8c0.1-1.1,0.2-2.2,0.3-3.3
				c0.2-3.4,0.3-6.8,0.3-10.2c0-106.4-86.6-193-193-193c-1.5,0-3,0-4.6,0.1C421.9,335.9,421.8,335.9,421.7,335.9z"/>
			<path id="Left_00000011008459335790312080000008011625702736791687_" class="st8" d="M403.4,340c0.1-0.9,0.1-1.8,0.1-2.7
				c-14.1,1.7-27.7,5-40.7,9.5c-1,0.4-2.1,0.7-3.1,1.1c-0.8,0.3-1.6,0.6-2.4,0.9c-72.2,28.3-123.1,98.8-123.1,179.8
				c0,106.4,86.6,193,193,193c22.7,0,44.8-4.1,65.5-11.6c0.9-0.3,1.8-0.7,2.7-1c3.2-1.2,6.3-2.5,9.4-3.9c1.9-0.8,3.7-1.7,5.6-2.6
				c1-0.5,2-1,3-1.5c11.3-5.7,22.1-12.6,32.1-20.4l20.3-18.3c11.8-12.2,22-26.1,30.3-41.3c-0.1,0-0.2-0.1-0.3-0.1
				c-1.5-0.5-2.9-1-4.3-1.5c-2.2-0.7-4.3-1.4-6.4-2.2c-1.6-0.6-3.1-1.2-4.6-1.8c-2-0.8-4-1.5-5.9-2.3c-1.6-0.7-3.1-1.4-4.7-2
				c-1.9-0.8-3.8-1.6-5.6-2.5c-1.6-0.7-3.1-1.5-4.7-2.3c-1.8-0.9-3.6-1.7-5.4-2.7c-1.6-0.8-3.1-1.6-4.6-2.5
				c-1.7-0.9-3.5-1.9-5.2-2.8c-1.5-0.9-3-1.8-4.6-2.7c-1.7-1-3.4-2-5-3c-1.5-0.9-3-1.9-4.5-2.9c-1.6-1-3.2-2.1-4.8-3.2
				c-1.5-1-2.9-2-4.4-3.1c-1.6-1.1-3.1-2.2-4.6-3.3c-1.4-1.1-2.9-2.2-4.3-3.2c-1.5-1.2-3-2.3-4.5-3.5c-1.4-1.1-2.8-2.3-4.1-3.4
				c-1.5-1.2-2.9-2.4-4.3-3.7c-1.4-1.2-2.7-2.4-4-3.6c-1.4-1.3-2.8-2.5-4.2-3.8c-1.3-1.2-2.6-2.5-3.9-3.7c-1.3-1.3-2.7-2.6-4-4
				c-1.3-1.3-2.5-2.6-3.7-3.9c-1.3-1.4-2.6-2.7-3.8-4.1c-1.2-1.3-2.4-2.7-3.6-4c-1.2-1.4-2.5-2.8-3.7-4.3c-1.1-1.4-2.3-2.7-3.4-4.1
				c-1.2-1.5-2.3-2.9-3.5-4.4c-1.1-1.4-2.2-2.8-3.2-4.3c-1.1-1.5-2.2-3-3.3-4.6c-1-1.4-2.1-2.9-3.1-4.4c-1.1-1.6-2.1-3.1-3.1-4.7
				c-1-1.5-1.9-3-2.9-4.5c-1-1.6-2-3.2-3-4.8c-0.9-1.5-1.8-3-2.7-4.6c-0.9-1.6-1.9-3.3-2.8-4.9c-0.9-1.6-1.7-3.1-2.5-4.7
				c-0.9-1.7-1.7-3.4-2.6-5.1c-0.8-1.6-1.6-3.2-2.3-4.8c-0.8-1.7-1.6-3.5-2.4-5.2c-0.7-1.6-1.5-3.2-2.2-4.8
				c-0.8-1.8-1.5-3.5-2.2-5.3c-0.7-1.6-1.3-3.3-2-4.9c-0.7-1.8-1.3-3.6-2-5.5c-0.6-1.6-1.2-3.3-1.7-4.9c-0.6-1.9-1.2-3.7-1.8-5.6
				c-0.5-1.7-1.1-3.3-1.5-5c-0.6-1.9-1.1-3.8-1.6-5.8c-0.4-1.7-0.9-3.3-1.3-5c-0.5-2-0.9-3.9-1.4-5.9c-0.4-1.7-0.8-3.3-1.1-5
				c-0.4-2-0.8-4.1-1.2-6.1c-0.3-1.6-0.6-3.3-0.9-4.9c-0.3-2.1-0.6-4.2-0.9-6.3c-0.2-1.6-0.5-3.2-0.7-4.8c-0.3-2.2-0.5-4.5-0.7-6.7
				c-0.2-1.5-0.3-3-0.5-4.5c-0.2-2.5-0.3-5.1-0.5-7.6c-0.1-1.3-0.2-2.5-0.2-3.8c-0.2-3.8-0.2-7.6-0.2-11.5c0-4.3,0.1-8.7,0.4-13.1
				C403.3,342,403.3,341,403.4,340z"/>
			<path id="Outline_00000152229421535308141640000017847357412708543652_" class="st2" d="M1034.3,578.3c0-2.7-0.2-5.4-0.3-8
				c0-0.9,0-1.7-0.1-2.6c-4-54.4-38.5-101.8-89.2-122.3c9.8-28.8,14.8-58.8,14.8-89.4c0-153.5-124.8-278.3-278.3-278.3
				c-140,0-257.2,103-275.7,241.1c-19.9,2.1-39,6.9-56.8,14.1c-0.4,0.2-0.8,0.3-1.2,0.5c-2.2,0.9-4.4,1.9-6.6,2.9
				c-1.2,0.6-2.5,1.1-3.7,1.7c-1.3,0.6-2.6,1.3-4,1.9c-2.1,1-4.2,2.1-6.2,3.2c-0.4,0.2-0.9,0.5-1.3,0.7
				c-65.6,36.1-110,105.9-110,184.9c0,116.3,94.6,211,211,211c15.3,0,30.4-1.8,45.1-5c1.1-0.2,2.2-0.5,3.4-0.8
				c3-0.7,5.9-1.4,8.8-2.3c3.2-0.9,6.5-1.9,9.7-2.9c0.5-0.2,1-0.4,1.5-0.5c12.5-4.3,24.6-9.8,36.1-16.3l104,114.6v154.4H729V826.5
				l103.8-116.3c17.8,7.9,37.5,12.2,57.9,12.2c79.2,0,143.6-64.4,143.6-143.6c0-0.1,0-0.1,0-0.2
				C1034.3,578.5,1034.3,578.4,1034.3,578.3z M510.5,702.5c-1.9,0.9-3.7,1.8-5.6,2.6c-3.1,1.4-6.2,2.7-9.4,3.9
				c-0.9,0.3-1.8,0.7-2.7,1c-20.7,7.5-42.9,11.6-65.5,11.6c-106.4,0-193-86.6-193-193c0-81,50.9-151.5,123.1-179.8
				c0.8-0.3,1.6-0.6,2.4-0.9c1-0.4,2.1-0.7,3.1-1.1c13-4.6,26.6-7.8,40.7-9.5c-0.1,0.9-0.1,1.8-0.1,2.7c-0.1,1-0.1,2-0.2,3
				c-0.2,4.4-0.4,8.8-0.4,13.1c0,3.8,0.1,7.7,0.2,11.5c0.1,1.3,0.2,2.5,0.2,3.8c0.1,2.5,0.3,5.1,0.5,7.6c0.1,1.5,0.3,3,0.5,4.5
				c0.2,2.2,0.4,4.5,0.7,6.7c0.2,1.6,0.5,3.2,0.7,4.8c0.3,2.1,0.6,4.2,0.9,6.3c0.3,1.7,0.6,3.3,0.9,4.9c0.4,2,0.7,4.1,1.2,6.1
				c0.3,1.7,0.7,3.3,1.1,5c0.4,2,0.9,3.9,1.4,5.9c0.4,1.7,0.9,3.3,1.3,5c0.5,1.9,1,3.8,1.6,5.8c0.5,1.7,1,3.3,1.5,5
				c0.6,1.9,1.2,3.8,1.8,5.6c0.6,1.7,1.2,3.3,1.7,4.9c0.7,1.8,1.3,3.7,2,5.5c0.6,1.6,1.3,3.3,2,4.9c0.7,1.8,1.4,3.6,2.2,5.3
				c0.7,1.6,1.4,3.2,2.2,4.8c0.8,1.7,1.6,3.5,2.4,5.2c0.8,1.6,1.6,3.2,2.3,4.8c0.8,1.7,1.7,3.4,2.6,5.1c0.8,1.6,1.7,3.1,2.5,4.7
				c0.9,1.7,1.8,3.3,2.8,4.9c0.9,1.5,1.8,3.1,2.7,4.6c1,1.6,2,3.2,3,4.8c0.9,1.5,1.9,3,2.9,4.5c1,1.6,2.1,3.1,3.1,4.7
				c1,1.5,2,2.9,3.1,4.4c1.1,1.5,2.2,3,3.3,4.6c1.1,1.4,2.1,2.8,3.2,4.3c1.2,1.5,2.3,3,3.5,4.4c1.1,1.4,2.3,2.8,3.4,4.1
				c1.2,1.4,2.4,2.9,3.7,4.3c1.2,1.3,2.4,2.7,3.6,4c1.3,1.4,2.5,2.8,3.8,4.1c1.2,1.3,2.5,2.6,3.7,3.9c1.3,1.3,2.7,2.7,4,4
				c1.3,1.2,2.6,2.5,3.9,3.7c1.4,1.3,2.8,2.6,4.2,3.8c1.3,1.2,2.7,2.4,4,3.6c1.4,1.2,2.9,2.5,4.3,3.7c1.4,1.1,2.7,2.3,4.1,3.4
				c1.5,1.2,3,2.3,4.5,3.5c1.4,1.1,2.8,2.2,4.3,3.2c1.5,1.1,3.1,2.2,4.6,3.3c1.5,1,2.9,2.1,4.4,3.1c1.6,1.1,3.2,2.1,4.8,3.2
				c1.5,1,3,1.9,4.5,2.9c1.7,1,3.3,2,5,3c1.5,0.9,3,1.8,4.6,2.7c1.7,1,3.5,1.9,5.2,2.8c1.5,0.8,3.1,1.7,4.6,2.5
				c1.8,0.9,3.6,1.8,5.4,2.7c1.6,0.8,3.1,1.5,4.7,2.3c1.9,0.9,3.8,1.7,5.6,2.5c1.6,0.7,3.1,1.4,4.7,2c2,0.8,4,1.6,5.9,2.3
				c1.5,0.6,3.1,1.2,4.6,1.8c2.1,0.8,4.3,1.5,6.4,2.2c1.4,0.5,2.9,1,4.3,1.5c0.1,0,0.2,0.1,0.3,0.1c-8.3,15.2-18.5,29-30.3,41.3
				l-20.3,18.3c-10,7.8-20.8,14.7-32.1,20.4C512.5,701.5,511.5,702,510.5,702.5z M421.2,343.7c0.1-1.2,0.1-2.4,0.2-3.6
				c0.1-1.4,0.2-2.8,0.3-4.2c0.1,0,0.2,0,0.3,0c1.6-0.1,3.2-0.1,4.6-0.1c106.4,0,193,86.6,193,193c0,3.4-0.1,6.8-0.3,10.2
				c-0.1,1.1-0.2,2.2-0.3,3.3c-0.2,2.3-0.3,4.5-0.5,6.8c-0.1,1.3-0.3,2.6-0.5,4c-0.3,2-0.5,4-0.8,6c-0.2,1.4-0.5,2.8-0.7,4.2
				c-0.3,1.9-0.7,3.8-1.1,5.7c-0.3,1.4-0.7,2.8-1,4.3c-0.4,1.8-0.9,3.7-1.4,5.5c-0.4,1.4-0.8,2.9-1.2,4.3c-0.5,1.8-1.1,3.6-1.7,5.4
				c-0.5,1.4-1,2.9-1.5,4.3c-0.6,1.8-1.3,3.5-1.9,5.3c-0.5,1.4-1.1,2.8-1.7,4.2c-0.3,0.8-0.7,1.6-1,2.4c-0.5-0.2-1.1-0.3-1.6-0.5
				c-1.6-0.5-3.1-1-4.6-1.5c-1.8-0.6-3.7-1.2-5.5-1.9c-1.5-0.6-3-1.1-4.6-1.7c-1.8-0.7-3.6-1.4-5.4-2.1c-1.5-0.6-3-1.3-4.5-1.9
				c-1.8-0.8-3.5-1.5-5.2-2.3c-1.5-0.7-2.9-1.4-4.4-2.1c-1.7-0.8-3.4-1.7-5.1-2.5c-1.4-0.7-2.9-1.5-4.3-2.2c-1.7-0.9-3.3-1.8-5-2.7
				c-1.4-0.8-2.8-1.6-4.2-2.4c-1.6-1-3.2-1.9-4.8-2.9c-1.4-0.8-2.7-1.7-4.1-2.6c-1.6-1-3.1-2-4.7-3.1c-1.3-0.9-2.6-1.8-4-2.7
				c-1.5-1.1-3-2.2-4.5-3.3c-1.3-0.9-2.6-1.9-3.9-2.9c-1.5-1.1-2.9-2.3-4.4-3.4c-1.3-1-2.5-2-3.7-3c-1.4-1.2-2.8-2.4-4.2-3.6
				c-1.2-1-2.4-2.1-3.6-3.2c-1.4-1.2-2.7-2.5-4.1-3.8c-1.2-1.1-2.3-2.2-3.5-3.3c-1.3-1.3-2.6-2.6-3.9-3.9c-1.1-1.1-2.2-2.3-3.3-3.4
				c-1.3-1.3-2.5-2.7-3.8-4c-1.1-1.2-2.2-2.4-3.2-3.6c-1.2-1.4-2.4-2.8-3.6-4.2c-1-1.2-2.1-2.4-3.1-3.7c-1.2-1.4-2.3-2.9-3.4-4.3
				c-1-1.3-2-2.5-2.9-3.8c-1.1-1.5-2.2-3-3.3-4.5c-0.9-1.3-1.9-2.6-2.8-3.9c-1-1.5-2.1-3.1-3.1-4.6c-0.9-1.3-1.8-2.7-2.6-4
				c-1-1.6-1.9-3.1-2.9-4.7c-0.8-1.4-1.7-2.7-2.5-4.1c-0.9-1.6-1.8-3.2-2.7-4.8c-0.8-1.4-1.6-2.8-2.3-4.2c-0.9-1.6-1.7-3.3-2.5-4.9
				c-0.7-1.4-1.4-2.8-2.1-4.3c-0.8-1.7-1.6-3.4-2.3-5.1c-0.7-1.5-1.3-2.9-2-4.4c-0.7-1.7-1.4-3.4-2.1-5.2c-0.6-1.5-1.2-3-1.8-4.5
				c-0.7-1.7-1.3-3.5-1.9-5.3c-0.5-1.5-1.1-3-1.6-4.5c-0.6-1.8-1.2-3.6-1.7-5.4c-0.5-1.5-1-3-1.4-4.6c-0.5-1.8-1-3.7-1.5-5.5
				c-0.4-1.5-0.9-3.1-1.2-4.6c-0.5-1.9-0.9-3.7-1.3-5.6c-0.4-1.5-0.7-3.1-1-4.6c-0.4-1.9-0.7-3.9-1.1-5.8c-0.3-1.5-0.6-3-0.8-4.5
				c-0.3-2-0.6-4-0.9-6c-0.2-1.5-0.5-3-0.6-4.5c-0.3-2.1-0.5-4.2-0.7-6.3c-0.1-1.4-0.3-2.8-0.4-4.2c-0.2-2.4-0.3-4.7-0.4-7.1
				c-0.1-1.2-0.2-2.4-0.2-3.6c-0.1-3.6-0.2-7.2-0.2-10.8C420.9,352,421,347.9,421.2,343.7z M614.3,626.2c21.8,5.4,44.3,8.1,66.9,8.1
				c24.7,0,49.2-3.3,73-9.8l0,0.2l0.3-0.1c2.6,7.6,5.7,14.9,9.4,21.8l-82,92l-81.5-89.7C605.5,641.6,610.2,634.1,614.3,626.2z
				 M767.2,601.7c-0.7-3.9-1.3-7.7-1.7-11.5c-0.4-4-0.6-7.8-0.6-11.6c0.1-69.2,56.4-125.6,125.7-125.6c2.9,0,5.7,0.1,8.6,0.3
				c0.9,0.1,1.8,0.2,2.7,0.3c1.9,0.2,3.9,0.4,5.8,0.6c1.1,0.1,2.1,0.3,3.2,0.5c1.8,0.3,3.6,0.6,5.4,1c1,0.2,2.1,0.4,3.1,0.7
				c0.5,0.1,1.1,0.3,1.6,0.4c-0.1,0.3-0.2,0.6-0.3,0.8c-0.3,0.8-0.7,1.6-1.1,2.5c-1,2.3-2.1,4.7-3.2,7c-0.5,1-1,2.1-1.5,3.1
				c-1.1,2.2-2.1,4.3-3.3,6.4c-0.5,0.9-1,1.9-1.5,2.8c-1.6,3-3.3,5.9-5,8.8c-2,3.3-4,6.6-6.1,9.8c-0.7,1.1-1.4,2.1-2.1,3.1
				c-1.4,2.1-2.9,4.3-4.4,6.4c-0.8,1.2-1.7,2.3-2.6,3.4c-1.4,1.9-2.8,3.9-4.3,5.8c-1,1.2-2,2.4-3,3.7c-1.4,1.7-2.8,3.5-4.3,5.2
				c-1.1,1.3-2.2,2.5-3.3,3.7c-1.4,1.6-2.8,3.2-4.3,4.8c-1.2,1.3-2.4,2.4-3.6,3.7c-1.5,1.5-2.9,3-4.4,4.5c-1.3,1.2-2.6,2.4-3.9,3.7
				c-1.5,1.4-2.9,2.8-4.4,4.1c-1.4,1.2-2.8,2.4-4.1,3.6c-1.5,1.3-3,2.6-4.5,3.8c-1.4,1.2-2.9,2.3-4.4,3.4c-1.5,1.2-3,2.4-4.6,3.6
				c-1.5,1.1-3.1,2.2-4.6,3.3c-1.5,1.1-3.1,2.2-4.6,3.3c-1.6,1.1-3.2,2.1-4.8,3.2c-1.6,1-3.1,2.1-4.7,3c-1.7,1-3.4,2-5.1,3
				c-1.6,0.9-3.1,1.9-4.7,2.8c-1.7,1-3.5,1.9-5.2,2.8c-1.6,0.9-3.2,1.7-4.9,2.6c-1.8,0.9-3.6,1.7-5.4,2.6c-1.7,0.8-3.3,1.6-5,2.4
				c-1.8,0.8-3.7,1.6-5.6,2.4c-1.7,0.7-3.3,1.4-5,2.1c-1.9,0.8-3.8,1.4-5.7,2.1C770.2,600.6,768.7,601.2,767.2,601.7z M890.7,704
				c-30.6,0-59.2-11.2-81.4-30.1l-5.8-5.3c-14-13.5-25-30.4-31.6-49.5c0,0,0.1,0,0.1,0c62.3-21.5,115.2-64.7,148.9-121.6
				c1.9-3.1,3.6-6.3,5.4-9.6c0.6-1,1.1-2.1,1.6-3.1c1.2-2.3,2.3-4.5,3.5-6.8c0.6-1.2,1.1-2.4,1.7-3.6c1.1-2.3,2.1-4.5,3.1-6.8
				c0.5-1.1,1-2.3,1.5-3.4c0.2-0.6,0.5-1.1,0.7-1.7c44.1,18,74.1,59.3,77.7,106.6c0,0.5,0,1.1,0.1,1.6c0.2,2.6,0.3,5.2,0.3,7.8
				C1016.2,647.8,959.9,704,890.7,704z M681.2,95.7c143.6,0,260.3,116.8,260.3,260.3c0,28.6-4.6,56.7-13.8,83.6
				c-12.1-3.2-24.5-5-37.1-5c-79.2,0-143.6,64.4-143.6,143.6c0,0.1,0,0.2,0,0.3c0,0.1,0,0.1,0,0.2c0,4.4,0.2,8.9,0.7,13.5
				c0.2,2.2,0.5,4.5,0.8,6.7c0.1,0.7,0.2,1.4,0.3,2.2c0.2,1.6,0.5,3.1,0.8,4.7c0.1,0.4,0.1,0.8,0.2,1.3
				c-41.7,11.4-86.1,12.2-127.9,2.5c10.7-25.7,16.2-52.9,16.2-81c0-116.3-94.6-211-211-211c-1.2,0-2.4,0-3.6,0
				C442.4,190.4,551.3,95.7,681.2,95.7z M711,819.6v143.3h-57.9V819.6L546.5,702.4c15.7-10.7,29.9-23.6,42.2-38.2l93.4,101.1
				l92.3-102.6c11.3,15.6,25.7,28.7,42.1,38.6L711,819.6z"/>
			<path id="Registered_00000008146950489053601550000009647108353211800973_" class="st8" d="M794.3,944.1c0,11-8.7,19.6-20,19.6
				c-11.2,0-20.1-8.6-20.1-19.6c0-10.8,8.9-19.4,20.1-19.4C785.6,924.7,794.3,933.4,794.3,944.1z M759.2,944.1
				c0,8.6,6.4,15.5,15.2,15.5c8.6,0,14.9-6.9,14.9-15.4c0-8.6-6.3-15.6-15-15.6C765.6,928.6,759.2,935.6,759.2,944.1z M771.2,954.3
				h-4.5v-19.4c1.8-0.4,4.3-0.6,7.5-0.6c3.7,0,5.4,0.6,6.8,1.4c1.1,0.8,1.9,2.4,1.9,4.3c0,2.1-1.7,3.8-4,4.5v0.2
				c1.9,0.7,3,2.1,3.6,4.7c0.6,3,1,4.1,1.4,4.8h-4.9c-0.6-0.7-1-2.5-1.5-4.7c-0.4-2.1-1.5-3.1-4-3.1h-2.1V954.3z M771.3,943.3h2.1
				c2.5,0,4.5-0.8,4.5-2.8c0-1.8-1.3-3-4.2-3c-1.2,0-2,0.1-2.5,0.2V943.3z"/>
		</g>
		<g id="Text_00000173856897136390388500000017918682882612504713_">
			<path id="Registered_00000054268243460539252790000015819180761154890920_" class="st8" d="M1207,1062.4c0,11-8.7,19.6-20,19.6
				c-11.2,0-20.1-8.6-20.1-19.6c0-10.8,8.9-19.4,20.1-19.4C1198.3,1043,1207,1051.7,1207,1062.4z M1171.9,1062.4
				c0,8.6,6.4,15.5,15.2,15.5c8.6,0,14.9-6.9,14.9-15.4c0-8.6-6.3-15.6-15-15.6C1178.3,1046.9,1171.9,1053.9,1171.9,1062.4z
				 M1183.9,1072.6h-4.5v-19.4c1.8-0.4,4.3-0.6,7.5-0.6c3.7,0,5.4,0.6,6.8,1.4c1.1,0.8,1.9,2.4,1.9,4.3c0,2.1-1.7,3.8-4,4.5v0.2
				c1.9,0.7,3,2.1,3.6,4.7c0.6,3,1,4.1,1.4,4.8h-4.9c-0.6-0.7-1-2.5-1.5-4.7c-0.4-2.1-1.5-3.1-4-3.1h-2.1V1072.6z M1184,1061.6h2.1
				c2.5,0,4.5-0.8,4.5-2.8c0-1.8-1.3-3-4.2-3c-1.2,0-2,0.1-2.5,0.2V1061.6z"/>
			<path id="S_00000102524672493202205520000002247806833737155475_" class="st8" d="M1133.6,1084.5c-1.1-1.2-2.6-2.4-4.6-3.8
				c-2-1.3-4.4-2.6-7.1-3.8c-2.7-1.2-5.7-2.1-8.9-2.9c-3.2-0.7-6.6-1.1-10-1.1c-7.6,0-13.1,1.4-16.7,4.1c-3.6,2.8-5.3,6.6-5.3,11.5
				c0,2.8,0.6,5,1.7,6.8c1.1,1.8,2.8,3.3,5.2,4.6c2.3,1.3,5.3,2.5,8.8,3.5c3.5,1,7.6,2.1,12.3,3.3c5.7,1.4,10.9,2.9,15.6,4.6
				c4.6,1.7,8.5,3.8,11.7,6.2c3.2,2.4,5.7,5.5,7.4,9c1.8,3.6,2.6,7.9,2.6,13c0,5.7-1.1,10.7-3.3,14.8c-2.2,4.1-5.2,7.5-8.9,10.1
				c-3.8,2.6-8.2,4.5-13.2,5.7c-5,1.2-10.4,1.8-16.1,1.8c-8.6,0-16.9-1.3-25-3.9c-8-2.6-15.3-6.4-21.8-11.4l8.1-15.3
				c1.4,1.4,3.4,2.9,6,4.6c2.6,1.7,5.6,3.3,9.1,4.7c3.5,1.4,7.2,2.7,11.3,3.7c4,1,8.2,1.5,12.6,1.5c7,0,12.4-1.2,16.3-3.7
				c3.8-2.4,5.7-6.1,5.7-10.9c0-2.9-0.7-5.3-2.2-7.2c-1.4-1.9-3.5-3.6-6.1-5c-2.7-1.4-5.9-2.7-9.7-3.9c-3.8-1.2-8.2-2.4-13.1-3.7
				c-5.6-1.5-10.6-3.1-14.8-4.7c-4.2-1.6-7.7-3.6-10.5-6c-2.8-2.3-4.9-5.1-6.3-8.2c-1.4-3.1-2.2-6.9-2.2-11.4
				c0-5.5,1.1-10.5,3.2-14.8c2.1-4.3,5-7.9,8.7-10.9c3.7-2.9,8-5.1,13-6.6c5-1.5,10.4-2.2,16.3-2.2c7.7,0,14.7,1.2,21.2,3.7
				c6.5,2.4,12.2,5.5,17.1,9.1L1133.6,1084.5z"/>
			<path id="W_00000095312875633033112020000011761351076953338046_" class="st8" d="M925.9,1058.3h16.9l13.9,38.5l14-38.5h16.8
				l-19.3,50.4l16.9,41.7l35.3-92.6h19.6l-46.8,113.3h-15.3l-21.1-50.8l-21.2,50.8h-15.3l-46.8-113.3H893l35.4,92.6l16.9-41.7
				L925.9,1058.3z"/>
			<path id="O_00000151542622699398403560000017129580960224380857_" class="st8" d="M800.9,1171.9c-8.1,0-15.5-1.6-22.1-4.9
				c-6.7-3.2-12.4-7.6-17.2-12.9c-4.8-5.4-8.5-11.5-11.1-18.4c-2.6-6.9-3.9-14-3.9-21.2c0-7.6,1.4-14.8,4.1-21.7
				c2.8-6.9,6.6-13,11.4-18.4c4.8-5.3,10.6-9.5,17.2-12.7c6.6-3.1,13.9-4.7,21.8-4.7c8.1,0,15.5,1.7,22.1,5
				c6.6,3.4,12.3,7.7,17.1,13.2c4.7,5.4,8.4,11.6,11,18.4c2.6,6.9,3.9,13.9,3.9,21c0,7.6-1.4,14.8-4.1,21.7
				c-2.7,6.9-6.5,13-11.4,18.3c-4.9,5.3-10.7,9.5-17.3,12.6C815.9,1170.4,808.7,1171.9,800.9,1171.9z M764.8,1114.5
				c0,5.3,0.9,10.5,2.6,15.5c1.7,5,4.1,9.4,7.3,13.2c3.1,3.8,6.9,6.9,11.4,9.2c4.5,2.3,9.5,3.4,15,3.4c5.7,0,10.8-1.2,15.2-3.6
				c4.4-2.4,8.2-5.6,11.3-9.5c3.1-3.9,5.4-8.4,7-13.2c1.6-4.9,2.4-9.9,2.4-15c0-5.4-0.9-10.6-2.6-15.6c-1.7-4.9-4.1-9.3-7.3-13.1
				c-3.1-3.8-6.9-6.8-11.3-9.1c-4.4-2.3-9.3-3.4-14.8-3.4c-5.7,0-10.9,1.2-15.3,3.6c-4.5,2.4-8.2,5.5-11.3,9.3
				c-3.1,3.8-5.5,8.2-7.1,13.2C765.6,1104.4,764.8,1109.4,764.8,1114.5z"/>
			<path id="D_00000050625201603689986590000016192393896849030017_" class="st8" d="M623.6,1171.1v-113.3h40.2
				c9.1,0,17.2,1.5,24,4.5c6.9,3,12.6,7,17.2,12.1c4.6,5.1,8.1,11.1,10.5,18c2.3,6.9,3.5,14.2,3.5,21.9c0,8.6-1.3,16.4-3.9,23.4
				c-2.6,7-6.3,12.9-11.1,17.9c-4.8,4.9-10.6,8.8-17.4,11.5c-6.8,2.7-14.4,4.1-22.8,4.1H623.6z M700.8,1114.3c0-6-0.8-11.4-2.5-16.4
				c-1.7-5-4.1-9.3-7.3-12.8c-3.2-3.6-7.1-6.4-11.7-8.4c-4.6-2-9.8-3-15.6-3h-22.3v81.7h22.3c6,0,11.3-1,15.9-3.1
				c4.6-2.1,8.5-4.9,11.7-8.6c3.1-3.7,5.5-8,7.1-13C700,1125.6,700.8,1120.2,700.8,1114.3z"/>
			<path id="A_00000153702192840816532990000011338771695469864340_" class="st8" d="M533.3,1057.8h15.6l44.7,113.3h-18.8l-12-30.8
				H519l-11.8,30.8h-19L533.3,1057.8z M559.3,1127.1l-18.2-48.7l-18.8,48.7H559.3z"/>
			<path id="E_00000137110667347007067080000013137349710937661107_" class="st8" d="M465.4,1155.3v15.8h-77.7v-113.3H464v15.8
				h-58.4v32.2h50.6v14.8h-50.6v34.6H465.4z"/>
			<path id="M_00000052095845138059065150000010152055226363961735_" class="st8" d="M328.2,1171.1v-81.6l-33.7,61.8h-9.9
				l-33.8-61.8v81.6h-17.9v-113.3H252l37.5,69.3l37.5-69.3h19.2v113.3H328.2z"/>
			<path id="Y_00000154404995123689469760000016194154643158396828_" class="st8" d="M70.4,1057.8l31.3,56.8l31.6-56.8h19.6
				l-42.3,72.8v40.5H92.8v-40.9l-42-72.5H70.4z"/>
		</g>
	</g>
</g>
</svg>
