<svg width="212" height="212" viewBox="0 0 212 212" fill="none" xmlns="http://www.w3.org/2000/svg">
<path d="M0.5 94.3744V80.9299L33.0832 105.921L0.5 130.912V117.467L15.5262 105.921L0.5 94.3744ZM211.5 94.3744V80.9299L178.917 105.921L211.342 130.912V117.467L196.316 105.921L211.5 94.3744ZM106 196.395L117.546 211.421H130.991L106 178.996L81.009 211.579H94.4535L106 196.395ZM94.4535 0.420898H81.009L106 33.0041L130.991 0.420898H117.546L106 15.4471L94.4535 0.420898ZM159.62 52.301H52.2219V159.699H159.62V52.301ZM64.8756 64.7965H147.124V147.045H64.8756V64.7965ZM86.545 106.079C86.545 101.65 87.0195 97.8542 87.9685 94.5326C88.9175 91.211 90.1829 88.5221 91.9228 86.3077C93.6627 84.0933 95.5607 82.5116 97.9333 81.4044C100.306 80.2972 102.837 79.8227 105.684 79.8227C111.852 79.8227 116.439 82.0371 119.761 86.3077C123.082 90.5783 124.664 97.2215 124.664 106.237C124.664 110.666 124.19 114.62 123.241 117.942C122.292 121.263 121.026 123.952 119.286 126.167C117.546 128.381 115.648 129.963 113.276 131.07C110.903 132.177 108.373 132.652 105.525 132.652C99.3568 132.652 94.6117 130.437 91.4483 125.85C88.1267 121.263 86.545 114.778 86.545 106.079ZM96.0352 106.079C96.0352 106.87 96.0352 107.503 96.0352 108.135C96.0352 108.768 96.0352 109.401 96.1934 110.192L113.75 94.0581C112.327 89.9456 109.638 87.8894 105.684 87.8894C102.678 87.8894 100.306 89.313 98.566 92.3182C96.8261 95.1653 96.0352 99.9104 96.0352 106.079ZM115.332 106.079C115.332 105.288 115.332 104.497 115.332 103.865C115.332 103.232 115.332 102.441 115.174 101.808L97.4588 117.942C98.8823 122.371 101.729 124.585 105.525 124.585C108.531 124.585 110.903 123.162 112.643 120.156C114.383 117.151 115.332 112.564 115.332 106.079Z" fill="#0D4984"/>
</svg>
