<?xml version="1.0" encoding="utf-8"?>
<!-- Generator: Adobe Illustrator 26.0.2, SVG Export Plug-In . SVG Version: 6.00 Build 0)  -->
<svg version="1.1" id="Layer_1" xmlns="http://www.w3.org/2000/svg" xmlns:xlink="http://www.w3.org/1999/xlink" x="0px" y="0px"
	 viewBox="0 0 133.4 133.7" style="enable-background:new 0 0 133.4 133.7;" xml:space="preserve">
<style type="text/css">
	.st0{fill:#53B3DD;}
</style>
<path class="st0" d="M0,59.5L0,51l20.6,15.8L0,82.6l0-8.5l9.5-7.3L0,59.5z M133.4,59.5l0-8.5l-20.6,15.8l20.5,15.8l0-8.5l-9.5-7.3
	L133.4,59.5z M66.7,124l7.3,9.5l8.5,0L66.7,113l-15.8,20.6l8.5,0L66.7,124z M59.4,0.1l-8.5,0l15.8,20.6L82.5,0.1l-8.5,0l-7.3,9.5
	L59.4,0.1z M100.6,32.9H32.7v67.9h67.9V32.9z M40.7,40.8h52v52h-52V40.8z M54.4,66.9c0-2.8,0.3-5.2,0.9-7.3c0.6-2.1,1.4-3.8,2.5-5.2
	c1.1-1.4,2.3-2.4,3.8-3.1c1.5-0.7,3.1-1,4.9-1c3.9,0,6.8,1.4,8.9,4.1c2.1,2.7,3.1,6.9,3.1,12.6c0,2.8-0.3,5.3-0.9,7.4
	c-0.6,2.1-1.4,3.8-2.5,5.2c-1.1,1.4-2.3,2.4-3.8,3.1c-1.5,0.7-3.1,1-4.9,1c-3.9,0-6.9-1.4-8.9-4.3C55.4,76.5,54.4,72.4,54.4,66.9z
	 M60.4,66.9c0,0.5,0,0.9,0,1.3c0,0.4,0,0.8,0.1,1.3l11.1-10.2c-0.9-2.6-2.6-3.9-5.1-3.9c-1.9,0-3.4,0.9-4.5,2.8
	C60.9,60,60.4,63,60.4,66.9z M72.6,66.9c0-0.5,0-1,0-1.4c0-0.4,0-0.9-0.1-1.3L61.3,74.4c0.9,2.8,2.7,4.2,5.1,4.2
	c1.9,0,3.4-0.9,4.5-2.8C72,73.9,72.6,71,72.6,66.9z"/>
</svg>
