<svg width="932" height="353" viewBox="0 0 932 353" fill="none" xmlns="http://www.w3.org/2000/svg">
<path d="M128.34 56.4771C128.34 56.1343 128.288 55.8267 128.182 55.5542C128.085 55.2729 127.901 55.0181 127.628 54.7896C127.356 54.5522 126.974 54.3193 126.481 54.0908C125.989 53.8623 125.352 53.625 124.57 53.3789C123.7 53.0977 122.874 52.7812 122.091 52.4297C121.318 52.0781 120.632 51.6694 120.035 51.2036C119.446 50.729 118.98 50.1797 118.637 49.5557C118.303 48.9316 118.136 48.2065 118.136 47.3804C118.136 46.5806 118.312 45.8555 118.664 45.2051C119.015 44.5459 119.507 43.9834 120.14 43.5176C120.773 43.043 121.52 42.6782 122.381 42.4233C123.251 42.1685 124.205 42.041 125.242 42.041C126.657 42.041 127.892 42.2959 128.947 42.8057C130.001 43.3154 130.819 44.0142 131.399 44.9019C131.988 45.7896 132.282 46.8047 132.282 47.9473H128.354C128.354 47.3848 128.235 46.8926 127.998 46.4707C127.769 46.04 127.417 45.7017 126.943 45.4556C126.477 45.2095 125.888 45.0864 125.176 45.0864C124.491 45.0864 123.919 45.1919 123.462 45.4028C123.005 45.605 122.663 45.8818 122.434 46.2334C122.206 46.5762 122.091 46.9629 122.091 47.3936C122.091 47.7188 122.17 48.0132 122.329 48.2769C122.496 48.5405 122.742 48.7866 123.067 49.0151C123.392 49.2437 123.792 49.459 124.267 49.6611C124.741 49.8633 125.291 50.061 125.915 50.2544C126.96 50.5708 127.879 50.9268 128.67 51.3223C129.47 51.7178 130.138 52.1616 130.674 52.6538C131.21 53.146 131.614 53.7041 131.887 54.3281C132.159 54.9521 132.295 55.6597 132.295 56.4507C132.295 57.2856 132.133 58.0327 131.808 58.6919C131.482 59.3511 131.012 59.9092 130.397 60.3662C129.782 60.8232 129.048 61.1704 128.195 61.4077C127.343 61.645 126.389 61.7637 125.334 61.7637C124.385 61.7637 123.449 61.6406 122.526 61.3945C121.604 61.1396 120.764 60.7573 120.008 60.2476C119.261 59.7378 118.664 59.0874 118.215 58.2964C117.767 57.5054 117.543 56.5693 117.543 55.4883H121.511C121.511 56.0859 121.604 56.5913 121.788 57.0044C121.973 57.4175 122.232 57.7515 122.566 58.0063C122.909 58.2612 123.313 58.4458 123.779 58.5601C124.253 58.6743 124.772 58.7314 125.334 58.7314C126.02 58.7314 126.583 58.6348 127.022 58.4414C127.47 58.248 127.8 57.98 128.011 57.6372C128.23 57.2944 128.34 56.9077 128.34 56.4771ZM141.313 61.7637C140.206 61.7637 139.212 61.5879 138.333 61.2363C137.455 60.876 136.708 60.3794 136.092 59.7466C135.486 59.1138 135.02 58.3799 134.695 57.5449C134.37 56.7012 134.207 55.8047 134.207 54.8555V54.3281C134.207 53.2471 134.361 52.2583 134.668 51.3618C134.976 50.4653 135.416 49.6875 135.987 49.0283C136.567 48.3691 137.27 47.8638 138.096 47.5122C138.922 47.1519 139.854 46.9717 140.891 46.9717C141.902 46.9717 142.798 47.1387 143.581 47.4727C144.363 47.8066 145.018 48.2812 145.545 48.8965C146.081 49.5117 146.485 50.25 146.758 51.1113C147.03 51.9639 147.167 52.9131 147.167 53.959V55.541H135.829V53.0098H143.436V52.7197C143.436 52.1924 143.339 51.7222 143.146 51.3091C142.961 50.8872 142.68 50.5532 142.302 50.3071C141.924 50.061 141.44 49.938 140.852 49.938C140.351 49.938 139.92 50.0479 139.56 50.2676C139.199 50.4873 138.905 50.7949 138.676 51.1904C138.457 51.5859 138.29 52.0518 138.175 52.5879C138.07 53.1152 138.017 53.6953 138.017 54.3281V54.8555C138.017 55.4268 138.096 55.9541 138.254 56.4375C138.421 56.9209 138.654 57.3384 138.953 57.6899C139.261 58.0415 139.63 58.314 140.061 58.5073C140.5 58.7007 140.997 58.7974 141.55 58.7974C142.236 58.7974 142.873 58.6655 143.462 58.4019C144.06 58.1294 144.574 57.7207 145.004 57.1758L146.85 59.1797C146.551 59.6104 146.143 60.0234 145.624 60.4189C145.114 60.8145 144.499 61.1396 143.778 61.3945C143.058 61.6406 142.236 61.7637 141.313 61.7637ZM153.125 50.3467V61.5H149.329V47.2354H152.901L153.125 50.3467ZM157.423 47.1431L157.357 50.6631C157.173 50.6367 156.949 50.6147 156.685 50.5972C156.43 50.5708 156.197 50.5576 155.986 50.5576C155.45 50.5576 154.984 50.6279 154.589 50.7686C154.202 50.9004 153.877 51.0981 153.613 51.3618C153.358 51.6255 153.165 51.9463 153.033 52.3242C152.91 52.7021 152.84 53.1328 152.822 53.6162L152.058 53.3789C152.058 52.4561 152.15 51.6079 152.334 50.8345C152.519 50.0522 152.787 49.3711 153.139 48.791C153.499 48.2109 153.938 47.7627 154.457 47.4463C154.976 47.1299 155.569 46.9717 156.237 46.9717C156.448 46.9717 156.663 46.9893 156.883 47.0244C157.103 47.0508 157.283 47.0903 157.423 47.1431ZM164.305 58.7314L167.469 47.2354H171.438L166.625 61.5H164.226L164.305 58.7314ZM162.13 47.2354L165.307 58.7446L165.373 61.5H162.96L158.148 47.2354H162.13ZM177.146 47.2354V61.5H173.336V47.2354H177.146ZM173.099 43.5176C173.099 42.9639 173.292 42.5068 173.679 42.1465C174.065 41.7861 174.584 41.606 175.234 41.606C175.876 41.606 176.39 41.7861 176.777 42.1465C177.172 42.5068 177.37 42.9639 177.37 43.5176C177.37 44.0713 177.172 44.5283 176.777 44.8887C176.39 45.249 175.876 45.4292 175.234 45.4292C174.584 45.4292 174.065 45.249 173.679 44.8887C173.292 44.5283 173.099 44.0713 173.099 43.5176ZM184.001 50.2808V61.5H180.205V47.2354H183.764L184.001 50.2808ZM183.448 53.8667H182.419C182.419 52.812 182.556 51.8628 182.828 51.019C183.101 50.1665 183.483 49.4414 183.975 48.8438C184.467 48.2373 185.052 47.7759 185.729 47.4595C186.414 47.1343 187.179 46.9717 188.022 46.9717C188.69 46.9717 189.301 47.0684 189.855 47.2617C190.409 47.4551 190.883 47.7627 191.279 48.1846C191.683 48.6064 191.991 49.1646 192.202 49.8589C192.421 50.5532 192.531 51.4014 192.531 52.4033V61.5H188.708V52.3901C188.708 51.7573 188.62 51.2651 188.444 50.9136C188.269 50.562 188.009 50.3159 187.667 50.1753C187.333 50.0259 186.919 49.9512 186.427 49.9512C185.917 49.9512 185.474 50.0522 185.096 50.2544C184.727 50.4565 184.419 50.7378 184.173 51.0981C183.936 51.4497 183.755 51.8628 183.632 52.3374C183.509 52.812 183.448 53.3218 183.448 53.8667ZM204.449 47.2354H207.89V61.0254C207.89 62.3262 207.6 63.4292 207.02 64.3345C206.449 65.2485 205.649 65.9385 204.621 66.4043C203.592 66.8789 202.397 67.1162 201.035 67.1162C200.437 67.1162 199.804 67.0371 199.136 66.8789C198.477 66.7207 197.844 66.4746 197.238 66.1406C196.64 65.8066 196.139 65.3848 195.735 64.875L197.409 62.6338C197.849 63.1436 198.358 63.5391 198.938 63.8203C199.519 64.1104 200.16 64.2554 200.863 64.2554C201.549 64.2554 202.129 64.1279 202.604 63.873C203.078 63.627 203.443 63.2622 203.698 62.7788C203.953 62.3042 204.08 61.7285 204.08 61.0518V50.5312L204.449 47.2354ZM194.852 54.5391V54.2622C194.852 53.1724 194.983 52.1836 195.247 51.2959C195.52 50.3994 195.902 49.6304 196.394 48.9888C196.895 48.3472 197.501 47.8506 198.213 47.499C198.925 47.1475 199.729 46.9717 200.626 46.9717C201.575 46.9717 202.371 47.1475 203.012 47.499C203.654 47.8506 204.181 48.3516 204.594 49.002C205.007 49.6436 205.328 50.4038 205.557 51.2827C205.794 52.1528 205.979 53.1064 206.11 54.1436V54.75C205.979 55.7432 205.781 56.666 205.517 57.5186C205.253 58.3711 204.906 59.1182 204.476 59.7598C204.045 60.3926 203.509 60.8848 202.867 61.2363C202.234 61.5879 201.479 61.7637 200.6 61.7637C199.721 61.7637 198.925 61.5835 198.213 61.2231C197.51 60.8628 196.908 60.3574 196.407 59.707C195.906 59.0566 195.52 58.292 195.247 57.4131C194.983 56.5342 194.852 55.5762 194.852 54.5391ZM198.648 54.2622V54.5391C198.648 55.1279 198.706 55.6772 198.82 56.187C198.934 56.6968 199.11 57.1494 199.347 57.5449C199.593 57.9316 199.896 58.2349 200.257 58.4546C200.626 58.6655 201.061 58.771 201.562 58.771C202.256 58.771 202.823 58.626 203.263 58.3359C203.702 58.0371 204.032 57.6284 204.251 57.1099C204.471 56.5913 204.599 55.9937 204.634 55.3169V53.5898C204.616 53.0361 204.542 52.5396 204.41 52.1001C204.278 51.6519 204.093 51.2695 203.856 50.9531C203.619 50.6367 203.311 50.3906 202.933 50.2148C202.555 50.0391 202.107 49.9512 201.588 49.9512C201.087 49.9512 200.652 50.0654 200.283 50.2939C199.923 50.5137 199.62 50.8169 199.374 51.2036C199.136 51.5903 198.956 52.0474 198.833 52.5747C198.71 53.0933 198.648 53.6558 198.648 54.2622Z" fill="white"/>
<rect x="68" y="89.5" width="190" height="63" rx="8" fill="#6A92C5"/>
<path d="M133.874 125.008C133.874 124.593 133.809 124.227 133.679 123.909C133.557 123.584 133.337 123.291 133.02 123.03C132.71 122.77 132.279 122.522 131.726 122.286C131.18 122.05 130.489 121.81 129.65 121.565C128.771 121.305 127.978 121.016 127.27 120.699C126.562 120.373 125.956 120.003 125.451 119.588C124.947 119.173 124.56 118.697 124.292 118.16C124.023 117.623 123.889 117.008 123.889 116.316C123.889 115.625 124.031 114.986 124.316 114.4C124.601 113.814 125.008 113.305 125.537 112.874C126.074 112.435 126.713 112.093 127.453 111.849C128.194 111.604 129.02 111.482 129.931 111.482C131.266 111.482 132.397 111.739 133.325 112.251C134.261 112.756 134.973 113.419 135.461 114.241C135.949 115.055 136.193 115.926 136.193 116.854H133.85C133.85 116.186 133.707 115.596 133.422 115.083C133.138 114.563 132.706 114.156 132.128 113.863C131.551 113.562 130.818 113.411 129.931 113.411C129.093 113.411 128.401 113.537 127.856 113.79C127.311 114.042 126.904 114.384 126.635 114.815C126.375 115.246 126.245 115.739 126.245 116.292C126.245 116.666 126.322 117.008 126.477 117.317C126.639 117.618 126.888 117.899 127.221 118.16C127.563 118.42 127.994 118.66 128.515 118.88C129.044 119.1 129.675 119.311 130.407 119.515C131.416 119.799 132.287 120.117 133.02 120.467C133.752 120.817 134.354 121.211 134.826 121.651C135.306 122.082 135.66 122.575 135.888 123.128C136.124 123.673 136.242 124.292 136.242 124.983C136.242 125.708 136.096 126.363 135.803 126.949C135.51 127.535 135.091 128.035 134.545 128.45C134 128.865 133.345 129.187 132.58 129.415C131.823 129.634 130.977 129.744 130.041 129.744C129.219 129.744 128.409 129.63 127.612 129.402C126.822 129.174 126.102 128.833 125.451 128.377C124.808 127.921 124.292 127.36 123.901 126.692C123.518 126.017 123.327 125.236 123.327 124.349H125.671C125.671 124.959 125.789 125.484 126.025 125.923C126.261 126.355 126.582 126.713 126.989 126.998C127.404 127.282 127.872 127.494 128.393 127.632C128.922 127.763 129.471 127.828 130.041 127.828C130.863 127.828 131.559 127.714 132.128 127.486C132.698 127.258 133.129 126.932 133.422 126.509C133.723 126.086 133.874 125.586 133.874 125.008ZM144.384 129.744C143.465 129.744 142.631 129.59 141.882 129.28C141.141 128.963 140.502 128.519 139.965 127.95C139.436 127.38 139.029 126.705 138.745 125.923C138.46 125.142 138.317 124.288 138.317 123.36V122.847C138.317 121.773 138.476 120.817 138.793 119.979C139.111 119.132 139.542 118.416 140.087 117.83C140.633 117.244 141.251 116.801 141.943 116.5C142.635 116.198 143.351 116.048 144.091 116.048C145.035 116.048 145.849 116.211 146.533 116.536C147.224 116.862 147.79 117.317 148.229 117.903C148.669 118.481 148.994 119.165 149.206 119.954C149.418 120.735 149.523 121.59 149.523 122.518V123.531H139.66V121.688H147.265V121.517C147.233 120.931 147.111 120.361 146.899 119.808C146.695 119.254 146.37 118.799 145.922 118.44C145.475 118.082 144.864 117.903 144.091 117.903C143.579 117.903 143.107 118.013 142.675 118.233C142.244 118.444 141.874 118.762 141.564 119.185C141.255 119.608 141.015 120.125 140.844 120.735C140.673 121.346 140.588 122.05 140.588 122.847V123.36C140.588 123.986 140.673 124.576 140.844 125.13C141.023 125.675 141.28 126.155 141.613 126.57C141.955 126.985 142.366 127.311 142.846 127.547C143.334 127.783 143.888 127.901 144.506 127.901C145.304 127.901 145.979 127.738 146.533 127.413C147.086 127.087 147.57 126.652 147.985 126.106L149.353 127.193C149.068 127.624 148.706 128.035 148.266 128.426C147.827 128.816 147.285 129.134 146.643 129.378C146.008 129.622 145.255 129.744 144.384 129.744ZM154.418 118.367V129.5H152.16V116.292H154.357L154.418 118.367ZM158.544 116.219L158.532 118.318C158.345 118.278 158.166 118.253 157.995 118.245C157.832 118.229 157.645 118.221 157.434 118.221C156.913 118.221 156.453 118.302 156.054 118.465C155.655 118.628 155.318 118.855 155.041 119.148C154.764 119.441 154.545 119.791 154.382 120.198C154.227 120.597 154.125 121.036 154.077 121.517L153.442 121.883C153.442 121.085 153.519 120.337 153.674 119.637C153.837 118.937 154.085 118.318 154.418 117.781C154.752 117.236 155.175 116.813 155.688 116.512C156.209 116.202 156.827 116.048 157.543 116.048C157.706 116.048 157.893 116.068 158.105 116.109C158.317 116.141 158.463 116.178 158.544 116.219ZM164.868 127.461L168.481 116.292H170.788L166.04 129.5H164.526L164.868 127.461ZM161.853 116.292L165.576 127.522L165.832 129.5H164.318L159.533 116.292H161.853ZM175.415 116.292V129.5H173.144V116.292H175.415ZM172.973 112.789C172.973 112.422 173.083 112.113 173.303 111.861C173.531 111.609 173.864 111.482 174.304 111.482C174.735 111.482 175.065 111.609 175.292 111.861C175.528 112.113 175.646 112.422 175.646 112.789C175.646 113.139 175.528 113.44 175.292 113.692C175.065 113.936 174.735 114.058 174.304 114.058C173.864 114.058 173.531 113.936 173.303 113.692C173.083 113.44 172.973 113.139 172.973 112.789ZM184.326 127.889C184.863 127.889 185.359 127.779 185.815 127.559C186.271 127.339 186.645 127.038 186.938 126.656C187.231 126.265 187.398 125.822 187.438 125.325H189.587C189.546 126.106 189.282 126.835 188.793 127.51C188.313 128.178 187.683 128.719 186.901 129.134C186.12 129.541 185.262 129.744 184.326 129.744C183.333 129.744 182.466 129.569 181.726 129.219C180.993 128.869 180.383 128.389 179.895 127.779C179.414 127.168 179.052 126.469 178.808 125.679C178.572 124.882 178.454 124.039 178.454 123.152V122.64C178.454 121.753 178.572 120.914 178.808 120.125C179.052 119.327 179.414 118.624 179.895 118.013C180.383 117.403 180.993 116.923 181.726 116.573C182.466 116.223 183.333 116.048 184.326 116.048C185.359 116.048 186.263 116.259 187.036 116.683C187.809 117.098 188.415 117.667 188.854 118.392C189.302 119.108 189.546 119.922 189.587 120.833H187.438C187.398 120.288 187.243 119.795 186.975 119.356C186.714 118.917 186.356 118.567 185.9 118.306C185.453 118.038 184.928 117.903 184.326 117.903C183.634 117.903 183.052 118.042 182.58 118.318C182.116 118.587 181.746 118.953 181.469 119.417C181.201 119.873 181.005 120.381 180.883 120.943C180.769 121.496 180.712 122.062 180.712 122.64V123.152C180.712 123.73 180.769 124.3 180.883 124.861C180.997 125.423 181.188 125.931 181.457 126.387C181.734 126.843 182.104 127.209 182.568 127.486C183.04 127.754 183.626 127.889 184.326 127.889ZM197.607 129.744C196.687 129.744 195.853 129.59 195.104 129.28C194.364 128.963 193.725 128.519 193.188 127.95C192.659 127.38 192.252 126.705 191.967 125.923C191.682 125.142 191.54 124.288 191.54 123.36V122.847C191.54 121.773 191.699 120.817 192.016 119.979C192.333 119.132 192.765 118.416 193.31 117.83C193.855 117.244 194.474 116.801 195.166 116.5C195.857 116.198 196.573 116.048 197.314 116.048C198.258 116.048 199.072 116.211 199.755 116.536C200.447 116.862 201.013 117.317 201.452 117.903C201.892 118.481 202.217 119.165 202.429 119.954C202.64 120.735 202.746 121.59 202.746 122.518V123.531H192.883V121.688H200.488V121.517C200.455 120.931 200.333 120.361 200.122 119.808C199.918 119.254 199.593 118.799 199.145 118.44C198.697 118.082 198.087 117.903 197.314 117.903C196.801 117.903 196.329 118.013 195.898 118.233C195.467 118.444 195.096 118.762 194.787 119.185C194.478 119.608 194.238 120.125 194.067 120.735C193.896 121.346 193.811 122.05 193.811 122.847V123.36C193.811 123.986 193.896 124.576 194.067 125.13C194.246 125.675 194.502 126.155 194.836 126.57C195.178 126.985 195.589 127.311 196.069 127.547C196.557 127.783 197.111 127.901 197.729 127.901C198.527 127.901 199.202 127.738 199.755 127.413C200.309 127.087 200.793 126.652 201.208 126.106L202.575 127.193C202.29 127.624 201.928 128.035 201.489 128.426C201.049 128.816 200.508 129.134 199.865 129.378C199.23 129.622 198.478 129.744 197.607 129.744Z" fill="white"/>
<rect x="68" y="172.5" width="190" height="63" rx="8" fill="#6A92C5"/>
<path d="M118.188 194.727H124.072C125.406 194.727 126.534 194.93 127.453 195.337C128.381 195.744 129.085 196.346 129.565 197.144C130.053 197.933 130.297 198.905 130.297 200.061C130.297 200.875 130.131 201.619 129.797 202.295C129.471 202.962 128.999 203.532 128.381 204.004C127.771 204.468 127.038 204.814 126.184 205.042L125.524 205.298H119.995L119.97 203.381H124.145C124.991 203.381 125.695 203.235 126.257 202.942C126.818 202.641 127.242 202.238 127.526 201.733C127.811 201.229 127.954 200.671 127.954 200.061C127.954 199.377 127.819 198.779 127.551 198.267C127.282 197.754 126.859 197.359 126.281 197.083C125.712 196.798 124.975 196.655 124.072 196.655H120.544V212.5H118.188V194.727ZM128.576 212.5L124.255 204.443L126.708 204.431L131.091 212.354V212.5H128.576ZM138.732 212.744C137.813 212.744 136.979 212.59 136.23 212.28C135.489 211.963 134.851 211.519 134.313 210.95C133.785 210.38 133.378 209.705 133.093 208.923C132.808 208.142 132.666 207.288 132.666 206.36V205.847C132.666 204.773 132.824 203.817 133.142 202.979C133.459 202.132 133.89 201.416 134.436 200.83C134.981 200.244 135.599 199.801 136.291 199.5C136.983 199.198 137.699 199.048 138.439 199.048C139.383 199.048 140.197 199.211 140.881 199.536C141.573 199.862 142.138 200.317 142.578 200.903C143.017 201.481 143.343 202.165 143.554 202.954C143.766 203.735 143.872 204.59 143.872 205.518V206.531H134.008V204.688H141.613V204.517C141.581 203.931 141.459 203.361 141.247 202.808C141.044 202.254 140.718 201.799 140.271 201.44C139.823 201.082 139.213 200.903 138.439 200.903C137.927 200.903 137.455 201.013 137.023 201.233C136.592 201.444 136.222 201.762 135.913 202.185C135.603 202.608 135.363 203.125 135.192 203.735C135.021 204.346 134.936 205.05 134.936 205.847V206.36C134.936 206.986 135.021 207.576 135.192 208.13C135.371 208.675 135.628 209.155 135.961 209.57C136.303 209.985 136.714 210.311 137.194 210.547C137.683 210.783 138.236 210.901 138.854 210.901C139.652 210.901 140.327 210.738 140.881 210.413C141.434 210.087 141.918 209.652 142.333 209.106L143.701 210.193C143.416 210.624 143.054 211.035 142.614 211.426C142.175 211.816 141.634 212.134 140.991 212.378C140.356 212.622 139.603 212.744 138.732 212.744ZM150.354 210.461L153.967 199.292H156.274L151.525 212.5H150.012L150.354 210.461ZM147.338 199.292L151.062 210.522L151.318 212.5H149.804L145.019 199.292H147.338ZM160.9 199.292V212.5H158.63V199.292H160.9ZM158.459 195.789C158.459 195.422 158.569 195.113 158.789 194.861C159.016 194.609 159.35 194.482 159.79 194.482C160.221 194.482 160.55 194.609 160.778 194.861C161.014 195.113 161.132 195.422 161.132 195.789C161.132 196.139 161.014 196.44 160.778 196.692C160.55 196.936 160.221 197.058 159.79 197.058C159.35 197.058 159.016 196.936 158.789 196.692C158.569 196.44 158.459 196.139 158.459 195.789ZM172.216 208.997C172.216 208.671 172.143 208.37 171.997 208.093C171.858 207.808 171.569 207.552 171.13 207.324C170.699 207.088 170.048 206.885 169.177 206.714C168.444 206.559 167.781 206.376 167.187 206.165C166.601 205.953 166.101 205.697 165.686 205.396C165.279 205.094 164.965 204.74 164.746 204.333C164.526 203.927 164.416 203.451 164.416 202.905C164.416 202.384 164.53 201.892 164.758 201.428C164.994 200.964 165.323 200.553 165.747 200.195C166.178 199.837 166.695 199.556 167.297 199.353C167.899 199.15 168.57 199.048 169.311 199.048C170.369 199.048 171.272 199.235 172.021 199.609C172.77 199.984 173.343 200.484 173.742 201.111C174.141 201.729 174.34 202.417 174.34 203.174H172.082C172.082 202.808 171.972 202.454 171.752 202.112C171.541 201.762 171.228 201.473 170.812 201.245C170.406 201.017 169.905 200.903 169.311 200.903C168.684 200.903 168.176 201.001 167.785 201.196C167.403 201.383 167.122 201.624 166.943 201.917C166.772 202.209 166.687 202.519 166.687 202.844C166.687 203.088 166.727 203.308 166.809 203.503C166.898 203.691 167.053 203.866 167.272 204.028C167.492 204.183 167.801 204.329 168.2 204.468C168.599 204.606 169.108 204.744 169.726 204.883C170.808 205.127 171.7 205.42 172.399 205.762C173.099 206.104 173.62 206.523 173.962 207.019C174.304 207.515 174.475 208.118 174.475 208.826C174.475 209.403 174.353 209.932 174.108 210.413C173.872 210.893 173.527 211.308 173.071 211.658C172.623 212 172.086 212.268 171.459 212.463C170.841 212.651 170.145 212.744 169.372 212.744C168.208 212.744 167.224 212.537 166.418 212.122C165.612 211.707 165.002 211.169 164.587 210.51C164.172 209.851 163.964 209.155 163.964 208.423H166.235C166.267 209.041 166.446 209.534 166.772 209.9C167.097 210.258 167.496 210.514 167.968 210.669C168.44 210.815 168.908 210.889 169.372 210.889C169.991 210.889 170.507 210.807 170.922 210.645C171.346 210.482 171.667 210.258 171.887 209.973C172.106 209.688 172.216 209.363 172.216 208.997ZM179.895 199.292V212.5H177.624V199.292H179.895ZM177.453 195.789C177.453 195.422 177.563 195.113 177.783 194.861C178.011 194.609 178.344 194.482 178.784 194.482C179.215 194.482 179.545 194.609 179.772 194.861C180.008 195.113 180.126 195.422 180.126 195.789C180.126 196.139 180.008 196.44 179.772 196.692C179.545 196.936 179.215 197.058 178.784 197.058C178.344 197.058 178.011 196.936 177.783 196.692C177.563 196.44 177.453 196.139 177.453 195.789ZM182.922 206.042V205.762C182.922 204.81 183.06 203.927 183.337 203.113C183.614 202.291 184.012 201.579 184.533 200.977C185.054 200.366 185.685 199.894 186.425 199.561C187.166 199.219 187.996 199.048 188.916 199.048C189.843 199.048 190.677 199.219 191.418 199.561C192.167 199.894 192.801 200.366 193.322 200.977C193.851 201.579 194.254 202.291 194.531 203.113C194.807 203.927 194.946 204.81 194.946 205.762V206.042C194.946 206.995 194.807 207.878 194.531 208.691C194.254 209.505 193.851 210.217 193.322 210.828C192.801 211.43 192.171 211.902 191.43 212.244C190.698 212.577 189.868 212.744 188.94 212.744C188.012 212.744 187.178 212.577 186.438 212.244C185.697 211.902 185.062 211.43 184.533 210.828C184.012 210.217 183.614 209.505 183.337 208.691C183.06 207.878 182.922 206.995 182.922 206.042ZM185.18 205.762V206.042C185.18 206.702 185.257 207.324 185.412 207.91C185.567 208.488 185.799 209.001 186.108 209.448C186.425 209.896 186.82 210.25 187.292 210.51C187.764 210.763 188.313 210.889 188.94 210.889C189.558 210.889 190.1 210.763 190.563 210.51C191.035 210.25 191.426 209.896 191.735 209.448C192.045 209.001 192.277 208.488 192.431 207.91C192.594 207.324 192.675 206.702 192.675 206.042V205.762C192.675 205.111 192.594 204.496 192.431 203.918C192.277 203.333 192.041 202.816 191.723 202.368C191.414 201.912 191.023 201.554 190.551 201.294C190.087 201.034 189.542 200.903 188.916 200.903C188.297 200.903 187.752 201.034 187.28 201.294C186.816 201.554 186.425 201.912 186.108 202.368C185.799 202.816 185.567 203.333 185.412 203.918C185.257 204.496 185.18 205.111 185.18 205.762ZM200.036 202.112V212.5H197.778V199.292H199.914L200.036 202.112ZM199.499 205.396L198.559 205.359C198.567 204.456 198.701 203.621 198.962 202.856C199.222 202.083 199.589 201.412 200.061 200.842C200.533 200.273 201.094 199.833 201.745 199.524C202.404 199.207 203.133 199.048 203.93 199.048C204.581 199.048 205.167 199.137 205.688 199.316C206.209 199.487 206.652 199.764 207.019 200.146C207.393 200.529 207.678 201.025 207.873 201.636C208.068 202.238 208.166 202.974 208.166 203.845V212.5H205.896V203.821C205.896 203.129 205.794 202.576 205.59 202.161C205.387 201.737 205.09 201.432 204.699 201.245C204.309 201.05 203.828 200.952 203.259 200.952C202.697 200.952 202.185 201.07 201.721 201.306C201.265 201.542 200.87 201.868 200.537 202.283C200.211 202.698 199.955 203.174 199.768 203.711C199.589 204.24 199.499 204.801 199.499 205.396Z" fill="white"/>
<rect x="68" y="255.5" width="190" height="63" rx="8" fill="#6A92C5"/>
<path d="M132.617 277.727H138.5C139.835 277.727 140.962 277.93 141.882 278.337C142.81 278.744 143.514 279.346 143.994 280.144C144.482 280.933 144.726 281.905 144.726 283.061C144.726 283.875 144.559 284.619 144.226 285.295C143.9 285.962 143.428 286.532 142.81 287.004C142.199 287.468 141.467 287.814 140.612 288.042L139.953 288.298H134.423L134.399 286.381H138.574C139.42 286.381 140.124 286.235 140.686 285.942C141.247 285.641 141.67 285.238 141.955 284.733C142.24 284.229 142.382 283.671 142.382 283.061C142.382 282.377 142.248 281.779 141.979 281.267C141.711 280.754 141.288 280.359 140.71 280.083C140.14 279.798 139.404 279.655 138.5 279.655H134.973V295.5H132.617V277.727ZM143.005 295.5L138.684 287.443L141.137 287.431L145.52 295.354V295.5H143.005ZM147.082 289.042V288.762C147.082 287.81 147.22 286.927 147.497 286.113C147.774 285.291 148.173 284.579 148.693 283.977C149.214 283.366 149.845 282.894 150.585 282.561C151.326 282.219 152.156 282.048 153.076 282.048C154.003 282.048 154.838 282.219 155.578 282.561C156.327 282.894 156.962 283.366 157.482 283.977C158.011 284.579 158.414 285.291 158.691 286.113C158.968 286.927 159.106 287.81 159.106 288.762V289.042C159.106 289.995 158.968 290.878 158.691 291.691C158.414 292.505 158.011 293.217 157.482 293.828C156.962 294.43 156.331 294.902 155.59 295.244C154.858 295.577 154.028 295.744 153.1 295.744C152.172 295.744 151.338 295.577 150.598 295.244C149.857 294.902 149.222 294.43 148.693 293.828C148.173 293.217 147.774 292.505 147.497 291.691C147.22 290.878 147.082 289.995 147.082 289.042ZM149.34 288.762V289.042C149.34 289.702 149.418 290.324 149.572 290.91C149.727 291.488 149.959 292.001 150.268 292.448C150.585 292.896 150.98 293.25 151.452 293.51C151.924 293.763 152.473 293.889 153.1 293.889C153.719 293.889 154.26 293.763 154.724 293.51C155.196 293.25 155.586 292.896 155.896 292.448C156.205 292.001 156.437 291.488 156.591 290.91C156.754 290.324 156.835 289.702 156.835 289.042V288.762C156.835 288.111 156.754 287.496 156.591 286.918C156.437 286.333 156.201 285.816 155.883 285.368C155.574 284.912 155.183 284.554 154.711 284.294C154.248 284.034 153.702 283.903 153.076 283.903C152.457 283.903 151.912 284.034 151.44 284.294C150.976 284.554 150.585 284.912 150.268 285.368C149.959 285.816 149.727 286.333 149.572 286.918C149.418 287.496 149.34 288.111 149.34 288.762ZM170.019 292.448V282.292H172.29V295.5H170.129L170.019 292.448ZM170.446 289.665L171.386 289.641C171.386 290.52 171.293 291.333 171.105 292.082C170.926 292.823 170.633 293.465 170.227 294.011C169.82 294.556 169.287 294.983 168.627 295.292C167.968 295.594 167.167 295.744 166.223 295.744C165.58 295.744 164.99 295.651 164.453 295.463C163.924 295.276 163.468 294.987 163.085 294.597C162.703 294.206 162.406 293.697 162.194 293.071C161.991 292.444 161.889 291.691 161.889 290.812V282.292H164.147V290.837C164.147 291.431 164.213 291.923 164.343 292.314C164.481 292.696 164.664 293.002 164.892 293.229C165.128 293.449 165.389 293.604 165.673 293.693C165.966 293.783 166.267 293.828 166.577 293.828C167.537 293.828 168.298 293.645 168.859 293.278C169.421 292.904 169.824 292.403 170.068 291.777C170.32 291.142 170.446 290.438 170.446 289.665ZM181.262 282.292V284.025H174.121V282.292H181.262ZM176.538 279.082H178.796V292.229C178.796 292.676 178.865 293.014 179.003 293.242C179.142 293.47 179.321 293.62 179.541 293.693C179.76 293.767 179.996 293.803 180.249 293.803C180.436 293.803 180.631 293.787 180.834 293.754C181.046 293.714 181.205 293.681 181.311 293.657L181.323 295.5C181.144 295.557 180.908 295.61 180.615 295.659C180.33 295.716 179.984 295.744 179.577 295.744C179.024 295.744 178.515 295.634 178.051 295.415C177.587 295.195 177.217 294.829 176.94 294.316C176.672 293.795 176.538 293.095 176.538 292.216V279.082ZM189.392 295.744C188.472 295.744 187.638 295.59 186.889 295.28C186.149 294.963 185.51 294.519 184.973 293.95C184.444 293.38 184.037 292.705 183.752 291.923C183.467 291.142 183.325 290.288 183.325 289.36V288.847C183.325 287.773 183.483 286.817 183.801 285.979C184.118 285.132 184.549 284.416 185.095 283.83C185.64 283.244 186.258 282.801 186.95 282.5C187.642 282.198 188.358 282.048 189.099 282.048C190.043 282.048 190.856 282.211 191.54 282.536C192.232 282.862 192.797 283.317 193.237 283.903C193.676 284.481 194.002 285.165 194.213 285.954C194.425 286.735 194.531 287.59 194.531 288.518V289.531H184.667V287.688H192.272V287.517C192.24 286.931 192.118 286.361 191.906 285.808C191.703 285.254 191.377 284.799 190.93 284.44C190.482 284.082 189.872 283.903 189.099 283.903C188.586 283.903 188.114 284.013 187.683 284.233C187.251 284.444 186.881 284.762 186.572 285.185C186.263 285.608 186.022 286.125 185.852 286.735C185.681 287.346 185.595 288.05 185.595 288.847V289.36C185.595 289.986 185.681 290.576 185.852 291.13C186.031 291.675 186.287 292.155 186.621 292.57C186.962 292.985 187.373 293.311 187.854 293.547C188.342 293.783 188.895 293.901 189.514 293.901C190.311 293.901 190.987 293.738 191.54 293.413C192.093 293.087 192.578 292.652 192.993 292.106L194.36 293.193C194.075 293.624 193.713 294.035 193.273 294.426C192.834 294.816 192.293 295.134 191.65 295.378C191.015 295.622 190.262 295.744 189.392 295.744Z" fill="white"/>
<rect x="4" y="4" width="318" height="345" rx="20" stroke="#6A92C5" stroke-width="8"/>
<path d="M431.631 27.6226V30.7075H421.612V27.6226H431.631ZM422.785 19.8047V39H418.83V19.8047H422.785ZM434.453 19.8047V39H430.511V19.8047H434.453ZM446.081 19.8047V39H442.139V19.8047H446.081ZM451.987 19.8047V22.9028H436.325V19.8047H451.987ZM463.035 19.8047V39H459.093V19.8047H463.035ZM468.941 19.8047V22.9028H453.279V19.8047H468.941ZM478.67 32.1577H473.779V29.0728H478.67C479.426 29.0728 480.042 28.9497 480.516 28.7036C480.991 28.4487 481.338 28.0972 481.558 27.6489C481.777 27.2007 481.887 26.6953 481.887 26.1328C481.887 25.5615 481.777 25.0298 481.558 24.5376C481.338 24.0454 480.991 23.6499 480.516 23.3511C480.042 23.0522 479.426 22.9028 478.67 22.9028H475.15V39H471.195V19.8047H478.67C480.173 19.8047 481.461 20.0771 482.533 20.6221C483.614 21.1582 484.44 21.9009 485.012 22.8501C485.583 23.7993 485.869 24.8848 485.869 26.1064C485.869 27.3457 485.583 28.418 485.012 29.3232C484.44 30.2285 483.614 30.9272 482.533 31.4194C481.461 31.9116 480.173 32.1577 478.67 32.1577Z" fill="#F5C989"/>
<path d="M460.462 320.805H464.404V333.487C464.404 334.964 464.088 336.208 463.455 337.218C462.831 338.229 461.965 338.989 460.858 339.499C459.759 340.009 458.494 340.264 457.061 340.264C455.628 340.264 454.354 340.009 453.238 339.499C452.13 338.989 451.26 338.229 450.627 337.218C450.003 336.208 449.691 334.964 449.691 333.487V320.805H453.646V333.487C453.646 334.349 453.783 335.052 454.055 335.597C454.328 336.142 454.719 336.542 455.229 336.796C455.747 337.051 456.358 337.179 457.061 337.179C457.782 337.179 458.393 337.051 458.894 336.796C459.403 336.542 459.79 336.142 460.054 335.597C460.326 335.052 460.462 334.349 460.462 333.487V320.805ZM467.661 320.805H474.819C476.287 320.805 477.548 321.024 478.603 321.464C479.667 321.903 480.484 322.554 481.055 323.415C481.626 324.276 481.912 325.335 481.912 326.592C481.912 327.621 481.736 328.504 481.385 329.242C481.042 329.972 480.554 330.583 479.921 331.075C479.297 331.558 478.563 331.945 477.72 332.235L476.467 332.894H470.245L470.218 329.809H474.846C475.54 329.809 476.116 329.686 476.573 329.44C477.03 329.194 477.373 328.851 477.601 328.412C477.838 327.972 477.957 327.462 477.957 326.882C477.957 326.267 477.843 325.735 477.614 325.287C477.386 324.839 477.039 324.496 476.573 324.259C476.107 324.021 475.522 323.903 474.819 323.903H471.616V340H467.661V320.805ZM478.392 340L474.015 331.444L478.194 331.417L482.624 339.815V340H478.392ZM497.297 336.915V340H487.634V336.915H497.297ZM488.913 320.805V340H484.958V320.805H488.913Z" fill="#F5C989"/>
<path d="M731.137 58.415V61.5H720.919V58.415H731.137ZM722.211 42.3047V61.5H718.256V42.3047H722.211ZM729.805 50.1226V53.1284H720.919V50.1226H729.805ZM731.124 42.3047V45.4028H720.919V42.3047H731.124ZM737.715 58.7314L740.879 47.2354H744.848L740.036 61.5H737.636L737.715 58.7314ZM735.54 47.2354L738.717 58.7446L738.783 61.5H736.371L731.559 47.2354H735.54ZM752.929 61.7637C751.822 61.7637 750.829 61.5879 749.95 61.2363C749.071 60.876 748.324 60.3794 747.708 59.7466C747.102 59.1138 746.636 58.3799 746.311 57.5449C745.986 56.7012 745.823 55.8047 745.823 54.8555V54.3281C745.823 53.2471 745.977 52.2583 746.285 51.3618C746.592 50.4653 747.032 49.6875 747.603 49.0283C748.183 48.3691 748.886 47.8638 749.712 47.5122C750.539 47.1519 751.47 46.9717 752.507 46.9717C753.518 46.9717 754.415 47.1387 755.197 47.4727C755.979 47.8066 756.634 48.2812 757.161 48.8965C757.697 49.5117 758.102 50.25 758.374 51.1113C758.646 51.9639 758.783 52.9131 758.783 53.959V55.541H747.445V53.0098H755.052V52.7197C755.052 52.1924 754.955 51.7222 754.762 51.3091C754.577 50.8872 754.296 50.5532 753.918 50.3071C753.54 50.061 753.057 49.938 752.468 49.938C751.967 49.938 751.536 50.0479 751.176 50.2676C750.815 50.4873 750.521 50.7949 750.292 51.1904C750.073 51.5859 749.906 52.0518 749.792 52.5879C749.686 53.1152 749.633 53.6953 749.633 54.3281V54.8555C749.633 55.4268 749.712 55.9541 749.871 56.4375C750.038 56.9209 750.271 57.3384 750.569 57.6899C750.877 58.0415 751.246 58.314 751.677 58.5073C752.116 58.7007 752.613 58.7974 753.167 58.7974C753.852 58.7974 754.489 58.6655 755.078 58.4019C755.676 58.1294 756.19 57.7207 756.621 57.1758L758.466 59.1797C758.167 59.6104 757.759 60.0234 757.24 60.4189C756.73 60.8145 756.115 61.1396 755.395 61.3945C754.674 61.6406 753.852 61.7637 752.929 61.7637ZM764.663 50.2808V61.5H760.866V47.2354H764.425L764.663 50.2808ZM764.109 53.8667H763.081C763.081 52.812 763.217 51.8628 763.489 51.019C763.762 50.1665 764.144 49.4414 764.636 48.8438C765.128 48.2373 765.713 47.7759 766.39 47.4595C767.075 47.1343 767.84 46.9717 768.684 46.9717C769.352 46.9717 769.962 47.0684 770.516 47.2617C771.07 47.4551 771.544 47.7627 771.94 48.1846C772.344 48.6064 772.652 49.1646 772.863 49.8589C773.083 50.5532 773.192 51.4014 773.192 52.4033V61.5H769.369V52.3901C769.369 51.7573 769.281 51.2651 769.105 50.9136C768.93 50.562 768.67 50.3159 768.328 50.1753C767.994 50.0259 767.581 49.9512 767.088 49.9512C766.579 49.9512 766.135 50.0522 765.757 50.2544C765.388 50.4565 765.08 50.7378 764.834 51.0981C764.597 51.4497 764.417 51.8628 764.293 52.3374C764.17 52.812 764.109 53.3218 764.109 53.8667ZM783.067 47.2354V49.9248H774.761V47.2354H783.067ZM776.818 43.7153H780.615V57.2021C780.615 57.6152 780.667 57.9316 780.773 58.1514C780.887 58.3711 781.054 58.5249 781.274 58.6128C781.494 58.6919 781.771 58.7314 782.104 58.7314C782.342 58.7314 782.553 58.7227 782.737 58.7051C782.931 58.6787 783.093 58.6523 783.225 58.626L783.238 61.4209C782.913 61.5264 782.562 61.6099 782.184 61.6714C781.806 61.7329 781.388 61.7637 780.931 61.7637C780.096 61.7637 779.367 61.6274 778.743 61.355C778.127 61.0737 777.653 60.6255 777.319 60.0103C776.985 59.395 776.818 58.5864 776.818 57.5845V43.7153ZM789.237 47.2354V61.5H785.427V47.2354H789.237ZM785.189 43.5176C785.189 42.9639 785.383 42.5068 785.77 42.1465C786.156 41.7861 786.675 41.606 787.325 41.606C787.967 41.606 788.481 41.7861 788.868 42.1465C789.263 42.5068 789.461 42.9639 789.461 43.5176C789.461 44.0713 789.263 44.5283 788.868 44.8887C788.481 45.249 787.967 45.4292 787.325 45.4292C786.675 45.4292 786.156 45.249 785.77 44.8887C785.383 44.5283 785.189 44.0713 785.189 43.5176ZM796.092 50.2808V61.5H792.295V47.2354H795.855L796.092 50.2808ZM795.539 53.8667H794.51C794.51 52.812 794.646 51.8628 794.919 51.019C795.191 50.1665 795.574 49.4414 796.066 48.8438C796.558 48.2373 797.143 47.7759 797.819 47.4595C798.505 47.1343 799.27 46.9717 800.113 46.9717C800.781 46.9717 801.392 47.0684 801.946 47.2617C802.5 47.4551 802.974 47.7627 803.37 48.1846C803.774 48.6064 804.082 49.1646 804.292 49.8589C804.512 50.5532 804.622 51.4014 804.622 52.4033V61.5H800.799V52.3901C800.799 51.7573 800.711 51.2651 800.535 50.9136C800.359 50.562 800.1 50.3159 799.757 50.1753C799.423 50.0259 799.01 49.9512 798.518 49.9512C798.008 49.9512 797.564 50.0522 797.187 50.2544C796.817 50.4565 796.51 50.7378 796.264 51.0981C796.026 51.4497 795.846 51.8628 795.723 52.3374C795.6 52.812 795.539 53.3218 795.539 53.8667ZM816.54 47.2354H819.981V61.0254C819.981 62.3262 819.691 63.4292 819.111 64.3345C818.54 65.2485 817.74 65.9385 816.711 66.4043C815.683 66.8789 814.488 67.1162 813.125 67.1162C812.528 67.1162 811.895 67.0371 811.227 66.8789C810.568 66.7207 809.935 66.4746 809.329 66.1406C808.731 65.8066 808.23 65.3848 807.826 64.875L809.5 62.6338C809.939 63.1436 810.449 63.5391 811.029 63.8203C811.609 64.1104 812.251 64.2554 812.954 64.2554C813.64 64.2554 814.22 64.1279 814.694 63.873C815.169 63.627 815.534 63.2622 815.789 62.7788C816.043 62.3042 816.171 61.7285 816.171 61.0518V50.5312L816.54 47.2354ZM806.942 54.5391V54.2622C806.942 53.1724 807.074 52.1836 807.338 51.2959C807.61 50.3994 807.993 49.6304 808.485 48.9888C808.986 48.3472 809.592 47.8506 810.304 47.499C811.016 47.1475 811.82 46.9717 812.717 46.9717C813.666 46.9717 814.461 47.1475 815.103 47.499C815.745 47.8506 816.272 48.3516 816.685 49.002C817.098 49.6436 817.419 50.4038 817.647 51.2827C817.885 52.1528 818.069 53.1064 818.201 54.1436V54.75C818.069 55.7432 817.872 56.666 817.608 57.5186C817.344 58.3711 816.997 59.1182 816.566 59.7598C816.136 60.3926 815.6 60.8848 814.958 61.2363C814.325 61.5879 813.569 61.7637 812.69 61.7637C811.812 61.7637 811.016 61.5835 810.304 61.2231C809.601 60.8628 808.999 60.3574 808.498 59.707C807.997 59.0566 807.61 58.292 807.338 57.4131C807.074 56.5342 806.942 55.5762 806.942 54.5391ZM810.739 54.2622V54.5391C810.739 55.1279 810.796 55.6772 810.911 56.187C811.025 56.6968 811.201 57.1494 811.438 57.5449C811.684 57.9316 811.987 58.2349 812.348 58.4546C812.717 58.6655 813.152 58.771 813.653 58.771C814.347 58.771 814.914 58.626 815.354 58.3359C815.793 58.0371 816.123 57.6284 816.342 57.1099C816.562 56.5913 816.689 55.9937 816.725 55.3169V53.5898C816.707 53.0361 816.632 52.5396 816.5 52.1001C816.369 51.6519 816.184 51.2695 815.947 50.9531C815.709 50.6367 815.402 50.3906 815.024 50.2148C814.646 50.0391 814.198 49.9512 813.679 49.9512C813.178 49.9512 812.743 50.0654 812.374 50.2939C812.014 50.5137 811.71 50.8169 811.464 51.2036C811.227 51.5903 811.047 52.0474 810.924 52.5747C810.801 53.0933 810.739 53.6558 810.739 54.2622Z" fill="white"/>
<rect x="674" y="89.5" width="190" height="63" rx="8" fill="#5298AE"/>
<path d="M735.345 125.008C735.345 124.593 735.28 124.227 735.15 123.909C735.028 123.584 734.808 123.291 734.491 123.03C734.181 122.77 733.75 122.522 733.197 122.286C732.652 122.05 731.96 121.81 731.122 121.565C730.243 121.305 729.449 121.016 728.741 120.699C728.033 120.373 727.427 120.003 726.922 119.588C726.418 119.173 726.031 118.697 725.763 118.16C725.494 117.623 725.36 117.008 725.36 116.316C725.36 115.625 725.502 114.986 725.787 114.4C726.072 113.814 726.479 113.305 727.008 112.874C727.545 112.435 728.184 112.093 728.924 111.849C729.665 111.604 730.491 111.482 731.402 111.482C732.737 111.482 733.868 111.739 734.796 112.251C735.732 112.756 736.444 113.419 736.932 114.241C737.42 115.055 737.665 115.926 737.665 116.854H735.321C735.321 116.186 735.178 115.596 734.894 115.083C734.609 114.563 734.177 114.156 733.6 113.863C733.022 113.562 732.289 113.411 731.402 113.411C730.564 113.411 729.872 113.537 729.327 113.79C728.782 114.042 728.375 114.384 728.106 114.815C727.846 115.246 727.716 115.739 727.716 116.292C727.716 116.666 727.793 117.008 727.948 117.317C728.111 117.618 728.359 117.899 728.692 118.16C729.034 118.42 729.465 118.66 729.986 118.88C730.515 119.1 731.146 119.311 731.878 119.515C732.888 119.799 733.758 120.117 734.491 120.467C735.223 120.817 735.825 121.211 736.297 121.651C736.778 122.082 737.132 122.575 737.359 123.128C737.595 123.673 737.713 124.292 737.713 124.983C737.713 125.708 737.567 126.363 737.274 126.949C736.981 127.535 736.562 128.035 736.017 128.45C735.471 128.865 734.816 129.187 734.051 129.415C733.294 129.634 732.448 129.744 731.512 129.744C730.69 129.744 729.881 129.63 729.083 129.402C728.294 129.174 727.573 128.833 726.922 128.377C726.279 127.921 725.763 127.36 725.372 126.692C724.99 126.017 724.798 125.236 724.798 124.349H727.142C727.142 124.959 727.26 125.484 727.496 125.923C727.732 126.355 728.054 126.713 728.46 126.998C728.875 127.282 729.343 127.494 729.864 127.632C730.393 127.763 730.943 127.828 731.512 127.828C732.334 127.828 733.03 127.714 733.6 127.486C734.169 127.258 734.601 126.932 734.894 126.509C735.195 126.086 735.345 125.586 735.345 125.008ZM739.776 123.042V122.762C739.776 121.81 739.915 120.927 740.191 120.113C740.468 119.291 740.867 118.579 741.388 117.977C741.909 117.366 742.539 116.894 743.28 116.561C744.02 116.219 744.85 116.048 745.77 116.048C746.698 116.048 747.532 116.219 748.272 116.561C749.021 116.894 749.656 117.366 750.177 117.977C750.706 118.579 751.109 119.291 751.385 120.113C751.662 120.927 751.8 121.81 751.8 122.762V123.042C751.8 123.995 751.662 124.878 751.385 125.691C751.109 126.505 750.706 127.217 750.177 127.828C749.656 128.43 749.025 128.902 748.285 129.244C747.552 129.577 746.722 129.744 745.794 129.744C744.867 129.744 744.033 129.577 743.292 129.244C742.551 128.902 741.917 128.43 741.388 127.828C740.867 127.217 740.468 126.505 740.191 125.691C739.915 124.878 739.776 123.995 739.776 123.042ZM742.035 122.762V123.042C742.035 123.702 742.112 124.324 742.267 124.91C742.421 125.488 742.653 126.001 742.962 126.448C743.28 126.896 743.674 127.25 744.146 127.51C744.618 127.763 745.168 127.889 745.794 127.889C746.413 127.889 746.954 127.763 747.418 127.51C747.89 127.25 748.281 126.896 748.59 126.448C748.899 126.001 749.131 125.488 749.286 124.91C749.448 124.324 749.53 123.702 749.53 123.042V122.762C749.53 122.111 749.448 121.496 749.286 120.918C749.131 120.333 748.895 119.816 748.578 119.368C748.268 118.912 747.878 118.554 747.406 118.294C746.942 118.034 746.397 117.903 745.77 117.903C745.152 117.903 744.606 118.034 744.134 118.294C743.67 118.554 743.28 118.912 742.962 119.368C742.653 119.816 742.421 120.333 742.267 120.918C742.112 121.496 742.035 122.111 742.035 122.762ZM762.713 126.448V116.292H764.984V129.5H762.823L762.713 126.448ZM763.141 123.665L764.081 123.641C764.081 124.52 763.987 125.333 763.8 126.082C763.621 126.823 763.328 127.465 762.921 128.011C762.514 128.556 761.981 128.983 761.322 129.292C760.663 129.594 759.861 129.744 758.917 129.744C758.274 129.744 757.684 129.651 757.147 129.463C756.618 129.276 756.162 128.987 755.78 128.597C755.397 128.206 755.1 127.697 754.889 127.071C754.685 126.444 754.583 125.691 754.583 124.812V116.292H756.842V124.837C756.842 125.431 756.907 125.923 757.037 126.314C757.175 126.696 757.359 127.002 757.586 127.229C757.822 127.449 758.083 127.604 758.368 127.693C758.661 127.783 758.962 127.828 759.271 127.828C760.231 127.828 760.992 127.645 761.554 127.278C762.115 126.904 762.518 126.403 762.762 125.777C763.014 125.142 763.141 124.438 763.141 123.665ZM770.685 118.367V129.5H768.426V116.292H770.624L770.685 118.367ZM774.811 116.219L774.798 118.318C774.611 118.278 774.432 118.253 774.261 118.245C774.098 118.229 773.911 118.221 773.7 118.221C773.179 118.221 772.719 118.302 772.32 118.465C771.922 118.628 771.584 118.855 771.307 119.148C771.03 119.441 770.811 119.791 770.648 120.198C770.493 120.597 770.392 121.036 770.343 121.517L769.708 121.883C769.708 121.085 769.785 120.337 769.94 119.637C770.103 118.937 770.351 118.318 770.685 117.781C771.018 117.236 771.441 116.813 771.954 116.512C772.475 116.202 773.093 116.048 773.81 116.048C773.972 116.048 774.16 116.068 774.371 116.109C774.583 116.141 774.729 116.178 774.811 116.219ZM781.939 127.889C782.477 127.889 782.973 127.779 783.429 127.559C783.884 127.339 784.259 127.038 784.552 126.656C784.845 126.265 785.012 125.822 785.052 125.325H787.201C787.16 126.106 786.896 126.835 786.407 127.51C785.927 128.178 785.296 128.719 784.515 129.134C783.734 129.541 782.875 129.744 781.939 129.744C780.947 129.744 780.08 129.569 779.339 129.219C778.607 128.869 777.997 128.389 777.508 127.779C777.028 127.168 776.666 126.469 776.422 125.679C776.186 124.882 776.068 124.039 776.068 123.152V122.64C776.068 121.753 776.186 120.914 776.422 120.125C776.666 119.327 777.028 118.624 777.508 118.013C777.997 117.403 778.607 116.923 779.339 116.573C780.08 116.223 780.947 116.048 781.939 116.048C782.973 116.048 783.876 116.259 784.649 116.683C785.423 117.098 786.029 117.667 786.468 118.392C786.916 119.108 787.16 119.922 787.201 120.833H785.052C785.012 120.288 784.857 119.795 784.588 119.356C784.328 118.917 783.97 118.567 783.514 118.306C783.067 118.038 782.542 117.903 781.939 117.903C781.248 117.903 780.666 118.042 780.194 118.318C779.73 118.587 779.36 118.953 779.083 119.417C778.814 119.873 778.619 120.381 778.497 120.943C778.383 121.496 778.326 122.062 778.326 122.64V123.152C778.326 123.73 778.383 124.3 778.497 124.861C778.611 125.423 778.802 125.931 779.071 126.387C779.347 126.843 779.718 127.209 780.182 127.486C780.654 127.754 781.24 127.889 781.939 127.889ZM795.221 129.744C794.301 129.744 793.467 129.59 792.718 129.28C791.978 128.963 791.339 128.519 790.802 127.95C790.273 127.38 789.866 126.705 789.581 125.923C789.296 125.142 789.154 124.288 789.154 123.36V122.847C789.154 121.773 789.312 120.817 789.63 119.979C789.947 119.132 790.379 118.416 790.924 117.83C791.469 117.244 792.088 116.801 792.779 116.5C793.471 116.198 794.187 116.048 794.928 116.048C795.872 116.048 796.686 116.211 797.369 116.536C798.061 116.862 798.626 117.317 799.066 117.903C799.505 118.481 799.831 119.165 800.042 119.954C800.254 120.735 800.36 121.59 800.36 122.518V123.531H790.497V121.688H798.102V121.517C798.069 120.931 797.947 120.361 797.735 119.808C797.532 119.254 797.206 118.799 796.759 118.44C796.311 118.082 795.701 117.903 794.928 117.903C794.415 117.903 793.943 118.013 793.512 118.233C793.08 118.444 792.71 118.762 792.401 119.185C792.092 119.608 791.852 120.125 791.681 120.735C791.51 121.346 791.424 122.05 791.424 122.847V123.36C791.424 123.986 791.51 124.576 791.681 125.13C791.86 125.675 792.116 126.155 792.45 126.57C792.792 126.985 793.202 127.311 793.683 127.547C794.171 127.783 794.724 127.901 795.343 127.901C796.14 127.901 796.816 127.738 797.369 127.413C797.923 127.087 798.407 126.652 798.822 126.106L800.189 127.193C799.904 127.624 799.542 128.035 799.103 128.426C798.663 128.816 798.122 129.134 797.479 129.378C796.844 129.622 796.091 129.744 795.221 129.744ZM810.687 125.997C810.687 125.671 810.614 125.37 810.467 125.093C810.329 124.808 810.04 124.552 809.601 124.324C809.169 124.088 808.518 123.885 807.647 123.714C806.915 123.559 806.252 123.376 805.658 123.165C805.072 122.953 804.571 122.697 804.156 122.396C803.749 122.094 803.436 121.74 803.216 121.333C802.997 120.927 802.887 120.451 802.887 119.905C802.887 119.384 803.001 118.892 803.229 118.428C803.465 117.964 803.794 117.553 804.217 117.195C804.649 116.837 805.165 116.556 805.768 116.353C806.37 116.15 807.041 116.048 807.782 116.048C808.84 116.048 809.743 116.235 810.492 116.609C811.24 116.984 811.814 117.484 812.213 118.111C812.612 118.729 812.811 119.417 812.811 120.174H810.553C810.553 119.808 810.443 119.454 810.223 119.112C810.012 118.762 809.698 118.473 809.283 118.245C808.876 118.017 808.376 117.903 807.782 117.903C807.155 117.903 806.646 118.001 806.256 118.196C805.873 118.383 805.593 118.624 805.414 118.917C805.243 119.209 805.157 119.519 805.157 119.844C805.157 120.088 805.198 120.308 805.279 120.503C805.369 120.691 805.523 120.866 805.743 121.028C805.963 121.183 806.272 121.329 806.671 121.468C807.07 121.606 807.578 121.744 808.197 121.883C809.279 122.127 810.17 122.42 810.87 122.762C811.57 123.104 812.091 123.523 812.433 124.019C812.774 124.515 812.945 125.118 812.945 125.826C812.945 126.403 812.823 126.932 812.579 127.413C812.343 127.893 811.997 128.308 811.542 128.658C811.094 129 810.557 129.268 809.93 129.463C809.312 129.651 808.616 129.744 807.843 129.744C806.679 129.744 805.694 129.537 804.889 129.122C804.083 128.707 803.473 128.169 803.058 127.51C802.643 126.851 802.435 126.155 802.435 125.423H804.706C804.738 126.041 804.917 126.534 805.243 126.9C805.568 127.258 805.967 127.514 806.439 127.669C806.911 127.815 807.379 127.889 807.843 127.889C808.461 127.889 808.978 127.807 809.393 127.645C809.816 127.482 810.138 127.258 810.357 126.973C810.577 126.688 810.687 126.363 810.687 125.997Z" fill="white"/>
<rect x="674" y="172.5" width="190" height="63" rx="8" fill="#5298AE"/>
<path d="M734.833 204.187H730.328L730.304 202.295H734.393C735.069 202.295 735.659 202.181 736.163 201.953C736.668 201.725 737.058 201.4 737.335 200.977C737.62 200.545 737.762 200.033 737.762 199.438C737.762 198.787 737.636 198.258 737.384 197.852C737.14 197.437 736.761 197.135 736.249 196.948C735.744 196.753 735.101 196.655 734.32 196.655H730.853V212.5H728.497V194.727H734.32C735.231 194.727 736.045 194.82 736.761 195.007C737.477 195.186 738.084 195.471 738.58 195.862C739.085 196.244 739.467 196.733 739.728 197.327C739.988 197.921 740.118 198.633 740.118 199.463C740.118 200.195 739.931 200.859 739.557 201.453C739.182 202.039 738.661 202.519 737.994 202.893C737.335 203.267 736.562 203.507 735.675 203.613L734.833 204.187ZM734.723 212.5H729.4L730.731 210.583H734.723C735.471 210.583 736.106 210.453 736.627 210.193C737.156 209.932 737.559 209.566 737.835 209.094C738.112 208.614 738.25 208.049 738.25 207.397C738.25 206.738 738.132 206.169 737.896 205.688C737.66 205.208 737.29 204.838 736.786 204.578C736.281 204.317 735.63 204.187 734.833 204.187H731.476L731.5 202.295H736.09L736.59 202.979C737.445 203.052 738.169 203.296 738.763 203.711C739.357 204.118 739.809 204.639 740.118 205.273C740.436 205.908 740.594 206.608 740.594 207.373C740.594 208.48 740.35 209.416 739.862 210.181C739.382 210.938 738.702 211.515 737.823 211.914C736.944 212.305 735.911 212.5 734.723 212.5ZM745.99 201.367V212.5H743.731V199.292H745.929L745.99 201.367ZM750.116 199.219L750.104 201.318C749.916 201.278 749.737 201.253 749.566 201.245C749.404 201.229 749.216 201.221 749.005 201.221C748.484 201.221 748.024 201.302 747.625 201.465C747.227 201.628 746.889 201.855 746.612 202.148C746.336 202.441 746.116 202.791 745.953 203.198C745.799 203.597 745.697 204.036 745.648 204.517L745.013 204.883C745.013 204.085 745.09 203.337 745.245 202.637C745.408 201.937 745.656 201.318 745.99 200.781C746.323 200.236 746.747 199.813 747.259 199.512C747.78 199.202 748.399 199.048 749.115 199.048C749.278 199.048 749.465 199.068 749.676 199.109C749.888 199.141 750.034 199.178 750.116 199.219ZM751.361 206.042V205.762C751.361 204.81 751.499 203.927 751.776 203.113C752.053 202.291 752.451 201.579 752.972 200.977C753.493 200.366 754.124 199.894 754.864 199.561C755.605 199.219 756.435 199.048 757.354 199.048C758.282 199.048 759.116 199.219 759.857 199.561C760.606 199.894 761.24 200.366 761.761 200.977C762.29 201.579 762.693 202.291 762.97 203.113C763.246 203.927 763.385 204.81 763.385 205.762V206.042C763.385 206.995 763.246 207.878 762.97 208.691C762.693 209.505 762.29 210.217 761.761 210.828C761.24 211.43 760.61 211.902 759.869 212.244C759.137 212.577 758.307 212.744 757.379 212.744C756.451 212.744 755.617 212.577 754.876 212.244C754.136 211.902 753.501 211.43 752.972 210.828C752.451 210.217 752.053 209.505 751.776 208.691C751.499 207.878 751.361 206.995 751.361 206.042ZM753.619 205.762V206.042C753.619 206.702 753.696 207.324 753.851 207.91C754.006 208.488 754.238 209.001 754.547 209.448C754.864 209.896 755.259 210.25 755.731 210.51C756.203 210.763 756.752 210.889 757.379 210.889C757.997 210.889 758.539 210.763 759.002 210.51C759.474 210.25 759.865 209.896 760.174 209.448C760.484 209.001 760.715 208.488 760.87 207.91C761.033 207.324 761.114 206.702 761.114 206.042V205.762C761.114 205.111 761.033 204.496 760.87 203.918C760.715 203.333 760.479 202.816 760.162 202.368C759.853 201.912 759.462 201.554 758.99 201.294C758.526 201.034 757.981 200.903 757.354 200.903C756.736 200.903 756.191 201.034 755.719 201.294C755.255 201.554 754.864 201.912 754.547 202.368C754.238 202.816 754.006 203.333 753.851 203.918C753.696 204.496 753.619 205.111 753.619 205.762ZM768.487 193.75V212.5H766.217V193.75H768.487ZM776.556 199.292L770.794 205.457L767.572 208.801L767.389 206.396L769.696 203.638L773.797 199.292H776.556ZM774.493 212.5L769.781 206.201L770.953 204.187L777.154 212.5H774.493ZM784.125 212.744C783.205 212.744 782.371 212.59 781.622 212.28C780.882 211.963 780.243 211.519 779.706 210.95C779.177 210.38 778.77 209.705 778.485 208.923C778.2 208.142 778.058 207.288 778.058 206.36V205.847C778.058 204.773 778.216 203.817 778.534 202.979C778.851 202.132 779.282 201.416 779.828 200.83C780.373 200.244 780.991 199.801 781.683 199.5C782.375 199.198 783.091 199.048 783.832 199.048C784.776 199.048 785.589 199.211 786.273 199.536C786.965 199.862 787.53 200.317 787.97 200.903C788.409 201.481 788.735 202.165 788.946 202.954C789.158 203.735 789.264 204.59 789.264 205.518V206.531H779.4V204.688H787.005V204.517C786.973 203.931 786.851 203.361 786.639 202.808C786.436 202.254 786.11 201.799 785.663 201.44C785.215 201.082 784.605 200.903 783.832 200.903C783.319 200.903 782.847 201.013 782.416 201.233C781.984 201.444 781.614 201.762 781.305 202.185C780.995 202.608 780.755 203.125 780.584 203.735C780.414 204.346 780.328 205.05 780.328 205.847V206.36C780.328 206.986 780.414 207.576 780.584 208.13C780.764 208.675 781.02 209.155 781.354 209.57C781.695 209.985 782.106 210.311 782.586 210.547C783.075 210.783 783.628 210.901 784.247 210.901C785.044 210.901 785.72 210.738 786.273 210.413C786.826 210.087 787.311 209.652 787.726 209.106L789.093 210.193C788.808 210.624 788.446 211.035 788.006 211.426C787.567 211.816 787.026 212.134 786.383 212.378C785.748 212.622 784.995 212.744 784.125 212.744ZM794.159 201.367V212.5H791.9V199.292H794.098L794.159 201.367ZM798.285 199.219L798.272 201.318C798.085 201.278 797.906 201.253 797.735 201.245C797.573 201.229 797.385 201.221 797.174 201.221C796.653 201.221 796.193 201.302 795.794 201.465C795.396 201.628 795.058 201.855 794.781 202.148C794.505 202.441 794.285 202.791 794.122 203.198C793.967 203.597 793.866 204.036 793.817 204.517L793.182 204.883C793.182 204.085 793.259 203.337 793.414 202.637C793.577 201.937 793.825 201.318 794.159 200.781C794.492 200.236 794.916 199.813 795.428 199.512C795.949 199.202 796.568 199.048 797.284 199.048C797.446 199.048 797.634 199.068 797.845 199.109C798.057 199.141 798.203 199.178 798.285 199.219ZM808.062 208.997C808.062 208.671 807.989 208.37 807.843 208.093C807.704 207.808 807.416 207.552 806.976 207.324C806.545 207.088 805.894 206.885 805.023 206.714C804.291 206.559 803.627 206.376 803.033 206.165C802.447 205.953 801.947 205.697 801.532 205.396C801.125 205.094 800.812 204.74 800.592 204.333C800.372 203.927 800.262 203.451 800.262 202.905C800.262 202.384 800.376 201.892 800.604 201.428C800.84 200.964 801.17 200.553 801.593 200.195C802.024 199.837 802.541 199.556 803.143 199.353C803.745 199.15 804.417 199.048 805.157 199.048C806.215 199.048 807.118 199.235 807.867 199.609C808.616 199.984 809.19 200.484 809.588 201.111C809.987 201.729 810.187 202.417 810.187 203.174H807.928C807.928 202.808 807.818 202.454 807.599 202.112C807.387 201.762 807.074 201.473 806.659 201.245C806.252 201.017 805.751 200.903 805.157 200.903C804.531 200.903 804.022 201.001 803.631 201.196C803.249 201.383 802.968 201.624 802.789 201.917C802.618 202.209 802.533 202.519 802.533 202.844C802.533 203.088 802.573 203.308 802.655 203.503C802.744 203.691 802.899 203.866 803.119 204.028C803.338 204.183 803.648 204.329 804.046 204.468C804.445 204.606 804.954 204.744 805.572 204.883C806.655 205.127 807.546 205.42 808.246 205.762C808.945 206.104 809.466 206.523 809.808 207.019C810.15 207.515 810.321 208.118 810.321 208.826C810.321 209.403 810.199 209.932 809.955 210.413C809.719 210.893 809.373 211.308 808.917 211.658C808.469 212 807.932 212.268 807.306 212.463C806.687 212.651 805.991 212.744 805.218 212.744C804.055 212.744 803.07 212.537 802.264 212.122C801.458 211.707 800.848 211.169 800.433 210.51C800.018 209.851 799.811 209.155 799.811 208.423H802.081C802.114 209.041 802.293 209.534 802.618 209.9C802.944 210.258 803.342 210.514 803.814 210.669C804.286 210.815 804.754 210.889 805.218 210.889C805.837 210.889 806.354 210.807 806.769 210.645C807.192 210.482 807.513 210.258 807.733 209.973C807.953 209.688 808.062 209.363 808.062 208.997Z" fill="white"/>
<rect x="674" y="255.5" width="190" height="63" rx="8" fill="#5298AE"/>
<path d="M732 277.727V295.5H729.681V277.727H732ZM737.713 277.727V279.655H723.98V277.727H737.713ZM741.339 284.367V295.5H739.081V282.292H741.278L741.339 284.367ZM745.465 282.219L745.453 284.318C745.265 284.278 745.086 284.253 744.916 284.245C744.753 284.229 744.566 284.221 744.354 284.221C743.833 284.221 743.373 284.302 742.975 284.465C742.576 284.628 742.238 284.855 741.961 285.148C741.685 285.441 741.465 285.791 741.302 286.198C741.148 286.597 741.046 287.036 740.997 287.517L740.362 287.883C740.362 287.085 740.44 286.337 740.594 285.637C740.757 284.937 741.005 284.318 741.339 283.781C741.673 283.236 742.096 282.813 742.608 282.512C743.129 282.202 743.748 282.048 744.464 282.048C744.627 282.048 744.814 282.068 745.025 282.109C745.237 282.141 745.383 282.178 745.465 282.219ZM750.006 282.292V295.5H747.735V282.292H750.006ZM747.564 278.789C747.564 278.422 747.674 278.113 747.894 277.861C748.122 277.609 748.456 277.482 748.895 277.482C749.326 277.482 749.656 277.609 749.884 277.861C750.12 278.113 750.238 278.422 750.238 278.789C750.238 279.139 750.12 279.44 749.884 279.692C749.656 279.936 749.326 280.058 748.895 280.058C748.456 280.058 748.122 279.936 747.894 279.692C747.674 279.44 747.564 279.139 747.564 278.789ZM762.188 282.292H764.239V295.219C764.239 296.383 764.003 297.376 763.531 298.198C763.059 299.02 762.4 299.642 761.554 300.065C760.715 300.497 759.747 300.712 758.648 300.712C758.193 300.712 757.656 300.639 757.037 300.493C756.427 300.354 755.825 300.114 755.23 299.772C754.645 299.439 754.152 298.987 753.753 298.417L754.938 297.075C755.491 297.742 756.069 298.206 756.671 298.466C757.281 298.727 757.883 298.857 758.478 298.857C759.194 298.857 759.812 298.723 760.333 298.454C760.854 298.186 761.257 297.787 761.542 297.258C761.834 296.737 761.981 296.094 761.981 295.329V285.197L762.188 282.292ZM753.094 289.042V288.786C753.094 287.777 753.212 286.861 753.448 286.04C753.692 285.209 754.038 284.497 754.486 283.903C754.942 283.309 755.491 282.854 756.134 282.536C756.777 282.211 757.501 282.048 758.307 282.048C759.137 282.048 759.861 282.194 760.479 282.487C761.106 282.772 761.635 283.191 762.066 283.745C762.506 284.29 762.852 284.949 763.104 285.722C763.356 286.495 763.531 287.37 763.629 288.347V289.47C763.539 290.438 763.364 291.309 763.104 292.082C762.852 292.855 762.506 293.514 762.066 294.06C761.635 294.605 761.106 295.024 760.479 295.317C759.853 295.602 759.12 295.744 758.282 295.744C757.493 295.744 756.777 295.577 756.134 295.244C755.499 294.91 754.954 294.442 754.498 293.84C754.042 293.238 753.692 292.53 753.448 291.716C753.212 290.894 753.094 290.003 753.094 289.042ZM755.353 288.786V289.042C755.353 289.702 755.418 290.32 755.548 290.898C755.686 291.476 755.894 291.984 756.17 292.424C756.455 292.863 756.817 293.209 757.257 293.461C757.696 293.706 758.221 293.828 758.832 293.828C759.58 293.828 760.199 293.669 760.687 293.352C761.175 293.034 761.562 292.615 761.847 292.094C762.14 291.573 762.368 291.008 762.53 290.397V287.456C762.441 287.008 762.302 286.577 762.115 286.162C761.936 285.738 761.7 285.364 761.407 285.039C761.122 284.705 760.768 284.44 760.345 284.245C759.922 284.05 759.426 283.952 758.856 283.952C758.237 283.952 757.704 284.082 757.257 284.343C756.817 284.595 756.455 284.945 756.17 285.393C755.894 285.832 755.686 286.345 755.548 286.931C755.418 287.508 755.353 288.127 755.353 288.786ZM776.227 282.292H778.277V295.219C778.277 296.383 778.041 297.376 777.569 298.198C777.097 299.02 776.438 299.642 775.592 300.065C774.754 300.497 773.785 300.712 772.687 300.712C772.231 300.712 771.694 300.639 771.075 300.493C770.465 300.354 769.863 300.114 769.269 299.772C768.683 299.439 768.19 298.987 767.792 298.417L768.976 297.075C769.529 297.742 770.107 298.206 770.709 298.466C771.319 298.727 771.922 298.857 772.516 298.857C773.232 298.857 773.85 298.723 774.371 298.454C774.892 298.186 775.295 297.787 775.58 297.258C775.873 296.737 776.019 296.094 776.019 295.329V285.197L776.227 282.292ZM767.132 289.042V288.786C767.132 287.777 767.25 286.861 767.486 286.04C767.73 285.209 768.076 284.497 768.524 283.903C768.98 283.309 769.529 282.854 770.172 282.536C770.815 282.211 771.539 282.048 772.345 282.048C773.175 282.048 773.899 282.194 774.518 282.487C775.144 282.772 775.673 283.191 776.104 283.745C776.544 284.29 776.89 284.949 777.142 285.722C777.394 286.495 777.569 287.37 777.667 288.347V289.47C777.577 290.438 777.403 291.309 777.142 292.082C776.89 292.855 776.544 293.514 776.104 294.06C775.673 294.605 775.144 295.024 774.518 295.317C773.891 295.602 773.159 295.744 772.32 295.744C771.531 295.744 770.815 295.577 770.172 295.244C769.537 294.91 768.992 294.442 768.536 293.84C768.08 293.238 767.73 292.53 767.486 291.716C767.25 290.894 767.132 290.003 767.132 289.042ZM769.391 288.786V289.042C769.391 289.702 769.456 290.32 769.586 290.898C769.724 291.476 769.932 291.984 770.208 292.424C770.493 292.863 770.855 293.209 771.295 293.461C771.734 293.706 772.259 293.828 772.87 293.828C773.618 293.828 774.237 293.669 774.725 293.352C775.213 293.034 775.6 292.615 775.885 292.094C776.178 291.573 776.406 291.008 776.568 290.397V287.456C776.479 287.008 776.34 286.577 776.153 286.162C775.974 285.738 775.738 285.364 775.445 285.039C775.16 284.705 774.806 284.44 774.383 284.245C773.96 284.05 773.464 283.952 772.894 283.952C772.276 283.952 771.743 284.082 771.295 284.343C770.855 284.595 770.493 284.945 770.208 285.393C769.932 285.832 769.724 286.345 769.586 286.931C769.456 287.508 769.391 288.127 769.391 288.786ZM787.188 295.744C786.269 295.744 785.435 295.59 784.686 295.28C783.945 294.963 783.307 294.519 782.77 293.95C782.241 293.38 781.834 292.705 781.549 291.923C781.264 291.142 781.122 290.288 781.122 289.36V288.847C781.122 287.773 781.28 286.817 781.598 285.979C781.915 285.132 782.346 284.416 782.892 283.83C783.437 283.244 784.055 282.801 784.747 282.5C785.439 282.198 786.155 282.048 786.896 282.048C787.84 282.048 788.653 282.211 789.337 282.536C790.029 282.862 790.594 283.317 791.034 283.903C791.473 284.481 791.799 285.165 792.01 285.954C792.222 286.735 792.328 287.59 792.328 288.518V289.531H782.464V287.688H790.069V287.517C790.037 286.931 789.915 286.361 789.703 285.808C789.5 285.254 789.174 284.799 788.727 284.44C788.279 284.082 787.669 283.903 786.896 283.903C786.383 283.903 785.911 284.013 785.479 284.233C785.048 284.444 784.678 284.762 784.369 285.185C784.059 285.608 783.819 286.125 783.648 286.735C783.478 287.346 783.392 288.05 783.392 288.847V289.36C783.392 289.986 783.478 290.576 783.648 291.13C783.827 291.675 784.084 292.155 784.417 292.57C784.759 292.985 785.17 293.311 785.65 293.547C786.139 293.783 786.692 293.901 787.311 293.901C788.108 293.901 788.784 293.738 789.337 293.413C789.89 293.087 790.375 292.652 790.79 292.106L792.157 293.193C791.872 293.624 791.51 294.035 791.07 294.426C790.631 294.816 790.09 295.134 789.447 295.378C788.812 295.622 788.059 295.744 787.188 295.744ZM797.223 284.367V295.5H794.964V282.292H797.162L797.223 284.367ZM801.349 282.219L801.336 284.318C801.149 284.278 800.97 284.253 800.799 284.245C800.637 284.229 800.449 284.221 800.238 284.221C799.717 284.221 799.257 284.302 798.858 284.465C798.46 284.628 798.122 284.855 797.845 285.148C797.569 285.441 797.349 285.791 797.186 286.198C797.031 286.597 796.93 287.036 796.881 287.517L796.246 287.883C796.246 287.085 796.323 286.337 796.478 285.637C796.641 284.937 796.889 284.318 797.223 283.781C797.556 283.236 797.979 282.813 798.492 282.512C799.013 282.202 799.632 282.048 800.348 282.048C800.51 282.048 800.698 282.068 800.909 282.109C801.121 282.141 801.267 282.178 801.349 282.219ZM811.126 291.997C811.126 291.671 811.053 291.37 810.907 291.093C810.768 290.808 810.479 290.552 810.04 290.324C809.609 290.088 808.958 289.885 808.087 289.714C807.354 289.559 806.691 289.376 806.097 289.165C805.511 288.953 805.011 288.697 804.596 288.396C804.189 288.094 803.875 287.74 803.656 287.333C803.436 286.927 803.326 286.451 803.326 285.905C803.326 285.384 803.44 284.892 803.668 284.428C803.904 283.964 804.234 283.553 804.657 283.195C805.088 282.837 805.605 282.556 806.207 282.353C806.809 282.15 807.481 282.048 808.221 282.048C809.279 282.048 810.182 282.235 810.931 282.609C811.68 282.984 812.254 283.484 812.652 284.111C813.051 284.729 813.25 285.417 813.25 286.174H810.992C810.992 285.808 810.882 285.454 810.663 285.112C810.451 284.762 810.138 284.473 809.723 284.245C809.316 284.017 808.815 283.903 808.221 283.903C807.595 283.903 807.086 284.001 806.695 284.196C806.313 284.383 806.032 284.624 805.853 284.917C805.682 285.209 805.597 285.519 805.597 285.844C805.597 286.088 805.637 286.308 805.719 286.503C805.808 286.691 805.963 286.866 806.183 287.028C806.402 287.183 806.712 287.329 807.11 287.468C807.509 287.606 808.018 287.744 808.636 287.883C809.719 288.127 810.61 288.42 811.31 288.762C812.009 289.104 812.53 289.523 812.872 290.019C813.214 290.515 813.385 291.118 813.385 291.826C813.385 292.403 813.263 292.932 813.019 293.413C812.783 293.893 812.437 294.308 811.981 294.658C811.533 295 810.996 295.268 810.37 295.463C809.751 295.651 809.055 295.744 808.282 295.744C807.118 295.744 806.134 295.537 805.328 295.122C804.522 294.707 803.912 294.169 803.497 293.51C803.082 292.851 802.875 292.155 802.875 291.423H805.145C805.178 292.041 805.357 292.534 805.682 292.9C806.008 293.258 806.406 293.514 806.878 293.669C807.35 293.815 807.818 293.889 808.282 293.889C808.901 293.889 809.417 293.807 809.833 293.645C810.256 293.482 810.577 293.258 810.797 292.973C811.017 292.688 811.126 292.363 811.126 291.997Z" fill="white"/>
<rect x="610" y="4" width="318" height="345" rx="20" stroke="#5298AE" stroke-width="8"/>
<path d="M257.5 57L248.5 50L257.5 43" stroke="#F5C989" stroke-width="4" stroke-linecap="round" stroke-linejoin="round"/>
<path d="M269.5 57L260.5 50L269.5 43" stroke="#F5C989" stroke-width="4" stroke-linecap="round" stroke-linejoin="round"/>
<path d="M660.5 204L669.5 197L660.5 190" stroke="#F5C989" stroke-width="4" stroke-linecap="round" stroke-linejoin="round"/>
<path d="M648.5 204L657.5 197L648.5 190" stroke="#F5C989" stroke-width="4" stroke-linecap="round" stroke-linejoin="round"/>
<path d="M247.5 205L238.5 198L247.5 191" stroke="#F5C989" stroke-width="4" stroke-linecap="round" stroke-linejoin="round"/>
<path d="M259.5 205L250.5 198L259.5 191" stroke="#F5C989" stroke-width="4" stroke-linecap="round" stroke-linejoin="round"/>
<path d="M851.5 289L842.5 282L851.5 275" stroke="#F5C989" stroke-width="4" stroke-linecap="round" stroke-linejoin="round"/>
<path d="M863.5 289L854.5 282L863.5 275" stroke="#F5C989" stroke-width="4" stroke-linecap="round" stroke-linejoin="round"/>
<path d="M84.5 291L93.5 284L84.5 277" stroke="#F5C989" stroke-width="4" stroke-linecap="round" stroke-linejoin="round"/>
<path d="M72.5 291L81.5 284L72.5 277" stroke="#F5C989" stroke-width="4" stroke-linecap="round" stroke-linejoin="round"/>
<path d="M247.5 289L238.5 282L247.5 275" stroke="#F5C989" stroke-width="4" stroke-linecap="round" stroke-linejoin="round"/>
<path d="M259.5 289L250.5 282L259.5 275" stroke="#F5C989" stroke-width="4" stroke-linecap="round" stroke-linejoin="round"/>
<path d="M523.5 289L514.5 282L523.5 275" stroke="#F5C989" stroke-width="4" stroke-linecap="round" stroke-linejoin="round"/>
<path d="M535.5 289L526.5 282L535.5 275" stroke="#F5C989" stroke-width="4" stroke-linecap="round" stroke-linejoin="round"/>
<path d="M671 282H536.5" stroke="#F5C989" stroke-width="4" stroke-linecap="round" stroke-linejoin="round" stroke-dasharray="8 8"/>
<path d="M444.5 282H261.5" stroke="#F5C989" stroke-width="4" stroke-linecap="round" stroke-linejoin="round" stroke-dasharray="8 8"/>
<path d="M405 85.5H366V50H270.5" stroke="#F5C989" stroke-width="4" stroke-linecap="round" stroke-linejoin="round"/>
<path d="M676 114H535V196.5H647.5" stroke="#F5C989" stroke-width="4" stroke-linecap="round" stroke-linejoin="round" stroke-dasharray="8 8"/>
<path d="M72 198.5H38V283.5H72" stroke="#F5C989" stroke-width="4" stroke-linecap="round" stroke-linejoin="round"/>
<path d="M260.5 113H294.5V198H260.5" stroke="#F5C989" stroke-width="4" stroke-linecap="round" stroke-linejoin="round"/>
<path d="M864.5 197H898.5V282H864.5" stroke="#F5C989" stroke-width="4" stroke-linecap="round" stroke-linejoin="round"/>
<path d="M427 85H470" stroke="#F5C989" stroke-width="2" stroke-linecap="round"/>
<path d="M436.851 64.3271V80H433.757V67.8936L430.04 69.0752V66.6367L436.518 64.3271H436.851ZM452.47 70.8047V73.5117C452.47 74.6862 452.344 75.6995 452.094 76.5518C451.843 77.3968 451.481 78.0915 451.009 78.6357C450.543 79.1729 449.988 79.5703 449.344 79.8281C448.699 80.0859 447.983 80.2148 447.195 80.2148C446.565 80.2148 445.978 80.1361 445.434 79.9785C444.889 79.8138 444.399 79.5596 443.962 79.2158C443.532 78.8721 443.16 78.4388 442.845 77.916C442.537 77.3861 442.3 76.7559 442.136 76.0254C441.971 75.2949 441.889 74.457 441.889 73.5117V70.8047C441.889 69.6302 442.014 68.624 442.265 67.7861C442.522 66.9411 442.884 66.25 443.35 65.7129C443.822 65.1758 444.381 64.7819 445.025 64.5312C445.67 64.2734 446.386 64.1445 447.174 64.1445C447.804 64.1445 448.388 64.2269 448.925 64.3916C449.469 64.5492 449.96 64.7962 450.396 65.1328C450.833 65.4694 451.206 65.9027 451.514 66.4326C451.822 66.9554 452.058 67.582 452.223 68.3125C452.387 69.0358 452.47 69.8665 452.47 70.8047ZM449.365 73.9199V70.3857C449.365 69.82 449.333 69.3258 449.269 68.9033C449.211 68.4808 449.122 68.1227 449 67.8291C448.878 67.5283 448.728 67.2848 448.549 67.0986C448.37 66.9124 448.166 66.7764 447.937 66.6904C447.707 66.6045 447.453 66.5615 447.174 66.5615C446.823 66.5615 446.511 66.6296 446.239 66.7656C445.974 66.9017 445.749 67.1201 445.562 67.4209C445.376 67.7145 445.233 68.1084 445.133 68.6025C445.04 69.0895 444.993 69.6839 444.993 70.3857V73.9199C444.993 74.4857 445.022 74.9834 445.079 75.4131C445.144 75.8428 445.237 76.2116 445.358 76.5195C445.487 76.8203 445.638 77.0674 445.81 77.2607C445.989 77.4469 446.193 77.583 446.422 77.6689C446.658 77.7549 446.916 77.7979 447.195 77.7979C447.539 77.7979 447.843 77.7298 448.108 77.5938C448.381 77.4505 448.61 77.2285 448.796 76.9277C448.989 76.6198 449.132 76.2188 449.226 75.7246C449.319 75.2305 449.365 74.6289 449.365 73.9199ZM454.532 68.1943V67.3672C454.532 66.7728 454.661 66.2321 454.919 65.7451C455.177 65.2581 455.556 64.8678 456.058 64.5742C456.559 64.2806 457.175 64.1338 457.905 64.1338C458.657 64.1338 459.284 64.2806 459.785 64.5742C460.294 64.8678 460.673 65.2581 460.924 65.7451C461.182 66.2321 461.311 66.7728 461.311 67.3672V68.1943C461.311 68.7744 461.182 69.3079 460.924 69.7949C460.673 70.2819 460.297 70.6722 459.796 70.9658C459.295 71.2594 458.675 71.4062 457.938 71.4062C457.193 71.4062 456.566 71.2594 456.058 70.9658C455.556 70.6722 455.177 70.2819 454.919 69.7949C454.661 69.3079 454.532 68.7744 454.532 68.1943ZM456.584 67.3672V68.1943C456.584 68.445 456.631 68.6849 456.724 68.9141C456.824 69.1361 456.974 69.3187 457.175 69.4619C457.382 69.598 457.633 69.666 457.927 69.666C458.235 69.666 458.485 69.598 458.679 69.4619C458.872 69.3187 459.015 69.1361 459.108 68.9141C459.201 68.6849 459.248 68.445 459.248 68.1943V67.3672C459.248 67.1022 459.198 66.8587 459.098 66.6367C459.005 66.4076 458.858 66.2249 458.657 66.0889C458.464 65.9456 458.213 65.874 457.905 65.874C457.619 65.874 457.375 65.9456 457.175 66.0889C456.974 66.2249 456.824 66.4076 456.724 66.6367C456.631 66.8587 456.584 67.1022 456.584 67.3672ZM462.009 76.9922V76.165C462.009 75.5778 462.138 75.0407 462.396 74.5537C462.66 74.0667 463.044 73.6764 463.545 73.3828C464.053 73.0892 464.676 72.9424 465.414 72.9424C466.159 72.9424 466.782 73.0892 467.283 73.3828C467.785 73.6764 468.164 74.0667 468.422 74.5537C468.68 75.0407 468.809 75.5778 468.809 76.165V76.9922C468.809 77.5794 468.68 78.1165 468.422 78.6035C468.171 79.0905 467.795 79.4808 467.294 79.7744C466.793 80.068 466.173 80.2148 465.436 80.2148C464.691 80.2148 464.064 80.068 463.556 79.7744C463.047 79.4808 462.66 79.0905 462.396 78.6035C462.138 78.1165 462.009 77.5794 462.009 76.9922ZM464.071 76.165V76.9922C464.071 77.25 464.129 77.4935 464.243 77.7227C464.358 77.9518 464.515 78.1344 464.716 78.2705C464.924 78.4066 465.163 78.4746 465.436 78.4746C465.779 78.4746 466.048 78.4066 466.241 78.2705C466.435 78.1344 466.567 77.9518 466.639 77.7227C466.717 77.4935 466.757 77.25 466.757 76.9922V76.165C466.757 75.9072 466.707 75.6673 466.606 75.4453C466.506 75.2161 466.356 75.0335 466.155 74.8975C465.962 74.7542 465.715 74.6826 465.414 74.6826C465.113 74.6826 464.863 74.7542 464.662 74.8975C464.469 75.0335 464.322 75.2161 464.222 75.4453C464.121 75.6673 464.071 75.9072 464.071 76.165ZM466.177 66.5938L458.539 78.8184L457.035 78.0234L464.673 65.7988L466.177 66.5938Z" fill="#F5C989"/>
<path d="M431.501 106.647H431.705C432.564 106.647 433.302 106.544 433.918 106.336C434.541 106.121 435.053 105.813 435.454 105.412C435.855 105.011 436.152 104.521 436.346 103.94C436.539 103.353 436.636 102.687 436.636 101.942V98.9775C436.636 98.4118 436.578 97.9141 436.464 97.4844C436.356 97.0547 436.199 96.7002 435.991 96.4209C435.791 96.1344 435.554 95.9196 435.282 95.7764C435.017 95.6331 434.724 95.5615 434.401 95.5615C434.058 95.5615 433.753 95.6475 433.488 95.8193C433.223 95.984 432.998 96.2096 432.812 96.4961C432.632 96.7826 432.493 97.112 432.393 97.4844C432.299 97.8496 432.253 98.2327 432.253 98.6338C432.253 99.0348 432.299 99.418 432.393 99.7832C432.486 100.141 432.625 100.46 432.812 100.739C432.998 101.011 433.23 101.23 433.51 101.395C433.789 101.552 434.118 101.631 434.498 101.631C434.863 101.631 435.189 101.563 435.476 101.427C435.769 101.284 436.016 101.097 436.217 100.868C436.424 100.639 436.582 100.385 436.689 100.105C436.804 99.8262 436.861 99.5433 436.861 99.2568L437.882 99.8154C437.882 100.317 437.774 100.811 437.56 101.298C437.345 101.785 437.044 102.229 436.657 102.63C436.278 103.024 435.837 103.339 435.336 103.575C434.835 103.812 434.298 103.93 433.725 103.93C432.994 103.93 432.346 103.797 431.78 103.532C431.215 103.26 430.735 102.888 430.341 102.415C429.954 101.935 429.66 101.377 429.46 100.739C429.259 100.102 429.159 99.4108 429.159 98.666C429.159 97.9069 429.281 97.1943 429.524 96.5283C429.775 95.8623 430.13 95.2751 430.588 94.7666C431.053 94.2581 431.608 93.8607 432.253 93.5742C432.905 93.2806 433.628 93.1338 434.423 93.1338C435.218 93.1338 435.941 93.2878 436.593 93.5957C437.244 93.9036 437.803 94.3405 438.269 94.9062C438.734 95.4648 439.092 96.1344 439.343 96.915C439.601 97.6956 439.729 98.5622 439.729 99.5146V100.589C439.729 101.606 439.618 102.551 439.396 103.425C439.182 104.299 438.856 105.09 438.419 105.799C437.989 106.501 437.452 107.102 436.808 107.604C436.17 108.105 435.429 108.488 434.584 108.753C433.739 109.018 432.794 109.15 431.748 109.15H431.501V106.647ZM452.47 99.8047V102.512C452.47 103.686 452.344 104.7 452.094 105.552C451.843 106.397 451.481 107.091 451.009 107.636C450.543 108.173 449.988 108.57 449.344 108.828C448.699 109.086 447.983 109.215 447.195 109.215C446.565 109.215 445.978 109.136 445.434 108.979C444.889 108.814 444.399 108.56 443.962 108.216C443.532 107.872 443.16 107.439 442.845 106.916C442.537 106.386 442.3 105.756 442.136 105.025C441.971 104.295 441.889 103.457 441.889 102.512V99.8047C441.889 98.6302 442.014 97.624 442.265 96.7861C442.522 95.9411 442.884 95.25 443.35 94.7129C443.822 94.1758 444.381 93.7819 445.025 93.5312C445.67 93.2734 446.386 93.1445 447.174 93.1445C447.804 93.1445 448.388 93.2269 448.925 93.3916C449.469 93.5492 449.96 93.7962 450.396 94.1328C450.833 94.4694 451.206 94.9027 451.514 95.4326C451.822 95.9554 452.058 96.582 452.223 97.3125C452.387 98.0358 452.47 98.8665 452.47 99.8047ZM449.365 102.92V99.3857C449.365 98.82 449.333 98.3258 449.269 97.9033C449.211 97.4808 449.122 97.1227 449 96.8291C448.878 96.5283 448.728 96.2848 448.549 96.0986C448.37 95.9124 448.166 95.7764 447.937 95.6904C447.707 95.6045 447.453 95.5615 447.174 95.5615C446.823 95.5615 446.511 95.6296 446.239 95.7656C445.974 95.9017 445.749 96.1201 445.562 96.4209C445.376 96.7145 445.233 97.1084 445.133 97.6025C445.04 98.0895 444.993 98.6839 444.993 99.3857V102.92C444.993 103.486 445.022 103.983 445.079 104.413C445.144 104.843 445.237 105.212 445.358 105.52C445.487 105.82 445.638 106.067 445.81 106.261C445.989 106.447 446.193 106.583 446.422 106.669C446.658 106.755 446.916 106.798 447.195 106.798C447.539 106.798 447.843 106.73 448.108 106.594C448.381 106.451 448.61 106.229 448.796 105.928C448.989 105.62 449.132 105.219 449.226 104.725C449.319 104.23 449.365 103.629 449.365 102.92ZM454.532 97.1943V96.3672C454.532 95.7728 454.661 95.2321 454.919 94.7451C455.177 94.2581 455.556 93.8678 456.058 93.5742C456.559 93.2806 457.175 93.1338 457.905 93.1338C458.657 93.1338 459.284 93.2806 459.785 93.5742C460.294 93.8678 460.673 94.2581 460.924 94.7451C461.182 95.2321 461.311 95.7728 461.311 96.3672V97.1943C461.311 97.7744 461.182 98.3079 460.924 98.7949C460.673 99.2819 460.297 99.6722 459.796 99.9658C459.295 100.259 458.675 100.406 457.938 100.406C457.193 100.406 456.566 100.259 456.058 99.9658C455.556 99.6722 455.177 99.2819 454.919 98.7949C454.661 98.3079 454.532 97.7744 454.532 97.1943ZM456.584 96.3672V97.1943C456.584 97.445 456.631 97.6849 456.724 97.9141C456.824 98.1361 456.974 98.3187 457.175 98.4619C457.382 98.598 457.633 98.666 457.927 98.666C458.235 98.666 458.485 98.598 458.679 98.4619C458.872 98.3187 459.015 98.1361 459.108 97.9141C459.201 97.6849 459.248 97.445 459.248 97.1943V96.3672C459.248 96.1022 459.198 95.8587 459.098 95.6367C459.005 95.4076 458.858 95.2249 458.657 95.0889C458.464 94.9456 458.213 94.874 457.905 94.874C457.619 94.874 457.375 94.9456 457.175 95.0889C456.974 95.2249 456.824 95.4076 456.724 95.6367C456.631 95.8587 456.584 96.1022 456.584 96.3672ZM462.009 105.992V105.165C462.009 104.578 462.138 104.041 462.396 103.554C462.66 103.067 463.044 102.676 463.545 102.383C464.053 102.089 464.676 101.942 465.414 101.942C466.159 101.942 466.782 102.089 467.283 102.383C467.785 102.676 468.164 103.067 468.422 103.554C468.68 104.041 468.809 104.578 468.809 105.165V105.992C468.809 106.579 468.68 107.117 468.422 107.604C468.171 108.09 467.795 108.481 467.294 108.774C466.793 109.068 466.173 109.215 465.436 109.215C464.691 109.215 464.064 109.068 463.556 108.774C463.047 108.481 462.66 108.09 462.396 107.604C462.138 107.117 462.009 106.579 462.009 105.992ZM464.071 105.165V105.992C464.071 106.25 464.129 106.493 464.243 106.723C464.358 106.952 464.515 107.134 464.716 107.271C464.924 107.407 465.163 107.475 465.436 107.475C465.779 107.475 466.048 107.407 466.241 107.271C466.435 107.134 466.567 106.952 466.639 106.723C466.717 106.493 466.757 106.25 466.757 105.992V105.165C466.757 104.907 466.707 104.667 466.606 104.445C466.506 104.216 466.356 104.034 466.155 103.897C465.962 103.754 465.715 103.683 465.414 103.683C465.113 103.683 464.863 103.754 464.662 103.897C464.469 104.034 464.322 104.216 464.222 104.445C464.121 104.667 464.071 104.907 464.071 105.165ZM466.177 95.5938L458.539 107.818L457.035 107.023L464.673 94.7988L466.177 95.5938Z" fill="#F5C989"/>
<path d="M485.589 99.9527C482.561 107.805 476.878 114.348 469.527 118.445C462.176 122.543 453.621 123.935 445.35 122.381C437.079 120.826 429.614 116.423 424.252 109.936C418.891 103.45 415.971 95.2895 416 86.8737C416.03 78.4579 419.007 70.3185 424.414 63.8696C429.821 57.4208 437.317 53.0702 445.599 51.5737C453.881 50.0773 462.425 51.5297 469.747 55.6785C477.069 59.8272 482.706 66.4102 485.679 74.2835M485.589 99.9527L472.5 107M485.589 99.9527L487 114M485.679 74.2835L479 72.5M485.679 74.2835L489 68" stroke="#F5C989" stroke-width="4" stroke-linecap="round" stroke-linejoin="round"/>
<path d="M445 261C445 256.582 448.582 253 453 253H493C497.418 253 501 256.582 501 261V301C501 305.418 497.418 309 493 309H453C448.582 309 445 305.418 445 301V261Z" fill="white"/>
<path d="M445 261C445 256.582 448.582 253 453 253H493C497.418 253 501 256.582 501 261V301C501 305.418 497.418 309 493 309H453C448.582 309 445 305.418 445 301V261Z" fill="white"/>
<path d="M445 261C445 256.582 448.582 253 453 253H493C497.418 253 501 256.582 501 261V301C501 305.418 497.418 309 493 309H453C448.582 309 445 305.418 445 301V261Z" fill="#F5C989"/>
<path fill-rule="evenodd" clip-rule="evenodd" d="M458 270C458 268.895 458.895 268 460 268H489C490.105 268 491 268.895 491 270C491 271.105 490.105 272 489 272H460C458.895 272 458 271.105 458 270Z" fill="white"/>
<path fill-rule="evenodd" clip-rule="evenodd" d="M458 270C458 268.895 458.895 268 460 268H489C490.105 268 491 268.895 491 270C491 271.105 490.105 272 489 272H460C458.895 272 458 271.105 458 270Z" fill="white"/>
<path fill-rule="evenodd" clip-rule="evenodd" d="M458 270C458 268.895 458.895 268 460 268H489C490.105 268 491 268.895 491 270C491 271.105 490.105 272 489 272H460C458.895 272 458 271.105 458 270Z" fill="#F5C989"/>
<path fill-rule="evenodd" clip-rule="evenodd" d="M464 281.5C464 280.395 464.895 279.5 466 279.5H489C490.105 279.5 491 280.395 491 281.5C491 282.605 490.105 283.5 489 283.5H466C464.895 283.5 464 282.605 464 281.5Z" fill="white"/>
<path fill-rule="evenodd" clip-rule="evenodd" d="M464 281.5C464 280.395 464.895 279.5 466 279.5H489C490.105 279.5 491 280.395 491 281.5C491 282.605 490.105 283.5 489 283.5H466C464.895 283.5 464 282.605 464 281.5Z" fill="white"/>
<path fill-rule="evenodd" clip-rule="evenodd" d="M464 281.5C464 280.395 464.895 279.5 466 279.5H489C490.105 279.5 491 280.395 491 281.5C491 282.605 490.105 283.5 489 283.5H466C464.895 283.5 464 282.605 464 281.5Z" fill="#F5C989"/>
<path fill-rule="evenodd" clip-rule="evenodd" d="M464 293C464 291.895 464.895 291 466 291H489C490.105 291 491 291.895 491 293C491 294.105 490.105 295 489 295H466C464.895 295 464 294.105 464 293Z" fill="white"/>
<path fill-rule="evenodd" clip-rule="evenodd" d="M464 293C464 291.895 464.895 291 466 291H489C490.105 291 491 291.895 491 293C491 294.105 490.105 295 489 295H466C464.895 295 464 294.105 464 293Z" fill="white"/>
<path fill-rule="evenodd" clip-rule="evenodd" d="M464 293C464 291.895 464.895 291 466 291H489C490.105 291 491 291.895 491 293C491 294.105 490.105 295 489 295H466C464.895 295 464 294.105 464 293Z" fill="#F5C989"/>
<path d="M462 282C462 283.105 461.105 284 460 284C458.895 284 458 283.105 458 282C458 280.895 458.895 280 460 280C461.105 280 462 280.895 462 282Z" fill="white"/>
<path d="M462 282C462 283.105 461.105 284 460 284C458.895 284 458 283.105 458 282C458 280.895 458.895 280 460 280C461.105 280 462 280.895 462 282Z" fill="white"/>
<path d="M462 282C462 283.105 461.105 284 460 284C458.895 284 458 283.105 458 282C458 280.895 458.895 280 460 280C461.105 280 462 280.895 462 282Z" fill="#F5C989"/>
<path d="M462 293C462 294.105 461.105 295 460 295C458.895 295 458 294.105 458 293C458 291.895 458.895 291 460 291C461.105 291 462 291.895 462 293Z" fill="white"/>
<path d="M462 293C462 294.105 461.105 295 460 295C458.895 295 458 294.105 458 293C458 291.895 458.895 291 460 291C461.105 291 462 291.895 462 293Z" fill="white"/>
<path d="M462 293C462 294.105 461.105 295 460 295C458.895 295 458 294.105 458 293C458 291.895 458.895 291 460 291C461.105 291 462 291.895 462 293Z" fill="#F5C989"/>
<path fill-rule="evenodd" clip-rule="evenodd" d="M456.5 269.5C456.5 268.395 457.395 267.5 458.5 267.5H487.5C488.605 267.5 489.5 268.395 489.5 269.5C489.5 270.605 488.605 271.5 487.5 271.5H458.5C457.395 271.5 456.5 270.605 456.5 269.5Z" fill="white"/>
<path fill-rule="evenodd" clip-rule="evenodd" d="M456.5 269.5C456.5 268.395 457.395 267.5 458.5 267.5H487.5C488.605 267.5 489.5 268.395 489.5 269.5C489.5 270.605 488.605 271.5 487.5 271.5H458.5C457.395 271.5 456.5 270.605 456.5 269.5Z" fill="white"/>
<path fill-rule="evenodd" clip-rule="evenodd" d="M456.5 269.5C456.5 268.395 457.395 267.5 458.5 267.5H487.5C488.605 267.5 489.5 268.395 489.5 269.5C489.5 270.605 488.605 271.5 487.5 271.5H458.5C457.395 271.5 456.5 270.605 456.5 269.5Z" fill="#1A4F90"/>
<path fill-rule="evenodd" clip-rule="evenodd" d="M462.5 281C462.5 279.895 463.395 279 464.5 279H487.5C488.605 279 489.5 279.895 489.5 281C489.5 282.105 488.605 283 487.5 283H464.5C463.395 283 462.5 282.105 462.5 281Z" fill="white"/>
<path fill-rule="evenodd" clip-rule="evenodd" d="M462.5 281C462.5 279.895 463.395 279 464.5 279H487.5C488.605 279 489.5 279.895 489.5 281C489.5 282.105 488.605 283 487.5 283H464.5C463.395 283 462.5 282.105 462.5 281Z" fill="white"/>
<path fill-rule="evenodd" clip-rule="evenodd" d="M462.5 281C462.5 279.895 463.395 279 464.5 279H487.5C488.605 279 489.5 279.895 489.5 281C489.5 282.105 488.605 283 487.5 283H464.5C463.395 283 462.5 282.105 462.5 281Z" fill="#1A4F90"/>
<path fill-rule="evenodd" clip-rule="evenodd" d="M462.5 292.5C462.5 291.395 463.395 290.5 464.5 290.5H487.5C488.605 290.5 489.5 291.395 489.5 292.5C489.5 293.605 488.605 294.5 487.5 294.5H464.5C463.395 294.5 462.5 293.605 462.5 292.5Z" fill="white"/>
<path fill-rule="evenodd" clip-rule="evenodd" d="M462.5 292.5C462.5 291.395 463.395 290.5 464.5 290.5H487.5C488.605 290.5 489.5 291.395 489.5 292.5C489.5 293.605 488.605 294.5 487.5 294.5H464.5C463.395 294.5 462.5 293.605 462.5 292.5Z" fill="white"/>
<path fill-rule="evenodd" clip-rule="evenodd" d="M462.5 292.5C462.5 291.395 463.395 290.5 464.5 290.5H487.5C488.605 290.5 489.5 291.395 489.5 292.5C489.5 293.605 488.605 294.5 487.5 294.5H464.5C463.395 294.5 462.5 293.605 462.5 292.5Z" fill="#1A4F90"/>
<path d="M460.5 281.5C460.5 282.605 459.605 283.5 458.5 283.5C457.395 283.5 456.5 282.605 456.5 281.5C456.5 280.395 457.395 279.5 458.5 279.5C459.605 279.5 460.5 280.395 460.5 281.5Z" fill="white"/>
<path d="M460.5 281.5C460.5 282.605 459.605 283.5 458.5 283.5C457.395 283.5 456.5 282.605 456.5 281.5C456.5 280.395 457.395 279.5 458.5 279.5C459.605 279.5 460.5 280.395 460.5 281.5Z" fill="white"/>
<path d="M460.5 281.5C460.5 282.605 459.605 283.5 458.5 283.5C457.395 283.5 456.5 282.605 456.5 281.5C456.5 280.395 457.395 279.5 458.5 279.5C459.605 279.5 460.5 280.395 460.5 281.5Z" fill="#1A4F90"/>
<path d="M460.5 292.5C460.5 293.605 459.605 294.5 458.5 294.5C457.395 294.5 456.5 293.605 456.5 292.5C456.5 291.395 457.395 290.5 458.5 290.5C459.605 290.5 460.5 291.395 460.5 292.5Z" fill="white"/>
<path d="M460.5 292.5C460.5 293.605 459.605 294.5 458.5 294.5C457.395 294.5 456.5 293.605 456.5 292.5C456.5 291.395 457.395 290.5 458.5 290.5C459.605 290.5 460.5 291.395 460.5 292.5Z" fill="white"/>
<path d="M460.5 292.5C460.5 293.605 459.605 294.5 458.5 294.5C457.395 294.5 456.5 293.605 456.5 292.5C456.5 291.395 457.395 290.5 458.5 290.5C459.605 290.5 460.5 291.395 460.5 292.5Z" fill="#1A4F90"/>
<path d="M515.336 210.007C504.933 196.41 515.669 191.674 522.336 191.007C527.836 171.007 544.836 180.007 544.836 180.007C544.836 180.007 556.03 162.677 571.336 171.507C597.336 186.507 583.336 208.507 571.336 210.007C554.836 210.007 515.717 210.505 515.336 210.007Z" fill="#F5C989" stroke="#F5C989" stroke-width="4"/>
<path d="M526.5 218C516.097 204.402 526.833 199.666 533.5 199C539 179 556 188 556 188C556 188 567.194 170.67 582.5 179.5C608.5 194.5 594.5 216.5 582.5 218C566 218 526.881 218.497 526.5 218Z" fill="#1A4690" stroke="#F5C989" stroke-width="4"/>
</svg>
