<svg width="107" height="108" viewBox="0 0 107 108" fill="none" xmlns="http://www.w3.org/2000/svg">
<path d="M75.9289 0.541321H31.4802L0.0527344 31.8982V76.2472L31.4802 107.604H75.9289L107.356 76.2472V31.8982L75.9289 0.541321Z" fill="#6A92C5"/>
<path d="M63.7254 34.007H59.3445L67.4908 22.8087L75.6534 33.9989H71.2725L67.4989 28.828L63.7254 34.007Z" fill="white"/>
<path d="M63.7254 22.9945L59.3445 23.0026L67.4908 11.7962L75.6534 22.9864L71.2725 22.9945L67.4989 17.8155L63.7254 22.9945Z" fill="white"/>
<path d="M85.2169 47.8797C84.4152 46.8293 83.0305 46.2476 81.3057 46.2476H35.367C33.0592 46.2476 30.8809 47.9362 30.1602 50.3117L26.6457 63.6672L26.7186 45.1649C26.7186 43.5894 28.0062 42.3048 29.5852 42.3048H75.6697V41.2383C75.6697 39.6627 74.3821 38.3781 72.803 38.3781H57.7493L56.1783 35.6957C55.9111 35.2351 55.4171 34.9523 54.8827 34.9523H34.0066C33.4722 34.9523 32.9782 35.2351 32.711 35.6957L31.14 38.3781H26.1032C24.5241 38.3781 23.2366 39.6627 23.2366 41.2383V75.2776C23.2366 76.8531 24.5241 78.1378 26.1032 78.1378H28.0062C28.1843 78.162 28.3625 78.1701 28.5487 78.1701H74.1068C77.3945 78.1701 78.5039 75.2291 78.8683 74.2596L85.7271 51.16C86.0753 49.9481 85.8971 48.7765 85.2169 47.8797ZM82.6175 50.2713L75.8154 73.185C75.1352 74.9463 74.536 74.9463 74.0987 74.9463H28.5487C27.9171 74.9463 27.3907 74.4777 27.3098 73.8637L33.2859 51.1923C33.5693 50.247 34.5087 49.4795 35.3751 49.4795H81.3138C82.0912 49.4795 82.5366 49.6895 82.6418 49.8269C82.6904 49.9157 82.6661 50.1177 82.6175 50.2713Z" fill="white"/>
<path d="M46.1209 61.9463L49.3924 64.4671V67.3919L42.3149 61.9463L49.4005 56.5087V59.4335L46.1209 61.9463ZM63.9441 61.9463L60.6726 64.4671V67.3919L67.75 61.9463L60.6645 56.5087V59.4335L63.9441 61.9463ZM58.6724 54.5211L56.0488 53.7051L50.9634 70.0016L53.587 70.8177L58.6724 54.5211Z" fill="white"/>
</svg>
