<svg width="68" height="67" viewBox="0 0 68 67" fill="none" xmlns="http://www.w3.org/2000/svg">
<path d="M1.04024 30.3231C0.916887 30.2287 0.844438 30.0823 0.844182 29.927L0.839323 26.9837C0.838638 26.5689 1.31431 26.3337 1.64354 26.5861L10.5136 33.3865C10.7744 33.5864 10.7747 33.9793 10.5142 34.1796L1.65467 40.9933C1.32616 41.2459 0.850543 41.0122 0.849859 40.5978L0.844996 37.6527C0.844739 37.4971 0.91694 37.3503 1.04032 37.2554L5.04222 34.1799C5.30295 33.9795 5.30259 33.5863 5.04148 33.3864L1.04024 30.3231Z" fill="#6A92C5" stroke="#6A92C5" stroke-width="0.5"/>
<path d="M66.7977 30.3232C66.9208 30.2287 66.9932 30.0824 66.9934 29.9272L66.9983 26.9837C66.999 26.5689 66.5233 26.3337 66.1941 26.5861L57.324 33.3865C57.0632 33.5864 57.0629 33.9793 57.3234 34.1796L66.1829 40.9933C66.5114 41.2459 66.9871 41.0122 66.9877 40.5978L66.9926 37.6525C66.9929 37.497 66.9208 37.3503 66.7976 37.2554L62.8013 34.1797C62.5409 33.9793 62.5413 33.5866 62.802 33.3867L66.7977 30.3232Z" fill="#6A92C5" stroke="#6A92C5" stroke-width="0.5"/>
<path d="M37.3896 56.811C37.4843 56.6882 37.6306 56.6162 37.7857 56.6162H40.7382C41.1531 56.6162 41.3875 57.0925 41.1343 57.4213L34.3178 66.2725C34.1179 66.5321 33.7264 66.5324 33.526 66.2731L26.6975 57.4341C26.4439 57.1057 26.6775 56.6291 27.0924 56.6284L30.0381 56.6235C30.1932 56.6233 30.3396 56.695 30.4345 56.8177L33.5191 60.8076C33.7195 61.0668 34.1108 61.0664 34.3108 60.8069L37.3896 56.811Z" fill="#6A92C5" stroke="#6A92C5" stroke-width="0.5"/>
<path d="M37.3896 10.7611C37.4843 10.884 37.6306 10.956 37.7857 10.956H40.7382C41.1531 10.956 41.3875 10.4797 41.1343 10.1509L34.318 1.29989C34.118 1.04019 33.7263 1.03996 33.526 1.29942L26.6983 10.1435C26.4446 10.4722 26.6788 10.949 27.0941 10.949H30.0386C30.1934 10.949 30.3395 10.8773 30.4342 10.7549L33.5191 6.76459C33.7195 6.50541 34.1108 6.50574 34.3108 6.76524L37.3896 10.7611Z" fill="#6A92C5" stroke="#6A92C5" stroke-width="0.5"/>
<path d="M50.5237 49.8538C50.5237 50.13 50.2999 50.3538 50.0237 50.3538H17.8141C17.5379 50.3538 17.3141 50.13 17.3141 49.8538V17.7188C17.3141 17.4426 17.5379 17.2188 17.8141 17.2188H50.0237C50.2999 17.2188 50.5237 17.4426 50.5237 17.7188V49.8538ZM20.7857 46.39C20.7857 46.6661 21.0096 46.89 21.2857 46.89H46.5521C46.8282 46.89 47.0521 46.6661 47.0521 46.39V21.1826C47.0521 20.9064 46.8282 20.6826 46.5521 20.6826H21.2857C21.0096 20.6826 20.7857 20.9064 20.7857 21.1826V46.39Z" fill="#6A92C5"/>
<path d="M41.1016 40.453C41.1016 40.7291 40.8778 40.953 40.6016 40.953H27.236C26.9599 40.953 26.736 40.7291 26.736 40.453V27.1196C26.736 26.8435 26.9599 26.6196 27.236 26.6196H40.6016C40.8778 26.6196 41.1016 26.8435 41.1016 27.1196V40.453ZM28.819 38.3747C28.819 38.6508 29.0429 38.8747 29.319 38.8747H38.5187C38.7948 38.8747 39.0187 38.6508 39.0187 38.3747V29.1979C39.0187 28.9218 38.7948 28.6979 38.5187 28.6979H29.319C29.0429 28.6979 28.819 28.9218 28.819 29.1979V38.3747Z" fill="#6A92C5" stroke="#6A92C5" stroke-width="0.5"/>
</svg>
