<svg width="29" height="77" viewBox="0 0 29 77" fill="none" xmlns="http://www.w3.org/2000/svg">
<path d="M14.006 1.34225C14.1097 0.801321 14.884 0.801085 14.988 1.34195L16.6818 10.1445C16.7451 10.4732 17.1073 10.6482 17.4041 10.4933L25.4055 6.31833C25.8945 6.06317 26.3758 6.67155 26.015 7.08872L20.139 13.8818C19.9182 14.1371 20.0085 14.5332 20.318 14.6676L28.5744 18.251C29.0811 18.471 28.9095 19.2291 28.3574 19.2094L19.3457 18.8873C19.0095 18.8753 18.7577 19.192 18.845 19.5168L21.1706 28.1671C21.3137 28.6993 20.6168 29.0376 20.2871 28.5961L14.9042 21.3863C14.7043 21.1185 14.3031 21.1184 14.1031 21.3861L8.71187 28.5996C8.38207 29.0409 7.68548 28.7025 7.8285 28.1705L10.155 19.5168C10.2423 19.192 9.99046 18.8753 9.6543 18.8873L0.642565 19.2094C0.090497 19.2291 -0.0811111 18.471 0.425638 18.251L8.68196 14.6676C8.99154 14.5332 9.08183 14.1371 8.86104 13.8818L2.98502 7.08872C2.62417 6.67155 3.10546 6.06317 3.59448 6.31833L11.5955 10.4931C11.8924 10.648 12.2548 10.4729 12.3179 10.144L14.006 1.34225ZM14.4962 13.209C13.2458 13.209 12.2289 14.2173 12.2289 15.4572C12.2289 16.6971 13.2458 17.7054 14.4962 17.7054C15.7466 17.7054 16.7635 16.6971 16.7635 15.4572C16.7635 14.2173 15.7466 13.209 14.4962 13.209ZM27.9314 45.0648C28.2076 45.0648 28.4314 45.2887 28.4314 45.5648V62.9683C28.4314 70.5868 22.1794 76.7861 14.4962 76.7861C6.81306 76.7861 0.56106 70.5868 0.56106 62.9683V45.5648C0.56106 45.2887 0.784918 45.0648 1.06106 45.0648H3.76706C4.0432 45.0648 4.26706 44.8409 4.26706 44.5648V35.5039C4.26706 35.2277 4.49092 35.0039 4.76706 35.0039H24.2254C24.5016 35.0039 24.7254 35.2277 24.7254 35.5039V44.5648C24.7254 44.8409 24.9493 45.0648 25.2254 45.0648H27.9314ZM6.52682 44.5648C6.52682 44.8409 6.75068 45.0648 7.02682 45.0648H21.9657C22.2418 45.0648 22.4657 44.8409 22.4657 44.5648V37.7446C22.4657 37.4685 22.2418 37.2446 21.9657 37.2446H16.2617C15.9856 37.2446 15.7617 37.4685 15.7617 37.7446V40.2402C15.7617 40.5163 15.5378 40.7402 15.2617 40.7402H13.7308C13.4546 40.7402 13.2308 40.5163 13.2308 40.2402V37.7446C13.2308 37.4685 13.0069 37.2446 12.7308 37.2446H7.02682C6.75068 37.2446 6.52682 37.4685 6.52682 37.7446V44.5648ZM24.6651 49.2993C24.6651 49.0232 24.4413 48.7993 24.1651 48.7993H4.82732C4.55118 48.7993 4.32732 49.0232 4.32732 49.2993V62.9683C4.32732 68.5253 8.89204 73.0516 14.4962 73.0516C20.1004 73.0516 24.6651 68.5253 24.6651 62.9683V49.2993ZM22.0438 53.841H7.44864C7.1725 53.841 6.94864 54.0649 6.94864 54.341V55.5817C6.94864 55.8579 7.1725 56.0817 7.44864 56.0817H21.5363C21.8124 56.0817 22.0363 55.8579 22.0363 55.5817V53.8485C22.0363 53.8444 22.0397 53.841 22.0438 53.841ZM22.0438 59.8686H7.44864C7.1725 59.8686 6.94864 60.0924 6.94864 60.3686V61.6093C6.94864 61.8855 7.1725 62.1093 7.44864 62.1093H21.5363C21.8124 62.1093 22.0363 61.8855 22.0363 61.6093V59.8761C22.0363 59.872 22.0397 59.8686 22.0438 59.8686Z" fill="#6A92C5"/>
</svg>
