<svg width="108" height="108" viewBox="0 0 108 108" fill="none" xmlns="http://www.w3.org/2000/svg">
<path d="M48.6514 52.38V48.4937L58.6116 55.7088L48.6595 62.9401V59.0538L53.259 55.7088L48.6514 52.38Z" fill="white"/>
<path d="M76.2567 0.484772H31.8081L0.380615 31.8417V76.1906L31.8081 107.548H76.2567L107.684 76.1906V31.8417L76.2567 0.484772Z" fill="#6A92C5"/>
<path d="M51.8662 67.6828C51.7852 67.6828 51.7042 67.6828 51.6151 67.6828C44.1328 67.5535 38.27 61.5665 38.2862 54.0525C38.2943 50.4813 39.7195 47.1041 42.2946 44.5347C44.8778 41.9735 48.2708 40.5596 51.8581 40.5596C51.8743 40.5596 51.8824 40.5596 51.8986 40.5596C55.5183 40.5677 58.9355 42.0058 61.5187 44.5994C64.0857 47.1768 65.4866 50.5702 65.4704 54.1495C65.4542 57.8418 64.0047 61.2757 61.3973 63.8288C58.8384 66.3173 55.4616 67.6828 51.8662 67.6828ZM51.8581 42.9835C48.9186 42.9835 46.1329 44.1469 44.0113 46.2557C41.8897 48.3645 40.7155 51.1358 40.7155 54.0525C40.7074 60.2253 45.5175 65.1458 51.6637 65.2508C54.7085 65.3155 57.5508 64.1843 59.6886 62.0917C61.8345 59.9991 63.0249 57.1712 63.033 54.1333C63.0492 51.2004 61.8912 48.421 59.7858 46.3042C57.6642 44.1712 54.8624 42.9915 51.8824 42.9835C51.8824 42.9835 51.8662 42.9835 51.8581 42.9835ZM53.2833 54.4727L48.6837 57.8176V61.6958L58.6359 54.4646L48.6757 47.2495V51.1277L53.2833 54.4727ZM77.1231 66.4466C77.3823 65.9214 77.6171 65.4124 77.8357 64.9115H73.3577C73.2605 65.0973 73.1714 65.2832 73.0661 65.4771C72.6289 66.2931 72.6855 67.2303 73.2281 67.9737C73.7059 68.6281 74.1755 69.2906 74.6452 69.9532L76.3781 72.3851L70.4344 78.3155C68.9768 77.2814 67.5111 76.2472 66.0535 75.2049C65.268 74.6474 64.3286 74.5747 63.4784 75.0272C61.8345 75.8917 60.3364 76.5138 58.8869 76.9339C57.899 77.2248 57.235 77.9762 57.0811 79.0104C57.0002 79.576 56.903 80.1335 56.8058 80.699L56.239 84.1086H47.7768L47.4772 82.3473C47.2909 81.2323 47.0966 80.1254 46.9184 79.0104C46.7565 78.057 46.1087 77.3379 45.1774 77.0875C43.6307 76.6754 42.0679 76.0452 40.3916 75.1564C39.5495 74.712 38.6263 74.7686 37.857 75.3261C36.3832 76.3764 34.9013 77.4349 33.4194 78.4852L27.4514 72.6114C28.5122 71.1166 29.573 69.63 30.6419 68.1433C31.2007 67.3596 31.2573 66.4305 30.8039 65.5821C29.8969 63.9015 29.2572 62.3745 28.8523 60.9121C28.6175 60.0718 27.8725 59.4012 27.006 59.2477C25.9047 59.0538 24.7953 58.876 23.694 58.6902L22.4146 58.4801C22.1473 58.4397 21.8801 58.3913 21.621 58.3428V49.9562L26.9331 49.1724C27.8968 49.0351 28.6256 48.3887 28.8766 47.4596C29.3139 45.8679 29.9455 44.3085 30.8039 42.7007C31.2654 41.8362 31.2007 40.8828 30.6176 40.0829C29.5892 38.677 28.5608 37.2712 27.5405 35.8653L27.5 35.8169L33.5328 29.8945L34.2049 30.3631C35.4358 31.2276 36.6586 32.0922 37.8894 32.9486C38.4401 33.3364 39.4118 33.6192 40.3187 33.1344C42.1974 32.1487 43.6793 31.5347 45.1207 31.1468C45.9629 30.9206 46.6269 30.1935 46.7727 29.3451C47.0237 27.8908 47.2585 26.4445 47.5015 24.9902L47.6796 23.9398H56.1094C56.4009 25.6689 56.7005 27.406 56.984 29.1431C57.1378 30.0723 57.7452 30.7509 58.644 31.0176C60.2069 31.4781 61.7779 32.1326 63.3164 32.9486C64.191 33.4172 65.1222 33.3526 65.9482 32.787L68.4423 31.0661C69.0739 30.6298 69.7056 30.1935 70.3453 29.7572C72.3292 31.769 74.3132 33.7808 76.2972 35.7926L76.1433 36.0027C75.2201 37.2793 74.2889 38.5558 73.3415 39.8243C72.2159 41.3352 72.8475 42.6118 73.2362 43.1531L73.2848 43.2501C73.2929 43.2582 73.2929 43.2743 73.301 43.2824H77.771C77.5361 42.733 77.2932 42.1917 77.026 41.6584C77.8357 40.5677 78.6293 39.4688 79.431 38.37L81.836 35.0735L80.1598 33.8858C80.1112 33.8535 80.0626 33.8212 79.9897 33.7727C77.4065 31.1549 74.8153 28.5371 72.2402 25.9113C71.398 25.0468 70.2076 24.9417 69.2197 25.6285C68.1994 26.3395 67.1791 27.0424 66.1587 27.7453L64.4015 28.9573C63.2192 28.3755 62.0289 27.8746 60.8304 27.4706C60.5389 25.7497 60.2474 24.0206 59.9558 22.2997L59.8668 21.7664C59.8425 21.621 59.802 21.4756 59.7534 21.3301L59.308 19.9081H44.2381L43.5012 24.3357C43.323 25.4184 43.1449 26.5011 42.9586 27.5837C41.8411 27.9554 40.6831 28.4402 39.3956 29.0785C38.4401 28.4079 37.4926 27.7373 36.5371 27.0667L33.0955 24.6589L22.1716 35.3644L24.2447 38.2407C25.0787 39.388 25.9209 40.5434 26.7631 41.6907C26.1638 42.9027 25.6699 44.1227 25.2731 45.3346L17.5559 46.4658V61.7281L19.9852 62.1483C20.5683 62.2452 21.1513 62.3503 21.7344 62.4472L23.0138 62.6573C23.7669 62.7785 24.5119 62.9078 25.265 63.0289C25.6456 64.1763 26.1476 65.3478 26.7631 66.5759C25.8156 67.9009 24.8682 69.2341 23.9208 70.5591L22.1635 73.0638L32.966 83.6885L35.6868 81.7979C36.9177 80.9253 38.1566 80.0446 39.3875 79.1639C40.6508 79.786 41.8654 80.2789 43.0801 80.6667C43.2097 81.4424 43.3392 82.2261 43.4769 83.0017L44.3433 88.1323H59.6724L60.798 81.3535C60.8466 81.0707 60.8952 80.7879 60.9438 80.5051C62.0937 80.1173 63.2678 79.6325 64.4906 79.0266C65.7134 79.8992 66.9442 80.7717 68.167 81.6363L70.8878 83.5592L81.6579 72.7972L77.9491 67.5858C77.6738 67.2223 77.3984 66.8344 77.1231 66.4466ZM88.3223 54.4807L93.9989 50.3521V45.5609L81.7146 54.4807L94.0151 63.3844V58.5932L88.3223 54.4807ZM76.7668 54.4807L82.4434 50.3521V45.5609L70.159 54.4888L82.4596 63.3925V58.6013L76.7668 54.4807Z" fill="white"/>
</svg>
