<svg width="108" height="108" viewBox="0 0 108 108" fill="none" xmlns="http://www.w3.org/2000/svg">
<path d="M76.2243 0.646362H31.7756L0.348145 32.0033V76.3522L31.7756 107.709H76.2243L107.652 76.3522V32.0033L76.2243 0.646362Z" fill="#6A92C5"/>
<path d="M15.4261 49.7865L15.418 44.8822L27.3055 53.996L15.4342 63.1259L15.4261 58.2216L20.9245 53.996L15.4261 49.7865Z" fill="white"/>
<path d="M92.5738 49.7865L92.5819 44.8822L80.6943 53.996L92.5657 63.1259L92.5738 58.2216L87.0835 53.996L92.5738 49.7865Z" fill="white"/>
<path d="M58.2229 80.6263H63.1383L54.004 92.4872L44.8535 80.6425L49.7608 80.6344L53.9959 86.1124L58.2229 80.6263Z" fill="white"/>
<path d="M58.2229 27.3737H63.1383L54.004 15.5128L44.8535 27.3656H49.7608L53.9959 21.8876L58.2229 27.3737Z" fill="white"/>
<path d="M73.3654 73.3223H34.6338V34.6776H73.3654V73.3223ZM38.6827 69.2825H69.3166V38.7174H38.6827V69.2825Z" fill="white"/>
<path d="M62.3769 62.3583H45.6226V45.6416H62.3769V62.3583ZM48.0519 59.9344H59.9475V48.0655H48.0519V59.9344Z" fill="white"/>
</svg>
