<svg width="74" height="67" viewBox="0 0 74 67" fill="none" xmlns="http://www.w3.org/2000/svg">
<path d="M33.2252 47.0033C33.1469 47.0033 33.0685 47.0033 32.9823 47.0033C25.7439 46.8783 20.0723 41.0865 20.0879 33.8174C20.0958 30.3626 21.4745 27.0955 23.9657 24.6099C26.4646 22.1322 29.747 20.7643 33.2174 20.7643C33.233 20.7643 33.2409 20.7643 33.2565 20.7643C36.7582 20.7722 40.0641 22.1634 42.5631 24.6724C45.0464 27.1658 46.4016 30.4486 46.3859 33.9112C46.3703 37.4832 44.968 40.8051 42.4455 43.275C39.9701 45.6824 36.7034 47.0033 33.2252 47.0033ZM33.2174 23.1092C30.3737 23.1092 27.6789 24.2347 25.6264 26.2748C23.574 28.3148 22.4381 30.9958 22.4381 33.8174C22.4302 39.789 27.0835 44.549 33.0293 44.6507C35.9748 44.7132 38.7245 43.6189 40.7926 41.5945C42.8686 39.5701 44.0201 36.8345 44.028 33.8956C44.0436 31.0583 42.9234 28.3695 40.8866 26.3217C38.8342 24.2582 36.1237 23.117 33.2409 23.1092C33.2409 23.1092 33.2252 23.1092 33.2174 23.1092ZM33.4431 33.5069C33.718 33.7065 33.7182 34.1161 33.4435 34.3159L29.7563 36.9973C29.627 37.0914 29.5504 37.2417 29.5504 37.4017V39.9175C29.5504 40.3261 30.0138 40.5622 30.3443 40.322L38.6206 34.3085C38.8956 34.1087 38.8953 33.6985 38.62 33.4991L30.3359 27.4982C30.0053 27.2587 29.5426 27.4949 29.5426 27.9031V30.4204C29.5426 30.5805 29.6193 30.731 29.7488 30.825L33.4431 33.5069ZM57.8315 46.0506C57.725 45.9009 57.7097 45.7049 57.7896 45.5394C57.874 45.3643 57.9558 45.191 58.0353 45.0191C58.1864 44.692 57.9447 44.3224 57.5843 44.3224H54.3188C54.1327 44.3224 53.9625 44.426 53.8784 44.5921C53.8323 44.6832 53.7851 44.7754 53.734 44.8695C53.311 45.6589 53.3658 46.5656 53.8907 47.2847C54.3529 47.9178 54.8073 48.5588 55.2616 49.1997L56.6923 51.2074C56.8341 51.4065 56.8112 51.6789 56.6382 51.8515L51.4866 56.9916C51.3141 57.1636 51.0428 57.1864 50.8441 57.0455C49.5475 56.1263 48.2454 55.2065 46.95 54.2802C46.1901 53.7409 45.2814 53.6706 44.4588 54.1083C42.8686 54.9446 41.4193 55.5464 40.0171 55.9529C39.0614 56.2343 38.419 56.9612 38.2701 57.9616C38.1918 58.5088 38.0978 59.0481 38.0038 59.5952L37.5249 62.4757C37.4848 62.7169 37.2762 62.8937 37.0317 62.8937H29.6913C29.4475 62.8937 29.2392 62.7178 29.1983 62.4775L28.9793 61.1897C28.7991 60.1111 28.6111 59.0403 28.4387 57.9616C28.2821 57.0393 27.6554 56.3437 26.7545 56.1014C25.2582 55.7028 23.7463 55.0931 22.1247 54.2333C21.31 53.8034 20.417 53.8581 19.6727 54.3975C18.3602 55.3329 17.041 56.2749 15.7213 57.2114C15.5237 57.3516 15.2541 57.3299 15.0815 57.16L9.90971 52.0698C9.73485 51.8977 9.71069 51.6241 9.85277 51.4241C10.7969 50.095 11.7416 48.7719 12.6928 47.4488C13.2334 46.6907 13.2882 45.7918 12.8495 44.9711C11.9721 43.3453 11.3533 41.8681 10.9616 40.4534C10.7344 39.6405 10.0137 38.9917 9.17547 38.8432C8.11008 38.6556 7.03685 38.4837 5.97145 38.3039L4.73372 38.1007C4.6137 38.0825 4.49369 38.0627 4.37446 38.042C4.13733 38.0007 3.96601 37.7934 3.96601 37.5527V30.2862C3.96601 30.0383 4.14773 29.8278 4.39303 29.7916L9.10497 29.0964C10.0372 28.9635 10.7422 28.3382 10.9851 27.4394C11.4081 25.8996 12.0191 24.3911 12.8495 22.8356C13.296 21.9993 13.2334 21.077 12.6693 20.3032C11.6744 18.9432 10.6796 17.5831 9.6925 16.2231C9.67038 16.1966 9.67231 16.1576 9.69693 16.1334L15.1935 10.7375C15.3652 10.569 15.6324 10.5466 15.8297 10.6842L16.1397 10.9003C17.3304 11.7366 18.5133 12.573 19.7041 13.4015C20.2368 13.7767 21.1768 14.0502 22.0542 13.5813C23.8717 12.6277 25.3052 12.0336 26.6996 11.6585C27.5144 11.4396 28.1567 10.7362 28.2977 9.91546C28.5406 8.50854 28.7678 7.10944 29.0028 5.70252L29.1045 5.10281C29.1453 4.86236 29.3536 4.68642 29.5975 4.68642H36.9073C37.1514 4.68642 37.3598 4.86262 37.4005 5.10326C37.6601 6.63818 37.9247 8.17911 38.1761 9.72005C38.325 10.6189 38.9125 11.2755 39.7821 11.5334C41.294 11.9789 42.8137 12.612 44.3022 13.4015C45.1482 13.8548 46.0491 13.7923 46.8481 13.2452L49.2609 11.5803C49.7583 11.2367 50.2558 10.8931 50.7574 10.5496C50.9567 10.413 51.2252 10.4391 51.3949 10.6112C53.1575 12.3986 54.9202 14.186 56.6828 15.9734C56.7848 16.0768 56.7967 16.2389 56.7109 16.356C55.8178 17.591 54.9169 18.8259 54.0004 20.0531C52.9302 21.4895 53.502 22.7071 53.8789 23.2457C53.8921 23.2644 53.9037 23.2836 53.914 23.3041L53.9411 23.3582C53.944 23.3641 53.9481 23.3692 53.9506 23.3753C53.957 23.3902 53.9703 23.3984 53.9865 23.3984H57.528C57.8867 23.3984 58.1289 23.0317 57.9812 22.7047C57.8901 22.5031 57.7969 22.3027 57.7006 22.1034C57.6185 21.9335 57.6357 21.7319 57.7479 21.5802C58.468 20.6062 59.1764 19.6262 59.8914 18.6462L61.9192 15.8667C62.0836 15.6414 62.0319 15.3253 61.8043 15.164L60.5964 14.3082C60.5596 14.2837 60.5228 14.2592 60.4748 14.2272C60.4463 14.2083 60.4198 14.1865 60.3958 14.1621C57.9088 11.6419 55.4141 9.12159 52.935 6.59357C52.1203 5.75724 50.9687 5.65563 50.013 6.32C49.0259 7.00783 48.0389 7.68784 47.0518 8.36785L45.5933 9.37375C45.4442 9.47658 45.2513 9.49045 45.0881 9.41195C44.1243 8.94839 43.1549 8.54106 42.1799 8.19931C42.0062 8.1384 41.878 7.98884 41.8473 7.8073C41.5819 6.23987 41.3165 4.66634 41.0511 3.09973L40.965 2.58386C40.9415 2.44317 40.9023 2.30248 40.8553 2.16178L40.5342 1.13669C40.4689 0.928106 40.2757 0.786133 40.0571 0.786133H26.2694C26.025 0.786133 25.8163 0.9629 25.7762 1.20405L25.1329 5.06941C24.9767 6.01838 24.8206 6.96736 24.6586 7.91633C24.6276 8.09809 24.4987 8.24739 24.3245 8.30801C23.4091 8.62666 22.4607 9.02512 21.4279 9.52661C21.2632 9.6066 21.0679 9.59207 20.9181 9.48679C20.0759 8.89496 19.2391 8.30312 18.3958 7.71129L15.4066 5.62001C15.2094 5.48205 14.9419 5.50415 14.77 5.6726L4.80564 15.4377C4.62914 15.6107 4.60548 15.8867 4.74998 16.0872L6.50415 18.5211C7.25168 19.5493 8.00592 20.5843 8.76066 21.6135C8.87109 21.7641 8.88814 21.9635 8.80726 22.1318C8.33417 23.1164 7.93233 24.1055 7.5971 25.0901C7.53596 25.2696 7.3804 25.4011 7.19271 25.4286L0.460935 26.4153C0.215424 26.4513 0.0334473 26.6619 0.0334473 26.91V40.8218C0.0334473 41.0651 0.208532 41.2731 0.44824 41.3145L2.38358 41.6492C2.94761 41.743 3.51165 41.8446 4.07568 41.9384L5.31342 42.1417C5.94199 42.2428 6.56472 42.3498 7.19169 42.4525C7.37571 42.4827 7.52755 42.6124 7.58892 42.7884C7.91431 43.7219 8.3217 44.6737 8.80649 45.6623C8.88815 45.8288 8.87294 46.0269 8.76513 46.1778C7.90702 47.3788 7.04891 48.5858 6.1908 49.7859L4.73409 51.8622C4.59373 52.0623 4.61856 52.3345 4.7928 52.5059L14.6456 62.1966C14.817 62.3651 15.0841 62.3879 15.2815 62.2507L17.5733 60.6582C18.6829 59.8716 19.7994 59.0781 20.9099 58.2842C21.0598 58.1771 21.2564 58.1613 21.4225 58.2411C22.4484 58.7336 23.4433 59.1383 24.4354 59.4692C24.6132 59.5286 24.7449 59.6802 24.7758 59.8651C24.8845 60.5167 24.994 61.1727 25.1094 61.8228L25.8772 66.3694C25.9179 66.61 26.1262 66.7861 26.3702 66.7861H40.3531C40.5977 66.7861 40.8063 66.6093 40.8464 66.368L41.8658 60.2283C41.896 60.0527 41.9262 59.8771 41.9564 59.7015C41.9875 59.5205 42.1154 59.3714 42.2888 59.3107C43.2262 58.9823 44.1816 58.5864 45.1688 58.1091C45.3349 58.0288 45.5318 58.0442 45.682 58.1513C46.7846 58.9374 47.893 59.723 48.9946 60.5019L51.2827 62.119C51.4815 62.2595 51.7526 62.2364 51.9247 62.0644L61.7465 52.25C61.9192 52.0774 61.942 51.8053 61.8004 51.6064L58.4578 46.9095C58.249 46.6339 58.0403 46.3438 57.8315 46.0506ZM69.052 34.6356C68.7763 34.4364 68.7756 34.026 69.0507 33.8259L73.7785 30.3873C73.9078 30.2932 73.9844 30.1429 73.9844 29.983V26.5835C73.9844 26.1751 73.5211 25.9389 73.1906 26.1789L62.6586 33.8264C62.3834 34.0263 62.3837 34.4366 62.6592 34.636L73.2068 42.271C73.5375 42.5103 74 42.2741 74 41.8659V38.4657C74 38.3052 73.9229 38.1544 73.7928 38.0604L69.052 34.6356ZM57.8723 34.6357C57.5969 34.4364 57.5964 34.0263 57.8714 33.8263L62.5996 30.3873C62.729 30.2932 62.8055 30.1429 62.8055 29.983V26.5841C62.8055 26.1755 62.3421 25.9394 62.0116 26.1796L51.4793 33.8342C51.2043 34.0341 51.2047 34.4443 51.4801 34.6437L62.028 42.2788C62.3587 42.5181 62.8212 42.2819 62.8212 41.8738V38.4732C62.8212 38.3129 62.7443 38.1622 62.6144 38.0682L57.8723 34.6357Z" fill="#6A92C5"/>
</svg>
