<svg width="54" height="67" viewBox="0 0 54 67" fill="none" xmlns="http://www.w3.org/2000/svg">
<path d="M27.3748 6.49095C27.1817 6.30637 26.8776 6.30618 26.6842 6.49051L21.6903 11.2519C21.5972 11.3407 21.4733 11.3902 21.3446 11.39L17.8201 11.385C17.3773 11.3844 17.1538 10.8509 17.4639 10.5348L26.6723 1.15033C26.8685 0.950393 27.1907 0.950607 27.3866 1.1508L36.5809 10.5458C36.8909 10.8626 36.666 11.3962 36.2229 11.3956L32.7004 11.3906C32.572 11.3904 32.4485 11.3408 32.3557 11.252L27.3748 6.49095ZM53.6451 40.2304C53.841 40.035 53.841 39.7178 53.6452 39.5224L27.3828 13.319C27.1877 13.1243 26.8717 13.1243 26.6765 13.319L0.407328 39.5225C0.211493 39.7178 0.211473 40.035 0.407283 40.2304L26.6696 66.4338C26.8648 66.6285 27.1807 66.6285 27.3759 66.4339L53.6451 40.2304ZM26.6765 18.2287C26.8717 18.034 27.1877 18.034 27.3828 18.2287L48.7245 39.5225C48.9203 39.7178 48.9203 40.035 48.7246 40.2304L27.3829 61.5309C27.1877 61.7257 26.8717 61.7257 26.6765 61.5309L5.32806 40.2304C5.13224 40.035 5.13227 39.7178 5.32811 39.5225L26.6765 18.2287ZM36.9359 39.8764C37.3816 39.8764 37.6046 39.3373 37.2891 39.0225L27.3827 29.1384C27.1876 28.9437 26.8717 28.9436 26.6765 29.1383L16.764 39.0224C16.4484 39.3371 16.6713 39.8764 17.1171 39.8764H36.9359Z" fill="#6A92C5"/>
</svg>
