<svg width="108" height="108" viewBox="0 0 108 108" fill="none" xmlns="http://www.w3.org/2000/svg">
<path d="M76.3703 0.484772H31.9216L0.494141 31.8417V76.1906L31.9216 107.548H76.3703L107.798 76.1906V31.8417L76.3703 0.484772Z" fill="#6A92C5"/>
<path d="M54.1418 11.8689L56.6279 24.869L68.3696 18.7043L59.7293 28.7553L71.8841 34.0636L58.628 33.5869L62.0453 46.3769L54.1499 35.7361L46.2465 46.3769L49.6638 33.5869L36.4077 34.0636L48.5625 28.7553L39.9221 18.7043L51.6639 24.869L54.1418 11.8689ZM54.1418 27.4706C52.7976 27.4706 51.7044 28.5614 51.7044 29.9026C51.7044 31.2438 52.7976 32.3346 54.1418 32.3346C55.4861 32.3346 56.5793 31.2438 56.5793 29.9026C56.5793 28.5614 55.4861 27.4706 54.1418 27.4706ZM69.1227 61.9301V81.2969C69.1227 89.5381 62.4016 96.2442 54.1418 96.2442C45.8821 96.2442 39.161 89.5381 39.161 81.2969V61.9301H43.1451V51.0469H65.1386V61.9301H69.1227ZM45.5744 61.9301H62.7093V53.4708H55.5023V57.252H52.7814V53.4708H45.5744V61.9301ZM65.0738 65.9699H43.2098V81.2969C43.2098 87.3081 48.1171 92.2044 54.1418 92.2044C60.1666 92.2044 65.0738 87.3081 65.0738 81.2969V65.9699ZM62.2558 71.4237H46.0279V73.8475H62.2477V71.4237H62.2558ZM62.2558 77.9439H46.0279V80.3678H62.2477V77.9439H62.2558Z" fill="white"/>
</svg>
