<svg width="63" height="67" viewBox="0 0 63 67" fill="none" xmlns="http://www.w3.org/2000/svg">
<path d="M41.0997 22.666C41.0055 22.7951 40.8554 22.8715 40.6956 22.8715H37.5757C37.1671 22.8715 36.931 22.4079 37.1714 22.0774L44.2903 12.2914C44.4899 12.0171 44.8987 12.0169 45.0986 12.2909L52.231 22.0688C52.472 22.3992 52.236 22.8635 51.827 22.8635H48.7086C48.5489 22.8635 48.3988 22.7872 48.3047 22.6582L45.1064 18.2756C44.9066 18.0018 44.498 18.0019 44.2984 18.2759L41.0997 22.666Z" fill="#6A92C5"/>
<path d="M41.0993 11.7162C41.0054 11.8451 40.8556 11.9215 40.6961 11.9218L37.5775 11.9275C37.1685 11.9283 36.9317 11.4644 37.1722 11.1335L44.2904 1.34153C44.4898 1.06714 44.8988 1.0668 45.0988 1.34087L52.2323 11.1204C52.4731 11.4505 52.2378 11.9143 51.8293 11.9151L48.7094 11.9208C48.5492 11.9211 48.3986 11.8447 48.3043 11.7153L45.1063 7.32611C44.9066 7.05203 44.4978 7.05204 44.2981 7.32611L41.0993 11.7162Z" fill="#6A92C5"/>
<path d="M62.3203 36.6665C61.5231 35.6221 60.1462 35.0436 58.4311 35.0436H12.7515C10.4566 35.0436 8.29059 36.7227 7.57395 39.0847L5.07833 48.5686C4.92891 49.1364 4.09248 49.0265 4.09479 48.4394L4.1518 33.967C4.1518 32.4004 5.43209 31.123 7.00225 31.123H52.3268C52.603 31.123 52.8268 30.8991 52.8268 30.623V30.0625C52.8268 28.4959 51.5465 27.2184 49.9764 27.2184H35.2941C35.1166 27.2184 34.9524 27.1243 34.8627 26.9711L33.4454 24.5511C33.1797 24.0932 32.6885 23.812 32.1571 23.812H11.3987C10.8673 23.812 10.3761 24.0932 10.1104 24.5511L8.6931 26.9711C8.60338 27.1243 8.43917 27.2184 8.26164 27.2184H3.53984C1.96968 27.2184 0.689392 28.4959 0.689392 30.0625V63.9099C0.689392 65.4765 1.96968 66.754 3.53984 66.754H5.43209C5.60923 66.7781 5.78638 66.7861 5.97158 66.7861H51.2728C54.5419 66.7861 55.6451 63.8617 56.0074 62.8976L62.8275 39.9283C63.1738 38.7232 62.9966 37.5583 62.3203 36.6665ZM59.7355 39.0446L52.9718 61.8291C52.2954 63.5805 51.6995 63.5805 51.2647 63.5805H5.97158C5.37724 63.5805 4.87663 63.1632 4.75635 62.601C4.74275 62.5374 4.74813 62.4716 4.7647 62.4087L10.6821 39.9604C10.9639 39.0205 11.8979 38.2572 12.7595 38.2572H58.4391C59.1602 38.2572 59.5939 38.4389 59.734 38.5742C59.7524 38.592 59.7669 38.6137 59.7738 38.6384C59.802 38.7377 59.7782 38.9099 59.7355 39.0446Z" fill="#6A92C5"/>
<path d="M23.961 50.2579C23.7003 50.4577 23.6997 50.8504 23.9599 51.0509L26.5027 53.0102C26.6255 53.1049 26.6975 53.2512 26.6975 53.4063V55.0531C26.6975 55.4679 26.2214 55.7023 25.8926 55.4493L20.1757 51.0505C19.9153 50.8502 19.9156 50.4575 20.1762 50.2576L25.9012 45.8641C26.2301 45.6117 26.7056 45.8462 26.7056 46.2608V47.9083C26.7056 48.0639 26.6332 48.2106 26.5097 48.3052L23.961 50.2579ZM40.6506 50.2579C40.9114 50.4577 40.9119 50.8504 40.6517 51.0509L38.1089 53.0102C37.9861 53.1049 37.9141 53.2512 37.9141 53.4063V55.0531C37.9141 55.4679 38.3902 55.7023 38.719 55.4493L44.436 51.0505C44.6963 50.8502 44.696 50.4575 44.4355 50.2576L38.7105 45.8641C38.3816 45.6117 37.9061 45.8462 37.9061 46.2608V47.9083C37.9061 48.0639 37.9785 48.2106 38.102 48.3052L40.6506 50.2579ZM35.7762 43.7482C35.8585 43.4844 35.7112 43.2039 35.4474 43.1218L33.7933 42.6073C33.5298 42.5254 33.2498 42.6724 33.1675 42.9358L28.4087 58.1859C28.3264 58.4497 28.4737 58.7302 28.7375 58.8123L30.3915 59.3267C30.655 59.4087 30.9351 59.2617 31.0173 58.9982L35.7762 43.7482Z" fill="#6A92C5"/>
</svg>
