<svg width="195" height="105" viewBox="0 0 195 105" fill="none" xmlns="http://www.w3.org/2000/svg">
<path d="M71.8401 49.3442L93.772 65.3455L71.8635 81.3579L71.8518 72.7504L81.9851 65.3344L71.8401 57.9406V49.3442ZM48.3249 57.9517L58.4698 65.3455L48.3366 72.7615L48.3483 81.369L70.2568 65.3455L48.3249 49.3442V57.9517ZM194.272 53.4197C194.272 81.2799 170.405 103.94 141.06 103.94L27.4603 104.33C12.3425 104.33 0.0629883 92.6712 0.0629883 78.3291C0.0629883 64.0983 12.1666 52.5066 27.1084 52.3285C28.1053 33.3653 44.6774 18.2326 64.8969 18.2326C71.1364 18.2326 77.1765 19.669 82.6067 22.4083C93.2559 10.0148 115.176 0.137939 133.202 0.137939C151.604 0.137939 167.238 5.72779 178.403 16.3173C188.63 26.0049 194.272 39.1778 194.272 53.4197ZM184.889 53.4197C184.889 32.0513 168.716 9.04607 133.191 9.04607C116.572 9.04607 95.3788 19.1679 87.8492 30.704L85.2338 34.7126L81.1641 32.0068C76.3789 28.8221 70.7494 27.1407 64.8852 27.1407C49.1928 27.1407 36.4324 39.2558 36.4324 54.1546C36.4324 55.0455 36.5028 55.8361 36.6083 56.8271L37.2651 62.8735L30.8497 61.6152C29.4541 61.348 28.4337 61.2366 27.4485 61.2366C17.5264 61.2366 9.44561 68.9087 9.44561 78.3291C9.44561 87.7494 17.5264 95.4216 27.4485 95.4216L119.75 95.1098C111.857 90.1435 106.005 82.8166 103.436 74.5431C98.4281 58.3637 108.209 41.3381 125.239 36.5833C139.243 32.6749 153.985 40.3025 158.102 53.5979C161.503 64.5883 154.865 76.1577 143.289 79.3869C133.66 82.0705 123.515 76.8258 120.688 67.6839C118.308 60.0117 122.952 51.9387 131.021 49.6894C132.886 49.1661 134.844 50.1794 135.384 51.9499C135.935 53.7204 134.868 55.5799 133.003 56.0922C128.652 57.3059 126.154 61.6597 127.432 65.7909C129.168 71.403 135.396 74.6211 141.295 72.9731C149.141 70.7794 153.657 62.9292 151.346 55.4797C149.88 50.7473 146.561 46.85 142.01 44.4893C137.46 42.1287 132.206 41.5942 127.221 42.9861C120.77 44.79 115.446 48.8654 112.232 54.4664C109.019 60.0674 108.292 66.5258 110.18 72.6502C112.572 80.3668 118.519 87.1147 126.482 91.1457C130.951 93.4061 135.83 94.7201 140.709 95.0207H141.037C165.232 95.0318 184.889 76.3582 184.889 53.4197Z" fill="#6A92C5"/>
</svg>
