<svg width="108" height="107" viewBox="0 0 108 107" fill="none" xmlns="http://www.w3.org/2000/svg">
<path d="M0.91223 47.903L0.904297 41.1278L17.2951 53.7263L0.928098 66.3407L0.920164 59.5654L8.49675 53.7342L0.91223 47.903ZM107.302 47.903L107.31 41.1278L90.9188 53.7263L107.294 66.3486L107.302 59.5733L99.7251 53.7422L107.302 47.903ZM54.099 98.1147L48.2678 90.5382L41.4926 90.5461L54.1149 106.921L66.7134 90.5302L59.9382 90.5382L54.099 98.1147ZM59.9223 16.9303L66.6976 16.9382L54.107 0.53949L41.4846 16.9144L48.2599 16.9224L54.0911 9.34578L59.9223 16.9303ZM81.1923 26.6489H27.0217V80.8195H81.1923V26.6489ZM33.3686 32.9958H74.8454V74.4726H33.3686V32.9958ZM67.3323 40.5089H40.8817V66.9595H67.3323V40.5089ZM45.6418 45.2691H62.5721V62.1994H45.6418V45.2691Z" fill="#6A92C5"/>
</svg>
