<svg width="1451" height="468" viewBox="0 0 1451 468" fill="none" xmlns="http://www.w3.org/2000/svg">
<g clip-path="url(#clip0_2209_271)">
<path d="M0 363.014H1451V494.014H0V363.014Z" fill="#0D4984"/>
<path fill-rule="evenodd" clip-rule="evenodd" d="M678.075 358.18C678.457 358.341 678.485 358.87 678.123 359.072C668.973 364.183 659.69 369.228 650.274 374.208C632.298 381.834 613.142 387.814 592.808 392.145C568.248 395.691 543.548 398.766 518.707 401.369C509.623 402.907 500.55 404.444 491.486 405.982C439.778 415.744 398.35 408.264 366.446 437.506C366.381 437.565 366.301 437.607 366.215 437.628C360.003 439.112 356.116 446.994 349.483 447.893C349.386 447.906 349.286 447.889 349.199 447.845C324.449 435.383 302.226 421.811 223.904 435.383C223.77 435.407 223.623 435.372 223.513 435.291C189.935 410.525 184.45 404.03 110.847 403.131C110.796 403.13 110.741 403.122 110.693 403.105C65.4244 388.076 30.9056 385.841 0.731677 400.998C0.397536 401.166 0 400.905 0 400.531C0 371.656 0 374.33 0 345.115C0 344.898 0.138889 344.696 0.344314 344.628C18.0421 338.832 35.8225 333.147 53.6854 327.573C78.4616 320.968 103.918 315.843 130.055 312.199C149.332 310.004 168.739 309.321 188.277 310.149C201.949 311.271 215.559 312.637 229.108 314.249C257.539 318.491 286.02 322.591 314.551 326.549C328.979 330.092 343.597 333.338 358.407 336.285C370.757 337.31 383.107 337.31 395.457 336.285C405.136 334.441 414.714 332.391 424.19 330.136C433.766 329.129 443.344 329.129 452.923 330.136C467.726 333.186 481.085 337.969 492.998 344.485C497.993 346.605 503.285 348.313 508.877 349.61C512.754 350.066 516.661 350.322 520.597 350.378C531.052 350.04 541.512 349.783 551.977 349.61C565.952 348.309 579.814 346.601 593.564 344.485C624.205 342.715 652.376 347.28 678.075 358.18Z" fill="#CDCDCD"/>
<path d="M1450.85 363.336V194.805C1450.85 194.505 1450.59 194.272 1450.29 194.31C1419.91 198.14 1391.4 205.205 1364.76 215.507C1345.96 223.651 1327.35 232.013 1308.93 240.59C1308.89 240.608 1308.85 240.632 1308.82 240.661C1301.14 247.158 1293.1 253.464 1284.7 259.579C1276.55 264.263 1267.11 266.911 1256.38 267.523C1252.97 267.411 1249.59 267.156 1246.22 266.759C1246.2 266.755 1246.17 266.75 1246.15 266.743C1236.91 264.117 1227.88 261.223 1219.05 258.063C1219.02 258.049 1218.98 258.04 1218.93 258.036C1203.66 256.576 1189.09 258.115 1175.19 262.654C1170.74 264.284 1166.23 265.817 1161.65 267.252C1161.61 267.261 1161.58 267.274 1161.56 267.29C1157.77 269.347 1153.79 271.208 1149.59 272.872C1149.54 272.893 1149.49 272.922 1149.45 272.959C1146.86 275.204 1144 277.308 1140.89 279.269C1140.85 279.296 1140.81 279.329 1140.78 279.366C1121.92 301.243 1093.61 312.584 1055.87 313.389C1031.71 313.515 1007.54 313.43 983.364 313.133C951.856 312.693 920.635 314.486 889.716 318.513C863.713 322.173 839.04 328.152 815.703 336.45C789.77 347.385 764.862 359.335 740.98 372.299C740.951 372.315 740.923 372.334 740.897 372.356C734.084 378.094 727.175 383.806 720.167 389.491C709.772 396.819 697.814 402.713 684.293 407.171C673.339 410.277 662.01 412.665 650.308 414.346C621.496 417.477 592.545 419.87 563.457 421.52C531.719 424.354 411.889 423.505 383.208 432.627C371.142 437.152 359.814 442.359 349.223 448.257C369.155 439.333 380.791 438.649 402.654 449.444C402.774 449.504 402.916 449.514 403.042 449.47C415.417 445.201 427.939 441.124 440.606 437.239C459.82 431.413 511.123 427.914 569.96 443.571C570.068 443.599 570.186 443.591 570.288 443.547C615.223 424.441 644.151 423.353 699.827 432.594C699.954 432.615 700.089 432.585 700.195 432.513C752.636 396.941 791.026 389.812 874.483 399.121C874.64 399.138 874.799 399.082 874.908 398.967C901.965 370.261 973.904 373.149 1006.69 388.116C1006.83 388.179 1006.98 388.174 1007.12 388.107C1056.01 363.923 1122.85 373.449 1178.77 394.031C1178.9 394.077 1179.04 394.071 1179.16 394.015C1194.9 386.757 1211 385.904 1240.9 392.053C1241.93 392.135 1242.94 392.048 1243.92 391.797C1308.47 368.77 1377.27 359.45 1450.32 363.835C1450.61 363.852 1450.85 363.624 1450.85 363.336Z" fill="#C3C0BF"/>
<path fill-rule="evenodd" clip-rule="evenodd" d="M1450.23 89.4761C1450.55 89.394 1450.85 89.6326 1450.85 89.9573C1450.85 90.0879 1450.85 90.2185 1450.85 90.3491C1450.85 90.5323 1450.75 90.701 1450.59 90.788C1444.29 94.1861 1437.58 96.9049 1430.46 98.9437C1419.17 101.065 1407.84 103.056 1396.47 104.918C1391.36 105.894 1387 107.958 1383.39 111.109C1383.3 111.183 1383.25 111.284 1383.23 111.395C1381.85 118.993 1379.23 126.222 1375.35 133.083C1375.34 133.113 1375.32 133.142 1375.29 133.167C1373.16 135.588 1370.66 137.669 1367.81 139.413C1367.79 139.427 1367.76 139.44 1367.74 139.45C1362.61 141.51 1357.36 143.271 1351.96 144.732C1351.93 144.74 1351.9 144.746 1351.87 144.748C1346.18 145.146 1340.48 145.183 1334.79 144.857C1334.29 144.828 1334.12 144.114 1334.53 143.815C1335.04 143.442 1335.49 143.033 1335.9 142.589C1336 142.484 1336.14 142.421 1336.28 142.421C1337.21 142.421 1338.15 142.421 1339.08 142.421C1349.74 142.317 1358.91 139.012 1366.59 132.508C1366.63 132.479 1366.66 132.446 1366.68 132.409C1368.61 129.572 1369.86 126.492 1370.42 123.172C1370.82 116.53 1371.57 109.928 1372.67 103.366C1372.68 103.295 1372.71 103.227 1372.75 103.168C1375.79 98.7218 1380.18 95.7649 1385.9 94.2972C1391.86 93.0961 1397.89 92.3222 1403.99 91.976C1404.02 91.9746 1404.04 91.975 1404.06 91.977C1411.5 92.6186 1418.88 93.7169 1426.21 95.2731C1426.27 95.2861 1426.34 95.2875 1426.4 95.277C1431.24 94.4611 1436.09 93.6958 1440.95 92.9816C1441.01 92.9737 1441.06 92.9569 1441.11 92.9321C1444 91.4614 1447.04 90.3096 1450.23 89.4761Z" fill="#F3F3F3"/>
<path fill-rule="evenodd" clip-rule="evenodd" d="M1450.11 91.0448C1450.45 90.8666 1450.85 91.1081 1450.85 91.4873C1450.85 95.0486 1450.85 98.6099 1450.85 102.171C1450.85 102.416 1450.67 102.624 1450.43 102.666C1435.4 105.273 1423.84 112.33 1415.73 123.836C1406.9 134.033 1395.7 141.444 1382.13 146.072C1372.47 148.826 1362.67 149.163 1352.74 147.082C1352.69 147.073 1352.65 147.07 1352.6 147.073C1343.96 147.661 1335.51 146.832 1327.25 144.585C1326.76 144.452 1326.78 143.775 1327.28 143.668C1329.77 143.131 1332.29 142.748 1334.84 142.519C1335.29 142.479 1335.53 142.986 1335.19 143.281C1334.98 143.466 1334.76 143.644 1334.53 143.815C1334.12 144.114 1334.29 144.828 1334.79 144.857C1340.48 145.183 1346.18 145.147 1351.87 144.748C1351.9 144.746 1351.93 144.741 1351.96 144.732C1357.36 143.271 1362.61 141.51 1367.74 139.45C1367.76 139.44 1367.79 139.427 1367.81 139.413C1370.66 137.67 1373.16 135.588 1375.29 133.167C1375.32 133.142 1375.34 133.113 1375.35 133.083C1379.23 126.222 1381.85 118.993 1383.23 111.395C1383.25 111.284 1383.3 111.183 1383.39 111.109C1387 107.958 1391.36 105.894 1396.47 104.918C1407.84 103.057 1419.17 101.065 1430.46 98.9438C1437.4 96.9566 1443.95 94.3234 1450.11 91.0448Z" fill="#CFCBCA"/>
<path fill-rule="evenodd" clip-rule="evenodd" d="M1450.3 86.0559C1450.6 86.0258 1450.85 86.257 1450.85 86.553C1450.85 87.3445 1450.85 88.1358 1450.85 88.9274C1450.85 89.1573 1450.69 89.3574 1450.47 89.4143C1447.19 90.2524 1444.07 91.4248 1441.11 92.9322C1441.06 92.957 1441.01 92.9738 1440.95 92.9817C1436.09 93.6959 1431.24 94.4612 1426.4 95.2771C1426.34 95.2876 1426.27 95.2862 1426.21 95.2731C1418.88 93.7169 1411.5 92.6187 1404.06 91.9771C1404.04 91.9751 1404.02 91.9747 1403.99 91.9761C1397.89 92.3222 1391.86 93.0962 1385.9 94.2973C1380.18 95.7649 1375.79 98.7219 1372.75 103.168C1372.71 103.227 1372.68 103.295 1372.67 103.366C1371.57 109.928 1370.82 116.53 1370.42 123.172C1369.86 126.492 1368.61 129.572 1366.68 132.409C1366.66 132.446 1366.63 132.48 1366.59 132.508C1359.77 138.288 1351.76 141.541 1342.58 142.268C1342.01 142.313 1341.88 141.567 1342.43 141.396C1345.82 140.348 1349.23 139.251 1352.67 138.107C1358.98 134.983 1363.38 130.476 1365.85 124.586C1365.88 124.529 1365.89 124.468 1365.89 124.406C1366.02 118.885 1366.52 113.397 1367.39 107.943C1367.4 107.918 1367.4 107.892 1367.41 107.868C1369.71 100.778 1374.87 96.0329 1382.88 93.6335C1396.26 90.7824 1409.84 89.4546 1423.62 89.6502C1423.65 89.6506 1423.68 89.6483 1423.71 89.6433C1432.54 88.1625 1441.4 86.9663 1450.3 86.0559Z" fill="#CDCACA"/>
<path fill-rule="evenodd" clip-rule="evenodd" d="M1450.3 140.487C1450.6 140.456 1450.85 140.687 1450.85 140.984C1450.85 142.707 1450.85 144.43 1450.85 146.153C1450.85 146.399 1450.67 146.608 1450.43 146.647C1430.74 149.804 1412.51 155.163 1395.72 162.723C1371.76 174.024 1351 187.604 1333.41 203.464C1321.22 214.221 1310.16 225.47 1300.25 237.212C1300.2 237.262 1300.15 237.303 1300.1 237.333C1290.95 242.121 1281.55 246.627 1271.9 250.85C1271.88 250.862 1271.85 250.871 1271.82 250.878C1268.95 251.584 1266.09 252.175 1263.24 252.651C1263.2 252.658 1263.16 252.66 1263.12 252.656C1259.64 252.375 1256.28 251.783 1253.03 250.88C1253 250.872 1252.97 250.861 1252.94 250.847C1242.39 245.652 1231.09 241.391 1219.03 238.066C1219.01 238.059 1218.98 238.054 1218.96 238.051C1191.81 234.853 1167.4 238.954 1145.74 250.355C1139.67 253.911 1134.01 257.755 1128.75 261.886C1121.76 268.124 1114.98 274.434 1108.39 280.817C1108.37 280.837 1108.34 280.855 1108.32 280.872C1104.17 283.683 1100.05 286.481 1095.95 289.265C1095.91 289.29 1095.87 289.31 1095.83 289.325C1085.19 292.938 1073.89 295.152 1061.91 295.965C1050.83 296.307 1039.76 296.307 1028.68 295.965C1007.83 294.41 986.929 293.215 965.994 292.378C926.564 291.068 887.541 293.118 848.934 298.528C828.595 302.273 809.715 308.081 792.291 315.952C775.298 321.094 761.335 328.858 750.403 339.243C750.385 339.26 750.369 339.279 750.353 339.298C737.376 355.963 721.146 371.071 701.664 384.623C690.153 390.578 677.565 395.19 663.902 398.459C659.262 398.996 654.743 399.849 650.344 401.012C650.32 401.019 650.296 401.023 650.271 401.026C620.639 404.32 590.946 407.393 561.191 410.246C535.621 413.68 510.95 418.974 487.179 426.133C465.651 433.529 437.023 416.287 421.315 428.72C421.254 428.768 421.183 428.803 421.107 428.819C413.526 430.457 406.012 432.243 398.565 434.175C389.176 437.983 379.303 436.474 369.559 439.841C357.886 443.875 354.971 446.401 351.175 447.398C350.7 447.523 350.445 446.934 350.805 446.601C381.258 418.333 373.079 417.067 424.117 407.419C433.17 405.882 511.714 402.559 520.786 401.022C545.598 398.418 567.751 395.258 592.282 391.711C612.591 387.381 624.172 384.312 642.127 376.686C651.835 371.546 657.876 370.356 667.301 365.076C673.034 361.704 688.138 354.878 693.986 351.417C696.734 349.891 705.184 346.519 707.527 344.631C707.564 344.601 707.603 344.577 707.647 344.559C725.724 336.732 733.267 336.274 747.733 327.226C769.023 315.904 791.937 306.424 816.459 298.784C838.934 292.676 862.097 287.893 885.94 284.435C927.802 278.462 970.095 276.497 1012.82 278.541C1028.86 280.108 1044.97 281.218 1061.15 281.872C1064.7 281.784 1068.23 281.528 1071.73 281.104C1077.32 279.634 1082.6 277.755 1087.59 275.466C1100.21 268.598 1112.8 261.765 1125.35 254.967C1131.65 251.196 1138.44 247.78 1145.74 244.718C1166.19 237.468 1187.97 233.283 1211.07 232.163C1215.71 232.567 1220.36 232.993 1225 233.44C1225.02 233.442 1225.05 233.447 1225.08 233.455C1235.52 236.267 1245.31 239.843 1254.44 244.182C1254.48 244.198 1254.51 244.21 1254.55 244.218C1259.44 245.319 1264.44 245.828 1269.53 245.744C1269.58 245.743 1269.62 245.737 1269.66 245.726C1275.8 244.017 1281.42 241.732 1286.51 238.869C1286.56 238.84 1286.61 238.801 1286.65 238.755C1293.61 230.468 1300.52 222.121 1307.36 213.714C1327.05 189.849 1353.61 170.375 1387.03 155.292C1406.74 147.749 1427.83 142.814 1450.3 140.487Z" fill="#C3C0BF"/>
<path fill-rule="evenodd" clip-rule="evenodd" d="M1450.27 146.673C1450.58 146.624 1450.85 146.858 1450.85 147.166C1450.85 162.71 1450.85 178.254 1450.85 193.798C1450.85 194.051 1450.66 194.263 1450.41 194.295C1419.99 198.121 1391.44 205.192 1364.76 215.507C1345.96 223.652 1327.35 232.013 1308.93 240.59C1308.89 240.609 1308.85 240.633 1308.82 240.662C1301.14 247.159 1293.1 253.464 1284.7 259.58C1276.55 264.264 1267.11 266.912 1256.38 267.523C1252.97 267.411 1249.59 267.157 1246.22 266.759C1246.2 266.756 1246.17 266.751 1246.15 266.744C1236.91 264.117 1227.88 261.224 1219.05 258.064C1219.02 258.05 1218.98 258.041 1218.93 258.037C1203.66 256.576 1189.09 258.116 1175.19 262.655C1170.74 264.285 1166.23 265.818 1161.65 267.252C1161.61 267.262 1161.58 267.275 1161.56 267.29C1157.77 269.347 1153.79 271.208 1149.59 272.873C1149.54 272.894 1149.49 272.923 1149.45 272.96C1146.86 275.205 1144 277.308 1140.89 279.27C1140.85 279.297 1140.81 279.329 1140.78 279.367C1121.92 301.244 1093.61 312.585 1055.87 313.389C1031.71 313.516 1007.54 313.43 983.364 313.133C951.856 312.693 920.635 314.487 889.716 318.514C863.713 322.173 839.04 328.152 815.703 336.451C789.77 347.386 764.862 359.336 740.98 372.299C740.951 372.316 740.923 372.335 740.897 372.356C734.084 378.095 727.175 383.807 720.167 389.491C709.772 396.82 697.814 402.713 684.293 407.172C673.339 410.277 662.01 412.665 650.308 414.346C621.496 417.477 592.545 419.871 563.457 421.521C531.719 424.355 430.015 429.652 401.334 438.774C389.305 443.285 376.704 435.319 366.133 441.113C366.069 441.149 366.003 441.169 365.93 441.178C363.77 441.43 356.385 445.032 352.102 446.83C351.585 447.047 351.408 446.598 351.888 446.31C394.85 420.543 411.129 422.078 416.565 420.737C443.249 417.322 535.621 413.68 561.191 410.246C590.946 407.393 620.639 404.32 650.271 401.026C650.296 401.023 650.32 401.019 650.344 401.012C654.743 399.849 659.262 398.996 663.902 398.46C677.565 395.19 690.153 390.578 701.664 384.623C721.146 371.071 737.376 355.963 750.353 339.299C750.368 339.279 750.385 339.261 750.403 339.243C761.335 328.858 775.298 321.094 792.291 315.952C809.714 308.081 828.595 302.273 848.934 298.528C887.541 293.118 926.564 291.068 965.994 292.378C986.929 293.215 1007.83 294.411 1028.68 295.965C1039.76 296.307 1050.83 296.307 1061.91 295.965C1073.88 295.152 1085.19 292.938 1095.83 289.325C1095.87 289.311 1095.91 289.291 1095.95 289.265C1100.05 286.481 1104.17 283.683 1108.32 280.872C1108.34 280.856 1108.37 280.837 1108.39 280.817C1114.98 274.434 1121.76 268.124 1128.75 261.886C1134.01 257.755 1139.67 253.912 1145.74 250.355C1167.4 238.955 1191.81 234.853 1218.96 238.052C1218.98 238.055 1219.01 238.06 1219.03 238.066C1231.09 241.391 1242.39 245.652 1252.94 250.847C1252.97 250.861 1253 250.872 1253.03 250.88C1256.28 251.783 1259.64 252.375 1263.12 252.657C1263.16 252.66 1263.2 252.658 1263.24 252.651C1266.09 252.175 1268.95 251.584 1271.82 250.878C1271.85 250.871 1271.88 250.862 1271.9 250.851C1281.55 246.627 1290.95 242.121 1300.1 237.333C1300.15 237.303 1300.2 237.262 1300.25 237.213C1310.16 225.471 1321.22 214.221 1333.41 203.464C1351 187.604 1371.76 174.024 1395.72 162.723C1412.46 155.183 1430.65 149.833 1450.27 146.673Z" fill="#E2DEDC"/>
<path fill-rule="evenodd" clip-rule="evenodd" d="M1312.47 147.592C1312.58 147.679 1312.65 147.812 1312.64 147.953C1312.61 148.615 1312.29 149.161 1311.7 149.592C1311.59 149.68 1311.43 149.697 1311.29 149.652C1306.01 148 1300.68 148.134 1295.27 150.055C1291.9 151.207 1288.64 152.529 1285.49 154.02C1285.47 154.032 1285.44 154.046 1285.42 154.062C1282.49 156.111 1279.49 157.983 1276.39 159.68C1270.38 163.081 1263.87 164.778 1256.85 164.771C1256.28 164.771 1256.2 163.994 1256.74 163.832C1265.57 161.205 1273.38 157.055 1280.17 151.383C1289.1 145.715 1298.91 143.944 1309.62 146.072C1310.73 146.449 1311.68 146.955 1312.47 147.592Z" fill="#EBEBEF"/>
<path fill-rule="evenodd" clip-rule="evenodd" d="M1312.39 148.849C1312.6 148.466 1313.17 148.255 1313.3 148.674C1313.45 149.154 1313.38 149.682 1313.09 150.26C1313.05 150.343 1312.98 150.41 1312.9 150.457C1311.65 151.179 1310.6 152.086 1309.77 153.179C1309.68 153.301 1309.53 153.377 1309.38 153.383C1300.05 153.754 1291.02 155.216 1282.3 157.767C1281.71 157.94 1281.22 156.848 1281.74 156.518C1282.98 155.73 1284.21 154.911 1285.42 154.062C1285.44 154.045 1285.47 154.031 1285.49 154.019C1288.64 152.529 1291.9 151.207 1295.27 150.055C1300.68 148.134 1306.01 147.999 1311.29 149.652C1311.43 149.696 1311.59 149.679 1311.7 149.592C1312 149.374 1312.23 149.126 1312.39 148.849Z" fill="#CECBCB"/>
<path fill-rule="evenodd" clip-rule="evenodd" d="M1.37845 257.911C1.32667 258.029 1.33378 258.167 1.40686 258.283C1.77424 258.866 2.33048 259.236 3.07556 259.395C3.23505 259.429 3.39441 259.379 3.50539 259.277C7.37427 255.737 12.2067 253.773 18.0151 253.379C21.6156 253.092 25.2087 252.999 28.7811 253.104C28.8111 253.105 28.8411 253.108 28.8707 253.114C32.5333 253.805 36.1795 254.305 39.8096 254.616C46.9545 255.314 53.672 254.272 59.9623 251.492C60.4773 251.264 60.178 250.562 59.6023 250.631C50.3354 251.749 41.1982 251.091 32.1961 248.654C21.3209 247.067 11.6399 249.324 3.15324 255.426C2.35519 256.199 1.76561 257.026 1.37845 257.911Z" fill="#EBEBEF"/>
<path fill-rule="evenodd" clip-rule="evenodd" d="M1273.75 184.815C1280.71 183.217 1285.61 185.209 1288.48 190.789C1289.54 193.612 1288.41 195.271 1285.08 195.768C1278.51 196.306 1272.01 197.183 1265.56 198.4C1265.48 198.415 1265.41 198.449 1265.35 198.501C1264.07 199.526 1262.92 200.634 1261.88 201.825C1261.75 201.975 1261.73 202.193 1261.81 202.372C1266.76 212.701 1263.44 220.014 1251.85 224.31C1249.45 225.15 1247.04 225.343 1244.62 224.887C1244.2 224.808 1244.1 224.268 1244.46 224.032C1247.56 222.005 1250.77 220.112 1254.08 218.354C1254.1 218.342 1254.12 218.328 1254.14 218.313C1256.83 216.303 1257.96 213.791 1257.52 210.777C1257.52 210.728 1257.5 210.68 1257.48 210.636C1256.1 207.766 1254.61 204.931 1253.02 202.134C1252.99 202.094 1252.98 202.051 1252.96 202.006C1252.23 198.985 1252.73 196.144 1254.47 193.483C1254.48 193.457 1254.5 193.433 1254.52 193.411C1256.61 191.249 1258.99 189.491 1261.67 188.134C1265.53 186.782 1269.56 185.675 1273.75 184.815Z" fill="#F1F0F1"/>
<path fill-rule="evenodd" clip-rule="evenodd" d="M1273.75 184.815C1281.05 183.361 1288.03 184.322 1294.69 187.698C1294.82 187.763 1294.92 187.883 1294.95 188.024C1295.71 191.306 1295.59 194.608 1294.57 197.931C1294.54 198.035 1294.47 198.125 1294.38 198.188C1284.81 205.071 1275.94 212.654 1267.76 220.937C1267.73 220.973 1267.69 221.003 1267.64 221.027C1260.69 224.73 1253.18 226.489 1245.09 226.302C1245.06 226.302 1245.04 226.299 1245.01 226.295C1243.18 225.965 1241.62 225.248 1240.31 224.141C1240.04 223.914 1240.11 223.491 1240.44 223.348C1244.18 221.69 1247.97 220.029 1251.78 218.367C1251.82 218.346 1251.87 218.318 1251.91 218.284C1253.74 216.656 1254.97 214.737 1255.58 212.526C1255.61 212.42 1255.6 212.307 1255.56 212.205C1254.31 209.255 1252.95 206.334 1251.49 203.441C1251.48 203.414 1251.47 203.386 1251.46 203.357C1249.42 196.479 1251.56 191.784 1257.88 189.272C1258.42 189.055 1258.76 189.837 1258.28 190.177C1256.94 191.13 1255.68 192.208 1254.52 193.411C1254.5 193.433 1254.48 193.457 1254.47 193.483C1252.73 196.144 1252.23 198.985 1252.96 202.006C1252.98 202.05 1252.99 202.093 1253.02 202.133C1254.61 204.931 1256.1 207.765 1257.48 210.635C1257.5 210.68 1257.52 210.728 1257.52 210.776C1257.96 213.791 1256.83 216.303 1254.14 218.313C1254.12 218.328 1254.1 218.342 1254.08 218.354C1250.77 220.111 1247.56 222.004 1244.46 224.032C1244.1 224.268 1244.2 224.807 1244.62 224.887C1247.04 225.342 1249.45 225.15 1251.85 224.31C1263.44 220.013 1266.76 212.701 1261.81 202.372C1261.73 202.192 1261.75 201.975 1261.88 201.825C1262.92 200.634 1264.07 199.526 1265.35 198.5C1265.41 198.449 1265.48 198.414 1265.56 198.399C1272.01 197.183 1278.51 196.306 1285.08 195.767C1288.41 195.271 1289.54 193.611 1288.48 190.789C1285.61 185.208 1280.71 183.217 1273.75 184.815Z" fill="#CFCBCA"/>
<path d="M273.308 295.66C255.665 289.374 176.574 269.339 153.191 265.517C152.782 265.45 152.631 265.81 152.981 266.031C155.342 267.523 162.12 269.464 163.217 270.921C163.412 271.181 163.581 271.585 163.894 271.67C177.945 275.469 236.454 290.083 248.526 294.685C270.577 304.13 292.731 313.44 314.986 322.614C321.95 324.804 328.999 327.025 336.133 329.277C348.258 332.644 360.845 334.865 373.894 335.939C378.913 336.279 383.93 336.28 388.949 335.942C388.982 335.94 389.015 335.934 389.047 335.925C397.213 333.679 405.002 330.951 412.411 327.739C428.787 322.009 445.653 321.326 463.011 325.689C480.675 331.021 496.523 338.188 510.556 347.191C510.579 347.206 510.603 347.218 510.629 347.229C515.285 349.232 520.039 351.1 524.892 352.833C524.924 352.844 524.957 352.853 524.991 352.857C528.583 353.361 532.196 353.784 535.83 354.126C535.87 354.129 535.911 354.128 535.952 354.122C542.29 353.154 548.677 352.39 555.113 351.828C555.137 351.826 555.161 351.822 555.185 351.817C572.593 347.714 590.454 344.983 608.771 343.626C638.771 342.907 656.897 344.617 683.287 354.218C684.627 354.591 685.549 355.185 686.053 356.001C686.214 356.261 686.55 356.39 686.816 356.238C689.118 354.928 691.242 353.498 693.188 351.946C693.489 351.706 693.403 351.23 693.041 351.098C662.405 339.875 639.341 338.304 604.239 341.063C587.208 343.44 570.089 345.49 552.884 347.213C539.689 348.312 527.353 346.604 515.877 342.088C502.865 335.825 489.271 330.188 475.095 325.177C469.625 323.683 464.086 322.316 458.48 321.077C452.438 320.223 446.396 319.369 440.354 318.515C424.805 317.881 410.218 320.096 396.593 325.161C396.565 325.171 396.538 325.185 396.512 325.2C384.612 332.265 371.031 334.136 355.769 330.814C347.839 329.145 340.298 326.929 333.147 324.165C333.124 324.156 333.101 324.146 333.079 324.133C324.854 319.426 316.39 314.936 307.686 310.663C307.221 310.435 307.366 309.737 307.883 309.714C319.783 309.196 331.7 309.055 343.634 309.289C343.668 309.29 343.702 309.287 343.735 309.281C354.35 307.295 365.158 306.017 376.16 305.447C384.193 306.129 392.221 306.81 400.243 307.489C400.299 307.494 400.355 307.49 400.409 307.476C411.638 304.612 423.19 302.483 435.068 301.091C444.128 300.082 453.191 300.082 462.256 301.091C469.829 302.239 477.381 303.435 484.913 304.678C487.09 305.056 489.167 305.011 491.142 304.546C491.597 304.438 491.616 303.841 491.178 303.679C481.094 299.949 470.195 297.891 458.48 297.503C446.676 296.927 435.108 297.693 423.775 299.803C423.751 299.807 423.728 299.813 423.705 299.821C420.57 300.885 417.401 301.96 414.198 303.047L409.432 304.664C409.404 304.673 409.375 304.68 409.346 304.685C406.246 305.147 403.136 305.569 400.016 305.951C399.972 305.956 399.927 305.956 399.883 305.949C388.12 304.217 376.25 302.939 364.273 302.116C363.686 302.075 363.648 301.311 364.231 301.239C367.649 300.814 371.122 300.679 374.649 300.834C367.562 300.364 360.358 300.182 353.037 300.29C352.541 300.297 351.764 301.333 351.323 301.561C351.284 301.581 351.215 301.607 351.172 301.615C344.387 302.786 337.486 303.551 330.468 303.909C316.261 303.17 302.056 302.402 287.853 301.606C287.816 301.604 287.78 301.598 287.745 301.588C284.748 300.738 281.996 299.633 279.49 298.272C278.484 297.76 278.484 297.247 279.49 296.735C286.213 293.952 293.514 292.756 301.392 293.147C291.843 292.199 282.581 293.038 273.605 295.664C273.504 295.693 273.408 295.695 273.308 295.66Z" fill="#D9D9D9"/>
<path fill-rule="evenodd" clip-rule="evenodd" d="M301.392 292.157C305.97 292.283 310.488 292.746 314.944 293.547C314.972 293.552 315 293.559 315.026 293.569C326.393 297.696 338.418 299.833 351.1 299.98C351.19 299.981 351.279 300.005 351.353 300.055C352.044 300.515 352.027 300.944 351.302 301.344C351.26 301.367 351.213 301.383 351.165 301.392C344.383 302.669 337.484 303.503 330.468 303.893C316.263 303.087 302.059 302.25 287.858 301.382C287.818 301.38 287.779 301.373 287.741 301.361C284.745 300.434 281.995 299.229 279.49 297.746C278.484 297.187 278.484 296.628 279.49 296.069C286.213 293.035 293.513 291.73 301.392 292.157Z" fill="#F0EFF1"/>
<path fill-rule="evenodd" clip-rule="evenodd" d="M424.468 299.728C425.042 299.666 425.212 300.426 424.67 300.627C420.411 302.203 416.097 303.799 411.727 305.416C411.697 305.427 411.666 305.435 411.634 305.44C408.124 306.011 404.602 306.533 401.069 307.004C401.02 307.011 400.971 307.01 400.923 307.002C387.328 304.819 373.607 303.22 359.759 302.206C359.179 302.163 359.134 301.394 359.71 301.308C363.854 300.689 368.07 300.482 372.357 300.688C382.21 301.325 392.029 302.167 401.813 303.214C401.838 303.217 401.863 303.218 401.888 303.216C404.276 303.112 406.665 303.009 409.053 302.905C409.095 302.903 409.138 302.895 409.179 302.883C414.117 301.353 419.213 300.301 424.468 299.728Z" fill="#EDEDEF"/>
<path fill-rule="evenodd" clip-rule="evenodd" d="M447.094 306.971C447.132 306.979 447.17 306.992 447.205 307.009C449.153 307.952 448.901 308.708 446.449 309.277C446.415 309.285 446.378 309.29 446.343 309.29C432.215 309.471 419.142 312.033 407.124 316.977C389.036 322.136 370.155 324.442 350.482 323.895C345.107 323.641 344.855 323.044 349.727 322.101C364.693 321.185 379.294 319.135 393.53 315.952C401.802 313.052 410.11 310.148 418.453 307.24C427.992 305.023 437.54 304.933 447.094 306.971Z" fill="#EEEEF0"/>
<path fill-rule="evenodd" clip-rule="evenodd" d="M448.13 308.672C448.586 308.369 449.119 307.119 449.663 307.173C453.861 307.589 457.795 308.491 461.466 309.879C461.977 310.072 461.823 310.788 461.277 310.781C439.08 310.502 418.008 313.762 398.061 320.564C382.383 323.668 366.523 324.778 350.482 323.895C370.155 324.442 389.036 322.136 407.124 316.977C419.142 312.033 432.216 309.471 446.343 309.29C446.378 309.29 446.415 309.285 446.449 309.277C447.236 309.095 447.796 308.893 448.13 308.672Z" fill="#CDCBCB"/>
<path d="M195.079 278.285C189.385 276.557 183.588 275.02 177.688 273.673L156.517 270.598C102.101 262.971 50.0426 267.375 0.342871 283.808C0.138301 283.876 0 284.067 0 284.283V354.978C0 355.318 0.332356 355.559 0.655664 355.453C18.2504 349.692 35.9266 344.041 53.6844 338.5C78.4602 331.894 103.916 326.77 130.052 323.126C149.33 320.931 168.736 320.248 188.274 321.076C201.945 322.198 215.555 323.564 229.104 325.176C257.534 329.418 286.015 333.517 314.545 337.475C328.973 341.019 343.591 344.265 358.4 347.212C370.75 348.237 383.1 348.237 395.45 347.212C405.128 345.367 414.706 343.317 424.183 341.063C433.758 340.056 443.336 340.056 452.915 341.063C467.718 344.113 481.076 348.896 492.989 355.412C497.984 357.531 503.276 359.239 508.868 360.536C512.745 360.993 516.652 361.249 520.588 361.305C531.043 360.966 541.502 360.71 551.967 360.536C565.942 359.236 579.804 357.528 593.553 355.412C624.471 353.626 643.729 352.531 669.56 363.609C669.706 363.672 669.875 363.663 670.014 363.583C675.617 360.362 683.226 358.647 688.968 355.367C689.178 355.247 689.272 354.99 689.157 354.778C688.675 353.888 687.723 353.246 686.304 352.851C659.883 343.25 638.711 342.906 608.676 343.625C590.338 344.982 572.455 347.713 555.026 351.816C555.003 351.822 554.979 351.825 554.955 351.828C548.511 352.389 542.116 353.153 535.771 354.121C535.73 354.127 535.69 354.129 535.649 354.125C532.011 353.784 528.393 353.36 524.797 352.856C524.763 352.852 524.73 352.844 524.698 352.832C519.84 351.099 515.08 349.231 510.418 347.228C510.393 347.218 510.369 347.205 510.345 347.19C496.296 338.187 480.429 331.02 462.745 325.688C445.366 321.325 428.48 322.008 412.085 327.738C404.667 330.95 396.869 333.678 388.693 335.925C388.661 335.933 388.628 335.939 388.595 335.941C383.571 336.28 378.547 336.279 373.523 335.938C360.458 334.864 347.856 332.644 335.717 329.276C328.574 327.024 321.518 324.803 314.545 322.614C292.264 313.439 270.084 304.129 248.007 294.684C235.746 290.016 223.143 285.916 210.201 282.385L195.079 278.285Z" fill="#F3F3F3"/>
<path fill-rule="evenodd" clip-rule="evenodd" d="M178.39 129.788C179.318 130.754 180.209 131.758 181.061 132.801C181.121 132.875 181.097 132.986 181.011 133.029V133.029C180.958 133.055 180.895 133.048 180.849 133.012C177.935 130.693 174.751 128.819 171.293 127.389C170.627 127.196 169.959 127.108 169.29 127.124C169.116 127.128 168.961 127.229 168.884 127.385C168.781 127.595 168.685 127.81 168.597 128.03C168.537 128.181 168.559 128.353 168.654 128.486C169.28 129.372 169.95 130.227 170.659 131.051C170.691 131.098 170.721 131.145 170.75 131.192C171 131.598 170.537 131.817 170.209 131.473C168.103 129.262 165.532 127.78 162.495 127.028C162.446 127.016 162.395 127.012 162.344 127.015C161.751 127.06 161.17 127.164 160.6 127.327C160.467 127.365 160.355 127.458 160.308 127.588C160.079 128.214 160.234 128.779 160.773 129.283C167.204 135.499 166.924 135.889 159.926 130.451C159.9 130.431 159.871 130.412 159.841 130.398C159.012 129.984 158.18 129.571 157.351 129.157C156.329 128.807 155.286 128.714 154.221 128.877C154.113 128.894 154.012 128.945 153.952 129.035C153.914 129.093 153.882 129.153 153.857 129.217C153.809 129.337 153.842 129.469 153.911 129.578C155.111 131.458 155.835 133.506 156.083 135.724C156.202 136.606 155.996 137.311 155.464 137.838C155.178 138.121 154.759 137.835 154.771 137.433C154.827 135.538 154.209 133.832 152.915 132.314C152.806 132.193 152.681 132.115 152.539 132.08C152.412 132.048 152.302 131.936 152.379 131.83V131.83C152.447 131.738 152.477 131.607 152.412 131.513C151.482 130.176 151.578 128.915 152.701 127.732C152.757 127.672 152.829 127.629 152.908 127.606C154.473 127.154 155.979 127.241 157.43 127.866C157.791 128.021 158.23 127.755 158.335 127.376C158.461 126.92 158.706 126.52 159.072 126.175C159.107 126.142 159.148 126.115 159.191 126.095C161.635 124.956 163.959 125.124 166.162 126.599C166.447 126.79 166.846 126.672 166.983 126.357C167.109 126.068 167.249 125.787 167.405 125.514C167.459 125.419 167.545 125.345 167.648 125.308C168.775 124.896 169.906 124.917 171.039 125.368C173.741 126.46 176.192 127.934 178.39 129.788Z" fill="#6593C8"/>
<path fill-rule="evenodd" clip-rule="evenodd" d="M179.848 131.373C179.498 130.975 179.909 130.363 180.399 130.563C188.509 133.869 195.403 138.915 201.077 145.701C206.423 152.312 210.309 159.721 212.737 167.928C213.943 173.378 214.577 178.893 214.638 184.472C214.368 189.834 214.201 195.198 214.134 200.565C214.132 200.693 214.081 200.815 213.994 200.908C213.172 201.78 212.457 202.743 211.85 203.795C206.698 211.079 199.737 213.388 191.193 211.527C191.109 211.509 191.021 211.512 190.939 211.537C188.14 212.388 185.394 213.386 182.699 214.53C180.608 215.234 178.496 215.318 176.362 214.782C174.563 214.053 172.719 213.467 170.827 213.024C170.799 213.017 170.771 213.013 170.742 213.012C164.399 212.643 158.077 212.055 151.774 211.246C148.431 210.373 145.076 209.578 141.706 208.862C141.659 208.852 141.61 208.849 141.562 208.853C140.793 208.921 140.04 209.067 139.302 209.289C139.172 209.328 139.033 209.315 138.912 209.254C138.877 209.237 138.842 209.219 138.808 209.202C138.672 209.135 138.572 209.014 138.535 208.868C137.486 204.716 136.281 200.584 134.917 196.47C133.63 191.104 132.446 185.715 131.369 180.305C129.543 167.124 132.162 154.916 139.227 143.681C142.609 138.755 146.932 134.898 152.191 132.109C152.25 132.078 152.315 132.057 152.382 132.059C152.591 132.065 152.768 132.15 152.915 132.314C154.209 133.832 154.827 135.538 154.771 137.433C154.759 137.835 155.178 138.121 155.464 137.838C155.995 137.311 156.202 136.606 156.083 135.724C155.835 133.507 155.11 131.458 153.911 129.578C153.842 129.469 153.809 129.337 153.856 129.218C153.882 129.153 153.914 129.093 153.952 129.036C154.012 128.945 154.113 128.894 154.22 128.877C155.286 128.714 156.329 128.807 157.351 129.157C158.18 129.571 159.012 129.984 159.841 130.398C159.871 130.413 159.9 130.431 159.926 130.452C166.923 135.889 167.204 135.499 160.773 129.283C160.234 128.779 160.079 128.214 160.308 127.588C160.355 127.458 160.467 127.365 160.6 127.327C161.17 127.164 161.751 127.06 162.344 127.016C162.395 127.012 162.446 127.016 162.495 127.029C165.531 127.78 168.103 129.262 170.209 131.473C170.537 131.817 170.999 131.598 170.75 131.192C170.721 131.145 170.691 131.098 170.659 131.052C169.95 130.227 169.28 129.372 168.653 128.486C168.559 128.353 168.537 128.182 168.597 128.03C168.685 127.81 168.781 127.595 168.884 127.385C168.961 127.229 169.116 127.128 169.29 127.124C169.959 127.108 170.627 127.197 171.292 127.389C174.75 128.819 177.934 130.693 180.849 133.012C180.895 133.049 180.958 133.055 181.011 133.029V133.029C181.097 132.986 181.121 132.875 181.06 132.801C180.665 132.317 180.261 131.84 179.848 131.373Z" fill="#0D4984"/>
<path fill-rule="evenodd" clip-rule="evenodd" d="M195.373 154.289C200.086 154.333 202.325 156.669 202.094 161.295C202.092 161.339 202.084 161.383 202.07 161.424C200.838 165.152 198.284 166.525 194.411 165.542C194.377 165.534 194.343 165.521 194.312 165.505C191.868 164.264 190.451 162.27 190.058 159.521C190.053 159.485 190.051 159.449 190.055 159.413C190.208 157.626 190.889 156.318 192.078 155.426C193.039 154.709 194.152 154.353 195.373 154.289Z" fill="#081729"/>
<path fill-rule="evenodd" clip-rule="evenodd" d="M193.936 156.345C194.046 156.319 194.161 156.337 194.257 156.395C195.054 156.877 195.306 157.591 195.009 158.535C194.999 158.567 194.985 158.598 194.968 158.627C193.842 160.576 192.821 160.573 191.899 158.619C191.85 158.515 191.84 158.395 191.875 158.286C192.208 157.234 192.895 156.587 193.936 156.345Z" fill="white"/>
<path fill-rule="evenodd" clip-rule="evenodd" d="M155.83 158.33C158.364 158.1 160.646 159.214 161.913 161.109C163.181 163.003 162.8 170.328 156.083 170.328C152.556 169.826 150.969 168.39 150.141 166.076C150.131 166.048 150.124 166.018 150.119 165.989C149.622 162.866 149.968 161.768 151.774 159.972C152.915 158.962 153.548 158.537 155.83 158.33Z" fill="#081729"/>
<path fill-rule="evenodd" clip-rule="evenodd" d="M153.548 160.856C154.294 160.638 155.023 160.806 155.766 161.433C155.808 161.469 155.844 161.512 155.87 161.561C156.166 162.126 156.153 162.691 155.83 163.256C155.613 163.635 154.816 164.383 154.055 164.266C152.494 164.027 152.298 163.561 152.067 162.975C152.041 162.91 152.028 162.841 152.033 162.771C152.101 161.785 152.606 161.147 153.548 160.856Z" fill="white"/>
<path fill-rule="evenodd" clip-rule="evenodd" d="M203.429 170.718C203.466 170.711 203.504 170.708 203.541 170.709C207.634 170.851 209.263 172.955 208.428 177.022C208.048 179.151 207.018 180.857 205.338 182.14C205.286 182.179 205.225 182.208 205.162 182.224C200.723 183.326 198.308 181.564 197.912 176.94C197.909 176.911 197.909 176.88 197.912 176.851C198.241 173.433 200.08 171.389 203.429 170.718Z" fill="#6593C8"/>
<path fill-rule="evenodd" clip-rule="evenodd" d="M155.069 173.485C161.791 174.038 162.927 180.81 161.026 183.588C159.125 186.366 155.927 186.873 153.041 185.482C149.453 183.754 148.772 179.517 150.865 175.546C150.879 175.519 150.896 175.493 150.915 175.47C151.905 174.245 153.295 173.59 155.069 173.485Z" fill="#6593C8"/>
<path fill-rule="evenodd" clip-rule="evenodd" d="M196.241 175.123C196.173 175.209 196.076 175.266 195.969 175.289C193.413 175.842 190.882 176.452 188.383 177.119C188.312 177.138 188.247 177.172 188.191 177.219C185.513 179.454 182.599 181.317 179.452 182.808C179.42 182.823 179.386 182.835 179.351 182.843C174.617 183.921 170.705 182.57 167.617 178.789C165.953 176.913 165.808 174.961 167.181 172.934C167.217 172.881 167.264 172.835 167.318 172.801C168.491 172.059 169.904 171.648 171.57 171.596C171.715 171.591 171.853 171.527 171.946 171.415C173.056 170.076 174.144 168.587 175.475 166.918C177.404 164.72 179.699 164.162 182.364 165.242C182.418 165.264 182.468 165.297 182.51 165.337C183.826 166.575 184.228 167.828 184.727 169.444C184.92 170.07 187.423 170.687 188.995 170.706C189.023 170.707 189.05 170.704 189.078 170.7C191.275 170.345 193.359 170.333 195.5 171.086C196.979 171.7 197.461 173.567 196.241 175.123Z" fill="#FDBE67"/>
<path fill-rule="evenodd" clip-rule="evenodd" d="M196.134 175.253C195.361 175.975 194.433 176.438 193.345 176.643C191.982 176.841 190.017 176.848 188.909 177.906C187.276 179.485 186.185 180.144 184.98 180.936C183.211 181.847 181.353 182.478 179.404 182.831C182.603 181.32 185.561 179.426 188.276 177.148C190.864 176.455 193.485 175.824 196.134 175.253Z" fill="#F5C989"/>
<path fill-rule="evenodd" clip-rule="evenodd" d="M171.953 173.907C172.031 173.671 172.248 173.47 172.476 173.569C172.64 173.641 172.78 173.759 172.895 173.923C172.926 173.967 172.947 174.016 172.958 174.068C173.089 174.656 173.086 175.235 172.951 175.804C172.89 176.065 173.009 176.345 173.26 176.439C175.741 177.367 178.297 177.519 180.925 176.895C182.95 176.334 184.894 175.577 186.755 174.621C188.923 173.836 191.138 173.615 193.402 173.959C193.528 173.978 193.646 174.044 193.708 174.157C193.898 174.507 193.814 174.808 193.452 175.059C193.384 175.106 193.301 175.128 193.218 175.132C189.121 175.316 186.337 177.673 182.699 179.673C178.437 181.663 174.838 180.873 171.9 177.305C171.763 177.138 171.535 177.077 171.324 177.125C170.484 177.317 169.764 177.043 169.168 176.301C169.148 176.277 169.135 176.244 169.13 176.213V176.213C169.093 176.005 169.538 175.396 169.749 175.389C170.405 175.369 171.032 175.085 171.628 174.536C171.658 174.509 171.684 174.478 171.704 174.444C171.809 174.272 171.892 174.093 171.953 173.907Z" fill="#AE7C30"/>
<path fill-rule="evenodd" clip-rule="evenodd" d="M213.431 201.539C213.702 201.217 214.211 201.383 214.271 201.798C214.904 206.132 216.075 210.317 217.785 214.352C217.799 214.386 217.81 214.422 217.816 214.458C220.306 228.099 217.43 240.457 209.188 251.532C207.193 253.941 204.955 256.088 202.471 257.973C196.494 261.376 190.156 263.859 183.459 265.424C180.222 265.766 177.011 266.272 173.827 266.94C170.386 267.168 166.937 267.252 163.484 267.193C163.451 267.193 163.418 267.189 163.386 267.182C160.099 266.469 156.741 266.134 153.314 266.178C153.144 266.18 152.986 266.096 152.882 265.962C152.312 265.229 151.547 264.801 150.585 264.676C150.533 264.669 150.482 264.656 150.435 264.634C148.383 263.707 146.338 262.734 144.296 261.715C143.823 261.479 143.998 260.722 144.524 260.677C149.371 260.259 153.435 258.137 156.717 254.311C159.726 251.052 161.458 247.205 161.906 242.768C161.911 242.718 161.908 242.666 161.897 242.616C161.2 239.361 159.751 238.937 157.556 241.342C157.505 241.398 157.467 241.468 157.446 241.541C155.879 246.999 152.805 251.382 148.225 254.69C144.148 256.895 139.87 257.409 135.393 256.231C135.33 256.214 135.271 256.185 135.219 256.146C130.452 252.512 126.336 248.28 122.877 243.45C122.096 242.228 121.355 240.977 120.651 239.695C120.438 239.308 120.799 238.872 121.213 239.028C123.033 239.715 124.673 240.714 126.133 242.026C126.159 242.049 126.187 242.07 126.217 242.086C126.609 242.302 126.988 242.36 127.357 242.261C127.493 242.224 127.593 242.111 127.632 241.975C127.854 241.191 127.84 240.443 127.591 239.73C127.575 239.684 127.551 239.642 127.522 239.603C126.27 237.938 125.017 236.274 123.764 234.61C123.092 233.522 122.63 232.356 122.378 231.113C122.372 231.087 122.369 231.06 122.369 231.033C122.359 230.477 122.585 230.045 123.047 229.737C123.101 229.701 123.163 229.679 123.228 229.67C124.318 229.523 125.382 229.637 126.419 230.013C126.507 230.045 126.602 230.057 126.69 230.028C126.777 230 126.858 229.96 126.933 229.91C127.02 229.852 127.071 229.755 127.089 229.652C127.222 228.899 127.219 228.146 127.08 227.392C127.067 227.321 127.037 227.255 126.995 227.196C125.635 225.307 124.691 223.226 124.169 220.953C124.152 220.881 124.152 220.806 124.17 220.735C124.458 219.599 125.16 218.85 126.275 218.49C126.372 218.458 126.477 218.462 126.574 218.496C128.975 219.33 131.293 220.366 133.523 221.602C133.769 221.705 134.015 221.793 134.262 221.865C134.703 221.995 134.953 221.497 134.618 221.183C132.193 218.913 129.37 217.254 126.149 216.205C126.081 216.182 126.008 216.175 125.937 216.185C123.291 216.53 121.851 218.026 121.613 220.672C121.611 220.702 121.611 220.733 121.614 220.763C121.801 222.625 122.342 224.366 123.242 225.986C123.418 226.304 123.228 226.711 122.876 226.803C121.103 227.267 120.011 228.452 119.599 230.358C119.587 230.413 119.585 230.471 119.593 230.527C119.795 231.924 120.199 233.257 120.804 234.525C120.947 234.824 120.78 235.185 120.456 235.253C119.944 235.36 119.436 235.46 118.93 235.554C118.715 235.594 118.498 235.487 118.401 235.291C116.862 232.196 116.072 228.913 116.034 225.443C116.033 225.327 116.072 225.215 116.147 225.127C116.589 224.605 117.092 224.139 117.657 223.729C117.753 223.659 117.872 223.629 117.99 223.638C118.543 223.678 119.084 223.653 119.615 223.564C119.824 223.529 119.98 223.355 120 223.145C120.127 221.84 120.074 220.541 119.843 219.247C119.838 219.217 119.835 219.187 119.835 219.157C119.849 217.131 120.59 215.437 122.059 214.077C122.097 214.042 122.14 214.013 122.187 213.992C122.947 213.654 123.742 213.455 124.576 213.398C124.626 213.394 124.676 213.399 124.724 213.41C126.226 213.776 127.716 214.132 129.196 214.481C129.644 214.586 129.963 214.095 129.646 213.761C128.345 212.388 126.742 211.606 124.839 211.415C124.415 211.373 124.254 210.894 124.651 210.741V210.741C127.53 209.911 130.334 210.073 133.063 211.226C133.257 211.308 133.478 211.22 133.675 211.147V211.147C133.74 211.123 133.811 211.13 133.878 211.151C136.554 211.992 139.139 213.118 141.635 214.529C144.897 216.617 148.022 218.89 151.013 221.349C152.287 222.315 153.699 223.024 155.245 223.474C155.296 223.489 155.35 223.496 155.404 223.49C155.573 223.471 155.723 223.417 155.855 223.329C156.013 223.222 156.032 223.007 155.948 222.835C155.39 221.698 154.714 220.647 153.921 219.682C153.629 219.327 153.9 218.759 154.36 218.785C156.925 218.927 159.497 218.9 162.077 218.704C162.136 218.699 162.197 218.705 162.254 218.722C164.414 219.364 165.905 220.573 166.336 222.674C166.345 222.716 166.359 222.758 166.378 222.797C167.008 224.104 167.589 225.432 168.124 226.78C169.059 230.006 169.059 230.048 170.152 233.22C171.089 235.57 173.504 236.749 175.672 237.987C175.709 238.009 175.75 238.025 175.792 238.036C177.944 238.6 179.364 238.296 181.458 238.995C181.524 239.018 181.583 239.052 181.632 239.102C183.152 240.656 185.094 246.855 185.837 248.922C185.858 248.98 185.889 249.031 185.93 249.077C188.219 251.657 191.084 252.856 194.525 252.674C194.583 252.671 194.64 252.657 194.693 252.634C198.733 250.887 202.606 248.854 206.311 246.536C206.37 246.5 206.42 246.452 206.458 246.394C207.365 245.038 207.936 243.552 208.174 241.934C208.199 239.225 208.367 236.531 208.681 233.852C208.811 232.866 209.233 232.324 209.873 232.107C209.923 232.091 209.971 232.069 210.013 232.039C211.508 231.01 212.665 229.688 213.481 228.075C213.492 228.053 213.504 228.033 213.518 228.013C214.696 226.319 215.612 224.498 216.263 222.552C216.278 222.508 216.287 222.462 216.288 222.415C216.43 218.697 215.665 215.173 213.989 211.843C213.919 211.705 213.915 211.542 213.984 211.404C213.992 211.388 214.001 211.371 214.009 211.355C214.084 211.207 214.084 211.032 214.008 210.885C212.883 208.699 212.17 206.391 211.869 203.959C211.856 203.852 211.878 203.744 211.933 203.652C212.377 202.901 212.877 202.196 213.431 201.539Z" fill="#6593C8"/>
<path fill-rule="evenodd" clip-rule="evenodd" d="M211.032 205.03C211.316 204.645 211.983 204.788 212.072 205.258C212.44 207.217 213.086 209.092 214.008 210.885C214.084 211.032 214.084 211.207 214.009 211.355C213.978 211.416 213.948 211.477 213.919 211.537C213.891 211.595 213.853 211.648 213.806 211.691C211.746 213.613 209.572 215.401 207.287 217.055C203.509 219.9 199.384 220.494 194.908 218.839C194.88 218.829 194.852 218.821 194.822 218.816C193.907 218.655 192.994 218.658 192.078 218.824C189.158 219.689 186.283 220.699 183.459 221.854C180.843 222.657 178.225 222.657 175.601 221.854C172.836 220.856 170.048 219.93 167.236 219.076C165.561 218.77 163.87 218.644 162.167 218.697C159.178 218.929 156.198 218.934 153.229 218.712C153.108 218.703 152.995 218.649 152.91 218.563C149.689 215.297 145.993 212.713 141.819 210.811C141.575 210.7 141.462 210.418 141.529 210.158C141.583 209.948 141.618 209.735 141.636 209.517C141.663 209.184 141.964 208.916 142.291 208.987C145.465 209.67 148.625 210.423 151.774 211.246C158.077 212.055 164.399 212.643 170.742 213.012C170.771 213.013 170.799 213.017 170.827 213.024C172.719 213.467 174.563 214.053 176.362 214.782C178.496 215.318 180.608 215.234 182.699 214.53C185.434 213.369 188.022 211.499 191.064 211.499C197.269 212.208 206.163 211.658 211.032 205.03Z" fill="white"/>
<path fill-rule="evenodd" clip-rule="evenodd" d="M141.136 208.893C141.411 208.864 141.656 209.07 141.646 209.346C141.636 209.621 141.597 209.89 141.53 210.152C141.464 210.414 141.179 210.541 140.924 210.449C140.2 210.188 139.489 209.929 138.788 209.675C138.671 209.632 138.593 209.521 138.593 209.396V209.396C138.593 209.232 138.726 209.099 138.89 209.099C138.994 209.099 139.11 209.099 139.226 209.099C140.306 209.001 140.639 208.946 141.136 208.893Z" fill="#6593C8"/>
<path fill-rule="evenodd" clip-rule="evenodd" d="M138.406 209.689C138.526 209.635 138.662 209.629 138.786 209.674C139.634 209.982 140.498 210.296 141.381 210.614C145.792 212.559 149.678 215.253 153.041 218.697C154.224 219.918 155.193 221.298 155.948 222.835C156.032 223.007 156.013 223.222 155.855 223.329C155.723 223.417 155.573 223.471 155.404 223.49C155.35 223.496 155.296 223.489 155.245 223.473C153.699 223.024 152.287 222.315 151.014 221.349C148.022 218.89 144.897 216.617 141.635 214.529C139.711 213.442 137.735 212.524 135.705 211.775C135.215 211.594 135.257 210.801 135.76 210.656C136.663 210.397 137.545 210.074 138.406 209.689Z" fill="#0D4984"/>
<path fill-rule="evenodd" clip-rule="evenodd" d="M123.533 211.428C123.601 211.391 123.678 211.371 123.755 211.37C126.142 211.338 128.105 212.135 129.646 213.762C129.963 214.096 129.644 214.587 129.196 214.481C127.716 214.133 126.226 213.776 124.724 213.411C124.676 213.399 124.626 213.394 124.576 213.398C123.742 213.456 122.947 213.654 122.187 213.993C122.14 214.013 122.097 214.042 122.059 214.077C120.59 215.438 119.849 217.131 119.835 219.157C119.835 219.187 119.838 219.217 119.843 219.247C120.074 220.541 120.127 221.841 120 223.145C119.98 223.356 119.824 223.529 119.615 223.564C119.084 223.653 118.543 223.678 117.99 223.638C117.872 223.63 117.753 223.659 117.657 223.729C117.452 223.878 117.255 224.034 117.066 224.198C116.704 224.512 116.074 224.257 116.11 223.779C116.145 223.318 116.189 222.894 116.244 222.509C116.268 222.337 116.384 222.194 116.543 222.125C117.044 221.908 117.533 221.666 118.008 221.399C118.193 221.296 118.286 221.084 118.251 220.876C117.994 219.341 118.009 217.806 118.295 216.271C118.307 216.205 118.333 216.143 118.371 216.087C119.722 214.11 121.443 212.557 123.533 211.428Z" fill="#0D4984"/>
<path fill-rule="evenodd" clip-rule="evenodd" d="M213.393 212.074C213.637 211.849 214.029 211.917 214.18 212.212C215.819 215.412 217.195 218.493 216.286 222.486C215.75 224.838 215.212 226.678 214.025 228.391C214.011 228.411 213.999 228.432 213.988 228.453C213.153 230.085 211.475 231.048 209.949 232.084C209.239 232.485 208.81 233.075 208.681 233.852C208.606 236.102 208.5 238.685 208.174 241.934C207.931 243.586 207.34 245.101 206.4 246.481C202.951 250.416 199.031 252.521 194.613 252.669C191.133 252.876 188.239 251.679 185.93 249.077C185.889 249.031 185.858 248.979 185.836 248.921C185.046 246.856 181.794 241.796 180.545 240.924C179.15 239.951 174.968 239.484 173.954 238.903C171.771 237.653 170.21 235.843 169.265 233.473C168.172 230.3 169.059 230.005 168.124 226.779C167.581 225.411 166.991 224.064 166.349 222.738C165.572 221.43 164.751 220.489 163.897 219.792C163.491 219.461 163.696 218.692 164.219 218.72C165.23 218.775 166.236 218.893 167.237 219.076C170.048 219.929 172.836 220.856 175.602 221.854C178.225 222.656 180.844 222.656 183.46 221.854C186.283 220.699 189.158 219.689 192.078 218.823C192.994 218.657 193.907 218.655 194.823 218.815C194.852 218.82 194.881 218.828 194.908 218.839C199.384 220.494 203.509 219.899 207.287 217.055C209.42 215.511 211.456 213.851 213.393 212.074Z" fill="#0D4984"/>
<path fill-rule="evenodd" clip-rule="evenodd" d="M120.296 238.714C120.164 238.673 120.053 238.581 119.991 238.457C119.617 237.711 119.242 236.965 118.868 236.219C118.718 235.92 118.898 235.561 119.226 235.499C119.634 235.421 120.044 235.34 120.456 235.253C120.78 235.185 120.947 234.824 120.804 234.525C120.199 233.257 119.796 231.925 119.594 230.527C119.585 230.471 119.587 230.413 119.599 230.358C120.011 228.453 121.103 227.268 122.876 226.803C123.228 226.711 123.419 226.304 123.242 225.986C122.342 224.366 121.801 222.625 121.614 220.763C121.611 220.733 121.611 220.702 121.613 220.672C121.851 218.026 123.291 216.53 125.937 216.185C126.008 216.176 126.081 216.183 126.149 216.205C129.37 217.254 132.193 218.913 134.618 221.183C134.953 221.497 134.703 221.995 134.263 221.866C134.015 221.793 133.769 221.705 133.523 221.602C131.293 220.366 128.975 219.331 126.574 218.496C126.477 218.462 126.373 218.459 126.276 218.49C125.16 218.851 124.458 219.599 124.17 220.735C124.152 220.807 124.153 220.882 124.169 220.954C124.691 223.227 125.635 225.308 126.995 227.196C127.037 227.255 127.067 227.322 127.08 227.392C127.219 228.146 127.222 228.899 127.089 229.653C127.071 229.756 127.02 229.852 126.933 229.911C126.858 229.961 126.777 230 126.69 230.028C126.602 230.057 126.507 230.045 126.419 230.014C125.382 229.637 124.318 229.523 123.228 229.671C123.164 229.679 123.101 229.701 123.047 229.737C122.585 230.045 122.359 230.477 122.369 231.034C122.369 231.06 122.372 231.087 122.378 231.113C122.63 232.357 123.092 233.522 123.764 234.61C125.017 236.274 126.27 237.939 127.523 239.603C127.552 239.642 127.575 239.684 127.591 239.73C127.84 240.443 127.854 241.191 127.632 241.975C127.593 242.111 127.494 242.224 127.357 242.261C126.988 242.361 126.609 242.303 126.218 242.087C126.187 242.07 126.159 242.049 126.133 242.026C124.432 240.497 122.486 239.393 120.296 238.714Z" fill="#0D4984"/>
<path fill-rule="evenodd" clip-rule="evenodd" d="M117.454 217.464C117.643 217.015 118.142 217.236 118.106 217.722C118.027 218.773 118.076 219.825 118.252 220.876C118.287 221.084 118.193 221.296 118.009 221.399C117.695 221.575 117.375 221.741 117.049 221.895C116.708 222.057 116.336 221.779 116.394 221.406C116.578 220.227 116.895 218.963 117.174 218.192C117.273 217.917 117.363 217.678 117.454 217.464Z" fill="#6593C8"/>
<path fill-rule="evenodd" clip-rule="evenodd" d="M113.543 237.562C113.676 237.61 113.779 237.717 113.83 237.849C114.93 240.728 116.468 243.353 118.441 245.723C125.644 253.937 134.297 259.908 144.401 263.637C144.954 263.84 144.788 264.663 144.203 264.596C128.396 262.786 116.429 254.811 108.301 240.672C107.589 238.927 108.139 237.79 109.949 237.262C111.19 237.045 112.388 237.146 113.543 237.562Z" fill="#6593C8"/>
<path fill-rule="evenodd" clip-rule="evenodd" d="M114.171 238.7C114.003 238.298 114.402 237.91 114.801 238.085C116.023 238.624 117.219 239.223 118.386 239.883C118.422 239.903 118.456 239.929 118.487 239.958C119.82 241.241 121.256 242.387 122.798 243.399C122.85 243.433 122.895 243.476 122.932 243.526C126.379 248.325 130.477 252.531 135.219 256.146C135.271 256.185 135.33 256.214 135.393 256.231C139.87 257.409 144.148 256.895 148.225 254.69C152.805 251.382 155.879 246.999 157.446 241.541C157.467 241.468 157.505 241.398 157.556 241.342C159.751 238.937 161.2 239.361 161.897 242.616C161.908 242.666 161.911 242.718 161.906 242.768C161.458 247.205 159.726 251.052 156.717 254.311C153.435 258.137 149.371 260.259 144.524 260.677C143.998 260.722 143.824 261.479 144.296 261.715C145.76 262.445 147.225 263.152 148.693 263.836C149.165 264.055 149.038 264.801 148.523 264.875C148.461 264.884 148.4 264.893 148.338 264.902C148.264 264.913 148.188 264.908 148.116 264.886C136.402 261.314 126.512 254.926 118.441 245.723C116.664 243.589 115.24 241.248 114.171 238.7Z" fill="#0D4984"/>
<path fill-rule="evenodd" clip-rule="evenodd" d="M152.932 266.498C152.99 266.304 153.173 266.18 153.375 266.177C156.798 266.138 160.152 266.476 163.434 267.193C163.162 267.158 162.916 267.207 162.696 267.34C162.595 267.401 162.536 267.509 162.513 267.625C162.312 268.657 162.002 269.647 161.584 270.595C161.485 270.819 161.233 270.931 160.998 270.86C158.305 270.055 155.661 269.124 153.071 268.067C152.897 267.996 152.776 267.833 152.774 267.645C152.77 267.25 152.822 266.868 152.932 266.498Z" fill="#0D4984"/>
<path fill-rule="evenodd" clip-rule="evenodd" d="M182.907 265.485C183.202 265.452 183.459 265.683 183.459 265.98C183.459 266.031 183.459 266.082 183.459 266.133C183.459 266.319 183.356 266.489 183.192 266.575C180.311 268.079 177.371 269.471 174.373 270.75C174.088 270.872 173.762 270.706 173.711 270.4C173.539 269.358 173.555 268.309 173.761 267.253C173.798 267.062 173.949 266.915 174.14 266.875C177.04 266.276 179.963 265.813 182.907 265.485Z" fill="#0D4984"/>
<path fill-rule="evenodd" clip-rule="evenodd" d="M182.694 266.834C183.035 266.658 183.439 266.914 183.404 267.297C183.215 269.333 182.632 271.26 181.655 273.079C181.594 273.192 181.49 273.276 181.367 273.315C180.971 273.444 180.594 273.582 180.237 273.73C180.189 273.75 180.138 273.762 180.086 273.766C178.505 273.891 177.011 273.636 175.602 273.002C174.794 272.695 174.245 272.157 173.953 271.388C173.865 271.159 173.994 270.912 174.219 270.816C177.098 269.592 179.923 268.265 182.694 266.834Z" fill="#6593C8"/>
<path fill-rule="evenodd" clip-rule="evenodd" d="M152.822 268.696C152.789 268.342 153.149 268.099 153.479 268.232C155.932 269.218 158.432 270.092 160.977 270.854C161.221 270.927 161.379 271.174 161.297 271.416C161.015 272.248 160.389 272.692 159.42 272.748C159.393 272.749 159.365 272.753 159.338 272.758C157.869 273.067 156.406 273.073 154.95 272.778C154.862 272.76 154.781 272.718 154.716 272.655C153.6 271.577 152.97 270.257 152.822 268.696Z" fill="#6593C8"/>
<path fill-rule="evenodd" clip-rule="evenodd" d="M154.816 273.369C154.816 273.05 155.11 272.814 155.425 272.863C156.589 273.047 157.758 273.038 158.931 272.836C159.186 272.792 159.44 272.938 159.498 273.189C159.606 273.656 159.657 274.134 159.65 274.623C159.647 274.857 159.468 275.049 159.235 275.069C157.706 275.203 156.301 274.816 155.016 273.907C154.889 273.816 154.816 273.668 154.816 273.511C154.816 273.464 154.816 273.416 154.816 273.369Z" fill="#AE7C30"/>
<path fill-rule="evenodd" clip-rule="evenodd" d="M175.601 273.775C175.601 273.412 175.977 273.169 176.319 273.289C177.406 273.672 178.543 273.839 179.728 273.788C179.963 273.778 180.164 273.961 180.164 274.196V274.196C180.164 274.384 180.034 274.546 179.85 274.587C178.724 274.832 177.59 275.057 176.447 275.26C176.391 275.27 176.333 275.271 176.276 275.259C176.138 275.231 176.005 275.193 175.878 275.146C175.703 275.081 175.601 274.906 175.601 274.72C175.601 274.405 175.601 274.09 175.601 273.775Z" fill="#AE7C30"/>
<path fill-rule="evenodd" clip-rule="evenodd" d="M154.767 274.706C154.789 274.305 155.257 274.084 155.606 274.282C156.681 274.894 157.837 275.161 159.073 275.081C159.372 275.062 159.639 275.285 159.65 275.584C159.739 278.022 159.973 280.445 160.352 282.852C160.377 283.011 160.478 283.148 160.623 283.219C163.11 284.449 165.652 285.547 168.251 286.515C168.722 286.728 169.104 287.042 169.394 287.457C169.477 287.578 169.491 287.732 169.441 287.869C169.228 288.452 168.978 289.015 168.693 289.557C168.653 289.633 168.593 289.696 168.52 289.743C166.26 291.197 164.523 293.111 163.308 295.482C162.854 296.165 162.284 296.362 161.596 296.076C161.472 296.025 161.385 295.915 161.345 295.787C160.341 292.567 158.859 289.588 156.899 286.844C156.863 286.794 156.818 286.748 156.762 286.722C156.567 286.629 156.393 286.675 156.239 286.858C156.219 286.881 156.203 286.908 156.19 286.935C156.047 287.245 156.047 287.556 156.192 287.866C156.204 287.892 156.219 287.916 156.236 287.939C157.778 290.019 159.131 292.208 160.299 294.508C160.51 294.923 160.051 295.431 159.59 295.364C158.437 295.199 157.118 295.35 155.83 295.653C153.23 296.265 151.067 298.089 150.038 298.011C150.012 298.009 149.987 298.004 149.963 297.997C149.109 297.748 148.996 297.495 148.859 296.997C148.612 296.095 148.161 295.31 147.513 294.646C147.481 294.614 147.445 294.586 147.406 294.564C145.603 293.548 143.714 292.729 141.734 292.103C141.669 292.082 141.608 292.049 141.557 292.003C140.559 291.106 140.306 290.091 140.798 288.955C140.845 288.846 140.934 288.762 141.042 288.715C145.417 286.796 149.718 284.715 153.946 282.473C154.094 282.395 154.192 282.247 154.208 282.081C154.446 279.625 154.634 277.167 154.767 274.706Z" fill="#F5C989"/>
<path fill-rule="evenodd" clip-rule="evenodd" d="M179.63 274.635C179.917 274.573 180.197 274.769 180.234 275.06C180.374 276.168 180.505 277.279 180.626 278.39C180.652 278.633 180.85 278.822 181.094 278.835C185.427 279.053 189.696 278.633 193.902 277.568C193.953 277.555 194.006 277.55 194.058 277.555C194.55 277.608 194.939 277.845 195.221 278.267C195.238 278.293 195.252 278.321 195.264 278.35C195.563 279.108 195.759 279.894 195.854 280.708C195.873 280.865 195.808 281.019 195.7 281.135C195.012 281.874 194.84 282.922 195.12 284.242C195.581 285.918 195.998 287.615 196.368 289.33C196.381 289.39 196.383 289.451 196.372 289.51C196.209 290.382 195.666 290.773 194.74 290.683C191.748 290.413 189.003 291.127 186.501 292.83C185.573 293.655 184.623 294.444 183.652 295.199C183.346 295.437 182.899 295.244 182.851 294.859C182.453 291.643 181.77 288.482 180.798 285.379C180.491 284.249 179.925 283.31 179.101 282.563C178.837 282.323 178.433 282.48 178.405 282.835C178.365 283.346 178.402 283.857 178.517 284.368C179.771 287.919 180.999 291.47 182.204 295.021C182.319 295.36 182.051 295.704 181.699 295.64C180.811 295.477 179.977 295.141 179.198 294.63C179.166 294.609 179.137 294.584 179.111 294.556C176.746 292.044 173.986 290.105 170.827 288.734C170.718 288.687 170.625 288.606 170.588 288.494C170.504 288.245 170.513 287.995 170.616 287.746C170.642 287.683 170.686 287.63 170.737 287.585C171.219 287.168 171.616 286.685 171.926 286.136C172.913 284.54 173.872 282.844 174.692 280.639C174.707 280.6 174.717 280.558 174.721 280.517C174.893 278.858 175.14 277.24 175.465 275.661C175.532 275.339 175.892 275.173 176.213 275.246C176.234 275.251 176.255 275.255 176.277 275.259C176.333 275.271 176.391 275.27 176.448 275.26C177.515 275.07 178.576 274.862 179.63 274.635Z" fill="#F5C989"/>
<path fill-rule="evenodd" clip-rule="evenodd" d="M184.347 280.362C184.412 280.181 184.596 280.078 184.788 280.085C187.38 280.178 189.954 280.326 192.509 280.528C193.035 280.569 193.089 281.138 192.564 281.184C192.404 281.198 192.242 281.207 192.078 281.211C189.612 281.33 187.145 281.375 184.677 281.344C184.418 281.34 184.199 281.138 184.227 280.881C184.247 280.702 184.287 280.53 184.347 280.362Z" fill="#AE7C30"/>
<path fill-rule="evenodd" clip-rule="evenodd" d="M176.892 281.361C177.028 281.195 177.293 281.137 177.354 281.343C177.355 281.346 177.356 281.349 177.356 281.353C177.376 281.424 177.363 281.499 177.337 281.569C176.54 283.727 175.511 285.746 174.248 287.626C173.951 288.069 173.379 287.79 173.555 287.287C174.307 285.136 175.42 283.161 176.892 281.361Z" fill="#AE7C30"/>
<path fill-rule="evenodd" clip-rule="evenodd" d="M181.027 281.744C181.085 281.501 181.354 281.396 181.589 281.478C186.218 283.102 190.322 285.564 193.904 288.866C194.139 289.083 194.066 289.492 193.766 289.38C193.71 289.36 193.655 289.33 193.599 289.293C189.659 286.914 185.573 284.79 181.339 282.923C181.235 282.877 181.147 282.798 181.104 282.693C180.976 282.381 180.951 282.064 181.027 281.744Z" fill="#AE7C30"/>
<path fill-rule="evenodd" clip-rule="evenodd" d="M182.919 295.428C182.937 295.592 182.809 295.735 182.644 295.735V295.735C182.526 295.735 182.42 295.659 182.382 295.546C181.12 291.82 179.833 288.094 178.517 284.368C178.402 283.857 178.365 283.346 178.405 282.835C178.432 282.48 178.837 282.323 179.101 282.563C179.925 283.31 180.491 284.25 180.798 285.379C181.827 288.665 182.533 292.016 182.919 295.428Z" fill="#AE7C30"/>
<path fill-rule="evenodd" clip-rule="evenodd" d="M153.231 284.399C153.274 284.379 153.319 284.364 153.365 284.357C154.219 284.226 154.419 284.465 153.969 285.073C153.943 285.108 153.911 285.14 153.875 285.166C151.278 287.12 148.492 288.691 145.517 289.879C144.999 290.086 144.678 289.479 145.134 289.159C147.703 287.351 150.401 285.765 153.231 284.399Z" fill="#AE7C30"/>
<path fill-rule="evenodd" clip-rule="evenodd" d="M153.928 286.187C154.006 286.003 154.19 285.866 154.381 285.927C154.651 286.013 154.795 286.23 154.814 286.577C154.816 286.62 154.811 286.663 154.8 286.704C154.034 289.708 152.743 292.43 150.927 294.872C150.671 295.216 150.177 295.069 150.242 294.645C150.302 294.25 150.433 293.855 150.634 293.461C151.8 291.06 152.898 288.635 153.928 286.187Z" fill="#AE7C30"/>
<path fill-rule="evenodd" clip-rule="evenodd" d="M161.259 295.518C161.316 295.696 161.134 295.851 160.966 295.768V295.768C160.923 295.746 160.888 295.711 160.867 295.667C159.577 292.942 158.035 290.367 156.235 287.939C156.218 287.916 156.203 287.892 156.191 287.866C156.047 287.557 156.046 287.245 156.19 286.936C156.203 286.908 156.219 286.882 156.238 286.859C156.393 286.676 156.567 286.63 156.762 286.722C156.818 286.749 156.862 286.794 156.898 286.844C158.804 289.511 160.257 292.401 161.259 295.518Z" fill="#AE7C30"/>
<path fill-rule="evenodd" clip-rule="evenodd" d="M160.832 287.463C160.458 287.251 160.545 286.736 160.975 286.739C161.627 286.743 162.278 286.921 162.927 287.273C163.829 287.675 164.704 288.117 165.554 288.6C166.02 288.864 165.783 289.454 165.266 289.31C163.721 288.877 162.243 288.261 160.832 287.463Z" fill="#AE7C30"/>
</g>
<defs>
<clipPath id="clip0_2209_271">
<rect width="1451" height="468" fill="white"/>
</clipPath>
</defs>
</svg>
