<svg width="398" height="482" viewBox="0 0 398 482" fill="none" xmlns="http://www.w3.org/2000/svg">
<rect x="16" y="4" width="163" height="205" rx="16" stroke="#6A92C5" stroke-width="4"/>
<path d="M74.3936 34.6514C74.3936 34.4229 74.3584 34.2178 74.2881 34.0361C74.2236 33.8486 74.1006 33.6787 73.9189 33.5264C73.7373 33.3682 73.4824 33.2129 73.1543 33.0605C72.8262 32.9082 72.4014 32.75 71.8799 32.5859C71.2998 32.3984 70.749 32.1875 70.2275 31.9531C69.7119 31.7188 69.2549 31.4463 68.8564 31.1357C68.4639 30.8193 68.1533 30.4531 67.9248 30.0371C67.7021 29.6211 67.5908 29.1377 67.5908 28.5869C67.5908 28.0537 67.708 27.5703 67.9424 27.1367C68.1768 26.6973 68.5049 26.3223 68.9268 26.0117C69.3486 25.6953 69.8467 25.4521 70.4209 25.2822C71.001 25.1123 71.6367 25.0273 72.3281 25.0273C73.2715 25.0273 74.0947 25.1973 74.7979 25.5371C75.501 25.877 76.0459 26.3428 76.4326 26.9346C76.8252 27.5264 77.0215 28.2031 77.0215 28.9648H74.4023C74.4023 28.5898 74.3232 28.2617 74.165 27.9805C74.0127 27.6934 73.7783 27.4678 73.4619 27.3037C73.1514 27.1396 72.7588 27.0576 72.2842 27.0576C71.8271 27.0576 71.4463 27.1279 71.1416 27.2686C70.8369 27.4033 70.6084 27.5879 70.4561 27.8223C70.3037 28.0508 70.2275 28.3086 70.2275 28.5957C70.2275 28.8125 70.2803 29.0088 70.3857 29.1846C70.4971 29.3604 70.6611 29.5244 70.8779 29.6768C71.0947 29.8291 71.3613 29.9727 71.6777 30.1074C71.9941 30.2422 72.3604 30.374 72.7764 30.5029C73.4736 30.7139 74.0859 30.9512 74.6133 31.2148C75.1465 31.4785 75.5918 31.7744 75.9492 32.1025C76.3066 32.4307 76.5762 32.8027 76.7578 33.2188C76.9395 33.6348 77.0303 34.1064 77.0303 34.6338C77.0303 35.1904 76.9219 35.6885 76.7051 36.1279C76.4883 36.5674 76.1748 36.9395 75.7646 37.2441C75.3545 37.5488 74.8652 37.7803 74.2969 37.9385C73.7285 38.0967 73.0928 38.1758 72.3896 38.1758C71.7568 38.1758 71.1328 38.0938 70.5176 37.9297C69.9023 37.7598 69.3428 37.5049 68.8389 37.165C68.3408 36.8252 67.9424 36.3916 67.6436 35.8643C67.3447 35.3369 67.1953 34.7129 67.1953 33.9922H69.8408C69.8408 34.3906 69.9023 34.7275 70.0254 35.0029C70.1484 35.2783 70.3213 35.501 70.5439 35.6709C70.7725 35.8408 71.042 35.9639 71.3525 36.04C71.6689 36.1162 72.0146 36.1543 72.3896 36.1543C72.8467 36.1543 73.2217 36.0898 73.5146 35.9609C73.8135 35.832 74.0332 35.6533 74.1738 35.4248C74.3203 35.1963 74.3936 34.9385 74.3936 34.6514ZM83.042 38.1758C82.3037 38.1758 81.6416 38.0586 81.0557 37.8242C80.4697 37.584 79.9717 37.2529 79.5615 36.8311C79.1572 36.4092 78.8467 35.9199 78.6299 35.3633C78.4131 34.8008 78.3047 34.2031 78.3047 33.5703V33.2188C78.3047 32.498 78.4072 31.8389 78.6123 31.2412C78.8174 30.6436 79.1104 30.125 79.4912 29.6855C79.8779 29.2461 80.3467 28.9092 80.8975 28.6748C81.4482 28.4346 82.0693 28.3145 82.7607 28.3145C83.4346 28.3145 84.0322 28.4258 84.5537 28.6484C85.0752 28.8711 85.5117 29.1875 85.8633 29.5977C86.2207 30.0078 86.4902 30.5 86.6719 31.0742C86.8535 31.6426 86.9443 32.2754 86.9443 32.9727V34.0273H79.3857V32.3398H84.457V32.1465C84.457 31.7949 84.3926 31.4814 84.2637 31.2061C84.1406 30.9248 83.9531 30.7021 83.7012 30.5381C83.4492 30.374 83.127 30.292 82.7344 30.292C82.4004 30.292 82.1133 30.3652 81.873 30.5117C81.6328 30.6582 81.4365 30.8633 81.2842 31.127C81.1377 31.3906 81.0264 31.7012 80.9502 32.0586C80.8799 32.4102 80.8447 32.7969 80.8447 33.2188V33.5703C80.8447 33.9512 80.8975 34.3027 81.0029 34.625C81.1143 34.9473 81.2695 35.2256 81.4688 35.46C81.6738 35.6943 81.9199 35.876 82.207 36.0049C82.5 36.1338 82.8311 36.1982 83.2002 36.1982C83.6572 36.1982 84.082 36.1104 84.4746 35.9346C84.873 35.7529 85.2158 35.4805 85.5029 35.1172L86.7334 36.4531C86.5342 36.7402 86.2617 37.0156 85.916 37.2793C85.5762 37.543 85.166 37.7598 84.6855 37.9297C84.2051 38.0938 83.6572 38.1758 83.042 38.1758ZM90.917 30.5645V38H88.3857V28.4902H90.7676L90.917 30.5645ZM93.7822 28.4287L93.7383 30.7754C93.6152 30.7578 93.4658 30.7432 93.29 30.7314C93.1201 30.7139 92.9648 30.7051 92.8242 30.7051C92.4668 30.7051 92.1562 30.752 91.8926 30.8457C91.6348 30.9336 91.418 31.0654 91.2422 31.2412C91.0723 31.417 90.9434 31.6309 90.8555 31.8828C90.7734 32.1348 90.7266 32.4219 90.7148 32.7441L90.2051 32.5859C90.2051 31.9707 90.2666 31.4053 90.3896 30.8896C90.5127 30.3682 90.6914 29.9141 90.9258 29.5273C91.166 29.1406 91.459 28.8418 91.8047 28.6309C92.1504 28.4199 92.5459 28.3145 92.9912 28.3145C93.1318 28.3145 93.2754 28.3262 93.4219 28.3496C93.5684 28.3672 93.6885 28.3936 93.7822 28.4287ZM98.3701 36.1543L100.479 28.4902H103.125L99.917 38H98.3174L98.3701 36.1543ZM96.9199 28.4902L99.0381 36.1631L99.082 38H97.4736L94.2656 28.4902H96.9199ZM106.931 28.4902V38H104.391V28.4902H106.931ZM104.232 26.0117C104.232 25.6426 104.361 25.3379 104.619 25.0977C104.877 24.8574 105.223 24.7373 105.656 24.7373C106.084 24.7373 106.427 24.8574 106.685 25.0977C106.948 25.3379 107.08 25.6426 107.08 26.0117C107.08 26.3809 106.948 26.6855 106.685 26.9258C106.427 27.166 106.084 27.2861 105.656 27.2861C105.223 27.2861 104.877 27.166 104.619 26.9258C104.361 26.6855 104.232 26.3809 104.232 26.0117ZM111.501 30.5205V38H108.97V28.4902H111.343L111.501 30.5205ZM111.132 32.9111H110.446C110.446 32.208 110.537 31.5752 110.719 31.0127C110.9 30.4443 111.155 29.9609 111.483 29.5625C111.812 29.1582 112.201 28.8506 112.652 28.6396C113.109 28.4229 113.619 28.3145 114.182 28.3145C114.627 28.3145 115.034 28.3789 115.403 28.5078C115.772 28.6367 116.089 28.8418 116.353 29.123C116.622 29.4043 116.827 29.7764 116.968 30.2393C117.114 30.7021 117.188 31.2676 117.188 31.9355V38H114.639V31.9268C114.639 31.5049 114.58 31.1768 114.463 30.9424C114.346 30.708 114.173 30.5439 113.944 30.4502C113.722 30.3506 113.446 30.3008 113.118 30.3008C112.778 30.3008 112.482 30.3682 112.23 30.5029C111.984 30.6377 111.779 30.8252 111.615 31.0654C111.457 31.2998 111.337 31.5752 111.255 31.8916C111.173 32.208 111.132 32.5479 111.132 32.9111ZM125.133 28.4902H127.427V37.6836C127.427 38.5508 127.233 39.2861 126.847 39.8896C126.466 40.499 125.933 40.959 125.247 41.2695C124.562 41.5859 123.765 41.7441 122.856 41.7441C122.458 41.7441 122.036 41.6914 121.591 41.5859C121.151 41.4805 120.729 41.3164 120.325 41.0938C119.927 40.8711 119.593 40.5898 119.323 40.25L120.439 38.7559C120.732 39.0957 121.072 39.3594 121.459 39.5469C121.846 39.7402 122.273 39.8369 122.742 39.8369C123.199 39.8369 123.586 39.752 123.902 39.582C124.219 39.418 124.462 39.1748 124.632 38.8525C124.802 38.5361 124.887 38.1523 124.887 37.7012V30.6875L125.133 28.4902ZM118.734 33.3594V33.1748C118.734 32.4482 118.822 31.7891 118.998 31.1973C119.18 30.5996 119.435 30.0869 119.763 29.6592C120.097 29.2314 120.501 28.9004 120.976 28.666C121.45 28.4316 121.986 28.3145 122.584 28.3145C123.217 28.3145 123.747 28.4316 124.175 28.666C124.603 28.9004 124.954 29.2344 125.229 29.668C125.505 30.0957 125.719 30.6025 125.871 31.1885C126.029 31.7686 126.152 32.4043 126.24 33.0957V33.5C126.152 34.1621 126.021 34.7773 125.845 35.3457C125.669 35.9141 125.438 36.4121 125.15 36.8398C124.863 37.2617 124.506 37.5898 124.078 37.8242C123.656 38.0586 123.152 38.1758 122.566 38.1758C121.98 38.1758 121.45 38.0557 120.976 37.8154C120.507 37.5752 120.105 37.2383 119.771 36.8047C119.438 36.3711 119.18 35.8613 118.998 35.2754C118.822 34.6895 118.734 34.0508 118.734 33.3594ZM121.266 33.1748V33.3594C121.266 33.752 121.304 34.1182 121.38 34.458C121.456 34.7979 121.573 35.0996 121.731 35.3633C121.896 35.6211 122.098 35.8232 122.338 35.9697C122.584 36.1104 122.874 36.1807 123.208 36.1807C123.671 36.1807 124.049 36.084 124.342 35.8906C124.635 35.6914 124.854 35.4189 125.001 35.0732C125.147 34.7275 125.232 34.3291 125.256 33.8779V32.7266C125.244 32.3574 125.194 32.0264 125.106 31.7334C125.019 31.4346 124.896 31.1797 124.737 30.9688C124.579 30.7578 124.374 30.5938 124.122 30.4766C123.87 30.3594 123.571 30.3008 123.226 30.3008C122.892 30.3008 122.602 30.377 122.355 30.5293C122.115 30.6758 121.913 30.8779 121.749 31.1357C121.591 31.3936 121.471 31.6982 121.389 32.0498C121.307 32.3955 121.266 32.7705 121.266 33.1748Z" fill="white"/>
<rect x="32" y="59" width="131" height="34" rx="8" fill="#6A92C5"/>
<path d="M81.1895 78.4844C81.1895 78.252 81.153 78.0469 81.0801 77.8691C81.0117 77.6868 80.8887 77.5228 80.7109 77.377C80.5378 77.2311 80.2962 77.0921 79.9863 76.96C79.681 76.8278 79.2936 76.6934 78.8242 76.5566C78.332 76.4108 77.8877 76.249 77.4912 76.0713C77.0947 75.889 76.7552 75.6816 76.4727 75.4492C76.1901 75.2168 75.9736 74.9502 75.8232 74.6494C75.6729 74.3486 75.5977 74.0046 75.5977 73.6172C75.5977 73.2298 75.6774 72.8721 75.8369 72.5439C75.9964 72.2158 76.2243 71.931 76.5205 71.6895C76.8213 71.4434 77.179 71.252 77.5938 71.1152C78.0085 70.9785 78.471 70.9102 78.9814 70.9102C79.7288 70.9102 80.3623 71.0537 80.8818 71.3408C81.4059 71.6234 81.8047 71.9948 82.0781 72.4551C82.3516 72.9108 82.4883 73.3984 82.4883 73.918H81.1758C81.1758 73.5443 81.096 73.2139 80.9365 72.9268C80.777 72.6351 80.5355 72.4072 80.2119 72.2432C79.8883 72.0745 79.4782 71.9902 78.9814 71.9902C78.512 71.9902 78.1247 72.0609 77.8193 72.2021C77.514 72.3434 77.2861 72.5348 77.1357 72.7764C76.9899 73.0179 76.917 73.2936 76.917 73.6035C76.917 73.8132 76.9603 74.0046 77.0469 74.1777C77.138 74.3464 77.277 74.5036 77.4639 74.6494C77.6553 74.7952 77.8968 74.9297 78.1885 75.0527C78.4847 75.1758 78.8379 75.2943 79.248 75.4082C79.8132 75.5677 80.3008 75.7454 80.7109 75.9414C81.1211 76.1374 81.4583 76.3584 81.7227 76.6045C81.9915 76.846 82.1898 77.1217 82.3174 77.4316C82.4495 77.737 82.5156 78.0833 82.5156 78.4707C82.5156 78.8763 82.4336 79.2432 82.2695 79.5713C82.1055 79.8994 81.8708 80.1797 81.5654 80.4121C81.2601 80.6445 80.8932 80.8245 80.4648 80.9521C80.041 81.0752 79.5671 81.1367 79.043 81.1367C78.5827 81.1367 78.1292 81.0729 77.6826 80.9453C77.2406 80.8177 76.8372 80.6263 76.4727 80.3711C76.1126 80.1159 75.8232 79.8014 75.6045 79.4277C75.3903 79.0495 75.2832 78.612 75.2832 78.1152H76.5957C76.5957 78.457 76.6618 78.751 76.7939 78.9971C76.9261 79.2386 77.1061 79.4391 77.334 79.5986C77.5664 79.7581 77.8285 79.8766 78.1201 79.9541C78.4163 80.027 78.724 80.0635 79.043 80.0635C79.5033 80.0635 79.8929 79.9997 80.2119 79.8721C80.5309 79.7445 80.7725 79.5622 80.9365 79.3252C81.1051 79.0882 81.1895 78.8079 81.1895 78.4844ZM87.0752 81.1367C86.5602 81.1367 86.0931 81.0501 85.6738 80.877C85.2591 80.6992 84.9014 80.4508 84.6006 80.1318C84.3044 79.8128 84.0765 79.4346 83.917 78.9971C83.7575 78.5596 83.6777 78.0811 83.6777 77.5615V77.2744C83.6777 76.6729 83.7666 76.1374 83.9443 75.668C84.1221 75.194 84.3636 74.793 84.6689 74.4648C84.9743 74.1367 85.3206 73.8883 85.708 73.7197C86.0954 73.5511 86.4964 73.4668 86.9111 73.4668C87.4398 73.4668 87.8955 73.5579 88.2783 73.7402C88.6657 73.9225 88.9824 74.1777 89.2285 74.5059C89.4746 74.8294 89.6569 75.2122 89.7754 75.6543C89.8939 76.0918 89.9531 76.5703 89.9531 77.0898V77.6572H84.4297V76.625H88.6885V76.5293C88.6702 76.2012 88.6019 75.8822 88.4834 75.5723C88.3695 75.2624 88.1872 75.0072 87.9365 74.8066C87.6859 74.6061 87.3441 74.5059 86.9111 74.5059C86.624 74.5059 86.3597 74.5674 86.1182 74.6904C85.8766 74.8089 85.6693 74.9867 85.4961 75.2236C85.3229 75.4606 85.1885 75.75 85.0928 76.0918C84.9971 76.4336 84.9492 76.8278 84.9492 77.2744V77.5615C84.9492 77.9124 84.9971 78.2428 85.0928 78.5527C85.193 78.8581 85.3366 79.127 85.5234 79.3594C85.7148 79.5918 85.945 79.7741 86.2139 79.9062C86.4873 80.0384 86.7972 80.1045 87.1436 80.1045C87.5902 80.1045 87.9684 80.0133 88.2783 79.8311C88.5882 79.6488 88.8594 79.4049 89.0918 79.0996L89.8574 79.708C89.6979 79.9495 89.4951 80.1797 89.249 80.3984C89.0029 80.6172 88.6999 80.7949 88.3398 80.9316C87.9844 81.0684 87.5628 81.1367 87.0752 81.1367ZM92.6943 74.7656V81H91.4297V73.6035H92.6602L92.6943 74.7656ZM95.0049 73.5625L94.998 74.7383C94.8932 74.7155 94.793 74.7018 94.6973 74.6973C94.6061 74.6882 94.5013 74.6836 94.3828 74.6836C94.0911 74.6836 93.8337 74.7292 93.6104 74.8203C93.387 74.9115 93.1979 75.0391 93.043 75.2031C92.888 75.3672 92.765 75.5632 92.6738 75.791C92.5872 76.0143 92.5303 76.2604 92.5029 76.5293L92.1475 76.7344C92.1475 76.2878 92.1908 75.8685 92.2773 75.4766C92.3685 75.0846 92.5075 74.7383 92.6943 74.4375C92.8812 74.1322 93.1182 73.8952 93.4053 73.7266C93.6969 73.5534 94.0433 73.4668 94.4443 73.4668C94.5355 73.4668 94.6403 73.4782 94.7588 73.501C94.8773 73.5192 94.9593 73.5397 95.0049 73.5625ZM98.5459 79.8584L100.569 73.6035H101.861L99.2021 81H98.3545L98.5459 79.8584ZM96.8574 73.6035L98.9424 79.8926L99.0859 81H98.2383L95.5586 73.6035H96.8574ZM104.452 73.6035V81H103.181V73.6035H104.452ZM103.085 71.6416C103.085 71.4365 103.146 71.2633 103.27 71.1221C103.397 70.9808 103.584 70.9102 103.83 70.9102C104.072 70.9102 104.256 70.9808 104.384 71.1221C104.516 71.2633 104.582 71.4365 104.582 71.6416C104.582 71.8376 104.516 72.0062 104.384 72.1475C104.256 72.2842 104.072 72.3525 103.83 72.3525C103.584 72.3525 103.397 72.2842 103.27 72.1475C103.146 72.0062 103.085 71.8376 103.085 71.6416ZM109.442 80.0977C109.743 80.0977 110.021 80.0361 110.276 79.9131C110.532 79.79 110.741 79.6214 110.905 79.4072C111.069 79.1885 111.163 78.9401 111.186 78.6621H112.389C112.366 79.0996 112.218 79.5075 111.944 79.8857C111.675 80.2594 111.322 80.5625 110.885 80.7949C110.447 81.0228 109.966 81.1367 109.442 81.1367C108.886 81.1367 108.401 81.0387 107.986 80.8428C107.576 80.6468 107.234 80.3779 106.961 80.0361C106.692 79.6943 106.489 79.3024 106.353 78.8604C106.22 78.4137 106.154 77.9421 106.154 77.4453V77.1582C106.154 76.6615 106.22 76.1921 106.353 75.75C106.489 75.3034 106.692 74.9092 106.961 74.5674C107.234 74.2256 107.576 73.9567 107.986 73.7607C108.401 73.5648 108.886 73.4668 109.442 73.4668C110.021 73.4668 110.527 73.5853 110.96 73.8223C111.393 74.0547 111.732 74.3737 111.979 74.7793C112.229 75.1803 112.366 75.6361 112.389 76.1465H111.186C111.163 75.8411 111.076 75.5654 110.926 75.3193C110.78 75.0732 110.579 74.8773 110.324 74.7314C110.074 74.5811 109.78 74.5059 109.442 74.5059C109.055 74.5059 108.729 74.5833 108.465 74.7383C108.205 74.8887 107.998 75.0938 107.843 75.3535C107.692 75.6087 107.583 75.8936 107.515 76.208C107.451 76.5179 107.419 76.8346 107.419 77.1582V77.4453C107.419 77.7689 107.451 78.0879 107.515 78.4023C107.578 78.7168 107.686 79.0016 107.836 79.2568C107.991 79.512 108.198 79.7171 108.458 79.8721C108.722 80.0225 109.05 80.0977 109.442 80.0977ZM116.88 81.1367C116.365 81.1367 115.898 81.0501 115.479 80.877C115.064 80.6992 114.706 80.4508 114.405 80.1318C114.109 79.8128 113.881 79.4346 113.722 78.9971C113.562 78.5596 113.482 78.0811 113.482 77.5615V77.2744C113.482 76.6729 113.571 76.1374 113.749 75.668C113.927 75.194 114.168 74.793 114.474 74.4648C114.779 74.1367 115.125 73.8883 115.513 73.7197C115.9 73.5511 116.301 73.4668 116.716 73.4668C117.244 73.4668 117.7 73.5579 118.083 73.7402C118.47 73.9225 118.787 74.1777 119.033 74.5059C119.279 74.8294 119.462 75.2122 119.58 75.6543C119.699 76.0918 119.758 76.5703 119.758 77.0898V77.6572H114.234V76.625H118.493V76.5293C118.475 76.2012 118.407 75.8822 118.288 75.5723C118.174 75.2624 117.992 75.0072 117.741 74.8066C117.491 74.6061 117.149 74.5059 116.716 74.5059C116.429 74.5059 116.164 74.5674 115.923 74.6904C115.681 74.8089 115.474 74.9867 115.301 75.2236C115.128 75.4606 114.993 75.75 114.897 76.0918C114.802 76.4336 114.754 76.8278 114.754 77.2744V77.5615C114.754 77.9124 114.802 78.2428 114.897 78.5527C114.998 78.8581 115.141 79.127 115.328 79.3594C115.52 79.5918 115.75 79.7741 116.019 79.9062C116.292 80.0384 116.602 80.1045 116.948 80.1045C117.395 80.1045 117.773 80.0133 118.083 79.8311C118.393 79.6488 118.664 79.4049 118.896 79.0996L119.662 79.708C119.503 79.9495 119.3 80.1797 119.054 80.3984C118.808 80.6172 118.505 80.7949 118.145 80.9316C117.789 81.0684 117.368 81.1367 116.88 81.1367Z" fill="white"/>
<rect x="32" y="109" width="131" height="34" rx="8" fill="#6A92C5"/>
<path d="M72.4053 121.047H75.7002C76.4476 121.047 77.0788 121.161 77.5938 121.389C78.1133 121.617 78.5075 121.954 78.7764 122.4C79.0498 122.842 79.1865 123.387 79.1865 124.034C79.1865 124.49 79.0931 124.907 78.9062 125.285C78.724 125.659 78.4596 125.978 78.1133 126.242C77.7715 126.502 77.3613 126.696 76.8828 126.823L76.5137 126.967H73.417L73.4033 125.894H75.7412C76.2152 125.894 76.6094 125.812 76.9238 125.647C77.2383 125.479 77.4753 125.253 77.6348 124.971C77.7943 124.688 77.874 124.376 77.874 124.034C77.874 123.651 77.7988 123.316 77.6484 123.029C77.498 122.742 77.2611 122.521 76.9375 122.366C76.6185 122.207 76.2061 122.127 75.7002 122.127H73.7246V131H72.4053V121.047ZM78.2227 131L75.8027 126.488L77.1768 126.481L79.6309 130.918V131H78.2227ZM83.9102 131.137C83.3952 131.137 82.9281 131.05 82.5088 130.877C82.0941 130.699 81.7363 130.451 81.4355 130.132C81.1393 129.813 80.9115 129.435 80.752 128.997C80.5924 128.56 80.5127 128.081 80.5127 127.562V127.274C80.5127 126.673 80.6016 126.137 80.7793 125.668C80.957 125.194 81.1986 124.793 81.5039 124.465C81.8092 124.137 82.1556 123.888 82.543 123.72C82.9303 123.551 83.3314 123.467 83.7461 123.467C84.2747 123.467 84.7305 123.558 85.1133 123.74C85.5007 123.923 85.8174 124.178 86.0635 124.506C86.3096 124.829 86.4919 125.212 86.6104 125.654C86.7288 126.092 86.7881 126.57 86.7881 127.09V127.657H81.2646V126.625H85.5234V126.529C85.5052 126.201 85.4368 125.882 85.3184 125.572C85.2044 125.262 85.0221 125.007 84.7715 124.807C84.5208 124.606 84.179 124.506 83.7461 124.506C83.459 124.506 83.1947 124.567 82.9531 124.69C82.7116 124.809 82.5042 124.987 82.3311 125.224C82.1579 125.461 82.0234 125.75 81.9277 126.092C81.832 126.434 81.7842 126.828 81.7842 127.274V127.562C81.7842 127.912 81.832 128.243 81.9277 128.553C82.028 128.858 82.1715 129.127 82.3584 129.359C82.5498 129.592 82.7799 129.774 83.0488 129.906C83.3223 130.038 83.6322 130.104 83.9785 130.104C84.4251 130.104 84.8034 130.013 85.1133 129.831C85.4232 129.649 85.6943 129.405 85.9268 129.1L86.6924 129.708C86.5329 129.95 86.3301 130.18 86.084 130.398C85.8379 130.617 85.5348 130.795 85.1748 130.932C84.8193 131.068 84.3978 131.137 83.9102 131.137ZM90.418 129.858L92.4414 123.604H93.7334L91.0742 131H90.2266L90.418 129.858ZM88.7295 123.604L90.8145 129.893L90.958 131H90.1104L87.4307 123.604H88.7295ZM96.3242 123.604V131H95.0527V123.604H96.3242ZM94.957 121.642C94.957 121.437 95.0186 121.263 95.1416 121.122C95.2692 120.981 95.4561 120.91 95.7021 120.91C95.9437 120.91 96.1283 120.981 96.2559 121.122C96.388 121.263 96.4541 121.437 96.4541 121.642C96.4541 121.838 96.388 122.006 96.2559 122.147C96.1283 122.284 95.9437 122.353 95.7021 122.353C95.4561 122.353 95.2692 122.284 95.1416 122.147C95.0186 122.006 94.957 121.838 94.957 121.642ZM102.661 129.038C102.661 128.856 102.62 128.687 102.538 128.532C102.461 128.373 102.299 128.229 102.053 128.102C101.811 127.969 101.447 127.855 100.959 127.76C100.549 127.673 100.177 127.571 99.8447 127.452C99.5166 127.334 99.2363 127.19 99.0039 127.021C98.776 126.853 98.6006 126.655 98.4775 126.427C98.3545 126.199 98.293 125.932 98.293 125.627C98.293 125.335 98.3568 125.06 98.4844 124.8C98.6165 124.54 98.8011 124.31 99.0381 124.109C99.2796 123.909 99.569 123.752 99.9062 123.638C100.243 123.524 100.619 123.467 101.034 123.467C101.627 123.467 102.132 123.572 102.552 123.781C102.971 123.991 103.292 124.271 103.516 124.622C103.739 124.968 103.851 125.354 103.851 125.777H102.586C102.586 125.572 102.524 125.374 102.401 125.183C102.283 124.987 102.107 124.825 101.875 124.697C101.647 124.57 101.367 124.506 101.034 124.506C100.683 124.506 100.398 124.561 100.18 124.67C99.9655 124.775 99.8083 124.909 99.708 125.073C99.6123 125.237 99.5645 125.41 99.5645 125.593C99.5645 125.729 99.5872 125.853 99.6328 125.962C99.6829 126.067 99.7695 126.165 99.8926 126.256C100.016 126.342 100.189 126.424 100.412 126.502C100.635 126.579 100.92 126.657 101.267 126.734C101.873 126.871 102.372 127.035 102.764 127.227C103.156 127.418 103.447 127.653 103.639 127.931C103.83 128.209 103.926 128.546 103.926 128.942C103.926 129.266 103.857 129.562 103.721 129.831C103.589 130.1 103.395 130.332 103.14 130.528C102.889 130.72 102.588 130.87 102.237 130.979C101.891 131.084 101.501 131.137 101.068 131.137C100.417 131.137 99.8652 131.021 99.4141 130.788C98.9629 130.556 98.6211 130.255 98.3887 129.886C98.1562 129.517 98.04 129.127 98.04 128.717H99.3115C99.3298 129.063 99.43 129.339 99.6123 129.544C99.7946 129.744 100.018 129.888 100.282 129.975C100.547 130.057 100.809 130.098 101.068 130.098C101.415 130.098 101.704 130.052 101.937 129.961C102.174 129.87 102.354 129.744 102.477 129.585C102.6 129.425 102.661 129.243 102.661 129.038ZM106.961 123.604V131H105.689V123.604H106.961ZM105.594 121.642C105.594 121.437 105.655 121.263 105.778 121.122C105.906 120.981 106.093 120.91 106.339 120.91C106.58 120.91 106.765 120.981 106.893 121.122C107.025 121.263 107.091 121.437 107.091 121.642C107.091 121.838 107.025 122.006 106.893 122.147C106.765 122.284 106.58 122.353 106.339 122.353C106.093 122.353 105.906 122.284 105.778 122.147C105.655 122.006 105.594 121.838 105.594 121.642ZM108.656 127.384V127.227C108.656 126.693 108.734 126.199 108.889 125.743C109.044 125.283 109.267 124.884 109.559 124.547C109.85 124.205 110.203 123.941 110.618 123.754C111.033 123.562 111.498 123.467 112.013 123.467C112.532 123.467 112.999 123.562 113.414 123.754C113.833 123.941 114.189 124.205 114.48 124.547C114.777 124.884 115.002 125.283 115.157 125.743C115.312 126.199 115.39 126.693 115.39 127.227V127.384C115.39 127.917 115.312 128.411 115.157 128.867C115.002 129.323 114.777 129.722 114.48 130.063C114.189 130.401 113.836 130.665 113.421 130.856C113.011 131.043 112.546 131.137 112.026 131.137C111.507 131.137 111.04 131.043 110.625 130.856C110.21 130.665 109.855 130.401 109.559 130.063C109.267 129.722 109.044 129.323 108.889 128.867C108.734 128.411 108.656 127.917 108.656 127.384ZM109.921 127.227V127.384C109.921 127.753 109.964 128.102 110.051 128.43C110.137 128.753 110.267 129.04 110.44 129.291C110.618 129.542 110.839 129.74 111.104 129.886C111.368 130.027 111.675 130.098 112.026 130.098C112.373 130.098 112.676 130.027 112.936 129.886C113.2 129.74 113.419 129.542 113.592 129.291C113.765 129.04 113.895 128.753 113.981 128.43C114.073 128.102 114.118 127.753 114.118 127.384V127.227C114.118 126.862 114.073 126.518 113.981 126.194C113.895 125.866 113.763 125.577 113.585 125.326C113.412 125.071 113.193 124.87 112.929 124.725C112.669 124.579 112.364 124.506 112.013 124.506C111.666 124.506 111.361 124.579 111.097 124.725C110.837 124.87 110.618 125.071 110.44 125.326C110.267 125.577 110.137 125.866 110.051 126.194C109.964 126.518 109.921 126.862 109.921 127.227ZM118.24 125.183V131H116.976V123.604H118.172L118.24 125.183ZM117.939 127.021L117.413 127.001C117.418 126.495 117.493 126.028 117.639 125.6C117.785 125.167 117.99 124.791 118.254 124.472C118.518 124.153 118.833 123.907 119.197 123.733C119.566 123.556 119.974 123.467 120.421 123.467C120.785 123.467 121.114 123.517 121.405 123.617C121.697 123.713 121.945 123.868 122.15 124.082C122.36 124.296 122.52 124.574 122.629 124.916C122.738 125.253 122.793 125.666 122.793 126.153V131H121.521V126.14C121.521 125.752 121.465 125.442 121.351 125.21C121.237 124.973 121.07 124.802 120.852 124.697C120.633 124.588 120.364 124.533 120.045 124.533C119.73 124.533 119.443 124.599 119.184 124.731C118.928 124.864 118.707 125.046 118.521 125.278C118.338 125.511 118.195 125.777 118.09 126.078C117.99 126.374 117.939 126.689 117.939 127.021Z" fill="white"/>
<rect x="32" y="159" width="131" height="34" rx="8" fill="#6A92C5"/>
<path d="M80.4854 171.047H83.7803C84.5277 171.047 85.1589 171.161 85.6738 171.389C86.1934 171.617 86.5876 171.954 86.8564 172.4C87.1299 172.842 87.2666 173.387 87.2666 174.034C87.2666 174.49 87.1732 174.907 86.9863 175.285C86.804 175.659 86.5397 175.978 86.1934 176.242C85.8516 176.502 85.4414 176.696 84.9629 176.823L84.5938 176.967H81.4971L81.4834 175.894H83.8213C84.2952 175.894 84.6895 175.812 85.0039 175.647C85.3184 175.479 85.5553 175.253 85.7148 174.971C85.8743 174.688 85.9541 174.376 85.9541 174.034C85.9541 173.651 85.8789 173.316 85.7285 173.029C85.5781 172.742 85.3411 172.521 85.0176 172.366C84.6986 172.207 84.2861 172.127 83.7803 172.127H81.8047V181H80.4854V171.047ZM86.3027 181L83.8828 176.488L85.2568 176.481L87.7109 180.918V181H86.3027ZM88.5859 177.384V177.227C88.5859 176.693 88.6634 176.199 88.8184 175.743C88.9733 175.283 89.1966 174.884 89.4883 174.547C89.7799 174.205 90.1331 173.941 90.5479 173.754C90.9626 173.562 91.4274 173.467 91.9424 173.467C92.4619 173.467 92.929 173.562 93.3438 173.754C93.763 173.941 94.1185 174.205 94.4102 174.547C94.7064 174.884 94.932 175.283 95.0869 175.743C95.2419 176.199 95.3193 176.693 95.3193 177.227V177.384C95.3193 177.917 95.2419 178.411 95.0869 178.867C94.932 179.323 94.7064 179.722 94.4102 180.063C94.1185 180.401 93.7653 180.665 93.3506 180.856C92.9404 181.043 92.4756 181.137 91.9561 181.137C91.4365 181.137 90.9694 181.043 90.5547 180.856C90.14 180.665 89.7845 180.401 89.4883 180.063C89.1966 179.722 88.9733 179.323 88.8184 178.867C88.6634 178.411 88.5859 177.917 88.5859 177.384ZM89.8506 177.227V177.384C89.8506 177.753 89.8939 178.102 89.9805 178.43C90.0671 178.753 90.1969 179.04 90.3701 179.291C90.5479 179.542 90.7689 179.74 91.0332 179.886C91.2975 180.027 91.6051 180.098 91.9561 180.098C92.3024 180.098 92.6055 180.027 92.8652 179.886C93.1296 179.74 93.3483 179.542 93.5215 179.291C93.6947 179.04 93.8245 178.753 93.9111 178.43C94.0023 178.102 94.0479 177.753 94.0479 177.384V177.227C94.0479 176.862 94.0023 176.518 93.9111 176.194C93.8245 175.866 93.6924 175.577 93.5146 175.326C93.3415 175.071 93.1227 174.87 92.8584 174.725C92.5986 174.579 92.2933 174.506 91.9424 174.506C91.596 174.506 91.2907 174.579 91.0264 174.725C90.7666 174.87 90.5479 175.071 90.3701 175.326C90.1969 175.577 90.0671 175.866 89.9805 176.194C89.8939 176.518 89.8506 176.862 89.8506 177.227ZM101.431 179.291V173.604H102.702V181H101.492L101.431 179.291ZM101.67 177.732L102.196 177.719C102.196 178.211 102.144 178.667 102.039 179.086C101.939 179.501 101.775 179.861 101.547 180.166C101.319 180.471 101.021 180.711 100.651 180.884C100.282 181.052 99.8333 181.137 99.3047 181.137C98.9447 181.137 98.6143 181.084 98.3135 180.979C98.0173 180.875 97.762 180.713 97.5479 180.494C97.3337 180.275 97.1673 179.991 97.0488 179.64C96.9349 179.289 96.8779 178.867 96.8779 178.375V173.604H98.1426V178.389C98.1426 178.721 98.179 178.997 98.252 179.216C98.3294 179.43 98.432 179.601 98.5596 179.729C98.6917 179.852 98.8376 179.938 98.9971 179.988C99.1611 180.038 99.3298 180.063 99.5029 180.063C100.041 180.063 100.467 179.961 100.781 179.756C101.096 179.546 101.321 179.266 101.458 178.915C101.599 178.56 101.67 178.165 101.67 177.732ZM107.727 173.604V174.574H103.728V173.604H107.727ZM105.081 171.806H106.346V179.168C106.346 179.419 106.384 179.608 106.462 179.735C106.539 179.863 106.64 179.947 106.763 179.988C106.886 180.029 107.018 180.05 107.159 180.05C107.264 180.05 107.373 180.041 107.487 180.022C107.606 180 107.695 179.981 107.754 179.968L107.761 181C107.66 181.032 107.528 181.062 107.364 181.089C107.205 181.121 107.011 181.137 106.783 181.137C106.473 181.137 106.188 181.075 105.929 180.952C105.669 180.829 105.462 180.624 105.307 180.337C105.156 180.045 105.081 179.653 105.081 179.161V171.806ZM112.279 181.137C111.764 181.137 111.297 181.05 110.878 180.877C110.463 180.699 110.105 180.451 109.805 180.132C109.508 179.813 109.281 179.435 109.121 178.997C108.962 178.56 108.882 178.081 108.882 177.562V177.274C108.882 176.673 108.971 176.137 109.148 175.668C109.326 175.194 109.568 174.793 109.873 174.465C110.178 174.137 110.525 173.888 110.912 173.72C111.299 173.551 111.701 173.467 112.115 173.467C112.644 173.467 113.1 173.558 113.482 173.74C113.87 173.923 114.187 174.178 114.433 174.506C114.679 174.829 114.861 175.212 114.979 175.654C115.098 176.092 115.157 176.57 115.157 177.09V177.657H109.634V176.625H113.893V176.529C113.874 176.201 113.806 175.882 113.688 175.572C113.574 175.262 113.391 175.007 113.141 174.807C112.89 174.606 112.548 174.506 112.115 174.506C111.828 174.506 111.564 174.567 111.322 174.69C111.081 174.809 110.873 174.987 110.7 175.224C110.527 175.461 110.393 175.75 110.297 176.092C110.201 176.434 110.153 176.828 110.153 177.274V177.562C110.153 177.912 110.201 178.243 110.297 178.553C110.397 178.858 110.541 179.127 110.728 179.359C110.919 179.592 111.149 179.774 111.418 179.906C111.691 180.038 112.001 180.104 112.348 180.104C112.794 180.104 113.173 180.013 113.482 179.831C113.792 179.649 114.063 179.405 114.296 179.1L115.062 179.708C114.902 179.95 114.699 180.18 114.453 180.398C114.207 180.617 113.904 180.795 113.544 180.932C113.188 181.068 112.767 181.137 112.279 181.137Z" fill="white"/>
<rect x="217" y="259" width="167" height="221" rx="18" stroke="#5298AE" stroke-width="4"/>
<path d="M275.258 292.943V295H268.446V292.943H275.258ZM269.308 282.203V295H266.671V282.203H269.308ZM274.37 287.415V289.419H268.446V287.415H274.37ZM275.249 282.203V284.269H268.446V282.203H275.249ZM279.644 293.154L281.753 285.49H284.398L281.19 295H279.591L279.644 293.154ZM278.193 285.49L280.312 293.163L280.355 295H278.747L275.539 285.49H278.193ZM289.786 295.176C289.048 295.176 288.386 295.059 287.8 294.824C287.214 294.584 286.716 294.253 286.306 293.831C285.901 293.409 285.591 292.92 285.374 292.363C285.157 291.801 285.049 291.203 285.049 290.57V290.219C285.049 289.498 285.151 288.839 285.356 288.241C285.562 287.644 285.854 287.125 286.235 286.686C286.622 286.246 287.091 285.909 287.642 285.675C288.192 285.435 288.813 285.314 289.505 285.314C290.179 285.314 290.776 285.426 291.298 285.648C291.819 285.871 292.256 286.188 292.607 286.598C292.965 287.008 293.234 287.5 293.416 288.074C293.598 288.643 293.688 289.275 293.688 289.973V291.027H286.13V289.34H291.201V289.146C291.201 288.795 291.137 288.481 291.008 288.206C290.885 287.925 290.697 287.702 290.445 287.538C290.193 287.374 289.871 287.292 289.479 287.292C289.145 287.292 288.857 287.365 288.617 287.512C288.377 287.658 288.181 287.863 288.028 288.127C287.882 288.391 287.771 288.701 287.694 289.059C287.624 289.41 287.589 289.797 287.589 290.219V290.57C287.589 290.951 287.642 291.303 287.747 291.625C287.858 291.947 288.014 292.226 288.213 292.46C288.418 292.694 288.664 292.876 288.951 293.005C289.244 293.134 289.575 293.198 289.944 293.198C290.401 293.198 290.826 293.11 291.219 292.935C291.617 292.753 291.96 292.48 292.247 292.117L293.478 293.453C293.278 293.74 293.006 294.016 292.66 294.279C292.32 294.543 291.91 294.76 291.43 294.93C290.949 295.094 290.401 295.176 289.786 295.176ZM297.608 287.521V295H295.077V285.49H297.45L297.608 287.521ZM297.239 289.911H296.554C296.554 289.208 296.645 288.575 296.826 288.013C297.008 287.444 297.263 286.961 297.591 286.562C297.919 286.158 298.309 285.851 298.76 285.64C299.217 285.423 299.727 285.314 300.289 285.314C300.734 285.314 301.142 285.379 301.511 285.508C301.88 285.637 302.196 285.842 302.46 286.123C302.729 286.404 302.935 286.776 303.075 287.239C303.222 287.702 303.295 288.268 303.295 288.936V295H300.746V288.927C300.746 288.505 300.688 288.177 300.57 287.942C300.453 287.708 300.28 287.544 300.052 287.45C299.829 287.351 299.554 287.301 299.226 287.301C298.886 287.301 298.59 287.368 298.338 287.503C298.092 287.638 297.887 287.825 297.723 288.065C297.564 288.3 297.444 288.575 297.362 288.892C297.28 289.208 297.239 289.548 297.239 289.911ZM309.878 285.49V287.283H304.341V285.49H309.878ZM305.712 283.144H308.243V292.135C308.243 292.41 308.278 292.621 308.349 292.768C308.425 292.914 308.536 293.017 308.683 293.075C308.829 293.128 309.014 293.154 309.236 293.154C309.395 293.154 309.535 293.148 309.658 293.137C309.787 293.119 309.896 293.102 309.983 293.084L309.992 294.947C309.775 295.018 309.541 295.073 309.289 295.114C309.037 295.155 308.759 295.176 308.454 295.176C307.897 295.176 307.411 295.085 306.995 294.903C306.585 294.716 306.269 294.417 306.046 294.007C305.823 293.597 305.712 293.058 305.712 292.39V283.144ZM313.991 285.49V295H311.451V285.49H313.991ZM311.293 283.012C311.293 282.643 311.422 282.338 311.68 282.098C311.938 281.857 312.283 281.737 312.717 281.737C313.145 281.737 313.487 281.857 313.745 282.098C314.009 282.338 314.141 282.643 314.141 283.012C314.141 283.381 314.009 283.686 313.745 283.926C313.487 284.166 313.145 284.286 312.717 284.286C312.283 284.286 311.938 284.166 311.68 283.926C311.422 283.686 311.293 283.381 311.293 283.012ZM318.562 287.521V295H316.03V285.49H318.403L318.562 287.521ZM318.192 289.911H317.507C317.507 289.208 317.598 288.575 317.779 288.013C317.961 287.444 318.216 286.961 318.544 286.562C318.872 286.158 319.262 285.851 319.713 285.64C320.17 285.423 320.68 285.314 321.242 285.314C321.688 285.314 322.095 285.379 322.464 285.508C322.833 285.637 323.149 285.842 323.413 286.123C323.683 286.404 323.888 286.776 324.028 287.239C324.175 287.702 324.248 288.268 324.248 288.936V295H321.699V288.927C321.699 288.505 321.641 288.177 321.523 287.942C321.406 287.708 321.233 287.544 321.005 287.45C320.782 287.351 320.507 287.301 320.179 287.301C319.839 287.301 319.543 287.368 319.291 287.503C319.045 287.638 318.84 287.825 318.676 288.065C318.518 288.3 318.397 288.575 318.315 288.892C318.233 289.208 318.192 289.548 318.192 289.911ZM332.193 285.49H334.487V294.684C334.487 295.551 334.294 296.286 333.907 296.89C333.526 297.499 332.993 297.959 332.308 298.27C331.622 298.586 330.825 298.744 329.917 298.744C329.519 298.744 329.097 298.691 328.651 298.586C328.212 298.48 327.79 298.316 327.386 298.094C326.987 297.871 326.653 297.59 326.384 297.25L327.5 295.756C327.793 296.096 328.133 296.359 328.52 296.547C328.906 296.74 329.334 296.837 329.803 296.837C330.26 296.837 330.646 296.752 330.963 296.582C331.279 296.418 331.522 296.175 331.692 295.853C331.862 295.536 331.947 295.152 331.947 294.701V287.688L332.193 285.49ZM325.795 290.359V290.175C325.795 289.448 325.883 288.789 326.059 288.197C326.24 287.6 326.495 287.087 326.823 286.659C327.157 286.231 327.562 285.9 328.036 285.666C328.511 285.432 329.047 285.314 329.645 285.314C330.277 285.314 330.808 285.432 331.235 285.666C331.663 285.9 332.015 286.234 332.29 286.668C332.565 287.096 332.779 287.603 332.932 288.188C333.09 288.769 333.213 289.404 333.301 290.096V290.5C333.213 291.162 333.081 291.777 332.905 292.346C332.729 292.914 332.498 293.412 332.211 293.84C331.924 294.262 331.566 294.59 331.139 294.824C330.717 295.059 330.213 295.176 329.627 295.176C329.041 295.176 328.511 295.056 328.036 294.815C327.567 294.575 327.166 294.238 326.832 293.805C326.498 293.371 326.24 292.861 326.059 292.275C325.883 291.689 325.795 291.051 325.795 290.359ZM328.326 290.175V290.359C328.326 290.752 328.364 291.118 328.44 291.458C328.517 291.798 328.634 292.1 328.792 292.363C328.956 292.621 329.158 292.823 329.398 292.97C329.645 293.11 329.935 293.181 330.269 293.181C330.731 293.181 331.109 293.084 331.402 292.891C331.695 292.691 331.915 292.419 332.062 292.073C332.208 291.728 332.293 291.329 332.316 290.878V289.727C332.305 289.357 332.255 289.026 332.167 288.733C332.079 288.435 331.956 288.18 331.798 287.969C331.64 287.758 331.435 287.594 331.183 287.477C330.931 287.359 330.632 287.301 330.286 287.301C329.952 287.301 329.662 287.377 329.416 287.529C329.176 287.676 328.974 287.878 328.81 288.136C328.651 288.394 328.531 288.698 328.449 289.05C328.367 289.396 328.326 289.771 328.326 290.175Z" fill="white"/>
<rect x="235" y="320" width="131" height="34" rx="8" fill="#5298AE"/>
<path d="M281.653 339.484C281.653 339.252 281.617 339.047 281.544 338.869C281.476 338.687 281.353 338.523 281.175 338.377C281.002 338.231 280.76 338.092 280.45 337.96C280.145 337.828 279.757 337.693 279.288 337.557C278.796 337.411 278.352 337.249 277.955 337.071C277.559 336.889 277.219 336.682 276.937 336.449C276.654 336.217 276.438 335.95 276.287 335.649C276.137 335.349 276.062 335.005 276.062 334.617C276.062 334.23 276.141 333.872 276.301 333.544C276.46 333.216 276.688 332.931 276.984 332.689C277.285 332.443 277.643 332.252 278.058 332.115C278.472 331.979 278.935 331.91 279.445 331.91C280.193 331.91 280.826 332.054 281.346 332.341C281.87 332.623 282.269 332.995 282.542 333.455C282.815 333.911 282.952 334.398 282.952 334.918H281.64C281.64 334.544 281.56 334.214 281.4 333.927C281.241 333.635 280.999 333.407 280.676 333.243C280.352 333.075 279.942 332.99 279.445 332.99C278.976 332.99 278.589 333.061 278.283 333.202C277.978 333.343 277.75 333.535 277.6 333.776C277.454 334.018 277.381 334.294 277.381 334.604C277.381 334.813 277.424 335.005 277.511 335.178C277.602 335.346 277.741 335.504 277.928 335.649C278.119 335.795 278.361 335.93 278.652 336.053C278.949 336.176 279.302 336.294 279.712 336.408C280.277 336.568 280.765 336.745 281.175 336.941C281.585 337.137 281.922 337.358 282.187 337.604C282.455 337.846 282.654 338.122 282.781 338.432C282.913 338.737 282.979 339.083 282.979 339.471C282.979 339.876 282.897 340.243 282.733 340.571C282.569 340.899 282.335 341.18 282.029 341.412C281.724 341.645 281.357 341.825 280.929 341.952C280.505 342.075 280.031 342.137 279.507 342.137C279.047 342.137 278.593 342.073 278.146 341.945C277.704 341.818 277.301 341.626 276.937 341.371C276.576 341.116 276.287 340.801 276.068 340.428C275.854 340.049 275.747 339.612 275.747 339.115H277.06C277.06 339.457 277.126 339.751 277.258 339.997C277.39 340.239 277.57 340.439 277.798 340.599C278.03 340.758 278.292 340.877 278.584 340.954C278.88 341.027 279.188 341.063 279.507 341.063C279.967 341.063 280.357 341 280.676 340.872C280.995 340.744 281.236 340.562 281.4 340.325C281.569 340.088 281.653 339.808 281.653 339.484ZM284.135 338.384V338.227C284.135 337.693 284.212 337.199 284.367 336.743C284.522 336.283 284.745 335.884 285.037 335.547C285.329 335.205 285.682 334.941 286.097 334.754C286.511 334.562 286.976 334.467 287.491 334.467C288.011 334.467 288.478 334.562 288.893 334.754C289.312 334.941 289.667 335.205 289.959 335.547C290.255 335.884 290.481 336.283 290.636 336.743C290.791 337.199 290.868 337.693 290.868 338.227V338.384C290.868 338.917 290.791 339.411 290.636 339.867C290.481 340.323 290.255 340.722 289.959 341.063C289.667 341.401 289.314 341.665 288.899 341.856C288.489 342.043 288.024 342.137 287.505 342.137C286.985 342.137 286.518 342.043 286.104 341.856C285.689 341.665 285.333 341.401 285.037 341.063C284.745 340.722 284.522 340.323 284.367 339.867C284.212 339.411 284.135 338.917 284.135 338.384ZM285.399 338.227V338.384C285.399 338.753 285.443 339.102 285.529 339.43C285.616 339.753 285.746 340.04 285.919 340.291C286.097 340.542 286.318 340.74 286.582 340.886C286.846 341.027 287.154 341.098 287.505 341.098C287.851 341.098 288.154 341.027 288.414 340.886C288.678 340.74 288.897 340.542 289.07 340.291C289.243 340.04 289.373 339.753 289.46 339.43C289.551 339.102 289.597 338.753 289.597 338.384V338.227C289.597 337.862 289.551 337.518 289.46 337.194C289.373 336.866 289.241 336.577 289.063 336.326C288.89 336.071 288.672 335.87 288.407 335.725C288.147 335.579 287.842 335.506 287.491 335.506C287.145 335.506 286.84 335.579 286.575 335.725C286.315 335.87 286.097 336.071 285.919 336.326C285.746 336.577 285.616 336.866 285.529 337.194C285.443 337.518 285.399 337.862 285.399 338.227ZM296.979 340.291V334.604H298.251V342H297.041L296.979 340.291ZM297.219 338.732L297.745 338.719C297.745 339.211 297.693 339.667 297.588 340.086C297.488 340.501 297.324 340.861 297.096 341.166C296.868 341.471 296.569 341.711 296.2 341.884C295.831 342.052 295.382 342.137 294.854 342.137C294.493 342.137 294.163 342.084 293.862 341.979C293.566 341.875 293.311 341.713 293.097 341.494C292.882 341.275 292.716 340.991 292.598 340.64C292.484 340.289 292.427 339.867 292.427 339.375V334.604H293.691V339.389C293.691 339.721 293.728 339.997 293.801 340.216C293.878 340.43 293.981 340.601 294.108 340.729C294.241 340.852 294.386 340.938 294.546 340.988C294.71 341.038 294.879 341.063 295.052 341.063C295.59 341.063 296.016 340.961 296.33 340.756C296.645 340.546 296.87 340.266 297.007 339.915C297.148 339.56 297.219 339.165 297.219 338.732ZM301.443 335.766V342H300.179V334.604H301.409L301.443 335.766ZM303.754 334.562L303.747 335.738C303.642 335.715 303.542 335.702 303.446 335.697C303.355 335.688 303.25 335.684 303.132 335.684C302.84 335.684 302.583 335.729 302.359 335.82C302.136 335.911 301.947 336.039 301.792 336.203C301.637 336.367 301.514 336.563 301.423 336.791C301.336 337.014 301.279 337.26 301.252 337.529L300.896 337.734C300.896 337.288 300.94 336.868 301.026 336.477C301.118 336.085 301.257 335.738 301.443 335.438C301.63 335.132 301.867 334.895 302.154 334.727C302.446 334.553 302.792 334.467 303.193 334.467C303.285 334.467 303.389 334.478 303.508 334.501C303.626 334.519 303.708 334.54 303.754 334.562ZM307.746 341.098C308.047 341.098 308.325 341.036 308.58 340.913C308.835 340.79 309.045 340.621 309.209 340.407C309.373 340.188 309.466 339.94 309.489 339.662H310.692C310.67 340.1 310.521 340.507 310.248 340.886C309.979 341.259 309.626 341.562 309.188 341.795C308.751 342.023 308.27 342.137 307.746 342.137C307.19 342.137 306.705 342.039 306.29 341.843C305.88 341.647 305.538 341.378 305.265 341.036C304.996 340.694 304.793 340.302 304.656 339.86C304.524 339.414 304.458 338.942 304.458 338.445V338.158C304.458 337.661 304.524 337.192 304.656 336.75C304.793 336.303 304.996 335.909 305.265 335.567C305.538 335.226 305.88 334.957 306.29 334.761C306.705 334.565 307.19 334.467 307.746 334.467C308.325 334.467 308.831 334.585 309.264 334.822C309.697 335.055 310.036 335.374 310.282 335.779C310.533 336.18 310.67 336.636 310.692 337.146H309.489C309.466 336.841 309.38 336.565 309.229 336.319C309.084 336.073 308.883 335.877 308.628 335.731C308.377 335.581 308.083 335.506 307.746 335.506C307.359 335.506 307.033 335.583 306.769 335.738C306.509 335.889 306.301 336.094 306.146 336.354C305.996 336.609 305.887 336.894 305.818 337.208C305.755 337.518 305.723 337.835 305.723 338.158V338.445C305.723 338.769 305.755 339.088 305.818 339.402C305.882 339.717 305.989 340.002 306.14 340.257C306.295 340.512 306.502 340.717 306.762 340.872C307.026 341.022 307.354 341.098 307.746 341.098ZM315.184 342.137C314.669 342.137 314.201 342.05 313.782 341.877C313.368 341.699 313.01 341.451 312.709 341.132C312.413 340.813 312.185 340.435 312.025 339.997C311.866 339.56 311.786 339.081 311.786 338.562V338.274C311.786 337.673 311.875 337.137 312.053 336.668C312.23 336.194 312.472 335.793 312.777 335.465C313.083 335.137 313.429 334.888 313.816 334.72C314.204 334.551 314.605 334.467 315.02 334.467C315.548 334.467 316.004 334.558 316.387 334.74C316.774 334.923 317.091 335.178 317.337 335.506C317.583 335.829 317.765 336.212 317.884 336.654C318.002 337.092 318.062 337.57 318.062 338.09V338.657H312.538V337.625H316.797V337.529C316.779 337.201 316.71 336.882 316.592 336.572C316.478 336.262 316.296 336.007 316.045 335.807C315.794 335.606 315.452 335.506 315.02 335.506C314.732 335.506 314.468 335.567 314.227 335.69C313.985 335.809 313.778 335.987 313.604 336.224C313.431 336.461 313.297 336.75 313.201 337.092C313.105 337.434 313.058 337.828 313.058 338.274V338.562C313.058 338.912 313.105 339.243 313.201 339.553C313.301 339.858 313.445 340.127 313.632 340.359C313.823 340.592 314.053 340.774 314.322 340.906C314.596 341.038 314.906 341.104 315.252 341.104C315.699 341.104 316.077 341.013 316.387 340.831C316.697 340.649 316.968 340.405 317.2 340.1L317.966 340.708C317.806 340.95 317.604 341.18 317.357 341.398C317.111 341.617 316.808 341.795 316.448 341.932C316.093 342.068 315.671 342.137 315.184 342.137ZM323.845 340.038C323.845 339.856 323.804 339.687 323.722 339.532C323.644 339.373 323.482 339.229 323.236 339.102C322.995 338.969 322.63 338.855 322.143 338.76C321.732 338.673 321.361 338.571 321.028 338.452C320.7 338.334 320.42 338.19 320.188 338.021C319.96 337.853 319.784 337.655 319.661 337.427C319.538 337.199 319.477 336.932 319.477 336.627C319.477 336.335 319.54 336.06 319.668 335.8C319.8 335.54 319.985 335.31 320.222 335.109C320.463 334.909 320.753 334.752 321.09 334.638C321.427 334.524 321.803 334.467 322.218 334.467C322.81 334.467 323.316 334.572 323.735 334.781C324.155 334.991 324.476 335.271 324.699 335.622C324.923 335.968 325.034 336.354 325.034 336.777H323.77C323.77 336.572 323.708 336.374 323.585 336.183C323.466 335.987 323.291 335.825 323.059 335.697C322.831 335.57 322.55 335.506 322.218 335.506C321.867 335.506 321.582 335.561 321.363 335.67C321.149 335.775 320.992 335.909 320.892 336.073C320.796 336.237 320.748 336.41 320.748 336.593C320.748 336.729 320.771 336.853 320.816 336.962C320.867 337.067 320.953 337.165 321.076 337.256C321.199 337.342 321.372 337.424 321.596 337.502C321.819 337.579 322.104 337.657 322.45 337.734C323.056 337.871 323.555 338.035 323.947 338.227C324.339 338.418 324.631 338.653 324.822 338.931C325.014 339.209 325.109 339.546 325.109 339.942C325.109 340.266 325.041 340.562 324.904 340.831C324.772 341.1 324.578 341.332 324.323 341.528C324.073 341.72 323.772 341.87 323.421 341.979C323.075 342.084 322.685 342.137 322.252 342.137C321.6 342.137 321.049 342.021 320.598 341.788C320.146 341.556 319.805 341.255 319.572 340.886C319.34 340.517 319.224 340.127 319.224 339.717H320.495C320.513 340.063 320.614 340.339 320.796 340.544C320.978 340.744 321.201 340.888 321.466 340.975C321.73 341.057 321.992 341.098 322.252 341.098C322.598 341.098 322.888 341.052 323.12 340.961C323.357 340.87 323.537 340.744 323.66 340.585C323.783 340.425 323.845 340.243 323.845 340.038Z" fill="white"/>
<rect x="235" y="374" width="131" height="34" rx="8" fill="#5298AE"/>
<path d="M281.366 391.345H278.844L278.83 390.285H281.12C281.498 390.285 281.829 390.221 282.111 390.094C282.394 389.966 282.613 389.784 282.768 389.547C282.927 389.305 283.007 389.018 283.007 388.686C283.007 388.321 282.936 388.025 282.795 387.797C282.658 387.564 282.446 387.396 282.159 387.291C281.877 387.182 281.517 387.127 281.079 387.127H279.138V396H277.818V386.047H281.079C281.59 386.047 282.045 386.099 282.446 386.204C282.847 386.304 283.187 386.464 283.465 386.683C283.747 386.897 283.962 387.17 284.107 387.503C284.253 387.836 284.326 388.234 284.326 388.699C284.326 389.109 284.221 389.481 284.012 389.813C283.802 390.142 283.51 390.41 283.137 390.62C282.768 390.83 282.335 390.964 281.838 391.023L281.366 391.345ZM281.305 396H278.324L279.069 394.927H281.305C281.724 394.927 282.079 394.854 282.371 394.708C282.667 394.562 282.893 394.357 283.048 394.093C283.203 393.824 283.28 393.507 283.28 393.143C283.28 392.773 283.214 392.454 283.082 392.186C282.95 391.917 282.743 391.709 282.46 391.563C282.177 391.418 281.813 391.345 281.366 391.345H279.486L279.5 390.285H282.07L282.351 390.668C282.829 390.709 283.235 390.846 283.567 391.078C283.9 391.306 284.153 391.598 284.326 391.953C284.504 392.309 284.593 392.701 284.593 393.129C284.593 393.749 284.456 394.273 284.183 394.701C283.914 395.125 283.533 395.449 283.041 395.672C282.549 395.891 281.97 396 281.305 396ZM287.614 389.766V396H286.35V388.604H287.58L287.614 389.766ZM289.925 388.562L289.918 389.738C289.813 389.715 289.713 389.702 289.617 389.697C289.526 389.688 289.421 389.684 289.303 389.684C289.011 389.684 288.754 389.729 288.53 389.82C288.307 389.911 288.118 390.039 287.963 390.203C287.808 390.367 287.685 390.563 287.594 390.791C287.507 391.014 287.45 391.26 287.423 391.529L287.067 391.734C287.067 391.288 287.111 390.868 287.197 390.477C287.288 390.085 287.427 389.738 287.614 389.438C287.801 389.132 288.038 388.895 288.325 388.727C288.617 388.553 288.963 388.467 289.364 388.467C289.455 388.467 289.56 388.478 289.679 388.501C289.797 388.519 289.879 388.54 289.925 388.562ZM290.622 392.384V392.227C290.622 391.693 290.7 391.199 290.854 390.743C291.009 390.283 291.233 389.884 291.524 389.547C291.816 389.205 292.169 388.941 292.584 388.754C292.999 388.562 293.464 388.467 293.979 388.467C294.498 388.467 294.965 388.562 295.38 388.754C295.799 388.941 296.155 389.205 296.446 389.547C296.743 389.884 296.968 390.283 297.123 390.743C297.278 391.199 297.355 391.693 297.355 392.227V392.384C297.355 392.917 297.278 393.411 297.123 393.867C296.968 394.323 296.743 394.722 296.446 395.063C296.155 395.401 295.801 395.665 295.387 395.856C294.977 396.043 294.512 396.137 293.992 396.137C293.473 396.137 293.006 396.043 292.591 395.856C292.176 395.665 291.821 395.401 291.524 395.063C291.233 394.722 291.009 394.323 290.854 393.867C290.7 393.411 290.622 392.917 290.622 392.384ZM291.887 392.227V392.384C291.887 392.753 291.93 393.102 292.017 393.43C292.103 393.753 292.233 394.04 292.406 394.291C292.584 394.542 292.805 394.74 293.069 394.886C293.334 395.027 293.641 395.098 293.992 395.098C294.339 395.098 294.642 395.027 294.901 394.886C295.166 394.74 295.384 394.542 295.558 394.291C295.731 394.04 295.861 393.753 295.947 393.43C296.038 393.102 296.084 392.753 296.084 392.384V392.227C296.084 391.862 296.038 391.518 295.947 391.194C295.861 390.866 295.729 390.577 295.551 390.326C295.378 390.071 295.159 389.87 294.895 389.725C294.635 389.579 294.329 389.506 293.979 389.506C293.632 389.506 293.327 389.579 293.062 389.725C292.803 389.87 292.584 390.071 292.406 390.326C292.233 390.577 292.103 390.866 292.017 391.194C291.93 391.518 291.887 391.862 291.887 392.227ZM300.213 385.5V396H298.941V385.5H300.213ZM304.731 388.604L301.505 392.056L299.7 393.929L299.598 392.582L300.89 391.037L303.187 388.604H304.731ZM303.576 396L300.938 392.473L301.594 391.345L305.066 396H303.576ZM308.97 396.137C308.455 396.137 307.988 396.05 307.568 395.877C307.154 395.699 306.796 395.451 306.495 395.132C306.199 394.813 305.971 394.435 305.812 393.997C305.652 393.56 305.572 393.081 305.572 392.562V392.274C305.572 391.673 305.661 391.137 305.839 390.668C306.017 390.194 306.258 389.793 306.563 389.465C306.869 389.137 307.215 388.888 307.603 388.72C307.99 388.551 308.391 388.467 308.806 388.467C309.334 388.467 309.79 388.558 310.173 388.74C310.56 388.923 310.877 389.178 311.123 389.506C311.369 389.829 311.551 390.212 311.67 390.654C311.788 391.092 311.848 391.57 311.848 392.09V392.657H306.324V391.625H310.583V391.529C310.565 391.201 310.496 390.882 310.378 390.572C310.264 390.262 310.082 390.007 309.831 389.807C309.58 389.606 309.239 389.506 308.806 389.506C308.519 389.506 308.254 389.567 308.013 389.69C307.771 389.809 307.564 389.987 307.391 390.224C307.217 390.461 307.083 390.75 306.987 391.092C306.892 391.434 306.844 391.828 306.844 392.274V392.562C306.844 392.912 306.892 393.243 306.987 393.553C307.088 393.858 307.231 394.127 307.418 394.359C307.609 394.592 307.84 394.774 308.108 394.906C308.382 395.038 308.692 395.104 309.038 395.104C309.485 395.104 309.863 395.013 310.173 394.831C310.483 394.649 310.754 394.405 310.986 394.1L311.752 394.708C311.592 394.95 311.39 395.18 311.144 395.398C310.897 395.617 310.594 395.795 310.234 395.932C309.879 396.068 309.457 396.137 308.97 396.137ZM314.589 389.766V396H313.324V388.604H314.555L314.589 389.766ZM316.899 388.562L316.893 389.738C316.788 389.715 316.688 389.702 316.592 389.697C316.501 389.688 316.396 389.684 316.277 389.684C315.986 389.684 315.728 389.729 315.505 389.82C315.282 389.911 315.092 390.039 314.938 390.203C314.783 390.367 314.66 390.563 314.568 390.791C314.482 391.014 314.425 391.26 314.397 391.529L314.042 391.734C314.042 391.288 314.085 390.868 314.172 390.477C314.263 390.085 314.402 389.738 314.589 389.438C314.776 389.132 315.013 388.895 315.3 388.727C315.591 388.553 315.938 388.467 316.339 388.467C316.43 388.467 316.535 388.478 316.653 388.501C316.772 388.519 316.854 388.54 316.899 388.562ZM322.375 394.038C322.375 393.856 322.334 393.687 322.252 393.532C322.174 393.373 322.013 393.229 321.767 393.102C321.525 392.969 321.16 392.855 320.673 392.76C320.263 392.673 319.891 392.571 319.559 392.452C319.23 392.334 318.95 392.19 318.718 392.021C318.49 391.853 318.314 391.655 318.191 391.427C318.068 391.199 318.007 390.932 318.007 390.627C318.007 390.335 318.071 390.06 318.198 389.8C318.33 389.54 318.515 389.31 318.752 389.109C318.993 388.909 319.283 388.752 319.62 388.638C319.957 388.524 320.333 388.467 320.748 388.467C321.34 388.467 321.846 388.572 322.266 388.781C322.685 388.991 323.006 389.271 323.229 389.622C323.453 389.968 323.564 390.354 323.564 390.777H322.3C322.3 390.572 322.238 390.374 322.115 390.183C321.997 389.987 321.821 389.825 321.589 389.697C321.361 389.57 321.081 389.506 320.748 389.506C320.397 389.506 320.112 389.561 319.894 389.67C319.679 389.775 319.522 389.909 319.422 390.073C319.326 390.237 319.278 390.41 319.278 390.593C319.278 390.729 319.301 390.853 319.347 390.962C319.397 391.067 319.483 391.165 319.606 391.256C319.729 391.342 319.903 391.424 320.126 391.502C320.349 391.579 320.634 391.657 320.98 391.734C321.587 391.871 322.086 392.035 322.478 392.227C322.869 392.418 323.161 392.653 323.353 392.931C323.544 393.209 323.64 393.546 323.64 393.942C323.64 394.266 323.571 394.562 323.435 394.831C323.302 395.1 323.109 395.332 322.854 395.528C322.603 395.72 322.302 395.87 321.951 395.979C321.605 396.084 321.215 396.137 320.782 396.137C320.131 396.137 319.579 396.021 319.128 395.788C318.677 395.556 318.335 395.255 318.103 394.886C317.87 394.517 317.754 394.127 317.754 393.717H319.025C319.044 394.063 319.144 394.339 319.326 394.544C319.508 394.744 319.732 394.888 319.996 394.975C320.26 395.057 320.522 395.098 320.782 395.098C321.129 395.098 321.418 395.052 321.65 394.961C321.887 394.87 322.067 394.744 322.19 394.585C322.313 394.425 322.375 394.243 322.375 394.038Z" fill="white"/>
<rect x="235" y="428" width="131" height="34" rx="8" fill="#5298AE"/>
<path d="M279.78 440.047V450H278.481V440.047H279.78ZM282.979 440.047V441.127H275.289V440.047H282.979ZM285.01 443.766V450H283.745V442.604H284.976L285.01 443.766ZM287.32 442.562L287.313 443.738C287.209 443.715 287.108 443.702 287.013 443.697C286.922 443.688 286.817 443.684 286.698 443.684C286.407 443.684 286.149 443.729 285.926 443.82C285.702 443.911 285.513 444.039 285.358 444.203C285.203 444.367 285.08 444.563 284.989 444.791C284.903 445.014 284.846 445.26 284.818 445.529L284.463 445.734C284.463 445.288 284.506 444.868 284.593 444.477C284.684 444.085 284.823 443.738 285.01 443.438C285.197 443.132 285.434 442.895 285.721 442.727C286.012 442.553 286.359 442.467 286.76 442.467C286.851 442.467 286.956 442.478 287.074 442.501C287.193 442.519 287.275 442.54 287.32 442.562ZM289.863 442.604V450H288.592V442.604H289.863ZM288.496 440.642C288.496 440.437 288.558 440.263 288.681 440.122C288.808 439.981 288.995 439.91 289.241 439.91C289.483 439.91 289.667 439.981 289.795 440.122C289.927 440.263 289.993 440.437 289.993 440.642C289.993 440.838 289.927 441.006 289.795 441.147C289.667 441.284 289.483 441.353 289.241 441.353C288.995 441.353 288.808 441.284 288.681 441.147C288.558 441.006 288.496 440.838 288.496 440.642ZM296.686 442.604H297.834V449.843C297.834 450.494 297.702 451.05 297.438 451.511C297.173 451.971 296.804 452.32 296.33 452.557C295.861 452.798 295.318 452.919 294.703 452.919C294.448 452.919 294.147 452.878 293.801 452.796C293.459 452.718 293.122 452.584 292.789 452.393C292.461 452.206 292.185 451.953 291.962 451.634L292.625 450.882C292.935 451.256 293.258 451.515 293.596 451.661C293.938 451.807 294.275 451.88 294.607 451.88C295.008 451.88 295.355 451.805 295.646 451.654C295.938 451.504 296.164 451.281 296.323 450.984C296.487 450.693 296.569 450.333 296.569 449.904V444.23L296.686 442.604ZM291.593 446.384V446.24C291.593 445.675 291.659 445.162 291.791 444.702C291.928 444.237 292.121 443.839 292.372 443.506C292.627 443.173 292.935 442.918 293.295 442.74C293.655 442.558 294.061 442.467 294.512 442.467C294.977 442.467 295.382 442.549 295.729 442.713C296.079 442.872 296.376 443.107 296.617 443.417C296.863 443.722 297.057 444.091 297.198 444.524C297.34 444.957 297.438 445.447 297.492 445.994V446.623C297.442 447.165 297.344 447.653 297.198 448.086C297.057 448.519 296.863 448.888 296.617 449.193C296.376 449.499 296.079 449.733 295.729 449.897C295.378 450.057 294.967 450.137 294.498 450.137C294.056 450.137 293.655 450.043 293.295 449.856C292.939 449.67 292.634 449.408 292.379 449.07C292.124 448.733 291.928 448.337 291.791 447.881C291.659 447.421 291.593 446.922 291.593 446.384ZM292.857 446.24V446.384C292.857 446.753 292.894 447.099 292.967 447.423C293.044 447.746 293.16 448.031 293.315 448.277C293.475 448.523 293.678 448.717 293.924 448.858C294.17 448.995 294.464 449.063 294.806 449.063C295.225 449.063 295.571 448.975 295.845 448.797C296.118 448.619 296.335 448.384 296.494 448.093C296.658 447.801 296.786 447.484 296.877 447.143V445.495C296.827 445.244 296.749 445.003 296.645 444.771C296.544 444.534 296.412 444.324 296.248 444.142C296.089 443.955 295.89 443.807 295.653 443.697C295.416 443.588 295.138 443.533 294.819 443.533C294.473 443.533 294.174 443.606 293.924 443.752C293.678 443.893 293.475 444.089 293.315 444.34C293.16 444.586 293.044 444.873 292.967 445.201C292.894 445.525 292.857 445.871 292.857 446.24ZM304.547 442.604H305.695V449.843C305.695 450.494 305.563 451.05 305.299 451.511C305.035 451.971 304.665 452.32 304.191 452.557C303.722 452.798 303.18 452.919 302.564 452.919C302.309 452.919 302.008 452.878 301.662 452.796C301.32 452.718 300.983 452.584 300.65 452.393C300.322 452.206 300.047 451.953 299.823 451.634L300.486 450.882C300.796 451.256 301.12 451.515 301.457 451.661C301.799 451.807 302.136 451.88 302.469 451.88C302.87 451.88 303.216 451.805 303.508 451.654C303.799 451.504 304.025 451.281 304.185 450.984C304.349 450.693 304.431 450.333 304.431 449.904V444.23L304.547 442.604ZM299.454 446.384V446.24C299.454 445.675 299.52 445.162 299.652 444.702C299.789 444.237 299.983 443.839 300.233 443.506C300.489 443.173 300.796 442.918 301.156 442.74C301.516 442.558 301.922 442.467 302.373 442.467C302.838 442.467 303.243 442.549 303.59 442.713C303.941 442.872 304.237 443.107 304.479 443.417C304.725 443.722 304.918 444.091 305.06 444.524C305.201 444.957 305.299 445.447 305.354 445.994V446.623C305.303 447.165 305.205 447.653 305.06 448.086C304.918 448.519 304.725 448.888 304.479 449.193C304.237 449.499 303.941 449.733 303.59 449.897C303.239 450.057 302.829 450.137 302.359 450.137C301.917 450.137 301.516 450.043 301.156 449.856C300.801 449.67 300.495 449.408 300.24 449.07C299.985 448.733 299.789 448.337 299.652 447.881C299.52 447.421 299.454 446.922 299.454 446.384ZM300.719 446.24V446.384C300.719 446.753 300.755 447.099 300.828 447.423C300.906 447.746 301.022 448.031 301.177 448.277C301.336 448.523 301.539 448.717 301.785 448.858C302.031 448.995 302.325 449.063 302.667 449.063C303.086 449.063 303.433 448.975 303.706 448.797C303.979 448.619 304.196 448.384 304.355 448.093C304.52 447.801 304.647 447.484 304.738 447.143V445.495C304.688 445.244 304.611 445.003 304.506 444.771C304.406 444.534 304.273 444.324 304.109 444.142C303.95 443.955 303.752 443.807 303.515 443.697C303.278 443.588 303 443.533 302.681 443.533C302.334 443.533 302.036 443.606 301.785 443.752C301.539 443.893 301.336 444.089 301.177 444.34C301.022 444.586 300.906 444.873 300.828 445.201C300.755 445.525 300.719 445.871 300.719 446.24ZM310.686 450.137C310.171 450.137 309.703 450.05 309.284 449.877C308.869 449.699 308.512 449.451 308.211 449.132C307.915 448.813 307.687 448.435 307.527 447.997C307.368 447.56 307.288 447.081 307.288 446.562V446.274C307.288 445.673 307.377 445.137 307.555 444.668C307.732 444.194 307.974 443.793 308.279 443.465C308.585 443.137 308.931 442.888 309.318 442.72C309.706 442.551 310.107 442.467 310.521 442.467C311.05 442.467 311.506 442.558 311.889 442.74C312.276 442.923 312.593 443.178 312.839 443.506C313.085 443.829 313.267 444.212 313.386 444.654C313.504 445.092 313.563 445.57 313.563 446.09V446.657H308.04V445.625H312.299V445.529C312.281 445.201 312.212 444.882 312.094 444.572C311.98 444.262 311.798 444.007 311.547 443.807C311.296 443.606 310.954 443.506 310.521 443.506C310.234 443.506 309.97 443.567 309.729 443.69C309.487 443.809 309.28 443.987 309.106 444.224C308.933 444.461 308.799 444.75 308.703 445.092C308.607 445.434 308.56 445.828 308.56 446.274V446.562C308.56 446.912 308.607 447.243 308.703 447.553C308.803 447.858 308.947 448.127 309.134 448.359C309.325 448.592 309.555 448.774 309.824 448.906C310.098 449.038 310.408 449.104 310.754 449.104C311.201 449.104 311.579 449.013 311.889 448.831C312.199 448.649 312.47 448.405 312.702 448.1L313.468 448.708C313.308 448.95 313.105 449.18 312.859 449.398C312.613 449.617 312.31 449.795 311.95 449.932C311.595 450.068 311.173 450.137 310.686 450.137ZM316.305 443.766V450H315.04V442.604H316.271L316.305 443.766ZM318.615 442.562L318.608 443.738C318.504 443.715 318.403 443.702 318.308 443.697C318.216 443.688 318.112 443.684 317.993 443.684C317.701 443.684 317.444 443.729 317.221 443.82C316.997 443.911 316.808 444.039 316.653 444.203C316.498 444.367 316.375 444.563 316.284 444.791C316.198 445.014 316.141 445.26 316.113 445.529L315.758 445.734C315.758 445.288 315.801 444.868 315.888 444.477C315.979 444.085 316.118 443.738 316.305 443.438C316.492 443.132 316.729 442.895 317.016 442.727C317.307 442.553 317.654 442.467 318.055 442.467C318.146 442.467 318.251 442.478 318.369 442.501C318.488 442.519 318.57 442.54 318.615 442.562ZM324.091 448.038C324.091 447.856 324.05 447.687 323.968 447.532C323.89 447.373 323.729 447.229 323.482 447.102C323.241 446.969 322.876 446.855 322.389 446.76C321.979 446.673 321.607 446.571 321.274 446.452C320.946 446.334 320.666 446.19 320.434 446.021C320.206 445.853 320.03 445.655 319.907 445.427C319.784 445.199 319.723 444.932 319.723 444.627C319.723 444.335 319.786 444.06 319.914 443.8C320.046 443.54 320.231 443.31 320.468 443.109C320.709 442.909 320.999 442.752 321.336 442.638C321.673 442.524 322.049 442.467 322.464 442.467C323.056 442.467 323.562 442.572 323.981 442.781C324.401 442.991 324.722 443.271 324.945 443.622C325.169 443.968 325.28 444.354 325.28 444.777H324.016C324.016 444.572 323.954 444.374 323.831 444.183C323.713 443.987 323.537 443.825 323.305 443.697C323.077 443.57 322.797 443.506 322.464 443.506C322.113 443.506 321.828 443.561 321.609 443.67C321.395 443.775 321.238 443.909 321.138 444.073C321.042 444.237 320.994 444.41 320.994 444.593C320.994 444.729 321.017 444.853 321.062 444.962C321.113 445.067 321.199 445.165 321.322 445.256C321.445 445.342 321.618 445.424 321.842 445.502C322.065 445.579 322.35 445.657 322.696 445.734C323.302 445.871 323.801 446.035 324.193 446.227C324.585 446.418 324.877 446.653 325.068 446.931C325.26 447.209 325.355 447.546 325.355 447.942C325.355 448.266 325.287 448.562 325.15 448.831C325.018 449.1 324.825 449.332 324.569 449.528C324.319 449.72 324.018 449.87 323.667 449.979C323.321 450.084 322.931 450.137 322.498 450.137C321.846 450.137 321.295 450.021 320.844 449.788C320.393 449.556 320.051 449.255 319.818 448.886C319.586 448.517 319.47 448.127 319.47 447.717H320.741C320.759 448.063 320.86 448.339 321.042 448.544C321.224 448.744 321.448 448.888 321.712 448.975C321.976 449.057 322.238 449.098 322.498 449.098C322.844 449.098 323.134 449.052 323.366 448.961C323.603 448.87 323.783 448.744 323.906 448.585C324.029 448.425 324.091 448.243 324.091 448.038Z" fill="white"/>
<path d="M186 345.522L190.589 341.564L195.178 345.522" stroke="#F5C989" stroke-width="2" stroke-linecap="round" stroke-linejoin="round"/>
<path d="M186 350.799L190.589 346.841L195.178 350.799" stroke="#F5C989" stroke-width="2" stroke-linecap="round" stroke-linejoin="round"/>
<path d="M156 175.564H191V290.564" stroke="#F5C989" stroke-width="2" stroke-linecap="round" stroke-linejoin="round" stroke-dasharray="6 6"/>
<path d="M141 80.5645L137 76.5645L141 72.5645" stroke="#F5C989" stroke-width="2" stroke-linecap="round" stroke-linejoin="round"/>
<path d="M147 80.5645L143 76.5645L147 72.5645" stroke="#F5C989" stroke-width="2" stroke-linecap="round" stroke-linejoin="round"/>
<path d="M206 67.5646L206 76.5645L148 76.5643" stroke="#F5C989" stroke-width="2" stroke-linecap="round" stroke-linejoin="round"/>
<path d="M239 455.564H191V353.564" stroke="#F5C989" stroke-width="2" stroke-linecap="round" stroke-linejoin="round" stroke-dasharray="6 6"/>
<path d="M257.277 404.742L261.234 400.153L257.277 395.564" stroke="#F5C989" stroke-width="2" stroke-linecap="round" stroke-linejoin="round"/>
<path d="M252 404.742L255.957 400.153L252 395.564" stroke="#F5C989" stroke-width="2" stroke-linecap="round" stroke-linejoin="round"/>
<path d="M249.5 345.564H226V399.648H249.5" stroke="#F5C989" stroke-width="2" stroke-linecap="round" stroke-linejoin="round" stroke-dasharray="6 6"/>
<path d="M210.605 403.745C206.754 398.711 210.728 396.958 213.196 396.711C215.232 389.307 221.526 392.639 221.526 392.639C221.526 392.639 225.67 386.224 231.335 389.493C240.96 395.045 235.778 403.19 231.335 403.745C225.228 403.745 210.746 403.929 210.605 403.745Z" fill="#F5C989" stroke="#F5C989" stroke-width="1.5"/>
<path d="M214.738 406.703C210.887 401.67 214.861 399.916 217.329 399.67C219.365 392.266 225.658 395.598 225.658 395.598C225.658 395.598 229.802 389.182 235.468 392.451C245.093 398.004 239.911 406.148 235.468 406.703C229.36 406.703 214.879 406.887 214.738 406.703Z" fill="#1A4F90" stroke="#F5C989" stroke-width="1.5"/>
<path d="M42.3044 179.564L46.3044 175.564L42.3044 171.564" stroke="#F5C989" stroke-width="2" stroke-linecap="round" stroke-linejoin="round"/>
<path d="M36.3044 179.564L40.3044 175.564L36.3044 171.564" stroke="#F5C989" stroke-width="2" stroke-linecap="round" stroke-linejoin="round"/>
<path d="M35.9348 125.564H23V175.456H35.9348" stroke="#F5C989" stroke-width="2" stroke-linecap="round" stroke-linejoin="round"/>
<path d="M198.938 8.66504V10.2646H193.743V8.66504H198.938ZM194.352 4.61133V14.5645H192.301V4.61133H194.352ZM200.401 4.61133V14.5645H198.357V4.61133H200.401ZM206.431 4.61133V14.5645H204.387V4.61133H206.431ZM209.493 4.61133V6.21777H201.372V4.61133H209.493ZM215.222 4.61133V14.5645H213.178V4.61133H215.222ZM218.284 4.61133V6.21777H210.163V4.61133H218.284ZM223.329 11.0166H220.793V9.41699H223.329C223.721 9.41699 224.04 9.35319 224.286 9.22559C224.532 9.09342 224.712 8.91113 224.826 8.67871C224.94 8.44629 224.997 8.18424 224.997 7.89258C224.997 7.59635 224.94 7.32064 224.826 7.06543C224.712 6.81022 224.532 6.60514 224.286 6.4502C224.04 6.29525 223.721 6.21777 223.329 6.21777H221.504V14.5645H219.453V4.61133H223.329C224.108 4.61133 224.776 4.7526 225.332 5.03516C225.893 5.31315 226.321 5.69824 226.617 6.19043C226.913 6.68262 227.062 7.24544 227.062 7.87891C227.062 8.52148 226.913 9.07747 226.617 9.54688C226.321 10.0163 225.893 10.3786 225.332 10.6338C224.776 10.889 224.108 11.0166 223.329 11.0166Z" fill="#F5C989"/>
<path d="M203.978 27.4404V34.5645H202.571V29.0615L200.882 29.5986V28.4902L203.826 27.4404H203.978ZM211.077 30.3848V31.6152C211.077 32.1491 211.02 32.6097 210.906 32.9971C210.792 33.3812 210.628 33.6969 210.413 33.9443C210.201 34.1885 209.949 34.3691 209.656 34.4863C209.363 34.6035 209.038 34.6621 208.68 34.6621C208.393 34.6621 208.126 34.6263 207.879 34.5547C207.632 34.4798 207.409 34.3643 207.21 34.208C207.015 34.0518 206.845 33.8548 206.702 33.6172C206.562 33.3763 206.455 33.0898 206.38 32.7578C206.305 32.4258 206.268 32.0449 206.268 31.6152V30.3848C206.268 29.8509 206.325 29.3936 206.438 29.0127C206.556 28.6286 206.72 28.3145 206.932 28.0703C207.146 27.8262 207.4 27.6471 207.693 27.5332C207.986 27.416 208.312 27.3574 208.67 27.3574C208.956 27.3574 209.222 27.3949 209.466 27.4697C209.713 27.5413 209.936 27.6536 210.135 27.8066C210.333 27.9596 210.503 28.1566 210.643 28.3975C210.783 28.6351 210.89 28.9199 210.965 29.252C211.04 29.5807 211.077 29.9583 211.077 30.3848ZM209.666 31.8008V30.1943C209.666 29.9372 209.651 29.7126 209.622 29.5205C209.596 29.3285 209.555 29.1657 209.5 29.0322C209.445 28.8955 209.376 28.7848 209.295 28.7002C209.214 28.6156 209.121 28.5537 209.017 28.5146C208.912 28.4756 208.797 28.4561 208.67 28.4561C208.51 28.4561 208.369 28.487 208.245 28.5488C208.125 28.6107 208.022 28.71 207.938 28.8467C207.853 28.9801 207.788 29.1592 207.742 29.3838C207.7 29.6051 207.679 29.8753 207.679 30.1943V31.8008C207.679 32.0579 207.692 32.2842 207.718 32.4795C207.747 32.6748 207.789 32.8424 207.845 32.9824C207.903 33.1191 207.972 33.2314 208.05 33.3193C208.131 33.404 208.224 33.4658 208.328 33.5049C208.436 33.5439 208.553 33.5635 208.68 33.5635C208.836 33.5635 208.974 33.5326 209.095 33.4707C209.218 33.4056 209.323 33.3047 209.407 33.168C209.495 33.028 209.56 32.8457 209.603 32.6211C209.645 32.3965 209.666 32.123 209.666 31.8008ZM212.015 29.1982V28.8223C212.015 28.5521 212.073 28.3063 212.19 28.085C212.308 27.8636 212.48 27.6862 212.708 27.5527C212.936 27.4193 213.216 27.3525 213.548 27.3525C213.89 27.3525 214.174 27.4193 214.402 27.5527C214.633 27.6862 214.806 27.8636 214.92 28.085C215.037 28.3063 215.096 28.5521 215.096 28.8223V29.1982C215.096 29.4619 215.037 29.7044 214.92 29.9258C214.806 30.1471 214.635 30.3245 214.407 30.458C214.179 30.5915 213.898 30.6582 213.562 30.6582C213.224 30.6582 212.939 30.5915 212.708 30.458C212.48 30.3245 212.308 30.1471 212.19 29.9258C212.073 29.7044 212.015 29.4619 212.015 29.1982ZM212.947 28.8223V29.1982C212.947 29.3122 212.968 29.4212 213.011 29.5254C213.056 29.6263 213.125 29.7093 213.216 29.7744C213.31 29.8363 213.424 29.8672 213.558 29.8672C213.698 29.8672 213.812 29.8363 213.899 29.7744C213.987 29.7093 214.052 29.6263 214.095 29.5254C214.137 29.4212 214.158 29.3122 214.158 29.1982V28.8223C214.158 28.7018 214.135 28.5911 214.09 28.4902C214.048 28.3861 213.981 28.3031 213.89 28.2412C213.802 28.1761 213.688 28.1436 213.548 28.1436C213.418 28.1436 213.307 28.1761 213.216 28.2412C213.125 28.3031 213.056 28.3861 213.011 28.4902C212.968 28.5911 212.947 28.7018 212.947 28.8223ZM215.413 33.1973V32.8213C215.413 32.5544 215.472 32.3102 215.589 32.0889C215.709 31.8675 215.883 31.6901 216.111 31.5566C216.342 31.4232 216.626 31.3564 216.961 31.3564C217.299 31.3564 217.583 31.4232 217.811 31.5566C218.038 31.6901 218.211 31.8675 218.328 32.0889C218.445 32.3102 218.504 32.5544 218.504 32.8213V33.1973C218.504 33.4642 218.445 33.7083 218.328 33.9297C218.214 34.151 218.043 34.3285 217.815 34.4619C217.588 34.5954 217.306 34.6621 216.971 34.6621C216.632 34.6621 216.347 34.5954 216.116 34.4619C215.885 34.3285 215.709 34.151 215.589 33.9297C215.472 33.7083 215.413 33.4642 215.413 33.1973ZM216.351 32.8213V33.1973C216.351 33.3145 216.377 33.4251 216.429 33.5293C216.481 33.6335 216.552 33.7165 216.644 33.7783C216.738 33.8402 216.847 33.8711 216.971 33.8711C217.127 33.8711 217.249 33.8402 217.337 33.7783C217.425 33.7165 217.485 33.6335 217.518 33.5293C217.553 33.4251 217.571 33.3145 217.571 33.1973V32.8213C217.571 32.7041 217.549 32.5951 217.503 32.4941C217.457 32.39 217.389 32.307 217.298 32.2451C217.21 32.18 217.098 32.1475 216.961 32.1475C216.824 32.1475 216.71 32.18 216.619 32.2451C216.531 32.307 216.465 32.39 216.419 32.4941C216.373 32.5951 216.351 32.7041 216.351 32.8213ZM217.308 28.4707L213.836 34.0273L213.152 33.666L216.624 28.1094L217.308 28.4707Z" fill="#F5C989"/>
<path d="M200 37.5645H218.5" stroke="#F5C989" stroke-linecap="round"/>
<path d="M201.546 47.4951H201.639C202.029 47.4951 202.365 47.4479 202.645 47.3535C202.928 47.2559 203.16 47.1159 203.343 46.9336C203.525 46.7513 203.66 46.5283 203.748 46.2646C203.836 45.9977 203.88 45.695 203.88 45.3564V44.0088C203.88 43.7516 203.854 43.5254 203.802 43.3301C203.753 43.1348 203.681 42.9736 203.587 42.8467C203.496 42.7165 203.388 42.6188 203.265 42.5537C203.144 42.4886 203.011 42.4561 202.864 42.4561C202.708 42.4561 202.57 42.4951 202.449 42.5732C202.329 42.6481 202.226 42.7507 202.142 42.8809C202.06 43.0111 201.997 43.1608 201.951 43.3301C201.909 43.4961 201.888 43.6702 201.888 43.8525C201.888 44.0348 201.909 44.209 201.951 44.375C201.993 44.5378 202.057 44.6826 202.142 44.8096C202.226 44.9333 202.332 45.0326 202.459 45.1074C202.586 45.179 202.736 45.2148 202.908 45.2148C203.074 45.2148 203.222 45.1839 203.353 45.1221C203.486 45.057 203.598 44.9723 203.689 44.8682C203.784 44.764 203.855 44.6484 203.904 44.5215C203.956 44.3945 203.982 44.266 203.982 44.1357L204.446 44.3896C204.446 44.6175 204.397 44.8421 204.3 45.0635C204.202 45.2848 204.065 45.4867 203.89 45.6689C203.717 45.848 203.517 45.9912 203.289 46.0986C203.061 46.2061 202.817 46.2598 202.557 46.2598C202.225 46.2598 201.93 46.1995 201.673 46.0791C201.416 45.9554 201.198 45.7861 201.019 45.5713C200.843 45.3532 200.709 45.0993 200.618 44.8096C200.527 44.5199 200.481 44.2057 200.481 43.8672C200.481 43.5221 200.537 43.1982 200.647 42.8955C200.761 42.5928 200.923 42.3258 201.131 42.0947C201.342 41.8636 201.595 41.6829 201.888 41.5527C202.184 41.4193 202.513 41.3525 202.874 41.3525C203.235 41.3525 203.564 41.4225 203.86 41.5625C204.157 41.7025 204.41 41.901 204.622 42.1582C204.834 42.4121 204.996 42.7165 205.11 43.0713C205.228 43.4261 205.286 43.82 205.286 44.2529V44.7412C205.286 45.2035 205.236 45.6331 205.135 46.0303C205.037 46.4274 204.889 46.7871 204.69 47.1094C204.495 47.4284 204.251 47.7018 203.958 47.9297C203.668 48.1576 203.331 48.3317 202.947 48.4521C202.563 48.5726 202.133 48.6328 201.658 48.6328H201.546V47.4951ZM211.077 44.3848V45.6152C211.077 46.1491 211.02 46.6097 210.906 46.9971C210.792 47.3812 210.628 47.6969 210.413 47.9443C210.201 48.1885 209.949 48.3691 209.656 48.4863C209.363 48.6035 209.038 48.6621 208.68 48.6621C208.393 48.6621 208.126 48.6263 207.879 48.5547C207.632 48.4798 207.409 48.3643 207.21 48.208C207.015 48.0518 206.845 47.8548 206.702 47.6172C206.562 47.3763 206.455 47.0898 206.38 46.7578C206.305 46.4258 206.268 46.0449 206.268 45.6152V44.3848C206.268 43.8509 206.325 43.3936 206.438 43.0127C206.556 42.6286 206.72 42.3145 206.932 42.0703C207.146 41.8262 207.4 41.6471 207.693 41.5332C207.986 41.416 208.312 41.3574 208.67 41.3574C208.956 41.3574 209.222 41.3949 209.466 41.4697C209.713 41.5413 209.936 41.6536 210.135 41.8066C210.333 41.9596 210.503 42.1566 210.643 42.3975C210.783 42.6351 210.89 42.9199 210.965 43.252C211.04 43.5807 211.077 43.9583 211.077 44.3848ZM209.666 45.8008V44.1943C209.666 43.9372 209.651 43.7126 209.622 43.5205C209.596 43.3285 209.555 43.1657 209.5 43.0322C209.445 42.8955 209.376 42.7848 209.295 42.7002C209.214 42.6156 209.121 42.5537 209.017 42.5146C208.912 42.4756 208.797 42.4561 208.67 42.4561C208.51 42.4561 208.369 42.487 208.245 42.5488C208.125 42.6107 208.022 42.71 207.938 42.8467C207.853 42.9801 207.788 43.1592 207.742 43.3838C207.7 43.6051 207.679 43.8753 207.679 44.1943V45.8008C207.679 46.0579 207.692 46.2842 207.718 46.4795C207.747 46.6748 207.789 46.8424 207.845 46.9824C207.903 47.1191 207.972 47.2314 208.05 47.3193C208.131 47.404 208.224 47.4658 208.328 47.5049C208.436 47.5439 208.553 47.5635 208.68 47.5635C208.836 47.5635 208.974 47.5326 209.095 47.4707C209.218 47.4056 209.323 47.3047 209.407 47.168C209.495 47.028 209.56 46.8457 209.603 46.6211C209.645 46.3965 209.666 46.123 209.666 45.8008ZM212.015 43.1982V42.8223C212.015 42.5521 212.073 42.3063 212.19 42.085C212.308 41.8636 212.48 41.6862 212.708 41.5527C212.936 41.4193 213.216 41.3525 213.548 41.3525C213.89 41.3525 214.174 41.4193 214.402 41.5527C214.633 41.6862 214.806 41.8636 214.92 42.085C215.037 42.3063 215.096 42.5521 215.096 42.8223V43.1982C215.096 43.4619 215.037 43.7044 214.92 43.9258C214.806 44.1471 214.635 44.3245 214.407 44.458C214.179 44.5915 213.898 44.6582 213.562 44.6582C213.224 44.6582 212.939 44.5915 212.708 44.458C212.48 44.3245 212.308 44.1471 212.19 43.9258C212.073 43.7044 212.015 43.4619 212.015 43.1982ZM212.947 42.8223V43.1982C212.947 43.3122 212.968 43.4212 213.011 43.5254C213.056 43.6263 213.125 43.7093 213.216 43.7744C213.31 43.8363 213.424 43.8672 213.558 43.8672C213.698 43.8672 213.812 43.8363 213.899 43.7744C213.987 43.7093 214.052 43.6263 214.095 43.5254C214.137 43.4212 214.158 43.3122 214.158 43.1982V42.8223C214.158 42.7018 214.135 42.5911 214.09 42.4902C214.048 42.3861 213.981 42.3031 213.89 42.2412C213.802 42.1761 213.688 42.1436 213.548 42.1436C213.418 42.1436 213.307 42.1761 213.216 42.2412C213.125 42.3031 213.056 42.3861 213.011 42.4902C212.968 42.5911 212.947 42.7018 212.947 42.8223ZM215.413 47.1973V46.8213C215.413 46.5544 215.472 46.3102 215.589 46.0889C215.709 45.8675 215.883 45.6901 216.111 45.5566C216.342 45.4232 216.626 45.3564 216.961 45.3564C217.299 45.3564 217.583 45.4232 217.811 45.5566C218.038 45.6901 218.211 45.8675 218.328 46.0889C218.445 46.3102 218.504 46.5544 218.504 46.8213V47.1973C218.504 47.4642 218.445 47.7083 218.328 47.9297C218.214 48.151 218.043 48.3285 217.815 48.4619C217.588 48.5954 217.306 48.6621 216.971 48.6621C216.632 48.6621 216.347 48.5954 216.116 48.4619C215.885 48.3285 215.709 48.151 215.589 47.9297C215.472 47.7083 215.413 47.4642 215.413 47.1973ZM216.351 46.8213V47.1973C216.351 47.3145 216.377 47.4251 216.429 47.5293C216.481 47.6335 216.552 47.7165 216.644 47.7783C216.738 47.8402 216.847 47.8711 216.971 47.8711C217.127 47.8711 217.249 47.8402 217.337 47.7783C217.425 47.7165 217.485 47.6335 217.518 47.5293C217.553 47.4251 217.571 47.3145 217.571 47.1973V46.8213C217.571 46.7041 217.549 46.5951 217.503 46.4941C217.457 46.39 217.389 46.307 217.298 46.2451C217.21 46.18 217.098 46.1475 216.961 46.1475C216.824 46.1475 216.71 46.18 216.619 46.2451C216.531 46.307 216.465 46.39 216.419 46.4941C216.373 46.5951 216.351 46.7041 216.351 46.8213ZM217.308 42.4707L213.836 48.0273L213.152 47.666L216.624 42.1094L217.308 42.4707Z" fill="#F5C989"/>
<path d="M226.271 45.0408C224.736 48.9669 221.856 52.2385 218.13 54.2871C214.404 56.3358 210.068 57.0319 205.876 56.2547C201.684 55.4774 197.9 53.2759 195.183 50.0326C192.465 46.7893 190.985 42.7092 191 38.5013C191.015 34.2934 192.524 30.2237 195.265 26.9992C198.005 23.7748 201.805 21.5995 206.002 20.8513C210.2 20.1031 214.53 20.8293 218.242 22.9037C221.953 24.9781 224.81 28.2695 226.317 32.2062M226.271 45.0408L219.637 48.5644M226.271 45.0408L226.986 52.0644M226.317 32.2062L222.932 31.3144M226.317 32.2062L228 29.0644" stroke="#F5C989" stroke-width="2" stroke-linecap="round" stroke-linejoin="round"/>
<path d="M354 460.314L350 455.439L354 450.564" stroke="#F5C989" stroke-width="2" stroke-linecap="round" stroke-linejoin="round"/>
<path d="M360 460.314L356 455.439L360 450.564" stroke="#F5C989" stroke-width="2" stroke-linecap="round" stroke-linejoin="round"/>
<path d="M360.37 400.564H373.304V455.619H360.37" stroke="#F5C989" stroke-width="2" stroke-linecap="round" stroke-linejoin="round"/>
<path d="M174 304.28C174 301.676 176.111 299.564 178.716 299.564H202.295C204.899 299.564 207.011 301.676 207.011 304.28V327.859C207.011 330.464 204.899 332.575 202.295 332.575H178.716C176.111 332.575 174 330.464 174 327.859V304.28Z" fill="white"/>
<path d="M174 304.28C174 301.676 176.111 299.564 178.716 299.564H202.295C204.899 299.564 207.011 301.676 207.011 304.28V327.859C207.011 330.464 204.899 332.575 202.295 332.575H178.716C176.111 332.575 174 330.464 174 327.859V304.28Z" fill="white"/>
<path d="M174 304.28C174 301.676 176.111 299.564 178.716 299.564H202.295C204.899 299.564 207.011 301.676 207.011 304.28V327.859C207.011 330.464 204.899 332.575 202.295 332.575H178.716C176.111 332.575 174 330.464 174 327.859V304.28Z" fill="#F5C989"/>
<path fill-rule="evenodd" clip-rule="evenodd" d="M181.663 309.586C181.663 308.934 182.191 308.407 182.842 308.407H199.937C200.588 308.407 201.116 308.934 201.116 309.586C201.116 310.237 200.588 310.764 199.937 310.764H182.842C182.191 310.764 181.663 310.237 181.663 309.586Z" fill="white"/>
<path fill-rule="evenodd" clip-rule="evenodd" d="M181.663 309.586C181.663 308.934 182.191 308.407 182.842 308.407H199.937C200.588 308.407 201.116 308.934 201.116 309.586C201.116 310.237 200.588 310.764 199.937 310.764H182.842C182.191 310.764 181.663 310.237 181.663 309.586Z" fill="white"/>
<path fill-rule="evenodd" clip-rule="evenodd" d="M181.663 309.586C181.663 308.934 182.191 308.407 182.842 308.407H199.937C200.588 308.407 201.116 308.934 201.116 309.586C201.116 310.237 200.588 310.764 199.937 310.764H182.842C182.191 310.764 181.663 310.237 181.663 309.586Z" fill="#F5C989"/>
<path fill-rule="evenodd" clip-rule="evenodd" d="M185.2 316.364C185.2 315.713 185.728 315.186 186.379 315.186H199.937C200.588 315.186 201.116 315.713 201.116 316.364C201.116 317.016 200.588 317.543 199.937 317.543H186.379C185.728 317.543 185.2 317.016 185.2 316.364Z" fill="white"/>
<path fill-rule="evenodd" clip-rule="evenodd" d="M185.2 316.364C185.2 315.713 185.728 315.186 186.379 315.186H199.937C200.588 315.186 201.116 315.713 201.116 316.364C201.116 317.016 200.588 317.543 199.937 317.543H186.379C185.728 317.543 185.2 317.016 185.2 316.364Z" fill="white"/>
<path fill-rule="evenodd" clip-rule="evenodd" d="M185.2 316.364C185.2 315.713 185.728 315.186 186.379 315.186H199.937C200.588 315.186 201.116 315.713 201.116 316.364C201.116 317.016 200.588 317.543 199.937 317.543H186.379C185.728 317.543 185.2 317.016 185.2 316.364Z" fill="#F5C989"/>
<path fill-rule="evenodd" clip-rule="evenodd" d="M185.2 323.143C185.2 322.492 185.728 321.964 186.379 321.964H199.937C200.588 321.964 201.116 322.492 201.116 323.143C201.116 323.795 200.588 324.322 199.937 324.322H186.379C185.728 324.322 185.2 323.795 185.2 323.143Z" fill="white"/>
<path fill-rule="evenodd" clip-rule="evenodd" d="M185.2 323.143C185.2 322.492 185.728 321.964 186.379 321.964H199.937C200.588 321.964 201.116 322.492 201.116 323.143C201.116 323.795 200.588 324.322 199.937 324.322H186.379C185.728 324.322 185.2 323.795 185.2 323.143Z" fill="white"/>
<path fill-rule="evenodd" clip-rule="evenodd" d="M185.2 323.143C185.2 322.492 185.728 321.964 186.379 321.964H199.937C200.588 321.964 201.116 322.492 201.116 323.143C201.116 323.795 200.588 324.322 199.937 324.322H186.379C185.728 324.322 185.2 323.795 185.2 323.143Z" fill="#F5C989"/>
<path d="M184.021 316.659C184.021 317.31 183.493 317.838 182.842 317.838C182.191 317.838 181.663 317.31 181.663 316.659C181.663 316.008 182.191 315.48 182.842 315.48C183.493 315.48 184.021 316.008 184.021 316.659Z" fill="white"/>
<path d="M184.021 316.659C184.021 317.31 183.493 317.838 182.842 317.838C182.191 317.838 181.663 317.31 181.663 316.659C181.663 316.008 182.191 315.48 182.842 315.48C183.493 315.48 184.021 316.008 184.021 316.659Z" fill="white"/>
<path d="M184.021 316.659C184.021 317.31 183.493 317.838 182.842 317.838C182.191 317.838 181.663 317.31 181.663 316.659C181.663 316.008 182.191 315.48 182.842 315.48C183.493 315.48 184.021 316.008 184.021 316.659Z" fill="#F5C989"/>
<path d="M184.021 323.143C184.021 323.795 183.493 324.322 182.842 324.322C182.191 324.322 181.663 323.795 181.663 323.143C181.663 322.492 182.191 321.964 182.842 321.964C183.493 321.964 184.021 322.492 184.021 323.143Z" fill="white"/>
<path d="M184.021 323.143C184.021 323.795 183.493 324.322 182.842 324.322C182.191 324.322 181.663 323.795 181.663 323.143C181.663 322.492 182.191 321.964 182.842 321.964C183.493 321.964 184.021 322.492 184.021 323.143Z" fill="white"/>
<path d="M184.021 323.143C184.021 323.795 183.493 324.322 182.842 324.322C182.191 324.322 181.663 323.795 181.663 323.143C181.663 322.492 182.191 321.964 182.842 321.964C183.493 321.964 184.021 322.492 184.021 323.143Z" fill="#F5C989"/>
<path d="M217.836 309.506H219.88V316.082C219.88 316.848 219.716 317.493 219.388 318.017C219.064 318.541 218.615 318.935 218.041 319.199C217.471 319.464 216.815 319.596 216.072 319.596C215.329 319.596 214.669 319.464 214.09 319.199C213.516 318.935 213.064 318.541 212.736 318.017C212.413 317.493 212.251 316.848 212.251 316.082V309.506H214.302V316.082C214.302 316.529 214.372 316.893 214.514 317.176C214.655 317.458 214.858 317.666 215.122 317.798C215.391 317.93 215.708 317.996 216.072 317.996C216.446 317.996 216.763 317.93 217.022 317.798C217.287 317.666 217.487 317.458 217.624 317.176C217.765 316.893 217.836 316.529 217.836 316.082V309.506ZM221.568 309.506H225.28C226.041 309.506 226.695 309.62 227.242 309.848C227.794 310.076 228.217 310.413 228.514 310.859C228.81 311.306 228.958 311.855 228.958 312.507C228.958 313.04 228.867 313.498 228.684 313.881C228.507 314.259 228.254 314.576 227.926 314.831C227.602 315.082 227.222 315.282 226.784 315.433L226.135 315.774H222.908L222.894 314.175H225.294C225.654 314.175 225.952 314.111 226.189 313.983C226.426 313.856 226.604 313.678 226.723 313.45C226.846 313.222 226.907 312.958 226.907 312.657C226.907 312.338 226.848 312.062 226.729 311.83C226.611 311.598 226.431 311.42 226.189 311.297C225.948 311.174 225.645 311.112 225.28 311.112H223.619V319.459H221.568V309.506ZM227.133 319.459L224.863 315.022L227.03 315.009L229.327 319.363V319.459H227.133ZM236.935 317.859V319.459H231.925V317.859H236.935ZM232.588 309.506V319.459H230.537V309.506H232.588Z" fill="#F5C989"/>
<path fill-rule="evenodd" clip-rule="evenodd" d="M181 309.743C181 309.092 181.528 308.564 182.179 308.564H199.274C199.925 308.564 200.453 309.092 200.453 309.743C200.453 310.395 199.925 310.922 199.274 310.922H182.179C181.528 310.922 181 310.395 181 309.743Z" fill="white"/>
<path fill-rule="evenodd" clip-rule="evenodd" d="M181 309.743C181 309.092 181.528 308.564 182.179 308.564H199.274C199.925 308.564 200.453 309.092 200.453 309.743C200.453 310.395 199.925 310.922 199.274 310.922H182.179C181.528 310.922 181 310.395 181 309.743Z" fill="white"/>
<path fill-rule="evenodd" clip-rule="evenodd" d="M181 309.743C181 309.092 181.528 308.564 182.179 308.564H199.274C199.925 308.564 200.453 309.092 200.453 309.743C200.453 310.395 199.925 310.922 199.274 310.922H182.179C181.528 310.922 181 310.395 181 309.743Z" fill="#1A4F90"/>
<path fill-rule="evenodd" clip-rule="evenodd" d="M184.537 316.522C184.537 315.871 185.065 315.343 185.716 315.343H199.274C199.925 315.343 200.453 315.871 200.453 316.522C200.453 317.173 199.925 317.701 199.274 317.701H185.716C185.065 317.701 184.537 317.173 184.537 316.522Z" fill="white"/>
<path fill-rule="evenodd" clip-rule="evenodd" d="M184.537 316.522C184.537 315.871 185.065 315.343 185.716 315.343H199.274C199.925 315.343 200.453 315.871 200.453 316.522C200.453 317.173 199.925 317.701 199.274 317.701H185.716C185.065 317.701 184.537 317.173 184.537 316.522Z" fill="white"/>
<path fill-rule="evenodd" clip-rule="evenodd" d="M184.537 316.522C184.537 315.871 185.065 315.343 185.716 315.343H199.274C199.925 315.343 200.453 315.871 200.453 316.522C200.453 317.173 199.925 317.701 199.274 317.701H185.716C185.065 317.701 184.537 317.173 184.537 316.522Z" fill="#1A4F90"/>
<path fill-rule="evenodd" clip-rule="evenodd" d="M184.537 323.301C184.537 322.65 185.065 322.122 185.716 322.122H199.274C199.925 322.122 200.453 322.65 200.453 323.301C200.453 323.952 199.925 324.48 199.274 324.48H185.716C185.065 324.48 184.537 323.952 184.537 323.301Z" fill="white"/>
<path fill-rule="evenodd" clip-rule="evenodd" d="M184.537 323.301C184.537 322.65 185.065 322.122 185.716 322.122H199.274C199.925 322.122 200.453 322.65 200.453 323.301C200.453 323.952 199.925 324.48 199.274 324.48H185.716C185.065 324.48 184.537 323.952 184.537 323.301Z" fill="white"/>
<path fill-rule="evenodd" clip-rule="evenodd" d="M184.537 323.301C184.537 322.65 185.065 322.122 185.716 322.122H199.274C199.925 322.122 200.453 322.65 200.453 323.301C200.453 323.952 199.925 324.48 199.274 324.48H185.716C185.065 324.48 184.537 323.952 184.537 323.301Z" fill="#1A4F90"/>
<path d="M183.358 316.817C183.358 317.468 182.83 317.996 182.179 317.996C181.528 317.996 181 317.468 181 316.817C181 316.166 181.528 315.638 182.179 315.638C182.83 315.638 183.358 316.166 183.358 316.817Z" fill="white"/>
<path d="M183.358 316.817C183.358 317.468 182.83 317.996 182.179 317.996C181.528 317.996 181 317.468 181 316.817C181 316.166 181.528 315.638 182.179 315.638C182.83 315.638 183.358 316.166 183.358 316.817Z" fill="white"/>
<path d="M183.358 316.817C183.358 317.468 182.83 317.996 182.179 317.996C181.528 317.996 181 317.468 181 316.817C181 316.166 181.528 315.638 182.179 315.638C182.83 315.638 183.358 316.166 183.358 316.817Z" fill="#1A4F90"/>
<path d="M183.358 323.301C183.358 323.952 182.83 324.48 182.179 324.48C181.528 324.48 181 323.952 181 323.301C181 322.65 181.528 322.122 182.179 322.122C182.83 322.122 183.358 322.65 183.358 323.301Z" fill="white"/>
<path d="M183.358 323.301C183.358 323.952 182.83 324.48 182.179 324.48C181.528 324.48 181 323.952 181 323.301C181 322.65 181.528 322.122 182.179 322.122C182.83 322.122 183.358 322.65 183.358 323.301Z" fill="white"/>
<path d="M183.358 323.301C183.358 323.952 182.83 324.48 182.179 324.48C181.528 324.48 181 323.952 181 323.301C181 322.65 181.528 322.122 182.179 322.122C182.83 322.122 183.358 322.65 183.358 323.301Z" fill="#1A4F90"/>
<path d="M149 179.564L145 175.564L149 171.564" stroke="#F5C989" stroke-width="2" stroke-linecap="round" stroke-linejoin="round"/>
<path d="M155 179.564L151 175.564L155 171.564" stroke="#F5C989" stroke-width="2" stroke-linecap="round" stroke-linejoin="round"/>
</svg>
