<?xml version="1.0" encoding="utf-8"?>
<!-- Generator: Adobe Illustrator 22.1.0, SVG Export Plug-In . SVG Version: 6.00 Build 0)  -->
<svg version="1.1" xmlns="http://www.w3.org/2000/svg" xmlns:xlink="http://www.w3.org/1999/xlink" x="0px" y="0px"
	 viewBox="0 0 1962 1296" style="enable-background:new 0 0 1962 1296;" xml:space="preserve">
<style type="text/css">
	.st0{fill:#4285F4;}
	.st1{fill:#34A853;}
	.st2{fill:#F9BC15;}
	.st3{fill-rule:evenodd;clip-rule:evenodd;fill:#4285F4;}
	.st4{opacity:7.000000e-02;enable-background:new    ;}
	.st5{fill:#FFFFFF;}
	.st6{fill:#424242;}
	.st7{fill:none;stroke:#4285F4;stroke-width:7;stroke-miterlimit:10;stroke-dasharray:10,10;}
	.st8{fill:none;stroke:#E23027;stroke-width:7;stroke-miterlimit:10;stroke-dasharray:10,10;}
	.st9{fill:none;stroke:#F9BC15;stroke-width:7;stroke-miterlimit:10;stroke-dasharray:10,10;}
	.st10{fill:#E23027;}
	.st11{fill:#E23027;stroke:#E23027;stroke-miterlimit:10;}
	.st12{fill:none;stroke:#34A853;stroke-width:7;stroke-miterlimit:10;stroke-dasharray:10,10;}
	.st13{fill:none;stroke:#424242;stroke-width:7;stroke-miterlimit:10;stroke-dasharray:10,10;}
	.st14{fill:#424242;stroke:#424242;stroke-miterlimit:10;}
	.st15{fill:none;}
	.st16{font-family:'GoogleSans-Bold';}
	.st17{font-size:46px;}
	.st18{font-size:26px;}
	.st19{font-family:'GoogleSans-Regular';}
	.st20{font-size:64px;}
	.st21{display:none;opacity:0.3;}
</style>
<g id="Layer_3">
</g>
<g id="Layer_2">
	<rect x="659.5" y="291.3" class="st0" width="584" height="154"/>
	<g>
		<polygon class="st5" points="739.7,327.3 739.7,387.4 768.1,390.6 		"/>
		<polygon class="st5" points="736.5,352.9 736.5,387.1 717,390.6 		"/>
		<polygon class="st5" points="767.5,393.8 717.6,393.8 736.5,403.7 		"/>
	</g>
	<rect x="660.1" y="352.4" class="st15" width="583.4" height="72.5"/>
	<text transform="matrix(1 0 0 1 903.2657 385.3178)" class="st5 st16 st17">Istio</text>
	<rect x="659.5" y="473.3" class="st0" width="584" height="154"/>
	<rect x="659.5" y="651.3" class="st0" width="584" height="154"/>
	<g>
		<path class="st1" d="M802.5,112.7v-7.3h-7.3v-7.3c0-4-3.3-7.3-7.3-7.3h-50.9c-4,0-7.3,3.3-7.3,7.3V149c0,4,3.3,7.3,7.3,7.3H788
			c4,0,7.3-3.3,7.3-7.3v-7.3h7.3v-7.3h-7.3v-7.3h7.3V120h-7.3v-7.3H802.5z M788,149h-50.9V98.2H788V149z M744.4,127.2h18.2v14.5
			h-18.2V127.2z M766.2,105.4h14.5v10.9h-14.5V105.4z M744.4,105.4h18.2v18.2h-18.2V105.4z M766.2,120h14.5v21.8h-14.5V120z"/>
	</g>
	<g>
		<g>
			<path class="st2" d="M1681.2,521.7c0-8-6.5-14.5-14.5-14.5c-8,0-14.4,6.5-14.4,14.5c0,8,6.4,14.5,14.4,14.5
				C1674.8,536.2,1681.2,529.7,1681.2,521.7z M1719.8,521.7c0-8-6.5-14.5-14.5-14.5c-8,0-14.4,6.5-14.4,14.5c0,8,6.4,14.5,14.4,14.5
				C1713.4,536.2,1719.8,529.7,1719.8,521.7z M1671.6,562.7v12.1h67.5v-12.1c0-11.2-22.5-16.9-33.7-16.9
				C1694.1,545.8,1671.6,551.5,1671.6,562.7z M1633,562.7v12.1h28.9v-12.1c0-7.1,3.9-12.6,9.5-16.6c-1.7-0.1-3.3-0.2-4.7-0.2
				C1655.6,545.8,1633,551.5,1633,562.7z"/>
		</g>
		<path class="st2" d="M1574.1,481.5v37.6c0,3.5,2.8,6.3,6.3,6.3h43.9l12.5,12.5l0-56.5c0-3.5-2.8-6.3-6.2-6.3h-50.2
			C1576.9,475.3,1574.1,478.1,1574.1,481.5z M1616.5,512.9l-21.6-21.6c-0.6-0.6-0.6-1.6,0-2.2l5.6-5.6c0.6-0.6,1.6-0.6,2.2,0
			l21.6,21.6v7.7H1616.5z M1586.6,506.6h17.3l6.3,6.3h-23.5V506.6z"/>
	</g>
	<path class="st3" d="M1422.5,503.3c-25.7,0-46.5,20.8-46.5,46.5c0,20.5,13.3,38,31.8,44.1c2.3,0.4,3.2-1,3.2-2.2c0-1.1,0-4-0.1-7.9
		c-12.9,2.8-15.7-6.2-15.7-6.2c-2.1-5.4-5.2-6.8-5.2-6.8c-4.2-2.9,0.3-2.8,0.3-2.8c4.7,0.3,7.1,4.8,7.1,4.8
		c4.1,7.1,10.9,5.1,13.5,3.9c0.4-3,1.6-5.1,3-6.2c-10.3-1.2-21.2-5.2-21.2-23c0-5.1,1.8-9.2,4.8-12.5c-0.5-1.2-2.1-5.9,0.5-12.3
		c0,0,3.9-1.2,12.8,4.8c3.7-1,7.7-1.5,11.6-1.6c3.9,0,7.9,0.5,11.6,1.6c8.9-6,12.8-4.8,12.8-4.8c2.5,6.4,0.9,11.1,0.5,12.3
		c3,3.2,4.8,7.4,4.8,12.5c0,17.9-10.9,21.8-21.2,22.9c1.7,1.4,3.2,4.3,3.2,8.6c0,6.2-0.1,11.2-0.1,12.7c0,1.2,0.8,2.7,3.2,2.2
		c18.5-6.2,31.8-23.6,31.8-44.1C1469,524.1,1448.2,503.3,1422.5,503.3z"/>
	<g>
		<path class="st0" d="M799.5,1129.9l-19.1-33.2c-1.5-2.6-4.2-4.2-7.2-4.3H735c-3,0.1-5.7,1.7-7.2,4.3l-19.1,33.1
			c-1.5,2.6-1.5,5.7,0,8.3l19.1,33.4c1.4,2.6,4.2,4.3,7.2,4.4h38.2c3-0.1,5.7-1.8,7.2-4.4l19.1-33.2
			C801,1135.7,801,1132.5,799.5,1129.9z"/>
		<path class="st4" d="M765.5,1115.8l-19.4,3.1l-3.8,12.7l-5.9-5.1l6.2,25.9l23.5,23.5h7.1c3-0.1,5.7-1.8,7.2-4.4l14.8-25.8
			L765.5,1115.8z"/>
		<g>
			<path class="st5" d="M759.8,1134.2c0,3.2-2.6,5.8-5.8,5.8s-5.8-2.6-5.8-5.8c0-3.2,2.6-5.8,5.8-5.8S759.8,1131,759.8,1134.2
				L759.8,1134.2L759.8,1134.2"/>
			<path class="st5" d="M775.3,1132.7l-4.3-7.5h-8.8l5.2,8.9l-1.4,2.4l-5.2,9.1l-1.6,2.8l-2.8,4.9h7.1c1,0,2-0.6,2.5-1.5l9.4-16.3
				C775.8,1134.7,775.8,1133.6,775.3,1132.7"/>
			<path class="st5" d="M747.5,1145.7l-6.6-11.5l-4.4-7.6l-3.6,6.2c-0.5,0.9-0.5,2,0,2.9l9.4,16.4c0.5,0.9,1.5,1.4,2.5,1.5h8.6
				l4.4-7.7H747.5z"/>
			<path class="st5" d="M769.6,1122.6l-3.6-6.2c-0.5-0.9-1.5-1.4-2.5-1.5h-18.7c-1,0-2,0.6-2.5,1.5l-4.3,7.6l4.4,7.6l5.2-9H769.6z"
				/>
		</g>
	</g>
	<g id="Layer_2_2_">
		<g id="Layer_1-2_1_">
			<path class="st5" d="M742.3,690.1c-0.7,0-1.4,0.2-2.1,0.5l-28.2,13.5c-1.5,0.7-2.5,2-2.9,3.6l-7,30.2c-0.3,1.4-0.1,2.9,0.7,4.1
				c0.1,0.1,0.2,0.3,0.3,0.4l19.5,24.2c1,1.3,2.6,2,4.2,2h31.3c1.6,0,3.2-0.7,4.2-2l19.5-24.2c1-1.3,1.4-2.9,1-4.5l-7-30.2
				c-0.4-1.6-1.4-2.9-2.9-3.6L745,690.7C744.1,690.3,743.2,690.1,742.3,690.1z"/>
			<path class="st0" d="M742.6,738.9c0.6,0,1.1,0.3,1.4,0.8h0l4.3,7.8c-0.6,0.2-1.1,0.3-1.7,0.5c-3.2,0.7-6.5,0.6-9.5-0.5l4.3-7.7
				l0,0C741.6,739.2,742,738.9,742.6,738.9z M735.2,735.3c0.7,0,1.3,0.5,1.4,1.2c0.1,0.3,0,0.6-0.1,0.9l0,0l-3.4,8.2
				c-3.2-2.1-5.7-5.2-7-8.8l8.7-1.5l0,0C735,735.3,735.1,735.3,735.2,735.3L735.2,735.3z M750,735.3c0.1,0,0.2,0,0.3,0l0,0l8.8,1.5
				c-1.3,3.6-3.8,6.8-7,8.8l-3.4-8.2l0,0c-0.3-0.8,0-1.6,0.8-2C749.6,735.3,749.8,735.3,750,735.3L750,735.3z M741.3,728.1h2.7
				l1.7,2.1l-0.6,2.6l-2.4,1.2l-2.4-1.2l-0.6-2.6L741.3,728.1z M757.5,721.7c2,3.3,2.9,7.1,2.5,11l-8.5-2.5v0c-0.8-0.2-1.3-1-1-1.8
				c0.1-0.3,0.2-0.5,0.5-0.7v0L757.5,721.7z M727.7,721.7l6.6,5.9v0c0.6,0.5,0.7,1.5,0.1,2.1c-0.2,0.2-0.4,0.4-0.7,0.5v0l-8.5,2.5
				C724.8,728.8,725.7,725,727.7,721.7L727.7,721.7z M744.7,713.5c3.8,0.5,7.4,2.2,10.1,4.9l-7.2,5.1l0,0c-0.7,0.5-1.6,0.3-2.1-0.3
				c-0.2-0.2-0.3-0.5-0.3-0.8l0,0L744.7,713.5z M740.5,713.5l-0.5,8.8l0,0c0,0.8-0.7,1.5-1.5,1.4c-0.3,0-0.6-0.1-0.8-0.3h0l-7.3-5.1
				c2.3-2.3,5.2-3.8,8.4-4.6C739.3,713.7,739.9,713.6,740.5,713.5L740.5,713.5z M742.6,700.4c-0.9,0-1.7,0.8-1.7,1.9c0,0,0,0,0,0
				c0,0.1,0,0.3,0,0.4c0,0.6,0.2,1.1,0.2,1.6c0.1,1.2,0.3,2.2,0.2,3.1c-0.1,0.3-0.3,0.6-0.5,0.9l0,0.7c-5.4,0.4-10.4,2.8-14.1,6.8
				c-0.2-0.1-0.5-0.4-0.6-0.4c-0.3,0-0.6,0.1-1-0.1c-0.8-0.5-1.4-1.2-2.3-2.1c-0.4-0.4-0.7-0.8-1.1-1.2c-0.1-0.1-0.3-0.2-0.4-0.3
				c-0.3-0.3-0.7-0.4-1.2-0.4c-0.5,0-1,0.2-1.3,0.6c-0.6,0.7-0.4,1.8,0.4,2.5l0,0c0.1,0.1,0.2,0.2,0.3,0.3c0.5,0.3,0.9,0.5,1.4,0.8
				c1,0.6,1.8,1.1,2.5,1.8c0.3,0.3,0.3,0.8,0.3,1l0.5,0.5c-3,4.5-4.2,9.9-3.4,15.2l-0.7,0.2c-0.2,0.2-0.4,0.6-0.7,0.7
				c-0.9,0.3-1.8,0.4-3,0.5c-0.6,0-1,0-1.6,0.1c-0.1,0-0.3,0.1-0.5,0.1h0h0c-1,0.2-1.6,1.2-1.4,2.1c0.2,0.9,1.2,1.4,2.2,1.2h0l0,0
				c0.1,0,0.3-0.1,0.4-0.1c0.6-0.2,1-0.4,1.5-0.6c1.1-0.4,2-0.7,2.9-0.9c0.4,0,0.8,0.2,1,0.3l0.7-0.1c1.6,5.1,5.1,9.4,9.7,12.1
				l-0.3,0.7c0.1,0.3,0.2,0.7,0.2,1c-0.3,0.8-0.9,1.7-1.5,2.7c-0.3,0.5-0.6,0.8-0.9,1.3c-0.1,0.1-0.2,0.3-0.2,0.5
				c-0.4,0.9-0.1,2,0.7,2.4c0.8,0.4,1.9,0,2.3-1l0,0l0,0c0.1-0.1,0.2-0.3,0.2-0.4c0.2-0.5,0.3-1,0.5-1.5c0.4-1.1,0.7-2.3,1.3-3
				c0.2-0.2,0.4-0.3,0.7-0.3l0.4-0.7c5,1.9,10.5,1.9,15.6,0c0.1,0.2,0.3,0.6,0.4,0.6c0.3,0.1,0.6,0.1,0.9,0.5
				c0.5,0.8,0.8,1.7,1.2,2.8c0.2,0.5,0.3,1,0.5,1.5c0.1,0.1,0.1,0.3,0.2,0.4c0.4,0.9,1.5,1.4,2.3,1c0.8-0.4,1.2-1.5,0.7-2.4
				c-0.1-0.1-0.2-0.3-0.2-0.5c-0.3-0.5-0.6-0.9-0.9-1.3c-0.6-1-1.2-1.8-1.5-2.7c-0.1-0.4,0-0.7,0.1-1c-0.1-0.2-0.2-0.4-0.3-0.7
				c4.6-2.7,8.1-7.1,9.7-12.2c0.2,0,0.6,0.1,0.7,0.1c0.3-0.2,0.5-0.4,0.9-0.3c0.9,0.1,1.8,0.5,2.9,0.9c0.5,0.2,0.9,0.4,1.5,0.6
				c0.1,0,0.3,0.1,0.4,0.1l0,0h0c1,0.2,2-0.3,2.2-1.2c0.2-0.9-0.4-1.8-1.4-2.1c-0.1,0-0.3-0.1-0.5-0.1c-0.6-0.1-1.1-0.1-1.6-0.1
				c-1.2-0.1-2.2-0.2-3-0.5c-0.3-0.1-0.6-0.6-0.7-0.7l-0.7-0.2c0.7-5.3-0.5-10.7-3.5-15.2c0.2-0.2,0.5-0.5,0.6-0.5
				c0-0.3,0-0.6,0.3-1c0.7-0.6,1.5-1.1,2.5-1.8c0.5-0.3,0.9-0.5,1.4-0.8c0.1-0.1,0.3-0.2,0.4-0.3c0.8-0.6,1-1.8,0.4-2.5
				s-1.7-0.8-2.5-0.2c-0.1,0.1-0.3,0.2-0.4,0.3c-0.5,0.4-0.7,0.8-1.1,1.2c-0.8,0.8-1.5,1.5-2.3,2.1c-0.3,0.2-0.8,0.1-1,0.1l-0.6,0.5
				c-3.7-3.9-8.7-6.3-14-6.8c0-0.2,0-0.6,0-0.8c-0.2-0.2-0.5-0.4-0.6-0.8c-0.1-0.9,0.1-1.9,0.2-3.1c0.1-0.6,0.2-1,0.2-1.6
				c0-0.1,0-0.3,0-0.5C744.3,701.3,743.6,700.4,742.6,700.4z"/>
		</g>
	</g>
	<rect x="852.2" y="90.3" class="st15" width="406.5" height="168"/>
	<text transform="matrix(1 0 0 1 852.2454 108.9126)"><tspan x="0" y="0" class="st1 st16 st18">Users</tspan><tspan x="70.7" y="0" class="st6 st16 st18"> </tspan><tspan x="76.8" y="0" class="st6 st19 st18">and </tspan><tspan x="126.8" y="0" class="st1 st16 st18">Systems (IoT)</tspan><tspan x="297" y="0" class="st1 st19 st18"> </tspan><tspan x="303.1" y="0" class="st6 st19 st18">use </tspan><tspan x="0" y="31.2" class="st6 st19 st18">applications developed and </tspan><tspan x="0" y="62.4" class="st6 st19 st18">deployed by developers and </tspan><tspan x="0" y="93.6" class="st6 st19 st18">hosted by operators</tspan></text>
	<rect x="1376.3" y="604.6" class="st15" width="187.5" height="45"/>
	<text transform="matrix(1 0 0 1 1376.2722 623.2625)" class="st0 st16 st18">GitHub</text>
	<rect x="430.6" y="606.7" class="st15" width="63.4" height="45"/>
	<text transform="matrix(1 0 0 1 430.6492 625.3455)" class="st0 st16 st18">API</text>
	<rect x="860.1" y="950.2" class="st15" width="382.5" height="100.5"/>
	<text transform="matrix(1 0 0 1 860.1328 968.8059)"><tspan x="0" y="0" class="st6 st16 st18">Operators </tspan><tspan x="136.3" y="0" class="st6 st19 st18">deploy and manage </tspan><tspan x="0" y="31.2" class="st6 st19 st18">Knative instances using </tspan><tspan x="0" y="62.4" class="st6 st19 st18">Kubernetes API and tools</tspan></text>
	<rect x="860.1" y="1105.7" class="st15" width="418" height="100.5"/>
	<text transform="matrix(1 0 0 1 860.1328 1124.308)"><tspan x="0" y="0" class="st0 st16 st18">Platform Providers</tspan><tspan x="234.8" y="0" class="st6 st16 st18"> </tspan><tspan x="240.9" y="0" class="st6 st19 st18">(such as </tspan><tspan x="0" y="31.2" class="st6 st19 st18">Google Cloud Platform) provide </tspan><tspan x="0" y="62.4" class="st6 st19 st18">underlying infrastructure</tspan></text>
	<rect x="660.1" y="526.1" class="st15" width="583.4" height="72.8"/>
	<text transform="matrix(1 0 0 1 833.3781 571.8974)" class="st5 st16 st20">Knative</text>
	<rect x="660.1" y="708.9" class="st15" width="583.4" height="112.5"/>
	<text transform="matrix(1 0 0 1 822.5128 741.8002)" class="st5 st16 st17">Kubernetes</text>
	<line class="st7" x1="655.5" y1="1063.4" x2="1244.4" y2="1063.4"/>
	<line class="st8" x1="268.3" y1="553.4" x2="376.3" y2="553.4"/>
	<line class="st9" x1="1506" y1="553.4" x2="1614" y2="553.4"/>
	<path class="st0" d="M415.9,555h31.4v-39.3h-31.4V555z M415.9,586.4h31.4v-23.6h-31.4V586.4z M455.2,586.4h31.4v-39.3h-31.4V586.4z
		 M455.2,515.7v23.6h31.4v-23.6H455.2z"/>
	<polygon class="st2" points="1497.5,565 1497.5,541.7 1475.9,553.4 	"/>
	<polygon class="st10" points="382.5,541.7 382.5,565 404.2,553.4 	"/>
	<g>
		<g>
			<path class="st11" d="M192.8,521.8c0-8.1-6.6-14.7-14.7-14.7s-14.7,6.6-14.7,14.7c0,8.1,6.5,14.7,14.7,14.7
				S192.8,529.9,192.8,521.8z M232.1,521.8c0-8.1-6.6-14.7-14.7-14.7s-14.7,6.6-14.7,14.7c0,8.1,6.5,14.7,14.7,14.7
				S232.1,529.9,232.1,521.8z M183,563.5v12.3h68.6v-12.3c0-11.4-22.9-17.2-34.3-17.2C205.9,546.3,183,552,183,563.5z M143.8,563.5
				v12.3h29.4v-12.3c0-7.3,4-12.8,9.7-16.9c-1.7-0.1-3.3-0.2-4.8-0.2C166.7,546.3,143.8,552,143.8,563.5z"/>
		</g>
		<path class="st11" d="M311.4,483.1v37.5c0,3.4-2.8,6.3-6.3,6.3h-43.8l-12.5,12.5v-56.3c0-3.4,2.8-6.3,6.3-6.3h50
			C308.6,476.9,311.4,479.7,311.4,483.1z"/>
		<path class="st5" d="M263.6,506.1c-0.4,0.3-0.4,0.7-0.2,1.1l3.6,6.2c0.2,0.4,0.7,0.6,1.1,0.4l4.4-1.8c0.9,0.7,1.9,1.3,3,1.7
			l0.7,4.7c0,0.4,0.4,0.8,0.9,0.8h7.1c0.4,0,0.8-0.3,0.9-0.8l0.7-4.7c1.1-0.4,2.1-1,3-1.7l4.4,1.8c0.4,0.1,0.9,0,1.1-0.4l3.6-6.2
			c0.2-0.4,0.1-0.9-0.2-1.1l-3.8-2.9c0.1-0.6,0.1-1.2,0.1-1.7s-0.1-1.2-0.2-1.7l3.8-2.9c0.4-0.3,0.4-0.7,0.2-1.1l-3.6-6.2
			c-0.2-0.4-0.7-0.6-1.1-0.4l-4.4,1.8c-0.9-0.7-1.9-1.3-3-1.7l-0.7-4.7c-0.1-0.4-0.4-0.8-0.9-0.8H277c-0.4,0-0.8,0.3-0.9,0.8
			l-0.7,4.7c-1.1,0.4-2.1,1-3,1.7l-4.4-1.8c-0.4-0.1-0.9,0-1.1,0.4l-3.6,6.2c-0.2,0.4-0.1,0.9,0.2,1.1l3.8,2.9
			c-0.1,0.6-0.1,1.1-0.1,1.7c0,0.6,0,1.2,0.1,1.7L263.6,506.1z M273.9,501.5c0-3.7,3-6.7,6.7-6.7s6.7,3,6.7,6.7c0,3.7-3,6.7-6.7,6.7
			S273.9,505.1,273.9,501.5z"/>
	</g>
	<g>
		<line class="st13" x1="764.6" y1="933.4" x2="764.6" y2="843"/>
		<polygon class="st14" points="776.6,855.9 753.2,855.9 764.9,834.2 		"/>
	</g>
	<g>
		
			<ellipse transform="matrix(0.9732 -0.2298 0.2298 0.9732 -5.6391 164.4509)" class="st1" cx="703.4" cy="106.4" rx="16.6" ry="16.6"/>
		<path class="st1" d="M722,134.7c-6.4-2.2-13.6-3.4-18.6-3.4c-11.1,0-33.2,5.6-33.2,16.6v8.3H722V134.7z"/>
	</g>
	<g>
		
			<ellipse transform="matrix(0.9732 -0.2298 0.2298 0.9732 -205.4991 188.1804)" class="st6" cx="705.4" cy="976.6" rx="16.6" ry="16.6"/>
		<path class="st6" d="M724,1004.9c-6.4-2.2-13.6-3.4-18.6-3.4c-11.1,0-33.2,5.6-33.2,16.6v8.3H724V1004.9z"/>
	</g>
	<g>
		<polygon class="st5" points="743,504.2 703.1,523.4 693.2,566.6 720.8,601.2 765.1,601.2 792.7,566.6 782.9,523.4 		"/>
		<g>
			<path class="st0" d="M741.8,558.1l-4,4.3v10.5h-7.6V536h7.6v16.7l3.3-4.6l9.4-12.1h9.3l-13.1,16.4l13.5,20.5h-9L741.8,558.1z"/>
		</g>
		<g>
			<polygon class="st0" points="786.9,505.5 769.3,514 765,532.9 777.1,548.1 796.6,548.1 808.7,532.9 804.4,514 			"/>
			<path class="st5" d="M797.2,549.5h-20.7l-12.9-16.2l4.6-20.2l18.7-9l18.7,9l4.6,20.2L797.2,549.5z M777.8,546.8h18.2l11.3-14.2
				l-4-17.7l-16.4-7.9l-16.4,7.9l-4,17.7L777.8,546.8z"/>
		</g>
		<g>
			<path class="st5" d="M784.2,519.8l0.1,1.8c1.1-1.4,2.6-2.1,4.4-2.1c1.6,0,2.9,0.5,3.7,1.4c0.8,1,1.2,2.4,1.2,4.3v10h-4.1v-9.9
				c0-0.9-0.2-1.5-0.6-1.9c-0.4-0.4-1-0.6-1.9-0.6c-1.2,0-2,0.5-2.6,1.5v10.9h-4.1v-15.5H784.2z"/>
		</g>
	</g>
	<rect x="1629.5" y="599.5" class="st15" width="190" height="168"/>
	<text transform="matrix(1 0 0 1 1629.5083 618.1307)"><tspan x="0" y="0" class="st2 st16 st18">Contributors</tspan><tspan x="163.3" y="0" class="st6 st16 st18"> </tspan><tspan x="0" y="31.2" class="st6 st19 st18">develop and </tspan><tspan x="0" y="62.4" class="st6 st19 st18">contribute code </tspan><tspan x="0" y="93.6" class="st6 st19 st18">and docs to  </tspan><tspan x="0" y="124.8" class="st6 st19 st18">the OSS project</tspan></text>
	<rect x="142.5" y="605.6" class="st15" width="257.4" height="168"/>
	<text transform="matrix(1 0 0 1 142.5097 624.2626)"><tspan x="0" y="0" class="st10 st16 st18">Developers</tspan><tspan x="143.3" y="0" class="st6 st19 st18">  </tspan><tspan x="0" y="31.2" class="st6 st19 st18">build and  </tspan><tspan x="0" y="62.4" class="st6 st19 st18">deploy apps</tspan></text>
	<path class="st15" d="M707,946.6h89.7v89.7H707V946.6z"/>
	<path class="st6" d="M793,960.8h-15.6c-1.6-4.3-5.7-7.5-10.5-7.5c-4.9,0-9,3.1-10.5,7.5h-15.6c-4.1,0-7.5,3.4-7.5,7.5v52.3
		c0,4.1,3.4,7.5,7.5,7.5H793c4.1,0,7.5-3.4,7.5-7.5v-52.3C800.4,964.1,797.1,960.8,793,960.8z M766.8,960.8c2.1,0,3.7,1.7,3.7,3.7
		c0,2.1-1.7,3.7-3.7,3.7c-2.1,0-3.7-1.7-3.7-3.7C763.1,962.4,764.8,960.8,766.8,960.8z M759.4,1013.1l-14.9-14.9l5.3-5.3l9.7,9.6
		l24.6-24.6l5.3,5.3L759.4,1013.1z"/>
	<line class="st7" x1="1297.2" y1="553.3" x2="1376.1" y2="553.3"/>
	<polyline class="st7" points="663.4,459.7 1286.5,459.7 1286.5,638.8 656.5,638.8 	"/>
	<g>
		<line class="st12" x1="764.2" y1="169.7" x2="764.2" y2="260.1"/>
		<polygon class="st1" points="752.3,247.3 775.6,247.3 764,268.9 		"/>
	</g>
	<line class="st7" x1="498.5" y1="553.4" x2="653.7" y2="553.4"/>
</g>
<g id="Layer_1" class="st21">
</g>
</svg>
