<?xml version="1.0" encoding="utf-8"?>
<!-- Generator: Adobe Illustrator 23.1.1, SVG Export Plug-In . SVG Version: 6.00 Build 0)  -->
<svg version="1.1" id="Layer_1" xmlns="http://www.w3.org/2000/svg" xmlns:xlink="http://www.w3.org/1999/xlink" x="0px" y="0px"
	 viewBox="0 0 1962 1296" style="enable-background:new 0 0 1962 1296;" xml:space="preserve">
<style type="text/css">
	.st0{fill:#4285F4;}
	.st1{fill:#34A853;}
	.st2{fill:#F9BC15;}
	.st3{fill-rule:evenodd;clip-rule:evenodd;fill:#4285F4;}
	.st4{fill:none;}
	.st5{font-family:'OpenSans-SemiBold';}
	.st6{font-size:26px;}
	.st7{fill:#424242;}
	.st8{fill:#FFFFFF;}
	.st9{font-family:'OpenSans-Bold';}
	.st10{font-size:64px;}
	.st11{fill:none;stroke:#E23027;stroke-width:7;stroke-miterlimit:10;stroke-dasharray:10,10;}
	.st12{fill:none;stroke:#F9BC15;stroke-width:7;stroke-miterlimit:10;stroke-dasharray:10,10;}
	.st13{fill:#E23027;}
	.st14{fill:#E23027;stroke:#E23027;stroke-miterlimit:10;}
	.st15{fill:none;stroke:#424242;stroke-width:7;stroke-miterlimit:10;stroke-dasharray:10,10;}
	.st16{fill:#424242;stroke:#424242;stroke-miterlimit:10;}
	.st17{fill:none;stroke:#4285F4;stroke-width:7;stroke-miterlimit:10;stroke-dasharray:10,10;}
	.st18{fill:none;stroke:#34A853;stroke-width:7;stroke-miterlimit:10;stroke-dasharray:10,10;}
</style>
<g id="Layer_3">
</g>
<rect x="659.5" y="473.3" class="st0" width="584" height="154"/>
<rect x="659.5" y="651.3" class="st0" width="584" height="154"/>
<g>
	<path class="st1" d="M789.8,287.5v-7.3h-7.3v-7.3c0-4-3.3-7.3-7.3-7.3h-50.9c-4,0-7.3,3.3-7.3,7.3v50.9c0,4,3.3,7.3,7.3,7.3h51
		c4,0,7.3-3.3,7.3-7.3v-7.3h7.3v-7.3h-7.3v-7.3h7.3v-7.1h-7.3v-7.3H789.8z M775.3,323.8h-50.9V273h50.9V323.8z M731.8,302H750v14.5
		h-18.2V302z M753.6,280.2h14.5v10.9h-14.5V280.2z M731.8,280.2H750v18.2h-18.2V280.2z M753.6,294.8h14.5v21.8h-14.5V294.8z"/>
</g>
<g>
	<g>
		<path class="st2" d="M1681.2,521.7c0-8-6.5-14.5-14.5-14.5s-14.4,6.5-14.4,14.5s6.4,14.5,14.4,14.5
			C1674.8,536.2,1681.2,529.7,1681.2,521.7z M1719.8,521.7c0-8-6.5-14.5-14.5-14.5s-14.4,6.5-14.4,14.5s6.4,14.5,14.4,14.5
			C1713.4,536.2,1719.8,529.7,1719.8,521.7z M1671.6,562.7v12.1h67.5v-12.1c0-11.2-22.5-16.9-33.7-16.9
			C1694.1,545.8,1671.6,551.5,1671.6,562.7z M1633,562.7v12.1h28.9v-12.1c0-7.1,3.9-12.6,9.5-16.6c-1.7-0.1-3.3-0.2-4.7-0.2
			C1655.6,545.8,1633,551.5,1633,562.7z"/>
	</g>
	<path class="st2" d="M1574.1,481.5v37.6c0,3.5,2.8,6.3,6.3,6.3h43.9l12.5,12.5v-56.5c0-3.5-2.8-6.3-6.2-6.3h-50.2
		C1576.9,475.3,1574.1,478.1,1574.1,481.5z M1616.5,512.9l-21.6-21.6c-0.6-0.6-0.6-1.6,0-2.2l5.6-5.6c0.6-0.6,1.6-0.6,2.2,0
		l21.6,21.6v7.7h-7.8V512.9z M1586.6,506.6h17.3l6.3,6.3h-23.5v-6.3H1586.6z"/>
</g>
<path class="st3" d="M1422.5,503.3c-25.7,0-46.5,20.8-46.5,46.5c0,20.5,13.3,38,31.8,44.1c2.3,0.4,3.2-1,3.2-2.2c0-1.1,0-4-0.1-7.9
	c-12.9,2.8-15.7-6.2-15.7-6.2c-2.1-5.4-5.2-6.8-5.2-6.8c-4.2-2.9,0.3-2.8,0.3-2.8c4.7,0.3,7.1,4.8,7.1,4.8
	c4.1,7.1,10.9,5.1,13.5,3.9c0.4-3,1.6-5.1,3-6.2c-10.3-1.2-21.2-5.2-21.2-23c0-5.1,1.8-9.2,4.8-12.5c-0.5-1.2-2.1-5.9,0.5-12.3
	c0,0,3.9-1.2,12.8,4.8c3.7-1,7.7-1.5,11.6-1.6c3.9,0,7.9,0.5,11.6,1.6c8.9-6,12.8-4.8,12.8-4.8c2.5,6.4,0.9,11.1,0.5,12.3
	c3,3.2,4.8,7.4,4.8,12.5c0,17.9-10.9,21.8-21.2,22.9c1.7,1.4,3.2,4.3,3.2,8.6c0,6.2-0.1,11.2-0.1,12.7c0,1.2,0.8,2.7,3.2,2.2
	c18.5-6.2,31.8-23.6,31.8-44.1C1469,524.1,1448.2,503.3,1422.5,503.3z"/>
<rect x="839.6" y="265.1" class="st4" width="406.5" height="168"/>
<text transform="matrix(1 0 0 1 839.5955 283.6646)" class="st1 st5 st6">Users</text>
<text transform="matrix(1 0 0 1 910.2954 283.6646)" class="st7 st5 st6"> </text>
<text transform="matrix(1 0 0 1 916.3954 283.6646)" class="st7 st5 st6">and </text>
<text transform="matrix(1 0 0 1 966.3954 283.6646)" class="st1 st5 st6">Systems (IoT)</text>
<text transform="matrix(1 0 0 1 1136.5953 283.6646)" class="st1 st5 st6"> </text>
<text transform="matrix(1 0 0 1 1142.6954 283.6646)" class="st7 st5 st6">use </text>
<text transform="matrix(1 0 0 1 839.5955 314.8646)" class="st7 st5 st6">applications developed and </text>
<text transform="matrix(1 0 0 1 839.5955 346.0646)" class="st7 st5 st6">deployed by developers and </text>
<text transform="matrix(1 0 0 1 839.5955 377.2646)" class="st7 st5 st6">hosted by operators</text>
<rect x="1376.3" y="604.6" class="st4" width="187.5" height="45"/>
<text transform="matrix(1 0 0 1 1376.2722 623.2625)" class="st0 st5 st6">GitHub</text>
<rect x="430.6" y="606.7" class="st4" width="63.4" height="45"/>
<text transform="matrix(1 0 0 1 430.6492 625.3455)" class="st0 st5 st6">API</text>
<rect x="860.1" y="950.2" class="st4" width="382.5" height="100.5"/>
<text transform="matrix(1 0 0 1 860.1328 968.8059)" class="st7 st5 st6">Operators </text>
<text transform="matrix(1 0 0 1 996.4328 968.8059)" class="st7 st5 st6">deploy and manage </text>
<text transform="matrix(1 0 0 1 860.1328 1000.0059)" class="st7 st5 st6">Knative instances using </text>
<text transform="matrix(1 0 0 1 860.1328 1031.2059)" class="st7 st5 st6">Kubernetes API and tools</text>
<rect x="660.1" y="526.1" class="st4" width="583.4" height="72.8"/>
<text transform="matrix(1 0 0 1 828.5757 578.0844)" class="st8 st9 st10">Knative</text>
<rect x="670.1" y="708.9" class="st4" width="583.4" height="112.5"/>
<line class="st11" x1="268.3" y1="553.4" x2="376.3" y2="553.4"/>
<line class="st12" x1="1506" y1="553.4" x2="1614" y2="553.4"/>
<path class="st0" d="M415.9,555h31.4v-39.3h-31.4V555z M415.9,586.4h31.4v-23.6h-31.4V586.4z M455.2,586.4h31.4v-39.3h-31.4V586.4z
	 M455.2,515.7v23.6h31.4v-23.6H455.2z"/>
<polygon class="st2" points="1497.5,565 1497.5,541.7 1475.9,553.4 "/>
<polygon class="st13" points="382.5,541.7 382.5,565 404.2,553.4 "/>
<g>
	<g>
		<path class="st14" d="M192.8,521.8c0-8.1-6.6-14.7-14.7-14.7s-14.7,6.6-14.7,14.7c0,8.1,6.5,14.7,14.7,14.7
			S192.8,529.9,192.8,521.8z M232.1,521.8c0-8.1-6.6-14.7-14.7-14.7s-14.7,6.6-14.7,14.7c0,8.1,6.5,14.7,14.7,14.7
			S232.1,529.9,232.1,521.8z M183,563.5v12.3h68.6v-12.3c0-11.4-22.9-17.2-34.3-17.2S183,552,183,563.5z M143.8,563.5v12.3h29.4
			v-12.3c0-7.3,4-12.8,9.7-16.9c-1.7-0.1-3.3-0.2-4.8-0.2C166.7,546.3,143.8,552,143.8,563.5z"/>
	</g>
	<path class="st14" d="M311.4,483.1v37.5c0,3.4-2.8,6.3-6.3,6.3h-43.8l-12.5,12.5v-56.3c0-3.4,2.8-6.3,6.3-6.3h50
		C308.6,476.9,311.4,479.7,311.4,483.1z"/>
	<path class="st8" d="M263.6,506.1c-0.4,0.3-0.4,0.7-0.2,1.1l3.6,6.2c0.2,0.4,0.7,0.6,1.1,0.4l4.4-1.8c0.9,0.7,1.9,1.3,3,1.7
		l0.7,4.7c0,0.4,0.4,0.8,0.9,0.8h7.1c0.4,0,0.8-0.3,0.9-0.8l0.7-4.7c1.1-0.4,2.1-1,3-1.7l4.4,1.8c0.4,0.1,0.9,0,1.1-0.4l3.6-6.2
		c0.2-0.4,0.1-0.9-0.2-1.1l-3.8-2.9c0.1-0.6,0.1-1.2,0.1-1.7s-0.1-1.2-0.2-1.7l3.8-2.9c0.4-0.3,0.4-0.7,0.2-1.1l-3.6-6.2
		c-0.2-0.4-0.7-0.6-1.1-0.4l-4.4,1.8c-0.9-0.7-1.9-1.3-3-1.7l-0.7-4.7c-0.1-0.4-0.4-0.8-0.9-0.8H277c-0.4,0-0.8,0.3-0.9,0.8
		l-0.7,4.7c-1.1,0.4-2.1,1-3,1.7l-4.4-1.8c-0.4-0.1-0.9,0-1.1,0.4l-3.6,6.2c-0.2,0.4-0.1,0.9,0.2,1.1l3.8,2.9
		c-0.1,0.6-0.1,1.1-0.1,1.7s0,1.2,0.1,1.7L263.6,506.1z M273.9,501.5c0-3.7,3-6.7,6.7-6.7s6.7,3,6.7,6.7s-3,6.7-6.7,6.7
		S273.9,505.1,273.9,501.5z"/>
</g>
<g>
	<line class="st15" x1="764.6" y1="933.4" x2="764.6" y2="843"/>
	<polygon class="st16" points="776.6,855.9 753.2,855.9 764.9,834.2 	"/>
</g>
<g>
	
		<ellipse transform="matrix(0.9732 -0.2298 0.2298 0.9732 -46.1152 166.2548)" class="st1" cx="690.7" cy="281.1" rx="16.6" ry="16.6"/>
	<path class="st1" d="M709.3,309.5c-6.4-2.2-13.6-3.4-18.6-3.4c-11.1,0-33.2,5.6-33.2,16.6v8.3h51.8V309.5z"/>
</g>
<g>
	<ellipse class="st7" cx="705.4" cy="976.5" rx="16.6" ry="16.6"/>
	<path class="st7" d="M724,1004.9c-6.4-2.2-13.6-3.4-18.6-3.4c-11.1,0-33.2,5.6-33.2,16.6v8.3H724V1004.9z"/>
</g>
<g>
	<polygon class="st8" points="743,504.2 703.1,523.4 693.2,566.6 720.8,601.2 765.1,601.2 792.7,566.6 782.9,523.4 	"/>
	<g>
		<path class="st0" d="M741.8,558.1l-4,4.3v10.5h-7.6V536h7.6v16.7l3.3-4.6l9.4-12.1h9.3l-13.1,16.4l13.5,20.5h-9L741.8,558.1z"/>
	</g>
	<g>
		<polygon class="st0" points="786.9,505.5 769.3,514 765,532.9 777.1,548.1 796.6,548.1 808.7,532.9 804.4,514 		"/>
		<path class="st8" d="M797.2,549.5h-20.7l-12.9-16.2l4.6-20.2l18.7-9l18.7,9l4.6,20.2L797.2,549.5z M777.8,546.8H796l11.3-14.2
			l-4-17.7l-16.4-7.9l-16.4,7.9l-4,17.7L777.8,546.8z"/>
	</g>
	<g>
		<path class="st8" d="M784.2,519.8l0.1,1.8c1.1-1.4,2.6-2.1,4.4-2.1c1.6,0,2.9,0.5,3.7,1.4c0.8,1,1.2,2.4,1.2,4.3v10h-4.1v-9.9
			c0-0.9-0.2-1.5-0.6-1.9c-0.4-0.4-1-0.6-1.9-0.6c-1.2,0-2,0.5-2.6,1.5v10.9h-4.1v-15.5L784.2,519.8L784.2,519.8z"/>
	</g>
</g>
<rect x="1629.5" y="599.5" class="st4" width="190" height="168"/>
<text transform="matrix(1 0 0 1 1629.5083 618.1307)" class="st2 st5 st6">Contributors</text>
<text transform="matrix(1 0 0 1 1792.8083 618.1307)" class="st7 st5 st6"> </text>
<text transform="matrix(1 0 0 1 1629.5083 649.3307)" class="st7 st5 st6">develop and </text>
<text transform="matrix(1 0 0 1 1629.5083 680.5306)" class="st7 st5 st6">contribute code </text>
<text transform="matrix(1 0 0 1 1629.5083 711.7307)" class="st7 st5 st6">and docs to  </text>
<text transform="matrix(1 0 0 1 1629.5083 742.9307)" class="st7 st5 st6">the OSS project</text>
<rect x="142.5" y="605.6" class="st4" width="257.4" height="168"/>
<text transform="matrix(1 0 0 1 142.5097 624.2626)" class="st13 st5 st6">Developers</text>
<text transform="matrix(1 0 0 1 285.8097 624.2626)" class="st7 st5 st6">  </text>
<text transform="matrix(1 0 0 1 142.5097 655.4626)" class="st7 st5 st6">build and  </text>
<text transform="matrix(1 0 0 1 142.5097 686.6626)" class="st7 st5 st6">deploy apps</text>
<path class="st4" d="M707,946.6h89.7v89.7H707V946.6z"/>
<path class="st7" d="M793,960.8h-15.6c-1.6-4.3-5.7-7.5-10.5-7.5c-4.9,0-9,3.1-10.5,7.5h-15.6c-4.1,0-7.5,3.4-7.5,7.5v52.3
	c0,4.1,3.4,7.5,7.5,7.5H793c4.1,0,7.5-3.4,7.5-7.5v-52.3C800.4,964.1,797.1,960.8,793,960.8z M766.8,960.8c2.1,0,3.7,1.7,3.7,3.7
	c0,2.1-1.7,3.7-3.7,3.7c-2.1,0-3.7-1.7-3.7-3.7C763.1,962.4,764.8,960.8,766.8,960.8z M759.4,1013.1l-14.9-14.9l5.3-5.3l9.7,9.6
	l24.6-24.6l5.3,5.3L759.4,1013.1z"/>
<line class="st17" x1="1259.9" y1="553.3" x2="1376.1" y2="553.3"/>
<polyline class="st17" points="663.1,459.7 1259.9,459.7 1259.9,638.8 656.5,638.8 "/>
<g>
	<line class="st18" x1="751.6" y1="344.5" x2="751.6" y2="434.9"/>
	<polygon class="st1" points="739.7,422.1 762.9,422.1 751.3,443.7 	"/>
</g>
<line class="st17" x1="498.5" y1="553.4" x2="653.7" y2="553.4"/>
<g>
	<g id="its-pronounced">
		<g id="kyoob-cuttle">
			<path id="kkkkkkk" class="st8" d="M836.9,728.4c0.8-0.9,1.6-1.9,2.6-2.8c0.9-1,1.7-1.9,2.6-2.9c0.8-1,1.6-2,2.4-2.8
				c0.7-0.8,1.4-1.6,2-2.3h10c-2,2.3-3.9,4.5-5.9,6.6c-1.9,2.1-3.9,4.2-6.2,6.5c1.2,1.2,2.4,2.4,3.5,3.7c1.2,1.4,2.4,2.9,3.5,4.3
				c1.1,1.4,2.2,3,3.1,4.5c0.9,1.5,1.8,2.9,2.4,4.1h-9.7c-0.6-1-1.3-2.1-2.1-3.2c-0.8-1.2-1.6-2.4-2.5-3.6c-0.8-1.2-1.8-2.4-2.8-3.5
				c-0.8-1-1.8-2-2.8-2.8v13h-8.4v-42.5l8.4-1.3v24.9"/>
			<path id="uuuuuuu" class="st8" d="M886.1,746.4c-1.8,0.5-3.7,0.9-5.6,1.1c-2.3,0.4-4.7,0.6-7.1,0.5c-2.2,0.1-4.3-0.3-6.4-1
				c-3.1-1.2-5.4-3.9-6-7.2c-0.4-1.8-0.6-3.7-0.6-5.6v-16.6h8.4v15.5c0,2.7,0.3,4.6,1,5.9c0.7,1.2,2.1,1.9,4,1.9c0.7,0,1.3,0,2-0.1
				c0.7-0.1,1.2-0.1,1.9-0.2v-22.9h8.4L886.1,746.4"/>
			<path id="bbbbbbb" class="st8" d="M913.1,732.3c0-5.5-2-8.1-6-8.1c-0.9,0-1.7,0.1-2.6,0.3c-0.7,0.2-1.4,0.5-2.1,0.8v15.3
				c0.4,0.1,0.9,0.1,1.5,0.2c0.6,0,1.3,0.1,2.1,0.1c2,0.1,4-0.8,5.2-2.4C912.6,736.7,913.2,734.5,913.1,732.3 M921.7,732.5
				c0,2.2-0.3,4.4-1,6.5c-0.6,1.8-1.6,3.5-3,4.9c-1.4,1.4-3,2.4-4.8,3.2c-2.1,0.7-4.3,1.1-6.6,1c-1,0-2.1-0.1-3.2-0.2
				c-1.1-0.1-2.2-0.2-3.3-0.3c-1-0.1-2.1-0.3-3.1-0.5c-0.9-0.2-1.7-0.4-2.6-0.7v-41.6l8.4-1.3v14.8c1-0.4,2-0.7,3-0.9
				c1.1-0.2,2.2-0.3,3.3-0.3c1.9,0,3.8,0.4,5.6,1.1c1.6,0.7,3,1.8,4.1,3.1c1.2,1.4,2,3.1,2.5,4.9
				C921.4,728.3,921.7,730.4,921.7,732.5"/>
			<path id="eeeeeee0" class="st8" d="M926.7,732.8c-0.1-2.4,0.4-4.7,1.2-6.9c0.7-1.8,1.8-3.5,3.2-4.9c1.3-1.3,2.8-2.3,4.5-3
				c1.7-0.7,3.5-1,5.3-1c3.7-0.2,7.4,1.3,10,3.9c2.5,2.6,3.7,6.4,3.7,11.3c0,0.6,0,1.1-0.1,1.6c0,0.5-0.1,1-0.1,1.5h-19.1
				c0.2,1.7,1.1,3.2,2.5,4.1c1.7,1.1,3.7,1.6,5.8,1.5c1.5,0,3-0.1,4.5-0.4c1.3-0.2,2.5-0.6,3.7-1l1.1,6.9c-0.4,0.2-1,0.4-1.9,0.7
				c-0.8,0.3-1.7,0.5-2.6,0.5c-1,0.2-2,0.3-3,0.4c-1,0.1-2.2,0.2-3.2,0.2c-2.4,0.1-4.8-0.4-7-1.2c-1.8-0.7-3.5-1.8-4.9-3.2
				c-1.3-1.4-2.2-3.1-2.9-4.9C927,737,926.7,734.9,926.7,732.8 M946.6,729.5c0-0.7-0.2-1.4-0.4-2.1c-0.2-0.7-0.5-1.3-0.9-1.9
				c-1-1.2-2.5-1.9-4.1-1.9c-0.8,0-1.7,0.2-2.5,0.5c-0.6,0.3-1.2,0.7-1.6,1.2c-0.5,0.5-0.8,1.2-1,1.9c-0.2,0.7-0.4,1.4-0.5,2.1h11.1
				"/>
			<path id="rrrrrrr" class="st8" d="M979.1,725.1c-0.9-0.2-1.8-0.4-2.7-0.5c-1.1-0.2-2.2-0.3-3.3-0.3c-0.7,0-1.3,0.1-2,0.2
				c-0.6,0.1-1.1,0.2-1.6,0.3v22.7h-8.4v-28.3c1.8-0.6,3.5-1.1,5.3-1.4c2.3-0.5,4.6-0.8,6.9-0.7c0.6,0,1.1,0,1.6,0.1
				c0.7,0,1.3,0.1,2,0.2c0.6,0.1,1.2,0.2,2,0.3c0.6,0.1,1.2,0.3,1.6,0.4L979.1,725.1"/>
			<path id="nnnnnnn" class="st8" d="M985.1,718.7c4.1-1.1,8.4-1.6,12.7-1.6c2.1-0.1,4.3,0.3,6.3,1c1.6,0.5,3,1.5,4,2.8
				c1,1.3,1.7,2.8,2.1,4.3c0.4,1.8,0.6,3.7,0.6,5.6v16.8h-8.4v-15.7c0-2.7-0.3-4.6-1-5.8c-0.7-1.1-2.1-1.6-4-1.6c-0.7,0-1.3,0-2,0.1
				c-0.6,0-1.2,0.1-1.9,0.2v22.9h-8.3L985.1,718.7"/>
			<path id="eeeeeee1" class="st8" d="M1017,732.8c-0.1-2.4,0.4-4.7,1.2-6.9c0.7-1.8,1.8-3.5,3.2-4.9c1.3-1.3,2.8-2.3,4.5-3
				c1.7-0.7,3.5-1,5.3-1c3.7-0.2,7.4,1.3,10,3.9c2.5,2.6,3.7,6.4,3.7,11.3c0,0.6,0,1.1-0.1,1.6c0,0.5-0.1,1-0.1,1.5h-19.1
				c0.2,1.7,1.1,3.2,2.5,4.1c1.7,1.1,3.7,1.6,5.8,1.5c1.5,0,3-0.1,4.5-0.4c1.3-0.2,2.5-0.6,3.7-1l1.1,6.9c-0.4,0.2-1,0.4-1.9,0.7
				c-0.8,0.3-1.7,0.5-2.6,0.5c-1,0.2-2,0.3-3,0.4c-1,0.1-2.2,0.2-3.2,0.2c-2.4,0.1-4.8-0.4-7-1.2c-1.8-0.7-3.5-1.8-4.9-3.2
				c-1.3-1.4-2.2-3.1-2.9-4.9C1017.2,737,1017,734.9,1017,732.8 M1036.8,729.5c0-0.7-0.2-1.4-0.4-2.1c-0.2-0.7-0.5-1.3-0.9-1.9
				c-1-1.2-2.5-1.9-4.1-1.9c-0.8,0-1.7,0.2-2.5,0.5c-0.6,0.3-1.2,0.7-1.6,1.2c-0.5,0.5-0.8,1.2-1,1.9c-0.2,0.7-0.4,1.4-0.5,2.1h11.1
				"/>
			<path id="ttttttt" class="st8" d="M1051.2,710.3l8.4-1.3v8.7h10.1v7h-10.1v10.5c-0.1,1.5,0.2,2.9,0.9,4.2c0.6,1,2,1.5,3.8,1.5
				c0.9,0,1.9-0.1,2.8-0.2c0.9-0.2,1.8-0.4,2.7-0.7l1.2,6.6c-1.1,0.5-2.2,0.8-3.4,1c-1.5,0.3-3.1,0.5-4.6,0.4
				c-2,0.1-3.9-0.3-5.8-0.9c-1.4-0.6-2.6-1.4-3.6-2.6c-1-1.2-1.6-2.6-2-4.1c-0.3-1.7-0.5-3.5-0.5-5.2L1051.2,710.3"/>
			<path id="eeeeeee2" class="st8" d="M1074.1,732.8c-0.1-2.4,0.4-4.7,1.2-6.9c0.7-1.8,1.8-3.5,3.2-4.9c1.3-1.3,2.8-2.3,4.5-3
				c1.7-0.7,3.5-1,5.3-1c3.7-0.2,7.4,1.3,10,3.9c2.5,2.6,3.7,6.4,3.7,11.3c0,0.6,0,1.1-0.1,1.6c0,0.5-0.1,1-0.1,1.5h-19.1
				c0.2,1.7,1.1,3.2,2.5,4.1c1.7,1.1,3.7,1.6,5.8,1.5c1.5,0,3-0.1,4.5-0.4c1.3-0.2,2.5-0.6,3.7-1l1.1,6.9c-0.4,0.2-1,0.4-1.9,0.7
				c-0.8,0.3-1.7,0.5-2.6,0.5c-1,0.2-2,0.3-3,0.4c-1,0.1-2.2,0.2-3.2,0.2c-2.4,0.1-4.8-0.4-7-1.2c-1.8-0.7-3.5-1.8-4.9-3.2
				c-1.3-1.4-2.2-3.1-2.9-4.9C1074.3,737,1074,734.9,1074.1,732.8 M1093.8,729.5c0-0.7-0.2-1.4-0.4-2.1c-0.2-0.7-0.5-1.3-0.9-1.9
				c-1-1.2-2.5-1.9-4.1-1.9c-0.8,0-1.7,0.2-2.5,0.5c-0.6,0.3-1.2,0.7-1.6,1.2c-0.5,0.5-0.8,1.2-1,1.9c-0.2,0.7-0.4,1.4-0.5,2.1h11.1
				"/>
			<path id="sssssss" class="st8" d="M1117,741.4c1.1,0.1,2.2-0.1,3.3-0.4c0.6-0.3,1-1,0.9-1.8c0-0.7-0.4-1.2-1.2-1.7
				c-1.2-0.7-2.5-1.3-3.8-1.8c-1.3-0.5-2.6-1-3.6-1.5c-1-0.5-1.9-1.1-2.7-1.9c-0.8-0.8-1.4-1.7-1.7-2.7c-0.4-1.2-0.6-2.4-0.6-3.7
				c-0.1-2.6,1-5,3.1-6.6c2.1-1.6,4.9-2.5,8.5-2.5c1.8,0,3.5,0.2,5.2,0.5c1.3,0.2,2.6,0.5,3.9,1l-1.4,6.6c-1-0.3-2.1-0.6-3.2-0.9
				c-1.2-0.3-2.5-0.4-3.8-0.4c-2.7,0-3.9,0.7-3.9,2.2c0,0.3,0.1,0.6,0.2,0.9c0.1,0.3,0.4,0.6,0.7,0.8c0.3,0.2,0.8,0.5,1.3,0.8
				c0.6,0.3,1.3,0.5,2.3,0.9c1.6,0.6,3.1,1.3,4.6,2.1c1.1,0.5,2,1.2,2.8,2.2c0.7,0.7,1.2,1.6,1.4,2.6c0.3,1.1,0.4,2.2,0.4,3.3
				c0.1,2.6-1.1,5.2-3.3,6.7c-2.2,1.5-5.2,2.3-9.4,2.3c-2.2,0.1-4.4-0.2-6.6-0.7c-1.2-0.3-2.4-0.6-3.6-1.1l1.4-6.9
				c1.4,0.6,2.9,1,4.4,1.3C1114.1,741.2,1115.5,741.4,1117,741.4"/>
		</g>
	</g>
	<path class="st8" d="M759.6,733.4c-0.1,0-0.3,0-0.4,0c-0.2,0-0.5,0.1-0.7,0.2c-0.8,0.4-1.2,1.4-0.8,2.2l0,0l3.9,9.5
		c3.8-2.4,6.6-6,8.1-10.2L759.6,733.4L759.6,733.4z M743.9,734.7c-0.2-0.8-0.9-1.3-1.6-1.3c-0.1,0-0.2,0-0.3,0l0,0l-10,1.7
		c1.5,4.2,4.3,7.7,8.1,10.1l3.9-9.4l0,0C744,735.4,744,735.1,743.9,734.7z M752.3,738.4c-0.4-0.8-1.5-1.1-2.3-0.7
		c-0.3,0.2-0.5,0.4-0.7,0.7h0l-4.9,8.9c3.5,1.2,7.3,1.4,10.9,0.6c0.7-0.2,1.3-0.3,2-0.6L752.3,738.4L752.3,738.4z M767.9,717.7
		l-7.6,6.8l0,0c-0.7,0.6-0.8,1.7-0.2,2.4c0.2,0.3,0.5,0.4,0.8,0.5l0,0l9.8,2.8C771.2,725.9,770.2,721.5,767.9,717.7L767.9,717.7z
		 M753.8,718.5c0,0.9,0.8,1.7,1.8,1.6c0.3,0,0.7-0.1,0.9-0.3l0,0l8.3-5.9c-3.2-3.1-7.2-5.1-11.6-5.6L753.8,718.5L753.8,718.5z
		 M745,719.8c0.8,0.6,1.8,0.4,2.4-0.4c0.2-0.3,0.3-0.6,0.3-0.9l0,0l0.6-10.2c-0.7,0.1-1.4,0.2-2.1,0.4c-3.6,0.8-7,2.6-9.6,5.2
		L745,719.8L745,719.8z M740.6,727.5c0.9-0.2,1.4-1.2,1.2-2.1c-0.1-0.3-0.3-0.6-0.5-0.8l0,0l-7.6-6.8c-2.3,3.8-3.3,8.2-2.8,12.6
		L740.6,727.5L740.6,727.5z M748,730.5l2.8,1.3l2.8-1.3l0.7-3l-1.9-2.4h-3.1l-1.9,2.4L748,730.5z"/>
	<path class="st8" d="M797.3,736.4l-8-34.8c-0.4-1.8-1.7-3.4-3.4-4.2L753.5,682c-1.7-0.8-3.7-0.8-5.4,0l-32.4,15.5
		c-1.7,0.8-2.9,2.3-3.4,4.2l-8,34.8c-0.2,0.9-0.2,1.8,0,2.7c0.1,0.3,0.1,0.5,0.2,0.8c0.2,0.4,0.4,0.9,0.6,1.3
		c0.1,0.2,0.2,0.3,0.4,0.5l22.4,27.9c0.1,0.1,0.2,0.2,0.3,0.3c0.4,0.4,0.7,0.7,1.2,1c0.5,0.3,1.1,0.6,1.8,0.8c0.5,0.1,1,0.2,1.6,0.2
		h0.3l35.6,0c0.2,0,0.4,0,0.6,0c0.3,0,0.6-0.1,0.9-0.2c0.2-0.1,0.4-0.1,0.6-0.2c0.2-0.1,0.3-0.1,0.5-0.2c0.2-0.1,0.5-0.2,0.7-0.4
		c0.6-0.4,1.1-0.8,1.5-1.3l0.7-0.9l21.7-27c0.4-0.5,0.7-1.1,1-1.7c0.1-0.3,0.2-0.5,0.2-0.8C797.4,738.2,797.4,737.3,797.3,736.4
		L797.3,736.4z M763.6,750c0.1,0.3,0.2,0.5,0.3,0.8c-0.2,0.3-0.3,0.8-0.2,1.1c0.5,1.1,1,2.1,1.7,3.1c0.4,0.5,0.7,1,1,1.5
		c0.1,0.1,0.2,0.4,0.3,0.5c0.6,0.9,0.3,2.1-0.7,2.7c-0.9,0.6-2.1,0.3-2.7-0.7c-0.1-0.1-0.1-0.2-0.2-0.3c-0.1-0.2-0.2-0.4-0.2-0.5
		c-0.2-0.6-0.4-1.2-0.6-1.8c-0.3-1.1-0.8-2.2-1.3-3.3c-0.2-0.3-0.6-0.5-1-0.6c-0.1-0.1-0.3-0.5-0.4-0.7c-5.8,2.2-12.1,2.2-17.9,0
		l-0.4,0.8c-0.3,0-0.6,0.2-0.8,0.4c-0.7,1.1-1.2,2.3-1.5,3.5c-0.2,0.6-0.3,1.2-0.6,1.8c-0.1,0.1-0.2,0.3-0.2,0.5v0l0,0
		c-0.4,1-1.5,1.5-2.5,1.2c-1-0.4-1.5-1.5-1.2-2.5c0-0.1,0.1-0.2,0.2-0.4c0.1-0.2,0.2-0.4,0.2-0.5c0.3-0.5,0.7-1.1,1-1.6
		c0.7-1,1.3-2.1,1.8-3.2c0.1-0.4,0-0.8-0.2-1.1l0.4-0.8c-5.3-3.1-9.3-8.1-11.2-14l-0.8,0.1c-0.3-0.2-0.7-0.4-1.1-0.4
		c-1.2,0.2-2.3,0.6-3.4,1c-0.6,0.3-1.1,0.5-1.7,0.7c-0.1,0-0.3,0.1-0.5,0.1c0,0,0,0,0,0l0,0c-1,0.3-2.1-0.2-2.5-1.2
		c-0.3-1,0.2-2.1,1.2-2.5c0.1,0,0.2-0.1,0.4-0.1l0,0l0,0c0.2,0,0.4-0.1,0.5-0.1c0.6-0.1,1.2-0.1,1.9-0.2c1.2-0.1,2.3-0.3,3.5-0.6
		c0.3-0.2,0.6-0.5,0.8-0.8l0.8-0.2c-0.9-6.1,0.5-12.4,4-17.5l-0.6-0.6c0-0.4-0.2-0.8-0.4-1.1c-0.9-0.8-1.9-1.4-2.9-2
		c-0.6-0.3-1.1-0.6-1.6-0.9c-0.1-0.1-0.3-0.2-0.4-0.3l0,0c-0.9-0.7-1.1-1.9-0.5-2.9c0.4-0.5,1-0.7,1.5-0.7c0.5,0,1,0.2,1.4,0.5
		c0.1,0.1,0.3,0.2,0.4,0.3c0.5,0.4,0.9,0.9,1.3,1.4c0.8,0.9,1.7,1.7,2.6,2.4c0.4,0.2,0.8,0.2,1.2,0.1c0.1,0.1,0.5,0.4,0.7,0.5
		c3.4-3.6,7.8-6.1,12.7-7.2c1.2-0.3,2.3-0.4,3.5-0.5l0-0.8c0.3-0.3,0.5-0.6,0.6-1c0-1.2,0-2.4-0.2-3.5c-0.1-0.6-0.2-1.2-0.3-1.8
		c0-0.1,0-0.3,0-0.5c0,0,0,0,0-0.1c-0.1-1.1,0.7-2,1.7-2.1c1.1-0.1,2,0.7,2.1,1.7c0,0.1,0,0.3,0,0.4c0,0.2,0,0.4,0,0.6
		c-0.1,0.6-0.1,1.2-0.3,1.8c-0.2,1.2-0.3,2.3-0.2,3.5c0.1,0.4,0.3,0.7,0.6,1c0,0.1,0,0.6,0,0.9c6.1,0.6,11.9,3.3,16.1,7.8l0.7-0.5
		c0.4,0.1,0.8,0,1.2-0.1c0.9-0.7,1.8-1.5,2.6-2.4c0.4-0.5,0.8-0.9,1.3-1.4c0.1-0.1,0.3-0.2,0.4-0.3c0.8-0.8,2-0.7,2.8,0s0.7,2,0,2.8
		c-0.1,0.1-0.2,0.2-0.3,0.3c-0.1,0.1-0.3,0.3-0.4,0.3c-0.5,0.3-1.1,0.7-1.6,0.9c-1,0.6-2,1.3-2.9,2c-0.3,0.3-0.4,0.7-0.4,1.1
		c-0.1,0.1-0.5,0.4-0.7,0.6c3.4,5.1,4.9,11.3,4,17.5l0.8,0.2c0.2,0.4,0.5,0.6,0.8,0.8c1.1,0.3,2.3,0.5,3.5,0.6
		c0.6,0,1.2,0.1,1.9,0.1c0.2,0,0.4,0.1,0.6,0.1c1.1,0.1,1.8,1.1,1.7,2.2s-1.1,1.8-2.2,1.7c-0.1,0-0.2,0-0.4-0.1l0,0c0,0,0,0,0,0
		c-0.2,0-0.4-0.1-0.5-0.1c-0.6-0.2-1.2-0.4-1.7-0.7c-1.1-0.4-2.2-0.8-3.4-1c-0.4,0-0.8,0.1-1.1,0.4c-0.3-0.1-0.6-0.1-0.8-0.1
		C772.9,741.8,769,746.8,763.6,750L763.6,750z"/>
</g>
</svg>
